<svg width="32" height="32" viewBox="0 0 32 32" fill="none" xmlns="http://www.w3.org/2000/svg">
<path d="M26.615 3.21125C26.4952 3.11791 26.3557 3.05308 26.2072 3.02168C26.0586 2.99027 25.9048 2.99312 25.7575 3.03L9.75751 7.03C9.54117 7.08408 9.34911 7.20891 9.21186 7.38467C9.07461 7.56042 9.00004 7.77701 9.00001 8V21.76C8.1658 21.2026 7.16925 20.94 6.16869 21.0139C5.16813 21.0877 4.22095 21.4939 3.47764 22.1677C2.73433 22.8415 2.23752 23.7445 2.06614 24.733C1.89477 25.7215 2.05866 26.739 2.53177 27.6237C3.00489 28.5084 3.76009 29.2097 4.6774 29.616C5.5947 30.0224 6.6215 30.1105 7.59464 29.8665C8.56779 29.6224 9.43147 29.0602 10.0485 28.269C10.6655 27.4779 11.0004 26.5033 11 25.5V14.7813L25 11.2813V17.76C24.1658 17.2026 23.1692 16.94 22.1687 17.0139C21.1681 17.0877 20.221 17.4939 19.4776 18.1677C18.7343 18.8415 18.2375 19.7445 18.0661 20.733C17.8948 21.7215 18.0587 22.739 18.5318 23.6237C19.0049 24.5084 19.7601 25.2097 20.6774 25.616C21.5947 26.0224 22.6215 26.1105 23.5946 25.8665C24.5678 25.6224 25.4315 25.0602 26.0485 24.269C26.6655 23.4779 27.0004 22.5033 27 21.5V4C27 3.84791 26.9654 3.69781 26.8987 3.56113C26.8319 3.42445 26.7349 3.30479 26.615 3.21125ZM6.50001 28C6.00555 28 5.5222 27.8534 5.11108 27.5787C4.69996 27.304 4.37953 26.9135 4.19031 26.4567C4.00109 25.9999 3.95158 25.4972 4.04804 25.0123C4.14451 24.5273 4.38261 24.0819 4.73224 23.7322C5.08187 23.3826 5.52733 23.1445 6.01228 23.048C6.49723 22.9516 6.9999 23.0011 7.45671 23.1903C7.91353 23.3795 8.30398 23.7 8.57868 24.1111C8.85338 24.5222 9.00001 25.0055 9.00001 25.5C9.00001 26.163 8.73661 26.7989 8.26777 27.2678C7.79893 27.7366 7.16305 28 6.50001 28ZM11 12.7188V8.78125L25 5.28125V9.21875L11 12.7188ZM22.5 24C22.0056 24 21.5222 23.8534 21.1111 23.5787C20.7 23.304 20.3795 22.9135 20.1903 22.4567C20.0011 21.9999 19.9516 21.4972 20.048 21.0123C20.1445 20.5273 20.3826 20.0819 20.7322 19.7322C21.0819 19.3826 21.5273 19.1445 22.0123 19.048C22.4972 18.9516 22.9999 19.0011 23.4567 19.1903C23.9135 19.3795 24.304 19.7 24.5787 20.1111C24.8534 20.5222 25 21.0055 25 21.5C25 21.8283 24.9353 22.1534 24.8097 22.4567C24.6841 22.76 24.4999 23.0356 24.2678 23.2678C24.0356 23.4999 23.76 23.6841 23.4567 23.8097C23.1534 23.9353 22.8283 24 22.5 24Z" fill="#010033"/>
</svg>
