<svg width="312" height="641" viewBox="0 0 312 641" fill="none" xmlns="http://www.w3.org/2000/svg">
<mask id="mask0_1508_18800" style="mask-type:alpha" maskUnits="userSpaceOnUse" x="0" y="0" width="312" height="641">
<rect width="312" height="641" rx="156" fill="#00B0AC"/>
</mask>
<g mask="url(#mask0_1508_18800)">
<rect width="312" height="641" rx="156" fill="#00B0AC"/>
</g>
<path d="M80.2001 198.616V209.28L79.0481 209.896C78.6961 210.019 78.4481 210.099 78.3041 210.136C78.1601 210.173 78.0241 210.192 77.8961 210.192C77.7468 210.192 77.6241 210.149 77.5281 210.064C77.4375 209.984 77.3921 209.861 77.3921 209.696V200.168C77.3921 200.019 77.3708 199.912 77.3281 199.848C77.2855 199.779 77.2188 199.736 77.1281 199.72L76.8321 199.672C76.7255 199.645 76.6481 199.603 76.6001 199.544C76.5575 199.485 76.5361 199.413 76.5361 199.328C76.5361 199.221 76.5655 199.136 76.6241 199.072C76.6828 199.008 76.7948 198.947 76.9601 198.888L78.6241 198.264C78.8641 198.173 79.0535 198.109 79.1921 198.072C79.3361 198.035 79.4615 198.016 79.5681 198.016C79.7815 198.016 79.9388 198.072 80.0401 198.184C80.1468 198.296 80.2001 198.44 80.2001 198.616ZM79.6881 204.872L79.2321 204.376C79.6695 203.683 80.1655 203.141 80.7201 202.752C81.2748 202.357 81.9015 202.16 82.6001 202.16C83.2295 202.16 83.7921 202.323 84.2881 202.648C84.7895 202.968 85.1841 203.413 85.4721 203.984C85.7601 204.549 85.9041 205.205 85.9041 205.952C85.9041 206.811 85.7281 207.56 85.3761 208.2C85.0295 208.835 84.5575 209.328 83.9601 209.68C83.3628 210.032 82.6908 210.208 81.9441 210.208C81.3095 210.208 80.7495 210.067 80.2641 209.784C79.7841 209.501 79.3788 209.08 79.0481 208.52L79.7441 208.008C79.9948 208.397 80.2561 208.683 80.5281 208.864C80.8001 209.045 81.0935 209.136 81.4081 209.136C81.7175 209.136 81.9895 209.037 82.2241 208.84C82.4641 208.637 82.6508 208.323 82.7841 207.896C82.9228 207.469 82.9921 206.917 82.9921 206.24C82.9921 205.611 82.9228 205.099 82.7841 204.704C82.6508 204.304 82.4668 204.011 82.2321 203.824C82.0028 203.632 81.7388 203.536 81.4401 203.536C81.1041 203.536 80.7895 203.643 80.4961 203.856C80.2028 204.069 79.9335 204.408 79.6881 204.872ZM94.615 205.224C94.615 205.544 94.5243 205.792 94.343 205.968C94.167 206.144 93.911 206.232 93.575 206.232H88.703V205.52H91.407C91.6843 205.52 91.823 205.392 91.823 205.136C91.823 204.437 91.719 203.925 91.511 203.6C91.3083 203.269 91.0363 203.104 90.695 203.104C90.4337 203.104 90.2017 203.189 89.999 203.36C89.8017 203.531 89.6443 203.784 89.527 204.12C89.4097 204.451 89.351 204.859 89.351 205.344C89.351 206.352 89.5803 207.099 90.039 207.584C90.503 208.064 91.1243 208.304 91.903 208.304C92.319 208.304 92.6897 208.235 93.015 208.096C93.3403 207.957 93.6177 207.739 93.847 207.44C93.9697 207.323 94.063 207.243 94.127 207.2C94.1963 207.157 94.263 207.136 94.327 207.136C94.4177 207.136 94.4843 207.181 94.527 207.272C94.575 207.357 94.599 207.464 94.599 207.592C94.583 208.061 94.4203 208.496 94.111 208.896C93.8017 209.291 93.3777 209.608 92.839 209.848C92.3003 210.088 91.6763 210.208 90.967 210.208C90.1777 210.208 89.471 210.048 88.847 209.728C88.2283 209.408 87.7403 208.963 87.383 208.392C87.0257 207.816 86.847 207.144 86.847 206.376C86.847 205.539 87.0123 204.805 87.343 204.176C87.679 203.541 88.1617 203.048 88.791 202.696C89.4257 202.339 90.1857 202.16 91.071 202.16C91.8337 202.16 92.479 202.291 93.007 202.552C93.535 202.813 93.935 203.176 94.207 203.64C94.479 204.099 94.615 204.627 94.615 205.224ZM99.2538 198.616V208.544C99.2538 208.731 99.2724 208.867 99.3098 208.952C99.3524 209.032 99.4191 209.088 99.5098 209.12L99.7498 209.2C99.8618 209.243 99.9418 209.299 99.9898 209.368C100.038 209.432 100.062 209.509 100.062 209.6C100.062 209.723 100.022 209.821 99.9418 209.896C99.8618 209.965 99.7311 210 99.5498 210H96.1497C95.9684 210 95.8378 209.965 95.7578 209.896C95.6778 209.821 95.6378 209.723 95.6378 209.6C95.6378 209.509 95.6618 209.432 95.7098 209.368C95.7578 209.299 95.8378 209.243 95.9498 209.2L96.1978 209.12C96.2884 209.088 96.3524 209.032 96.3898 208.952C96.4271 208.867 96.4458 208.731 96.4458 208.544V200.168C96.4458 200.019 96.4244 199.912 96.3818 199.848C96.3391 199.779 96.2724 199.736 96.1818 199.72L95.8858 199.672C95.7791 199.645 95.7018 199.603 95.6538 199.544C95.6111 199.485 95.5898 199.413 95.5898 199.328C95.5898 199.221 95.6191 199.136 95.6778 199.072C95.7364 199.008 95.8484 198.947 96.0138 198.888L97.6778 198.264C97.9178 198.173 98.1071 198.109 98.2458 198.072C98.3898 198.035 98.5151 198.016 98.6218 198.016C98.8351 198.016 98.9924 198.072 99.0938 198.184C99.2004 198.296 99.2538 198.44 99.2538 198.616ZM104.598 202.776V208.544C104.598 208.731 104.616 208.867 104.654 208.952C104.696 209.032 104.76 209.088 104.845 209.12L105.086 209.2C105.198 209.243 105.278 209.299 105.326 209.368C105.379 209.432 105.406 209.509 105.406 209.6C105.406 209.723 105.363 209.821 105.278 209.896C105.198 209.965 105.07 210 104.894 210H101.486C101.31 210 101.182 209.965 101.102 209.896C101.022 209.821 100.982 209.723 100.982 209.6C100.982 209.509 101.006 209.432 101.054 209.368C101.102 209.299 101.182 209.243 101.294 209.2L101.542 209.12C101.627 209.088 101.688 209.032 101.726 208.952C101.768 208.867 101.79 208.731 101.79 208.544V204.328C101.79 204.179 101.768 204.072 101.726 204.008C101.683 203.944 101.616 203.901 101.526 203.88L101.222 203.84C101.12 203.808 101.046 203.765 100.998 203.712C100.955 203.653 100.934 203.579 100.934 203.488C100.934 203.381 100.963 203.299 101.022 203.24C101.08 203.176 101.192 203.112 101.358 203.048L103.014 202.432C103.259 202.336 103.451 202.269 103.59 202.232C103.734 202.195 103.859 202.176 103.966 202.176C104.179 202.176 104.336 202.232 104.438 202.344C104.544 202.456 104.598 202.6 104.598 202.776ZM103.022 201.216C102.51 201.216 102.102 201.093 101.798 200.848C101.499 200.597 101.35 200.261 101.35 199.84C101.35 199.424 101.499 199.096 101.798 198.856C102.102 198.611 102.51 198.488 103.022 198.488C103.534 198.488 103.939 198.611 104.238 198.856C104.542 199.101 104.694 199.429 104.694 199.84C104.694 200.261 104.542 200.597 104.238 200.848C103.939 201.093 103.534 201.216 103.022 201.216ZM113.99 205.224C113.99 205.544 113.899 205.792 113.718 205.968C113.542 206.144 113.286 206.232 112.95 206.232H108.078V205.52H110.782C111.059 205.52 111.198 205.392 111.198 205.136C111.198 204.437 111.094 203.925 110.886 203.6C110.683 203.269 110.411 203.104 110.07 203.104C109.809 203.104 109.577 203.189 109.374 203.36C109.177 203.531 109.019 203.784 108.902 204.12C108.785 204.451 108.726 204.859 108.726 205.344C108.726 206.352 108.955 207.099 109.414 207.584C109.878 208.064 110.499 208.304 111.278 208.304C111.694 208.304 112.065 208.235 112.39 208.096C112.715 207.957 112.993 207.739 113.222 207.44C113.345 207.323 113.438 207.243 113.502 207.2C113.571 207.157 113.638 207.136 113.702 207.136C113.793 207.136 113.859 207.181 113.902 207.272C113.95 207.357 113.974 207.464 113.974 207.592C113.958 208.061 113.795 208.496 113.486 208.896C113.177 209.291 112.753 209.608 112.214 209.848C111.675 210.088 111.051 210.208 110.342 210.208C109.553 210.208 108.846 210.048 108.222 209.728C107.603 209.408 107.115 208.963 106.758 208.392C106.401 207.816 106.222 207.144 106.222 206.376C106.222 205.539 106.387 204.805 106.718 204.176C107.054 203.541 107.537 203.048 108.166 202.696C108.801 202.339 109.561 202.16 110.446 202.16C111.209 202.16 111.854 202.291 112.382 202.552C112.91 202.813 113.31 203.176 113.582 203.64C113.854 204.099 113.99 204.627 113.99 205.224ZM119.557 210.032H118.501C118.309 210.032 118.143 209.984 118.005 209.888C117.866 209.787 117.757 209.635 117.677 209.432L115.373 203.768C115.293 203.571 115.226 203.44 115.173 203.376C115.125 203.307 115.066 203.261 114.997 203.24L114.781 203.168C114.679 203.12 114.605 203.067 114.557 203.008C114.514 202.949 114.493 202.869 114.493 202.768C114.493 202.645 114.535 202.549 114.621 202.48C114.711 202.405 114.834 202.368 114.989 202.368H118.933C119.258 202.368 119.421 202.501 119.421 202.768C119.421 202.864 119.391 202.944 119.333 203.008C119.279 203.067 119.191 203.115 119.069 203.152L118.805 203.216C118.575 203.275 118.437 203.371 118.389 203.504C118.341 203.637 118.381 203.867 118.509 204.192L120.229 208.672L119.597 209.064L121.397 204.2C121.519 203.869 121.554 203.637 121.501 203.504C121.453 203.365 121.317 203.269 121.093 203.216L120.837 203.152C120.714 203.115 120.623 203.067 120.565 203.008C120.506 202.949 120.477 202.869 120.477 202.768C120.477 202.64 120.519 202.541 120.605 202.472C120.695 202.403 120.815 202.368 120.965 202.368H123.093C123.242 202.368 123.359 202.405 123.445 202.48C123.535 202.549 123.581 202.645 123.581 202.768C123.581 202.853 123.559 202.931 123.517 203C123.474 203.064 123.389 203.115 123.261 203.152L123.053 203.208C122.957 203.24 122.866 203.328 122.781 203.472C122.695 203.616 122.586 203.856 122.453 204.192L120.389 209.488C120.298 209.701 120.178 209.845 120.029 209.92C119.885 209.995 119.727 210.032 119.557 210.032ZM131.724 205.224C131.724 205.544 131.634 205.792 131.452 205.968C131.276 206.144 131.02 206.232 130.684 206.232H125.812V205.52H128.516C128.794 205.52 128.932 205.392 128.932 205.136C128.932 204.437 128.828 203.925 128.62 203.6C128.418 203.269 128.146 203.104 127.804 203.104C127.543 203.104 127.311 203.189 127.108 203.36C126.911 203.531 126.754 203.784 126.636 204.12C126.519 204.451 126.46 204.859 126.46 205.344C126.46 206.352 126.69 207.099 127.148 207.584C127.612 208.064 128.234 208.304 129.012 208.304C129.428 208.304 129.799 208.235 130.124 208.096C130.45 207.957 130.727 207.739 130.956 207.44C131.079 207.323 131.172 207.243 131.236 207.2C131.306 207.157 131.372 207.136 131.436 207.136C131.527 207.136 131.594 207.181 131.636 207.272C131.684 207.357 131.708 207.464 131.708 207.592C131.692 208.061 131.53 208.496 131.22 208.896C130.911 209.291 130.487 209.608 129.948 209.848C129.41 210.088 128.786 210.208 128.076 210.208C127.287 210.208 126.58 210.048 125.956 209.728C125.338 209.408 124.85 208.963 124.492 208.392C124.135 207.816 123.956 207.144 123.956 206.376C123.956 205.539 124.122 204.805 124.452 204.176C124.788 203.541 125.271 203.048 125.9 202.696C126.535 202.339 127.295 202.16 128.18 202.16C128.943 202.16 129.588 202.291 130.116 202.552C130.644 202.813 131.044 203.176 131.316 203.64C131.588 204.099 131.724 204.627 131.724 205.224ZM136.195 203.008C135.854 203.008 135.592 203.088 135.411 203.248C135.23 203.408 135.139 203.605 135.139 203.84C135.139 203.984 135.168 204.117 135.227 204.24C135.291 204.363 135.416 204.475 135.603 204.576C135.795 204.672 136.08 204.76 136.459 204.84C137.36 205.011 138.051 205.229 138.531 205.496C139.011 205.757 139.342 206.067 139.523 206.424C139.704 206.776 139.795 207.173 139.795 207.616C139.795 208.416 139.512 209.048 138.947 209.512C138.387 209.976 137.566 210.208 136.483 210.208C136.104 210.208 135.798 210.176 135.563 210.112C135.334 210.053 135.147 209.995 135.003 209.936C134.859 209.872 134.731 209.84 134.619 209.84C134.496 209.84 134.395 209.872 134.315 209.936C134.235 209.995 134.155 210.053 134.075 210.112C134 210.176 133.904 210.208 133.787 210.208C133.68 210.208 133.598 210.176 133.539 210.112C133.48 210.048 133.427 209.933 133.379 209.768L132.907 208.232C132.838 208.003 132.816 207.819 132.843 207.68C132.875 207.541 132.96 207.445 133.099 207.392C133.243 207.339 133.368 207.339 133.475 207.392C133.582 207.44 133.683 207.539 133.779 207.688C134.024 208.077 134.28 208.397 134.547 208.648C134.819 208.893 135.102 209.075 135.395 209.192C135.694 209.304 136 209.36 136.315 209.36C136.72 209.36 137.024 209.28 137.227 209.12C137.43 208.955 137.531 208.739 137.531 208.472C137.531 208.307 137.488 208.163 137.403 208.04C137.318 207.912 137.155 207.795 136.915 207.688C136.675 207.581 136.318 207.48 135.843 207.384C135.118 207.24 134.539 207.045 134.107 206.8C133.675 206.549 133.366 206.245 133.179 205.888C132.998 205.531 132.907 205.115 132.907 204.64C132.907 204.139 133.038 203.704 133.299 203.336C133.56 202.963 133.923 202.675 134.387 202.472C134.851 202.264 135.382 202.16 135.979 202.16C136.368 202.16 136.678 202.192 136.907 202.256C137.142 202.32 137.331 202.387 137.475 202.456C137.624 202.52 137.763 202.552 137.891 202.552C138.024 202.552 138.134 202.52 138.219 202.456C138.31 202.387 138.398 202.32 138.483 202.256C138.568 202.192 138.667 202.16 138.779 202.16C138.88 202.16 138.963 202.195 139.027 202.264C139.096 202.333 139.144 202.453 139.171 202.624L139.491 204.088C139.534 204.317 139.539 204.493 139.507 204.616C139.48 204.739 139.4 204.827 139.267 204.88C139.128 204.939 139.006 204.936 138.899 204.872C138.792 204.808 138.683 204.693 138.571 204.528C138.219 203.968 137.835 203.576 137.419 203.352C137.008 203.123 136.6 203.008 136.195 203.008ZM144.576 203.264L144.248 203.152C144.13 203.109 144.042 203.056 143.984 202.992C143.93 202.928 143.904 202.851 143.904 202.76C143.904 202.637 143.946 202.541 144.032 202.472C144.122 202.403 144.237 202.368 144.376 202.368H144.848C144.96 202.368 145.058 202.344 145.144 202.296C145.229 202.248 145.328 202.16 145.44 202.032L146.552 200.752C146.69 200.597 146.821 200.483 146.944 200.408C147.072 200.333 147.194 200.296 147.312 200.296C147.44 200.296 147.541 200.339 147.616 200.424C147.69 200.509 147.727 200.632 147.727 200.792V207.416C147.727 207.8 147.797 208.093 147.936 208.296C148.08 208.493 148.28 208.592 148.536 208.592C148.733 208.592 148.885 208.549 148.992 208.464C149.104 208.373 149.192 208.272 149.256 208.16C149.32 208.043 149.386 207.939 149.456 207.848C149.525 207.757 149.616 207.709 149.728 207.704C149.818 207.704 149.89 207.736 149.944 207.8C149.997 207.859 150.024 207.963 150.024 208.112C150.018 208.496 149.901 208.845 149.672 209.16C149.448 209.475 149.136 209.725 148.736 209.912C148.341 210.099 147.888 210.192 147.376 210.192C146.602 210.192 146 210.003 145.568 209.624C145.136 209.245 144.92 208.672 144.92 207.904V203.752C144.92 203.608 144.893 203.504 144.84 203.44C144.786 203.371 144.698 203.312 144.576 203.264ZM146.704 203.312L146.712 202.368H149.488C149.632 202.368 149.744 202.4 149.824 202.464C149.909 202.523 149.952 202.608 149.952 202.72C149.952 202.885 149.869 203.027 149.704 203.144C149.538 203.256 149.269 203.312 148.896 203.312H146.704ZM154.193 204.64L153.777 204.208L154.057 203.952C154.766 203.285 155.385 202.821 155.913 202.56C156.441 202.293 156.932 202.16 157.385 202.16C158.078 202.16 158.638 202.387 159.065 202.84C159.492 203.288 159.705 203.885 159.705 204.632V208.536C159.705 208.723 159.724 208.859 159.761 208.944C159.804 209.029 159.87 209.088 159.961 209.12L160.193 209.2C160.305 209.243 160.385 209.299 160.433 209.368C160.481 209.432 160.505 209.509 160.505 209.6C160.505 209.723 160.465 209.821 160.385 209.896C160.305 209.965 160.177 210 160.001 210H156.673C156.326 210 156.153 209.859 156.153 209.576C156.153 209.411 156.236 209.288 156.401 209.208L156.641 209.12C156.732 209.083 156.796 209.024 156.833 208.944C156.876 208.859 156.897 208.723 156.897 208.536V205.032C156.897 204.627 156.798 204.325 156.601 204.128C156.409 203.925 156.148 203.824 155.817 203.824C155.609 203.824 155.39 203.869 155.161 203.96C154.932 204.051 154.71 204.189 154.497 204.376L154.193 204.64ZM154.457 198.616V208.544C154.457 208.731 154.476 208.864 154.513 208.944C154.556 209.024 154.62 209.083 154.705 209.12L154.937 209.208C155.108 209.288 155.193 209.411 155.193 209.576C155.193 209.859 155.02 210 154.673 210H151.345C151.169 210 151.041 209.965 150.961 209.896C150.881 209.821 150.841 209.723 150.841 209.6C150.841 209.509 150.865 209.432 150.913 209.368C150.961 209.299 151.041 209.243 151.153 209.2L151.401 209.12C151.486 209.088 151.548 209.032 151.585 208.952C151.628 208.867 151.649 208.731 151.649 208.544V200.168C151.649 200.019 151.628 199.912 151.585 199.848C151.542 199.779 151.476 199.736 151.385 199.72L151.081 199.672C150.98 199.645 150.905 199.603 150.857 199.544C150.814 199.485 150.793 199.413 150.793 199.328C150.793 199.221 150.822 199.136 150.881 199.072C150.94 199.008 151.052 198.947 151.217 198.888L152.873 198.264C153.108 198.179 153.294 198.117 153.433 198.08C153.577 198.037 153.716 198.016 153.849 198.016C154.046 198.016 154.196 198.072 154.297 198.184C154.404 198.296 154.457 198.44 154.457 198.616ZM166.259 208.952V208.776L166.059 208.76V203.776C166.059 203.488 165.982 203.261 165.827 203.096C165.678 202.931 165.472 202.848 165.211 202.848C164.982 202.848 164.798 202.899 164.659 203C164.526 203.101 164.459 203.229 164.459 203.384V204.176C164.459 204.56 164.328 204.856 164.067 205.064C163.806 205.272 163.438 205.376 162.963 205.376C162.558 205.376 162.254 205.288 162.051 205.112C161.848 204.931 161.747 204.68 161.747 204.36C161.747 204.019 161.894 203.68 162.187 203.344C162.486 203.003 162.928 202.723 163.515 202.504C164.107 202.28 164.84 202.168 165.715 202.168C166.771 202.168 167.555 202.371 168.067 202.776C168.579 203.181 168.835 203.731 168.835 204.424V208.424C168.835 208.547 168.862 208.645 168.915 208.72C168.974 208.789 169.059 208.824 169.171 208.824C169.272 208.824 169.35 208.797 169.403 208.744C169.462 208.691 169.515 208.637 169.563 208.584C169.595 208.547 169.627 208.517 169.659 208.496C169.696 208.469 169.739 208.456 169.787 208.456C169.867 208.456 169.923 208.485 169.955 208.544C169.992 208.597 170.011 208.667 170.011 208.752C170.011 208.96 169.936 209.176 169.787 209.4C169.643 209.624 169.424 209.816 169.131 209.976C168.838 210.131 168.472 210.208 168.035 210.208C167.502 210.208 167.072 210.093 166.747 209.864C166.422 209.629 166.259 209.325 166.259 208.952ZM161.435 208.312C161.435 207.619 161.747 207.064 162.371 206.648C162.995 206.232 163.872 206.024 165.003 206.024C165.334 206.024 165.627 206.051 165.883 206.104C166.139 206.152 166.355 206.221 166.531 206.312L166.307 206.904C166.158 206.829 166.011 206.773 165.867 206.736C165.728 206.693 165.574 206.672 165.403 206.672C165.051 206.672 164.774 206.773 164.571 206.976C164.374 207.179 164.275 207.464 164.275 207.832C164.275 208.205 164.366 208.491 164.547 208.688C164.728 208.885 164.963 208.984 165.251 208.984C165.47 208.984 165.678 208.933 165.875 208.832C166.078 208.725 166.243 208.592 166.371 208.432L166.547 208.968C166.275 209.363 165.894 209.669 165.403 209.888C164.918 210.101 164.398 210.208 163.843 210.208C163.123 210.208 162.542 210.032 162.099 209.68C161.656 209.323 161.435 208.867 161.435 208.312ZM171.013 203.264L170.685 203.152C170.568 203.109 170.48 203.056 170.421 202.992C170.368 202.928 170.341 202.851 170.341 202.76C170.341 202.637 170.384 202.541 170.469 202.472C170.56 202.403 170.674 202.368 170.813 202.368H171.285C171.397 202.368 171.496 202.344 171.581 202.296C171.666 202.248 171.765 202.16 171.877 202.032L172.989 200.752C173.128 200.597 173.258 200.483 173.381 200.408C173.509 200.333 173.632 200.296 173.749 200.296C173.877 200.296 173.978 200.339 174.053 200.424C174.128 200.509 174.165 200.632 174.165 200.792V207.416C174.165 207.8 174.234 208.093 174.373 208.296C174.517 208.493 174.717 208.592 174.973 208.592C175.17 208.592 175.322 208.549 175.429 208.464C175.541 208.373 175.629 208.272 175.693 208.16C175.757 208.043 175.824 207.939 175.893 207.848C175.962 207.757 176.053 207.709 176.165 207.704C176.256 207.704 176.328 207.736 176.381 207.8C176.434 207.859 176.461 207.963 176.461 208.112C176.456 208.496 176.338 208.845 176.109 209.16C175.885 209.475 175.573 209.725 175.173 209.912C174.778 210.099 174.325 210.192 173.813 210.192C173.04 210.192 172.437 210.003 172.005 209.624C171.573 209.245 171.357 208.672 171.357 207.904V203.752C171.357 203.608 171.33 203.504 171.277 203.44C171.224 203.371 171.136 203.312 171.013 203.264ZM173.141 203.312L173.149 202.368H175.925C176.069 202.368 176.181 202.4 176.261 202.464C176.346 202.523 176.389 202.608 176.389 202.72C176.389 202.885 176.306 203.027 176.141 203.144C175.976 203.256 175.706 203.312 175.333 203.312H173.141ZM184.086 202.776V203.584L184.206 203.832V212.272C184.206 212.459 184.224 212.592 184.262 212.672C184.304 212.757 184.368 212.816 184.454 212.848L184.758 212.928C184.87 212.971 184.95 213.024 184.998 213.088C185.046 213.157 185.07 213.237 185.07 213.328C185.07 213.456 185.03 213.555 184.95 213.624C184.87 213.693 184.739 213.728 184.558 213.728H181.094C180.918 213.728 180.79 213.693 180.71 213.624C180.63 213.555 180.59 213.456 180.59 213.328C180.59 213.237 180.614 213.157 180.662 213.088C180.71 213.024 180.79 212.971 180.902 212.928L181.15 212.848C181.235 212.816 181.296 212.757 181.334 212.672C181.376 212.592 181.398 212.459 181.398 212.272V204.328C181.398 204.179 181.376 204.072 181.334 204.008C181.291 203.944 181.224 203.901 181.134 203.88L180.83 203.84C180.728 203.808 180.654 203.765 180.606 203.712C180.563 203.653 180.542 203.579 180.542 203.488C180.542 203.381 180.571 203.301 180.63 203.248C180.688 203.189 180.8 203.125 180.966 203.056L182.502 202.432C182.726 202.336 182.91 202.269 183.054 202.232C183.198 202.195 183.328 202.176 183.446 202.176C183.659 202.176 183.819 202.232 183.926 202.344C184.032 202.456 184.086 202.6 184.086 202.776ZM183.686 204.872L183.23 204.376C183.672 203.683 184.171 203.141 184.726 202.752C185.28 202.357 185.904 202.16 186.598 202.16C187.232 202.16 187.798 202.323 188.294 202.648C188.79 202.968 189.182 203.413 189.47 203.984C189.758 204.549 189.902 205.205 189.902 205.952C189.902 206.811 189.728 207.56 189.382 208.2C189.035 208.835 188.563 209.328 187.966 209.68C187.368 210.032 186.696 210.208 185.95 210.208C185.315 210.208 184.755 210.067 184.27 209.784C183.79 209.501 183.384 209.08 183.054 208.52L183.75 208.008C184 208.397 184.259 208.683 184.526 208.864C184.798 209.045 185.094 209.136 185.414 209.136C185.718 209.136 185.99 209.037 186.23 208.84C186.47 208.637 186.656 208.323 186.79 207.896C186.923 207.469 186.99 206.917 186.99 206.24C186.99 205.611 186.923 205.099 186.79 204.704C186.656 204.304 186.472 204.011 186.238 203.824C186.008 203.632 185.742 203.536 185.438 203.536C185.102 203.536 184.787 203.643 184.494 203.856C184.206 204.069 183.936 204.408 183.686 204.872ZM194.535 198.616V208.544C194.535 208.731 194.554 208.867 194.591 208.952C194.634 209.032 194.7 209.088 194.791 209.12L195.031 209.2C195.143 209.243 195.223 209.299 195.271 209.368C195.319 209.432 195.343 209.509 195.343 209.6C195.343 209.723 195.303 209.821 195.223 209.896C195.143 209.965 195.012 210 194.831 210H191.431C191.25 210 191.119 209.965 191.039 209.896C190.959 209.821 190.919 209.723 190.919 209.6C190.919 209.509 190.943 209.432 190.991 209.368C191.039 209.299 191.119 209.243 191.231 209.2L191.479 209.12C191.57 209.088 191.634 209.032 191.671 208.952C191.708 208.867 191.727 208.731 191.727 208.544V200.168C191.727 200.019 191.706 199.912 191.663 199.848C191.62 199.779 191.554 199.736 191.463 199.72L191.167 199.672C191.06 199.645 190.983 199.603 190.935 199.544C190.892 199.485 190.871 199.413 190.871 199.328C190.871 199.221 190.9 199.136 190.959 199.072C191.018 199.008 191.13 198.947 191.295 198.888L192.959 198.264C193.199 198.173 193.388 198.109 193.527 198.072C193.671 198.035 193.796 198.016 193.903 198.016C194.116 198.016 194.274 198.072 194.375 198.184C194.482 198.296 194.535 198.44 194.535 198.616ZM201.103 208.952V208.776L200.903 208.76V203.776C200.903 203.488 200.825 203.261 200.671 203.096C200.521 202.931 200.316 202.848 200.055 202.848C199.825 202.848 199.641 202.899 199.503 203C199.369 203.101 199.303 203.229 199.303 203.384V204.176C199.303 204.56 199.172 204.856 198.911 205.064C198.649 205.272 198.281 205.376 197.807 205.376C197.401 205.376 197.097 205.288 196.895 205.112C196.692 204.931 196.591 204.68 196.591 204.36C196.591 204.019 196.737 203.68 197.031 203.344C197.329 203.003 197.772 202.723 198.359 202.504C198.951 202.28 199.684 202.168 200.559 202.168C201.615 202.168 202.399 202.371 202.911 202.776C203.423 203.181 203.679 203.731 203.679 204.424V208.424C203.679 208.547 203.705 208.645 203.759 208.72C203.817 208.789 203.903 208.824 204.015 208.824C204.116 208.824 204.193 208.797 204.247 208.744C204.305 208.691 204.359 208.637 204.407 208.584C204.439 208.547 204.471 208.517 204.503 208.496C204.54 208.469 204.583 208.456 204.631 208.456C204.711 208.456 204.767 208.485 204.799 208.544C204.836 208.597 204.855 208.667 204.855 208.752C204.855 208.96 204.78 209.176 204.631 209.4C204.487 209.624 204.268 209.816 203.975 209.976C203.681 210.131 203.316 210.208 202.879 210.208C202.345 210.208 201.916 210.093 201.591 209.864C201.265 209.629 201.103 209.325 201.103 208.952ZM196.279 208.312C196.279 207.619 196.591 207.064 197.215 206.648C197.839 206.232 198.716 206.024 199.847 206.024C200.177 206.024 200.471 206.051 200.727 206.104C200.983 206.152 201.199 206.221 201.375 206.312L201.151 206.904C201.001 206.829 200.855 206.773 200.711 206.736C200.572 206.693 200.417 206.672 200.247 206.672C199.895 206.672 199.617 206.773 199.415 206.976C199.217 207.179 199.119 207.464 199.119 207.832C199.119 208.205 199.209 208.491 199.391 208.688C199.572 208.885 199.807 208.984 200.095 208.984C200.313 208.984 200.521 208.933 200.719 208.832C200.921 208.725 201.087 208.592 201.215 208.432L201.391 208.968C201.119 209.363 200.737 209.669 200.247 209.888C199.761 210.101 199.241 210.208 198.687 210.208C197.967 210.208 197.385 210.032 196.943 209.68C196.5 209.323 196.279 208.867 196.279 208.312ZM210.851 208.608L209.339 211.208L205.875 203.816C205.784 203.608 205.691 203.464 205.595 203.384C205.499 203.299 205.363 203.227 205.187 203.168C205.086 203.12 205.011 203.067 204.963 203.008C204.92 202.949 204.899 202.869 204.899 202.768C204.899 202.645 204.942 202.549 205.027 202.48C205.118 202.405 205.24 202.368 205.395 202.368H209.339C209.488 202.368 209.606 202.403 209.691 202.472C209.782 202.541 209.827 202.64 209.827 202.768C209.827 202.864 209.8 202.944 209.747 203.008C209.694 203.067 209.603 203.115 209.475 203.152L209.211 203.216C208.987 203.269 208.854 203.365 208.811 203.504C208.774 203.637 208.824 203.869 208.963 204.2L210.851 208.608ZM209.203 210.984L209.571 210.096L209.923 209.416L211.955 204.328C212.088 204.003 212.134 203.76 212.091 203.6C212.054 203.435 211.918 203.32 211.683 203.256L211.387 203.176C211.264 203.144 211.174 203.093 211.115 203.024C211.056 202.955 211.027 202.869 211.027 202.768C211.027 202.64 211.07 202.541 211.155 202.472C211.246 202.403 211.366 202.368 211.515 202.368H213.771C213.92 202.368 214.038 202.405 214.123 202.48C214.214 202.549 214.259 202.645 214.259 202.768C214.259 202.848 214.232 202.923 214.179 202.992C214.131 203.056 214.048 203.115 213.931 203.168C213.712 203.259 213.536 203.373 213.403 203.512C213.27 203.651 213.139 203.88 213.011 204.2L210.355 210.712C210.019 211.523 209.712 212.149 209.435 212.592C209.158 213.035 208.856 213.341 208.531 213.512C208.211 213.688 207.816 213.776 207.347 213.776C206.654 213.776 206.104 213.589 205.699 213.216C205.294 212.848 205.091 212.389 205.091 211.84C205.091 211.445 205.19 211.136 205.387 210.912C205.584 210.688 205.848 210.576 206.179 210.576C206.499 210.576 206.744 210.669 206.915 210.856C207.086 211.043 207.232 211.293 207.355 211.608L207.491 211.952C207.55 212.133 207.627 212.275 207.723 212.376C207.824 212.477 207.931 212.528 208.043 212.528C208.16 212.528 208.27 212.491 208.371 212.416C208.472 212.347 208.587 212.2 208.715 211.976C208.848 211.757 209.011 211.427 209.203 210.984ZM218.41 202.776V208.544C218.41 208.731 218.429 208.867 218.466 208.952C218.509 209.032 218.573 209.088 218.658 209.12L218.898 209.2C219.01 209.243 219.09 209.299 219.138 209.368C219.191 209.432 219.218 209.509 219.218 209.6C219.218 209.723 219.175 209.821 219.09 209.896C219.01 209.965 218.882 210 218.706 210H215.298C215.122 210 214.994 209.965 214.914 209.896C214.834 209.821 214.794 209.723 214.794 209.6C214.794 209.509 214.818 209.432 214.866 209.368C214.914 209.299 214.994 209.243 215.106 209.2L215.354 209.12C215.439 209.088 215.501 209.032 215.538 208.952C215.581 208.867 215.602 208.731 215.602 208.544V204.328C215.602 204.179 215.581 204.072 215.538 204.008C215.495 203.944 215.429 203.901 215.338 203.88L215.034 203.84C214.933 203.808 214.858 203.765 214.81 203.712C214.767 203.653 214.746 203.579 214.746 203.488C214.746 203.381 214.775 203.299 214.834 203.24C214.893 203.176 215.005 203.112 215.17 203.048L216.826 202.432C217.071 202.336 217.263 202.269 217.402 202.232C217.546 202.195 217.671 202.176 217.778 202.176C217.991 202.176 218.149 202.232 218.25 202.344C218.357 202.456 218.41 202.6 218.41 202.776ZM216.834 201.216C216.322 201.216 215.914 201.093 215.61 200.848C215.311 200.597 215.162 200.261 215.162 199.84C215.162 199.424 215.311 199.096 215.61 198.856C215.914 198.611 216.322 198.488 216.834 198.488C217.346 198.488 217.751 198.611 218.05 198.856C218.354 199.101 218.506 199.429 218.506 199.84C218.506 200.261 218.354 200.597 218.05 200.848C217.751 201.093 217.346 201.216 216.834 201.216ZM223.723 202.776V208.544C223.723 208.731 223.741 208.864 223.779 208.944C223.821 209.024 223.885 209.083 223.97 209.12L224.203 209.208C224.373 209.288 224.459 209.411 224.459 209.576C224.459 209.859 224.285 210 223.939 210H220.611C220.435 210 220.307 209.965 220.227 209.896C220.147 209.821 220.107 209.723 220.107 209.6C220.107 209.509 220.131 209.432 220.179 209.368C220.227 209.299 220.307 209.243 220.419 209.2L220.667 209.12C220.752 209.088 220.813 209.032 220.851 208.952C220.893 208.867 220.915 208.731 220.915 208.544V204.328C220.915 204.179 220.893 204.072 220.851 204.008C220.808 203.944 220.741 203.901 220.651 203.88L220.347 203.84C220.245 203.808 220.171 203.765 220.123 203.712C220.08 203.653 220.059 203.579 220.059 203.488C220.059 203.381 220.088 203.299 220.147 203.24C220.205 203.176 220.317 203.112 220.483 203.048L222.139 202.432C222.373 202.341 222.56 202.277 222.699 202.24C222.843 202.197 222.981 202.176 223.115 202.176C223.312 202.176 223.461 202.232 223.562 202.344C223.669 202.456 223.723 202.6 223.723 202.776ZM223.459 204.64L223.043 204.208L223.323 203.952C224.032 203.285 224.651 202.821 225.179 202.56C225.707 202.293 226.197 202.16 226.651 202.16C227.344 202.16 227.904 202.387 228.331 202.84C228.757 203.288 228.97 203.885 228.97 204.632V208.536C228.97 208.723 228.989 208.859 229.027 208.944C229.069 209.029 229.136 209.088 229.227 209.12L229.459 209.2C229.571 209.243 229.651 209.299 229.699 209.368C229.747 209.432 229.771 209.509 229.771 209.6C229.771 209.723 229.731 209.821 229.651 209.896C229.571 209.965 229.443 210 229.267 210H225.939C225.592 210 225.419 209.859 225.419 209.576C225.419 209.411 225.501 209.288 225.667 209.208L225.907 209.12C225.997 209.083 226.061 209.024 226.099 208.944C226.141 208.859 226.163 208.723 226.163 208.536V205.032C226.163 204.627 226.064 204.325 225.867 204.128C225.675 203.925 225.413 203.824 225.083 203.824C224.875 203.824 224.656 203.869 224.427 203.96C224.197 204.051 223.976 204.189 223.763 204.376L223.459 204.64ZM236.085 209.048C236.922 209.144 237.591 209.283 238.093 209.464C238.594 209.645 238.957 209.883 239.181 210.176C239.405 210.469 239.517 210.835 239.517 211.272C239.517 212.045 239.093 212.68 238.245 213.176C237.397 213.672 236.165 213.92 234.549 213.92C233.53 213.92 232.727 213.848 232.141 213.704C231.559 213.56 231.146 213.357 230.901 213.096C230.655 212.84 230.533 212.541 230.533 212.2C230.533 211.805 230.727 211.459 231.117 211.16C231.506 210.861 232.215 210.651 233.245 210.528L233.341 210.768C233.117 210.827 232.943 210.931 232.821 211.08C232.703 211.229 232.645 211.392 232.645 211.568C232.645 212.016 232.821 212.371 233.173 212.632C233.525 212.899 234.143 213.032 235.029 213.032C235.535 213.032 235.935 212.995 236.229 212.92C236.522 212.851 236.733 212.744 236.861 212.6C236.989 212.461 237.053 212.293 237.053 212.096C237.053 211.92 236.978 211.771 236.829 211.648C236.679 211.531 236.418 211.427 236.045 211.336C235.677 211.245 235.165 211.155 234.509 211.064C233.703 210.957 233.087 210.835 232.661 210.696C232.234 210.557 231.941 210.389 231.781 210.192C231.626 210 231.549 209.765 231.549 209.488C231.549 209.227 231.623 208.987 231.773 208.768C231.922 208.544 232.173 208.357 232.525 208.208C232.882 208.059 233.375 207.965 234.005 207.928L234.125 208.072C234.002 208.12 233.911 208.173 233.853 208.232C233.799 208.291 233.773 208.355 233.773 208.424C233.773 208.488 233.813 208.552 233.893 208.616C233.973 208.675 234.175 208.739 234.501 208.808C234.826 208.877 235.354 208.957 236.085 209.048ZM236.093 202.984L236.365 202.36C236.642 201.725 236.986 201.253 237.397 200.944C237.807 200.629 238.247 200.472 238.717 200.472C239.095 200.472 239.402 200.579 239.637 200.792C239.871 201.005 239.989 201.307 239.989 201.696C239.989 202.043 239.901 202.323 239.725 202.536C239.554 202.744 239.325 202.848 239.037 202.848C238.839 202.848 238.685 202.805 238.573 202.72C238.466 202.635 238.373 202.536 238.293 202.424C238.218 202.312 238.133 202.216 238.037 202.136C237.941 202.051 237.805 202.008 237.629 202.008C237.447 202.008 237.293 202.08 237.165 202.224C237.042 202.363 236.89 202.635 236.709 203.04L236.093 202.984ZM238.837 205.056C238.837 205.68 238.666 206.229 238.325 206.704C237.989 207.173 237.509 207.541 236.885 207.808C236.266 208.069 235.527 208.2 234.669 208.2C233.853 208.2 233.154 208.075 232.573 207.824C231.991 207.573 231.546 207.232 231.237 206.8C230.933 206.363 230.781 205.877 230.781 205.344C230.781 204.715 230.949 204.165 231.285 203.696C231.626 203.221 232.109 202.853 232.733 202.592C233.362 202.325 234.103 202.192 234.957 202.192C235.778 202.192 236.477 202.317 237.053 202.568C237.634 202.819 238.077 203.16 238.381 203.592C238.685 204.024 238.837 204.512 238.837 205.056ZM234.461 202.984C234.231 203.011 234.047 203.115 233.909 203.296C233.775 203.472 233.693 203.725 233.661 204.056C233.629 204.381 233.65 204.784 233.725 205.264C233.799 205.749 233.903 206.155 234.037 206.48C234.17 206.8 234.33 207.035 234.517 207.184C234.703 207.328 234.914 207.387 235.149 207.36C235.501 207.317 235.738 207.109 235.861 206.736C235.989 206.357 235.997 205.805 235.885 205.08C235.778 204.349 235.602 203.808 235.357 203.456C235.117 203.099 234.818 202.941 234.461 202.984ZM52.8538 224.488C52.8538 224.84 52.7231 225.139 52.4618 225.384C52.2058 225.629 51.8645 225.752 51.4378 225.752C51.0165 225.752 50.6991 225.64 50.4858 225.416C50.2725 225.187 50.1658 224.891 50.1658 224.528V224.264C50.1658 223.907 50.0751 223.624 49.8938 223.416C49.7125 223.208 49.4671 223.104 49.1578 223.104C48.9018 223.104 48.6645 223.189 48.4458 223.36C48.2325 223.531 48.0618 223.784 47.9338 224.12C47.8111 224.451 47.7498 224.859 47.7498 225.344C47.7498 225.989 47.8591 226.533 48.0778 226.976C48.2965 227.413 48.5951 227.744 48.9738 227.968C49.3578 228.192 49.7925 228.304 50.2778 228.304C50.6778 228.304 51.0325 228.237 51.3418 228.104C51.6511 227.965 51.9205 227.749 52.1498 227.456C52.2725 227.339 52.3658 227.259 52.4298 227.216C52.4991 227.173 52.5658 227.152 52.6298 227.152C52.7258 227.152 52.7951 227.197 52.8378 227.288C52.8805 227.373 52.9018 227.48 52.9018 227.608C52.8858 228.077 52.7258 228.509 52.4218 228.904C52.1178 229.299 51.7018 229.616 51.1738 229.856C50.6458 230.091 50.0351 230.208 49.3418 230.208C48.5578 230.208 47.8565 230.051 47.2378 229.736C46.6191 229.416 46.1311 228.971 45.7738 228.4C45.4165 227.824 45.2378 227.149 45.2378 226.376C45.2378 225.571 45.4111 224.851 45.7578 224.216C46.1098 223.581 46.6058 223.08 47.2458 222.712C47.8858 222.344 48.6405 222.16 49.5098 222.16C50.1978 222.16 50.7925 222.264 51.2938 222.472C51.7951 222.68 52.1791 222.963 52.4458 223.32C52.7178 223.672 52.8538 224.061 52.8538 224.488ZM58.2712 222.16C59.1352 222.16 59.8899 222.331 60.5352 222.672C61.1859 223.008 61.6925 223.48 62.0552 224.088C62.4179 224.696 62.5992 225.403 62.5992 226.208C62.5992 226.96 62.4099 227.64 62.0312 228.248C61.6579 228.851 61.1379 229.328 60.4712 229.68C59.8099 230.032 59.0419 230.208 58.1672 230.208C57.3085 230.208 56.5539 230.037 55.9032 229.696C55.2579 229.349 54.7539 228.872 54.3912 228.264C54.0285 227.656 53.8472 226.955 53.8472 226.16C53.8472 225.392 54.0339 224.707 54.4072 224.104C54.7859 223.501 55.3059 223.027 55.9672 222.68C56.6339 222.333 57.4019 222.16 58.2712 222.16ZM58.8472 229.232C59.1299 229.179 59.3512 229.024 59.5112 228.768C59.6765 228.512 59.7699 228.149 59.7912 227.68C59.8179 227.205 59.7645 226.624 59.6312 225.936C59.4979 225.259 59.3299 224.704 59.1272 224.272C58.9245 223.835 58.6925 223.523 58.4312 223.336C58.1752 223.144 57.8979 223.077 57.5992 223.136C57.3165 223.189 57.0925 223.344 56.9272 223.6C56.7619 223.856 56.6685 224.219 56.6472 224.688C56.6259 225.157 56.6819 225.739 56.8152 226.432C56.9485 227.104 57.1165 227.659 57.3192 228.096C57.5219 228.533 57.7512 228.845 58.0072 229.032C58.2685 229.219 58.5485 229.285 58.8472 229.232ZM67.2459 222.776V228.544C67.2459 228.731 67.2646 228.864 67.3019 228.944C67.3446 229.024 67.4086 229.083 67.4939 229.12L67.7259 229.208C67.8966 229.288 67.9819 229.411 67.9819 229.576C67.9819 229.859 67.8086 230 67.4619 230H64.1339C63.9579 230 63.8299 229.965 63.7499 229.896C63.6699 229.821 63.6299 229.723 63.6299 229.6C63.6299 229.509 63.6539 229.432 63.7019 229.368C63.7499 229.299 63.8299 229.243 63.9419 229.2L64.1899 229.12C64.2753 229.088 64.3366 229.032 64.3739 228.952C64.4166 228.867 64.4379 228.731 64.4379 228.544V224.328C64.4379 224.179 64.4166 224.072 64.3739 224.008C64.3313 223.944 64.2646 223.901 64.1739 223.88L63.8699 223.84C63.7686 223.808 63.6939 223.765 63.6459 223.712C63.6033 223.653 63.5819 223.579 63.5819 223.488C63.5819 223.381 63.6113 223.299 63.6699 223.24C63.7286 223.176 63.8406 223.112 64.0059 223.048L65.6619 222.432C65.8966 222.341 66.0833 222.277 66.2219 222.24C66.3659 222.197 66.5046 222.176 66.6379 222.176C66.8353 222.176 66.9846 222.232 67.0859 222.344C67.1926 222.456 67.2459 222.6 67.2459 222.776ZM66.9819 224.64L66.5659 224.208L66.8459 223.952C67.5553 223.285 68.1739 222.821 68.7019 222.56C69.2299 222.293 69.7206 222.16 70.1739 222.16C70.8673 222.16 71.4273 222.387 71.8539 222.84C72.2806 223.288 72.4939 223.885 72.4939 224.632V228.536C72.4939 228.723 72.5126 228.859 72.5499 228.944C72.5926 229.029 72.6593 229.088 72.7499 229.12L72.9819 229.2C73.0939 229.243 73.1739 229.299 73.2219 229.368C73.2699 229.432 73.2939 229.509 73.2939 229.6C73.2939 229.723 73.2539 229.821 73.1739 229.896C73.0939 229.965 72.9659 230 72.7899 230H69.4619C69.1153 230 68.9419 229.859 68.9419 229.576C68.9419 229.411 69.0246 229.288 69.1899 229.208L69.4299 229.12C69.5206 229.083 69.5846 229.024 69.6219 228.944C69.6646 228.859 69.6859 228.723 69.6859 228.536V225.032C69.6859 224.627 69.5873 224.325 69.3899 224.128C69.1979 223.925 68.9366 223.824 68.6059 223.824C68.3979 223.824 68.1793 223.869 67.9499 223.96C67.7206 224.051 67.4993 224.189 67.2859 224.376L66.9819 224.64ZM74.5521 223.264L74.2241 223.152C74.1067 223.109 74.0187 223.056 73.9601 222.992C73.9067 222.928 73.8801 222.851 73.8801 222.76C73.8801 222.637 73.9227 222.541 74.0081 222.472C74.0987 222.403 74.2134 222.368 74.3521 222.368H74.8241C74.9361 222.368 75.0347 222.344 75.1201 222.296C75.2054 222.248 75.3041 222.16 75.4161 222.032L76.5281 220.752C76.6667 220.597 76.7974 220.483 76.9201 220.408C77.0481 220.333 77.1707 220.296 77.2881 220.296C77.4161 220.296 77.5174 220.339 77.5921 220.424C77.6667 220.509 77.7041 220.632 77.7041 220.792V227.416C77.7041 227.8 77.7734 228.093 77.9121 228.296C78.0561 228.493 78.2561 228.592 78.5121 228.592C78.7094 228.592 78.8614 228.549 78.9681 228.464C79.0801 228.373 79.1681 228.272 79.2321 228.16C79.2961 228.043 79.3627 227.939 79.4321 227.848C79.5014 227.757 79.5921 227.709 79.7041 227.704C79.7947 227.704 79.8667 227.736 79.9201 227.8C79.9734 227.859 80.0001 227.963 80.0001 228.112C79.9947 228.496 79.8774 228.845 79.6481 229.16C79.4241 229.475 79.1121 229.725 78.7121 229.912C78.3174 230.099 77.8641 230.192 77.3521 230.192C76.5787 230.192 75.9761 230.003 75.5441 229.624C75.1121 229.245 74.8961 228.672 74.8961 227.904V223.752C74.8961 223.608 74.8694 223.504 74.8161 223.44C74.7627 223.371 74.6747 223.312 74.5521 223.264ZM76.6801 223.312L76.6881 222.368H79.4641C79.6081 222.368 79.7201 222.4 79.8001 222.464C79.8854 222.523 79.9281 222.608 79.9281 222.72C79.9281 222.885 79.8454 223.027 79.6801 223.144C79.5147 223.256 79.2454 223.312 78.8721 223.312H76.6801ZM84.1374 225.696C84.1374 224.907 84.2441 224.251 84.4574 223.728C84.6761 223.2 84.9641 222.808 85.3214 222.552C85.6788 222.291 86.0628 222.16 86.4734 222.16C87.0068 222.16 87.4174 222.317 87.7054 222.632C87.9934 222.941 88.1374 223.4 88.1374 224.008C88.1374 224.595 88.0174 225.029 87.7774 225.312C87.5428 225.595 87.2334 225.736 86.8494 225.736C86.4654 225.736 86.1748 225.635 85.9774 225.432C85.7854 225.229 85.6894 224.949 85.6894 224.592V224.28C85.6841 224.131 85.6494 224.019 85.5854 223.944C85.5214 223.864 85.4174 223.824 85.2734 223.824C85.1241 223.824 84.9854 223.885 84.8574 224.008C84.7294 224.131 84.6254 224.325 84.5454 224.592C84.4708 224.853 84.4334 225.195 84.4334 225.616L84.1374 225.696ZM84.2654 222.784L84.4334 224.544V228.544C84.4334 228.709 84.4601 228.829 84.5134 228.904C84.5721 228.979 84.6894 229.032 84.8654 229.064L85.5134 229.176C85.6521 229.203 85.7534 229.251 85.8174 229.32C85.8868 229.384 85.9214 229.477 85.9214 229.6C85.9214 229.723 85.8761 229.821 85.7854 229.896C85.7001 229.965 85.5721 230 85.4014 230H81.3214C81.1454 230 81.0174 229.965 80.9374 229.896C80.8574 229.821 80.8174 229.723 80.8174 229.6C80.8174 229.509 80.8414 229.432 80.8894 229.368C80.9374 229.299 81.0174 229.243 81.1294 229.2L81.3774 229.12C81.4628 229.088 81.5241 229.032 81.5614 228.952C81.6041 228.867 81.6254 228.731 81.6254 228.544V224.352C81.6254 224.203 81.6041 224.096 81.5614 224.032C81.5188 223.968 81.4521 223.925 81.3614 223.904L81.0574 223.856C80.9561 223.829 80.8814 223.789 80.8334 223.736C80.7908 223.677 80.7694 223.603 80.7694 223.512C80.7694 223.405 80.7988 223.32 80.8574 223.256C80.9214 223.192 81.0334 223.131 81.1934 223.072L82.8094 222.472C83.1241 222.349 83.3508 222.269 83.4894 222.232C83.6281 222.195 83.7374 222.176 83.8174 222.176C83.9508 222.176 84.0494 222.224 84.1134 222.32C84.1828 222.411 84.2334 222.565 84.2654 222.784ZM92.5116 222.776V228.544C92.5116 228.731 92.5302 228.867 92.5676 228.952C92.6102 229.032 92.6742 229.088 92.7596 229.12L92.9996 229.2C93.1116 229.243 93.1916 229.299 93.2396 229.368C93.2929 229.432 93.3196 229.509 93.3196 229.6C93.3196 229.723 93.2769 229.821 93.1916 229.896C93.1116 229.965 92.9836 230 92.8076 230H89.3996C89.2236 230 89.0956 229.965 89.0156 229.896C88.9356 229.821 88.8956 229.723 88.8956 229.6C88.8956 229.509 88.9196 229.432 88.9676 229.368C89.0156 229.299 89.0956 229.243 89.2076 229.2L89.4556 229.12C89.5409 229.088 89.6022 229.032 89.6396 228.952C89.6822 228.867 89.7036 228.731 89.7036 228.544V224.328C89.7036 224.179 89.6822 224.072 89.6396 224.008C89.5969 223.944 89.5302 223.901 89.4396 223.88L89.1356 223.84C89.0342 223.808 88.9596 223.765 88.9116 223.712C88.8689 223.653 88.8476 223.579 88.8476 223.488C88.8476 223.381 88.8769 223.299 88.9356 223.24C88.9942 223.176 89.1062 223.112 89.2716 223.048L90.9276 222.432C91.1729 222.336 91.3649 222.269 91.5036 222.232C91.6476 222.195 91.7729 222.176 91.8796 222.176C92.0929 222.176 92.2502 222.232 92.3516 222.344C92.4582 222.456 92.5116 222.6 92.5116 222.776ZM90.9356 221.216C90.4236 221.216 90.0156 221.093 89.7116 220.848C89.4129 220.597 89.2636 220.261 89.2636 219.84C89.2636 219.424 89.4129 219.096 89.7116 218.856C90.0156 218.611 90.4236 218.488 90.9356 218.488C91.4476 218.488 91.8529 218.611 92.1516 218.856C92.4556 219.101 92.6076 219.429 92.6076 219.84C92.6076 220.261 92.4556 220.597 92.1516 220.848C91.8529 221.093 91.4476 221.216 90.9356 221.216ZM97.5361 218.616V229.28L96.3841 229.896C96.0321 230.019 95.7841 230.099 95.6401 230.136C95.4961 230.173 95.3601 230.192 95.2321 230.192C95.0827 230.192 94.9601 230.149 94.8641 230.064C94.7734 229.984 94.7281 229.861 94.7281 229.696V220.168C94.7281 220.019 94.7067 219.912 94.6641 219.848C94.6214 219.779 94.5547 219.736 94.4641 219.72L94.1681 219.672C94.0614 219.645 93.9841 219.603 93.9361 219.544C93.8934 219.485 93.8721 219.413 93.8721 219.328C93.8721 219.221 93.9014 219.136 93.9601 219.072C94.0187 219.008 94.1307 218.947 94.2961 218.888L95.9601 218.264C96.2001 218.173 96.3894 218.109 96.5281 218.072C96.6721 218.035 96.7974 218.016 96.9041 218.016C97.1174 218.016 97.2747 218.072 97.3761 218.184C97.4827 218.296 97.5361 218.44 97.5361 218.616ZM97.0241 224.872L96.5681 224.376C97.0054 223.683 97.5014 223.141 98.0561 222.752C98.6107 222.357 99.2374 222.16 99.9361 222.16C100.565 222.16 101.128 222.323 101.624 222.648C102.125 222.968 102.52 223.413 102.808 223.984C103.096 224.549 103.24 225.205 103.24 225.952C103.24 226.811 103.064 227.56 102.712 228.2C102.365 228.835 101.893 229.328 101.296 229.68C100.699 230.032 100.027 230.208 99.2801 230.208C98.6454 230.208 98.0854 230.067 97.6001 229.784C97.1201 229.501 96.7147 229.08 96.3841 228.52L97.0801 228.008C97.3307 228.397 97.5921 228.683 97.8641 228.864C98.1361 229.045 98.4294 229.136 98.7441 229.136C99.0534 229.136 99.3254 229.037 99.5601 228.84C99.8001 228.637 99.9867 228.323 100.12 227.896C100.259 227.469 100.328 226.917 100.328 226.24C100.328 225.611 100.259 225.099 100.12 224.704C99.9867 224.304 99.8027 224.011 99.5681 223.824C99.3387 223.632 99.0747 223.536 98.7761 223.536C98.4401 223.536 98.1254 223.643 97.8321 223.856C97.5387 224.069 97.2694 224.408 97.0241 224.872ZM110.071 228.64V228.368L109.975 228.352V224.336C109.975 224.181 109.954 224.072 109.911 224.008C109.868 223.944 109.802 223.901 109.711 223.88L109.407 223.84C109.306 223.813 109.231 223.771 109.183 223.712C109.14 223.653 109.119 223.579 109.119 223.488C109.119 223.387 109.148 223.304 109.207 223.24C109.266 223.176 109.378 223.112 109.543 223.048L111.207 222.432C111.436 222.341 111.623 222.277 111.767 222.24C111.911 222.197 112.047 222.176 112.175 222.176C112.378 222.176 112.53 222.232 112.631 222.344C112.732 222.456 112.783 222.603 112.783 222.784V228.544C112.783 228.731 112.802 228.867 112.839 228.952C112.882 229.032 112.946 229.088 113.031 229.12L113.279 229.2C113.391 229.243 113.471 229.299 113.519 229.368C113.567 229.432 113.591 229.509 113.591 229.6C113.591 229.723 113.551 229.821 113.471 229.896C113.391 229.965 113.26 230 113.079 230H111.271C110.946 230 110.663 229.869 110.423 229.608C110.188 229.341 110.071 229.019 110.071 228.64ZM104.879 227.736V224.336C104.879 224.181 104.858 224.072 104.815 224.008C104.772 223.944 104.706 223.901 104.615 223.88L104.319 223.84C104.212 223.813 104.135 223.771 104.087 223.712C104.044 223.653 104.023 223.579 104.023 223.488C104.023 223.387 104.052 223.304 104.111 223.24C104.175 223.176 104.287 223.112 104.447 223.048L106.111 222.432C106.351 222.341 106.54 222.277 106.679 222.24C106.823 222.197 106.948 222.176 107.055 222.176C107.268 222.176 107.428 222.232 107.535 222.344C107.642 222.456 107.695 222.603 107.695 222.784V227.336C107.695 227.736 107.788 228.037 107.975 228.24C108.167 228.443 108.428 228.544 108.759 228.544C108.967 228.544 109.183 228.499 109.407 228.408C109.636 228.317 109.86 228.179 110.079 227.992L110.375 227.728L110.791 228.16L110.511 228.416C109.807 229.077 109.191 229.541 108.663 229.808C108.135 230.075 107.644 230.208 107.191 230.208C106.503 230.208 105.946 229.981 105.519 229.528C105.092 229.075 104.879 228.477 104.879 227.736ZM114.99 223.264L114.662 223.152C114.544 223.109 114.456 223.056 114.398 222.992C114.344 222.928 114.318 222.851 114.318 222.76C114.318 222.637 114.36 222.541 114.446 222.472C114.536 222.403 114.651 222.368 114.79 222.368H115.262C115.374 222.368 115.472 222.344 115.558 222.296C115.643 222.248 115.742 222.16 115.854 222.032L116.966 220.752C117.104 220.597 117.235 220.483 117.358 220.408C117.486 220.333 117.608 220.296 117.726 220.296C117.854 220.296 117.955 220.339 118.03 220.424C118.104 220.509 118.142 220.632 118.142 220.792V227.416C118.142 227.8 118.211 228.093 118.35 228.296C118.494 228.493 118.694 228.592 118.95 228.592C119.147 228.592 119.299 228.549 119.406 228.464C119.518 228.373 119.606 228.272 119.67 228.16C119.734 228.043 119.8 227.939 119.87 227.848C119.939 227.757 120.03 227.709 120.142 227.704C120.232 227.704 120.304 227.736 120.358 227.8C120.411 227.859 120.438 227.963 120.438 228.112C120.432 228.496 120.315 228.845 120.086 229.16C119.862 229.475 119.55 229.725 119.15 229.912C118.755 230.099 118.302 230.192 117.79 230.192C117.016 230.192 116.414 230.003 115.982 229.624C115.55 229.245 115.334 228.672 115.334 227.904V223.752C115.334 223.608 115.307 223.504 115.254 223.44C115.2 223.371 115.112 223.312 114.99 223.264ZM117.118 223.312L117.126 222.368H119.902C120.046 222.368 120.158 222.4 120.238 222.464C120.323 222.523 120.366 222.608 120.366 222.72C120.366 222.885 120.283 223.027 120.118 223.144C119.952 223.256 119.683 223.312 119.31 223.312H117.118ZM128.951 225.224C128.951 225.544 128.86 225.792 128.679 225.968C128.503 226.144 128.247 226.232 127.911 226.232H123.039V225.52H125.743C126.02 225.52 126.159 225.392 126.159 225.136C126.159 224.437 126.055 223.925 125.847 223.6C125.644 223.269 125.372 223.104 125.031 223.104C124.77 223.104 124.538 223.189 124.335 223.36C124.138 223.531 123.98 223.784 123.863 224.12C123.746 224.451 123.687 224.859 123.687 225.344C123.687 226.352 123.916 227.099 124.375 227.584C124.839 228.064 125.46 228.304 126.239 228.304C126.655 228.304 127.026 228.235 127.351 228.096C127.676 227.957 127.954 227.739 128.183 227.44C128.306 227.323 128.399 227.243 128.463 227.2C128.532 227.157 128.599 227.136 128.663 227.136C128.754 227.136 128.82 227.181 128.863 227.272C128.911 227.357 128.935 227.464 128.935 227.592C128.919 228.061 128.756 228.496 128.447 228.896C128.138 229.291 127.714 229.608 127.175 229.848C126.636 230.088 126.012 230.208 125.303 230.208C124.514 230.208 123.807 230.048 123.183 229.728C122.564 229.408 122.076 228.963 121.719 228.392C121.362 227.816 121.183 227.144 121.183 226.376C121.183 225.539 121.348 224.805 121.679 224.176C122.015 223.541 122.498 223.048 123.127 222.696C123.762 222.339 124.522 222.16 125.407 222.16C126.17 222.16 126.815 222.291 127.343 222.552C127.871 222.813 128.271 223.176 128.543 223.64C128.815 224.099 128.951 224.627 128.951 225.224ZM133.422 223.008C133.08 223.008 132.819 223.088 132.638 223.248C132.456 223.408 132.366 223.605 132.366 223.84C132.366 223.984 132.395 224.117 132.454 224.24C132.518 224.363 132.643 224.475 132.83 224.576C133.022 224.672 133.307 224.76 133.686 224.84C134.587 225.011 135.278 225.229 135.758 225.496C136.238 225.757 136.568 226.067 136.75 226.424C136.931 226.776 137.022 227.173 137.022 227.616C137.022 228.416 136.739 229.048 136.174 229.512C135.614 229.976 134.792 230.208 133.71 230.208C133.331 230.208 133.024 230.176 132.79 230.112C132.56 230.053 132.374 229.995 132.23 229.936C132.086 229.872 131.958 229.84 131.846 229.84C131.723 229.84 131.622 229.872 131.542 229.936C131.462 229.995 131.382 230.053 131.302 230.112C131.227 230.176 131.131 230.208 131.014 230.208C130.907 230.208 130.824 230.176 130.766 230.112C130.707 230.048 130.654 229.933 130.606 229.768L130.134 228.232C130.064 228.003 130.043 227.819 130.07 227.68C130.102 227.541 130.187 227.445 130.326 227.392C130.47 227.339 130.595 227.339 130.702 227.392C130.808 227.44 130.91 227.539 131.006 227.688C131.251 228.077 131.507 228.397 131.774 228.648C132.046 228.893 132.328 229.075 132.622 229.192C132.92 229.304 133.227 229.36 133.542 229.36C133.947 229.36 134.251 229.28 134.454 229.12C134.656 228.955 134.758 228.739 134.758 228.472C134.758 228.307 134.715 228.163 134.63 228.04C134.544 227.912 134.382 227.795 134.142 227.688C133.902 227.581 133.544 227.48 133.07 227.384C132.344 227.24 131.766 227.045 131.334 226.8C130.902 226.549 130.592 226.245 130.406 225.888C130.224 225.531 130.134 225.115 130.134 224.64C130.134 224.139 130.264 223.704 130.526 223.336C130.787 222.963 131.15 222.675 131.614 222.472C132.078 222.264 132.608 222.16 133.206 222.16C133.595 222.16 133.904 222.192 134.134 222.256C134.368 222.32 134.558 222.387 134.702 222.456C134.851 222.52 134.99 222.552 135.118 222.552C135.251 222.552 135.36 222.52 135.446 222.456C135.536 222.387 135.624 222.32 135.71 222.256C135.795 222.192 135.894 222.16 136.006 222.16C136.107 222.16 136.19 222.195 136.254 222.264C136.323 222.333 136.371 222.453 136.398 222.624L136.718 224.088C136.76 224.317 136.766 224.493 136.734 224.616C136.707 224.739 136.627 224.827 136.494 224.88C136.355 224.939 136.232 224.936 136.126 224.872C136.019 224.808 135.91 224.693 135.798 224.528C135.446 223.968 135.062 223.576 134.646 223.352C134.235 223.123 133.827 223.008 133.422 223.008ZM141.802 223.264L141.474 223.152C141.357 223.109 141.269 223.056 141.21 222.992C141.157 222.928 141.13 222.851 141.13 222.76C141.13 222.637 141.173 222.541 141.258 222.472C141.349 222.403 141.463 222.368 141.602 222.368H142.074C142.186 222.368 142.285 222.344 142.37 222.296C142.455 222.248 142.554 222.16 142.666 222.032L143.778 220.752C143.917 220.597 144.047 220.483 144.17 220.408C144.298 220.333 144.421 220.296 144.538 220.296C144.666 220.296 144.767 220.339 144.842 220.424C144.917 220.509 144.954 220.632 144.954 220.792V227.416C144.954 227.8 145.023 228.093 145.162 228.296C145.306 228.493 145.506 228.592 145.762 228.592C145.959 228.592 146.111 228.549 146.218 228.464C146.33 228.373 146.418 228.272 146.482 228.16C146.546 228.043 146.613 227.939 146.682 227.848C146.751 227.757 146.842 227.709 146.954 227.704C147.045 227.704 147.117 227.736 147.17 227.8C147.223 227.859 147.25 227.963 147.25 228.112C147.245 228.496 147.127 228.845 146.898 229.16C146.674 229.475 146.362 229.725 145.962 229.912C145.567 230.099 145.114 230.192 144.602 230.192C143.829 230.192 143.226 230.003 142.794 229.624C142.362 229.245 142.146 228.672 142.146 227.904V223.752C142.146 223.608 142.119 223.504 142.066 223.44C142.013 223.371 141.925 223.312 141.802 223.264ZM143.93 223.312L143.938 222.368H146.714C146.858 222.368 146.97 222.4 147.05 222.464C147.135 222.523 147.178 222.608 147.178 222.72C147.178 222.885 147.095 223.027 146.93 223.144C146.765 223.256 146.495 223.312 146.122 223.312H143.93ZM152.427 222.16C153.291 222.16 154.046 222.331 154.691 222.672C155.342 223.008 155.849 223.48 156.211 224.088C156.574 224.696 156.755 225.403 156.755 226.208C156.755 226.96 156.566 227.64 156.187 228.248C155.814 228.851 155.294 229.328 154.627 229.68C153.966 230.032 153.198 230.208 152.323 230.208C151.465 230.208 150.71 230.037 150.059 229.696C149.414 229.349 148.91 228.872 148.547 228.264C148.185 227.656 148.003 226.955 148.003 226.16C148.003 225.392 148.19 224.707 148.563 224.104C148.942 223.501 149.462 223.027 150.123 222.68C150.79 222.333 151.558 222.16 152.427 222.16ZM153.003 229.232C153.286 229.179 153.507 229.024 153.667 228.768C153.833 228.512 153.926 228.149 153.947 227.68C153.974 227.205 153.921 226.624 153.787 225.936C153.654 225.259 153.486 224.704 153.283 224.272C153.081 223.835 152.849 223.523 152.587 223.336C152.331 223.144 152.054 223.077 151.755 223.136C151.473 223.189 151.249 223.344 151.083 223.6C150.918 223.856 150.825 224.219 150.803 224.688C150.782 225.157 150.838 225.739 150.971 226.432C151.105 227.104 151.273 227.659 151.475 228.096C151.678 228.533 151.907 228.845 152.163 229.032C152.425 229.219 152.705 229.285 153.003 229.232ZM164.762 222.776V228.544C164.762 228.731 164.78 228.864 164.818 228.944C164.86 229.024 164.924 229.083 165.01 229.12L165.242 229.208C165.412 229.288 165.498 229.411 165.498 229.576C165.498 229.859 165.324 230 164.978 230H161.65C161.474 230 161.346 229.965 161.266 229.896C161.186 229.821 161.146 229.723 161.146 229.6C161.146 229.509 161.17 229.432 161.218 229.368C161.266 229.299 161.346 229.243 161.458 229.2L161.706 229.12C161.791 229.088 161.852 229.032 161.89 228.952C161.932 228.867 161.954 228.731 161.954 228.544V224.328C161.954 224.179 161.932 224.072 161.89 224.008C161.847 223.944 161.78 223.901 161.69 223.88L161.386 223.84C161.284 223.808 161.21 223.765 161.162 223.712C161.119 223.653 161.098 223.579 161.098 223.488C161.098 223.381 161.127 223.299 161.186 223.24C161.244 223.176 161.356 223.112 161.522 223.048L163.178 222.432C163.412 222.341 163.599 222.277 163.738 222.24C163.882 222.197 164.02 222.176 164.154 222.176C164.351 222.176 164.5 222.232 164.602 222.344C164.708 222.456 164.762 222.6 164.762 222.776ZM164.498 224.64L164.082 224.208L164.362 223.952C165.071 223.285 165.684 222.821 166.202 222.56C166.719 222.293 167.204 222.16 167.658 222.16C168.351 222.16 168.906 222.387 169.322 222.84C169.738 223.288 169.946 223.885 169.946 224.632V228.536C169.946 228.723 169.964 228.859 170.002 228.944C170.044 229.024 170.111 229.083 170.202 229.12L170.426 229.208C170.591 229.293 170.674 229.416 170.674 229.576C170.674 229.859 170.503 230 170.162 230H166.914C166.567 230 166.394 229.859 166.394 229.576C166.394 229.411 166.479 229.288 166.65 229.208L166.882 229.12C166.972 229.083 167.036 229.024 167.074 228.944C167.116 228.859 167.138 228.723 167.138 228.536V225.032C167.138 224.627 167.044 224.325 166.858 224.128C166.676 223.925 166.42 223.824 166.09 223.824C165.882 223.824 165.668 223.869 165.45 223.96C165.231 224.051 165.012 224.189 164.794 224.376L164.498 224.64ZM169.674 224.64L169.266 224.208L169.538 223.952C170.252 223.285 170.868 222.821 171.386 222.56C171.903 222.293 172.386 222.16 172.834 222.16C173.532 222.16 174.09 222.387 174.506 222.84C174.922 223.288 175.13 223.885 175.13 224.632V228.536C175.13 228.723 175.148 228.859 175.186 228.944C175.228 229.029 175.295 229.088 175.386 229.12L175.618 229.2C175.73 229.243 175.81 229.299 175.858 229.368C175.906 229.432 175.93 229.509 175.93 229.6C175.93 229.723 175.89 229.821 175.81 229.896C175.73 229.965 175.602 230 175.426 230H172.098C171.751 230 171.578 229.859 171.578 229.576C171.578 229.411 171.66 229.288 171.826 229.208L172.066 229.12C172.156 229.083 172.22 229.024 172.258 228.944C172.295 228.859 172.314 228.723 172.314 228.536V225.032C172.314 224.627 172.223 224.325 172.042 224.128C171.86 223.925 171.604 223.824 171.274 223.824C171.066 223.824 170.852 223.869 170.634 223.96C170.415 224.051 170.196 224.189 169.978 224.376L169.674 224.64ZM184.545 225.224C184.545 225.544 184.454 225.792 184.273 225.968C184.097 226.144 183.841 226.232 183.505 226.232H178.633V225.52H181.337C181.614 225.52 181.753 225.392 181.753 225.136C181.753 224.437 181.649 223.925 181.441 223.6C181.238 223.269 180.966 223.104 180.625 223.104C180.363 223.104 180.131 223.189 179.929 223.36C179.731 223.531 179.574 223.784 179.457 224.12C179.339 224.451 179.281 224.859 179.281 225.344C179.281 226.352 179.51 227.099 179.969 227.584C180.433 228.064 181.054 228.304 181.833 228.304C182.249 228.304 182.619 228.235 182.945 228.096C183.27 227.957 183.547 227.739 183.777 227.44C183.899 227.323 183.993 227.243 184.057 227.2C184.126 227.157 184.193 227.136 184.257 227.136C184.347 227.136 184.414 227.181 184.457 227.272C184.505 227.357 184.529 227.464 184.529 227.592C184.513 228.061 184.35 228.496 184.041 228.896C183.731 229.291 183.307 229.608 182.769 229.848C182.23 230.088 181.606 230.208 180.897 230.208C180.107 230.208 179.401 230.048 178.777 229.728C178.158 229.408 177.67 228.963 177.313 228.392C176.955 227.816 176.777 227.144 176.777 226.376C176.777 225.539 176.942 224.805 177.273 224.176C177.609 223.541 178.091 223.048 178.721 222.696C179.355 222.339 180.115 222.16 181.001 222.16C181.763 222.16 182.409 222.291 182.937 222.552C183.465 222.813 183.865 223.176 184.137 223.64C184.409 224.099 184.545 224.627 184.545 225.224ZM189.183 222.776V228.544C189.183 228.731 189.202 228.864 189.239 228.944C189.282 229.024 189.346 229.083 189.431 229.12L189.663 229.208C189.834 229.288 189.919 229.411 189.919 229.576C189.919 229.859 189.746 230 189.399 230H186.071C185.895 230 185.767 229.965 185.687 229.896C185.607 229.821 185.567 229.723 185.567 229.6C185.567 229.509 185.591 229.432 185.639 229.368C185.687 229.299 185.767 229.243 185.879 229.2L186.127 229.12C186.213 229.088 186.274 229.032 186.311 228.952C186.354 228.867 186.375 228.731 186.375 228.544V224.328C186.375 224.179 186.354 224.072 186.311 224.008C186.269 223.944 186.202 223.901 186.111 223.88L185.807 223.84C185.706 223.808 185.631 223.765 185.583 223.712C185.541 223.653 185.519 223.579 185.519 223.488C185.519 223.381 185.549 223.299 185.607 223.24C185.666 223.176 185.778 223.112 185.943 223.048L187.599 222.432C187.834 222.341 188.021 222.277 188.159 222.24C188.303 222.197 188.442 222.176 188.575 222.176C188.773 222.176 188.922 222.232 189.023 222.344C189.13 222.456 189.183 222.6 189.183 222.776ZM188.919 224.64L188.503 224.208L188.783 223.952C189.493 223.285 190.111 222.821 190.639 222.56C191.167 222.293 191.658 222.16 192.111 222.16C192.805 222.16 193.365 222.387 193.791 222.84C194.218 223.288 194.431 223.885 194.431 224.632V228.536C194.431 228.723 194.45 228.859 194.487 228.944C194.53 229.029 194.597 229.088 194.687 229.12L194.919 229.2C195.031 229.243 195.111 229.299 195.159 229.368C195.207 229.432 195.231 229.509 195.231 229.6C195.231 229.723 195.191 229.821 195.111 229.896C195.031 229.965 194.903 230 194.727 230H191.399C191.053 230 190.879 229.859 190.879 229.576C190.879 229.411 190.962 229.288 191.127 229.208L191.367 229.12C191.458 229.083 191.522 229.024 191.559 228.944C191.602 228.859 191.623 228.723 191.623 228.536V225.032C191.623 224.627 191.525 224.325 191.327 224.128C191.135 223.925 190.874 223.824 190.543 223.824C190.335 223.824 190.117 223.869 189.887 223.96C189.658 224.051 189.437 224.189 189.223 224.376L188.919 224.64ZM196.49 223.264L196.162 223.152C196.044 223.109 195.956 223.056 195.898 222.992C195.844 222.928 195.818 222.851 195.818 222.76C195.818 222.637 195.86 222.541 195.946 222.472C196.036 222.403 196.151 222.368 196.29 222.368H196.762C196.874 222.368 196.972 222.344 197.058 222.296C197.143 222.248 197.242 222.16 197.354 222.032L198.466 220.752C198.604 220.597 198.735 220.483 198.858 220.408C198.986 220.333 199.108 220.296 199.226 220.296C199.354 220.296 199.455 220.339 199.53 220.424C199.604 220.509 199.642 220.632 199.642 220.792V227.416C199.642 227.8 199.711 228.093 199.85 228.296C199.994 228.493 200.194 228.592 200.45 228.592C200.647 228.592 200.799 228.549 200.906 228.464C201.018 228.373 201.106 228.272 201.17 228.16C201.234 228.043 201.3 227.939 201.37 227.848C201.439 227.757 201.53 227.709 201.642 227.704C201.732 227.704 201.804 227.736 201.858 227.8C201.911 227.859 201.938 227.963 201.938 228.112C201.932 228.496 201.815 228.845 201.586 229.16C201.362 229.475 201.05 229.725 200.65 229.912C200.255 230.099 199.802 230.192 199.29 230.192C198.516 230.192 197.914 230.003 197.482 229.624C197.05 229.245 196.834 228.672 196.834 227.904V223.752C196.834 223.608 196.807 223.504 196.754 223.44C196.7 223.371 196.612 223.312 196.49 223.264ZM198.618 223.312L198.626 222.368H201.402C201.546 222.368 201.658 222.4 201.738 222.464C201.823 222.523 201.866 222.608 201.866 222.72C201.866 222.885 201.783 223.027 201.618 223.144C201.452 223.256 201.183 223.312 200.81 223.312H198.618ZM207.595 228.952V228.776L207.395 228.76V223.776C207.395 223.488 207.318 223.261 207.163 223.096C207.014 222.931 206.808 222.848 206.547 222.848C206.318 222.848 206.134 222.899 205.995 223C205.862 223.101 205.795 223.229 205.795 223.384V224.176C205.795 224.56 205.664 224.856 205.403 225.064C205.142 225.272 204.774 225.376 204.299 225.376C203.894 225.376 203.59 225.288 203.387 225.112C203.184 224.931 203.083 224.68 203.083 224.36C203.083 224.019 203.23 223.68 203.523 223.344C203.822 223.003 204.264 222.723 204.851 222.504C205.443 222.28 206.176 222.168 207.051 222.168C208.107 222.168 208.891 222.371 209.403 222.776C209.915 223.181 210.171 223.731 210.171 224.424V228.424C210.171 228.547 210.198 228.645 210.251 228.72C210.31 228.789 210.395 228.824 210.507 228.824C210.608 228.824 210.686 228.797 210.739 228.744C210.798 228.691 210.851 228.637 210.899 228.584C210.931 228.547 210.963 228.517 210.995 228.496C211.032 228.469 211.075 228.456 211.123 228.456C211.203 228.456 211.259 228.485 211.291 228.544C211.328 228.597 211.347 228.667 211.347 228.752C211.347 228.96 211.272 229.176 211.123 229.4C210.979 229.624 210.76 229.816 210.467 229.976C210.174 230.131 209.808 230.208 209.371 230.208C208.838 230.208 208.408 230.093 208.083 229.864C207.758 229.629 207.595 229.325 207.595 228.952ZM202.771 228.312C202.771 227.619 203.083 227.064 203.707 226.648C204.331 226.232 205.208 226.024 206.339 226.024C206.67 226.024 206.963 226.051 207.219 226.104C207.475 226.152 207.691 226.221 207.867 226.312L207.643 226.904C207.494 226.829 207.347 226.773 207.203 226.736C207.064 226.693 206.91 226.672 206.739 226.672C206.387 226.672 206.11 226.773 205.907 226.976C205.71 227.179 205.611 227.464 205.611 227.832C205.611 228.205 205.702 228.491 205.883 228.688C206.064 228.885 206.299 228.984 206.587 228.984C206.806 228.984 207.014 228.933 207.211 228.832C207.414 228.725 207.579 228.592 207.707 228.432L207.883 228.968C207.611 229.363 207.23 229.669 206.739 229.888C206.254 230.101 205.734 230.208 205.179 230.208C204.459 230.208 203.878 230.032 203.435 229.68C202.992 229.323 202.771 228.867 202.771 228.312ZM215.621 218.616V228.544C215.621 228.731 215.64 228.867 215.677 228.952C215.72 229.032 215.786 229.088 215.877 229.12L216.117 229.2C216.229 229.243 216.309 229.299 216.357 229.368C216.405 229.432 216.429 229.509 216.429 229.6C216.429 229.723 216.389 229.821 216.309 229.896C216.229 229.965 216.098 230 215.917 230H212.517C212.336 230 212.205 229.965 212.125 229.896C212.045 229.821 212.005 229.723 212.005 229.6C212.005 229.509 212.029 229.432 212.077 229.368C212.125 229.299 212.205 229.243 212.317 229.2L212.565 229.12C212.656 229.088 212.72 229.032 212.757 228.952C212.794 228.867 212.813 228.731 212.813 228.544V220.168C212.813 220.019 212.792 219.912 212.749 219.848C212.706 219.779 212.64 219.736 212.549 219.72L212.253 219.672C212.146 219.645 212.069 219.603 212.021 219.544C211.978 219.485 211.957 219.413 211.957 219.328C211.957 219.221 211.986 219.136 212.045 219.072C212.104 219.008 212.216 218.947 212.381 218.888L214.045 218.264C214.285 218.173 214.474 218.109 214.613 218.072C214.757 218.035 214.882 218.016 214.989 218.016C215.202 218.016 215.36 218.072 215.461 218.184C215.568 218.296 215.621 218.44 215.621 218.616ZM224.06 224.64L223.644 224.208L223.924 223.952C224.633 223.285 225.252 222.821 225.78 222.56C226.308 222.293 226.799 222.16 227.252 222.16C227.945 222.16 228.505 222.387 228.932 222.84C229.359 223.288 229.572 223.885 229.572 224.632V228.536C229.572 228.723 229.591 228.859 229.628 228.944C229.671 229.029 229.737 229.088 229.828 229.12L230.06 229.2C230.172 229.243 230.252 229.299 230.3 229.368C230.348 229.432 230.372 229.509 230.372 229.6C230.372 229.723 230.332 229.821 230.252 229.896C230.172 229.965 230.044 230 229.868 230H226.54C226.193 230 226.02 229.859 226.02 229.576C226.02 229.411 226.103 229.288 226.268 229.208L226.508 229.12C226.599 229.083 226.663 229.024 226.7 228.944C226.743 228.859 226.764 228.723 226.764 228.536V225.032C226.764 224.627 226.665 224.325 226.468 224.128C226.276 223.925 226.015 223.824 225.684 223.824C225.476 223.824 225.257 223.869 225.028 223.96C224.799 224.051 224.577 224.189 224.364 224.376L224.06 224.64ZM224.324 218.616V228.544C224.324 228.731 224.343 228.864 224.38 228.944C224.423 229.024 224.487 229.083 224.572 229.12L224.804 229.208C224.975 229.288 225.06 229.411 225.06 229.576C225.06 229.859 224.887 230 224.54 230H221.212C221.036 230 220.908 229.965 220.828 229.896C220.748 229.821 220.708 229.723 220.708 229.6C220.708 229.509 220.732 229.432 220.78 229.368C220.828 229.299 220.908 229.243 221.02 229.2L221.268 229.12C221.353 229.088 221.415 229.032 221.452 228.952C221.495 228.867 221.516 228.731 221.516 228.544V220.168C221.516 220.019 221.495 219.912 221.452 219.848C221.409 219.779 221.343 219.736 221.252 219.72L220.948 219.672C220.847 219.645 220.772 219.603 220.724 219.544C220.681 219.485 220.66 219.413 220.66 219.328C220.66 219.221 220.689 219.136 220.748 219.072C220.807 219.008 220.919 218.947 221.084 218.888L222.74 218.264C222.975 218.179 223.161 218.117 223.3 218.08C223.444 218.037 223.583 218.016 223.716 218.016C223.913 218.016 224.063 218.072 224.164 218.184C224.271 218.296 224.324 218.44 224.324 218.616ZM238.982 225.224C238.982 225.544 238.892 225.792 238.71 225.968C238.534 226.144 238.278 226.232 237.942 226.232H233.07V225.52H235.774C236.052 225.52 236.19 225.392 236.19 225.136C236.19 224.437 236.086 223.925 235.878 223.6C235.676 223.269 235.404 223.104 235.062 223.104C234.801 223.104 234.569 223.189 234.366 223.36C234.169 223.531 234.012 223.784 233.894 224.12C233.777 224.451 233.718 224.859 233.718 225.344C233.718 226.352 233.948 227.099 234.406 227.584C234.87 228.064 235.492 228.304 236.27 228.304C236.686 228.304 237.057 228.235 237.382 228.096C237.708 227.957 237.985 227.739 238.214 227.44C238.337 227.323 238.43 227.243 238.494 227.2C238.564 227.157 238.63 227.136 238.694 227.136C238.785 227.136 238.852 227.181 238.894 227.272C238.942 227.357 238.966 227.464 238.966 227.592C238.95 228.061 238.788 228.496 238.478 228.896C238.169 229.291 237.745 229.608 237.206 229.848C236.668 230.088 236.044 230.208 235.334 230.208C234.545 230.208 233.838 230.048 233.214 229.728C232.596 229.408 232.108 228.963 231.75 228.392C231.393 227.816 231.214 227.144 231.214 226.376C231.214 225.539 231.38 224.805 231.71 224.176C232.046 223.541 232.529 223.048 233.158 222.696C233.793 222.339 234.553 222.16 235.438 222.16C236.201 222.16 236.846 222.291 237.374 222.552C237.902 222.813 238.302 223.176 238.574 223.64C238.846 224.099 238.982 224.627 238.982 225.224ZM244.845 228.952V228.776L244.645 228.76V223.776C244.645 223.488 244.568 223.261 244.413 223.096C244.264 222.931 244.058 222.848 243.797 222.848C243.568 222.848 243.384 222.899 243.245 223C243.112 223.101 243.045 223.229 243.045 223.384V224.176C243.045 224.56 242.914 224.856 242.653 225.064C242.392 225.272 242.024 225.376 241.549 225.376C241.144 225.376 240.84 225.288 240.637 225.112C240.434 224.931 240.333 224.68 240.333 224.36C240.333 224.019 240.48 223.68 240.773 223.344C241.072 223.003 241.514 222.723 242.101 222.504C242.693 222.28 243.426 222.168 244.301 222.168C245.357 222.168 246.141 222.371 246.653 222.776C247.165 223.181 247.421 223.731 247.421 224.424V228.424C247.421 228.547 247.448 228.645 247.501 228.72C247.56 228.789 247.645 228.824 247.757 228.824C247.858 228.824 247.936 228.797 247.989 228.744C248.048 228.691 248.101 228.637 248.149 228.584C248.181 228.547 248.213 228.517 248.245 228.496C248.282 228.469 248.325 228.456 248.373 228.456C248.453 228.456 248.509 228.485 248.541 228.544C248.578 228.597 248.597 228.667 248.597 228.752C248.597 228.96 248.522 229.176 248.373 229.4C248.229 229.624 248.01 229.816 247.717 229.976C247.424 230.131 247.058 230.208 246.621 230.208C246.088 230.208 245.658 230.093 245.333 229.864C245.008 229.629 244.845 229.325 244.845 228.952ZM240.021 228.312C240.021 227.619 240.333 227.064 240.957 226.648C241.581 226.232 242.458 226.024 243.589 226.024C243.92 226.024 244.213 226.051 244.469 226.104C244.725 226.152 244.941 226.221 245.117 226.312L244.893 226.904C244.744 226.829 244.597 226.773 244.453 226.736C244.314 226.693 244.16 226.672 243.989 226.672C243.637 226.672 243.36 226.773 243.157 226.976C242.96 227.179 242.861 227.464 242.861 227.832C242.861 228.205 242.952 228.491 243.133 228.688C243.314 228.885 243.549 228.984 243.837 228.984C244.056 228.984 244.264 228.933 244.461 228.832C244.664 228.725 244.829 228.592 244.957 228.432L245.133 228.968C244.861 229.363 244.48 229.669 243.989 229.888C243.504 230.101 242.984 230.208 242.429 230.208C241.709 230.208 241.128 230.032 240.685 229.68C240.242 229.323 240.021 228.867 240.021 228.312ZM252.871 218.616V228.544C252.871 228.731 252.89 228.867 252.927 228.952C252.97 229.032 253.036 229.088 253.127 229.12L253.367 229.2C253.479 229.243 253.559 229.299 253.607 229.368C253.655 229.432 253.679 229.509 253.679 229.6C253.679 229.723 253.639 229.821 253.559 229.896C253.479 229.965 253.348 230 253.167 230H249.767C249.586 230 249.455 229.965 249.375 229.896C249.295 229.821 249.255 229.723 249.255 229.6C249.255 229.509 249.279 229.432 249.327 229.368C249.375 229.299 249.455 229.243 249.567 229.2L249.815 229.12C249.906 229.088 249.97 229.032 250.007 228.952C250.044 228.867 250.063 228.731 250.063 228.544V220.168C250.063 220.019 250.042 219.912 249.999 219.848C249.956 219.779 249.89 219.736 249.799 219.72L249.503 219.672C249.396 219.645 249.319 219.603 249.271 219.544C249.228 219.485 249.207 219.413 249.207 219.328C249.207 219.221 249.236 219.136 249.295 219.072C249.354 219.008 249.466 218.947 249.631 218.888L251.295 218.264C251.535 218.173 251.724 218.109 251.863 218.072C252.007 218.035 252.132 218.016 252.239 218.016C252.452 218.016 252.61 218.072 252.711 218.184C252.818 218.296 252.871 218.44 252.871 218.616ZM254.943 223.264L254.615 223.152C254.497 223.109 254.409 223.056 254.351 222.992C254.297 222.928 254.271 222.851 254.271 222.76C254.271 222.637 254.313 222.541 254.399 222.472C254.489 222.403 254.604 222.368 254.743 222.368H255.215C255.327 222.368 255.425 222.344 255.511 222.296C255.596 222.248 255.695 222.16 255.807 222.032L256.919 220.752C257.057 220.597 257.188 220.483 257.311 220.408C257.439 220.333 257.561 220.296 257.679 220.296C257.807 220.296 257.908 220.339 257.983 220.424C258.057 220.509 258.095 220.632 258.095 220.792V227.416C258.095 227.8 258.164 228.093 258.303 228.296C258.447 228.493 258.647 228.592 258.903 228.592C259.1 228.592 259.252 228.549 259.359 228.464C259.471 228.373 259.559 228.272 259.623 228.16C259.687 228.043 259.753 227.939 259.823 227.848C259.892 227.757 259.983 227.709 260.095 227.704C260.185 227.704 260.257 227.736 260.311 227.8C260.364 227.859 260.391 227.963 260.391 228.112C260.385 228.496 260.268 228.845 260.039 229.16C259.815 229.475 259.503 229.725 259.103 229.912C258.708 230.099 258.255 230.192 257.743 230.192C256.969 230.192 256.367 230.003 255.935 229.624C255.503 229.245 255.287 228.672 255.287 227.904V223.752C255.287 223.608 255.26 223.504 255.207 223.44C255.153 223.371 255.065 223.312 254.943 223.264ZM257.071 223.312L257.079 222.368H259.855C259.999 222.368 260.111 222.4 260.191 222.464C260.276 222.523 260.319 222.608 260.319 222.72C260.319 222.885 260.236 223.027 260.071 223.144C259.905 223.256 259.636 223.312 259.263 223.312H257.071ZM264.56 224.64L264.144 224.208L264.424 223.952C265.133 223.285 265.752 222.821 266.28 222.56C266.808 222.293 267.299 222.16 267.752 222.16C268.445 222.16 269.005 222.387 269.432 222.84C269.859 223.288 270.072 223.885 270.072 224.632V228.536C270.072 228.723 270.091 228.859 270.128 228.944C270.171 229.029 270.237 229.088 270.328 229.12L270.56 229.2C270.672 229.243 270.752 229.299 270.8 229.368C270.848 229.432 270.872 229.509 270.872 229.6C270.872 229.723 270.832 229.821 270.752 229.896C270.672 229.965 270.544 230 270.368 230H267.04C266.693 230 266.52 229.859 266.52 229.576C266.52 229.411 266.603 229.288 266.768 229.208L267.008 229.12C267.099 229.083 267.163 229.024 267.2 228.944C267.243 228.859 267.264 228.723 267.264 228.536V225.032C267.264 224.627 267.165 224.325 266.968 224.128C266.776 223.925 266.515 223.824 266.184 223.824C265.976 223.824 265.757 223.869 265.528 223.96C265.299 224.051 265.077 224.189 264.864 224.376L264.56 224.64ZM264.824 218.616V228.544C264.824 228.731 264.843 228.864 264.88 228.944C264.923 229.024 264.987 229.083 265.072 229.12L265.304 229.208C265.475 229.288 265.56 229.411 265.56 229.576C265.56 229.859 265.387 230 265.04 230H261.712C261.536 230 261.408 229.965 261.328 229.896C261.248 229.821 261.208 229.723 261.208 229.6C261.208 229.509 261.232 229.432 261.28 229.368C261.328 229.299 261.408 229.243 261.52 229.2L261.768 229.12C261.853 229.088 261.915 229.032 261.952 228.952C261.995 228.867 262.016 228.731 262.016 228.544V220.168C262.016 220.019 261.995 219.912 261.952 219.848C261.909 219.779 261.843 219.736 261.752 219.72L261.448 219.672C261.347 219.645 261.272 219.603 261.224 219.544C261.181 219.485 261.16 219.413 261.16 219.328C261.16 219.221 261.189 219.136 261.248 219.072C261.307 219.008 261.419 218.947 261.584 218.888L263.24 218.264C263.475 218.179 263.661 218.117 263.8 218.08C263.944 218.037 264.083 218.016 264.216 218.016C264.413 218.016 264.563 218.072 264.664 218.184C264.771 218.296 264.824 218.44 264.824 218.616Z" fill="white"/>
<path d="M127.6 100.496V96.336L133.872 93.136H138.864C139.504 93.136 139.824 93.456 139.824 94.096V170H133.488V99.472C133.488 98.832 133.232 98.64 132.656 98.96L128.496 101.008C127.92 101.328 127.6 101.136 127.6 100.496ZM143.358 186L156.67 93.136H162.942L149.566 186H143.358ZM175.883 119.248H170.059V114.448L177.739 98.704H166.859V93.2H184.203V98.256L176.203 114.448H177.803C182.155 114.448 185.035 117.392 185.035 121.872V162.512C185.035 166.992 182.155 170 177.803 170H173.451L166.347 160.08V125.2C166.347 124.56 166.667 124.24 167.307 124.24H172.619V162.256L174.603 165.2H175.883C177.803 165.2 178.763 164.24 178.763 162.256V122.128C178.763 120.208 177.803 119.248 175.883 119.248Z" fill="white"/>
<path d="M120.085 82V54.7H122.633V57.482H122.815C123.179 55.948 123.985 54.44 125.545 54.44C126.689 54.44 127.677 55.246 127.677 57.482H127.833C128.223 55.948 129.029 54.44 130.563 54.44C131.733 54.44 132.695 55.246 132.695 57.482V82H130.147V58.99C130.147 57.482 129.601 56.962 129.055 56.962C128.041 56.962 127.755 58.886 127.677 60.472V82H125.103V58.99C125.103 57.482 124.557 56.962 124.037 56.962C122.997 56.962 122.711 58.886 122.633 60.472V82H120.085ZM136.731 54.7H138.655C140.423 54.7 141.437 55.87 141.437 57.612V77.944L138.577 82H136.783C135.015 82 133.845 80.7 133.845 78.776V58.392L136.731 54.7ZM138.083 80.128L138.889 78.828V58.158C138.889 57.014 138.629 56.546 137.615 56.546H137.199L136.393 57.534V78.23C136.393 79.582 136.809 80.154 137.823 80.128H138.083ZM142.556 54.7H145.104V57.482H145.26C145.65 55.948 146.456 54.44 148.016 54.44C149.16 54.44 150.122 55.35 150.122 57.716V60.03L147.782 62.916C147.652 63.046 147.574 62.994 147.574 62.812V58.99C147.574 57.482 147.028 56.962 146.482 56.962C145.39 56.962 145.182 59.016 145.104 60.472V82H142.556V54.7ZM155.697 73.758V58.054C155.697 56.962 155.307 56.442 154.449 56.442C153.617 56.442 153.227 56.962 153.227 58.054V75.162L154.293 75.058L155.697 73.758ZM158.297 79.556V82H153.591C151.849 82 150.679 80.986 150.679 79.218V57.612C150.679 55.87 151.901 54.7 153.669 54.7H155.853C157.101 54.7 158.115 55.48 158.115 57.196V73.888L154.631 76.644L153.227 76.878V79.374C153.227 80.076 153.695 80.466 154.371 80.362L157.907 79.27C158.141 79.218 158.297 79.322 158.297 79.556ZM165.712 50.8H168.39C168.546 50.8 168.624 50.904 168.572 51.06L167.506 54.44C167.454 54.596 167.506 54.7 167.662 54.7H170.444V56.598H168.26V79.27C168.26 79.894 168.598 80.18 169.014 80.18C169.144 80.18 169.248 80.154 169.352 80.128L170.86 79.192C171.068 79.088 171.198 79.192 171.198 79.426V82H168.624C166.882 82 165.712 80.83 165.712 79.088V56.598H164.23V54.7H165.712V50.8ZM172.009 82V50.8H174.557V57.482H174.713C175.103 55.948 175.909 54.44 177.469 54.44C178.613 54.44 179.575 55.246 179.575 57.482V82H177.027V58.99C177.027 57.482 176.481 56.962 175.935 56.962C174.895 56.962 174.635 58.886 174.557 60.498V82H172.009ZM185.633 60.342L183.163 62.812V77.736C183.163 79.218 183.657 79.764 184.255 79.764C185.321 79.764 185.555 77.84 185.633 76.254V60.342ZM180.589 57.274V54.7H185.269C187.011 54.7 188.181 55.87 188.181 57.612V82H185.633V79.244H185.451C185.087 80.778 184.541 82.286 182.955 82.286C181.811 82.286 180.745 81.48 180.745 79.244V63.202L184.749 59.042L185.633 58.756V57.456C185.633 56.754 185.165 56.364 184.489 56.468L180.953 57.56C180.719 57.638 180.589 57.508 180.589 57.274ZM189.326 82V54.7H191.874V57.482H192.03C192.42 55.948 193.174 54.44 194.812 54.44C196.034 54.44 196.892 55.246 196.892 57.482V82H194.344V58.99C194.344 57.456 193.876 56.962 193.278 56.962C192.16 56.962 191.952 58.86 191.874 60.472V82H189.326Z" fill="white"/>
</svg>
