<svg width="158" height="32" viewBox="0 0 158 32" fill="none" xmlns="http://www.w3.org/2000/svg">
<path d="M146.416 15.375L140.416 11.375C140.303 11.2996 140.172 11.2563 140.036 11.2498C139.9 11.2432 139.765 11.2737 139.646 11.3379C139.526 11.402 139.426 11.4975 139.356 11.6142C139.287 11.7308 139.25 11.8642 139.25 12V20C139.25 20.1359 139.287 20.2693 139.356 20.3859C139.426 20.5025 139.526 20.598 139.646 20.6622C139.765 20.7264 139.9 20.7568 140.036 20.7503C140.172 20.7437 140.303 20.7004 140.416 20.625L146.416 16.625C146.519 16.5566 146.604 16.4637 146.663 16.3547C146.721 16.2456 146.752 16.1238 146.752 16C146.752 15.8763 146.721 15.7544 146.663 15.6454C146.604 15.5363 146.519 15.4434 146.416 15.375ZM140.75 18.5988V13.4013L144.647 16L140.75 18.5988ZM155.05 8.75003C154.941 8.3284 154.734 7.93857 154.446 7.61261C154.157 7.28664 153.795 7.03384 153.39 6.87502C149.125 5.22377 142.284 5.25002 142 5.25002C141.716 5.25002 134.875 5.22377 130.605 6.87502C130.201 7.03449 129.84 7.28757 129.552 7.6135C129.264 7.93943 129.058 8.32892 128.95 8.75003C128.631 9.98628 128.25 12.25 128.25 16C128.25 19.75 128.631 22.0138 128.95 23.25C129.059 23.6716 129.266 24.0615 129.554 24.3874C129.843 24.7134 130.205 24.9662 130.61 25.125C134.875 26.7763 141.715 26.75 142 26.75H142.089C142.953 26.75 149.339 26.695 153.395 25.125C153.8 24.9662 154.162 24.7134 154.451 24.3874C154.739 24.0615 154.946 23.6716 155.055 23.25C155.374 22.0163 155.755 19.7588 155.755 16C155.755 12.2413 155.375 9.98628 155.05 8.75003ZM153.597 22.875C153.549 23.0672 153.456 23.2451 153.326 23.3942C153.195 23.5433 153.032 23.6592 152.847 23.7325C148.847 25.2738 142.073 25.25 142 25.25C141.927 25.25 135.161 25.275 131.156 23.7288C130.972 23.6555 130.808 23.5395 130.678 23.3904C130.547 23.2413 130.454 23.0634 130.406 22.8713C130.105 21.7225 129.75 19.5975 129.75 16C129.75 12.4025 130.105 10.2775 130.403 9.12503C130.451 8.9329 130.544 8.75496 130.674 8.60587C130.805 8.45678 130.968 8.34081 131.153 8.26752C135.008 6.78252 141.441 6.75002 141.97 6.75002H142C142.068 6.75002 148.839 6.72502 152.844 8.27127C153.028 8.34456 153.192 8.46053 153.322 8.60962C153.453 8.75871 153.546 8.93665 153.594 9.12877C153.891 10.2775 154.246 12.4025 154.246 16.0038C154.246 19.605 153.895 21.7225 153.597 22.875Z" fill="#005250"/>
<path d="M65.335 18.3288L61.335 16.3288C61.2169 16.27 61.0853 16.2434 60.9536 16.2518C60.8219 16.2601 60.6948 16.3031 60.585 16.3762L58.625 17.6825C57.6327 17.1745 56.8255 16.3673 56.3175 15.375L57.625 13.4163C57.6982 13.3065 57.7411 13.1793 57.7495 13.0476C57.7578 12.9159 57.7313 12.7844 57.6725 12.6663L55.6725 8.66625C55.6103 8.54111 55.5144 8.43582 55.3956 8.36228C55.2768 8.28873 55.1397 8.24984 55 8.25C53.7402 8.25 52.532 8.75045 51.6412 9.64124C50.7504 10.532 50.25 11.7402 50.25 13C50.2533 15.8501 51.387 18.5824 53.4023 20.5977C55.4176 22.613 58.1499 23.7467 61 23.75C62.2598 23.75 63.468 23.2496 64.3588 22.3588C65.2496 21.468 65.75 20.2598 65.75 19C65.75 18.8606 65.7112 18.7239 65.6379 18.6054C65.5646 18.4868 65.4597 18.391 65.335 18.3288ZM61 22.25C58.5477 22.247 56.1966 21.2715 54.4625 19.5374C52.7285 17.8034 51.753 15.4523 51.75 13C51.7501 12.2156 52.0338 11.4577 52.5489 10.8662C53.064 10.2746 53.7756 9.88925 54.5525 9.78125L56.135 12.9462L54.8362 14.8938C54.768 14.9965 54.7261 15.1144 54.7144 15.2372C54.7026 15.3599 54.7213 15.4837 54.7687 15.5975C55.4584 17.2372 56.7628 18.5416 58.4025 19.2313C58.5163 19.2787 58.6401 19.2974 58.7628 19.2856C58.8856 19.2738 59.0035 19.232 59.1062 19.1637L61.0537 17.865L64.2188 19.4475C64.1107 20.2244 63.7254 20.936 63.1338 21.4511C62.5423 21.9662 61.7844 22.2499 61 22.25ZM58 3.25C55.7897 3.24954 53.6173 3.82366 51.6959 4.91604C49.7744 6.00843 48.1699 7.58155 47.0399 9.48107C45.9098 11.3806 45.2929 13.5413 45.2498 15.7511C45.2066 17.961 45.7387 20.1441 46.7937 22.0863L45.3412 26.445C45.2384 26.7533 45.2235 27.0842 45.2982 27.4006C45.3728 27.7169 45.5341 28.0062 45.7639 28.2361C45.9938 28.4659 46.2831 28.6272 46.5994 28.7018C46.9158 28.7765 47.2467 28.7616 47.555 28.6588L51.9137 27.2062C53.62 28.1322 55.5151 28.6563 57.4546 28.7385C59.3942 28.8208 61.3269 28.4591 63.1054 27.681C64.8839 26.903 66.4613 25.729 67.7172 24.2488C68.9732 22.7685 69.8745 21.021 70.3525 19.1395C70.8305 17.258 70.8726 15.2922 70.4755 13.3919C70.0784 11.4917 69.2526 9.70725 68.0611 8.17462C66.8697 6.64199 65.344 5.40167 63.6004 4.54822C61.8567 3.69478 59.9413 3.25075 58 3.25ZM58 27.25C56.0224 27.2505 54.0796 26.7296 52.3675 25.74C52.2534 25.6744 52.1242 25.6395 51.9925 25.6388C51.9118 25.6392 51.8317 25.6523 51.755 25.6775L47.0812 27.235C47.0372 27.2497 46.9899 27.2518 46.9447 27.2412C46.8995 27.2305 46.8582 27.2075 46.8254 27.1746C46.7925 27.1418 46.7695 27.1005 46.7588 27.0553C46.7482 27.0101 46.7503 26.9628 46.765 26.9188L48.3225 22.25C48.3562 22.1491 48.3681 22.0422 48.3573 21.9364C48.3465 21.8306 48.3133 21.7283 48.26 21.6362C47.0191 19.4926 46.5203 16.9994 46.841 14.5433C47.1617 12.0873 48.284 9.8057 50.0338 8.0526C51.7836 6.2995 54.063 5.17287 56.5184 4.84749C58.9739 4.52211 61.4681 5.01618 63.614 6.25304C65.76 7.4899 67.4378 9.40041 68.3872 11.6882C69.3365 13.9759 69.5043 16.513 68.8645 18.9059C68.2247 21.2987 66.8131 23.4136 64.8487 24.9223C62.8843 26.431 60.4769 27.2492 58 27.25Z" fill="#005250"/>
<path d="M110 4.25H90C89.5359 4.25 89.0908 4.43437 88.7626 4.76256C88.4344 5.09075 88.25 5.53587 88.25 6V24C88.25 24.4641 88.4344 24.9092 88.7626 25.2374C89.0908 25.5656 89.5359 25.75 90 25.75H92.25V30C92.25 30.1425 92.2906 30.2821 92.3671 30.4024C92.4436 30.5227 92.5527 30.6187 92.6818 30.6791C92.8109 30.7396 92.9545 30.762 93.0959 30.7438C93.2372 30.7256 93.3705 30.6675 93.48 30.5763L99.2025 25.8075C99.2475 25.7702 99.3041 25.7499 99.3625 25.75H104.638C105.049 25.7509 105.447 25.6071 105.763 25.3438L111.125 20.875C111.321 20.7103 111.479 20.5044 111.587 20.272C111.695 20.0396 111.751 19.7863 111.75 19.53V6C111.75 5.53587 111.566 5.09075 111.237 4.76256C110.909 4.43437 110.464 4.25 110 4.25ZM110.25 19.5312C110.25 19.568 110.242 19.6043 110.226 19.6375C110.211 19.6708 110.188 19.7002 110.16 19.7237L104.798 24.1925C104.753 24.2298 104.696 24.2501 104.638 24.25H99.3625C98.9514 24.2491 98.5531 24.3929 98.2375 24.6562L93.75 28.3988V25C93.75 24.8011 93.671 24.6103 93.5303 24.4697C93.3897 24.329 93.1989 24.25 93 24.25H90C89.9337 24.25 89.8701 24.2237 89.8232 24.1768C89.7763 24.1299 89.75 24.0663 89.75 24V6C89.75 5.9337 89.7763 5.87011 89.8232 5.82322C89.8701 5.77634 89.9337 5.75 90 5.75H110C110.066 5.75 110.13 5.77634 110.177 5.82322C110.224 5.87011 110.25 5.9337 110.25 6V19.5312ZM105.75 11V17C105.75 17.1989 105.671 17.3897 105.53 17.5303C105.39 17.671 105.199 17.75 105 17.75C104.801 17.75 104.61 17.671 104.47 17.5303C104.329 17.3897 104.25 17.1989 104.25 17V11C104.25 10.8011 104.329 10.6103 104.47 10.4697C104.61 10.329 104.801 10.25 105 10.25C105.199 10.25 105.39 10.329 105.53 10.4697C105.671 10.6103 105.75 10.8011 105.75 11ZM99.75 11V17C99.75 17.1989 99.671 17.3897 99.5303 17.5303C99.3897 17.671 99.1989 17.75 99 17.75C98.8011 17.75 98.6103 17.671 98.4697 17.5303C98.329 17.3897 98.25 17.1989 98.25 17V11C98.25 10.8011 98.329 10.6103 98.4697 10.4697C98.6103 10.329 98.8011 10.25 99 10.25C99.1989 10.25 99.3897 10.329 99.5303 10.4697C99.671 10.6103 99.75 10.8011 99.75 11Z" fill="#005250"/>
<path d="M12.75 17.5002C12.75 17.7475 12.6767 17.9891 12.5393 18.1947C12.402 18.4003 12.2068 18.5605 11.9783 18.6551C11.7499 18.7497 11.4986 18.7745 11.2561 18.7262C11.0137 18.678 10.7909 18.5589 10.6161 18.3841C10.4413 18.2093 10.3222 17.9866 10.274 17.7441C10.2258 17.5016 10.2505 17.2503 10.3451 17.0219C10.4398 16.7935 10.6 16.5983 10.8055 16.4609C11.0111 16.3236 11.2528 16.2502 11.5 16.2502C11.8315 16.2502 12.1495 16.3819 12.3839 16.6164C12.6183 16.8508 12.75 17.1687 12.75 17.5002ZM20.5 16.2502C20.2528 16.2502 20.0111 16.3236 19.8055 16.4609C19.6 16.5983 19.4398 16.7935 19.3451 17.0219C19.2505 17.2503 19.2258 17.5016 19.274 17.7441C19.3222 17.9866 19.4413 18.2093 19.6161 18.3841C19.7909 18.5589 20.0137 18.678 20.2561 18.7262C20.4986 18.7745 20.7499 18.7497 20.9783 18.6551C21.2068 18.5605 21.402 18.4003 21.5393 18.1947C21.6767 17.9891 21.75 17.7475 21.75 17.5002C21.75 17.1687 21.6183 16.8508 21.3839 16.6164C21.1495 16.3819 20.8315 16.2502 20.5 16.2502ZM29.705 23.8852L21.33 27.599C21.1025 27.6985 20.857 27.75 20.6087 27.7502C20.2486 27.7506 19.897 27.6409 19.6009 27.4358C19.3049 27.2307 19.0787 26.9401 18.9525 26.6027L17.875 23.679C17.2587 23.7252 16.635 23.7515 16 23.7515C15.365 23.7515 14.7425 23.7252 14.125 23.679L13.0462 26.6027C12.9202 26.9399 12.6941 27.2304 12.3983 27.4355C12.1025 27.6406 11.7512 27.7504 11.3912 27.7502C11.143 27.75 10.8974 27.6985 10.67 27.599L2.295 23.8852C1.9176 23.7187 1.61118 23.4242 1.42981 23.0536C1.24845 22.6831 1.2038 22.2605 1.30375 21.8602L5 7.31275C5.08473 6.98205 5.26388 6.68317 5.51558 6.45255C5.76729 6.22193 6.08067 6.06955 6.4175 6.014L10.925 5.274C11.3601 5.20321 11.8061 5.29701 12.1758 5.53712C12.5456 5.77723 12.8127 6.14643 12.925 6.57275L13.3862 8.389C15.1238 8.20399 16.8762 8.20399 18.6137 8.389L19.075 6.57275C19.1873 6.14643 19.4544 5.77723 19.8242 5.53712C20.1939 5.29701 20.6398 5.20321 21.075 5.274L25.5825 6.014C25.9193 6.06955 26.2327 6.22193 26.4844 6.45255C26.7361 6.68317 26.9153 6.98205 27 7.31275L30.6912 21.8602C30.7915 22.2599 30.7476 22.6821 30.5672 23.0525C30.3868 23.4229 30.0815 23.7178 29.705 23.8852ZM29.2425 22.229L25.5512 7.6815C25.5378 7.63304 25.5105 7.58953 25.4728 7.55625C25.4351 7.52297 25.3885 7.50134 25.3387 7.494L20.8312 6.75025C20.7666 6.73867 20.6999 6.75141 20.6441 6.78603C20.5882 6.82064 20.5471 6.87468 20.5287 6.93775L20.1087 8.59275C20.8142 8.7139 21.513 8.87077 22.2025 9.06275C22.3807 9.10852 22.5359 9.21821 22.6385 9.37094C22.7411 9.52368 22.784 9.7088 22.7589 9.89109C22.7339 10.0734 22.6428 10.2401 22.5029 10.3596C22.3629 10.479 22.1839 10.5429 22 10.539C21.9315 10.5392 21.8633 10.5295 21.7975 10.5102C19.9079 9.99751 17.9579 9.74188 16 9.75025C14.0421 9.74188 12.0921 9.99751 10.2025 10.5102C10.1068 10.5398 10.0062 10.5499 9.90651 10.54C9.80685 10.5301 9.71019 10.5003 9.62224 10.4523C9.53428 10.4044 9.45682 10.3394 9.3944 10.2611C9.33199 10.1827 9.2859 10.0927 9.25885 9.99628C9.2318 9.89985 9.22434 9.79897 9.2369 9.69961C9.24947 9.60025 9.28181 9.50441 9.33201 9.41775C9.38222 9.33108 9.44927 9.25536 9.52922 9.19503C9.60916 9.1347 9.70038 9.091 9.79749 9.0665C10.487 8.87452 11.1858 8.71765 11.8912 8.5965L11.4712 6.9415C11.4539 6.87758 11.4131 6.82249 11.3572 6.78709C11.3012 6.75169 11.2339 6.73855 11.1687 6.75025L6.66125 7.50025C6.61148 7.50759 6.56492 7.52922 6.5272 7.5625C6.48949 7.59578 6.46223 7.63929 6.44875 7.68775L2.7575 22.229C2.74456 22.286 2.75198 22.3456 2.77847 22.3977C2.80496 22.4498 2.84884 22.4909 2.9025 22.514L11.2775 26.2265C11.3122 26.2417 11.3496 26.2496 11.3875 26.2496C11.4254 26.2496 11.4628 26.2417 11.4975 26.2265C11.5299 26.2131 11.5593 26.1932 11.5838 26.168C11.6083 26.1429 11.6274 26.113 11.64 26.0802L12.5875 23.5115C11.6452 23.3803 10.7128 23.1866 9.79625 22.9315C9.69913 22.907 9.60791 22.8633 9.52797 22.803C9.44802 22.7426 9.38097 22.6669 9.33076 22.5802C9.28056 22.4936 9.24822 22.3977 9.23565 22.2984C9.22309 22.199 9.23055 22.0981 9.2576 22.0017C9.28465 21.9053 9.33074 21.8152 9.39315 21.7369C9.45557 21.6586 9.53303 21.5935 9.62099 21.5456C9.70894 21.4977 9.8056 21.4679 9.90526 21.458C10.0049 21.448 10.1056 21.4582 10.2012 21.4877C12.0911 22.0014 14.0416 22.2579 16 22.2502C17.9579 22.2586 19.9079 22.003 21.7975 21.4902C21.8932 21.4607 21.9938 21.4505 22.0935 21.4605C22.1931 21.4704 22.2898 21.5002 22.3778 21.5481C22.4657 21.5961 22.5432 21.6611 22.6056 21.7394C22.668 21.8177 22.7141 21.9078 22.7411 22.0042C22.7682 22.1006 22.7757 22.2015 22.7631 22.3009C22.7505 22.4002 22.7182 22.4961 22.668 22.5827C22.6178 22.6694 22.5507 22.7451 22.4708 22.8055C22.3908 22.8658 22.2996 22.9095 22.2025 22.934C21.286 23.1891 20.3535 23.3828 19.4112 23.514L20.3587 26.0827C20.3713 26.1155 20.3905 26.1454 20.415 26.1705C20.4395 26.1957 20.4688 26.2156 20.5012 26.229C20.5359 26.2442 20.5734 26.2521 20.6112 26.2521C20.6491 26.2521 20.6866 26.2442 20.7212 26.229L29.0962 22.5165C29.1506 22.4936 29.1952 22.4521 29.2219 22.3995C29.2487 22.3469 29.256 22.2865 29.2425 22.229Z" fill="#005250"/>
</svg>
