<svg width="337" height="425" viewBox="0 0 337 425" fill="none" xmlns="http://www.w3.org/2000/svg">
<path d="M8 71.7114V69.2114H9.25V67.9614H10.5V66.7114H13V65.4614H14.25V64.2114H10.5V65.4614H8V64.2114H9.25V62.9614H15.5V64.2114H16.75V66.7114H15.5V67.9614H14.25V69.2114H11.75V70.4614H16.75V71.7114H8ZM19.25 71.7114V70.4614H18V69.2114H20.5V70.4614H24.25V66.7114H18V62.9614H25.5V64.2114H20.5V65.4614H25.5V66.7114H26.75V70.4614H25.5V71.7114H19.25ZM30.5 64.2114H29.25V62.9614H31.75V65.4614H30.5V64.2114ZM36.75 62.9614V64.2114H35.5V62.9614H36.75ZM30.5 66.7114H28V64.2114H29.25V65.4614H30.5V66.7114ZM34.25 64.2114H35.5V65.4614H34.25V64.2114ZM33 65.4614H34.25V66.7114H33V65.4614ZM31.75 66.7114H33V67.9614H31.75V66.7114ZM30.5 67.9614H31.75V69.2114H30.5V67.9614ZM34.25 67.9614H36.75V70.4614H35.5V69.2114H34.25V67.9614ZM29.25 69.2114H30.5V70.4614H29.25V69.2114ZM34.25 70.4614H35.5V71.7114H33V69.2114H34.25V70.4614ZM28 70.4614H29.25V71.7114H28V70.4614Z" fill="#FE016A"/>
<path d="M23 386.711V384.211H18V381.711H19.25V380.461H20.5V379.211H21.75V377.961H25.5V382.961H26.75V384.211H25.5V386.711H23ZM20.5 382.961H23V380.461H21.75V381.711H20.5V382.961ZM30.5 379.211H29.25V377.961H31.75V380.461H30.5V379.211ZM36.75 377.961V379.211H35.5V377.961H36.75ZM30.5 381.711H28V379.211H29.25V380.461H30.5V381.711ZM34.25 379.211H35.5V380.461H34.25V379.211ZM33 380.461H34.25V381.711H33V380.461ZM31.75 381.711H33V382.961H31.75V381.711ZM30.5 382.961H31.75V384.211H30.5V382.961ZM34.25 382.961H36.75V385.461H35.5V384.211H34.25V382.961ZM29.25 384.211H30.5V385.461H29.25V384.211ZM34.25 385.461H35.5V386.711H33V384.211H34.25V385.461ZM28 385.461H29.25V386.711H28V385.461Z" fill="#1D1D1D"/>
<path d="M241.25 306.75V305.5H243.75V300.5H242.5V299.25H243.75V298H246.25V305.5H248.75V306.75H241.25ZM252.5 306.75V305.5H251.25V304.25H250V300.5H251.25V299.25H252.5V298H256.25V299.25H257.5V300.5H258.75V304.25H257.5V305.5H256.25V306.75H252.5ZM253.75 305.5H256.25V300.5H255V299.25H252.5V304.25H253.75V305.5ZM262.5 299.25H261.25V298H263.75V300.5H262.5V299.25ZM268.75 298V299.25H267.5V298H268.75ZM262.5 301.75H260V299.25H261.25V300.5H262.5V301.75ZM266.25 299.25H267.5V300.5H266.25V299.25ZM265 300.5H266.25V301.75H265V300.5ZM263.75 301.75H265V303H263.75V301.75ZM262.5 303H263.75V304.25H262.5V303ZM266.25 303H268.75V305.5H267.5V304.25H266.25V303ZM261.25 304.25H262.5V305.5H261.25V304.25ZM266.25 305.5H267.5V306.75H265V304.25H266.25V305.5ZM260 305.5H261.25V306.75H260V305.5Z" fill="#FE016A"/>
<path d="M240 285V278H246V279H247V282H246V283H242V285H240ZM242 282H245V279H242V282ZM248 285V278H255V279H250V281H254V282H250V284H255V285H248ZM256 285V278H258V279H259V280H260V281H261V278H263V285H261V283H260V282H259V281H258V285H256ZM265 285V284H264V283H266V284H269V282H265V281H264V279H265V278H270V279H271V280H269V279H266V281H270V282H271V284H270V285H265ZM273 285V284H272V279H273V278H278V279H279V284H278V285H273ZM274 284H277V279H274V284ZM288 285V278H295V279H290V281H294V282H290V284H295V285H288ZM296 285V278H298V279H299V280H300V279H301V278H303V285H301V281H300V283H299V281H298V285H296ZM313 285V284H312V283H314V284H317V282H313V281H312V279H313V278H318V279H319V280H317V279H314V281H318V282H319V284H318V285H313ZM320 285V278H327V279H322V281H326V282H322V284H327V285H320ZM328 285V278H334V279H335V282H333V283H334V284H335V285H332V284H331V283H330V285H328ZM330 282H332V281H333V279H330V282ZM240 293V286H246V287H247V290H246V291H242V293H240ZM242 290H245V287H242V290ZM248 293V286H254V287H255V290H253V291H254V292H255V293H252V292H251V291H250V293H248ZM250 290H252V289H253V287H250V290ZM257 293V292H256V287H257V286H262V287H263V292H262V293H257ZM258 292H261V287H258V292ZM264 293V286H271V287H266V289H270V290H266V293H264ZM273 293V292H275V287H273V286H279V287H277V292H279V293H273ZM281 293V292H280V291H282V292H285V290H281V289H280V287H281V286H286V287H287V288H285V287H282V289H286V290H287V292H286V293H281ZM289 293V292H288V291H290V292H293V290H289V289H288V287H289V286H294V287H295V288H293V287H290V289H294V290H295V292H294V293H289ZM297 293V292H299V287H297V286H303V287H301V292H303V293H297ZM305 293V292H304V287H305V286H310V287H311V292H310V293H305ZM306 292H309V287H306V292ZM312 293V286H314V287H315V288H316V289H317V286H319V293H317V291H316V290H315V289H314V293H312ZM320 293V288H321V287H322V286H325V287H326V288H327V293H325V291H322V293H320ZM322 290H325V288H324V287H323V288H322V290ZM329 293V286H331V292H335V293H329Z" fill="#FE016A"/>
<path d="M241.25 407.75V406.5H240V405.25H242.5V406.5H246.25V404H242.5V402.75H243.75V401.5H245V400.25H241.25V399H248.75V400.25H247.5V401.5H246.25V402.75H247.5V404H248.75V406.5H247.5V407.75H241.25ZM252.5 400.25H251.25V399H253.75V401.5H252.5V400.25ZM258.75 399V400.25H257.5V399H258.75ZM252.5 402.75H250V400.25H251.25V401.5H252.5V402.75ZM256.25 400.25H257.5V401.5H256.25V400.25ZM255 401.5H256.25V402.75H255V401.5ZM253.75 402.75H255V404H253.75V402.75ZM252.5 404H253.75V405.25H252.5V404ZM256.25 404H258.75V406.5H257.5V405.25H256.25V404ZM251.25 405.25H252.5V406.5H251.25V405.25ZM256.25 406.5H257.5V407.75H255V405.25H256.25V406.5ZM250 406.5H251.25V407.75H250V406.5Z" fill="#1D1D1D"/>
<path d="M241 386V385H240V384H242V385H245V379H247V385H246V386H241ZM253 380H252V379H253V380ZM255 383V386H253V385H250V386H248V383H249V382H250V381H251V380H252V381H253V382H254V383H255ZM253 383H252V382H251V383H250V384H253V383ZM265 386V385H264V384H266V385H269V383H265V382H264V380H265V379H270V380H271V381H269V380H266V382H270V383H271V385H270V386H265ZM273 386V385H272V380H273V379H278V380H279V385H278V386H273ZM274 385H277V380H274V385ZM281 386V385H280V379H282V385H285V379H287V385H286V386H281ZM240 394V387H246V388H247V391H246V392H242V394H240ZM242 391H245V388H242V391ZM248 394V387H254V388H255V391H253V392H254V393H255V394H252V393H251V392H250V394H248ZM250 391H252V390H253V388H250V391ZM257 394V393H256V388H257V387H262V388H263V393H262V394H257ZM258 393H261V388H258V393ZM264 394V387H271V388H266V390H270V391H266V394H264ZM273 394V393H275V388H273V387H279V388H277V393H279V394H273ZM281 394V393H280V392H282V393H285V391H281V390H280V388H281V387H286V388H287V389H285V388H282V390H286V391H287V393H286V394H281ZM289 394V393H288V392H290V393H293V391H289V390H288V388H289V387H294V388H295V389H293V388H290V390H294V391H295V393H294V394H289ZM297 394V393H299V388H297V387H303V388H301V393H303V394H297ZM305 394V393H304V388H305V387H310V388H311V393H310V394H305ZM306 393H309V388H306V393ZM312 394V387H314V388H315V389H316V390H317V387H319V394H317V392H316V391H315V390H314V394H312ZM320 394V389H321V388H322V387H325V388H326V389H327V394H325V392H322V394H320ZM322 391H325V389H324V388H323V389H322V391ZM329 394V387H331V393H335V394H329Z" fill="#1D1D1D"/>
<path d="M27 41.7114V39.2114H28.25V37.9614H29.5V36.7114H32V35.4614H33.25V34.2114H29.5V35.4614H27V34.2114H28.25V32.9614H34.5V34.2114H35.75V36.7114H34.5V37.9614H33.25V39.2114H30.75V40.4614H35.75V41.7114H27ZM39.5 41.7114V40.4614H38.25V39.2114H37V35.4614H38.25V34.2114H39.5V32.9614H43.25V34.2114H44.5V35.4614H45.75V39.2114H44.5V40.4614H43.25V41.7114H39.5ZM40.75 40.4614H43.25V35.4614H42V34.2114H39.5V39.2114H40.75V40.4614ZM48.25 41.7114V40.4614H50.75V35.4614H49.5V34.2114H50.75V32.9614H53.25V40.4614H55.75V41.7114H48.25ZM59.5 41.7114V37.9614H60.75V36.7114H62V35.4614H63.25V34.2114H59.5V35.4614H57V32.9614H65.75V35.4614H64.5V36.7114H63.25V37.9614H62V41.7114H59.5Z" fill="#404040"/>
<path d="M209 41.7114V39.2114H210.25V37.9614H211.5V36.7114H214V35.4614H215.25V34.2114H211.5V35.4614H209V34.2114H210.25V32.9614H216.5V34.2114H217.75V36.7114H216.5V37.9614H215.25V39.2114H212.75V40.4614H217.75V41.7114H209ZM221.5 41.7114V40.4614H220.25V39.2114H219V35.4614H220.25V34.2114H221.5V32.9614H225.25V34.2114H226.5V35.4614H227.75V39.2114H226.5V40.4614H225.25V41.7114H221.5ZM222.75 40.4614H225.25V35.4614H224V34.2114H221.5V39.2114H222.75V40.4614ZM229 41.7114V39.2114H230.25V37.9614H231.5V36.7114H234V35.4614H235.25V34.2114H231.5V35.4614H229V34.2114H230.25V32.9614H236.5V34.2114H237.75V36.7114H236.5V37.9614H235.25V39.2114H232.75V40.4614H237.75V41.7114H229ZM240.25 41.7114V40.4614H239V39.2114H241.5V40.4614H245.25V37.9614H241.5V36.7114H242.75V35.4614H244V34.2114H240.25V32.9614H247.75V34.2114H246.5V35.4614H245.25V36.7114H246.5V37.9614H247.75V40.4614H246.5V41.7114H240.25Z" fill="#404040"/>
<path opacity="0.8" d="M46 409V55" stroke="#404040" stroke-dasharray="2 2"/>
<path opacity="0.8" d="M228.623 409V55" stroke="#404040" stroke-dasharray="2 2"/>
<path d="M46.5688 65.2751L228.885 292.401" stroke="#FE016A" stroke-width="2"/>
<path d="M46.5688 65.47C46.6325 65.47 46.684 65.3828 46.684 65.2753C46.684 65.1677 46.6325 65.0806 46.5688 65.0806C46.5052 65.0806 46.4536 65.1677 46.4536 65.2753C46.4536 65.3828 46.5052 65.47 46.5688 65.47Z" fill="#4328E7" stroke="#404040"/>
<path d="M228.885 292.596C228.949 292.596 229 292.509 229 292.401C229 292.293 228.949 292.206 228.885 292.206C228.822 292.206 228.77 292.293 228.77 292.401C228.77 292.509 228.822 292.596 228.885 292.596Z" fill="#4328E7" stroke="#404040"/>
<path d="M46.5688 383.251L228.885 398.393" stroke="#1D1D1D" stroke-width="2"/>
<path d="M46.5688 383.446C46.6325 383.446 46.684 383.359 46.684 383.251C46.684 383.144 46.6325 383.057 46.5688 383.057C46.5052 383.057 46.4536 383.144 46.4536 383.251C46.4536 383.359 46.5052 383.446 46.5688 383.446Z" fill="#9654E5" stroke="#404040"/>
<path d="M228.885 398.588C228.949 398.588 229 398.501 229 398.393C229 398.286 228.949 398.198 228.885 398.198C228.822 398.198 228.77 398.286 228.77 398.393C228.77 398.501 228.822 398.588 228.885 398.588Z" fill="#9654E5" stroke="#404040"/>
</svg>
