<svg width="274" height="363" viewBox="0 0 274 363" fill="none" xmlns="http://www.w3.org/2000/svg">
<path opacity="0.9" d="M0 346.372H131.17V96.5225H0V346.372Z" fill="#00EAE5"/>
<path opacity="0.9" d="M71.1699 346.372H202.34V88.7952H71.1699V346.372Z" fill="#03FF59"/>
<path opacity="0.9" d="M142.34 346.372H273.51V17.9615H142.34V346.372Z" fill="#FE016A"/>
<path d="M0 361.711V359.211H1.25V357.961H2.5V356.711H5V355.461H6.25V354.211H2.5V355.461H0V354.211H1.25V352.961H7.5V354.211H8.75V356.711H7.5V357.961H6.25V359.211H3.75V360.461H8.75V361.711H0ZM12.5 361.711V360.461H11.25V359.211H10V355.461H11.25V354.211H12.5V352.961H16.25V354.211H17.5V355.461H18.75V359.211H17.5V360.461H16.25V361.711H12.5ZM13.75 360.461H16.25V355.461H15V354.211H12.5V359.211H13.75V360.461ZM20 361.711V359.211H21.25V357.961H22.5V356.711H25V355.461H26.25V354.211H22.5V355.461H20V354.211H21.25V352.961H27.5V354.211H28.75V356.711H27.5V357.961H26.25V359.211H23.75V360.461H28.75V361.711H20ZM32.5 361.711V360.461H31.25V359.211H30V355.461H31.25V354.211H32.5V352.961H36.25V354.211H37.5V355.461H38.75V359.211H37.5V360.461H36.25V361.711H32.5ZM33.75 360.461H36.25V355.461H35V354.211H32.5V359.211H33.75V360.461Z" fill="#00B0AC"/>
<path d="M1.25 92.7115V91.4615H0V90.2115H2.5V91.4615H6.25V88.9615H2.5V87.7115H3.75V86.4615H5V85.2115H1.25V83.9615H8.75V85.2115H7.5V86.4615H6.25V87.7115H7.5V88.9615H8.75V91.4615H7.5V92.7115H1.25ZM11.25 93.9615V92.7115H12.5V90.2115H15V92.7115H13.75V93.9615H11.25ZM21.25 92.7115V91.4615H20V88.9615H21.25V87.7115H20V85.2115H21.25V83.9615H26.25V85.2115H27.5V87.7115H26.25V88.9615H28.75V91.4615H27.5V92.7115H21.25ZM23.75 87.7115H26.25V85.2115H22.5V86.4615H23.75V87.7115ZM21.25 91.4615H26.25V90.2115H23.75V88.9615H21.25V91.4615ZM30 92.7115V83.9615H32.5V85.2115H33.75V86.4615H35V85.2115H36.25V83.9615H38.75V92.7115H36.25V87.7115H35V90.2115H33.75V87.7115H32.5V92.7115H30Z" fill="#00B0AC"/>
<path d="M71 361.711V359.211H72.25V357.961H73.5V356.711H76V355.461H77.25V354.211H73.5V355.461H71V354.211H72.25V352.961H78.5V354.211H79.75V356.711H78.5V357.961H77.25V359.211H74.75V360.461H79.75V361.711H71ZM83.5 361.711V360.461H82.25V359.211H81V355.461H82.25V354.211H83.5V352.961H87.25V354.211H88.5V355.461H89.75V359.211H88.5V360.461H87.25V361.711H83.5ZM84.75 360.461H87.25V355.461H86V354.211H83.5V359.211H84.75V360.461ZM91 361.711V359.211H92.25V357.961H93.5V356.711H96V355.461H97.25V354.211H93.5V355.461H91V354.211H92.25V352.961H98.5V354.211H99.75V356.711H98.5V357.961H97.25V359.211H94.75V360.461H99.75V361.711H91ZM102.25 361.711V360.461H104.75V355.461H103.5V354.211H104.75V352.961H107.25V360.461H109.75V361.711H102.25Z" fill="#02BF43"/>
<path d="M76 82.7115V80.2115H71V77.7115H72.25V76.4615H73.5V75.2115H74.75V73.9615H78.5V78.9615H79.75V80.2115H78.5V82.7115H76ZM73.5 78.9615H76V76.4615H74.75V77.7115H73.5V78.9615ZM81 82.7115V73.9615H83.5V75.2115H84.75V76.4615H86V75.2115H87.25V73.9615H89.75V82.7115H87.25V77.7115H86V80.2115H84.75V77.7115H83.5V82.7115H81Z" fill="#02BF43"/>
<path d="M142 361.711V359.211H143.25V357.961H144.5V356.711H147V355.461H148.25V354.211H144.5V355.461H142V354.211H143.25V352.961H149.5V354.211H150.75V356.711H149.5V357.961H148.25V359.211H145.75V360.461H150.75V361.711H142ZM154.5 361.711V360.461H153.25V359.211H152V355.461H153.25V354.211H154.5V352.961H158.25V354.211H159.5V355.461H160.75V359.211H159.5V360.461H158.25V361.711H154.5ZM155.75 360.461H158.25V355.461H157V354.211H154.5V359.211H155.75V360.461ZM162 361.711V359.211H163.25V357.961H164.5V356.711H167V355.461H168.25V354.211H164.5V355.461H162V354.211H163.25V352.961H169.5V354.211H170.75V356.711H169.5V357.961H168.25V359.211H165.75V360.461H170.75V361.711H162ZM172 361.711V359.211H173.25V357.961H174.5V356.711H177V355.461H178.25V354.211H174.5V355.461H172V354.211H173.25V352.961H179.5V354.211H180.75V356.711H179.5V357.961H178.25V359.211H175.75V360.461H180.75V361.711H172Z" fill="#BF0150"/>
<path d="M143.25 9.71149V8.46149H142V7.21149H144.5V8.46149H148.25V4.71149H142V0.961487H149.5V2.21149H144.5V3.46149H149.5V4.71149H150.75V8.46149H149.5V9.71149H143.25ZM153.25 10.9615V9.71149H154.5V7.21149H157V9.71149H155.75V10.9615H153.25ZM163.25 9.71149V8.46149H165.75V3.46149H164.5V2.21149H165.75V0.961487H168.25V8.46149H170.75V9.71149H163.25ZM172 9.71149V0.961487H174.5V2.21149H175.75V3.46149H177V2.21149H178.25V0.961487H180.75V9.71149H178.25V4.71149H177V7.21149H175.75V4.71149H174.5V9.71149H172Z" fill="#BF0150"/>
</svg>
