<svg width="337" height="419" viewBox="0 0 337 419" fill="none" xmlns="http://www.w3.org/2000/svg">
<g opacity="0.8">
<g style="mix-blend-mode:multiply">
<path d="M9 233.938C9 249.361 12.0378 264.634 17.94 278.883C23.8421 293.132 32.4931 306.079 43.3988 316.984C54.3046 327.89 67.2516 336.541 81.5007 342.443C95.7498 348.346 111.022 351.383 126.445 351.383C141.868 351.383 157.14 348.346 171.389 342.443C185.638 336.541 198.585 327.89 209.491 316.984C220.397 306.079 229.048 293.132 234.95 278.883C240.852 264.634 243.89 249.361 243.89 233.938C243.89 218.515 240.852 203.243 234.95 188.994C229.048 174.745 220.397 161.798 209.491 150.892C198.585 139.986 185.638 131.336 171.389 125.433C157.14 119.531 141.868 116.493 126.445 116.493C111.022 116.493 95.7498 119.531 81.5007 125.433C67.2516 131.336 54.3046 139.986 43.3988 150.892C32.4931 161.798 23.8421 174.745 17.94 188.994C12.0378 203.243 9 218.515 9 233.938Z" fill="url(#paint0_radial_883_23301)"/>
</g>
</g>
<g style="mix-blend-mode:multiply" opacity="0.8">
<path d="M83.3706 172.98C83.3706 202.149 94.9578 230.123 115.583 250.748C136.208 271.374 164.182 282.961 193.351 282.961C222.52 282.961 250.493 271.374 271.119 250.748C291.744 230.123 303.331 202.149 303.331 172.98C303.331 143.812 291.744 115.838 271.119 95.2125C250.493 74.5872 222.52 63 193.351 63C164.182 63 136.208 74.5872 115.583 95.2125C94.9578 115.838 83.3706 143.812 83.3706 172.98Z" fill="url(#paint1_radial_883_23301)"/>
</g>
<g style="mix-blend-mode:multiply" opacity="0.8">
<path d="M94.4717 233.938C94.4717 249.338 97.5048 264.586 103.398 278.813C109.291 293.041 117.929 305.968 128.818 316.857C139.707 327.746 152.634 336.383 166.861 342.276C181.088 348.169 196.336 351.203 211.736 351.203C227.135 351.203 242.384 348.169 256.611 342.276C270.838 336.383 283.765 327.746 294.654 316.857C305.543 305.968 314.181 293.041 320.074 278.813C325.967 264.586 329 249.338 329 233.938C329 218.539 325.967 203.291 320.074 189.063C314.181 174.836 305.543 161.909 294.654 151.02C283.765 140.131 270.838 131.494 256.611 125.601C242.384 119.707 227.135 116.674 211.736 116.674C196.336 116.674 181.088 119.707 166.861 125.601C152.634 131.494 139.707 140.131 128.818 151.02C117.929 161.909 109.291 174.836 103.398 189.063C97.5048 203.291 94.4717 218.539 94.4717 233.938Z" fill="url(#paint2_radial_883_23301)"/>
</g>
<path d="M153.875 216.125V214.25H157.625V206.75H155.75V204.875H157.625V203H161.375V214.25H165.125V216.125H153.875ZM167 216.125V212.375H168.875V210.5H170.75V208.625H174.5V206.75H176.375V204.875H170.75V206.75H167V204.875H168.875V203H178.25V204.875H180.125V208.625H178.25V210.5H176.375V212.375H172.625V214.25H180.125V216.125H167ZM185.75 204.875H183.875V203H187.625V206.75H185.75V204.875ZM195.125 203V204.875H193.25V203H195.125ZM185.75 208.625H182V204.875H183.875V206.75H185.75V208.625ZM191.375 204.875H193.25V206.75H191.375V204.875ZM189.5 206.75H191.375V208.625H189.5V206.75ZM187.625 208.625H189.5V210.5H187.625V208.625ZM185.75 210.5H187.625V212.375H185.75V210.5ZM191.375 210.5H195.125V214.25H193.25V212.375H191.375V210.5ZM183.875 212.375H185.75V214.25H183.875V212.375ZM191.375 214.25H193.25V216.125H189.5V212.375H191.375V214.25ZM182 214.25H183.875V216.125H182V214.25Z" fill="#404040"/>
<path d="M247 184.5V180H248.5V178.5H250V177H251.5V175.5H247V177H244V174H254.5V177H253V178.5H251.5V180H250V184.5H247ZM259 175.5H257.5V174H260.5V177H259V175.5ZM266.5 174V175.5H265V174H266.5ZM259 178.5H256V175.5H257.5V177H259V178.5ZM263.5 175.5H265V177H263.5V175.5ZM262 177H263.5V178.5H262V177ZM260.5 178.5H262V180H260.5V178.5ZM259 180H260.5V181.5H259V180ZM263.5 180H266.5V183H265V181.5H263.5V180ZM257.5 181.5H259V183H257.5V181.5ZM263.5 183H265V184.5H262V181.5H263.5V183ZM256 183H257.5V184.5H256V183Z" fill="#404040"/>
<path d="M39.5 253.5V252H42.5V246H41V244.5H42.5V243H45.5V252H48.5V253.5H39.5ZM51.5 253.5V252H54.5V246H53V244.5H54.5V243H57.5V252H60.5V253.5H51.5ZM65 244.5H63.5V243H66.5V246H65V244.5ZM72.5 243V244.5H71V243H72.5ZM65 247.5H62V244.5H63.5V246H65V247.5ZM69.5 244.5H71V246H69.5V244.5ZM68 246H69.5V247.5H68V246ZM66.5 247.5H68V249H66.5V247.5ZM65 249H66.5V250.5H65V249ZM69.5 249H72.5V252H71V250.5H69.5V249ZM63.5 250.5H65V252H63.5V250.5ZM69.5 252H71V253.5H68V250.5H69.5V252ZM62 252H63.5V253.5H62V252Z" fill="#404040"/>
<path d="M179.5 96.5V95H178V89H179.5V87.5H181V86H187V87.5H182.5V89H181V90.5H187V92H188.5V95H187V96.5H179.5ZM181 95H185.5V92H181V95ZM193 87.5H191.5V86H194.5V89H193V87.5ZM200.5 86V87.5H199V86H200.5ZM193 90.5H190V87.5H191.5V89H193V90.5ZM197.5 87.5H199V89H197.5V87.5ZM196 89H197.5V90.5H196V89ZM194.5 90.5H196V92H194.5V90.5ZM193 92H194.5V93.5H193V92ZM197.5 92H200.5V95H199V93.5H197.5V92ZM191.5 93.5H193V95H191.5V93.5ZM197.5 95H199V96.5H196V93.5H197.5V95ZM190 95H191.5V96.5H190V95Z" fill="#404040"/>
<path d="M265 296.5V292H266.5V290.5H268V289H269.5V287.5H265V289H262V286H272.5V289H271V290.5H269.5V292H268V296.5H265ZM277 287.5H275.5V286H278.5V289H277V287.5ZM284.5 286V287.5H283V286H284.5ZM277 290.5H274V287.5H275.5V289H277V290.5ZM281.5 287.5H283V289H281.5V287.5ZM280 289H281.5V290.5H280V289ZM278.5 290.5H280V292H278.5V290.5ZM277 292H278.5V293.5H277V292ZM281.5 292H284.5V295H283V293.5H281.5V292ZM275.5 293.5H277V295H275.5V293.5ZM281.5 295H283V296.5H280V293.5H281.5V295ZM274 295H275.5V296.5H274V295Z" fill="#404040"/>
<path d="M101.5 144.5V143H100V141.5H103V143H107.5V140H103V138.5H104.5V137H106V135.5H101.5V134H110.5V135.5H109V137H107.5V138.5H109V140H110.5V143H109V144.5H101.5ZM115 135.5H113.5V134H116.5V137H115V135.5ZM122.5 134V135.5H121V134H122.5ZM115 138.5H112V135.5H113.5V137H115V138.5ZM119.5 135.5H121V137H119.5V135.5ZM118 137H119.5V138.5H118V137ZM116.5 138.5H118V140H116.5V138.5ZM115 140H116.5V141.5H115V140ZM119.5 140H122.5V143H121V141.5H119.5V140ZM113.5 141.5H115V143H113.5V141.5ZM119.5 143H121V144.5H118V141.5H119.5V143ZM112 143H113.5V144.5H112V143Z" fill="#404040"/>
<path d="M157.5 311.5V310H156V308.5H159V310H163.5V305.5H156V301H165V302.5H159V304H165V305.5H166.5V310H165V311.5H157.5ZM171 302.5H169.5V301H172.5V304H171V302.5ZM178.5 301V302.5H177V301H178.5ZM171 305.5H168V302.5H169.5V304H171V305.5ZM175.5 302.5H177V304H175.5V302.5ZM174 304H175.5V305.5H174V304ZM172.5 305.5H174V307H172.5V305.5ZM171 307H172.5V308.5H171V307ZM175.5 307H178.5V310H177V308.5H175.5V307ZM169.5 308.5H171V310H169.5V308.5ZM175.5 310H177V311.5H174V308.5H175.5V310ZM168 310H169.5V311.5H168V310Z" fill="#404040"/>
<path d="M170.5 16L172.332 10.4H173.228L175.06 16H174.036L172.916 12.24C172.903 12.1973 172.887 12.14 172.868 12.068C172.852 11.996 172.836 11.92 172.82 11.84C172.804 11.76 172.791 11.6853 172.78 11.616C172.767 11.6853 172.752 11.76 172.736 11.84C172.72 11.92 172.704 11.996 172.688 12.068C172.672 12.14 172.658 12.1973 172.644 12.24L171.524 16H170.5ZM171.684 14.768L171.94 13.904H173.62L173.876 14.768H171.684ZM177.806 16.088C177.401 16.088 177.057 16.0053 176.774 15.84C176.491 15.672 176.263 15.4493 176.09 15.172C175.917 14.892 175.79 14.5813 175.71 14.24C175.63 13.896 175.59 13.5493 175.59 13.2C175.59 12.864 175.63 12.5267 175.71 12.188C175.793 11.8467 175.922 11.5347 176.098 11.252C176.274 10.9693 176.502 10.7427 176.782 10.572C177.065 10.3987 177.406 10.312 177.806 10.312C178.121 10.312 178.393 10.3693 178.622 10.484C178.854 10.596 179.046 10.7413 179.198 10.92C179.35 11.0987 179.465 11.2853 179.542 11.48L178.694 11.888C178.587 11.68 178.466 11.516 178.33 11.396C178.197 11.276 178.022 11.216 177.806 11.216C177.579 11.216 177.387 11.276 177.23 11.396C177.073 11.516 176.945 11.6747 176.846 11.872C176.75 12.0693 176.681 12.284 176.638 12.516C176.595 12.748 176.574 12.976 176.574 13.2C176.574 13.4373 176.598 13.6733 176.646 13.908C176.697 14.1427 176.771 14.356 176.87 14.548C176.971 14.74 177.099 14.8947 177.254 15.012C177.411 15.1267 177.595 15.184 177.806 15.184C178.022 15.184 178.201 15.1173 178.342 14.984C178.483 14.848 178.603 14.6747 178.702 14.464L179.566 14.792C179.465 15.04 179.334 15.2627 179.174 15.46C179.017 15.6547 178.825 15.808 178.598 15.92C178.371 16.032 178.107 16.088 177.806 16.088ZM182.64 16.096C182.264 16.096 181.941 16.0173 181.672 15.86C181.405 15.7 181.186 15.484 181.016 15.212C180.845 14.94 180.72 14.6307 180.64 14.284C180.56 13.9373 180.52 13.576 180.52 13.2C180.52 12.824 180.56 12.4627 180.64 12.116C180.72 11.7693 180.845 11.46 181.016 11.188C181.186 10.916 181.405 10.7013 181.672 10.544C181.941 10.384 182.264 10.304 182.64 10.304C183.016 10.304 183.338 10.384 183.608 10.544C183.877 10.7013 184.097 10.916 184.268 11.188C184.438 11.46 184.564 11.7693 184.644 12.116C184.726 12.4627 184.768 12.824 184.768 13.2C184.768 13.576 184.726 13.9373 184.644 14.284C184.564 14.6307 184.438 14.94 184.268 15.212C184.097 15.484 183.877 15.7 183.608 15.86C183.338 16.0173 183.016 16.096 182.64 16.096ZM182.64 15.192C182.837 15.192 183.008 15.136 183.152 15.024C183.296 14.912 183.413 14.7613 183.504 14.572C183.597 14.3827 183.665 14.1693 183.708 13.932C183.753 13.6947 183.776 13.4507 183.776 13.2C183.776 12.9333 183.753 12.6813 183.708 12.444C183.665 12.204 183.598 11.992 183.508 11.808C183.417 11.6213 183.3 11.4747 183.156 11.368C183.012 11.2613 182.84 11.208 182.64 11.208C182.44 11.208 182.268 11.264 182.124 11.376C181.98 11.4853 181.862 11.6347 181.772 11.824C181.681 12.0133 181.613 12.2267 181.568 12.464C181.525 12.7013 181.504 12.9467 181.504 13.2C181.504 13.464 181.525 13.716 181.568 13.956C181.613 14.1933 181.681 14.4053 181.772 14.592C181.862 14.7787 181.98 14.9253 182.124 15.032C182.268 15.1387 182.44 15.192 182.64 15.192ZM185.713 16V10.4H186.641L187.449 13.472C187.471 13.552 187.496 13.6467 187.525 13.756C187.555 13.8627 187.575 13.952 187.585 14.024C187.599 13.952 187.619 13.8627 187.645 13.756C187.675 13.6467 187.7 13.552 187.721 13.472L188.553 10.4H189.425V16H188.601V12.96C188.601 12.8987 188.601 12.82 188.601 12.724C188.604 12.628 188.609 12.552 188.617 12.496C188.593 12.5627 188.567 12.6373 188.537 12.72C188.511 12.8027 188.487 12.8827 188.465 12.96L187.609 16H187.529L186.673 12.96C186.652 12.8827 186.627 12.8027 186.597 12.72C186.571 12.6347 186.545 12.56 186.521 12.496C186.527 12.552 186.531 12.628 186.533 12.724C186.536 12.82 186.537 12.8987 186.537 12.96V16H185.713ZM190.643 16V10.4H192.619C193.083 10.4 193.451 10.4853 193.723 10.656C193.998 10.8267 194.194 11.0453 194.311 11.312C194.431 11.576 194.491 11.8507 194.491 12.136C194.491 12.336 194.456 12.5387 194.387 12.744C194.318 12.9467 194.208 13.1333 194.059 13.304C193.91 13.4747 193.716 13.612 193.479 13.716C193.242 13.82 192.955 13.872 192.619 13.872H191.595V16H190.643ZM191.595 12.976H192.667C192.875 12.976 193.042 12.9347 193.167 12.852C193.292 12.7667 193.383 12.66 193.439 12.532C193.495 12.4013 193.523 12.2693 193.523 12.136C193.523 12.016 193.498 11.892 193.447 11.764C193.396 11.6333 193.308 11.5227 193.183 11.432C193.06 11.3413 192.888 11.296 192.667 11.296H191.595V12.976ZM195.149 16L196.981 10.4H197.877L199.709 16H198.685L197.565 12.24C197.552 12.1973 197.536 12.14 197.517 12.068C197.501 11.996 197.485 11.92 197.469 11.84C197.453 11.76 197.44 11.6853 197.429 11.616C197.416 11.6853 197.401 11.76 197.385 11.84C197.369 11.92 197.353 11.996 197.337 12.068C197.321 12.14 197.306 12.1973 197.293 12.24L196.173 16H195.149ZM196.333 14.768L196.589 13.904H198.269L198.525 14.768H196.333ZM200.503 16V10.4H201.407L203.151 13.856C203.175 13.8987 203.208 13.96 203.251 14.04C203.293 14.12 203.327 14.1867 203.351 14.24C203.348 14.1707 203.344 14.1013 203.339 14.032C203.336 13.9627 203.335 13.904 203.335 13.856V10.4H204.215V16H203.351L201.575 12.528C201.551 12.4827 201.517 12.42 201.475 12.34C201.432 12.26 201.396 12.1947 201.367 12.144C201.38 12.2027 201.387 12.268 201.387 12.34C201.389 12.412 201.391 12.4747 201.391 12.528V16H200.503ZM205.432 16V10.4H206.384V12.664H208.192V10.4H209.144V16H208.192V13.56H206.384V16H205.432ZM209.938 16L211.77 10.4H212.666L214.498 16H213.474L212.354 12.24C212.341 12.1973 212.325 12.14 212.306 12.068C212.29 11.996 212.274 11.92 212.258 11.84C212.242 11.76 212.229 11.6853 212.218 11.616C212.205 11.6853 212.19 11.76 212.174 11.84C212.158 11.92 212.142 11.996 212.126 12.068C212.11 12.14 212.095 12.1973 212.082 12.24L210.962 16H209.938ZM211.122 14.768L211.378 13.904H213.058L213.314 14.768H211.122ZM167.947 26.088C167.541 26.088 167.197 26.0053 166.915 25.84C166.632 25.672 166.404 25.4493 166.231 25.172C166.057 24.892 165.931 24.5813 165.851 24.24C165.771 23.896 165.731 23.5493 165.731 23.2C165.731 22.864 165.771 22.5267 165.851 22.188C165.933 21.8467 166.063 21.5347 166.239 21.252C166.415 20.9693 166.643 20.7427 166.923 20.572C167.205 20.3987 167.547 20.312 167.947 20.312C168.261 20.312 168.533 20.3693 168.763 20.484C168.995 20.596 169.187 20.7413 169.339 20.92C169.491 21.0987 169.605 21.2853 169.683 21.48L168.835 21.888C168.728 21.68 168.607 21.516 168.471 21.396C168.337 21.276 168.163 21.216 167.947 21.216C167.72 21.216 167.528 21.276 167.371 21.396C167.213 21.516 167.085 21.6747 166.987 21.872C166.891 22.0693 166.821 22.284 166.779 22.516C166.736 22.748 166.715 22.976 166.715 23.2C166.715 23.4373 166.739 23.6733 166.787 23.908C166.837 24.1427 166.912 24.356 167.011 24.548C167.112 24.74 167.24 24.8947 167.395 25.012C167.552 25.1267 167.736 25.184 167.947 25.184C168.163 25.184 168.341 25.1173 168.483 24.984C168.624 24.848 168.744 24.6747 168.843 24.464L169.707 24.792C169.605 25.04 169.475 25.2627 169.315 25.46C169.157 25.6547 168.965 25.808 168.739 25.92C168.512 26.032 168.248 26.088 167.947 26.088ZM170.5 26L172.332 20.4H173.228L175.06 26H174.036L172.916 22.24C172.903 22.1973 172.887 22.14 172.868 22.068C172.852 21.996 172.836 21.92 172.82 21.84C172.804 21.76 172.791 21.6853 172.78 21.616C172.767 21.6853 172.752 21.76 172.736 21.84C172.72 21.92 172.704 21.996 172.688 22.068C172.672 22.14 172.658 22.1973 172.644 22.24L171.524 26H170.5ZM171.684 24.768L171.94 23.904H173.62L173.876 24.768H171.684ZM175.854 26V20.4H176.782L177.59 23.472C177.611 23.552 177.637 23.6467 177.666 23.756C177.695 23.8627 177.715 23.952 177.726 24.024C177.739 23.952 177.759 23.8627 177.786 23.756C177.815 23.6467 177.841 23.552 177.862 23.472L178.694 20.4H179.566V26H178.742V22.96C178.742 22.8987 178.742 22.82 178.742 22.724C178.745 22.628 178.75 22.552 178.758 22.496C178.734 22.5627 178.707 22.6373 178.678 22.72C178.651 22.8027 178.627 22.8827 178.606 22.96L177.75 26H177.67L176.814 22.96C176.793 22.8827 176.767 22.8027 176.738 22.72C176.711 22.6347 176.686 22.56 176.662 22.496C176.667 22.552 176.671 22.628 176.674 22.724C176.677 22.82 176.678 22.8987 176.678 22.96V26H175.854ZM180.784 26V20.4H182.76C183.224 20.4 183.592 20.4853 183.864 20.656C184.138 20.8267 184.334 21.0453 184.452 21.312C184.572 21.576 184.632 21.8507 184.632 22.136C184.632 22.336 184.597 22.5387 184.528 22.744C184.458 22.9467 184.349 23.1333 184.2 23.304C184.05 23.4747 183.857 23.612 183.62 23.716C183.382 23.82 183.096 23.872 182.76 23.872H181.736V26H180.784ZM181.736 22.976H182.808C183.016 22.976 183.182 22.9347 183.308 22.852C183.433 22.7667 183.524 22.66 183.58 22.532C183.636 22.4013 183.664 22.2693 183.664 22.136C183.664 22.016 183.638 21.892 183.588 21.764C183.537 21.6333 183.449 21.5227 183.324 21.432C183.201 21.3413 183.029 21.296 182.808 21.296H181.736V22.976ZM185.713 26V20.4H189.305V21.304H186.665V22.656H188.385V23.56H186.665V25.096H189.473V26H185.713ZM192.499 26.096C192.123 26.096 191.8 26.0173 191.531 25.86C191.264 25.7 191.046 25.484 190.875 25.212C190.704 24.94 190.579 24.6307 190.499 24.284C190.419 23.9373 190.379 23.576 190.379 23.2C190.379 22.824 190.419 22.4627 190.499 22.116C190.579 21.7693 190.704 21.46 190.875 21.188C191.046 20.916 191.264 20.7013 191.531 20.544C191.8 20.384 192.123 20.304 192.499 20.304C192.875 20.304 193.198 20.384 193.467 20.544C193.736 20.7013 193.956 20.916 194.127 21.188C194.298 21.46 194.423 21.7693 194.503 22.116C194.586 22.4627 194.627 22.824 194.627 23.2C194.627 23.576 194.586 23.9373 194.503 24.284C194.423 24.6307 194.298 24.94 194.127 25.212C193.956 25.484 193.736 25.7 193.467 25.86C193.198 26.0173 192.875 26.096 192.499 26.096ZM192.499 25.192C192.696 25.192 192.867 25.136 193.011 25.024C193.155 24.912 193.272 24.7613 193.363 24.572C193.456 24.3827 193.524 24.1693 193.567 23.932C193.612 23.6947 193.635 23.4507 193.635 23.2C193.635 22.9333 193.612 22.6813 193.567 22.444C193.524 22.204 193.458 21.992 193.367 21.808C193.276 21.6213 193.159 21.4747 193.015 21.368C192.871 21.2613 192.699 21.208 192.499 21.208C192.299 21.208 192.127 21.264 191.983 21.376C191.839 21.4853 191.722 21.6347 191.631 21.824C191.54 22.0133 191.472 22.2267 191.427 22.464C191.384 22.7013 191.363 22.9467 191.363 23.2C191.363 23.464 191.384 23.716 191.427 23.956C191.472 24.1933 191.54 24.4053 191.631 24.592C191.722 24.7787 191.839 24.9253 191.983 25.032C192.127 25.1387 192.299 25.192 192.499 25.192ZM195.573 26V20.4H196.477L198.221 23.856C198.245 23.8987 198.278 23.96 198.321 24.04C198.364 24.12 198.397 24.1867 198.421 24.24C198.418 24.1707 198.414 24.1013 198.409 24.032C198.406 23.9627 198.405 23.904 198.405 23.856V20.4H199.285V26H198.421L196.645 22.528C196.621 22.4827 196.588 22.42 196.545 22.34C196.502 22.26 196.466 22.1947 196.437 22.144C196.45 22.2027 196.457 22.268 196.457 22.34C196.46 22.412 196.461 22.4747 196.461 22.528V26H195.573ZM200.079 26L201.911 20.4H202.807L204.639 26H203.615L202.495 22.24C202.481 22.1973 202.465 22.14 202.447 22.068C202.431 21.996 202.415 21.92 202.399 21.84C202.383 21.76 202.369 21.6853 202.359 21.616C202.345 21.6853 202.331 21.76 202.315 21.84C202.299 21.92 202.283 21.996 202.267 22.068C202.251 22.14 202.236 22.1973 202.223 22.24L201.103 26H200.079ZM201.263 24.768L201.519 23.904H203.199L203.455 24.768H201.263ZM206.808 26V21.312H205.184V20.4H209.392V21.312H207.76V26H206.808ZM212.218 26.096C211.842 26.096 211.519 26.0173 211.25 25.86C210.983 25.7 210.765 25.484 210.594 25.212C210.423 24.94 210.298 24.6307 210.218 24.284C210.138 23.9373 210.098 23.576 210.098 23.2C210.098 22.824 210.138 22.4627 210.218 22.116C210.298 21.7693 210.423 21.46 210.594 21.188C210.765 20.916 210.983 20.7013 211.25 20.544C211.519 20.384 211.842 20.304 212.218 20.304C212.594 20.304 212.917 20.384 213.186 20.544C213.455 20.7013 213.675 20.916 213.846 21.188C214.017 21.46 214.142 21.7693 214.222 22.116C214.305 22.4627 214.346 22.824 214.346 23.2C214.346 23.576 214.305 23.9373 214.222 24.284C214.142 24.6307 214.017 24.94 213.846 25.212C213.675 25.484 213.455 25.7 213.186 25.86C212.917 26.0173 212.594 26.096 212.218 26.096ZM212.218 25.192C212.415 25.192 212.586 25.136 212.73 25.024C212.874 24.912 212.991 24.7613 213.082 24.572C213.175 24.3827 213.243 24.1693 213.286 23.932C213.331 23.6947 213.354 23.4507 213.354 23.2C213.354 22.9333 213.331 22.6813 213.286 22.444C213.243 22.204 213.177 21.992 213.086 21.808C212.995 21.6213 212.878 21.4747 212.734 21.368C212.59 21.2613 212.418 21.208 212.218 21.208C212.018 21.208 211.846 21.264 211.702 21.376C211.558 21.4853 211.441 21.6347 211.35 21.824C211.259 22.0133 211.191 22.2267 211.146 22.464C211.103 22.7013 211.082 22.9467 211.082 23.2C211.082 23.464 211.103 23.716 211.146 23.956C211.191 24.1933 211.259 24.4053 211.35 24.592C211.441 24.7787 211.558 24.9253 211.702 25.032C211.846 25.1387 212.018 25.192 212.218 25.192ZM217.212 26.096C216.908 26.096 216.622 26.0373 216.356 25.92C216.092 25.8 215.861 25.632 215.664 25.416C215.466 25.2 215.318 24.9467 215.22 24.656L216.084 24.336C216.204 24.592 216.372 24.8 216.588 24.96C216.806 25.12 217.041 25.2 217.292 25.2C217.532 25.2 217.728 25.1387 217.88 25.016C218.032 24.8933 218.108 24.7147 218.108 24.48C218.108 24.328 218.054 24.1933 217.948 24.076C217.841 23.956 217.7 23.8467 217.524 23.748C217.35 23.6493 217.161 23.5547 216.956 23.464C216.777 23.3867 216.597 23.3 216.416 23.204C216.237 23.108 216.072 22.9947 215.92 22.864C215.77 22.7333 215.649 22.58 215.556 22.404C215.465 22.228 215.42 22.0213 215.42 21.784C215.42 21.5147 215.49 21.268 215.632 21.044C215.773 20.82 215.973 20.6413 216.232 20.508C216.49 20.372 216.796 20.304 217.148 20.304C217.569 20.304 217.93 20.4173 218.232 20.644C218.536 20.8707 218.737 21.1547 218.836 21.496L217.98 21.784C217.9 21.6187 217.785 21.48 217.636 21.368C217.486 21.256 217.305 21.2 217.092 21.2C216.892 21.2 216.722 21.2507 216.584 21.352C216.448 21.4533 216.38 21.592 216.38 21.768C216.38 21.8907 216.418 21.9973 216.496 22.088C216.576 22.1787 216.692 22.2667 216.844 22.352C216.998 22.4373 217.188 22.5333 217.412 22.64C217.593 22.7253 217.78 22.8213 217.972 22.928C218.164 23.032 218.342 23.1533 218.508 23.292C218.676 23.4307 218.81 23.5933 218.912 23.78C219.016 23.9667 219.068 24.184 219.068 24.432C219.068 24.7867 218.981 25.088 218.808 25.336C218.637 25.584 218.41 25.7733 218.128 25.904C217.848 26.032 217.542 26.096 217.212 26.096Z" fill="#00BBB7"/>
<path d="M175 43.5V40.5H176.5V39H178V37.5H181V36H182.5V34.5H178V36H175V34.5H176.5V33H184V34.5H185.5V37.5H184V39H182.5V40.5H179.5V42H185.5V43.5H175ZM188.5 43.5V42H187V39H188.5V37.5H187V34.5H188.5V33H194.5V34.5H196V37.5H194.5V39H197.5V42H196V43.5H188.5ZM191.5 37.5H194.5V34.5H190V36H191.5V37.5ZM188.5 42H194.5V40.5H191.5V39H188.5V42ZM202 34.5H200.5V33H203.5V36H202V34.5ZM209.5 33V34.5H208V33H209.5ZM202 37.5H199V34.5H200.5V36H202V37.5ZM206.5 34.5H208V36H206.5V34.5ZM205 36H206.5V37.5H205V36ZM203.5 37.5H205V39H203.5V37.5ZM202 39H203.5V40.5H202V39ZM206.5 39H209.5V42H208V40.5H206.5V39ZM200.5 40.5H202V42H200.5V40.5ZM206.5 42H208V43.5H205V40.5H206.5V42ZM199 42H200.5V43.5H199V42Z" fill="#00BBB7"/>
<path d="M45.2486 370.096C44.8459 370.096 44.4886 369.995 44.1766 369.792C43.8673 369.589 43.6299 369.304 43.4646 368.936L44.2806 368.544C44.3526 368.683 44.4326 368.8 44.5206 368.896C44.6113 368.992 44.7153 369.065 44.8326 369.116C44.9526 369.167 45.0939 369.192 45.2566 369.192C45.4086 369.192 45.5539 369.161 45.6926 369.1C45.8339 369.036 45.9486 368.921 46.0366 368.756C46.1246 368.591 46.1686 368.355 46.1686 368.048V364.4H47.1126V368.096C47.1126 368.491 47.0553 368.819 46.9406 369.08C46.8259 369.339 46.6766 369.543 46.4926 369.692C46.3086 369.839 46.1073 369.943 45.8886 370.004C45.6699 370.065 45.4566 370.096 45.2486 370.096ZM47.9223 370L49.7543 364.4H50.6503L52.4823 370H51.4583L50.3383 366.24C50.3249 366.197 50.3089 366.14 50.2903 366.068C50.2743 365.996 50.2583 365.92 50.2423 365.84C50.2263 365.76 50.2129 365.685 50.2023 365.616C50.1889 365.685 50.1743 365.76 50.1583 365.84C50.1423 365.92 50.1263 365.996 50.1103 366.068C50.0943 366.14 50.0796 366.197 50.0663 366.24L48.9463 370H47.9223ZM49.1063 368.768L49.3623 367.904H51.0423L51.2983 368.768H49.1063ZM49.6743 363.88L50.8103 362.632H52.0023L50.5783 363.88H49.6743ZM58.2057 370V364.4H60.1817C60.6457 364.4 61.0137 364.485 61.2857 364.656C61.5603 364.827 61.7563 365.045 61.8737 365.312C61.9937 365.576 62.0537 365.851 62.0537 366.136C62.0537 366.336 62.019 366.539 61.9497 366.744C61.8803 366.947 61.771 367.133 61.6217 367.304C61.4723 367.475 61.279 367.612 61.0417 367.716C60.8043 367.82 60.5177 367.872 60.1817 367.872H59.1577V370H58.2057ZM59.1577 366.976H60.2297C60.4377 366.976 60.6043 366.935 60.7297 366.852C60.855 366.767 60.9457 366.66 61.0017 366.532C61.0577 366.401 61.0857 366.269 61.0857 366.136C61.0857 366.016 61.0603 365.892 61.0097 365.764C60.959 365.633 60.871 365.523 60.7457 365.432C60.623 365.341 60.451 365.296 60.2297 365.296H59.1577V366.976ZM63.1353 370V364.4H66.7273V365.304H64.0873V366.656H65.8073V367.56H64.0873V369.096H66.8953V370H63.1353ZM68.065 370V364.4H68.969L70.713 367.856C70.737 367.899 70.7704 367.96 70.813 368.04C70.8557 368.12 70.889 368.187 70.913 368.24C70.9104 368.171 70.9064 368.101 70.901 368.032C70.8984 367.963 70.897 367.904 70.897 367.856V364.4H71.777V370H70.913L69.137 366.528C69.113 366.483 69.0797 366.42 69.037 366.34C68.9944 366.26 68.9584 366.195 68.929 366.144C68.9424 366.203 68.949 366.268 68.949 366.34C68.9517 366.412 68.953 366.475 68.953 366.528V370H68.065ZM74.9147 370.096C74.6107 370.096 74.3254 370.037 74.0587 369.92C73.7947 369.8 73.5641 369.632 73.3667 369.416C73.1694 369.2 73.0214 368.947 72.9227 368.656L73.7867 368.336C73.9067 368.592 74.0747 368.8 74.2907 368.96C74.5094 369.12 74.7441 369.2 74.9947 369.2C75.2347 369.2 75.4307 369.139 75.5827 369.016C75.7347 368.893 75.8107 368.715 75.8107 368.48C75.8107 368.328 75.7574 368.193 75.6507 368.076C75.5441 367.956 75.4027 367.847 75.2267 367.748C75.0534 367.649 74.8641 367.555 74.6587 367.464C74.4801 367.387 74.3001 367.3 74.1187 367.204C73.9401 367.108 73.7747 366.995 73.6227 366.864C73.4734 366.733 73.3521 366.58 73.2587 366.404C73.1681 366.228 73.1227 366.021 73.1227 365.784C73.1227 365.515 73.1934 365.268 73.3347 365.044C73.4761 364.82 73.6761 364.641 73.9347 364.508C74.1934 364.372 74.4987 364.304 74.8507 364.304C75.2721 364.304 75.6334 364.417 75.9347 364.644C76.2387 364.871 76.4401 365.155 76.5387 365.496L75.6827 365.784C75.6027 365.619 75.4881 365.48 75.3387 365.368C75.1894 365.256 75.0081 365.2 74.7947 365.2C74.5947 365.2 74.4254 365.251 74.2867 365.352C74.1507 365.453 74.0827 365.592 74.0827 365.768C74.0827 365.891 74.1214 365.997 74.1987 366.088C74.2787 366.179 74.3947 366.267 74.5467 366.352C74.7014 366.437 74.8907 366.533 75.1147 366.64C75.2961 366.725 75.4827 366.821 75.6747 366.928C75.8667 367.032 76.0454 367.153 76.2107 367.292C76.3787 367.431 76.5134 367.593 76.6147 367.78C76.7187 367.967 76.7707 368.184 76.7707 368.432C76.7707 368.787 76.6841 369.088 76.5107 369.336C76.3401 369.584 76.1134 369.773 75.8307 369.904C75.5507 370.032 75.2454 370.096 74.9147 370.096ZM79.7804 370.096C79.4044 370.096 79.0817 370.017 78.8124 369.86C78.5457 369.7 78.3271 369.484 78.1564 369.212C77.9857 368.94 77.8604 368.631 77.7804 368.284C77.7004 367.937 77.6604 367.576 77.6604 367.2C77.6604 366.824 77.7004 366.463 77.7804 366.116C77.8604 365.769 77.9857 365.46 78.1564 365.188C78.3271 364.916 78.5457 364.701 78.8124 364.544C79.0817 364.384 79.4044 364.304 79.7804 364.304C80.1564 364.304 80.4791 364.384 80.7484 364.544C81.0177 364.701 81.2377 364.916 81.4084 365.188C81.5791 365.46 81.7044 365.769 81.7844 366.116C81.8671 366.463 81.9084 366.824 81.9084 367.2C81.9084 367.576 81.8671 367.937 81.7844 368.284C81.7044 368.631 81.5791 368.94 81.4084 369.212C81.2377 369.484 81.0177 369.7 80.7484 369.86C80.4791 370.017 80.1564 370.096 79.7804 370.096ZM79.7804 369.192C79.9777 369.192 80.1484 369.136 80.2924 369.024C80.4364 368.912 80.5537 368.761 80.6444 368.572C80.7377 368.383 80.8057 368.169 80.8484 367.932C80.8937 367.695 80.9164 367.451 80.9164 367.2C80.9164 366.933 80.8937 366.681 80.8484 366.444C80.8057 366.204 80.7391 365.992 80.6484 365.808C80.5577 365.621 80.4404 365.475 80.2964 365.368C80.1524 365.261 79.9804 365.208 79.7804 365.208C79.5804 365.208 79.4084 365.264 79.2644 365.376C79.1204 365.485 79.0031 365.635 78.9124 365.824C78.8217 366.013 78.7537 366.227 78.7084 366.464C78.6657 366.701 78.6444 366.947 78.6444 367.2C78.6444 367.464 78.6657 367.716 78.7084 367.956C78.7537 368.193 78.8217 368.405 78.9124 368.592C79.0031 368.779 79.1204 368.925 79.2644 369.032C79.4084 369.139 79.5804 369.192 79.7804 369.192ZM84.7101 370.096C84.3741 370.096 84.0621 370.025 83.7741 369.884C83.4888 369.743 83.2581 369.509 83.0821 369.184C82.9088 368.859 82.8221 368.419 82.8221 367.864V364.4H83.7661V367.864C83.7661 368.208 83.8061 368.476 83.8861 368.668C83.9688 368.86 84.0808 368.996 84.2221 369.076C84.3661 369.153 84.5288 369.192 84.7101 369.192C84.8888 369.192 85.0488 369.153 85.1901 369.076C85.3341 368.996 85.4474 368.86 85.5301 368.668C85.6128 368.476 85.6541 368.208 85.6541 367.864V364.4H86.6061V367.864C86.6061 368.411 86.5194 368.848 86.3461 369.176C86.1728 369.501 85.9421 369.736 85.6541 369.88C85.3661 370.024 85.0514 370.096 84.7101 370.096ZM89.3838 371.488L88.9758 371.224C89.0718 371.123 89.1758 370.972 89.2878 370.772C89.4024 370.572 89.4718 370.344 89.4958 370.088C89.3571 370.056 89.2438 369.991 89.1558 369.892C89.0678 369.793 89.0238 369.664 89.0238 369.504C89.0238 369.307 89.0864 369.151 89.2118 369.036C89.3398 368.921 89.4851 368.864 89.6478 368.864C89.8291 368.864 89.9838 368.928 90.1118 369.056C90.2398 369.184 90.3038 369.379 90.3038 369.64C90.3038 369.925 90.2544 370.191 90.1558 370.436C90.0598 370.681 89.9411 370.895 89.7998 371.076C89.6584 371.257 89.5198 371.395 89.3838 371.488ZM97.6432 370V364.4H99.6192C100.083 364.4 100.451 364.485 100.723 364.656C100.998 364.827 101.194 365.045 101.311 365.312C101.431 365.576 101.491 365.851 101.491 366.136C101.491 366.336 101.456 366.539 101.387 366.744C101.318 366.947 101.208 367.133 101.059 367.304C100.91 367.475 100.716 367.612 100.479 367.716C100.242 367.82 99.9552 367.872 99.6192 367.872H98.5952V370H97.6432ZM98.5952 366.976H99.6672C99.8752 366.976 100.042 366.935 100.167 366.852C100.292 366.767 100.383 366.66 100.439 366.532C100.495 366.401 100.523 366.269 100.523 366.136C100.523 366.016 100.498 365.892 100.447 365.764C100.396 365.633 100.308 365.523 100.183 365.432C100.06 365.341 99.8885 365.296 99.6672 365.296H98.5952V366.976ZM102.573 370V364.4H106.165V365.304H103.525V366.656H105.245V367.56H103.525V369.096H106.333V370H102.573ZM107.503 370V364.4H108.407L110.151 367.856C110.175 367.899 110.208 367.96 110.251 368.04C110.293 368.12 110.327 368.187 110.351 368.24C110.348 368.171 110.344 368.101 110.339 368.032C110.336 367.963 110.335 367.904 110.335 367.856V364.4H111.215V370H110.351L108.575 366.528C108.551 366.483 108.517 366.42 108.475 366.34C108.432 366.26 108.396 366.195 108.367 366.144C108.38 366.203 108.387 366.268 108.387 366.34C108.389 366.412 108.391 366.475 108.391 366.528V370H107.503ZM114.352 370.096C114.048 370.096 113.763 370.037 113.496 369.92C113.232 369.8 113.002 369.632 112.804 369.416C112.607 369.2 112.459 368.947 112.36 368.656L113.224 368.336C113.344 368.592 113.512 368.8 113.728 368.96C113.947 369.12 114.182 369.2 114.432 369.2C114.672 369.2 114.868 369.139 115.02 369.016C115.172 368.893 115.248 368.715 115.248 368.48C115.248 368.328 115.195 368.193 115.088 368.076C114.982 367.956 114.84 367.847 114.664 367.748C114.491 367.649 114.302 367.555 114.096 367.464C113.918 367.387 113.738 367.3 113.556 367.204C113.378 367.108 113.212 366.995 113.06 366.864C112.911 366.733 112.79 366.58 112.696 366.404C112.606 366.228 112.56 366.021 112.56 365.784C112.56 365.515 112.631 365.268 112.772 365.044C112.914 364.82 113.114 364.641 113.372 364.508C113.631 364.372 113.936 364.304 114.288 364.304C114.71 364.304 115.071 364.417 115.372 364.644C115.676 364.871 115.878 365.155 115.976 365.496L115.12 365.784C115.04 365.619 114.926 365.48 114.776 365.368C114.627 365.256 114.446 365.2 114.232 365.2C114.032 365.2 113.863 365.251 113.724 365.352C113.588 365.453 113.52 365.592 113.52 365.768C113.52 365.891 113.559 365.997 113.636 366.088C113.716 366.179 113.832 366.267 113.984 366.352C114.139 366.437 114.328 366.533 114.552 366.64C114.734 366.725 114.92 366.821 115.112 366.928C115.304 367.032 115.483 367.153 115.648 367.292C115.816 367.431 115.951 367.593 116.052 367.78C116.156 367.967 116.208 368.184 116.208 368.432C116.208 368.787 116.122 369.088 115.948 369.336C115.778 369.584 115.551 369.773 115.268 369.904C114.988 370.032 114.683 370.096 114.352 370.096ZM116.938 370L118.77 364.4H119.666L121.498 370H120.474L119.354 366.24C119.341 366.197 119.325 366.14 119.306 366.068C119.29 365.996 119.274 365.92 119.258 365.84C119.242 365.76 119.229 365.685 119.218 365.616C119.205 365.685 119.19 365.76 119.174 365.84C119.158 365.92 119.142 365.996 119.126 366.068C119.11 366.14 119.095 366.197 119.082 366.24L117.962 370H116.938ZM118.122 368.768L118.378 367.904H120.058L120.314 368.768H118.122ZM127.221 370V364.4H130.813V365.304H128.173V366.656H129.893V367.56H128.173V369.096H130.981V370H127.221ZM132.151 370V364.4H133.079L133.887 367.472C133.908 367.552 133.934 367.647 133.963 367.756C133.992 367.863 134.012 367.952 134.023 368.024C134.036 367.952 134.056 367.863 134.083 367.756C134.112 367.647 134.138 367.552 134.159 367.472L134.991 364.4H135.863V370H135.039V366.96C135.039 366.899 135.039 366.82 135.039 366.724C135.042 366.628 135.047 366.552 135.055 366.496C135.031 366.563 135.004 366.637 134.975 366.72C134.948 366.803 134.924 366.883 134.903 366.96L134.047 370H133.967L133.111 366.96C133.09 366.883 133.064 366.803 133.035 366.72C133.008 366.635 132.983 366.56 132.959 366.496C132.964 366.552 132.968 366.628 132.971 366.724C132.974 366.82 132.975 366.899 132.975 366.96V370H132.151ZM143.93 370.096C143.626 370.096 143.341 370.037 143.074 369.92C142.81 369.8 142.58 369.632 142.382 369.416C142.185 369.2 142.037 368.947 141.938 368.656L142.802 368.336C142.922 368.592 143.09 368.8 143.306 368.96C143.525 369.12 143.76 369.2 144.01 369.2C144.25 369.2 144.446 369.139 144.598 369.016C144.75 368.893 144.826 368.715 144.826 368.48C144.826 368.328 144.773 368.193 144.666 368.076C144.56 367.956 144.418 367.847 144.242 367.748C144.069 367.649 143.88 367.555 143.674 367.464C143.496 367.387 143.316 367.3 143.134 367.204C142.956 367.108 142.79 366.995 142.638 366.864C142.489 366.733 142.368 366.58 142.274 366.404C142.184 366.228 142.138 366.021 142.138 365.784C142.138 365.515 142.209 365.268 142.35 365.044C142.492 364.82 142.692 364.641 142.95 364.508C143.209 364.372 143.514 364.304 143.866 364.304C144.288 364.304 144.649 364.417 144.95 364.644C145.254 364.871 145.456 365.155 145.554 365.496L144.698 365.784C144.618 365.619 144.504 365.48 144.354 365.368C144.205 365.256 144.024 365.2 143.81 365.2C143.61 365.2 143.441 365.251 143.302 365.352C143.166 365.453 143.098 365.592 143.098 365.768C143.098 365.891 143.137 365.997 143.214 366.088C143.294 366.179 143.41 366.267 143.562 366.352C143.717 366.437 143.906 366.533 144.13 366.64C144.312 366.725 144.498 366.821 144.69 366.928C144.882 367.032 145.061 367.153 145.226 367.292C145.394 367.431 145.529 367.593 145.63 367.78C145.734 367.967 145.786 368.184 145.786 368.432C145.786 368.787 145.7 369.088 145.526 369.336C145.356 369.584 145.129 369.773 144.846 369.904C144.566 370.032 144.261 370.096 143.93 370.096ZM146.94 370V364.4H150.532V365.304H147.892V366.656H149.612V367.56H147.892V369.096H150.7V370H146.94ZM151.87 370V364.4H153.806C154.267 364.4 154.631 364.48 154.898 364.64C155.164 364.8 155.354 365.009 155.466 365.268C155.58 365.527 155.638 365.803 155.638 366.096C155.638 366.304 155.603 366.507 155.534 366.704C155.464 366.899 155.36 367.076 155.222 367.236C155.083 367.393 154.908 367.523 154.698 367.624C154.49 367.725 154.246 367.787 153.966 367.808H152.822V370H151.87ZM154.574 370L153.43 367.696L154.446 367.592L155.63 370H154.574ZM152.822 366.912H153.822C154.035 366.912 154.203 366.873 154.326 366.796C154.448 366.719 154.535 366.619 154.586 366.496C154.636 366.373 154.662 366.243 154.662 366.104C154.662 365.979 154.638 365.855 154.59 365.732C154.542 365.607 154.456 365.503 154.334 365.42C154.214 365.337 154.043 365.296 153.822 365.296H152.822V366.912ZM52.6671 380.096C52.2911 380.096 51.9685 380.017 51.6991 379.86C51.4325 379.7 51.2138 379.484 51.0431 379.212C50.8725 378.94 50.7471 378.631 50.6671 378.284C50.5871 377.937 50.5471 377.576 50.5471 377.2C50.5471 376.824 50.5871 376.463 50.6671 376.116C50.7471 375.769 50.8725 375.46 51.0431 375.188C51.2138 374.916 51.4325 374.701 51.6991 374.544C51.9685 374.384 52.2911 374.304 52.6671 374.304C53.0431 374.304 53.3658 374.384 53.6351 374.544C53.9045 374.701 54.1245 374.916 54.2951 375.188C54.4658 375.46 54.5911 375.769 54.6711 376.116C54.7538 376.463 54.7951 376.824 54.7951 377.2C54.7951 377.576 54.7538 377.937 54.6711 378.284C54.5911 378.631 54.4658 378.94 54.2951 379.212C54.1245 379.484 53.9045 379.7 53.6351 379.86C53.3658 380.017 53.0431 380.096 52.6671 380.096ZM52.6671 379.192C52.8645 379.192 53.0351 379.136 53.1791 379.024C53.3231 378.912 53.4405 378.761 53.5311 378.572C53.6245 378.383 53.6925 378.169 53.7351 377.932C53.7805 377.695 53.8031 377.451 53.8031 377.2C53.8031 376.933 53.7805 376.681 53.7351 376.444C53.6925 376.204 53.6258 375.992 53.5351 375.808C53.4445 375.621 53.3271 375.475 53.1831 375.368C53.0391 375.261 52.8671 375.208 52.6671 375.208C52.4671 375.208 52.2951 375.264 52.1511 375.376C52.0071 375.485 51.8898 375.635 51.7991 375.824C51.7085 376.013 51.6405 376.227 51.5951 376.464C51.5525 376.701 51.5311 376.947 51.5311 377.2C51.5311 377.464 51.5525 377.716 51.5951 377.956C51.6405 378.193 51.7085 378.405 51.7991 378.592C51.8898 378.779 52.0071 378.925 52.1511 379.032C52.2951 379.139 52.4671 379.192 52.6671 379.192ZM57.5968 380.096C57.2608 380.096 56.9488 380.025 56.6608 379.884C56.3755 379.743 56.1448 379.509 55.9688 379.184C55.7955 378.859 55.7088 378.419 55.7088 377.864V374.4H56.6528V377.864C56.6528 378.208 56.6928 378.476 56.7728 378.668C56.8555 378.86 56.9675 378.996 57.1088 379.076C57.2528 379.153 57.4155 379.192 57.5968 379.192C57.7755 379.192 57.9355 379.153 58.0768 379.076C58.2208 378.996 58.3341 378.86 58.4168 378.668C58.4995 378.476 58.5408 378.208 58.5408 377.864V374.4H59.4928V377.864C59.4928 378.411 59.4061 378.848 59.2328 379.176C59.0595 379.501 58.8288 379.736 58.5408 379.88C58.2528 380.024 57.9381 380.096 57.5968 380.096ZM67.4322 380.096C67.0295 380.096 66.6722 379.995 66.3602 379.792C66.0509 379.589 65.8135 379.304 65.6482 378.936L66.4642 378.544C66.5362 378.683 66.6162 378.8 66.7042 378.896C66.7949 378.992 66.8989 379.065 67.0162 379.116C67.1362 379.167 67.2775 379.192 67.4402 379.192C67.5922 379.192 67.7375 379.161 67.8762 379.1C68.0175 379.036 68.1322 378.921 68.2202 378.756C68.3082 378.591 68.3522 378.355 68.3522 378.048V374.4H69.2962V378.096C69.2962 378.491 69.2389 378.819 69.1242 379.08C69.0095 379.339 68.8602 379.543 68.6762 379.692C68.4922 379.839 68.2909 379.943 68.0722 380.004C67.8535 380.065 67.6402 380.096 67.4322 380.096ZM70.1059 380L71.9379 374.4H72.8339L74.6659 380H73.6419L72.5219 376.24C72.5085 376.197 72.4925 376.14 72.4739 376.068C72.4579 375.996 72.4419 375.92 72.4259 375.84C72.4099 375.76 72.3965 375.685 72.3859 375.616C72.3725 375.685 72.3579 375.76 72.3419 375.84C72.3259 375.92 72.3099 375.996 72.2939 376.068C72.2779 376.14 72.2632 376.197 72.2499 376.24L71.1299 380H70.1059ZM71.2899 378.768L71.5459 377.904H73.2259L73.4819 378.768H71.2899ZM71.8579 373.88L72.9939 372.632H74.1859L72.7619 373.88H71.8579ZM80.3893 380V374.4H83.9813V375.304H81.3413V376.656H83.0613V377.56H81.3413V379.096H84.1493V380H80.3893ZM81.6533 373.88L82.7893 372.632H83.9813L82.5573 373.88H81.6533ZM90.2486 380V374.4H92.2246C92.6886 374.4 93.0566 374.485 93.3286 374.656C93.6033 374.827 93.7993 375.045 93.9166 375.312C94.0366 375.576 94.0966 375.851 94.0966 376.136C94.0966 376.336 94.062 376.539 93.9926 376.744C93.9233 376.947 93.814 377.133 93.6646 377.304C93.5153 377.475 93.322 377.612 93.0846 377.716C92.8473 377.82 92.5606 377.872 92.2246 377.872H91.2006V380H90.2486ZM91.2006 376.976H92.2726C92.4806 376.976 92.6473 376.935 92.7726 376.852C92.898 376.767 92.9886 376.66 93.0446 376.532C93.1006 376.401 93.1286 376.269 93.1286 376.136C93.1286 376.016 93.1033 375.892 93.0526 375.764C93.002 375.633 92.914 375.523 92.7886 375.432C92.666 375.341 92.494 375.296 92.2726 375.296H91.2006V376.976ZM95.1783 380V374.4H97.1143C97.5756 374.4 97.9396 374.48 98.2063 374.64C98.473 374.8 98.6623 375.009 98.7743 375.268C98.889 375.527 98.9463 375.803 98.9463 376.096C98.9463 376.304 98.9116 376.507 98.8423 376.704C98.773 376.899 98.669 377.076 98.5303 377.236C98.3916 377.393 98.217 377.523 98.0063 377.624C97.7983 377.725 97.5543 377.787 97.2743 377.808H96.1303V380H95.1783ZM97.8823 380L96.7383 377.696L97.7543 377.592L98.9383 380H97.8823ZM96.1303 376.912H97.1303C97.3436 376.912 97.5116 376.873 97.6343 376.796C97.757 376.719 97.8436 376.619 97.8943 376.496C97.945 376.373 97.9703 376.243 97.9703 376.104C97.9703 375.979 97.9463 375.855 97.8983 375.732C97.8503 375.607 97.765 375.503 97.6423 375.42C97.5223 375.337 97.3516 375.296 97.1303 375.296H96.1303V376.912ZM101.964 380.096C101.588 380.096 101.265 380.017 100.996 379.86C100.729 379.7 100.511 379.484 100.34 379.212C100.169 378.94 100.044 378.631 99.964 378.284C99.884 377.937 99.844 377.576 99.844 377.2C99.844 376.824 99.884 376.463 99.964 376.116C100.044 375.769 100.169 375.46 100.34 375.188C100.511 374.916 100.729 374.701 100.996 374.544C101.265 374.384 101.588 374.304 101.964 374.304C102.34 374.304 102.663 374.384 102.932 374.544C103.201 374.701 103.421 374.916 103.592 375.188C103.763 375.46 103.888 375.769 103.968 376.116C104.051 376.463 104.092 376.824 104.092 377.2C104.092 377.576 104.051 377.937 103.968 378.284C103.888 378.631 103.763 378.94 103.592 379.212C103.421 379.484 103.201 379.7 102.932 379.86C102.663 380.017 102.34 380.096 101.964 380.096ZM101.964 379.192C102.161 379.192 102.332 379.136 102.476 379.024C102.62 378.912 102.737 378.761 102.828 378.572C102.921 378.383 102.989 378.169 103.032 377.932C103.077 377.695 103.1 377.451 103.1 377.2C103.1 376.933 103.077 376.681 103.032 376.444C102.989 376.204 102.923 375.992 102.832 375.808C102.741 375.621 102.624 375.475 102.48 375.368C102.336 375.261 102.164 375.208 101.964 375.208C101.764 375.208 101.592 375.264 101.448 375.376C101.304 375.485 101.187 375.635 101.096 375.824C101.005 376.013 100.937 376.227 100.892 376.464C100.849 376.701 100.828 376.947 100.828 377.2C100.828 377.464 100.849 377.716 100.892 377.956C100.937 378.193 101.005 378.405 101.096 378.592C101.187 378.779 101.304 378.925 101.448 379.032C101.592 379.139 101.764 379.192 101.964 379.192ZM105.038 380V374.4H108.814V375.304H105.99V376.656H108.046V377.56H105.99V380H105.038ZM111.343 380V374.4H112.295V380H111.343ZM110.175 380V379.16H113.471V380H110.175ZM110.175 375.24V374.4H113.471V375.24H110.175ZM116.817 380.096C116.513 380.096 116.228 380.037 115.961 379.92C115.697 379.8 115.466 379.632 115.269 379.416C115.072 379.2 114.924 378.947 114.825 378.656L115.689 378.336C115.809 378.592 115.977 378.8 116.193 378.96C116.412 379.12 116.646 379.2 116.897 379.2C117.137 379.2 117.333 379.139 117.485 379.016C117.637 378.893 117.713 378.715 117.713 378.48C117.713 378.328 117.66 378.193 117.553 378.076C117.446 377.956 117.305 377.847 117.129 377.748C116.956 377.649 116.766 377.555 116.561 377.464C116.382 377.387 116.202 377.3 116.021 377.204C115.842 377.108 115.677 376.995 115.525 376.864C115.376 376.733 115.254 376.58 115.161 376.404C115.07 376.228 115.025 376.021 115.025 375.784C115.025 375.515 115.096 375.268 115.237 375.044C115.378 374.82 115.578 374.641 115.837 374.508C116.096 374.372 116.401 374.304 116.753 374.304C117.174 374.304 117.536 374.417 117.837 374.644C118.141 374.871 118.342 375.155 118.441 375.496L117.585 375.784C117.505 375.619 117.39 375.48 117.241 375.368C117.092 375.256 116.91 375.2 116.697 375.2C116.497 375.2 116.328 375.251 116.189 375.352C116.053 375.453 115.985 375.592 115.985 375.768C115.985 375.891 116.024 375.997 116.101 376.088C116.181 376.179 116.297 376.267 116.449 376.352C116.604 376.437 116.793 376.533 117.017 376.64C117.198 376.725 117.385 376.821 117.577 376.928C117.769 377.032 117.948 377.153 118.113 377.292C118.281 377.431 118.416 377.593 118.517 377.78C118.621 377.967 118.673 378.184 118.673 378.432C118.673 378.787 118.586 379.088 118.413 379.336C118.242 379.584 118.016 379.773 117.733 379.904C117.453 380.032 117.148 380.096 116.817 380.096ZM121.747 380.096C121.443 380.096 121.157 380.037 120.891 379.92C120.627 379.8 120.396 379.632 120.199 379.416C120.001 379.2 119.853 378.947 119.755 378.656L120.619 378.336C120.739 378.592 120.907 378.8 121.123 378.96C121.341 379.12 121.576 379.2 121.827 379.2C122.067 379.2 122.263 379.139 122.415 379.016C122.567 378.893 122.643 378.715 122.643 378.48C122.643 378.328 122.589 378.193 122.483 378.076C122.376 377.956 122.235 377.847 122.059 377.748C121.885 377.649 121.696 377.555 121.491 377.464C121.312 377.387 121.132 377.3 120.951 377.204C120.772 377.108 120.607 376.995 120.455 376.864C120.305 376.733 120.184 376.58 120.091 376.404C120 376.228 119.955 376.021 119.955 375.784C119.955 375.515 120.025 375.268 120.167 375.044C120.308 374.82 120.508 374.641 120.767 374.508C121.025 374.372 121.331 374.304 121.683 374.304C122.104 374.304 122.465 374.417 122.767 374.644C123.071 374.871 123.272 375.155 123.371 375.496L122.515 375.784C122.435 375.619 122.32 375.48 122.171 375.368C122.021 375.256 121.84 375.2 121.627 375.2C121.427 375.2 121.257 375.251 121.119 375.352C120.983 375.453 120.915 375.592 120.915 375.768C120.915 375.891 120.953 375.997 121.031 376.088C121.111 376.179 121.227 376.267 121.379 376.352C121.533 376.437 121.723 376.533 121.947 376.64C122.128 376.725 122.315 376.821 122.507 376.928C122.699 377.032 122.877 377.153 123.043 377.292C123.211 377.431 123.345 377.593 123.447 377.78C123.551 377.967 123.603 378.184 123.603 378.432C123.603 378.787 123.516 379.088 123.343 379.336C123.172 379.584 122.945 379.773 122.663 379.904C122.383 380.032 122.077 380.096 121.747 380.096ZM126.132 380V374.4H127.084V380H126.132ZM124.964 380V379.16H128.26V380H124.964ZM124.964 375.24V374.4H128.26V375.24H124.964ZM131.542 380.096C131.166 380.096 130.843 380.017 130.574 379.86C130.307 379.7 130.089 379.484 129.918 379.212C129.747 378.94 129.622 378.631 129.542 378.284C129.462 377.937 129.422 377.576 129.422 377.2C129.422 376.824 129.462 376.463 129.542 376.116C129.622 375.769 129.747 375.46 129.918 375.188C130.089 374.916 130.307 374.701 130.574 374.544C130.843 374.384 131.166 374.304 131.542 374.304C131.918 374.304 132.241 374.384 132.51 374.544C132.779 374.701 132.999 374.916 133.17 375.188C133.341 375.46 133.466 375.769 133.546 376.116C133.629 376.463 133.67 376.824 133.67 377.2C133.67 377.576 133.629 377.937 133.546 378.284C133.466 378.631 133.341 378.94 133.17 379.212C132.999 379.484 132.779 379.7 132.51 379.86C132.241 380.017 131.918 380.096 131.542 380.096ZM131.542 379.192C131.739 379.192 131.91 379.136 132.054 379.024C132.198 378.912 132.315 378.761 132.406 378.572C132.499 378.383 132.567 378.169 132.61 377.932C132.655 377.695 132.678 377.451 132.678 377.2C132.678 376.933 132.655 376.681 132.61 376.444C132.567 376.204 132.501 375.992 132.41 375.808C132.319 375.621 132.202 375.475 132.058 375.368C131.914 375.261 131.742 375.208 131.542 375.208C131.342 375.208 131.17 375.264 131.026 375.376C130.882 375.485 130.765 375.635 130.674 375.824C130.583 376.013 130.515 376.227 130.47 376.464C130.427 376.701 130.406 376.947 130.406 377.2C130.406 377.464 130.427 377.716 130.47 377.956C130.515 378.193 130.583 378.405 130.674 378.592C130.765 378.779 130.882 378.925 131.026 379.032C131.17 379.139 131.342 379.192 131.542 379.192ZM134.616 380V374.4H135.52L137.264 377.856C137.288 377.899 137.321 377.96 137.364 378.04C137.406 378.12 137.44 378.187 137.464 378.24C137.461 378.171 137.457 378.101 137.452 378.032C137.449 377.963 137.448 377.904 137.448 377.856V374.4H138.328V380H137.464L135.688 376.528C135.664 376.483 135.63 376.42 135.588 376.34C135.545 376.26 135.509 376.195 135.48 376.144C135.493 376.203 135.5 376.268 135.5 376.34C135.502 376.412 135.504 376.475 135.504 376.528V380H134.616ZM139.122 380L140.954 374.4H141.85L143.682 380H142.658L141.538 376.24C141.524 376.197 141.508 376.14 141.49 376.068C141.474 375.996 141.458 375.92 141.442 375.84C141.426 375.76 141.412 375.685 141.402 375.616C141.388 375.685 141.374 375.76 141.358 375.84C141.342 375.92 141.326 375.996 141.31 376.068C141.294 376.14 141.279 376.197 141.266 376.24L140.146 380H139.122ZM140.306 378.768L140.562 377.904H142.242L142.498 378.768H140.306ZM144.475 380V374.4H145.427V379.088H148.011V380H144.475Z" fill="#919900"/>
<path d="M83.5 397.5V396H82V394.5H85V396H89.5V393H85V391.5H86.5V390H88V388.5H83.5V387H92.5V388.5H91V390H89.5V391.5H91V393H92.5V396H91V397.5H83.5ZM94 397.5V394.5H95.5V393H97V391.5H100V390H101.5V388.5H97V390H94V388.5H95.5V387H103V388.5H104.5V391.5H103V393H101.5V394.5H98.5V396H104.5V397.5H94ZM109 388.5H107.5V387H110.5V390H109V388.5ZM116.5 387V388.5H115V387H116.5ZM109 391.5H106V388.5H107.5V390H109V391.5ZM113.5 388.5H115V390H113.5V388.5ZM112 390H113.5V391.5H112V390ZM110.5 391.5H112V393H110.5V391.5ZM109 393H110.5V394.5H109V393ZM113.5 393H116.5V396H115V394.5H113.5V393ZM107.5 394.5H109V396H107.5V394.5ZM113.5 396H115V397.5H112V394.5H113.5V396ZM106 396H107.5V397.5H106V396Z" fill="#919900"/>
<path d="M205.685 370.096C205.306 370.096 204.977 370.016 204.697 369.856C204.419 369.693 204.19 369.475 204.009 369.2C203.83 368.923 203.697 368.612 203.609 368.268C203.521 367.921 203.477 367.565 203.477 367.2C203.477 366.851 203.522 366.505 203.613 366.164C203.703 365.82 203.841 365.508 204.025 365.228C204.209 364.948 204.438 364.724 204.713 364.556C204.99 364.388 205.314 364.304 205.685 364.304C206.002 364.304 206.269 364.359 206.485 364.468C206.703 364.575 206.886 364.715 207.033 364.888C207.179 365.059 207.306 365.24 207.413 365.432L206.573 365.912C206.474 365.723 206.354 365.559 206.213 365.42C206.074 365.279 205.898 365.208 205.685 365.208C205.461 365.208 205.271 365.269 205.117 365.392C204.962 365.512 204.837 365.672 204.741 365.872C204.645 366.069 204.575 366.285 204.533 366.52C204.49 366.752 204.469 366.979 204.469 367.2C204.469 367.453 204.493 367.699 204.541 367.936C204.591 368.173 204.666 368.387 204.765 368.576C204.863 368.765 204.989 368.916 205.141 369.028C205.295 369.137 205.477 369.192 205.685 369.192C205.981 369.192 206.202 369.093 206.349 368.896C206.498 368.696 206.573 368.448 206.573 368.152V368.032H205.597V367.136H207.549V367.912C207.549 368.384 207.466 368.783 207.301 369.108C207.138 369.433 206.915 369.68 206.633 369.848C206.353 370.013 206.037 370.096 205.685 370.096ZM208.247 370L210.079 364.4H210.975L212.807 370H211.783L210.663 366.24C210.649 366.197 210.633 366.14 210.615 366.068C210.599 365.996 210.583 365.92 210.567 365.84C210.551 365.76 210.537 365.685 210.527 365.616C210.513 365.685 210.499 365.76 210.483 365.84C210.467 365.92 210.451 365.996 210.435 366.068C210.419 366.14 210.404 366.197 210.391 366.24L209.271 370H208.247ZM209.431 368.768L209.687 367.904H211.367L211.623 368.768H209.431ZM213.6 370V364.4H214.504L216.248 367.856C216.272 367.899 216.306 367.96 216.348 368.04C216.391 368.12 216.424 368.187 216.448 368.24C216.446 368.171 216.442 368.101 216.436 368.032C216.434 367.963 216.432 367.904 216.432 367.856V364.4H217.312V370H216.448L214.672 366.528C214.648 366.483 214.615 366.42 214.572 366.34C214.53 366.26 214.494 366.195 214.464 366.144C214.478 366.203 214.484 366.268 214.484 366.34C214.487 366.412 214.488 366.475 214.488 366.528V370H213.6ZM218.53 370V364.4H219.482V366.664H221.29V364.4H222.242V370H221.29V367.56H219.482V370H218.53ZM223.036 370L224.868 364.4H225.764L227.596 370H226.572L225.452 366.24C225.438 366.197 225.422 366.14 225.404 366.068C225.388 365.996 225.372 365.92 225.356 365.84C225.34 365.76 225.326 365.685 225.316 365.616C225.302 365.685 225.288 365.76 225.272 365.84C225.256 365.92 225.24 365.996 225.224 366.068C225.208 366.14 225.193 366.197 225.18 366.24L224.06 370H223.036ZM224.22 368.768L224.476 367.904H226.156L226.412 368.768H224.22ZM235.175 370.096C234.799 370.096 234.476 370.017 234.207 369.86C233.94 369.7 233.722 369.484 233.551 369.212C233.38 368.94 233.255 368.631 233.175 368.284C233.095 367.937 233.055 367.576 233.055 367.2C233.055 366.824 233.095 366.463 233.175 366.116C233.255 365.769 233.38 365.46 233.551 365.188C233.722 364.916 233.94 364.701 234.207 364.544C234.476 364.384 234.799 364.304 235.175 364.304C235.551 364.304 235.874 364.384 236.143 364.544C236.412 364.701 236.632 364.916 236.803 365.188C236.974 365.46 237.099 365.769 237.179 366.116C237.262 366.463 237.303 366.824 237.303 367.2C237.303 367.576 237.262 367.937 237.179 368.284C237.099 368.631 236.974 368.94 236.803 369.212C236.632 369.484 236.412 369.7 236.143 369.86C235.874 370.017 235.551 370.096 235.175 370.096ZM235.175 369.192C235.372 369.192 235.543 369.136 235.687 369.024C235.831 368.912 235.948 368.761 236.039 368.572C236.132 368.383 236.2 368.169 236.243 367.932C236.288 367.695 236.311 367.451 236.311 367.2C236.311 366.933 236.288 366.681 236.243 366.444C236.2 366.204 236.134 365.992 236.043 365.808C235.952 365.621 235.835 365.475 235.691 365.368C235.547 365.261 235.375 365.208 235.175 365.208C234.975 365.208 234.803 365.264 234.659 365.376C234.515 365.485 234.398 365.635 234.307 365.824C234.216 366.013 234.148 366.227 234.103 366.464C234.06 366.701 234.039 366.947 234.039 367.2C234.039 367.464 234.06 367.716 234.103 367.956C234.148 368.193 234.216 368.405 234.307 368.592C234.398 368.779 234.515 368.925 234.659 369.032C234.803 369.139 234.975 369.192 235.175 369.192ZM240.105 370.096C239.769 370.096 239.457 370.025 239.169 369.884C238.883 369.743 238.653 369.509 238.477 369.184C238.303 368.859 238.217 368.419 238.217 367.864V364.4H239.161V367.864C239.161 368.208 239.201 368.476 239.281 368.668C239.363 368.86 239.475 368.996 239.617 369.076C239.761 369.153 239.923 369.192 240.105 369.192C240.283 369.192 240.443 369.153 240.585 369.076C240.729 368.996 240.842 368.86 240.925 368.668C241.007 368.476 241.049 368.208 241.049 367.864V364.4H242.001V367.864C242.001 368.411 241.914 368.848 241.741 369.176C241.567 369.501 241.337 369.736 241.049 369.88C240.761 370.024 240.446 370.096 240.105 370.096ZM249.94 370.096C249.537 370.096 249.18 369.995 248.868 369.792C248.559 369.589 248.321 369.304 248.156 368.936L248.972 368.544C249.044 368.683 249.124 368.8 249.212 368.896C249.303 368.992 249.407 369.065 249.524 369.116C249.644 369.167 249.785 369.192 249.948 369.192C250.1 369.192 250.245 369.161 250.384 369.1C250.525 369.036 250.64 368.921 250.728 368.756C250.816 368.591 250.86 368.355 250.86 368.048V364.4H251.804V368.096C251.804 368.491 251.747 368.819 251.632 369.08C251.517 369.339 251.368 369.543 251.184 369.692C251 369.839 250.799 369.943 250.58 370.004C250.361 370.065 250.148 370.096 249.94 370.096ZM252.614 370L254.446 364.4H255.342L257.174 370H256.15L255.03 366.24C255.016 366.197 255 366.14 254.982 366.068C254.966 365.996 254.95 365.92 254.934 365.84C254.918 365.76 254.904 365.685 254.894 365.616C254.88 365.685 254.866 365.76 254.85 365.84C254.834 365.92 254.818 365.996 254.802 366.068C254.786 366.14 254.771 366.197 254.758 366.24L253.638 370H252.614ZM253.798 368.768L254.054 367.904H255.734L255.99 368.768H253.798ZM254.366 363.88L255.502 362.632H256.694L255.27 363.88H254.366ZM264.841 370.096C264.462 370.096 264.133 370.016 263.853 369.856C263.576 369.693 263.346 369.475 263.165 369.2C262.986 368.923 262.853 368.612 262.765 368.268C262.677 367.921 262.633 367.565 262.633 367.2C262.633 366.851 262.678 366.505 262.769 366.164C262.86 365.82 262.997 365.508 263.181 365.228C263.365 364.948 263.594 364.724 263.869 364.556C264.146 364.388 264.47 364.304 264.841 364.304C265.158 364.304 265.425 364.359 265.641 364.468C265.86 364.575 266.042 364.715 266.189 364.888C266.336 365.059 266.462 365.24 266.569 365.432L265.729 365.912C265.63 365.723 265.51 365.559 265.369 365.42C265.23 365.279 265.054 365.208 264.841 365.208C264.617 365.208 264.428 365.269 264.273 365.392C264.118 365.512 263.993 365.672 263.897 365.872C263.801 366.069 263.732 366.285 263.689 366.52C263.646 366.752 263.625 366.979 263.625 367.2C263.625 367.453 263.649 367.699 263.697 367.936C263.748 368.173 263.822 368.387 263.921 368.576C264.02 368.765 264.145 368.916 264.297 369.028C264.452 369.137 264.633 369.192 264.841 369.192C265.137 369.192 265.358 369.093 265.505 368.896C265.654 368.696 265.729 368.448 265.729 368.152V368.032H264.753V367.136H266.705V367.912C266.705 368.384 266.622 368.783 266.457 369.108C266.294 369.433 266.072 369.68 265.789 369.848C265.509 370.013 265.193 370.096 264.841 370.096ZM267.403 370L269.235 364.4H270.131L271.963 370H270.939L269.819 366.24C269.805 366.197 269.789 366.14 269.771 366.068C269.755 365.996 269.739 365.92 269.723 365.84C269.707 365.76 269.693 365.685 269.683 365.616C269.669 365.685 269.655 365.76 269.639 365.84C269.623 365.92 269.607 365.996 269.591 366.068C269.575 366.14 269.56 366.197 269.547 366.24L268.427 370H267.403ZM268.587 368.768L268.843 367.904H270.523L270.779 368.768H268.587ZM272.756 370V364.4H273.66L275.404 367.856C275.428 367.899 275.462 367.96 275.504 368.04C275.547 368.12 275.58 368.187 275.604 368.24C275.602 368.171 275.598 368.101 275.592 368.032C275.59 367.963 275.588 367.904 275.588 367.856V364.4H276.468V370H275.604L273.828 366.528C273.804 366.483 273.771 366.42 273.728 366.34C273.686 366.26 273.65 366.195 273.62 366.144C273.634 366.203 273.64 366.268 273.64 366.34C273.643 366.412 273.644 366.475 273.644 366.528V370H272.756ZM277.686 370V364.4H278.638V366.664H280.446V364.4H281.398V370H280.446V367.56H278.638V370H277.686ZM284.472 370.096C284.096 370.096 283.773 370.017 283.504 369.86C283.237 369.7 283.018 369.484 282.848 369.212C282.677 368.94 282.552 368.631 282.472 368.284C282.392 367.937 282.352 367.576 282.352 367.2C282.352 366.824 282.392 366.463 282.472 366.116C282.552 365.769 282.677 365.46 282.848 365.188C283.018 364.916 283.237 364.701 283.504 364.544C283.773 364.384 284.096 364.304 284.472 364.304C284.848 364.304 285.17 364.384 285.44 364.544C285.709 364.701 285.929 364.916 286.1 365.188C286.27 365.46 286.396 365.769 286.476 366.116C286.558 366.463 286.6 366.824 286.6 367.2C286.6 367.576 286.558 367.937 286.476 368.284C286.396 368.631 286.27 368.94 286.1 369.212C285.929 369.484 285.709 369.7 285.44 369.86C285.17 370.017 284.848 370.096 284.472 370.096ZM284.472 369.192C284.669 369.192 284.84 369.136 284.984 369.024C285.128 368.912 285.245 368.761 285.336 368.572C285.429 368.383 285.497 368.169 285.54 367.932C285.585 367.695 285.608 367.451 285.608 367.2C285.608 366.933 285.585 366.681 285.54 366.444C285.497 366.204 285.43 365.992 285.34 365.808C285.249 365.621 285.132 365.475 284.988 365.368C284.844 365.261 284.672 365.208 284.472 365.208C284.272 365.208 284.1 365.264 283.956 365.376C283.812 365.485 283.694 365.635 283.604 365.824C283.513 366.013 283.445 366.227 283.4 366.464C283.357 366.701 283.336 366.947 283.336 367.2C283.336 367.464 283.357 367.716 283.4 367.956C283.445 368.193 283.513 368.405 283.604 368.592C283.694 368.779 283.812 368.925 283.956 369.032C284.1 369.139 284.272 369.192 284.472 369.192ZM289.402 370.096C289.066 370.096 288.754 370.025 288.466 369.884C288.18 369.743 287.95 369.509 287.774 369.184C287.6 368.859 287.514 368.419 287.514 367.864V364.4H288.458V367.864C288.458 368.208 288.498 368.476 288.578 368.668C288.66 368.86 288.772 368.996 288.914 369.076C289.058 369.153 289.22 369.192 289.402 369.192C289.58 369.192 289.74 369.153 289.882 369.076C290.026 368.996 290.139 368.86 290.222 368.668C290.304 368.476 290.346 368.208 290.346 367.864V364.4H291.298V367.864C291.298 368.411 291.211 368.848 291.038 369.176C290.864 369.501 290.634 369.736 290.346 369.88C290.058 370.024 289.743 370.096 289.402 370.096ZM203.741 380V374.4H205.149C205.618 374.4 206.015 374.48 206.341 374.64C206.669 374.797 206.934 375.011 207.137 375.28C207.342 375.547 207.491 375.847 207.585 376.18C207.678 376.511 207.725 376.851 207.725 377.2C207.725 377.52 207.681 377.844 207.593 378.172C207.505 378.5 207.359 378.803 207.157 379.08C206.957 379.357 206.69 379.58 206.357 379.748C206.023 379.916 205.61 380 205.117 380H203.741ZM204.693 379.104H205.213C205.498 379.104 205.738 379.048 205.933 378.936C206.127 378.821 206.283 378.671 206.401 378.484C206.518 378.297 206.602 378.092 206.653 377.868C206.706 377.644 206.733 377.421 206.733 377.2C206.733 376.963 206.705 376.732 206.649 376.508C206.595 376.281 206.511 376.077 206.397 375.896C206.282 375.712 206.134 375.567 205.953 375.46C205.771 375.351 205.554 375.296 205.301 375.296H204.693V379.104ZM210.047 380V374.4H210.999V380H210.047ZM208.879 380V379.16H212.174V380H208.879ZM208.879 375.24V374.4H212.174V375.24H208.879ZM213.6 380V374.4H214.504L216.248 377.856C216.272 377.899 216.306 377.96 216.348 378.04C216.391 378.12 216.424 378.187 216.448 378.24C216.446 378.171 216.442 378.101 216.436 378.032C216.434 377.963 216.432 377.904 216.432 377.856V374.4H217.312V380H216.448L214.672 376.528C214.648 376.483 214.615 376.42 214.572 376.34C214.53 376.26 214.494 376.195 214.464 376.144C214.478 376.203 214.484 376.268 214.484 376.34C214.487 376.412 214.488 376.475 214.488 376.528V380H213.6ZM218.53 380V374.4H219.482V376.664H221.29V374.4H222.242V380H221.29V377.56H219.482V380H218.53ZM223.46 380V374.4H227.052V375.304H224.412V376.656H226.132V377.56H224.412V379.096H227.22V380H223.46ZM229.765 380V374.4H230.717V380H229.765ZM228.597 380V379.16H231.893V380H228.597ZM228.597 375.24V374.4H231.893V375.24H228.597ZM233.319 380V374.4H235.255C235.716 374.4 236.08 374.48 236.347 374.64C236.614 374.8 236.803 375.009 236.915 375.268C237.03 375.527 237.087 375.803 237.087 376.096C237.087 376.304 237.052 376.507 236.983 376.704C236.914 376.899 236.81 377.076 236.671 377.236C236.532 377.393 236.358 377.523 236.147 377.624C235.939 377.725 235.695 377.787 235.415 377.808H234.271V380H233.319ZM236.023 380L234.879 377.696L235.895 377.592L237.079 380H236.023ZM234.271 376.912H235.271C235.484 376.912 235.652 376.873 235.775 376.796C235.898 376.719 235.984 376.619 236.035 376.496C236.086 376.373 236.111 376.243 236.111 376.104C236.111 375.979 236.087 375.855 236.039 375.732C235.991 375.607 235.906 375.503 235.783 375.42C235.663 375.337 235.492 375.296 235.271 375.296H234.271V376.912ZM240.105 380.096C239.729 380.096 239.406 380.017 239.137 379.86C238.87 379.7 238.651 379.484 238.481 379.212C238.31 378.94 238.185 378.631 238.105 378.284C238.025 377.937 237.985 377.576 237.985 377.2C237.985 376.824 238.025 376.463 238.105 376.116C238.185 375.769 238.31 375.46 238.481 375.188C238.651 374.916 238.87 374.701 239.137 374.544C239.406 374.384 239.729 374.304 240.105 374.304C240.481 374.304 240.803 374.384 241.073 374.544C241.342 374.701 241.562 374.916 241.733 375.188C241.903 375.46 242.029 375.769 242.109 376.116C242.191 376.463 242.233 376.824 242.233 377.2C242.233 377.576 242.191 377.937 242.109 378.284C242.029 378.631 241.903 378.94 241.733 379.212C241.562 379.484 241.342 379.7 241.073 379.86C240.803 380.017 240.481 380.096 240.105 380.096ZM240.105 379.192C240.302 379.192 240.473 379.136 240.617 379.024C240.761 378.912 240.878 378.761 240.969 378.572C241.062 378.383 241.13 378.169 241.173 377.932C241.218 377.695 241.241 377.451 241.241 377.2C241.241 376.933 241.218 376.681 241.173 376.444C241.13 376.204 241.063 375.992 240.973 375.808C240.882 375.621 240.765 375.475 240.621 375.368C240.477 375.261 240.305 375.208 240.105 375.208C239.905 375.208 239.733 375.264 239.589 375.376C239.445 375.485 239.327 375.635 239.237 375.824C239.146 376.013 239.078 376.227 239.033 376.464C238.99 376.701 238.969 376.947 238.969 377.2C238.969 377.464 238.99 377.716 239.033 377.956C239.078 378.193 239.146 378.405 239.237 378.592C239.327 378.779 239.445 378.925 239.589 379.032C239.733 379.139 239.905 379.192 240.105 379.192ZM250.06 380.088C249.655 380.088 249.311 380.005 249.028 379.84C248.745 379.672 248.517 379.449 248.344 379.172C248.171 378.892 248.044 378.581 247.964 378.24C247.884 377.896 247.844 377.549 247.844 377.2C247.844 376.864 247.884 376.527 247.964 376.188C248.047 375.847 248.176 375.535 248.352 375.252C248.528 374.969 248.756 374.743 249.036 374.572C249.319 374.399 249.66 374.312 250.06 374.312C250.375 374.312 250.647 374.369 250.876 374.484C251.108 374.596 251.3 374.741 251.452 374.92C251.604 375.099 251.719 375.285 251.796 375.48L250.948 375.888C250.841 375.68 250.72 375.516 250.584 375.396C250.451 375.276 250.276 375.216 250.06 375.216C249.833 375.216 249.641 375.276 249.484 375.396C249.327 375.516 249.199 375.675 249.1 375.872C249.004 376.069 248.935 376.284 248.892 376.516C248.849 376.748 248.828 376.976 248.828 377.2C248.828 377.437 248.852 377.673 248.9 377.908C248.951 378.143 249.025 378.356 249.124 378.548C249.225 378.74 249.353 378.895 249.508 379.012C249.665 379.127 249.849 379.184 250.06 379.184C250.276 379.184 250.455 379.117 250.596 378.984C250.737 378.848 250.857 378.675 250.956 378.464L251.82 378.792C251.719 379.04 251.588 379.263 251.428 379.46C251.271 379.655 251.079 379.808 250.852 379.92C250.625 380.032 250.361 380.088 250.06 380.088ZM254.894 380.096C254.518 380.096 254.195 380.017 253.926 379.86C253.659 379.7 253.44 379.484 253.27 379.212C253.099 378.94 252.974 378.631 252.894 378.284C252.814 377.937 252.774 377.576 252.774 377.2C252.774 376.824 252.814 376.463 252.894 376.116C252.974 375.769 253.099 375.46 253.27 375.188C253.44 374.916 253.659 374.701 253.926 374.544C254.195 374.384 254.518 374.304 254.894 374.304C255.27 374.304 255.592 374.384 255.862 374.544C256.131 374.701 256.351 374.916 256.522 375.188C256.692 375.46 256.818 375.769 256.898 376.116C256.98 376.463 257.022 376.824 257.022 377.2C257.022 377.576 256.98 377.937 256.898 378.284C256.818 378.631 256.692 378.94 256.522 379.212C256.351 379.484 256.131 379.7 255.862 379.86C255.592 380.017 255.27 380.096 254.894 380.096ZM254.894 379.192C255.091 379.192 255.262 379.136 255.406 379.024C255.55 378.912 255.667 378.761 255.758 378.572C255.851 378.383 255.919 378.169 255.962 377.932C256.007 377.695 256.03 377.451 256.03 377.2C256.03 376.933 256.007 376.681 255.962 376.444C255.919 376.204 255.852 375.992 255.762 375.808C255.671 375.621 255.554 375.475 255.41 375.368C255.266 375.261 255.094 375.208 254.894 375.208C254.694 375.208 254.522 375.264 254.378 375.376C254.234 375.485 254.116 375.635 254.026 375.824C253.935 376.013 253.867 376.227 253.822 376.464C253.779 376.701 253.758 376.947 253.758 377.2C253.758 377.464 253.779 377.716 253.822 377.956C253.867 378.193 253.935 378.405 254.026 378.592C254.116 378.779 254.234 378.925 254.378 379.032C254.522 379.139 254.694 379.192 254.894 379.192ZM257.967 380V374.4H258.895L259.703 377.472C259.725 377.552 259.75 377.647 259.779 377.756C259.809 377.863 259.829 377.952 259.839 378.024C259.853 377.952 259.873 377.863 259.899 377.756C259.929 377.647 259.954 377.552 259.975 377.472L260.807 374.4H261.679V380H260.855V376.96C260.855 376.899 260.855 376.82 260.855 376.724C260.858 376.628 260.863 376.552 260.871 376.496C260.847 376.563 260.821 376.637 260.791 376.72C260.765 376.803 260.741 376.883 260.719 376.96L259.863 380H259.783L258.927 376.96C258.906 376.883 258.881 376.803 258.851 376.72C258.825 376.635 258.799 376.56 258.775 376.496C258.781 376.552 258.785 376.628 258.787 376.724C258.79 376.82 258.791 376.899 258.791 376.96V380H257.967ZM269.659 380.096C269.256 380.096 268.899 379.995 268.587 379.792C268.277 379.589 268.04 379.304 267.875 378.936L268.691 378.544C268.763 378.683 268.843 378.8 268.931 378.896C269.021 378.992 269.125 379.065 269.243 379.116C269.363 379.167 269.504 379.192 269.667 379.192C269.819 379.192 269.964 379.161 270.103 379.1C270.244 379.036 270.359 378.921 270.447 378.756C270.535 378.591 270.579 378.355 270.579 378.048V374.4H271.523V378.096C271.523 378.491 271.465 378.819 271.351 379.08C271.236 379.339 271.087 379.543 270.903 379.692C270.719 379.839 270.517 379.943 270.299 380.004C270.08 380.065 269.867 380.096 269.659 380.096ZM274.612 380.096C274.236 380.096 273.914 380.017 273.644 379.86C273.378 379.7 273.159 379.484 272.988 379.212C272.818 378.94 272.692 378.631 272.612 378.284C272.532 377.937 272.492 377.576 272.492 377.2C272.492 376.824 272.532 376.463 272.612 376.116C272.692 375.769 272.818 375.46 272.988 375.188C273.159 374.916 273.378 374.701 273.644 374.544C273.914 374.384 274.236 374.304 274.612 374.304C274.988 374.304 275.311 374.384 275.58 374.544C275.85 374.701 276.07 374.916 276.24 375.188C276.411 375.46 276.536 375.769 276.616 376.116C276.699 376.463 276.74 376.824 276.74 377.2C276.74 377.576 276.699 377.937 276.616 378.284C276.536 378.631 276.411 378.94 276.24 379.212C276.07 379.484 275.85 379.7 275.58 379.86C275.311 380.017 274.988 380.096 274.612 380.096ZM274.612 379.192C274.81 379.192 274.98 379.136 275.124 379.024C275.268 378.912 275.386 378.761 275.476 378.572C275.57 378.383 275.638 378.169 275.68 377.932C275.726 377.695 275.748 377.451 275.748 377.2C275.748 376.933 275.726 376.681 275.68 376.444C275.638 376.204 275.571 375.992 275.48 375.808C275.39 375.621 275.272 375.475 275.128 375.368C274.984 375.261 274.812 375.208 274.612 375.208C274.412 375.208 274.24 375.264 274.096 375.376C273.952 375.485 273.835 375.635 273.744 375.824C273.654 376.013 273.586 376.227 273.54 376.464C273.498 376.701 273.476 376.947 273.476 377.2C273.476 377.464 273.498 377.716 273.54 377.956C273.586 378.193 273.654 378.405 273.744 378.592C273.835 378.779 273.952 378.925 274.096 379.032C274.24 379.139 274.412 379.192 274.612 379.192ZM279.63 380.096C279.251 380.096 278.922 380.016 278.642 379.856C278.365 379.693 278.135 379.475 277.954 379.2C277.775 378.923 277.642 378.612 277.554 378.268C277.466 377.921 277.422 377.565 277.422 377.2C277.422 376.851 277.467 376.505 277.558 376.164C277.649 375.82 277.786 375.508 277.97 375.228C278.154 374.948 278.383 374.724 278.658 374.556C278.935 374.388 279.259 374.304 279.63 374.304C279.947 374.304 280.214 374.359 280.43 374.468C280.649 374.575 280.831 374.715 280.978 374.888C281.125 375.059 281.251 375.24 281.358 375.432L280.518 375.912C280.419 375.723 280.299 375.559 280.158 375.42C280.019 375.279 279.843 375.208 279.63 375.208C279.406 375.208 279.217 375.269 279.062 375.392C278.907 375.512 278.782 375.672 278.686 375.872C278.59 376.069 278.521 376.285 278.478 376.52C278.435 376.752 278.414 376.979 278.414 377.2C278.414 377.453 278.438 377.699 278.486 377.936C278.537 378.173 278.611 378.387 278.71 378.576C278.809 378.765 278.934 378.916 279.086 379.028C279.241 379.137 279.422 379.192 279.63 379.192C279.926 379.192 280.147 379.093 280.294 378.896C280.443 378.696 280.518 378.448 280.518 378.152V378.032H279.542V377.136H281.494V377.912C281.494 378.384 281.411 378.783 281.246 379.108C281.083 379.433 280.861 379.68 280.578 379.848C280.298 380.013 279.982 380.096 279.63 380.096ZM284.472 380.096C284.096 380.096 283.773 380.017 283.504 379.86C283.237 379.7 283.018 379.484 282.848 379.212C282.677 378.94 282.552 378.631 282.472 378.284C282.392 377.937 282.352 377.576 282.352 377.2C282.352 376.824 282.392 376.463 282.472 376.116C282.552 375.769 282.677 375.46 282.848 375.188C283.018 374.916 283.237 374.701 283.504 374.544C283.773 374.384 284.096 374.304 284.472 374.304C284.848 374.304 285.17 374.384 285.44 374.544C285.709 374.701 285.929 374.916 286.1 375.188C286.27 375.46 286.396 375.769 286.476 376.116C286.558 376.463 286.6 376.824 286.6 377.2C286.6 377.576 286.558 377.937 286.476 378.284C286.396 378.631 286.27 378.94 286.1 379.212C285.929 379.484 285.709 379.7 285.44 379.86C285.17 380.017 284.848 380.096 284.472 380.096ZM284.472 379.192C284.669 379.192 284.84 379.136 284.984 379.024C285.128 378.912 285.245 378.761 285.336 378.572C285.429 378.383 285.497 378.169 285.54 377.932C285.585 377.695 285.608 377.451 285.608 377.2C285.608 376.933 285.585 376.681 285.54 376.444C285.497 376.204 285.43 375.992 285.34 375.808C285.249 375.621 285.132 375.475 284.988 375.368C284.844 375.261 284.672 375.208 284.472 375.208C284.272 375.208 284.1 375.264 283.956 375.376C283.812 375.485 283.694 375.635 283.604 375.824C283.513 376.013 283.445 376.227 283.4 376.464C283.357 376.701 283.336 376.947 283.336 377.2C283.336 377.464 283.357 377.716 283.4 377.956C283.445 378.193 283.513 378.405 283.604 378.592C283.694 378.779 283.812 378.925 283.956 379.032C284.1 379.139 284.272 379.192 284.472 379.192ZM289.466 380.096C289.162 380.096 288.876 380.037 288.61 379.92C288.346 379.8 288.115 379.632 287.918 379.416C287.72 379.2 287.572 378.947 287.474 378.656L288.338 378.336C288.458 378.592 288.626 378.8 288.842 378.96C289.06 379.12 289.295 379.2 289.546 379.2C289.786 379.2 289.982 379.139 290.134 379.016C290.286 378.893 290.362 378.715 290.362 378.48C290.362 378.328 290.308 378.193 290.202 378.076C290.095 377.956 289.954 377.847 289.778 377.748C289.604 377.649 289.415 377.555 289.21 377.464C289.031 377.387 288.851 377.3 288.67 377.204C288.491 377.108 288.326 376.995 288.174 376.864C288.024 376.733 287.903 376.58 287.81 376.404C287.719 376.228 287.674 376.021 287.674 375.784C287.674 375.515 287.744 375.268 287.886 375.044C288.027 374.82 288.227 374.641 288.486 374.508C288.744 374.372 289.05 374.304 289.402 374.304C289.823 374.304 290.184 374.417 290.486 374.644C290.79 374.871 290.991 375.155 291.09 375.496L290.234 375.784C290.154 375.619 290.039 375.48 289.89 375.368C289.74 375.256 289.559 375.2 289.346 375.2C289.146 375.2 288.976 375.251 288.838 375.352C288.702 375.453 288.634 375.592 288.634 375.768C288.634 375.891 288.672 375.997 288.75 376.088C288.83 376.179 288.946 376.267 289.098 376.352C289.252 376.437 289.442 376.533 289.666 376.64C289.847 376.725 290.034 376.821 290.226 376.928C290.418 377.032 290.596 377.153 290.762 377.292C290.93 377.431 291.064 377.593 291.166 377.78C291.27 377.967 291.322 378.184 291.322 378.432C291.322 378.787 291.235 379.088 291.062 379.336C290.891 379.584 290.664 379.773 290.382 379.904C290.102 380.032 289.796 380.096 289.466 380.096Z" fill="#FE016A"/>
<path d="M231.5 397.5V396H230V394.5H233V396H237.5V393H233V391.5H234.5V390H236V388.5H231.5V387H240.5V388.5H239V390H237.5V391.5H239V393H240.5V396H239V397.5H231.5ZM242 397.5V394.5H243.5V393H245V391.5H248V390H249.5V388.5H245V390H242V388.5H243.5V387H251V388.5H252.5V391.5H251V393H249.5V394.5H246.5V396H252.5V397.5H242ZM257 388.5H255.5V387H258.5V390H257V388.5ZM264.5 387V388.5H263V387H264.5ZM257 391.5H254V388.5H255.5V390H257V391.5ZM261.5 388.5H263V390H261.5V388.5ZM260 390H261.5V391.5H260V390ZM258.5 391.5H260V393H258.5V391.5ZM257 393H258.5V394.5H257V393ZM261.5 393H264.5V396H263V394.5H261.5V393ZM255.5 394.5H257V396H255.5V394.5ZM261.5 396H263V397.5H260V394.5H261.5V396ZM254 396H255.5V397.5H254V396Z" fill="#FE016A"/>
<line x1="188.5" y1="70" x2="188.5" y2="51" stroke="#3FE2EE"/>
<line x1="99.5" y1="357" x2="99.5" y2="338" stroke="#F2FF00"/>
<line x1="243.5" y1="357" x2="243.5" y2="338" stroke="#FE016A"/>
<defs>
<radialGradient id="paint0_radial_883_23301" cx="0" cy="0" r="1" gradientUnits="userSpaceOnUse" gradientTransform="translate(126.445 233.938) rotate(90) scale(117.445 117.445)">
<stop offset="0.625" stop-color="#F2FF00" stop-opacity="0"/>
<stop offset="1" stop-color="#F2FF00"/>
</radialGradient>
<radialGradient id="paint1_radial_883_23301" cx="0" cy="0" r="1" gradientUnits="userSpaceOnUse" gradientTransform="translate(193.351 172.98) rotate(90) scale(109.98)">
<stop offset="0.625" stop-color="#11F1FF" stop-opacity="0"/>
<stop offset="1" stop-color="#11F1FF"/>
</radialGradient>
<radialGradient id="paint2_radial_883_23301" cx="0" cy="0" r="1" gradientUnits="userSpaceOnUse" gradientTransform="translate(211.736 233.938) rotate(90) scale(117.264 117.264)">
<stop offset="0.625" stop-color="#FF378B" stop-opacity="0"/>
<stop offset="1" stop-color="#FF378B"/>
</radialGradient>
</defs>
</svg>
