<svg width="317" height="204" viewBox="0 0 317 204" fill="none" xmlns="http://www.w3.org/2000/svg">
<path d="M48.3813 109.888V106.624L59.1333 43.2H66.9413V105.28H71.1653V110.848H66.9413V120H60.6693V110.848H49.3413C48.7013 110.848 48.3813 110.528 48.3813 109.888ZM62.5253 48.704L54.2693 105.28H60.7333L62.9093 48.704H62.5253ZM74.2533 120V52.8H80.5253V59.648H80.9733C81.8693 55.872 83.8533 52.16 87.6933 52.16C90.5093 52.16 92.9413 54.144 92.9413 59.648H93.3253C94.2853 55.872 96.2693 52.16 100.045 52.16C102.925 52.16 105.293 54.144 105.293 59.648V120H99.0213V63.36C99.0213 59.648 97.6773 58.368 96.3333 58.368C93.8373 58.368 93.1333 63.104 92.9413 67.008V120H86.6053V63.36C86.6053 59.648 85.2613 58.368 83.9813 58.368C81.4213 58.368 80.7173 63.104 80.5253 67.008V120H74.2533ZM108.316 49.28V44.096C108.316 43.52 108.572 43.2 109.148 43.2H113.756C114.332 43.2 114.588 43.52 114.588 44.096V49.28C114.588 49.856 114.332 50.176 113.756 50.176H109.148C108.572 50.176 108.316 49.856 108.316 49.28ZM108.316 120V52.8H114.588V120H108.316ZM117.503 120V43.2H123.775V120H117.503Z" fill="#FE016A"/>
<path d="M60.2654 148.562L59.8634 147.914C60.4234 147.838 60.8214 147.69 61.0574 147.47C61.2934 147.254 61.4114 146.928 61.4114 146.492V139.868H62.2514V146.228C62.2514 146.928 62.0914 147.47 61.7714 147.854C61.4514 148.238 60.9494 148.474 60.2654 148.562ZM61.8314 138.638C61.6794 138.638 61.5494 138.584 61.4414 138.476C61.3334 138.368 61.2794 138.238 61.2794 138.086C61.2794 137.926 61.3334 137.792 61.4414 137.684C61.5494 137.572 61.6794 137.516 61.8314 137.516C61.9834 137.516 62.1134 137.57 62.2214 137.678C62.3294 137.786 62.3834 137.922 62.3834 138.086C62.3834 138.238 62.3314 138.368 62.2274 138.476C62.1234 138.584 61.9914 138.638 61.8314 138.638ZM66.5289 146.144C65.7209 146.144 65.0829 145.858 64.6149 145.286C64.1469 144.71 63.9129 143.928 63.9129 142.94C63.9129 142.28 64.0189 141.71 64.2309 141.23C64.4429 140.75 64.7449 140.38 65.1369 140.12C65.5289 139.856 65.9929 139.724 66.5289 139.724C67.0689 139.724 67.5349 139.854 67.9269 140.114C68.3189 140.37 68.6189 140.738 68.8269 141.218C69.0389 141.698 69.1449 142.268 69.1449 142.928C69.1449 143.588 69.0389 144.16 68.8269 144.644C68.6149 145.124 68.3129 145.494 67.9209 145.754C67.5289 146.014 67.0649 146.144 66.5289 146.144ZM66.5289 145.352C67.0809 145.352 67.5109 145.138 67.8189 144.71C68.1309 144.282 68.2869 143.688 68.2869 142.928C68.2869 142.164 68.1309 141.57 67.8189 141.146C67.5109 140.722 67.0809 140.51 66.5289 140.51C65.9689 140.51 65.5349 140.722 65.2269 141.146C64.9229 141.566 64.7709 142.164 64.7709 142.94C64.7709 143.704 64.9249 144.298 65.2329 144.722C65.5409 145.142 65.9729 145.352 66.5289 145.352ZM72.6614 148.556L72.2474 147.884C72.8034 147.852 73.2574 147.772 73.6094 147.644C73.9614 147.52 74.2214 147.342 74.3894 147.11C74.5574 146.878 74.6414 146.584 74.6414 146.228V145.262C74.2734 145.85 73.7174 146.144 72.9734 146.144C72.4814 146.144 72.0514 146.01 71.6834 145.742C71.3154 145.474 71.0294 145.1 70.8254 144.62C70.6214 144.136 70.5194 143.572 70.5194 142.928C70.5194 142.276 70.6214 141.71 70.8254 141.23C71.0334 140.75 71.3234 140.38 71.6954 140.12C72.0674 139.856 72.5074 139.724 73.0154 139.724C73.3474 139.724 73.6574 139.794 73.9454 139.934C74.2374 140.07 74.4694 140.258 74.6414 140.498V139.868H75.4814V145.982C75.4814 146.39 75.4234 146.748 75.3074 147.056C75.1954 147.368 75.0214 147.63 74.7854 147.842C74.5534 148.054 74.2594 148.218 73.9034 148.334C73.5514 148.454 73.1374 148.528 72.6614 148.556ZM73.1234 145.352C73.4234 145.352 73.7114 145.26 73.9874 145.076C74.2634 144.888 74.4814 144.642 74.6414 144.338V141.446C74.4854 141.166 74.2674 140.94 73.9874 140.768C73.7114 140.596 73.4274 140.51 73.1354 140.51C72.5674 140.51 72.1314 140.718 71.8274 141.134C71.5274 141.546 71.3774 142.144 71.3774 142.928C71.3774 143.416 71.4494 143.842 71.5934 144.206C71.7414 144.566 71.9454 144.848 72.2054 145.052C72.4694 145.252 72.7754 145.352 73.1234 145.352ZM79.2669 146.144C78.6189 146.144 78.1109 145.964 77.7429 145.604C77.3749 145.24 77.1909 144.74 77.1909 144.104C77.1909 143.696 77.2809 143.342 77.4609 143.042C77.6449 142.742 77.9029 142.512 78.2349 142.352C78.5709 142.188 78.9669 142.106 79.4229 142.106C79.7229 142.106 80.0089 142.144 80.2809 142.22C80.5569 142.296 80.8229 142.41 81.0789 142.562V141.974C81.0789 141.454 80.9649 141.072 80.7369 140.828C80.5129 140.584 80.1629 140.462 79.6869 140.462C79.4029 140.462 79.1009 140.516 78.7809 140.624C78.4649 140.728 78.1649 140.876 77.8809 141.068L77.6349 140.36C77.9589 140.156 78.3089 140 78.6849 139.892C79.0609 139.78 79.4289 139.724 79.7889 139.724C80.4769 139.724 80.9969 139.904 81.3489 140.264C81.7009 140.624 81.8769 141.154 81.8769 141.854V146H81.0789V145.304C80.8349 145.572 80.5549 145.78 80.2389 145.928C79.9269 146.072 79.6029 146.144 79.2669 146.144ZM79.3749 145.406C79.6829 145.406 79.9829 145.326 80.2749 145.166C80.5669 145.002 80.8349 144.768 81.0789 144.464V143.318C80.8429 143.166 80.5869 143.05 80.3109 142.97C80.0389 142.886 79.7749 142.844 79.5189 142.844C79.0589 142.844 78.6909 142.96 78.4149 143.192C78.1429 143.42 78.0069 143.726 78.0069 144.11C78.0069 144.506 78.1289 144.822 78.3729 145.058C78.6169 145.29 78.9509 145.406 79.3749 145.406ZM85.9759 146.144C85.2159 146.144 84.6139 145.856 84.1699 145.28C83.7299 144.7 83.5099 143.916 83.5099 142.928C83.5099 142.264 83.6099 141.694 83.8099 141.218C84.0099 140.738 84.2959 140.37 84.6679 140.114C85.0439 139.854 85.4899 139.724 86.0059 139.724C86.6419 139.724 87.1799 139.968 87.6199 140.456V137.738L88.4599 137.336V146H87.6199V145.388C87.1919 145.892 86.6439 146.144 85.9759 146.144ZM86.1019 145.352C86.4019 145.352 86.6879 145.266 86.9599 145.094C87.2319 144.918 87.4519 144.68 87.6199 144.38V141.44C87.4399 141.152 87.2139 140.926 86.9419 140.762C86.6739 140.594 86.3939 140.51 86.1019 140.51C85.5499 140.51 85.1219 140.72 84.8179 141.14C84.5179 141.556 84.3679 142.152 84.3679 142.928C84.3679 143.404 84.4419 143.824 84.5899 144.188C84.7379 144.552 84.9419 144.838 85.2019 145.046C85.4619 145.25 85.7619 145.352 86.1019 145.352ZM92.7208 146.144C91.9128 146.144 91.2748 145.858 90.8068 145.286C90.3388 144.71 90.1048 143.928 90.1048 142.94C90.1048 142.28 90.2108 141.71 90.4228 141.23C90.6348 140.75 90.9368 140.38 91.3288 140.12C91.7208 139.856 92.1848 139.724 92.7208 139.724C93.2608 139.724 93.7268 139.854 94.1188 140.114C94.5108 140.37 94.8108 140.738 95.0188 141.218C95.2308 141.698 95.3368 142.268 95.3368 142.928C95.3368 143.588 95.2308 144.16 95.0188 144.644C94.8068 145.124 94.5048 145.494 94.1128 145.754C93.7208 146.014 93.2568 146.144 92.7208 146.144ZM92.7208 145.352C93.2728 145.352 93.7028 145.138 94.0108 144.71C94.3228 144.282 94.4788 143.688 94.4788 142.928C94.4788 142.164 94.3228 141.57 94.0108 141.146C93.7028 140.722 93.2728 140.51 92.7208 140.51C92.1608 140.51 91.7268 140.722 91.4188 141.146C91.1148 141.566 90.9628 142.164 90.9628 142.94C90.9628 143.704 91.1168 144.298 91.4248 144.722C91.7328 145.142 92.1648 145.352 92.7208 145.352ZM96.937 146V139.868H97.777V140.84C97.929 140.48 98.139 140.204 98.407 140.012C98.679 139.82 98.993 139.724 99.349 139.724C99.717 139.724 100.017 139.822 100.249 140.018L100.123 140.816C100.003 140.732 99.871 140.67 99.727 140.63C99.587 140.59 99.435 140.57 99.271 140.57C98.975 140.57 98.715 140.654 98.491 140.822C98.267 140.99 98.091 141.224 97.963 141.524C97.839 141.82 97.777 142.166 97.777 142.562V146H96.937ZM103.409 146.144C102.865 146.144 102.395 146.01 101.999 145.742C101.607 145.47 101.305 145.092 101.093 144.608C100.881 144.124 100.775 143.564 100.775 142.928C100.775 142.252 100.885 141.676 101.105 141.2C101.329 140.72 101.639 140.354 102.035 140.102C102.431 139.85 102.889 139.724 103.409 139.724C103.861 139.724 104.271 139.83 104.639 140.042C105.007 140.254 105.299 140.582 105.515 141.026C105.731 141.47 105.839 142.04 105.839 142.736C105.839 142.808 105.837 142.89 105.833 142.982C105.829 143.07 105.823 143.162 105.815 143.258H101.645C101.677 143.682 101.763 144.054 101.903 144.374C102.047 144.69 102.245 144.94 102.497 145.124C102.753 145.304 103.067 145.394 103.439 145.394C103.691 145.394 103.933 145.35 104.165 145.262C104.397 145.17 104.613 145.03 104.813 144.842L105.305 145.406C105.081 145.618 104.805 145.794 104.477 145.934C104.153 146.074 103.797 146.144 103.409 146.144ZM101.633 142.52H104.981C104.981 142.14 104.923 141.794 104.807 141.482C104.695 141.17 104.521 140.922 104.285 140.738C104.053 140.554 103.761 140.462 103.409 140.462C102.933 140.462 102.527 140.626 102.191 140.954C101.859 141.282 101.673 141.804 101.633 142.52ZM109.042 146.144C108.634 146.144 108.242 146.056 107.866 145.88C107.49 145.704 107.174 145.46 106.918 145.148L107.53 144.626C107.75 144.866 107.994 145.052 108.262 145.184C108.53 145.316 108.794 145.382 109.054 145.382C109.446 145.382 109.748 145.302 109.96 145.142C110.176 144.982 110.284 144.758 110.284 144.47C110.284 144.29 110.234 144.126 110.134 143.978C110.038 143.83 109.88 143.692 109.66 143.564C109.44 143.432 109.15 143.298 108.79 143.162C108.142 142.922 107.676 142.66 107.392 142.376C107.108 142.088 106.966 141.732 106.966 141.308C106.966 140.836 107.148 140.454 107.512 140.162C107.88 139.87 108.358 139.724 108.946 139.724C109.334 139.724 109.698 139.8 110.038 139.952C110.378 140.1 110.668 140.314 110.908 140.594L110.32 141.086C109.928 140.686 109.466 140.486 108.934 140.486C108.586 140.486 108.31 140.56 108.106 140.708C107.906 140.852 107.806 141.052 107.806 141.308C107.806 141.544 107.91 141.748 108.118 141.92C108.326 142.088 108.706 142.274 109.258 142.478C109.706 142.646 110.066 142.824 110.338 143.012C110.61 143.196 110.806 143.406 110.926 143.642C111.05 143.878 111.112 144.15 111.112 144.458C111.112 144.982 110.928 145.394 110.56 145.694C110.192 145.994 109.686 146.144 109.042 146.144ZM54.3545 162.436V153.868H55.1945V154.51C55.6305 153.986 56.1905 153.724 56.8745 153.724C57.3785 153.724 57.8145 153.854 58.1825 154.114C58.5505 154.374 58.8345 154.744 59.0345 155.224C59.2345 155.704 59.3345 156.272 59.3345 156.928C59.3345 157.588 59.2325 158.16 59.0285 158.644C58.8285 159.124 58.5405 159.494 58.1645 159.754C57.7925 160.014 57.3505 160.144 56.8385 160.144C56.4945 160.144 56.1845 160.072 55.9085 159.928C55.6325 159.78 55.3945 159.564 55.1945 159.28V162.034L54.3545 162.436ZM56.7545 159.352C57.3065 159.352 57.7305 159.142 58.0265 158.722C58.3225 158.302 58.4705 157.704 58.4705 156.928C58.4705 156.184 58.3145 155.596 58.0025 155.164C57.6945 154.728 57.2785 154.51 56.7545 154.51C56.4265 154.51 56.1265 154.592 55.8545 154.756C55.5825 154.92 55.3625 155.152 55.1945 155.452V158.362C55.4065 158.686 55.6445 158.932 55.9085 159.1C56.1725 159.268 56.4545 159.352 56.7545 159.352ZM60.9377 160V153.868H61.7777V154.84C61.9297 154.48 62.1397 154.204 62.4077 154.012C62.6797 153.82 62.9937 153.724 63.3497 153.724C63.7177 153.724 64.0177 153.822 64.2497 154.018L64.1237 154.816C64.0037 154.732 63.8717 154.67 63.7277 154.63C63.5877 154.59 63.4357 154.57 63.2717 154.57C62.9757 154.57 62.7157 154.654 62.4917 154.822C62.2677 154.99 62.0917 155.224 61.9637 155.524C61.8397 155.82 61.7777 156.166 61.7777 156.562V160H60.9377ZM67.3916 160.144C66.5836 160.144 65.9456 159.858 65.4776 159.286C65.0096 158.71 64.7756 157.928 64.7756 156.94C64.7756 156.28 64.8816 155.71 65.0936 155.23C65.3056 154.75 65.6076 154.38 65.9996 154.12C66.3916 153.856 66.8556 153.724 67.3916 153.724C67.9316 153.724 68.3976 153.854 68.7896 154.114C69.1816 154.37 69.4816 154.738 69.6896 155.218C69.9016 155.698 70.0076 156.268 70.0076 156.928C70.0076 157.588 69.9016 158.16 69.6896 158.644C69.4776 159.124 69.1756 159.494 68.7836 159.754C68.3916 160.014 67.9276 160.144 67.3916 160.144ZM67.3916 159.352C67.9436 159.352 68.3736 159.138 68.6816 158.71C68.9936 158.282 69.1496 157.688 69.1496 156.928C69.1496 156.164 68.9936 155.57 68.6816 155.146C68.3736 154.722 67.9436 154.51 67.3916 154.51C66.8316 154.51 66.3976 154.722 66.0896 155.146C65.7856 155.566 65.6336 156.164 65.6336 156.94C65.6336 157.704 65.7876 158.298 66.0956 158.722C66.4036 159.142 66.8356 159.352 67.3916 159.352ZM71.8492 160V154.606H70.8892V153.868H71.8492V152.818C71.8492 152.378 71.9592 152.042 72.1792 151.81C72.4032 151.574 72.7212 151.456 73.1332 151.456C73.3052 151.456 73.4752 151.478 73.6432 151.522C73.8152 151.566 73.9792 151.63 74.1352 151.714V152.422C73.9712 152.346 73.8252 152.292 73.6972 152.26C73.5692 152.228 73.4392 152.212 73.3072 152.212C73.0872 152.212 72.9292 152.27 72.8332 152.386C72.7372 152.498 72.6892 152.688 72.6892 152.956V153.868H74.1352V154.606H72.6892V160H71.8492ZM75.4732 160V153.868H76.3132V160H75.4732ZM75.8872 152.638C75.7352 152.638 75.6052 152.584 75.4972 152.476C75.3932 152.368 75.3412 152.238 75.3412 152.086C75.3412 151.926 75.3932 151.792 75.4972 151.684C75.6052 151.572 75.7352 151.516 75.8872 151.516C76.0472 151.516 76.1792 151.572 76.2832 151.684C76.3912 151.792 76.4452 151.926 76.4452 152.086C76.4452 152.238 76.3912 152.368 76.2832 152.476C76.1792 152.584 76.0472 152.638 75.8872 152.638ZM80.095 160.144C79.687 160.144 79.295 160.056 78.919 159.88C78.543 159.704 78.227 159.46 77.971 159.148L78.583 158.626C78.803 158.866 79.047 159.052 79.315 159.184C79.583 159.316 79.847 159.382 80.107 159.382C80.499 159.382 80.801 159.302 81.013 159.142C81.229 158.982 81.337 158.758 81.337 158.47C81.337 158.29 81.287 158.126 81.187 157.978C81.091 157.83 80.933 157.692 80.713 157.564C80.493 157.432 80.203 157.298 79.843 157.162C79.195 156.922 78.729 156.66 78.445 156.376C78.161 156.088 78.019 155.732 78.019 155.308C78.019 154.836 78.201 154.454 78.565 154.162C78.933 153.87 79.411 153.724 79.999 153.724C80.387 153.724 80.751 153.8 81.091 153.952C81.431 154.1 81.721 154.314 81.961 154.594L81.373 155.086C80.981 154.686 80.519 154.486 79.987 154.486C79.639 154.486 79.363 154.56 79.159 154.708C78.959 154.852 78.859 155.052 78.859 155.308C78.859 155.544 78.963 155.748 79.171 155.92C79.379 156.088 79.759 156.274 80.311 156.478C80.759 156.646 81.119 156.824 81.391 157.012C81.663 157.196 81.859 157.406 81.979 157.642C82.103 157.878 82.165 158.15 82.165 158.458C82.165 158.982 81.981 159.394 81.613 159.694C81.245 159.994 80.739 160.144 80.095 160.144ZM85.5531 160.144C85.1451 160.144 84.7531 160.056 84.3771 159.88C84.0011 159.704 83.6851 159.46 83.4291 159.148L84.0411 158.626C84.2611 158.866 84.5051 159.052 84.7731 159.184C85.0411 159.316 85.3051 159.382 85.5651 159.382C85.9571 159.382 86.2591 159.302 86.4711 159.142C86.6871 158.982 86.7951 158.758 86.7951 158.47C86.7951 158.29 86.7451 158.126 86.6451 157.978C86.5491 157.83 86.3911 157.692 86.1711 157.564C85.9511 157.432 85.6611 157.298 85.3011 157.162C84.6531 156.922 84.1871 156.66 83.9031 156.376C83.6191 156.088 83.4771 155.732 83.4771 155.308C83.4771 154.836 83.6591 154.454 84.0231 154.162C84.3911 153.87 84.8691 153.724 85.4571 153.724C85.8451 153.724 86.2091 153.8 86.5491 153.952C86.8891 154.1 87.1791 154.314 87.4191 154.594L86.8311 155.086C86.4391 154.686 85.9771 154.486 85.4451 154.486C85.0971 154.486 84.8211 154.56 84.6171 154.708C84.4171 154.852 84.3171 155.052 84.3171 155.308C84.3171 155.544 84.4211 155.748 84.6291 155.92C84.8371 156.088 85.2171 156.274 85.7691 156.478C86.2171 156.646 86.5771 156.824 86.8491 157.012C87.1211 157.196 87.3171 157.406 87.4371 157.642C87.5611 157.878 87.6231 158.15 87.6231 158.458C87.6231 158.982 87.4391 159.394 87.0711 159.694C86.7031 159.994 86.1971 160.144 85.5531 160.144ZM89.2953 160V153.868H90.1353V160H89.2953ZM89.7093 152.638C89.5573 152.638 89.4273 152.584 89.3193 152.476C89.2153 152.368 89.1633 152.238 89.1633 152.086C89.1633 151.926 89.2153 151.792 89.3193 151.684C89.4273 151.572 89.5573 151.516 89.7093 151.516C89.8693 151.516 90.0013 151.572 90.1053 151.684C90.2133 151.792 90.2673 151.926 90.2673 152.086C90.2673 152.238 90.2133 152.368 90.1053 152.476C90.0013 152.584 89.8693 152.638 89.7093 152.638ZM94.4127 160.144C93.6047 160.144 92.9667 159.858 92.4987 159.286C92.0307 158.71 91.7967 157.928 91.7967 156.94C91.7967 156.28 91.9027 155.71 92.1147 155.23C92.3267 154.75 92.6287 154.38 93.0207 154.12C93.4127 153.856 93.8767 153.724 94.4127 153.724C94.9527 153.724 95.4187 153.854 95.8107 154.114C96.2027 154.37 96.5027 154.738 96.7107 155.218C96.9227 155.698 97.0287 156.268 97.0287 156.928C97.0287 157.588 96.9227 158.16 96.7107 158.644C96.4987 159.124 96.1967 159.494 95.8047 159.754C95.4127 160.014 94.9487 160.144 94.4127 160.144ZM94.4127 159.352C94.9647 159.352 95.3947 159.138 95.7027 158.71C96.0147 158.282 96.1707 157.688 96.1707 156.928C96.1707 156.164 96.0147 155.57 95.7027 155.146C95.3947 154.722 94.9647 154.51 94.4127 154.51C93.8527 154.51 93.4187 154.722 93.1107 155.146C92.8067 155.566 92.6547 156.164 92.6547 156.94C92.6547 157.704 92.8087 158.298 93.1167 158.722C93.4247 159.142 93.8567 159.352 94.4127 159.352ZM98.6289 160V153.868H99.4689V154.654C99.6409 154.354 99.8689 154.124 100.153 153.964C100.441 153.804 100.767 153.724 101.131 153.724C101.847 153.724 102.379 153.946 102.727 154.39C103.075 154.83 103.249 155.5 103.249 156.4V160H102.409V156.25C102.409 155.678 102.289 155.244 102.049 154.948C101.809 154.648 101.461 154.498 101.005 154.498C100.501 154.498 100.119 154.652 99.8589 154.96C99.5989 155.268 99.4689 155.722 99.4689 156.322V160H98.6289ZM106.987 160.144C106.339 160.144 105.831 159.964 105.463 159.604C105.095 159.24 104.911 158.74 104.911 158.104C104.911 157.696 105.001 157.342 105.181 157.042C105.365 156.742 105.623 156.512 105.955 156.352C106.291 156.188 106.687 156.106 107.143 156.106C107.443 156.106 107.729 156.144 108.001 156.22C108.277 156.296 108.543 156.41 108.799 156.562V155.974C108.799 155.454 108.685 155.072 108.457 154.828C108.233 154.584 107.883 154.462 107.407 154.462C107.123 154.462 106.821 154.516 106.501 154.624C106.185 154.728 105.885 154.876 105.601 155.068L105.355 154.36C105.679 154.156 106.029 154 106.405 153.892C106.781 153.78 107.149 153.724 107.509 153.724C108.197 153.724 108.717 153.904 109.069 154.264C109.421 154.624 109.597 155.154 109.597 155.854V160H108.799V159.304C108.555 159.572 108.275 159.78 107.959 159.928C107.647 160.072 107.323 160.144 106.987 160.144ZM107.095 159.406C107.403 159.406 107.703 159.326 107.995 159.166C108.287 159.002 108.555 158.768 108.799 158.464V157.318C108.563 157.166 108.307 157.05 108.031 156.97C107.759 156.886 107.495 156.844 107.239 156.844C106.779 156.844 106.411 156.96 106.135 157.192C105.863 157.42 105.727 157.726 105.727 158.11C105.727 158.506 105.849 158.822 106.093 159.058C106.337 159.29 106.671 159.406 107.095 159.406ZM111.456 160V153.868H112.296V160H111.456ZM111.87 152.638C111.718 152.638 111.588 152.584 111.48 152.476C111.376 152.368 111.324 152.238 111.324 152.086C111.324 151.926 111.376 151.792 111.48 151.684C111.588 151.572 111.718 151.516 111.87 151.516C112.03 151.516 112.162 151.572 112.266 151.684C112.374 151.792 112.428 151.926 112.428 152.086C112.428 152.238 112.374 152.368 112.266 152.476C112.162 152.584 112.03 152.638 111.87 152.638ZM116.075 160.144C115.667 160.144 115.275 160.056 114.899 159.88C114.523 159.704 114.207 159.46 113.951 159.148L114.563 158.626C114.783 158.866 115.027 159.052 115.295 159.184C115.563 159.316 115.827 159.382 116.087 159.382C116.479 159.382 116.781 159.302 116.993 159.142C117.209 158.982 117.317 158.758 117.317 158.47C117.317 158.29 117.267 158.126 117.167 157.978C117.071 157.83 116.913 157.692 116.693 157.564C116.473 157.432 116.183 157.298 115.823 157.162C115.175 156.922 114.709 156.66 114.425 156.376C114.141 156.088 113.999 155.732 113.999 155.308C113.999 154.836 114.181 154.454 114.545 154.162C114.913 153.87 115.391 153.724 115.979 153.724C116.367 153.724 116.731 153.8 117.071 153.952C117.411 154.1 117.701 154.314 117.941 154.594L117.353 155.086C116.961 154.686 116.499 154.486 115.967 154.486C115.619 154.486 115.343 154.56 115.139 154.708C114.939 154.852 114.839 155.052 114.839 155.308C114.839 155.544 114.943 155.748 115.151 155.92C115.359 156.088 115.739 156.274 116.291 156.478C116.739 156.646 117.099 156.824 117.371 157.012C117.643 157.196 117.839 157.406 117.959 157.642C118.083 157.878 118.145 158.15 118.145 158.458C118.145 158.982 117.961 159.394 117.593 159.694C117.225 159.994 116.719 160.144 116.075 160.144Z" fill="#FE016A"/>
<path d="M172.785 63.744V52.608L179.825 43.2H184.433C188.785 43.2 191.473 46.528 191.473 50.624V62.016C191.025 62.464 186.673 67.2 186.161 67.776C190.193 69.248 191.409 71.104 191.409 74.816L191.473 110.016L184.369 120H180.017C174.257 120 172.785 115.456 172.785 109.376V76.736C173.169 76.16 177.265 70.528 177.713 69.824C174.961 69.184 172.785 67.52 172.785 63.744ZM181.937 66.56H183.025L185.201 63.296V50.176C185.201 48.512 184.433 47.296 182.321 47.296H181.233L179.121 50.624L179.057 63.744C179.057 65.6 180.081 66.56 181.937 66.56ZM181.553 115.2H183.025L185.201 111.936V72.96C185.201 72.128 184.625 70.4 182.833 70.4H181.169L179.057 73.664V112.256C179.057 114.368 180.273 115.2 181.553 115.2ZM195.108 120V110.08H202.66V119.232L199.332 127.872H196.388L199.076 120H195.108ZM223.763 62.336H218.451V50.88C218.451 48.896 217.555 48 215.571 48H214.291L212.307 50.944V66.368H217.491C221.843 66.368 224.723 69.376 224.723 73.856V110.08L217.683 120H213.267C208.915 120 206.035 116.992 206.035 112.512V53.12L213.139 43.2H217.555C222.227 43.2 224.723 45.696 224.723 50.368V61.376C224.723 62.016 224.403 62.336 223.763 62.336ZM215.187 115.2H216.467L218.451 112.256V74.112C218.451 72.128 217.491 71.168 215.571 71.168H212.307V112.256C212.307 114.24 213.331 115.2 215.187 115.2ZM227.722 120V52.8H233.994V59.648H234.442C235.338 55.872 237.322 52.16 241.162 52.16C243.978 52.16 246.41 54.144 246.41 59.648H246.794C247.754 55.872 249.738 52.16 253.514 52.16C256.394 52.16 258.762 54.144 258.762 59.648V120H252.49V63.36C252.49 59.648 251.146 58.368 249.802 58.368C247.306 58.368 246.602 63.104 246.41 67.008V120H240.074V63.36C240.074 59.648 238.73 58.368 237.45 58.368C234.89 58.368 234.186 63.104 233.994 67.008V120H227.722ZM261.785 49.28V44.096C261.785 43.52 262.041 43.2 262.617 43.2H267.225C267.801 43.2 268.057 43.52 268.057 44.096V49.28C268.057 49.856 267.801 50.176 267.225 50.176H262.617C262.041 50.176 261.785 49.856 261.785 49.28ZM261.785 120V52.8H268.057V120H261.785ZM270.972 120V43.2H277.244V120H270.972Z" fill="#FE016A"/>
<path d="M186.101 148.436V139.868H186.941V140.51C187.377 139.986 187.937 139.724 188.621 139.724C189.125 139.724 189.561 139.854 189.929 140.114C190.297 140.374 190.581 140.744 190.781 141.224C190.981 141.704 191.081 142.272 191.081 142.928C191.081 143.588 190.979 144.16 190.775 144.644C190.575 145.124 190.287 145.494 189.911 145.754C189.539 146.014 189.097 146.144 188.585 146.144C188.241 146.144 187.931 146.072 187.655 145.928C187.379 145.78 187.141 145.564 186.941 145.28V148.034L186.101 148.436ZM188.501 145.352C189.053 145.352 189.477 145.142 189.773 144.722C190.069 144.302 190.217 143.704 190.217 142.928C190.217 142.184 190.061 141.596 189.749 141.164C189.441 140.728 189.025 140.51 188.501 140.51C188.173 140.51 187.873 140.592 187.601 140.756C187.329 140.92 187.109 141.152 186.941 141.452V144.362C187.153 144.686 187.391 144.932 187.655 145.1C187.919 145.268 188.201 145.352 188.501 145.352ZM192.684 146V139.868H193.524V140.84C193.676 140.48 193.886 140.204 194.154 140.012C194.426 139.82 194.74 139.724 195.096 139.724C195.464 139.724 195.764 139.822 195.996 140.018L195.87 140.816C195.75 140.732 195.618 140.67 195.474 140.63C195.334 140.59 195.182 140.57 195.018 140.57C194.722 140.57 194.462 140.654 194.238 140.822C194.014 140.99 193.838 141.224 193.71 141.524C193.586 141.82 193.524 142.166 193.524 142.562V146H192.684ZM199.138 146.144C198.33 146.144 197.692 145.858 197.224 145.286C196.756 144.71 196.522 143.928 196.522 142.94C196.522 142.28 196.628 141.71 196.84 141.23C197.052 140.75 197.354 140.38 197.746 140.12C198.138 139.856 198.602 139.724 199.138 139.724C199.678 139.724 200.144 139.854 200.536 140.114C200.928 140.37 201.228 140.738 201.436 141.218C201.648 141.698 201.754 142.268 201.754 142.928C201.754 143.588 201.648 144.16 201.436 144.644C201.224 145.124 200.922 145.494 200.53 145.754C200.138 146.014 199.674 146.144 199.138 146.144ZM199.138 145.352C199.69 145.352 200.12 145.138 200.428 144.71C200.74 144.282 200.896 143.688 200.896 142.928C200.896 142.164 200.74 141.57 200.428 141.146C200.12 140.722 199.69 140.51 199.138 140.51C198.578 140.51 198.144 140.722 197.836 141.146C197.532 141.566 197.38 142.164 197.38 142.94C197.38 143.704 197.534 144.298 197.842 144.722C198.15 145.142 198.582 145.352 199.138 145.352ZM203.596 146V140.606H202.636V139.868H203.596V138.818C203.596 138.378 203.706 138.042 203.926 137.81C204.15 137.574 204.468 137.456 204.88 137.456C205.052 137.456 205.222 137.478 205.39 137.522C205.562 137.566 205.726 137.63 205.882 137.714V138.422C205.718 138.346 205.572 138.292 205.444 138.26C205.316 138.228 205.186 138.212 205.054 138.212C204.834 138.212 204.676 138.27 204.58 138.386C204.484 138.498 204.436 138.688 204.436 138.956V139.868H205.882V140.606H204.436V146H203.596ZM207.22 146V139.868H208.06V146H207.22ZM207.634 138.638C207.482 138.638 207.352 138.584 207.244 138.476C207.14 138.368 207.088 138.238 207.088 138.086C207.088 137.926 207.14 137.792 207.244 137.684C207.352 137.572 207.482 137.516 207.634 137.516C207.794 137.516 207.926 137.572 208.03 137.684C208.138 137.792 208.192 137.926 208.192 138.086C208.192 138.238 208.138 138.368 208.03 138.476C207.926 138.584 207.794 138.638 207.634 138.638ZM211.841 146.144C211.433 146.144 211.041 146.056 210.665 145.88C210.289 145.704 209.973 145.46 209.717 145.148L210.329 144.626C210.549 144.866 210.793 145.052 211.061 145.184C211.329 145.316 211.593 145.382 211.853 145.382C212.245 145.382 212.547 145.302 212.759 145.142C212.975 144.982 213.083 144.758 213.083 144.47C213.083 144.29 213.033 144.126 212.933 143.978C212.837 143.83 212.679 143.692 212.459 143.564C212.239 143.432 211.949 143.298 211.589 143.162C210.941 142.922 210.475 142.66 210.191 142.376C209.907 142.088 209.765 141.732 209.765 141.308C209.765 140.836 209.947 140.454 210.311 140.162C210.679 139.87 211.157 139.724 211.745 139.724C212.133 139.724 212.497 139.8 212.837 139.952C213.177 140.1 213.467 140.314 213.707 140.594L213.119 141.086C212.727 140.686 212.265 140.486 211.733 140.486C211.385 140.486 211.109 140.56 210.905 140.708C210.705 140.852 210.605 141.052 210.605 141.308C210.605 141.544 210.709 141.748 210.917 141.92C211.125 142.088 211.505 142.274 212.057 142.478C212.505 142.646 212.865 142.824 213.137 143.012C213.409 143.196 213.605 143.406 213.725 143.642C213.849 143.878 213.911 144.15 213.911 144.458C213.911 144.982 213.727 145.394 213.359 145.694C212.991 145.994 212.485 146.144 211.841 146.144ZM217.3 146.144C216.892 146.144 216.5 146.056 216.124 145.88C215.748 145.704 215.432 145.46 215.176 145.148L215.788 144.626C216.008 144.866 216.252 145.052 216.52 145.184C216.788 145.316 217.052 145.382 217.312 145.382C217.704 145.382 218.006 145.302 218.218 145.142C218.434 144.982 218.542 144.758 218.542 144.47C218.542 144.29 218.492 144.126 218.392 143.978C218.296 143.83 218.138 143.692 217.918 143.564C217.698 143.432 217.408 143.298 217.048 143.162C216.4 142.922 215.934 142.66 215.65 142.376C215.366 142.088 215.224 141.732 215.224 141.308C215.224 140.836 215.406 140.454 215.77 140.162C216.138 139.87 216.616 139.724 217.204 139.724C217.592 139.724 217.956 139.8 218.296 139.952C218.636 140.1 218.926 140.314 219.166 140.594L218.578 141.086C218.186 140.686 217.724 140.486 217.192 140.486C216.844 140.486 216.568 140.56 216.364 140.708C216.164 140.852 216.064 141.052 216.064 141.308C216.064 141.544 216.168 141.748 216.376 141.92C216.584 142.088 216.964 142.274 217.516 142.478C217.964 142.646 218.324 142.824 218.596 143.012C218.868 143.196 219.064 143.406 219.184 143.642C219.308 143.878 219.37 144.15 219.37 144.458C219.37 144.982 219.186 145.394 218.818 145.694C218.45 145.994 217.944 146.144 217.3 146.144ZM221.042 146V139.868H221.882V146H221.042ZM221.456 138.638C221.304 138.638 221.174 138.584 221.066 138.476C220.962 138.368 220.91 138.238 220.91 138.086C220.91 137.926 220.962 137.792 221.066 137.684C221.174 137.572 221.304 137.516 221.456 137.516C221.616 137.516 221.748 137.572 221.852 137.684C221.96 137.792 222.014 137.926 222.014 138.086C222.014 138.238 221.96 138.368 221.852 138.476C221.748 138.584 221.616 138.638 221.456 138.638ZM226.159 146.144C225.351 146.144 224.713 145.858 224.245 145.286C223.777 144.71 223.543 143.928 223.543 142.94C223.543 142.28 223.649 141.71 223.861 141.23C224.073 140.75 224.375 140.38 224.767 140.12C225.159 139.856 225.623 139.724 226.159 139.724C226.699 139.724 227.165 139.854 227.557 140.114C227.949 140.37 228.249 140.738 228.457 141.218C228.669 141.698 228.775 142.268 228.775 142.928C228.775 143.588 228.669 144.16 228.457 144.644C228.245 145.124 227.943 145.494 227.551 145.754C227.159 146.014 226.695 146.144 226.159 146.144ZM226.159 145.352C226.711 145.352 227.141 145.138 227.449 144.71C227.761 144.282 227.917 143.688 227.917 142.928C227.917 142.164 227.761 141.57 227.449 141.146C227.141 140.722 226.711 140.51 226.159 140.51C225.599 140.51 225.165 140.722 224.857 141.146C224.553 141.566 224.401 142.164 224.401 142.94C224.401 143.704 224.555 144.298 224.863 144.722C225.171 145.142 225.603 145.352 226.159 145.352ZM230.375 146V139.868H231.215V140.654C231.387 140.354 231.615 140.124 231.899 139.964C232.187 139.804 232.513 139.724 232.877 139.724C233.593 139.724 234.125 139.946 234.473 140.39C234.821 140.83 234.995 141.5 234.995 142.4V146H234.155V142.25C234.155 141.678 234.035 141.244 233.795 140.948C233.555 140.648 233.207 140.498 232.751 140.498C232.247 140.498 231.865 140.652 231.605 140.96C231.345 141.268 231.215 141.722 231.215 142.322V146H230.375ZM238.733 146.144C238.085 146.144 237.577 145.964 237.209 145.604C236.841 145.24 236.657 144.74 236.657 144.104C236.657 143.696 236.747 143.342 236.927 143.042C237.111 142.742 237.369 142.512 237.701 142.352C238.037 142.188 238.433 142.106 238.889 142.106C239.189 142.106 239.475 142.144 239.747 142.22C240.023 142.296 240.289 142.41 240.545 142.562V141.974C240.545 141.454 240.431 141.072 240.203 140.828C239.979 140.584 239.629 140.462 239.153 140.462C238.869 140.462 238.567 140.516 238.247 140.624C237.931 140.728 237.631 140.876 237.347 141.068L237.101 140.36C237.425 140.156 237.775 140 238.151 139.892C238.527 139.78 238.895 139.724 239.255 139.724C239.943 139.724 240.463 139.904 240.815 140.264C241.167 140.624 241.343 141.154 241.343 141.854V146H240.545V145.304C240.301 145.572 240.021 145.78 239.705 145.928C239.393 146.072 239.069 146.144 238.733 146.144ZM238.841 145.406C239.149 145.406 239.449 145.326 239.741 145.166C240.033 145.002 240.301 144.768 240.545 144.464V143.318C240.309 143.166 240.053 143.05 239.777 142.97C239.505 142.886 239.241 142.844 238.985 142.844C238.525 142.844 238.157 142.96 237.881 143.192C237.609 143.42 237.473 143.726 237.473 144.11C237.473 144.506 237.595 144.822 237.839 145.058C238.083 145.29 238.417 145.406 238.841 145.406ZM243.202 146V139.868H244.042V146H243.202ZM243.616 138.638C243.464 138.638 243.334 138.584 243.226 138.476C243.122 138.368 243.07 138.238 243.07 138.086C243.07 137.926 243.122 137.792 243.226 137.684C243.334 137.572 243.464 137.516 243.616 137.516C243.776 137.516 243.908 137.572 244.012 137.684C244.12 137.792 244.174 137.926 244.174 138.086C244.174 138.238 244.12 138.368 244.012 138.476C243.908 138.584 243.776 138.638 243.616 138.638ZM247.822 146.144C247.414 146.144 247.022 146.056 246.646 145.88C246.27 145.704 245.954 145.46 245.698 145.148L246.31 144.626C246.53 144.866 246.774 145.052 247.042 145.184C247.31 145.316 247.574 145.382 247.834 145.382C248.226 145.382 248.528 145.302 248.74 145.142C248.956 144.982 249.064 144.758 249.064 144.47C249.064 144.29 249.014 144.126 248.914 143.978C248.818 143.83 248.66 143.692 248.44 143.564C248.22 143.432 247.93 143.298 247.57 143.162C246.922 142.922 246.456 142.66 246.172 142.376C245.888 142.088 245.746 141.732 245.746 141.308C245.746 140.836 245.928 140.454 246.292 140.162C246.66 139.87 247.138 139.724 247.726 139.724C248.114 139.724 248.478 139.8 248.818 139.952C249.158 140.1 249.448 140.314 249.688 140.594L249.1 141.086C248.708 140.686 248.246 140.486 247.714 140.486C247.366 140.486 247.09 140.56 246.886 140.708C246.686 140.852 246.586 141.052 246.586 141.308C246.586 141.544 246.69 141.748 246.898 141.92C247.106 142.088 247.486 142.274 248.038 142.478C248.486 142.646 248.846 142.824 249.118 143.012C249.39 143.196 249.586 143.406 249.706 143.642C249.83 143.878 249.892 144.15 249.892 144.458C249.892 144.982 249.708 145.394 249.34 145.694C248.972 145.994 248.466 146.144 247.822 146.144ZM256.273 146.144C255.513 146.144 254.911 145.856 254.467 145.28C254.027 144.7 253.807 143.916 253.807 142.928C253.807 142.264 253.907 141.694 254.107 141.218C254.307 140.738 254.593 140.37 254.965 140.114C255.341 139.854 255.787 139.724 256.303 139.724C256.939 139.724 257.477 139.968 257.917 140.456V137.738L258.757 137.336V146H257.917V145.388C257.489 145.892 256.941 146.144 256.273 146.144ZM256.399 145.352C256.699 145.352 256.985 145.266 257.257 145.094C257.529 144.918 257.749 144.68 257.917 144.38V141.44C257.737 141.152 257.511 140.926 257.239 140.762C256.971 140.594 256.691 140.51 256.399 140.51C255.847 140.51 255.419 140.72 255.115 141.14C254.815 141.556 254.665 142.152 254.665 142.928C254.665 143.404 254.739 143.824 254.887 144.188C255.035 144.552 255.239 144.838 255.499 145.046C255.759 145.25 256.059 145.352 256.399 145.352ZM263.036 146.144C262.492 146.144 262.022 146.01 261.626 145.742C261.234 145.47 260.932 145.092 260.72 144.608C260.508 144.124 260.402 143.564 260.402 142.928C260.402 142.252 260.512 141.676 260.732 141.2C260.956 140.72 261.266 140.354 261.662 140.102C262.058 139.85 262.516 139.724 263.036 139.724C263.488 139.724 263.898 139.83 264.266 140.042C264.634 140.254 264.926 140.582 265.142 141.026C265.358 141.47 265.466 142.04 265.466 142.736C265.466 142.808 265.464 142.89 265.46 142.982C265.456 143.07 265.45 143.162 265.442 143.258H261.272C261.304 143.682 261.39 144.054 261.53 144.374C261.674 144.69 261.872 144.94 262.124 145.124C262.38 145.304 262.694 145.394 263.066 145.394C263.318 145.394 263.56 145.35 263.792 145.262C264.024 145.17 264.24 145.03 264.44 144.842L264.932 145.406C264.708 145.618 264.432 145.794 264.104 145.934C263.78 146.074 263.424 146.144 263.036 146.144ZM261.26 142.52H264.608C264.608 142.14 264.55 141.794 264.434 141.482C264.322 141.17 264.148 140.922 263.912 140.738C263.68 140.554 263.388 140.462 263.036 140.462C262.56 140.462 262.154 140.626 261.818 140.954C261.486 141.282 261.3 141.804 261.26 142.52ZM186.331 160.144C185.523 160.144 184.885 159.858 184.417 159.286C183.949 158.71 183.715 157.928 183.715 156.94C183.715 156.28 183.821 155.71 184.033 155.23C184.245 154.75 184.547 154.38 184.939 154.12C185.331 153.856 185.795 153.724 186.331 153.724C186.871 153.724 187.337 153.854 187.729 154.114C188.121 154.37 188.421 154.738 188.629 155.218C188.841 155.698 188.947 156.268 188.947 156.928C188.947 157.588 188.841 158.16 188.629 158.644C188.417 159.124 188.115 159.494 187.723 159.754C187.331 160.014 186.867 160.144 186.331 160.144ZM186.331 159.352C186.883 159.352 187.313 159.138 187.621 158.71C187.933 158.282 188.089 157.688 188.089 156.928C188.089 156.164 187.933 155.57 187.621 155.146C187.313 154.722 186.883 154.51 186.331 154.51C185.771 154.51 185.337 154.722 185.029 155.146C184.725 155.566 184.573 156.164 184.573 156.94C184.573 157.704 184.727 158.298 185.035 158.722C185.343 159.142 185.775 159.352 186.331 159.352ZM192.682 160.144C191.958 160.144 191.418 159.924 191.062 159.484C190.71 159.044 190.534 158.374 190.534 157.474V153.868H191.374V157.612C191.374 158.188 191.494 158.624 191.734 158.92C191.974 159.216 192.322 159.364 192.778 159.364C193.286 159.364 193.668 159.21 193.924 158.902C194.184 158.59 194.314 158.134 194.314 157.534V153.868H195.154V160H194.314V159.262C194.13 159.558 193.902 159.78 193.63 159.928C193.362 160.072 193.046 160.144 192.682 160.144ZM198.797 160.144C198.393 160.144 198.085 160.022 197.873 159.778C197.665 159.53 197.561 159.172 197.561 158.704V154.606H196.547V153.868H197.561V151.744L198.401 151.336V153.868H199.925V154.606H198.401V158.452C198.401 158.772 198.453 159.004 198.557 159.148C198.665 159.288 198.837 159.358 199.073 159.358C199.361 159.358 199.663 159.254 199.979 159.046L199.883 159.874C199.723 159.966 199.551 160.034 199.367 160.078C199.183 160.122 198.993 160.144 198.797 160.144ZM201.041 160V153.868H201.881V154.84C202.033 154.48 202.243 154.204 202.511 154.012C202.783 153.82 203.097 153.724 203.453 153.724C203.821 153.724 204.121 153.822 204.353 154.018L204.227 154.816C204.107 154.732 203.975 154.67 203.831 154.63C203.691 154.59 203.539 154.57 203.375 154.57C203.079 154.57 202.819 154.654 202.595 154.822C202.371 154.99 202.195 155.224 202.067 155.524C201.943 155.82 201.881 156.166 201.881 156.562V160H201.041ZM207.043 160.144C206.395 160.144 205.887 159.964 205.519 159.604C205.151 159.24 204.967 158.74 204.967 158.104C204.967 157.696 205.057 157.342 205.237 157.042C205.421 156.742 205.679 156.512 206.011 156.352C206.347 156.188 206.743 156.106 207.199 156.106C207.499 156.106 207.785 156.144 208.057 156.22C208.333 156.296 208.599 156.41 208.855 156.562V155.974C208.855 155.454 208.741 155.072 208.513 154.828C208.289 154.584 207.939 154.462 207.463 154.462C207.179 154.462 206.877 154.516 206.557 154.624C206.241 154.728 205.941 154.876 205.657 155.068L205.411 154.36C205.735 154.156 206.085 154 206.461 153.892C206.837 153.78 207.205 153.724 207.565 153.724C208.253 153.724 208.773 153.904 209.125 154.264C209.477 154.624 209.653 155.154 209.653 155.854V160H208.855V159.304C208.611 159.572 208.331 159.78 208.015 159.928C207.703 160.072 207.379 160.144 207.043 160.144ZM207.151 159.406C207.459 159.406 207.759 159.326 208.051 159.166C208.343 159.002 208.611 158.768 208.855 158.464V157.318C208.619 157.166 208.363 157.05 208.087 156.97C207.815 156.886 207.551 156.844 207.295 156.844C206.835 156.844 206.467 156.96 206.191 157.192C205.919 157.42 205.783 157.726 205.783 158.11C205.783 158.506 205.905 158.822 206.149 159.058C206.393 159.29 206.727 159.406 207.151 159.406ZM213.229 160.144C212.821 160.144 212.429 160.056 212.053 159.88C211.677 159.704 211.361 159.46 211.105 159.148L211.717 158.626C211.937 158.866 212.181 159.052 212.449 159.184C212.717 159.316 212.981 159.382 213.241 159.382C213.633 159.382 213.935 159.302 214.147 159.142C214.363 158.982 214.471 158.758 214.471 158.47C214.471 158.29 214.421 158.126 214.321 157.978C214.225 157.83 214.067 157.692 213.847 157.564C213.627 157.432 213.337 157.298 212.977 157.162C212.329 156.922 211.863 156.66 211.579 156.376C211.295 156.088 211.153 155.732 211.153 155.308C211.153 154.836 211.335 154.454 211.699 154.162C212.067 153.87 212.545 153.724 213.133 153.724C213.521 153.724 213.885 153.8 214.225 153.952C214.565 154.1 214.855 154.314 215.095 154.594L214.507 155.086C214.115 154.686 213.653 154.486 213.121 154.486C212.773 154.486 212.497 154.56 212.293 154.708C212.093 154.852 211.993 155.052 211.993 155.308C211.993 155.544 212.097 155.748 212.305 155.92C212.513 156.088 212.893 156.274 213.445 156.478C213.893 156.646 214.253 156.824 214.525 157.012C214.797 157.196 214.993 157.406 215.113 157.642C215.237 157.878 215.299 158.15 215.299 158.458C215.299 158.982 215.115 159.394 214.747 159.694C214.379 159.994 213.873 160.144 213.229 160.144ZM221.308 160.144C220.66 160.144 220.152 159.964 219.784 159.604C219.416 159.24 219.232 158.74 219.232 158.104C219.232 157.696 219.322 157.342 219.502 157.042C219.686 156.742 219.944 156.512 220.276 156.352C220.612 156.188 221.008 156.106 221.464 156.106C221.764 156.106 222.05 156.144 222.322 156.22C222.598 156.296 222.864 156.41 223.12 156.562V155.974C223.12 155.454 223.006 155.072 222.778 154.828C222.554 154.584 222.204 154.462 221.728 154.462C221.444 154.462 221.142 154.516 220.822 154.624C220.506 154.728 220.206 154.876 219.922 155.068L219.676 154.36C220 154.156 220.35 154 220.726 153.892C221.102 153.78 221.47 153.724 221.83 153.724C222.518 153.724 223.038 153.904 223.39 154.264C223.742 154.624 223.918 155.154 223.918 155.854V160H223.12V159.304C222.876 159.572 222.596 159.78 222.28 159.928C221.968 160.072 221.644 160.144 221.308 160.144ZM221.416 159.406C221.724 159.406 222.024 159.326 222.316 159.166C222.608 159.002 222.876 158.768 223.12 158.464V157.318C222.884 157.166 222.628 157.05 222.352 156.97C222.08 156.886 221.816 156.844 221.56 156.844C221.1 156.844 220.732 156.96 220.456 157.192C220.184 157.42 220.048 157.726 220.048 158.11C220.048 158.506 220.17 158.822 220.414 159.058C220.658 159.29 220.992 159.406 221.416 159.406ZM221.206 153.088L222.946 151.216H224.158L222.058 153.088H221.206ZM225.754 160V153.868H226.594V154.84C226.746 154.48 226.956 154.204 227.224 154.012C227.496 153.82 227.81 153.724 228.166 153.724C228.534 153.724 228.834 153.822 229.066 154.018L228.94 154.816C228.82 154.732 228.688 154.67 228.544 154.63C228.404 154.59 228.252 154.57 228.088 154.57C227.792 154.57 227.532 154.654 227.308 154.822C227.084 154.99 226.908 155.224 226.78 155.524C226.656 155.82 226.594 156.166 226.594 156.562V160H225.754ZM232.226 160.144C231.682 160.144 231.212 160.01 230.816 159.742C230.424 159.47 230.122 159.092 229.91 158.608C229.698 158.124 229.592 157.564 229.592 156.928C229.592 156.252 229.702 155.676 229.922 155.2C230.146 154.72 230.456 154.354 230.852 154.102C231.248 153.85 231.706 153.724 232.226 153.724C232.678 153.724 233.088 153.83 233.456 154.042C233.824 154.254 234.116 154.582 234.332 155.026C234.548 155.47 234.656 156.04 234.656 156.736C234.656 156.808 234.654 156.89 234.65 156.982C234.646 157.07 234.64 157.162 234.632 157.258H230.462C230.494 157.682 230.58 158.054 230.72 158.374C230.864 158.69 231.062 158.94 231.314 159.124C231.57 159.304 231.884 159.394 232.256 159.394C232.508 159.394 232.75 159.35 232.982 159.262C233.214 159.17 233.43 159.03 233.63 158.842L234.122 159.406C233.898 159.618 233.622 159.794 233.294 159.934C232.97 160.074 232.614 160.144 232.226 160.144ZM230.45 156.52H233.798C233.798 156.14 233.74 155.794 233.624 155.482C233.512 155.17 233.338 154.922 233.102 154.738C232.87 154.554 232.578 154.462 232.226 154.462C231.75 154.462 231.344 154.626 231.008 154.954C230.676 155.282 230.49 155.804 230.45 156.52ZM237.894 160.144C237.246 160.144 236.738 159.964 236.37 159.604C236.002 159.24 235.818 158.74 235.818 158.104C235.818 157.696 235.908 157.342 236.088 157.042C236.272 156.742 236.53 156.512 236.862 156.352C237.198 156.188 237.594 156.106 238.05 156.106C238.35 156.106 238.636 156.144 238.908 156.22C239.184 156.296 239.45 156.41 239.706 156.562V155.974C239.706 155.454 239.592 155.072 239.364 154.828C239.14 154.584 238.79 154.462 238.314 154.462C238.03 154.462 237.728 154.516 237.408 154.624C237.092 154.728 236.792 154.876 236.508 155.068L236.262 154.36C236.586 154.156 236.936 154 237.312 153.892C237.688 153.78 238.056 153.724 238.416 153.724C239.104 153.724 239.624 153.904 239.976 154.264C240.328 154.624 240.504 155.154 240.504 155.854V160H239.706V159.304C239.462 159.572 239.182 159.78 238.866 159.928C238.554 160.072 238.23 160.144 237.894 160.144ZM238.002 159.406C238.31 159.406 238.61 159.326 238.902 159.166C239.194 159.002 239.462 158.768 239.706 158.464V157.318C239.47 157.166 239.214 157.05 238.938 156.97C238.666 156.886 238.402 156.844 238.146 156.844C237.686 156.844 237.318 156.96 237.042 157.192C236.77 157.42 236.634 157.726 236.634 158.11C236.634 158.506 236.756 158.822 237 159.058C237.244 159.29 237.578 159.406 238.002 159.406ZM244.079 160.144C243.671 160.144 243.279 160.056 242.903 159.88C242.527 159.704 242.211 159.46 241.955 159.148L242.567 158.626C242.787 158.866 243.031 159.052 243.299 159.184C243.567 159.316 243.831 159.382 244.091 159.382C244.483 159.382 244.785 159.302 244.997 159.142C245.213 158.982 245.321 158.758 245.321 158.47C245.321 158.29 245.271 158.126 245.171 157.978C245.075 157.83 244.917 157.692 244.697 157.564C244.477 157.432 244.187 157.298 243.827 157.162C243.179 156.922 242.713 156.66 242.429 156.376C242.145 156.088 242.003 155.732 242.003 155.308C242.003 154.836 242.185 154.454 242.549 154.162C242.917 153.87 243.395 153.724 243.983 153.724C244.371 153.724 244.735 153.8 245.075 153.952C245.415 154.1 245.705 154.314 245.945 154.594L245.357 155.086C244.965 154.686 244.503 154.486 243.971 154.486C243.623 154.486 243.347 154.56 243.143 154.708C242.943 154.852 242.843 155.052 242.843 155.308C242.843 155.544 242.947 155.748 243.155 155.92C243.363 156.088 243.743 156.274 244.295 156.478C244.743 156.646 245.103 156.824 245.375 157.012C245.647 157.196 245.843 157.406 245.963 157.642C246.087 157.878 246.149 158.15 246.149 158.458C246.149 158.982 245.965 159.394 245.597 159.694C245.229 159.994 244.723 160.144 244.079 160.144ZM250.443 160V153.868H251.283V154.654C251.455 154.354 251.683 154.124 251.967 153.964C252.255 153.804 252.581 153.724 252.945 153.724C253.661 153.724 254.193 153.946 254.541 154.39C254.889 154.83 255.063 155.5 255.063 156.4V160H254.223V156.25C254.223 155.678 254.103 155.244 253.863 154.948C253.623 154.648 253.275 154.498 252.819 154.498C252.315 154.498 251.933 154.652 251.673 154.96C251.413 155.268 251.283 155.722 251.283 156.322V160H250.443ZM259.451 160.144C258.643 160.144 258.005 159.858 257.537 159.286C257.069 158.71 256.835 157.928 256.835 156.94C256.835 156.28 256.941 155.71 257.153 155.23C257.365 154.75 257.667 154.38 258.059 154.12C258.451 153.856 258.915 153.724 259.451 153.724C259.991 153.724 260.457 153.854 260.849 154.114C261.241 154.37 261.541 154.738 261.749 155.218C261.961 155.698 262.067 156.268 262.067 156.928C262.067 157.588 261.961 158.16 261.749 158.644C261.537 159.124 261.235 159.494 260.843 159.754C260.451 160.014 259.987 160.144 259.451 160.144ZM259.451 159.352C260.003 159.352 260.433 159.138 260.741 158.71C261.053 158.282 261.209 157.688 261.209 156.928C261.209 156.164 261.053 155.57 260.741 155.146C260.433 154.722 260.003 154.51 259.451 154.51C258.891 154.51 258.457 154.722 258.149 155.146C257.845 155.566 257.693 156.164 257.693 156.94C257.693 157.704 257.847 158.298 258.155 158.722C258.463 159.142 258.895 159.352 259.451 159.352ZM265.337 160.144C264.929 160.144 264.537 160.056 264.161 159.88C263.785 159.704 263.469 159.46 263.213 159.148L263.825 158.626C264.045 158.866 264.289 159.052 264.557 159.184C264.825 159.316 265.089 159.382 265.349 159.382C265.741 159.382 266.043 159.302 266.255 159.142C266.471 158.982 266.579 158.758 266.579 158.47C266.579 158.29 266.529 158.126 266.429 157.978C266.333 157.83 266.175 157.692 265.955 157.564C265.735 157.432 265.445 157.298 265.085 157.162C264.437 156.922 263.971 156.66 263.687 156.376C263.403 156.088 263.261 155.732 263.261 155.308C263.261 154.836 263.443 154.454 263.807 154.162C264.175 153.87 264.653 153.724 265.241 153.724C265.629 153.724 265.993 153.8 266.333 153.952C266.673 154.1 266.963 154.314 267.203 154.594L266.615 155.086C266.223 154.686 265.761 154.486 265.229 154.486C264.881 154.486 264.605 154.56 264.401 154.708C264.201 154.852 264.101 155.052 264.101 155.308C264.101 155.544 264.205 155.748 264.413 155.92C264.621 156.088 265.001 156.274 265.553 156.478C266.001 156.646 266.361 156.824 266.633 157.012C266.905 157.196 267.101 157.406 267.221 157.642C267.345 157.878 267.407 158.15 267.407 158.458C267.407 158.982 267.223 159.394 266.855 159.694C266.487 159.994 265.981 160.144 265.337 160.144ZM211.436 176.562L211.034 175.914C211.594 175.838 211.992 175.69 212.228 175.47C212.464 175.254 212.582 174.928 212.582 174.492V167.868H213.422V174.228C213.422 174.928 213.262 175.47 212.942 175.854C212.622 176.238 212.12 176.474 211.436 176.562ZM213.002 166.638C212.85 166.638 212.72 166.584 212.612 166.476C212.504 166.368 212.45 166.238 212.45 166.086C212.45 165.926 212.504 165.792 212.612 165.684C212.72 165.572 212.85 165.516 213.002 165.516C213.154 165.516 213.284 165.57 213.392 165.678C213.5 165.786 213.554 165.922 213.554 166.086C213.554 166.238 213.502 166.368 213.398 166.476C213.294 166.584 213.162 166.638 213.002 166.638ZM217.7 174.144C216.892 174.144 216.254 173.858 215.786 173.286C215.318 172.71 215.084 171.928 215.084 170.94C215.084 170.28 215.19 169.71 215.402 169.23C215.614 168.75 215.916 168.38 216.308 168.12C216.7 167.856 217.164 167.724 217.7 167.724C218.24 167.724 218.706 167.854 219.098 168.114C219.49 168.37 219.79 168.738 219.998 169.218C220.21 169.698 220.316 170.268 220.316 170.928C220.316 171.588 220.21 172.16 219.998 172.644C219.786 173.124 219.484 173.494 219.092 173.754C218.7 174.014 218.236 174.144 217.7 174.144ZM217.7 173.352C218.252 173.352 218.682 173.138 218.99 172.71C219.302 172.282 219.458 171.688 219.458 170.928C219.458 170.164 219.302 169.57 218.99 169.146C218.682 168.722 218.252 168.51 217.7 168.51C217.14 168.51 216.706 168.722 216.398 169.146C216.094 169.566 215.942 170.164 215.942 170.94C215.942 171.704 216.096 172.298 216.404 172.722C216.712 173.142 217.144 173.352 217.7 173.352ZM223.832 176.556L223.418 175.884C223.974 175.852 224.428 175.772 224.78 175.644C225.132 175.52 225.392 175.342 225.56 175.11C225.728 174.878 225.812 174.584 225.812 174.228V173.262C225.444 173.85 224.888 174.144 224.144 174.144C223.652 174.144 223.222 174.01 222.854 173.742C222.486 173.474 222.2 173.1 221.996 172.62C221.792 172.136 221.69 171.572 221.69 170.928C221.69 170.276 221.792 169.71 221.996 169.23C222.204 168.75 222.494 168.38 222.866 168.12C223.238 167.856 223.678 167.724 224.186 167.724C224.518 167.724 224.828 167.794 225.116 167.934C225.408 168.07 225.64 168.258 225.812 168.498V167.868H226.652V173.982C226.652 174.39 226.594 174.748 226.478 175.056C226.366 175.368 226.192 175.63 225.956 175.842C225.724 176.054 225.43 176.218 225.074 176.334C224.722 176.454 224.308 176.528 223.832 176.556ZM224.294 173.352C224.594 173.352 224.882 173.26 225.158 173.076C225.434 172.888 225.652 172.642 225.812 172.338V169.446C225.656 169.166 225.438 168.94 225.158 168.768C224.882 168.596 224.598 168.51 224.306 168.51C223.738 168.51 223.302 168.718 222.998 169.134C222.698 169.546 222.548 170.144 222.548 170.928C222.548 171.416 222.62 171.842 222.764 172.206C222.912 172.566 223.116 172.848 223.376 173.052C223.64 173.252 223.946 173.352 224.294 173.352ZM230.866 174.144C230.058 174.144 229.42 173.858 228.952 173.286C228.484 172.71 228.25 171.928 228.25 170.94C228.25 170.28 228.356 169.71 228.568 169.23C228.78 168.75 229.082 168.38 229.474 168.12C229.866 167.856 230.33 167.724 230.866 167.724C231.406 167.724 231.872 167.854 232.264 168.114C232.656 168.37 232.956 168.738 233.164 169.218C233.376 169.698 233.482 170.268 233.482 170.928C233.482 171.588 233.376 172.16 233.164 172.644C232.952 173.124 232.65 173.494 232.258 173.754C231.866 174.014 231.402 174.144 230.866 174.144ZM230.866 173.352C231.418 173.352 231.848 173.138 232.156 172.71C232.468 172.282 232.624 171.688 232.624 170.928C232.624 170.164 232.468 169.57 232.156 169.146C231.848 168.722 231.418 168.51 230.866 168.51C230.306 168.51 229.872 168.722 229.564 169.146C229.26 169.566 229.108 170.164 229.108 170.94C229.108 171.704 229.262 172.298 229.57 172.722C229.878 173.142 230.31 173.352 230.866 173.352ZM236.752 174.144C236.344 174.144 235.952 174.056 235.576 173.88C235.2 173.704 234.884 173.46 234.628 173.148L235.24 172.626C235.46 172.866 235.704 173.052 235.972 173.184C236.24 173.316 236.504 173.382 236.764 173.382C237.156 173.382 237.458 173.302 237.67 173.142C237.886 172.982 237.994 172.758 237.994 172.47C237.994 172.29 237.944 172.126 237.844 171.978C237.748 171.83 237.59 171.692 237.37 171.564C237.15 171.432 236.86 171.298 236.5 171.162C235.852 170.922 235.386 170.66 235.102 170.376C234.818 170.088 234.676 169.732 234.676 169.308C234.676 168.836 234.858 168.454 235.222 168.162C235.59 167.87 236.068 167.724 236.656 167.724C237.044 167.724 237.408 167.8 237.748 167.952C238.088 168.1 238.378 168.314 238.618 168.594L238.03 169.086C237.638 168.686 237.176 168.486 236.644 168.486C236.296 168.486 236.02 168.56 235.816 168.708C235.616 168.852 235.516 169.052 235.516 169.308C235.516 169.544 235.62 169.748 235.828 169.92C236.036 170.088 236.416 170.274 236.968 170.478C237.416 170.646 237.776 170.824 238.048 171.012C238.32 171.196 238.516 171.406 238.636 171.642C238.76 171.878 238.822 172.15 238.822 172.458C238.822 172.982 238.638 173.394 238.27 173.694C237.902 173.994 237.396 174.144 236.752 174.144Z" fill="#FE016A"/>
<rect x="3.6" y="3.6" width="302.8" height="192.8" stroke="#FE016A" stroke-width="7.2" stroke-dasharray="7.2 7.2"/>
<rect x="10.6" y="6.6" width="302.8" height="193.8" stroke="#00EAE5" stroke-width="7.2" stroke-dasharray="7.2 7.2"/>
</svg>
