<svg width="310" height="77" viewBox="0 0 310 77" fill="none" xmlns="http://www.w3.org/2000/svg">
<path d="M113.72 39.064C113.299 39.064 112.885 39.216 112.48 39.52C112.08 39.8187 111.733 40.2267 111.44 40.744C111.147 41.256 110.955 41.8373 110.864 42.488C110.72 43.464 110.789 44.2053 111.072 44.712C111.355 45.2133 111.787 45.4613 112.368 45.456C112.667 45.4507 112.963 45.384 113.256 45.256C113.555 45.1227 113.824 44.928 114.064 44.672C114.309 44.4107 114.488 44.0907 114.6 43.712C114.653 43.6213 114.701 43.5547 114.744 43.512C114.787 43.4693 114.835 43.4507 114.888 43.456C114.947 43.456 114.992 43.4827 115.024 43.536C115.056 43.584 115.061 43.6587 115.04 43.76C115.019 43.9893 114.936 44.2427 114.792 44.52C114.648 44.792 114.448 45.0533 114.192 45.304C113.936 45.5493 113.621 45.752 113.248 45.912C112.88 46.0667 112.453 46.144 111.968 46.144C111.035 46.144 110.368 45.8187 109.968 45.168C109.573 44.5173 109.48 43.6507 109.688 42.568C109.789 42.0187 109.968 41.504 110.224 41.024C110.48 40.544 110.795 40.1227 111.168 39.76C111.541 39.3973 111.96 39.1147 112.424 38.912C112.888 38.7093 113.381 38.608 113.904 38.608C114.304 38.608 114.637 38.68 114.904 38.824C115.176 38.968 115.379 39.16 115.512 39.4C115.651 39.6347 115.717 39.896 115.712 40.184C115.707 40.472 115.632 40.6933 115.488 40.848C115.344 40.9973 115.181 41.072 115 41.072C114.845 41.072 114.725 41.032 114.64 40.952C114.555 40.8667 114.512 40.76 114.512 40.632C114.512 40.5147 114.531 40.392 114.568 40.264C114.611 40.1307 114.632 39.9947 114.632 39.856C114.632 39.6213 114.552 39.432 114.392 39.288C114.232 39.1387 114.008 39.064 113.72 39.064ZM120.796 38.608C121.361 38.6293 121.849 38.7867 122.26 39.08C122.67 39.3733 122.964 39.7867 123.14 40.32C123.316 40.8533 123.337 41.4987 123.204 42.256C123.102 42.8267 122.916 43.3547 122.644 43.84C122.377 44.3253 122.046 44.744 121.652 45.096C121.262 45.448 120.83 45.7173 120.356 45.904C119.886 46.0907 119.393 46.1707 118.876 46.144C118.332 46.1173 117.86 45.96 117.46 45.672C117.06 45.384 116.774 44.9733 116.604 44.44C116.433 43.9013 116.412 43.256 116.54 42.504C116.646 41.928 116.83 41.3973 117.092 40.912C117.358 40.4267 117.684 40.008 118.068 39.656C118.452 39.304 118.876 39.0373 119.34 38.856C119.804 38.6693 120.289 38.5867 120.796 38.608ZM118.964 45.656C119.236 45.6773 119.5 45.6427 119.756 45.552C120.017 45.456 120.265 45.312 120.5 45.12C120.74 44.9227 120.958 44.6827 121.156 44.4C121.353 44.112 121.524 43.784 121.668 43.416C121.817 43.0427 121.934 42.6373 122.02 42.2C122.148 41.5173 122.172 40.952 122.092 40.504C122.017 40.056 121.86 39.7173 121.62 39.488C121.38 39.2533 121.076 39.1227 120.708 39.096C120.441 39.0747 120.182 39.112 119.932 39.208C119.681 39.2987 119.438 39.4427 119.204 39.64C118.974 39.832 118.761 40.072 118.564 40.36C118.372 40.6427 118.204 40.9707 118.06 41.344C117.916 41.712 117.804 42.1173 117.724 42.56C117.59 43.2427 117.561 43.808 117.636 44.256C117.71 44.704 117.862 45.0427 118.092 45.272C118.326 45.5013 118.617 45.6293 118.964 45.656ZM125.009 39.952C124.961 39.9307 124.94 39.8907 124.945 39.832C124.95 39.768 124.974 39.6933 125.017 39.608C125.193 39.304 125.43 39.064 125.729 38.888C126.033 38.7067 126.353 38.616 126.689 38.616C126.934 38.616 127.129 38.6747 127.273 38.792C127.422 38.904 127.497 39.0773 127.497 39.312C127.497 39.4507 127.47 39.6133 127.417 39.8C127.364 39.9867 127.281 40.224 127.169 40.512C127.062 40.7947 126.918 41.1547 126.737 41.592C126.561 42.024 126.342 42.5573 126.081 43.192L126.129 42.776C126.444 41.9973 126.798 41.3413 127.193 40.808C127.588 40.2747 127.99 39.848 128.401 39.528C128.817 39.2027 129.217 38.9707 129.601 38.832C129.99 38.688 130.337 38.616 130.641 38.616C131.068 38.616 131.361 38.7067 131.521 38.888C131.686 39.064 131.75 39.32 131.713 39.656C131.681 39.992 131.582 40.3973 131.417 40.872L130.249 44.192C130.094 44.6347 130.036 44.944 130.073 45.12C130.116 45.296 130.214 45.384 130.369 45.384C130.465 45.384 130.569 45.352 130.681 45.288C130.798 45.224 130.937 45.1093 131.097 44.944C131.172 44.8747 131.233 44.8293 131.281 44.808C131.334 44.7813 131.382 44.7787 131.425 44.8C131.473 44.8267 131.494 44.872 131.489 44.936C131.489 44.9947 131.465 45.0667 131.417 45.152C131.246 45.456 131.012 45.6987 130.713 45.88C130.414 46.056 130.094 46.144 129.753 46.144C129.492 46.144 129.292 46.08 129.153 45.952C129.014 45.8187 128.942 45.6213 128.937 45.36C128.932 45.0987 128.996 44.7787 129.129 44.4L130.329 40.952C130.537 40.36 130.606 39.952 130.537 39.728C130.468 39.504 130.276 39.392 129.961 39.392C129.716 39.392 129.428 39.472 129.097 39.632C128.772 39.792 128.433 40.0373 128.081 40.368C127.729 40.6933 127.393 41.1093 127.073 41.616C126.753 42.1173 126.473 42.7067 126.233 43.384C126.11 43.7413 126.017 44.0213 125.953 44.224C125.889 44.4213 125.844 44.5733 125.817 44.68C125.796 44.7867 125.785 44.8747 125.785 44.944C125.785 45.072 125.804 45.176 125.841 45.256C125.878 45.3307 125.897 45.4267 125.897 45.544C125.897 45.7253 125.812 45.872 125.641 45.984C125.47 46.0907 125.246 46.144 124.969 46.144C124.718 46.144 124.566 46.0373 124.513 45.824C124.465 45.6107 124.529 45.2613 124.705 44.776L126.185 40.576C126.34 40.128 126.398 39.816 126.361 39.64C126.324 39.464 126.225 39.376 126.065 39.376C125.974 39.376 125.87 39.408 125.753 39.472C125.636 39.536 125.497 39.6507 125.337 39.816C125.262 39.8853 125.198 39.9307 125.145 39.952C125.097 39.9733 125.052 39.9733 125.009 39.952ZM135.44 45.696C135.835 45.696 136.158 45.5947 136.408 45.392C136.664 45.184 136.792 44.92 136.792 44.6C136.792 44.44 136.758 44.28 136.688 44.12C136.619 43.96 136.494 43.7787 136.312 43.576C136.136 43.3733 135.878 43.128 135.536 42.84C135.174 42.5307 134.891 42.264 134.688 42.04C134.486 41.816 134.344 41.6027 134.264 41.4C134.184 41.192 134.144 40.96 134.144 40.704C134.144 40.3253 134.254 39.9787 134.472 39.664C134.696 39.344 135.011 39.088 135.416 38.896C135.827 38.704 136.315 38.608 136.88 38.608C137.318 38.608 137.688 38.672 137.992 38.8C138.302 38.928 138.539 39.096 138.704 39.304C138.87 39.5067 138.952 39.72 138.952 39.944C138.952 40.0987 138.912 40.2187 138.832 40.304C138.758 40.3893 138.656 40.432 138.528 40.432C138.411 40.432 138.307 40.3947 138.216 40.32C138.126 40.24 138.035 40.1013 137.944 39.904C137.816 39.6213 137.654 39.4027 137.456 39.248C137.259 39.0933 137.014 39.016 136.72 39.016C136.256 39.016 135.886 39.1413 135.608 39.392C135.331 39.6373 135.192 39.9413 135.192 40.304C135.192 40.4747 135.224 40.6453 135.288 40.816C135.358 40.9813 135.48 41.168 135.656 41.376C135.832 41.5787 136.088 41.8267 136.424 42.12C136.803 42.4507 137.094 42.7307 137.296 42.96C137.504 43.1893 137.648 43.4027 137.728 43.6C137.808 43.7973 137.848 44.0133 137.848 44.248C137.843 44.6107 137.734 44.936 137.52 45.224C137.312 45.5067 137.011 45.7307 136.616 45.896C136.222 46.0613 135.755 46.144 135.216 46.144C134.758 46.144 134.36 46.0693 134.024 45.92C133.688 45.7707 133.427 45.5813 133.24 45.352C133.054 45.1173 132.96 44.88 132.96 44.64C132.966 44.4907 133.003 44.3733 133.072 44.288C133.147 44.2027 133.243 44.16 133.36 44.16C133.478 44.16 133.587 44.2 133.688 44.28C133.79 44.36 133.886 44.496 133.976 44.688C134.168 45.0507 134.387 45.3093 134.632 45.464C134.878 45.6187 135.147 45.696 135.44 45.696ZM144.015 38.608C144.58 38.6293 145.068 38.7867 145.479 39.08C145.889 39.3733 146.183 39.7867 146.359 40.32C146.535 40.8533 146.556 41.4987 146.423 42.256C146.321 42.8267 146.135 43.3547 145.863 43.84C145.596 44.3253 145.265 44.744 144.871 45.096C144.481 45.448 144.049 45.7173 143.575 45.904C143.105 46.0907 142.612 46.1707 142.095 46.144C141.551 46.1173 141.079 45.96 140.679 45.672C140.279 45.384 139.993 44.9733 139.823 44.44C139.652 43.9013 139.631 43.256 139.759 42.504C139.865 41.928 140.049 41.3973 140.311 40.912C140.577 40.4267 140.903 40.008 141.287 39.656C141.671 39.304 142.095 39.0373 142.559 38.856C143.023 38.6693 143.508 38.5867 144.015 38.608ZM142.183 45.656C142.455 45.6773 142.719 45.6427 142.975 45.552C143.236 45.456 143.484 45.312 143.719 45.12C143.959 44.9227 144.177 44.6827 144.375 44.4C144.572 44.112 144.743 43.784 144.887 43.416C145.036 43.0427 145.153 42.6373 145.239 42.2C145.367 41.5173 145.391 40.952 145.311 40.504C145.236 40.056 145.079 39.7173 144.839 39.488C144.599 39.2533 144.295 39.1227 143.927 39.096C143.66 39.0747 143.401 39.112 143.151 39.208C142.9 39.2987 142.657 39.4427 142.423 39.64C142.193 39.832 141.98 40.072 141.783 40.36C141.591 40.6427 141.423 40.9707 141.279 41.344C141.135 41.712 141.023 42.1173 140.943 42.56C140.809 43.2427 140.78 43.808 140.855 44.256C140.929 44.704 141.081 45.0427 141.311 45.272C141.545 45.5013 141.836 45.6293 142.183 45.656ZM152.06 44.768L153.396 40.952C153.593 40.376 153.657 39.9733 153.588 39.744C153.524 39.5093 153.364 39.392 153.108 39.392C152.788 39.392 152.401 39.536 151.948 39.824C151.5 40.112 151.052 40.552 150.604 41.144C150.156 41.7307 149.772 42.4773 149.452 43.384C149.329 43.7413 149.236 44.0213 149.172 44.224C149.108 44.4213 149.062 44.5733 149.036 44.68C149.014 44.7867 149.004 44.8747 149.004 44.944C149.004 45.072 149.022 45.176 149.06 45.256C149.097 45.3307 149.116 45.4267 149.116 45.544C149.116 45.7253 149.03 45.872 148.86 45.984C148.689 46.0907 148.465 46.144 148.188 46.144C147.937 46.144 147.785 46.0373 147.732 45.824C147.684 45.6107 147.748 45.256 147.924 44.76L149.404 40.568C149.558 40.1253 149.617 39.816 149.58 39.64C149.542 39.464 149.444 39.376 149.284 39.376C149.193 39.376 149.089 39.408 148.972 39.472C148.854 39.536 148.716 39.6507 148.556 39.816C148.481 39.8853 148.417 39.9307 148.364 39.952C148.316 39.9733 148.27 39.9733 148.228 39.952C148.18 39.9307 148.158 39.8907 148.164 39.832C148.169 39.768 148.193 39.6933 148.236 39.608C148.412 39.304 148.649 39.064 148.948 38.888C149.252 38.7067 149.572 38.616 149.908 38.616C150.153 38.616 150.348 38.6747 150.492 38.792C150.641 38.904 150.716 39.0773 150.716 39.312C150.716 39.4507 150.689 39.6133 150.636 39.8C150.582 39.9867 150.5 40.224 150.388 40.512C150.281 40.7947 150.137 41.152 149.956 41.584C149.78 42.016 149.561 42.552 149.3 43.192L149.348 42.776C149.769 41.736 150.249 40.9147 150.788 40.312C151.332 39.704 151.868 39.2693 152.396 39.008C152.929 38.7467 153.393 38.616 153.788 38.616C154.134 38.616 154.39 38.6933 154.556 38.848C154.721 39.0027 154.793 39.2427 154.772 39.568C154.766 39.7013 154.742 39.848 154.7 40.008C154.657 40.168 154.585 40.376 154.484 40.632C154.388 40.8827 154.257 41.2133 154.092 41.624C153.932 42.0347 153.726 42.5573 153.476 43.192V42.776C153.796 42.0027 154.145 41.3493 154.524 40.816C154.908 40.2827 155.3 39.856 155.7 39.536C156.105 39.2107 156.494 38.976 156.868 38.832C157.246 38.688 157.585 38.616 157.884 38.616C158.257 38.616 158.518 38.7067 158.668 38.888C158.822 39.064 158.886 39.32 158.86 39.656C158.838 39.992 158.745 40.3973 158.58 40.872L157.412 44.192C157.257 44.6347 157.201 44.944 157.244 45.12C157.286 45.296 157.382 45.384 157.532 45.384C157.633 45.384 157.74 45.352 157.852 45.288C157.969 45.224 158.108 45.1093 158.268 44.944C158.342 44.8747 158.404 44.8293 158.452 44.808C158.505 44.7813 158.553 44.7787 158.596 44.8C158.644 44.8267 158.665 44.872 158.66 44.936C158.654 44.9947 158.63 45.0667 158.588 45.152C158.417 45.456 158.18 45.6987 157.876 45.88C157.577 46.056 157.257 46.144 156.916 46.144C156.66 46.144 156.462 46.08 156.324 45.952C156.185 45.8187 156.113 45.6213 156.108 45.36C156.102 45.0987 156.164 44.7787 156.292 44.4L157.492 40.952C157.7 40.376 157.766 39.9733 157.692 39.744C157.617 39.5093 157.454 39.392 157.204 39.392C156.884 39.392 156.502 39.5387 156.06 39.832C155.617 40.12 155.174 40.56 154.732 41.152C154.289 41.7387 153.908 42.4827 153.588 43.384C153.465 43.7413 153.369 44.0213 153.3 44.224C153.236 44.4213 153.193 44.5733 153.172 44.68C153.15 44.7867 153.14 44.8747 153.14 44.944C153.14 45.072 153.158 45.176 153.196 45.256C153.233 45.3307 153.252 45.4267 153.252 45.544C153.252 45.7253 153.164 45.872 152.988 45.984C152.817 46.0907 152.596 46.144 152.324 46.144C152.158 46.144 152.036 46.0987 151.956 46.008C151.876 45.9173 151.844 45.7707 151.86 45.568C151.881 45.3653 151.948 45.0987 152.06 44.768ZM161.085 42.72C161.085 42.72 161.186 42.6773 161.389 42.592C161.597 42.5067 161.866 42.3973 162.197 42.264C162.528 42.1307 162.885 41.984 163.269 41.824C163.658 41.664 164.034 41.5093 164.397 41.36C164.765 41.2107 165.088 41.0773 165.365 40.96L165.221 41.184C165.258 41.0827 165.285 40.9707 165.301 40.848C165.317 40.7253 165.325 40.5733 165.325 40.392C165.325 40.008 165.237 39.688 165.061 39.432C164.885 39.176 164.656 39.048 164.373 39.048C164.085 39.048 163.786 39.1547 163.477 39.368C163.168 39.5813 162.877 39.8747 162.605 40.248C162.333 40.616 162.104 41.0453 161.917 41.536C161.736 42.0213 161.626 42.5413 161.589 43.096C161.536 43.8907 161.666 44.488 161.981 44.888C162.296 45.2827 162.725 45.48 163.269 45.48C163.621 45.48 163.962 45.4133 164.293 45.28C164.629 45.1413 164.928 44.9387 165.189 44.672C165.45 44.4 165.645 44.0667 165.773 43.672C165.816 43.5867 165.858 43.528 165.901 43.496C165.944 43.4587 165.992 43.4427 166.045 43.448C166.109 43.448 166.157 43.4747 166.189 43.528C166.226 43.576 166.232 43.6587 166.205 43.776C166.141 44.1707 165.962 44.552 165.669 44.92C165.376 45.2827 164.984 45.5787 164.493 45.808C164.008 46.032 163.432 46.144 162.765 46.144C162.237 46.144 161.794 46.0373 161.437 45.824C161.08 45.6053 160.816 45.296 160.645 44.896C160.48 44.496 160.413 44.0133 160.445 43.448C160.482 42.808 160.624 42.2 160.869 41.624C161.114 41.0427 161.432 40.5253 161.821 40.072C162.216 39.6187 162.656 39.2613 163.141 39C163.632 38.7387 164.136 38.608 164.653 38.608C165.016 38.608 165.322 38.6853 165.573 38.84C165.829 38.9947 166.024 39.2027 166.157 39.464C166.296 39.72 166.37 40.0053 166.381 40.32C166.386 40.3893 166.405 40.4427 166.437 40.48C166.474 40.5173 166.528 40.5307 166.597 40.52C166.672 40.504 166.725 40.512 166.757 40.544C166.794 40.5707 166.813 40.6107 166.813 40.664C166.813 40.728 166.784 40.7893 166.725 40.848C166.666 40.9013 166.549 40.9627 166.373 41.032C166.176 41.1067 165.912 41.2107 165.581 41.344C165.25 41.4773 164.888 41.624 164.493 41.784C164.104 41.9387 163.712 42.096 163.317 42.256C162.922 42.4107 162.56 42.5547 162.229 42.688C161.904 42.816 161.64 42.92 161.437 43C161.24 43.08 161.141 43.12 161.141 43.12L161.085 42.72ZM172.2 44.768L173.536 40.952C173.734 40.376 173.798 39.9733 173.728 39.744C173.664 39.5093 173.504 39.392 173.248 39.392C172.928 39.392 172.542 39.536 172.088 39.824C171.64 40.112 171.192 40.552 170.744 41.144C170.296 41.7307 169.912 42.4773 169.592 43.384C169.47 43.7413 169.376 44.0213 169.312 44.224C169.248 44.4213 169.203 44.5733 169.176 44.68C169.155 44.7867 169.144 44.8747 169.144 44.944C169.144 45.072 169.163 45.176 169.2 45.256C169.238 45.3307 169.256 45.4267 169.256 45.544C169.256 45.7253 169.171 45.872 169 45.984C168.83 46.0907 168.606 46.144 168.328 46.144C168.078 46.144 167.926 46.0373 167.872 45.824C167.824 45.6107 167.888 45.256 168.064 44.76L169.544 40.568C169.699 40.1253 169.758 39.816 169.72 39.64C169.683 39.464 169.584 39.376 169.424 39.376C169.334 39.376 169.23 39.408 169.112 39.472C168.995 39.536 168.856 39.6507 168.696 39.816C168.622 39.8853 168.558 39.9307 168.504 39.952C168.456 39.9733 168.411 39.9733 168.368 39.952C168.32 39.9307 168.299 39.8907 168.304 39.832C168.31 39.768 168.334 39.6933 168.376 39.608C168.552 39.304 168.79 39.064 169.088 38.888C169.392 38.7067 169.712 38.616 170.048 38.616C170.294 38.616 170.488 38.6747 170.632 38.792C170.782 38.904 170.856 39.0773 170.856 39.312C170.856 39.4507 170.83 39.6133 170.776 39.8C170.723 39.9867 170.64 40.224 170.528 40.512C170.422 40.7947 170.278 41.152 170.096 41.584C169.92 42.016 169.702 42.552 169.44 43.192L169.488 42.776C169.91 41.736 170.39 40.9147 170.928 40.312C171.472 39.704 172.008 39.2693 172.536 39.008C173.07 38.7467 173.534 38.616 173.928 38.616C174.275 38.616 174.531 38.6933 174.696 38.848C174.862 39.0027 174.934 39.2427 174.912 39.568C174.907 39.7013 174.883 39.848 174.84 40.008C174.798 40.168 174.726 40.376 174.624 40.632C174.528 40.8827 174.398 41.2133 174.232 41.624C174.072 42.0347 173.867 42.5573 173.616 43.192V42.776C173.936 42.0027 174.286 41.3493 174.664 40.816C175.048 40.2827 175.44 39.856 175.84 39.536C176.246 39.2107 176.635 38.976 177.008 38.832C177.387 38.688 177.726 38.616 178.024 38.616C178.398 38.616 178.659 38.7067 178.808 38.888C178.963 39.064 179.027 39.32 179 39.656C178.979 39.992 178.886 40.3973 178.72 40.872L177.552 44.192C177.398 44.6347 177.342 44.944 177.384 45.12C177.427 45.296 177.523 45.384 177.672 45.384C177.774 45.384 177.88 45.352 177.992 45.288C178.11 45.224 178.248 45.1093 178.408 44.944C178.483 44.8747 178.544 44.8293 178.592 44.808C178.646 44.7813 178.694 44.7787 178.736 44.8C178.784 44.8267 178.806 44.872 178.8 44.936C178.795 44.9947 178.771 45.0667 178.728 45.152C178.558 45.456 178.32 45.6987 178.016 45.88C177.718 46.056 177.398 46.144 177.056 46.144C176.8 46.144 176.603 46.08 176.464 45.952C176.326 45.8187 176.254 45.6213 176.248 45.36C176.243 45.0987 176.304 44.7787 176.432 44.4L177.632 40.952C177.84 40.376 177.907 39.9733 177.832 39.744C177.758 39.5093 177.595 39.392 177.344 39.392C177.024 39.392 176.643 39.5387 176.2 39.832C175.758 40.12 175.315 40.56 174.872 41.152C174.43 41.7387 174.048 42.4827 173.728 43.384C173.606 43.7413 173.51 44.0213 173.44 44.224C173.376 44.4213 173.334 44.5733 173.312 44.68C173.291 44.7867 173.28 44.8747 173.28 44.944C173.28 45.072 173.299 45.176 173.336 45.256C173.374 45.3307 173.392 45.4267 173.392 45.544C173.392 45.7253 173.304 45.872 173.128 45.984C172.958 46.0907 172.736 46.144 172.464 46.144C172.299 46.144 172.176 46.0987 172.096 46.008C172.016 45.9173 171.984 45.7707 172 45.568C172.022 45.3653 172.088 45.0987 172.2 44.768ZM187.939 39.064C187.517 39.064 187.104 39.216 186.699 39.52C186.299 39.8187 185.952 40.2267 185.659 40.744C185.365 41.256 185.173 41.8373 185.083 42.488C184.939 43.464 185.008 44.2053 185.291 44.712C185.573 45.2133 186.005 45.4613 186.587 45.456C186.885 45.4507 187.181 45.384 187.475 45.256C187.773 45.1227 188.043 44.928 188.283 44.672C188.528 44.4107 188.707 44.0907 188.819 43.712C188.872 43.6213 188.92 43.5547 188.963 43.512C189.005 43.4693 189.053 43.4507 189.107 43.456C189.165 43.456 189.211 43.4827 189.243 43.536C189.275 43.584 189.28 43.6587 189.259 43.76C189.237 43.9893 189.155 44.2427 189.011 44.52C188.867 44.792 188.667 45.0533 188.411 45.304C188.155 45.5493 187.84 45.752 187.467 45.912C187.099 46.0667 186.672 46.144 186.187 46.144C185.253 46.144 184.587 45.8187 184.187 45.168C183.792 44.5173 183.699 43.6507 183.907 42.568C184.008 42.0187 184.187 41.504 184.443 41.024C184.699 40.544 185.013 40.1227 185.387 39.76C185.76 39.3973 186.179 39.1147 186.643 38.912C187.107 38.7093 187.6 38.608 188.123 38.608C188.523 38.608 188.856 38.68 189.123 38.824C189.395 38.968 189.597 39.16 189.731 39.4C189.869 39.6347 189.936 39.896 189.931 40.184C189.925 40.472 189.851 40.6933 189.707 40.848C189.563 40.9973 189.4 41.072 189.219 41.072C189.064 41.072 188.944 41.032 188.859 40.952C188.773 40.8667 188.731 40.76 188.731 40.632C188.731 40.5147 188.749 40.392 188.787 40.264C188.829 40.1307 188.851 39.9947 188.851 39.856C188.851 39.6213 188.771 39.432 188.611 39.288C188.451 39.1387 188.227 39.064 187.939 39.064ZM195.015 38.608C195.58 38.6293 196.068 38.7867 196.479 39.08C196.889 39.3733 197.183 39.7867 197.359 40.32C197.535 40.8533 197.556 41.4987 197.423 42.256C197.321 42.8267 197.135 43.3547 196.863 43.84C196.596 44.3253 196.265 44.744 195.871 45.096C195.481 45.448 195.049 45.7173 194.575 45.904C194.105 46.0907 193.612 46.1707 193.095 46.144C192.551 46.1173 192.079 45.96 191.679 45.672C191.279 45.384 190.993 44.9733 190.823 44.44C190.652 43.9013 190.631 43.256 190.759 42.504C190.865 41.928 191.049 41.3973 191.311 40.912C191.577 40.4267 191.903 40.008 192.287 39.656C192.671 39.304 193.095 39.0373 193.559 38.856C194.023 38.6693 194.508 38.5867 195.015 38.608ZM193.183 45.656C193.455 45.6773 193.719 45.6427 193.975 45.552C194.236 45.456 194.484 45.312 194.719 45.12C194.959 44.9227 195.177 44.6827 195.375 44.4C195.572 44.112 195.743 43.784 195.887 43.416C196.036 43.0427 196.153 42.6373 196.239 42.2C196.367 41.5173 196.391 40.952 196.311 40.504C196.236 40.056 196.079 39.7173 195.839 39.488C195.599 39.2533 195.295 39.1227 194.927 39.096C194.66 39.0747 194.401 39.112 194.151 39.208C193.9 39.2987 193.657 39.4427 193.423 39.64C193.193 39.832 192.98 40.072 192.783 40.36C192.591 40.6427 192.423 40.9707 192.279 41.344C192.135 41.712 192.023 42.1173 191.943 42.56C191.809 43.2427 191.78 43.808 191.855 44.256C191.929 44.704 192.081 45.0427 192.311 45.272C192.545 45.5013 192.836 45.6293 193.183 45.656ZM199.228 39.952C199.18 39.9307 199.158 39.8907 199.164 39.832C199.169 39.768 199.193 39.6933 199.236 39.608C199.412 39.304 199.649 39.064 199.948 38.888C200.252 38.7067 200.572 38.616 200.908 38.616C201.153 38.616 201.348 38.6747 201.492 38.792C201.641 38.904 201.716 39.0773 201.716 39.312C201.716 39.4507 201.689 39.6133 201.636 39.8C201.582 39.9867 201.5 40.224 201.388 40.512C201.281 40.7947 201.137 41.1547 200.956 41.592C200.78 42.024 200.561 42.5573 200.3 43.192L200.348 42.776C200.662 41.9973 201.017 41.3413 201.412 40.808C201.806 40.2747 202.209 39.848 202.62 39.528C203.036 39.2027 203.436 38.9707 203.82 38.832C204.209 38.688 204.556 38.616 204.86 38.616C205.286 38.616 205.58 38.7067 205.74 38.888C205.905 39.064 205.969 39.32 205.932 39.656C205.9 39.992 205.801 40.3973 205.636 40.872L204.468 44.192C204.313 44.6347 204.254 44.944 204.292 45.12C204.334 45.296 204.433 45.384 204.588 45.384C204.684 45.384 204.788 45.352 204.9 45.288C205.017 45.224 205.156 45.1093 205.316 44.944C205.39 44.8747 205.452 44.8293 205.5 44.808C205.553 44.7813 205.601 44.7787 205.644 44.8C205.692 44.8267 205.713 44.872 205.708 44.936C205.708 44.9947 205.684 45.0667 205.636 45.152C205.465 45.456 205.23 45.6987 204.932 45.88C204.633 46.056 204.313 46.144 203.972 46.144C203.71 46.144 203.51 46.08 203.372 45.952C203.233 45.8187 203.161 45.6213 203.156 45.36C203.15 45.0987 203.214 44.7787 203.348 44.4L204.548 40.952C204.756 40.36 204.825 39.952 204.756 39.728C204.686 39.504 204.494 39.392 204.18 39.392C203.934 39.392 203.646 39.472 203.316 39.632C202.99 39.792 202.652 40.0373 202.3 40.368C201.948 40.6933 201.612 41.1093 201.292 41.616C200.972 42.1173 200.692 42.7067 200.452 43.384C200.329 43.7413 200.236 44.0213 200.172 44.224C200.108 44.4213 200.062 44.5733 200.036 44.68C200.014 44.7867 200.004 44.8747 200.004 44.944C200.004 45.072 200.022 45.176 200.06 45.256C200.097 45.3307 200.116 45.4267 200.116 45.544C200.116 45.7253 200.03 45.872 199.86 45.984C199.689 46.0907 199.465 46.144 199.188 46.144C198.937 46.144 198.785 46.0373 198.732 45.824C198.684 45.6107 198.748 45.2613 198.924 44.776L200.404 40.576C200.558 40.128 200.617 39.816 200.58 39.64C200.542 39.464 200.444 39.376 200.284 39.376C200.193 39.376 200.089 39.408 199.972 39.472C199.854 39.536 199.716 39.6507 199.556 39.816C199.481 39.8853 199.417 39.9307 199.364 39.952C199.316 39.9733 199.27 39.9733 199.228 39.952ZM209.054 39.392L208.334 39.264C208.259 39.248 208.203 39.2213 208.166 39.184C208.129 39.1413 208.11 39.0933 208.11 39.04C208.11 38.9653 208.139 38.9093 208.198 38.872C208.257 38.8293 208.337 38.808 208.438 38.808H209.262C209.358 38.808 209.438 38.792 209.502 38.76C209.571 38.7227 209.633 38.6693 209.686 38.6L210.414 37.456C210.462 37.3867 210.513 37.3387 210.566 37.312C210.625 37.2853 210.686 37.272 210.75 37.272C210.819 37.272 210.87 37.2907 210.902 37.328C210.939 37.3653 210.958 37.4213 210.958 37.496C210.958 37.544 210.95 37.6053 210.934 37.68C210.923 37.7547 210.902 37.8427 210.87 37.944L209.006 43.896C208.819 44.4933 208.771 44.888 208.862 45.08C208.953 45.2667 209.15 45.36 209.454 45.36C209.726 45.36 209.982 45.3013 210.222 45.184C210.462 45.0613 210.71 44.856 210.966 44.568C211.014 44.5147 211.054 44.48 211.086 44.464C211.123 44.4427 211.161 44.432 211.198 44.432C211.251 44.432 211.289 44.448 211.31 44.48C211.337 44.5067 211.347 44.5467 211.342 44.6C211.331 44.744 211.257 44.904 211.118 45.08C210.985 45.256 210.803 45.424 210.574 45.584C210.345 45.744 210.081 45.8773 209.782 45.984C209.483 46.0907 209.166 46.144 208.83 46.144C208.457 46.144 208.177 46.0667 207.99 45.912C207.809 45.7573 207.71 45.536 207.694 45.248C207.683 44.9547 207.742 44.6 207.87 44.184L209.182 40.056C209.257 39.816 209.283 39.6507 209.262 39.56C209.246 39.4693 209.177 39.4133 209.054 39.392ZM209.894 39.32L210.062 38.824H212.326C212.481 38.824 212.558 38.8853 212.558 39.008C212.558 39.104 212.513 39.1813 212.422 39.24C212.331 39.2933 212.206 39.32 212.046 39.32H209.894ZM213.397 42.72C213.397 42.72 213.499 42.6773 213.701 42.592C213.909 42.5067 214.179 42.3973 214.509 42.264C214.84 42.1307 215.197 41.984 215.581 41.824C215.971 41.664 216.347 41.5093 216.709 41.36C217.077 41.2107 217.4 41.0773 217.677 40.96L217.533 41.184C217.571 41.0827 217.597 40.9707 217.613 40.848C217.629 40.7253 217.637 40.5733 217.637 40.392C217.637 40.008 217.549 39.688 217.373 39.432C217.197 39.176 216.968 39.048 216.685 39.048C216.397 39.048 216.099 39.1547 215.789 39.368C215.48 39.5813 215.189 39.8747 214.917 40.248C214.645 40.616 214.416 41.0453 214.229 41.536C214.048 42.0213 213.939 42.5413 213.901 43.096C213.848 43.8907 213.979 44.488 214.293 44.888C214.608 45.2827 215.037 45.48 215.581 45.48C215.933 45.48 216.275 45.4133 216.605 45.28C216.941 45.1413 217.24 44.9387 217.501 44.672C217.763 44.4 217.957 44.0667 218.085 43.672C218.128 43.5867 218.171 43.528 218.213 43.496C218.256 43.4587 218.304 43.4427 218.357 43.448C218.421 43.448 218.469 43.4747 218.501 43.528C218.539 43.576 218.544 43.6587 218.517 43.776C218.453 44.1707 218.275 44.552 217.981 44.92C217.688 45.2827 217.296 45.5787 216.805 45.808C216.32 46.032 215.744 46.144 215.077 46.144C214.549 46.144 214.107 46.0373 213.749 45.824C213.392 45.6053 213.128 45.296 212.957 44.896C212.792 44.496 212.725 44.0133 212.757 43.448C212.795 42.808 212.936 42.2 213.181 41.624C213.427 41.0427 213.744 40.5253 214.133 40.072C214.528 39.6187 214.968 39.2613 215.453 39C215.944 38.7387 216.448 38.608 216.965 38.608C217.328 38.608 217.635 38.6853 217.885 38.84C218.141 38.9947 218.336 39.2027 218.469 39.464C218.608 39.72 218.683 40.0053 218.693 40.32C218.699 40.3893 218.717 40.4427 218.749 40.48C218.787 40.5173 218.84 40.5307 218.909 40.52C218.984 40.504 219.037 40.512 219.069 40.544C219.107 40.5707 219.125 40.6107 219.125 40.664C219.125 40.728 219.096 40.7893 219.037 40.848C218.979 40.9013 218.861 40.9627 218.685 41.032C218.488 41.1067 218.224 41.2107 217.893 41.344C217.563 41.4773 217.2 41.624 216.805 41.784C216.416 41.9387 216.024 42.096 215.629 42.256C215.235 42.4107 214.872 42.5547 214.541 42.688C214.216 42.816 213.952 42.92 213.749 43C213.552 43.08 213.453 43.12 213.453 43.12L213.397 42.72ZM227.142 44.8C227.19 44.8213 227.211 44.864 227.206 44.928C227.2 44.9867 227.176 45.0587 227.134 45.144C226.958 45.4533 226.718 45.6987 226.414 45.88C226.115 46.056 225.795 46.144 225.454 46.144C225.214 46.144 225.019 46.088 224.87 45.976C224.726 45.8587 224.654 45.6827 224.654 45.448C224.654 45.3093 224.678 45.1467 224.726 44.96C224.779 44.7733 224.859 44.536 224.966 44.248C225.078 43.96 225.224 43.6 225.406 43.168C225.587 42.736 225.806 42.2 226.062 41.56L226.022 41.976C225.707 42.76 225.352 43.4187 224.958 43.952C224.563 44.48 224.158 44.9067 223.742 45.232C223.331 45.5573 222.931 45.792 222.542 45.936C222.158 46.0747 221.811 46.144 221.502 46.144C221.08 46.144 220.787 46.056 220.622 45.88C220.462 45.6987 220.398 45.44 220.43 45.104C220.462 44.768 220.56 44.3627 220.726 43.888L221.894 40.568C222.054 40.1253 222.112 39.816 222.07 39.64C222.032 39.4587 221.936 39.368 221.782 39.368C221.686 39.368 221.579 39.4027 221.462 39.472C221.35 39.536 221.211 39.648 221.046 39.808C220.971 39.8773 220.91 39.9253 220.862 39.952C220.814 39.9733 220.766 39.9733 220.718 39.952C220.67 39.9307 220.648 39.8907 220.654 39.832C220.659 39.768 220.683 39.6933 220.726 39.608C220.902 39.304 221.139 39.064 221.438 38.888C221.736 38.7067 222.054 38.616 222.39 38.616C222.656 38.616 222.856 38.6827 222.99 38.816C223.128 38.944 223.2 39.136 223.206 39.392C223.216 39.648 223.155 39.968 223.022 40.352L221.822 43.808C221.608 44.3947 221.536 44.8027 221.606 45.032C221.68 45.256 221.872 45.368 222.182 45.368C222.432 45.368 222.72 45.288 223.046 45.128C223.371 44.9627 223.71 44.7173 224.062 44.392C224.414 44.0613 224.75 43.6453 225.07 43.144C225.395 42.6427 225.678 42.0507 225.918 41.368C226.04 41.016 226.134 40.7387 226.198 40.536C226.262 40.3333 226.304 40.1813 226.326 40.08C226.347 39.9733 226.358 39.8853 226.358 39.816C226.358 39.6827 226.339 39.5787 226.302 39.504C226.264 39.4293 226.246 39.3307 226.246 39.208C226.246 39.032 226.331 38.8907 226.502 38.784C226.678 38.672 226.902 38.616 227.174 38.616C227.43 38.616 227.582 38.72 227.63 38.928C227.678 39.136 227.613 39.488 227.438 39.984L225.966 44.184C225.806 44.6267 225.744 44.9387 225.782 45.12C225.824 45.296 225.923 45.384 226.078 45.384C226.179 45.384 226.286 45.352 226.398 45.288C226.51 45.224 226.648 45.1093 226.814 44.944C226.888 44.8747 226.95 44.8293 226.998 44.808C227.046 44.7813 227.094 44.7787 227.142 44.8ZM226.102 35.944C226.31 35.704 226.496 35.5173 226.662 35.384C226.827 35.2453 226.998 35.1867 227.174 35.208C227.323 35.224 227.424 35.288 227.477 35.4C227.531 35.512 227.531 35.6347 227.477 35.768C227.424 35.912 227.326 36.0453 227.182 36.168C227.043 36.2853 226.867 36.408 226.654 36.536L224.942 37.688C224.899 37.7093 224.854 37.7227 224.806 37.728C224.758 37.7333 224.723 37.72 224.702 37.688C224.67 37.656 224.664 37.6187 224.686 37.576C224.712 37.528 224.744 37.4827 224.782 37.44L226.102 35.944ZM236.913 36.272L234.553 44.168C234.463 44.472 234.409 44.7147 234.393 44.896C234.383 45.072 234.401 45.2 234.449 45.28C234.503 45.3547 234.58 45.392 234.681 45.392C234.783 45.392 234.889 45.36 235.001 45.296C235.113 45.232 235.249 45.1173 235.409 44.952C235.484 44.8827 235.545 44.8373 235.593 44.816C235.647 44.7893 235.695 44.7867 235.737 44.808C235.785 44.8293 235.807 44.872 235.801 44.936C235.801 44.9947 235.777 45.0667 235.729 45.152C235.623 45.3547 235.481 45.5307 235.305 45.68C235.135 45.8293 234.948 45.944 234.745 46.024C234.543 46.104 234.335 46.144 234.121 46.144C233.876 46.144 233.681 46.08 233.537 45.952C233.399 45.824 233.329 45.6347 233.329 45.384C233.329 45.2347 233.353 45.048 233.401 44.824C233.455 44.5947 233.54 44.2827 233.657 43.888C233.775 43.4933 233.932 42.976 234.129 42.336L234.313 42.432C233.929 43.2373 233.508 43.9173 233.049 44.472C232.591 45.0213 232.124 45.4373 231.649 45.72C231.18 46.0027 230.729 46.144 230.297 46.144C229.801 46.144 229.409 45.9733 229.121 45.632C228.839 45.2853 228.727 44.712 228.785 43.912C228.828 43.208 229.007 42.5387 229.321 41.904C229.636 41.2693 230.041 40.704 230.537 40.208C231.039 39.712 231.593 39.3227 232.201 39.04C232.809 38.7573 233.425 38.616 234.049 38.616C234.348 38.616 234.604 38.6507 234.817 38.72C235.036 38.7893 235.212 38.8907 235.345 39.024C235.484 39.152 235.583 39.3013 235.641 39.472L235.057 39.712C234.951 39.4987 234.807 39.3387 234.625 39.232C234.449 39.1253 234.212 39.072 233.913 39.072C233.535 39.072 233.159 39.1627 232.785 39.344C232.412 39.5253 232.057 39.776 231.721 40.096C231.385 40.416 231.084 40.784 230.817 41.2C230.551 41.616 230.337 42.0613 230.177 42.536C230.017 43.0053 229.927 43.4827 229.905 43.968C229.873 44.496 229.945 44.8773 230.121 45.112C230.297 45.3467 230.532 45.464 230.825 45.464C231.092 45.464 231.393 45.3493 231.729 45.12C232.065 44.8853 232.404 44.568 232.745 44.168C233.092 43.7627 233.409 43.3013 233.697 42.784C233.991 42.2613 234.223 41.7147 234.393 41.144L235.809 36.472C235.948 36.024 235.993 35.712 235.945 35.536C235.897 35.36 235.796 35.272 235.641 35.272C235.545 35.272 235.439 35.304 235.321 35.368C235.209 35.432 235.073 35.5467 234.913 35.712C234.839 35.7813 234.777 35.8267 234.729 35.848C234.681 35.8693 234.633 35.8693 234.585 35.848C234.537 35.8267 234.516 35.7867 234.521 35.728C234.527 35.664 234.551 35.5893 234.593 35.504C234.711 35.3013 234.855 35.128 235.025 34.984C235.196 34.8347 235.388 34.72 235.601 34.64C235.815 34.5547 236.031 34.512 236.249 34.512C236.505 34.512 236.7 34.5787 236.833 34.712C236.972 34.84 237.049 35.0347 237.065 35.296C237.081 35.5573 237.031 35.8827 236.913 36.272ZM241.78 38.608C242.345 38.6293 242.833 38.7867 243.244 39.08C243.655 39.3733 243.948 39.7867 244.124 40.32C244.3 40.8533 244.321 41.4987 244.188 42.256C244.087 42.8267 243.9 43.3547 243.628 43.84C243.361 44.3253 243.031 44.744 242.636 45.096C242.247 45.448 241.815 45.7173 241.34 45.904C240.871 46.0907 240.377 46.1707 239.86 46.144C239.316 46.1173 238.844 45.96 238.444 45.672C238.044 45.384 237.759 44.9733 237.588 44.44C237.417 43.9013 237.396 43.256 237.524 42.504C237.631 41.928 237.815 41.3973 238.076 40.912C238.343 40.4267 238.668 40.008 239.052 39.656C239.436 39.304 239.86 39.0373 240.324 38.856C240.788 38.6693 241.273 38.5867 241.78 38.608ZM239.948 45.656C240.22 45.6773 240.484 45.6427 240.74 45.552C241.001 45.456 241.249 45.312 241.484 45.12C241.724 44.9227 241.943 44.6827 242.14 44.4C242.337 44.112 242.508 43.784 242.652 43.416C242.801 43.0427 242.919 42.6373 243.004 42.2C243.132 41.5173 243.156 40.952 243.076 40.504C243.001 40.056 242.844 39.7173 242.604 39.488C242.364 39.2533 242.06 39.1227 241.692 39.096C241.425 39.0747 241.167 39.112 240.916 39.208C240.665 39.2987 240.423 39.4427 240.188 39.64C239.959 39.832 239.745 40.072 239.548 40.36C239.356 40.6427 239.188 40.9707 239.044 41.344C238.9 41.712 238.788 42.1173 238.708 42.56C238.575 43.2427 238.545 43.808 238.62 44.256C238.695 44.704 238.847 45.0427 239.076 45.272C239.311 45.5013 239.601 45.6293 239.948 45.656ZM247.597 45.696C247.991 45.696 248.314 45.5947 248.565 45.392C248.821 45.184 248.949 44.92 248.949 44.6C248.949 44.44 248.914 44.28 248.845 44.12C248.775 43.96 248.65 43.7787 248.469 43.576C248.293 43.3733 248.034 43.128 247.693 42.84C247.33 42.5307 247.047 42.264 246.845 42.04C246.642 41.816 246.501 41.6027 246.421 41.4C246.341 41.192 246.301 40.96 246.301 40.704C246.301 40.3253 246.41 39.9787 246.629 39.664C246.853 39.344 247.167 39.088 247.573 38.896C247.983 38.704 248.471 38.608 249.036 38.608C249.474 38.608 249.845 38.672 250.149 38.8C250.458 38.928 250.695 39.096 250.861 39.304C251.026 39.5067 251.109 39.72 251.109 39.944C251.109 40.0987 251.069 40.2187 250.989 40.304C250.914 40.3893 250.813 40.432 250.685 40.432C250.567 40.432 250.463 40.3947 250.373 40.32C250.282 40.24 250.191 40.1013 250.101 39.904C249.973 39.6213 249.81 39.4027 249.613 39.248C249.415 39.0933 249.17 39.016 248.877 39.016C248.413 39.016 248.042 39.1413 247.765 39.392C247.487 39.6373 247.349 39.9413 247.349 40.304C247.349 40.4747 247.381 40.6453 247.445 40.816C247.514 40.9813 247.637 41.168 247.813 41.376C247.989 41.5787 248.245 41.8267 248.581 42.12C248.959 42.4507 249.25 42.7307 249.453 42.96C249.661 43.1893 249.805 43.4027 249.885 43.6C249.965 43.7973 250.005 44.0133 250.005 44.248C249.999 44.6107 249.89 44.936 249.677 45.224C249.469 45.5067 249.167 45.7307 248.773 45.896C248.378 46.0613 247.911 46.144 247.373 46.144C246.914 46.144 246.517 46.0693 246.181 45.92C245.845 45.7707 245.583 45.5813 245.397 45.352C245.21 45.1173 245.117 44.88 245.117 44.64C245.122 44.4907 245.159 44.3733 245.229 44.288C245.303 44.2027 245.399 44.16 245.517 44.16C245.634 44.16 245.743 44.2 245.845 44.28C245.946 44.36 246.042 44.496 246.133 44.688C246.325 45.0507 246.543 45.3093 246.789 45.464C247.034 45.6187 247.303 45.696 247.597 45.696ZM110.296 58.952C110.248 58.9307 110.227 58.8907 110.232 58.832C110.237 58.768 110.261 58.6933 110.304 58.608C110.421 58.4053 110.568 58.2293 110.744 58.08C110.92 57.9307 111.112 57.816 111.32 57.736C111.533 57.656 111.749 57.616 111.968 57.616C112.197 57.616 112.379 57.6747 112.512 57.792C112.645 57.9093 112.712 58.0853 112.712 58.32C112.712 58.5493 112.661 58.8213 112.56 59.136C112.464 59.4453 112.349 59.768 112.216 60.104C112.088 60.44 111.968 60.76 111.856 61.064C111.749 61.368 111.688 61.624 111.672 61.832H111.552C111.717 61.2453 111.928 60.696 112.184 60.184C112.44 59.672 112.723 59.224 113.032 58.84C113.347 58.456 113.675 58.1573 114.016 57.944C114.363 57.7253 114.707 57.616 115.048 57.616C115.405 57.616 115.672 57.712 115.848 57.904C116.029 58.096 116.117 58.3493 116.112 58.664C116.107 58.8773 116.069 59.064 116 59.224C115.931 59.3787 115.84 59.4987 115.728 59.584C115.616 59.664 115.491 59.704 115.352 59.704C115.213 59.704 115.107 59.6667 115.032 59.592C114.957 59.5173 114.92 59.4293 114.92 59.328C114.92 59.232 114.936 59.136 114.968 59.04C115 58.944 115.016 58.84 115.016 58.728C115.016 58.5893 114.984 58.4773 114.92 58.392C114.856 58.3067 114.749 58.264 114.6 58.264C114.328 58.264 114.013 58.4293 113.656 58.76C113.299 59.0907 112.939 59.5707 112.576 60.2C112.219 60.8293 111.899 61.5893 111.616 62.48C111.499 62.848 111.411 63.1413 111.352 63.36C111.293 63.5733 111.264 63.7627 111.264 63.928C111.264 64.04 111.283 64.1307 111.32 64.2C111.363 64.264 111.405 64.3253 111.448 64.384C111.491 64.4373 111.512 64.512 111.512 64.608C111.512 64.704 111.472 64.7947 111.392 64.88C111.312 64.96 111.197 65.024 111.048 65.072C110.899 65.1253 110.72 65.152 110.512 65.152C110.325 65.152 110.187 65.104 110.096 65.008C110.011 64.9173 109.971 64.7733 109.976 64.576C109.987 64.3787 110.045 64.1173 110.152 63.792L111.496 59.576C111.64 59.128 111.691 58.816 111.648 58.64C111.611 58.464 111.512 58.376 111.352 58.376C111.261 58.376 111.157 58.408 111.04 58.472C110.923 58.536 110.784 58.6507 110.624 58.816C110.549 58.8853 110.488 58.9307 110.44 58.952C110.392 58.9733 110.344 58.9733 110.296 58.952ZM117.038 61.72C117.038 61.72 117.139 61.6773 117.342 61.592C117.55 61.5067 117.819 61.3973 118.15 61.264C118.481 61.1307 118.838 60.984 119.222 60.824C119.611 60.664 119.987 60.5093 120.35 60.36C120.718 60.2107 121.041 60.0773 121.318 59.96L121.174 60.184C121.211 60.0827 121.238 59.9707 121.254 59.848C121.27 59.7253 121.278 59.5733 121.278 59.392C121.278 59.008 121.19 58.688 121.014 58.432C120.838 58.176 120.609 58.048 120.326 58.048C120.038 58.048 119.739 58.1547 119.43 58.368C119.121 58.5813 118.83 58.8747 118.558 59.248C118.286 59.616 118.057 60.0453 117.87 60.536C117.689 61.0213 117.579 61.5413 117.542 62.096C117.489 62.8907 117.619 63.488 117.934 63.888C118.249 64.2827 118.678 64.48 119.222 64.48C119.574 64.48 119.915 64.4133 120.246 64.28C120.582 64.1413 120.881 63.9387 121.142 63.672C121.403 63.4 121.598 63.0667 121.726 62.672C121.769 62.5867 121.811 62.528 121.854 62.496C121.897 62.4587 121.945 62.4427 121.998 62.448C122.062 62.448 122.11 62.4747 122.142 62.528C122.179 62.576 122.185 62.6587 122.158 62.776C122.094 63.1707 121.915 63.552 121.622 63.92C121.329 64.2827 120.937 64.5787 120.446 64.808C119.961 65.032 119.385 65.144 118.718 65.144C118.19 65.144 117.747 65.0373 117.39 64.824C117.033 64.6053 116.769 64.296 116.598 63.896C116.433 63.496 116.366 63.0133 116.398 62.448C116.435 61.808 116.577 61.2 116.822 60.624C117.067 60.0427 117.385 59.5253 117.774 59.072C118.169 58.6187 118.609 58.2613 119.094 58C119.585 57.7387 120.089 57.608 120.606 57.608C120.969 57.608 121.275 57.6853 121.526 57.84C121.782 57.9947 121.977 58.2027 122.11 58.464C122.249 58.72 122.323 59.0053 122.334 59.32C122.339 59.3893 122.358 59.4427 122.39 59.48C122.427 59.5173 122.481 59.5307 122.55 59.52C122.625 59.504 122.678 59.512 122.71 59.544C122.747 59.5707 122.766 59.6107 122.766 59.664C122.766 59.728 122.737 59.7893 122.678 59.848C122.619 59.9013 122.502 59.9627 122.326 60.032C122.129 60.1067 121.865 60.2107 121.534 60.344C121.203 60.4773 120.841 60.624 120.446 60.784C120.057 60.9387 119.665 61.096 119.27 61.256C118.875 61.4107 118.513 61.5547 118.182 61.688C117.857 61.816 117.593 61.92 117.39 62C117.193 62.08 117.094 62.12 117.094 62.12L117.038 61.72ZM127.255 55.272L124.871 62.984C124.705 63.5333 124.649 63.8987 124.703 64.08C124.756 64.2613 124.887 64.352 125.095 64.352C125.292 64.352 125.497 64.296 125.711 64.184C125.929 64.072 126.124 63.904 126.295 63.68C126.343 63.6267 126.385 63.592 126.423 63.576C126.46 63.5547 126.497 63.5493 126.535 63.56C126.588 63.5707 126.623 63.6027 126.639 63.656C126.655 63.7093 126.644 63.7813 126.607 63.872C126.532 64.096 126.38 64.3067 126.151 64.504C125.927 64.696 125.663 64.8507 125.359 64.968C125.055 65.0853 124.74 65.144 124.415 65.144C124.127 65.144 123.908 65.08 123.759 64.952C123.609 64.824 123.532 64.6213 123.527 64.344C123.521 64.0667 123.588 63.704 123.727 63.256L126.143 55.472C126.281 55.024 126.327 54.712 126.279 54.536C126.231 54.36 126.129 54.272 125.975 54.272C125.879 54.272 125.772 54.304 125.655 54.368C125.543 54.432 125.407 54.5467 125.247 54.712C125.172 54.7813 125.108 54.8267 125.055 54.848C125.007 54.8693 124.961 54.8693 124.919 54.848C124.871 54.8267 124.849 54.7867 124.855 54.728C124.86 54.664 124.884 54.5893 124.927 54.504C125.044 54.3013 125.188 54.128 125.359 53.984C125.535 53.8347 125.727 53.72 125.935 53.64C126.148 53.5547 126.367 53.512 126.591 53.512C126.847 53.512 127.044 53.5787 127.183 53.712C127.321 53.84 127.396 54.0347 127.407 54.296C127.423 54.5573 127.372 54.8827 127.255 55.272ZM133.646 63.184C133.528 63.6427 133.488 63.96 133.526 64.136C133.563 64.3067 133.648 64.392 133.782 64.392C133.888 64.392 133.995 64.36 134.102 64.296C134.208 64.2267 134.342 64.112 134.502 63.952C134.576 63.8827 134.638 63.8373 134.686 63.816C134.739 63.7893 134.787 63.7867 134.83 63.808C134.878 63.8293 134.899 63.872 134.894 63.936C134.894 63.9947 134.872 64.0667 134.83 64.152C134.654 64.456 134.414 64.6987 134.11 64.88C133.806 65.056 133.499 65.144 133.19 65.144C132.944 65.144 132.755 65.0827 132.622 64.96C132.488 64.832 132.422 64.64 132.422 64.384C132.422 64.2667 132.432 64.1333 132.454 63.984C132.48 63.8293 132.526 63.6293 132.59 63.384C132.654 63.1387 132.744 62.8213 132.862 62.432C132.984 62.0373 133.139 61.544 133.326 60.952L133.454 61.104C133.107 61.968 132.712 62.7013 132.27 63.304C131.832 63.9067 131.368 64.3653 130.878 64.68C130.387 64.9893 129.894 65.144 129.398 65.144C128.896 65.144 128.507 64.9707 128.23 64.624C127.952 64.2773 127.848 63.712 127.918 62.928C127.96 62.384 128.094 61.8533 128.318 61.336C128.547 60.8187 128.843 60.336 129.206 59.888C129.568 59.4347 129.982 59.0373 130.446 58.696C130.91 58.3547 131.406 58.0907 131.934 57.904C132.462 57.712 132.998 57.616 133.542 57.616C133.894 57.616 134.187 57.6427 134.422 57.696C134.656 57.7493 134.832 57.8213 134.95 57.912C135.067 58.0027 135.123 58.1067 135.118 58.224C135.112 58.3093 135.083 58.384 135.03 58.448C134.982 58.5067 134.928 58.568 134.87 58.632C134.811 58.6907 134.771 58.7653 134.75 58.856L133.646 63.184ZM129.046 62.856C128.992 63.4587 129.046 63.8853 129.206 64.136C129.371 64.3813 129.606 64.504 129.91 64.504C130.187 64.504 130.48 64.3973 130.79 64.184C131.104 63.9707 131.416 63.6773 131.726 63.304C132.04 62.9253 132.334 62.4933 132.606 62.008C132.878 61.5227 133.112 61.0027 133.31 60.448C133.512 59.888 133.656 59.3227 133.742 58.752C133.779 58.5227 133.752 58.3573 133.662 58.256C133.571 58.1547 133.43 58.104 133.238 58.104C132.854 58.104 132.47 58.192 132.086 58.368C131.707 58.5387 131.344 58.7787 130.998 59.088C130.656 59.392 130.344 59.7467 130.062 60.152C129.784 60.552 129.558 60.984 129.382 61.448C129.206 61.9067 129.094 62.376 129.046 62.856ZM140.47 58.064C140.049 58.064 139.635 58.216 139.23 58.52C138.83 58.8187 138.483 59.2267 138.19 59.744C137.897 60.256 137.705 60.8373 137.614 61.488C137.47 62.464 137.539 63.2053 137.822 63.712C138.105 64.2133 138.537 64.4613 139.118 64.456C139.417 64.4507 139.713 64.384 140.006 64.256C140.305 64.1227 140.574 63.928 140.814 63.672C141.059 63.4107 141.238 63.0907 141.35 62.712C141.403 62.6213 141.451 62.5547 141.494 62.512C141.537 62.4693 141.585 62.4507 141.638 62.456C141.697 62.456 141.742 62.4827 141.774 62.536C141.806 62.584 141.811 62.6587 141.79 62.76C141.769 62.9893 141.686 63.2427 141.542 63.52C141.398 63.792 141.198 64.0533 140.942 64.304C140.686 64.5493 140.371 64.752 139.998 64.912C139.63 65.0667 139.203 65.144 138.718 65.144C137.785 65.144 137.118 64.8187 136.718 64.168C136.323 63.5173 136.23 62.6507 136.438 61.568C136.539 61.0187 136.718 60.504 136.974 60.024C137.23 59.544 137.545 59.1227 137.918 58.76C138.291 58.3973 138.71 58.1147 139.174 57.912C139.638 57.7093 140.131 57.608 140.654 57.608C141.054 57.608 141.387 57.68 141.654 57.824C141.926 57.968 142.129 58.16 142.262 58.4C142.401 58.6347 142.467 58.896 142.462 59.184C142.457 59.472 142.382 59.6933 142.238 59.848C142.094 59.9973 141.931 60.072 141.75 60.072C141.595 60.072 141.475 60.032 141.39 59.952C141.305 59.8667 141.262 59.76 141.262 59.632C141.262 59.5147 141.281 59.392 141.318 59.264C141.361 59.1307 141.382 58.9947 141.382 58.856C141.382 58.6213 141.302 58.432 141.142 58.288C140.982 58.1387 140.758 58.064 140.47 58.064ZM144.897 63.184C144.737 63.6213 144.678 63.9307 144.721 64.112C144.764 64.288 144.862 64.376 145.017 64.376C145.113 64.376 145.217 64.344 145.329 64.28C145.446 64.216 145.585 64.1013 145.745 63.936C145.82 63.8667 145.881 63.8213 145.929 63.8C145.982 63.7787 146.03 63.7787 146.073 63.8C146.121 63.8213 146.142 63.864 146.137 63.928C146.132 63.9867 146.108 64.0587 146.065 64.144C145.894 64.448 145.657 64.6907 145.353 64.872C145.054 65.048 144.737 65.136 144.401 65.136C144.14 65.136 143.937 65.072 143.793 64.944C143.654 64.8107 143.582 64.6133 143.577 64.352C143.572 64.0907 143.638 63.7707 143.777 63.392L145.209 59.576C145.374 59.128 145.436 58.816 145.393 58.64C145.35 58.464 145.252 58.376 145.097 58.376C145.001 58.376 144.894 58.408 144.777 58.472C144.665 58.536 144.526 58.6507 144.361 58.816C144.286 58.8853 144.225 58.9307 144.177 58.952C144.129 58.9733 144.081 58.9733 144.033 58.952C143.985 58.9307 143.964 58.8907 143.969 58.832C143.974 58.768 143.998 58.6933 144.041 58.608C144.217 58.304 144.452 58.064 144.745 57.888C145.044 57.7067 145.361 57.616 145.697 57.616C145.948 57.616 146.142 57.6827 146.281 57.816C146.425 57.944 146.502 58.1387 146.513 58.4C146.529 58.6613 146.462 58.9893 146.313 59.384L144.897 63.184ZM146.313 55.856C146.046 55.856 145.844 55.776 145.705 55.616C145.566 55.456 145.518 55.264 145.561 55.04C145.588 54.864 145.657 54.704 145.769 54.56C145.881 54.416 146.022 54.3013 146.193 54.216C146.364 54.1253 146.55 54.08 146.753 54.08C147.03 54.08 147.233 54.16 147.361 54.32C147.494 54.48 147.537 54.6773 147.489 54.912C147.468 55.0827 147.398 55.24 147.281 55.384C147.169 55.528 147.03 55.6427 146.865 55.728C146.7 55.8133 146.516 55.856 146.313 55.856ZM152.171 57.608C152.736 57.6293 153.224 57.7867 153.635 58.08C154.045 58.3733 154.339 58.7867 154.515 59.32C154.691 59.8533 154.712 60.4987 154.579 61.256C154.477 61.8267 154.291 62.3547 154.019 62.84C153.752 63.3253 153.421 63.744 153.027 64.096C152.637 64.448 152.205 64.7173 151.731 64.904C151.261 65.0907 150.768 65.1707 150.251 65.144C149.707 65.1173 149.235 64.96 148.835 64.672C148.435 64.384 148.149 63.9733 147.979 63.44C147.808 62.9013 147.787 62.256 147.915 61.504C148.021 60.928 148.205 60.3973 148.467 59.912C148.733 59.4267 149.059 59.008 149.443 58.656C149.827 58.304 150.251 58.0373 150.715 57.856C151.179 57.6693 151.664 57.5867 152.171 57.608ZM150.339 64.656C150.611 64.6773 150.875 64.6427 151.131 64.552C151.392 64.456 151.64 64.312 151.875 64.12C152.115 63.9227 152.333 63.6827 152.531 63.4C152.728 63.112 152.899 62.784 153.043 62.416C153.192 62.0427 153.309 61.6373 153.395 61.2C153.523 60.5173 153.547 59.952 153.467 59.504C153.392 59.056 153.235 58.7173 152.995 58.488C152.755 58.2533 152.451 58.1227 152.083 58.096C151.816 58.0747 151.557 58.112 151.307 58.208C151.056 58.2987 150.813 58.4427 150.579 58.64C150.349 58.832 150.136 59.072 149.939 59.36C149.747 59.6427 149.579 59.9707 149.435 60.344C149.291 60.712 149.179 61.1173 149.099 61.56C148.965 62.2427 148.936 62.808 149.011 63.256C149.085 63.704 149.237 64.0427 149.467 64.272C149.701 64.5013 149.992 64.6293 150.339 64.656ZM156.384 58.952C156.336 58.9307 156.315 58.8907 156.32 58.832C156.325 58.768 156.349 58.6933 156.392 58.608C156.568 58.304 156.805 58.064 157.104 57.888C157.408 57.7067 157.728 57.616 158.064 57.616C158.309 57.616 158.504 57.6747 158.648 57.792C158.797 57.904 158.872 58.0773 158.872 58.312C158.872 58.4507 158.845 58.6133 158.792 58.8C158.739 58.9867 158.656 59.224 158.544 59.512C158.437 59.7947 158.293 60.1547 158.112 60.592C157.936 61.024 157.717 61.5573 157.456 62.192L157.504 61.776C157.819 60.9973 158.173 60.3413 158.568 59.808C158.963 59.2747 159.365 58.848 159.776 58.528C160.192 58.2027 160.592 57.9707 160.976 57.832C161.365 57.688 161.712 57.616 162.016 57.616C162.443 57.616 162.736 57.7067 162.896 57.888C163.061 58.064 163.125 58.32 163.088 58.656C163.056 58.992 162.957 59.3973 162.792 59.872L161.624 63.192C161.469 63.6347 161.411 63.944 161.448 64.12C161.491 64.296 161.589 64.384 161.744 64.384C161.84 64.384 161.944 64.352 162.056 64.288C162.173 64.224 162.312 64.1093 162.472 63.944C162.547 63.8747 162.608 63.8293 162.656 63.808C162.709 63.7813 162.757 63.7787 162.8 63.8C162.848 63.8267 162.869 63.872 162.864 63.936C162.864 63.9947 162.84 64.0667 162.792 64.152C162.621 64.456 162.387 64.6987 162.088 64.88C161.789 65.056 161.469 65.144 161.128 65.144C160.867 65.144 160.667 65.08 160.528 64.952C160.389 64.8187 160.317 64.6213 160.312 64.36C160.307 64.0987 160.371 63.7787 160.504 63.4L161.704 59.952C161.912 59.36 161.981 58.952 161.912 58.728C161.843 58.504 161.651 58.392 161.336 58.392C161.091 58.392 160.803 58.472 160.472 58.632C160.147 58.792 159.808 59.0373 159.456 59.368C159.104 59.6933 158.768 60.1093 158.448 60.616C158.128 61.1173 157.848 61.7067 157.608 62.384C157.485 62.7413 157.392 63.0213 157.328 63.224C157.264 63.4213 157.219 63.5733 157.192 63.68C157.171 63.7867 157.16 63.8747 157.16 63.944C157.16 64.072 157.179 64.176 157.216 64.256C157.253 64.3307 157.272 64.4267 157.272 64.544C157.272 64.7253 157.187 64.872 157.016 64.984C156.845 65.0907 156.621 65.144 156.344 65.144C156.093 65.144 155.941 65.0373 155.888 64.824C155.84 64.6107 155.904 64.2613 156.08 63.776L157.56 59.576C157.715 59.128 157.773 58.816 157.736 58.64C157.699 58.464 157.6 58.376 157.44 58.376C157.349 58.376 157.245 58.408 157.128 58.472C157.011 58.536 156.872 58.6507 156.712 58.816C156.637 58.8853 156.573 58.9307 156.52 58.952C156.472 58.9733 156.427 58.9733 156.384 58.952ZM170.114 63.184C169.997 63.6427 169.957 63.96 169.994 64.136C170.032 64.3067 170.117 64.392 170.25 64.392C170.357 64.392 170.464 64.36 170.57 64.296C170.677 64.2267 170.81 64.112 170.97 63.952C171.045 63.8827 171.106 63.8373 171.154 63.816C171.208 63.7893 171.256 63.7867 171.298 63.808C171.346 63.8293 171.368 63.872 171.362 63.936C171.362 63.9947 171.341 64.0667 171.298 64.152C171.122 64.456 170.882 64.6987 170.578 64.88C170.274 65.056 169.968 65.144 169.658 65.144C169.413 65.144 169.224 65.0827 169.09 64.96C168.957 64.832 168.89 64.64 168.89 64.384C168.89 64.2667 168.901 64.1333 168.922 63.984C168.949 63.8293 168.994 63.6293 169.058 63.384C169.122 63.1387 169.213 62.8213 169.33 62.432C169.453 62.0373 169.608 61.544 169.794 60.952L169.922 61.104C169.576 61.968 169.181 62.7013 168.738 63.304C168.301 63.9067 167.837 64.3653 167.346 64.68C166.856 64.9893 166.362 65.144 165.866 65.144C165.365 65.144 164.976 64.9707 164.698 64.624C164.421 64.2773 164.317 63.712 164.386 62.928C164.429 62.384 164.562 61.8533 164.786 61.336C165.016 60.8187 165.312 60.336 165.674 59.888C166.037 59.4347 166.45 59.0373 166.914 58.696C167.378 58.3547 167.874 58.0907 168.402 57.904C168.93 57.712 169.466 57.616 170.01 57.616C170.362 57.616 170.656 57.6427 170.89 57.696C171.125 57.7493 171.301 57.8213 171.418 57.912C171.536 58.0027 171.592 58.1067 171.586 58.224C171.581 58.3093 171.552 58.384 171.498 58.448C171.45 58.5067 171.397 58.568 171.338 58.632C171.28 58.6907 171.24 58.7653 171.218 58.856L170.114 63.184ZM165.514 62.856C165.461 63.4587 165.514 63.8853 165.674 64.136C165.84 64.3813 166.074 64.504 166.378 64.504C166.656 64.504 166.949 64.3973 167.258 64.184C167.573 63.9707 167.885 63.6773 168.194 63.304C168.509 62.9253 168.802 62.4933 169.074 62.008C169.346 61.5227 169.581 61.0027 169.778 60.448C169.981 59.888 170.125 59.3227 170.21 58.752C170.248 58.5227 170.221 58.3573 170.13 58.256C170.04 58.1547 169.898 58.104 169.706 58.104C169.322 58.104 168.938 58.192 168.554 58.368C168.176 58.5387 167.813 58.7787 167.466 59.088C167.125 59.392 166.813 59.7467 166.53 60.152C166.253 60.552 166.026 60.984 165.85 61.448C165.674 61.9067 165.562 62.376 165.514 62.856ZM180.851 55.272L178.491 63.168C178.4 63.472 178.347 63.7147 178.331 63.896C178.32 64.072 178.339 64.2 178.387 64.28C178.44 64.3547 178.517 64.392 178.619 64.392C178.72 64.392 178.827 64.36 178.939 64.296C179.051 64.232 179.187 64.1173 179.347 63.952C179.421 63.8827 179.483 63.8373 179.531 63.816C179.584 63.7893 179.632 63.7867 179.675 63.808C179.723 63.8293 179.744 63.872 179.739 63.936C179.739 63.9947 179.715 64.0667 179.667 64.152C179.56 64.3547 179.419 64.5307 179.243 64.68C179.072 64.8293 178.885 64.944 178.683 65.024C178.48 65.104 178.272 65.144 178.059 65.144C177.813 65.144 177.619 65.08 177.475 64.952C177.336 64.824 177.267 64.6347 177.267 64.384C177.267 64.2347 177.291 64.048 177.339 63.824C177.392 63.5947 177.477 63.2827 177.595 62.888C177.712 62.4933 177.869 61.976 178.067 61.336L178.251 61.432C177.867 62.2373 177.445 62.9173 176.987 63.472C176.528 64.0213 176.061 64.4373 175.587 64.72C175.117 65.0027 174.667 65.144 174.235 65.144C173.739 65.144 173.347 64.9733 173.059 64.632C172.776 64.2853 172.664 63.712 172.723 62.912C172.765 62.208 172.944 61.5387 173.259 60.904C173.573 60.2693 173.979 59.704 174.475 59.208C174.976 58.712 175.531 58.3227 176.139 58.04C176.747 57.7573 177.363 57.616 177.987 57.616C178.285 57.616 178.541 57.6507 178.755 57.72C178.973 57.7893 179.149 57.8907 179.283 58.024C179.421 58.152 179.52 58.3013 179.579 58.472L178.995 58.712C178.888 58.4987 178.744 58.3387 178.563 58.232C178.387 58.1253 178.149 58.072 177.851 58.072C177.472 58.072 177.096 58.1627 176.723 58.344C176.349 58.5253 175.995 58.776 175.659 59.096C175.323 59.416 175.021 59.784 174.755 60.2C174.488 60.616 174.275 61.0613 174.115 61.536C173.955 62.0053 173.864 62.4827 173.843 62.968C173.811 63.496 173.883 63.8773 174.059 64.112C174.235 64.3467 174.469 64.464 174.763 64.464C175.029 64.464 175.331 64.3493 175.667 64.12C176.003 63.8853 176.341 63.568 176.683 63.168C177.029 62.7627 177.347 62.3013 177.635 61.784C177.928 61.2613 178.16 60.7147 178.331 60.144L179.747 55.472C179.885 55.024 179.931 54.712 179.883 54.536C179.835 54.36 179.733 54.272 179.579 54.272C179.483 54.272 179.376 54.304 179.259 54.368C179.147 54.432 179.011 54.5467 178.851 54.712C178.776 54.7813 178.715 54.8267 178.667 54.848C178.619 54.8693 178.571 54.8693 178.523 54.848C178.475 54.8267 178.453 54.7867 178.459 54.728C178.464 54.664 178.488 54.5893 178.531 54.504C178.648 54.3013 178.792 54.128 178.963 53.984C179.133 53.8347 179.325 53.72 179.539 53.64C179.752 53.5547 179.968 53.512 180.187 53.512C180.443 53.512 180.637 53.5787 180.771 53.712C180.909 53.84 180.987 54.0347 181.003 54.296C181.019 54.5573 180.968 54.8827 180.851 55.272ZM185.718 57.608C186.283 57.6293 186.771 57.7867 187.182 58.08C187.592 58.3733 187.886 58.7867 188.062 59.32C188.238 59.8533 188.259 60.4987 188.126 61.256C188.024 61.8267 187.838 62.3547 187.566 62.84C187.299 63.3253 186.968 63.744 186.574 64.096C186.184 64.448 185.752 64.7173 185.278 64.904C184.808 65.0907 184.315 65.1707 183.798 65.144C183.254 65.1173 182.782 64.96 182.382 64.672C181.982 64.384 181.696 63.9733 181.526 63.44C181.355 62.9013 181.334 62.256 181.462 61.504C181.568 60.928 181.752 60.3973 182.014 59.912C182.28 59.4267 182.606 59.008 182.99 58.656C183.374 58.304 183.798 58.0373 184.262 57.856C184.726 57.6693 185.211 57.5867 185.718 57.608ZM183.886 64.656C184.158 64.6773 184.422 64.6427 184.678 64.552C184.939 64.456 185.187 64.312 185.422 64.12C185.662 63.9227 185.88 63.6827 186.078 63.4C186.275 63.112 186.446 62.784 186.59 62.416C186.739 62.0427 186.856 61.6373 186.942 61.2C187.07 60.5173 187.094 59.952 187.014 59.504C186.939 59.056 186.782 58.7173 186.542 58.488C186.302 58.2533 185.998 58.1227 185.63 58.096C185.363 58.0747 185.104 58.112 184.854 58.208C184.603 58.2987 184.36 58.4427 184.126 58.64C183.896 58.832 183.683 59.072 183.486 59.36C183.294 59.6427 183.126 59.9707 182.982 60.344C182.838 60.712 182.726 61.1173 182.646 61.56C182.512 62.2427 182.483 62.808 182.558 63.256C182.632 63.704 182.784 64.0427 183.014 64.272C183.248 64.5013 183.539 64.6293 183.886 64.656ZM191.534 64.696C191.929 64.696 192.251 64.5947 192.502 64.392C192.758 64.184 192.886 63.92 192.886 63.6C192.886 63.44 192.851 63.28 192.782 63.12C192.713 62.96 192.587 62.7787 192.406 62.576C192.23 62.3733 191.971 62.128 191.63 61.84C191.267 61.5307 190.985 61.264 190.782 61.04C190.579 60.816 190.438 60.6027 190.358 60.4C190.278 60.192 190.238 59.96 190.238 59.704C190.238 59.3253 190.347 58.9787 190.566 58.664C190.79 58.344 191.105 58.088 191.51 57.896C191.921 57.704 192.409 57.608 192.974 57.608C193.411 57.608 193.782 57.672 194.086 57.8C194.395 57.928 194.633 58.096 194.798 58.304C194.963 58.5067 195.046 58.72 195.046 58.944C195.046 59.0987 195.006 59.2187 194.926 59.304C194.851 59.3893 194.75 59.432 194.622 59.432C194.505 59.432 194.401 59.3947 194.31 59.32C194.219 59.24 194.129 59.1013 194.038 58.904C193.91 58.6213 193.747 58.4027 193.55 58.248C193.353 58.0933 193.107 58.016 192.814 58.016C192.35 58.016 191.979 58.1413 191.702 58.392C191.425 58.6373 191.286 58.9413 191.286 59.304C191.286 59.4747 191.318 59.6453 191.382 59.816C191.451 59.9813 191.574 60.168 191.75 60.376C191.926 60.5787 192.182 60.8267 192.518 61.12C192.897 61.4507 193.187 61.7307 193.39 61.96C193.598 62.1893 193.742 62.4027 193.822 62.6C193.902 62.7973 193.942 63.0133 193.942 63.248C193.937 63.6107 193.827 63.936 193.614 64.224C193.406 64.5067 193.105 64.7307 192.71 64.896C192.315 65.0613 191.849 65.144 191.31 65.144C190.851 65.144 190.454 65.0693 190.118 64.92C189.782 64.7707 189.521 64.5813 189.334 64.352C189.147 64.1173 189.054 63.88 189.054 63.64C189.059 63.4907 189.097 63.3733 189.166 63.288C189.241 63.2027 189.337 63.16 189.454 63.16C189.571 63.16 189.681 63.2 189.782 63.28C189.883 63.36 189.979 63.496 190.07 63.688C190.262 64.0507 190.481 64.3093 190.726 64.464C190.971 64.6187 191.241 64.696 191.534 64.696ZM204.677 63.184C204.559 63.6427 204.519 63.96 204.557 64.136C204.594 64.3067 204.679 64.392 204.813 64.392C204.919 64.392 205.026 64.36 205.133 64.296C205.239 64.2267 205.373 64.112 205.533 63.952C205.607 63.8827 205.669 63.8373 205.717 63.816C205.77 63.7893 205.818 63.7867 205.861 63.808C205.909 63.8293 205.93 63.872 205.925 63.936C205.925 63.9947 205.903 64.0667 205.861 64.152C205.685 64.456 205.445 64.6987 205.141 64.88C204.837 65.056 204.53 65.144 204.221 65.144C203.975 65.144 203.786 65.0827 203.653 64.96C203.519 64.832 203.453 64.64 203.453 64.384C203.453 64.2667 203.463 64.1333 203.485 63.984C203.511 63.8293 203.557 63.6293 203.621 63.384C203.685 63.1387 203.775 62.8213 203.893 62.432C204.015 62.0373 204.17 61.544 204.357 60.952L204.485 61.104C204.138 61.968 203.743 62.7013 203.301 63.304C202.863 63.9067 202.399 64.3653 201.909 64.68C201.418 64.9893 200.925 65.144 200.429 65.144C199.927 65.144 199.538 64.9707 199.261 64.624C198.983 64.2773 198.879 63.712 198.949 62.928C198.991 62.384 199.125 61.8533 199.349 61.336C199.578 60.8187 199.874 60.336 200.237 59.888C200.599 59.4347 201.013 59.0373 201.477 58.696C201.941 58.3547 202.437 58.0907 202.965 57.904C203.493 57.712 204.029 57.616 204.573 57.616C204.925 57.616 205.218 57.6427 205.453 57.696C205.687 57.7493 205.863 57.8213 205.981 57.912C206.098 58.0027 206.154 58.1067 206.149 58.224C206.143 58.3093 206.114 58.384 206.061 58.448C206.013 58.5067 205.959 58.568 205.901 58.632C205.842 58.6907 205.802 58.7653 205.781 58.856L204.677 63.184ZM200.077 62.856C200.023 63.4587 200.077 63.8853 200.237 64.136C200.402 64.3813 200.637 64.504 200.941 64.504C201.218 64.504 201.511 64.3973 201.821 64.184C202.135 63.9707 202.447 63.6773 202.757 63.304C203.071 62.9253 203.365 62.4933 203.637 62.008C203.909 61.5227 204.143 61.0027 204.341 60.448C204.543 59.888 204.687 59.3227 204.773 58.752C204.81 58.5227 204.783 58.3573 204.693 58.256C204.602 58.1547 204.461 58.104 204.269 58.104C203.885 58.104 203.501 58.192 203.117 58.368C202.738 58.5387 202.375 58.7787 202.029 59.088C201.687 59.392 201.375 59.7467 201.093 60.152C200.815 60.552 200.589 60.984 200.413 61.448C200.237 61.9067 200.125 62.376 200.077 62.856ZM203.573 54.944L204.125 56.44C204.141 56.4827 204.146 56.528 204.141 56.576C204.141 56.6187 204.117 56.656 204.069 56.688C204.026 56.72 203.981 56.7333 203.933 56.728C203.89 56.7227 203.85 56.7093 203.813 56.688L202.693 55.536C202.559 55.408 202.453 55.2853 202.373 55.168C202.293 55.0453 202.261 54.912 202.277 54.768C202.293 54.6347 202.357 54.512 202.469 54.4C202.586 54.288 202.725 54.224 202.885 54.208C203.077 54.1867 203.218 54.2453 203.309 54.384C203.405 54.5173 203.493 54.704 203.573 54.944ZM213.895 59.392L211.599 66.888C211.375 67.6347 211.057 68.1733 210.647 68.504C210.236 68.84 209.724 69.008 209.11 69.008C208.812 69.008 208.585 68.9493 208.43 68.832C208.276 68.72 208.198 68.576 208.198 68.4C208.198 68.2453 208.254 68.112 208.366 68C208.473 67.888 208.625 67.832 208.822 67.832C208.972 67.832 209.105 67.8587 209.222 67.912C209.34 67.9653 209.457 68.0187 209.574 68.072C209.686 68.1253 209.814 68.152 209.958 68.152C210.145 68.152 210.337 68.0827 210.535 67.944C210.737 67.8053 210.887 67.5227 210.983 67.096C211.004 66.9733 211.015 66.848 211.015 66.72C211.02 66.5973 211.017 66.464 211.007 66.32C211.001 66.176 210.999 66.0213 210.999 65.856C210.999 65.6907 211.012 65.512 211.039 65.32C211.065 65.128 211.113 64.9173 211.183 64.688L212.783 59.576C212.927 59.1173 212.975 58.8027 212.927 58.632C212.879 58.4613 212.772 58.376 212.607 58.376C212.5 58.376 212.388 58.408 212.271 58.472C212.159 58.536 212.02 58.6507 211.855 58.816C211.78 58.8853 211.719 58.9307 211.671 58.952C211.623 58.9733 211.577 58.9733 211.535 58.952C211.481 58.9307 211.457 58.8907 211.463 58.832C211.468 58.768 211.492 58.6933 211.535 58.608C211.652 58.4053 211.796 58.2293 211.967 58.08C212.143 57.9307 212.335 57.816 212.543 57.736C212.751 57.656 212.967 57.616 213.191 57.616C213.58 57.616 213.841 57.76 213.975 58.048C214.108 58.3307 214.081 58.7787 213.895 59.392ZM213.751 55.856C213.484 55.856 213.281 55.776 213.143 55.616C213.004 55.456 212.956 55.264 212.999 55.04C213.025 54.864 213.095 54.704 213.207 54.56C213.319 54.416 213.46 54.3013 213.631 54.216C213.801 54.1253 213.985 54.08 214.183 54.08C214.46 54.08 214.663 54.16 214.791 54.32C214.924 54.48 214.969 54.6773 214.927 54.912C214.9 55.0827 214.831 55.24 214.719 55.384C214.607 55.528 214.465 55.6427 214.295 55.728C214.129 55.8133 213.948 55.856 213.751 55.856ZM219.593 57.608C220.158 57.6293 220.646 57.7867 221.057 58.08C221.467 58.3733 221.761 58.7867 221.937 59.32C222.113 59.8533 222.134 60.4987 222.001 61.256C221.899 61.8267 221.713 62.3547 221.441 62.84C221.174 63.3253 220.843 63.744 220.449 64.096C220.059 64.448 219.627 64.7173 219.153 64.904C218.683 65.0907 218.19 65.1707 217.673 65.144C217.129 65.1173 216.657 64.96 216.257 64.672C215.857 64.384 215.571 63.9733 215.401 63.44C215.23 62.9013 215.209 62.256 215.337 61.504C215.443 60.928 215.627 60.3973 215.889 59.912C216.155 59.4267 216.481 59.008 216.865 58.656C217.249 58.304 217.673 58.0373 218.137 57.856C218.601 57.6693 219.086 57.5867 219.593 57.608ZM217.761 64.656C218.033 64.6773 218.297 64.6427 218.553 64.552C218.814 64.456 219.062 64.312 219.297 64.12C219.537 63.9227 219.755 63.6827 219.953 63.4C220.15 63.112 220.321 62.784 220.465 62.416C220.614 62.0427 220.731 61.6373 220.817 61.2C220.945 60.5173 220.969 59.952 220.889 59.504C220.814 59.056 220.657 58.7173 220.417 58.488C220.177 58.2533 219.873 58.1227 219.505 58.096C219.238 58.0747 218.979 58.112 218.729 58.208C218.478 58.2987 218.235 58.4427 218.001 58.64C217.771 58.832 217.558 59.072 217.361 59.36C217.169 59.6427 217.001 59.9707 216.857 60.344C216.713 60.712 216.601 61.1173 216.521 61.56C216.387 62.2427 216.358 62.808 216.433 63.256C216.507 63.704 216.659 64.0427 216.889 64.272C217.123 64.5013 217.414 64.6293 217.761 64.656ZM228.632 65.048C228.429 65.9653 228.085 66.7173 227.6 67.304C227.115 67.8907 226.52 68.3227 225.816 68.6C225.117 68.8827 224.347 69.024 223.504 69.024C222.987 69.024 222.605 68.9493 222.36 68.8C222.115 68.656 221.992 68.4693 221.992 68.24C221.992 68.08 222.051 67.9467 222.168 67.84C222.28 67.7333 222.429 67.68 222.616 67.68C222.765 67.68 222.909 67.7147 223.048 67.784C223.192 67.8533 223.336 67.936 223.48 68.032C223.629 68.128 223.781 68.2107 223.936 68.28C224.096 68.3547 224.264 68.392 224.44 68.392C224.867 68.392 225.275 68.2987 225.664 68.112C226.053 67.9307 226.397 67.6373 226.696 67.232C227 66.832 227.229 66.296 227.384 65.624L228.408 61.312L228.6 61.456C228.275 62.24 227.907 62.9093 227.496 63.464C227.085 64.0133 226.643 64.432 226.168 64.72C225.693 65.0027 225.2 65.144 224.688 65.144C224.368 65.144 224.088 65.072 223.848 64.928C223.608 64.7787 223.427 64.552 223.304 64.248C223.187 63.9387 223.147 63.5387 223.184 63.048C223.216 62.488 223.339 61.944 223.552 61.416C223.765 60.8827 224.048 60.3867 224.4 59.928C224.752 59.464 225.16 59.0587 225.624 58.712C226.088 58.3653 226.589 58.0933 227.128 57.896C227.667 57.6987 228.227 57.6 228.808 57.6C229.144 57.6 229.424 57.624 229.648 57.672C229.877 57.72 230.048 57.7867 230.16 57.872C230.272 57.9573 230.325 58.0507 230.32 58.152C230.315 58.248 230.288 58.3253 230.24 58.384C230.192 58.4373 230.141 58.4933 230.088 58.552C230.04 58.6053 230.005 58.68 229.984 58.776L228.632 65.048ZM224.328 62.84C224.296 63.2507 224.32 63.576 224.4 63.816C224.48 64.0507 224.595 64.2187 224.744 64.32C224.899 64.416 225.075 64.464 225.272 64.464C225.581 64.464 225.901 64.344 226.232 64.104C226.563 63.8587 226.883 63.5333 227.192 63.128C227.501 62.7227 227.781 62.272 228.032 61.776C228.283 61.28 228.483 60.7733 228.632 60.256C228.787 59.7387 228.872 59.2507 228.888 58.792C228.904 58.552 228.869 58.3787 228.784 58.272C228.704 58.16 228.571 58.104 228.384 58.104C228.027 58.104 227.661 58.1893 227.288 58.36C226.915 58.5253 226.557 58.76 226.216 59.064C225.875 59.368 225.568 59.72 225.296 60.12C225.024 60.5147 224.803 60.944 224.632 61.408C224.461 61.872 224.36 62.3493 224.328 62.84ZM235.468 57.608C236.033 57.6293 236.521 57.7867 236.932 58.08C237.342 58.3733 237.636 58.7867 237.812 59.32C237.988 59.8533 238.009 60.4987 237.876 61.256C237.774 61.8267 237.588 62.3547 237.316 62.84C237.049 63.3253 236.718 63.744 236.324 64.096C235.934 64.448 235.502 64.7173 235.028 64.904C234.558 65.0907 234.065 65.1707 233.548 65.144C233.004 65.1173 232.532 64.96 232.132 64.672C231.732 64.384 231.446 63.9733 231.276 63.44C231.105 62.9013 231.084 62.256 231.212 61.504C231.318 60.928 231.502 60.3973 231.764 59.912C232.03 59.4267 232.356 59.008 232.74 58.656C233.124 58.304 233.548 58.0373 234.012 57.856C234.476 57.6693 234.961 57.5867 235.468 57.608ZM233.636 64.656C233.908 64.6773 234.172 64.6427 234.428 64.552C234.689 64.456 234.937 64.312 235.172 64.12C235.412 63.9227 235.63 63.6827 235.828 63.4C236.025 63.112 236.196 62.784 236.34 62.416C236.489 62.0427 236.606 61.6373 236.692 61.2C236.82 60.5173 236.844 59.952 236.764 59.504C236.689 59.056 236.532 58.7173 236.292 58.488C236.052 58.2533 235.748 58.1227 235.38 58.096C235.113 58.0747 234.854 58.112 234.604 58.208C234.353 58.2987 234.11 58.4427 233.876 58.64C233.646 58.832 233.433 59.072 233.236 59.36C233.044 59.6427 232.876 59.9707 232.732 60.344C232.588 60.712 232.476 61.1173 232.396 61.56C232.262 62.2427 232.233 62.808 232.308 63.256C232.382 63.704 232.534 64.0427 232.764 64.272C232.998 64.5013 233.289 64.6293 233.636 64.656ZM241.284 64.696C241.679 64.696 242.001 64.5947 242.252 64.392C242.508 64.184 242.636 63.92 242.636 63.6C242.636 63.44 242.601 63.28 242.532 63.12C242.463 62.96 242.337 62.7787 242.156 62.576C241.98 62.3733 241.721 62.128 241.38 61.84C241.017 61.5307 240.735 61.264 240.532 61.04C240.329 60.816 240.188 60.6027 240.108 60.4C240.028 60.192 239.988 59.96 239.988 59.704C239.988 59.3253 240.097 58.9787 240.316 58.664C240.54 58.344 240.855 58.088 241.26 57.896C241.671 57.704 242.159 57.608 242.724 57.608C243.161 57.608 243.532 57.672 243.836 57.8C244.145 57.928 244.383 58.096 244.548 58.304C244.713 58.5067 244.796 58.72 244.796 58.944C244.796 59.0987 244.756 59.2187 244.676 59.304C244.601 59.3893 244.5 59.432 244.372 59.432C244.255 59.432 244.151 59.3947 244.06 59.32C243.969 59.24 243.879 59.1013 243.788 58.904C243.66 58.6213 243.497 58.4027 243.3 58.248C243.103 58.0933 242.857 58.016 242.564 58.016C242.1 58.016 241.729 58.1413 241.452 58.392C241.175 58.6373 241.036 58.9413 241.036 59.304C241.036 59.4747 241.068 59.6453 241.132 59.816C241.201 59.9813 241.324 60.168 241.5 60.376C241.676 60.5787 241.932 60.8267 242.268 61.12C242.647 61.4507 242.937 61.7307 243.14 61.96C243.348 62.1893 243.492 62.4027 243.572 62.6C243.652 62.7973 243.692 63.0133 243.692 63.248C243.687 63.6107 243.577 63.936 243.364 64.224C243.156 64.5067 242.855 64.7307 242.46 64.896C242.065 65.0613 241.599 65.144 241.06 65.144C240.601 65.144 240.204 65.0693 239.868 64.92C239.532 64.7707 239.271 64.5813 239.084 64.352C238.897 64.1173 238.804 63.88 238.804 63.64C238.809 63.4907 238.847 63.3733 238.916 63.288C238.991 63.2027 239.087 63.16 239.204 63.16C239.321 63.16 239.431 63.2 239.532 63.28C239.633 63.36 239.729 63.496 239.82 63.688C240.012 64.0507 240.231 64.3093 240.476 64.464C240.721 64.6187 240.991 64.696 241.284 64.696Z" fill="#1D1D1D"/>
<path d="M10.14 61.6H11.4L13.02 59.2V36.64C13.02 35.86 12.54 34.54 11.1 34.54H9.66L8.1 37V59.26C8.1 60.94 9.06 61.6 10.14 61.6ZM10.38 30.28H11.4L13.02 27.88V15.64C13.02 14.26 12.42 13.3 10.74 13.3H9.72L8.1 15.76V28C8.1 29.5 8.88 30.28 10.38 30.28ZM1.02 27.88V18.22L8.22 8.68H12.96C17.34 8.68 20.1 11.98 20.1 16.3V26.26C19.68 26.68 15.36 31.12 14.82 31.66C18.84 33.16 20.1 34.9 20.1 38.8V56.92L12.84 67H8.34C2.94 67 1.02 62.86 1.02 57.16V40.66C1.38 40.12 5.4 34.6 5.88 33.94C3 33.22 1.02 31.6 1.02 27.88ZM36.5695 14.98L29.1895 52.18H34.5295L36.9895 14.98H36.5695ZM22.5295 57.46V53.68L32.7895 8.68H41.4895V52.18H45.5095V58.42H41.4895V67H34.4095L34.4695 58.42H23.5495C22.8895 58.42 22.5295 58.12 22.5295 57.46ZM80.8978 63.34H81.7978L83.2378 61.24V38.74L78.8578 48.34V61.24C78.8578 62.62 79.5778 63.34 80.8978 63.34ZM55.3378 47.26H56.2378L57.6178 45.16V22.24L53.2378 31.84V45.16C53.2378 46.54 53.9578 47.26 55.3378 47.26ZM78.8578 30.94V44.32L83.2378 34.72V31C83.2378 29.56 82.5778 28.9 81.1978 28.9H80.2978L78.8578 30.94ZM53.2378 14.5V27.82L57.6178 18.22V14.5C57.6178 13.12 56.8978 12.4 55.5778 12.4H54.6778L53.2378 14.5ZM62.4178 43.48L57.1378 50.92H53.8378C50.5978 50.92 48.4378 48.7 48.4378 45.34V16.18L53.7178 8.74H57.0178C60.2578 8.74 62.4178 10.96 62.4178 14.32V43.48ZM59.2378 67H54.8578L77.3578 8.68H81.7378L59.2378 67ZM88.0378 59.56L82.7578 67H79.4578C76.2178 67 74.0578 64.78 74.0578 61.42V32.68L79.3378 25.24H82.6378C85.8778 25.24 88.0378 27.46 88.0378 30.82V59.56Z" fill="#FE016A"/>
</svg>
