<svg width="312" height="280" viewBox="0 0 312 280" fill="none" xmlns="http://www.w3.org/2000/svg">
<path d="M3.88901 26.4817H11.7004L16.2274 111.075L16.76 122.526H17.4701L22.5297 26.4817H30.2523L22.2634 133H11.9666L3.88901 26.4817ZM57.7438 124.656V133H41.6773C35.7301 133 31.7356 129.538 31.7356 123.502V49.7382C31.7356 43.791 35.9076 39.7965 41.9436 39.7965H49.3999C53.6606 39.7965 57.1225 42.4595 57.1225 48.318V105.305L45.2279 114.714L40.4346 115.513V124.035C40.4346 126.431 42.0324 127.763 44.3403 127.408L56.4124 123.68C57.2113 123.502 57.7438 123.857 57.7438 124.656ZM48.8673 104.861V51.2472C48.8673 47.5191 47.5358 45.7438 44.6066 45.7438C41.7661 45.7438 40.4346 47.5191 40.4346 51.2472V109.655L44.074 109.3L48.8673 104.861ZM61.9165 34.9144V27.7244C61.9165 26.9256 62.3603 26.4817 63.1592 26.4817H69.4615C70.2604 26.4817 70.6155 26.9256 70.6155 27.7244V34.9144C70.6155 35.8021 70.2604 36.2459 69.4615 36.2459H63.1592C62.2716 36.2459 61.9165 35.8021 61.9165 34.9144ZM70.6155 39.7965V143.829C70.6155 149.777 66.6211 153.771 60.6738 153.771H50.9096V144.983C50.9096 144.184 51.3534 143.741 52.0636 144.096L58.1884 147.469C58.5434 147.557 58.8985 147.646 59.2535 147.646C60.6738 147.646 61.9165 146.581 61.9165 144.451V39.7965H70.6155ZM84.4109 39.7965H90.9795C97.0155 39.7965 100.477 43.791 100.477 49.7382V119.153L90.7132 133H84.5884C78.5523 133 74.5579 128.562 74.5579 121.993V52.4012L84.4109 39.7965ZM89.0266 126.609L91.7784 122.171V51.6023C91.7784 47.6966 90.8907 46.0988 87.4289 46.0988H86.0086L83.2569 49.4719V120.129C83.2569 124.745 84.6771 126.698 88.139 126.609H89.0266ZM122.067 133V39.7965H130.766V49.2944H131.388C132.63 44.0572 135.382 38.9089 140.708 38.9089C144.614 38.9089 147.987 41.6606 147.987 49.2944H148.519C149.851 44.0572 152.603 38.9089 157.84 38.9089C161.834 38.9089 165.119 41.6606 165.119 49.2944V133H156.42V54.4428C156.42 49.2944 154.555 47.5191 152.691 47.5191C149.23 47.5191 148.253 54.0877 147.987 59.5024V133H139.199V54.4428C139.199 49.2944 137.335 47.5191 135.56 47.5191C132.009 47.5191 131.033 54.0877 130.766 59.5024V133H122.067ZM168.611 48.5843V39.7965H184.589C190.536 39.7965 194.53 43.791 194.53 49.7382V133H185.831V123.591H185.21C183.967 128.828 182.103 133.976 176.689 133.976C172.783 133.976 169.143 131.225 169.143 123.591V68.8227L182.813 54.6203L185.831 53.6439V49.2056C185.831 46.809 184.234 45.4775 181.926 45.8325L169.854 49.5607C169.055 49.827 168.611 49.3832 168.611 48.5843ZM185.831 59.0586L177.399 67.4913V118.443C177.399 123.502 179.085 125.366 181.127 125.366C184.766 125.366 185.565 118.798 185.831 113.383V59.0586ZM198.437 39.7965H207.136V49.2944H207.668C209 44.0572 211.751 38.9089 217.077 38.9089C220.983 38.9089 224.267 42.0156 224.267 50.0933V57.9934L216.279 67.8463C215.835 68.2902 215.568 68.1126 215.568 67.4913V54.4428C215.568 49.2944 213.704 47.5191 211.84 47.5191C208.112 47.5191 207.402 54.5315 207.136 59.5024V133H198.437V39.7965ZM247.917 39.7965V48.5843C247.917 49.3832 247.296 49.827 246.586 49.5607L238.774 45.8325C236.555 45.3 234.869 46.809 234.869 49.2056V123.591C234.869 125.988 236.555 127.497 238.774 126.875L246.586 123.236C247.296 122.881 247.917 123.413 247.917 124.212V133H236.2C230.164 133 226.17 129.006 226.17 123.058V49.7382C226.17 43.791 230.164 39.7965 236.2 39.7965H247.917ZM251.395 48.5843V39.7965H267.373C273.32 39.7965 277.314 43.791 277.314 49.7382V133H268.615V123.591H267.994C266.751 128.828 264.887 133.976 259.473 133.976C255.567 133.976 251.927 131.225 251.927 123.591V68.8227L265.597 54.6203L268.615 53.6439V49.2056C268.615 46.809 267.018 45.4775 264.71 45.8325L252.638 49.5607C251.839 49.827 251.395 49.3832 251.395 48.5843ZM268.615 59.0586L260.183 67.4913V118.443C260.183 123.502 261.869 125.366 263.911 125.366C267.55 125.366 268.349 118.798 268.615 113.383V59.0586ZM305.897 49.5607L294.003 45.9213C291.695 45.4775 290.097 46.809 290.097 49.2056V53.3776L306.785 67.3137C306.785 69.2666 306.785 120.928 306.785 121.816C306.785 130.781 303.146 133.976 299.151 133.976C293.825 133.976 291.873 128.828 290.63 123.591H290.097C290.097 123.768 290.097 132.734 290.097 133H280.954V68.1126C280.954 67.3137 281.487 66.7811 282.286 66.7811H290.097C290.097 68.0239 290.097 112.318 290.097 113.383C290.363 118.798 291.074 125.366 294.713 125.366C296.755 125.366 298.53 123.147 298.53 116.845V70.1542L284.327 57.6383C281.931 56.2181 280.954 54.0877 280.954 50.8922V48.4067C280.954 43.4359 284.949 39.7965 290.896 39.7965H307.14V48.5843C307.14 49.3832 306.608 49.827 305.897 49.5607ZM68.5396 257V163.797H77.2385V173.294H77.7711C79.1026 168.057 81.6768 162.909 87.269 162.909C91.441 162.909 94.3702 165.661 94.3702 173.294V257H85.6712V178.443C85.6712 173.206 84.0735 171.519 82.0319 171.519C78.215 171.519 77.5048 177.999 77.2385 183.502V257H68.5396ZM108.119 163.797H114.688C120.724 163.797 124.186 167.791 124.186 173.738V243.153L114.421 257H108.297C102.261 257 98.2662 252.562 98.2662 245.993V176.401L108.119 163.797ZM112.735 250.609L115.487 246.171V175.602C115.487 171.697 114.599 170.099 111.137 170.099H109.717L106.965 173.472V244.129C106.965 248.745 108.385 250.698 111.847 250.609H112.735ZM146.131 158.914V151.724C146.131 150.926 146.575 150.482 147.373 150.482H153.676C154.475 150.482 154.83 150.926 154.83 151.724V158.914C154.83 159.802 154.475 160.246 153.676 160.246H147.373C146.486 160.246 146.131 159.802 146.131 158.914ZM154.83 163.797V267.829C154.83 273.777 150.835 277.771 144.888 277.771H135.124V268.983C135.124 268.184 135.568 267.741 136.278 268.096L142.403 271.469C142.758 271.557 143.113 271.646 143.468 271.646C144.888 271.646 146.131 270.581 146.131 268.451V163.797H154.83ZM168.625 163.797H175.194C181.23 163.797 184.692 167.791 184.692 173.738V243.153L174.927 257H168.803C162.767 257 158.772 252.562 158.772 245.993V176.401L168.625 163.797ZM173.241 250.609L175.993 246.171V175.602C175.993 171.697 175.105 170.099 171.643 170.099H170.223L167.471 173.472V244.129C167.471 248.745 168.891 250.698 172.353 250.609H173.241ZM205.465 163.797H214.164V252.295H198.275L194.636 247.68L195.613 257.089H206.353C213.809 257.089 217.893 261.261 217.893 268.184C217.893 275.197 213.632 279.191 206.708 279.191H199.252C195.169 279.191 192.328 276.883 193.127 274.22L195.701 263.835H191.174C189.843 263.835 189.133 262.859 189.133 261.527L189.221 247.502L192.683 245.105L188.245 239.424V173.294C188.245 165.661 191.973 162.909 195.968 162.909C201.471 162.909 203.513 168.057 204.844 173.294H205.465V163.797ZM205.465 245.904L205.377 183.502C205.11 177.999 204.312 171.519 200.672 171.519C198.631 171.519 196.944 173.294 196.944 178.443V240.49L201.116 245.904H205.465ZM204.045 263.746L201.56 273.067H204.844C208.661 273.067 210.614 271.469 210.614 268.184C210.614 264.634 208.483 263.835 204.578 263.746H204.045ZM227.657 163.797H234.226C240.262 163.797 243.724 167.791 243.724 173.738V243.153L233.96 257H227.835C221.799 257 217.805 252.562 217.805 245.993V176.401L227.657 163.797ZM232.273 250.609L235.025 246.171V175.602C235.025 171.697 234.137 170.099 230.675 170.099H229.255L226.504 173.472V244.129C226.504 248.745 227.924 250.698 231.386 250.609H232.273Z" fill="#FE016A"/>
<path d="M9.93533 196C9.93533 195.472 10.0053 195.012 10.1453 194.62C10.2893 194.228 10.4833 193.882 10.7273 193.582C10.9753 193.282 11.2573 193.014 11.5733 192.778C11.8933 192.542 12.2233 192.322 12.5633 192.118C12.8953 191.914 13.2053 191.704 13.4933 191.488C13.7853 191.272 14.0193 191.03 14.1953 190.762C14.3753 190.49 14.4653 190.174 14.4653 189.814C14.4653 189.366 14.3093 188.994 13.9973 188.698C13.6853 188.398 13.2593 188.248 12.7193 188.248C12.1913 188.248 11.7753 188.372 11.4713 188.62C11.1713 188.864 10.9593 189.188 10.8353 189.592L10.0793 189.25C10.2353 188.734 10.5473 188.306 11.0153 187.966C11.4833 187.626 12.0593 187.456 12.7433 187.456C13.2833 187.456 13.7473 187.556 14.1353 187.756C14.5233 187.956 14.8193 188.234 15.0233 188.59C15.2313 188.946 15.3353 189.358 15.3353 189.826C15.3353 190.334 15.2233 190.766 14.9993 191.122C14.7753 191.474 14.4813 191.786 14.1173 192.058C13.7533 192.326 13.3653 192.582 12.9533 192.826C12.5813 193.05 12.2493 193.276 11.9573 193.504C11.6693 193.732 11.4333 193.98 11.2493 194.248C11.0693 194.516 10.9553 194.826 10.9073 195.178H15.4073V196H9.93533ZM19.9847 196.144C19.4407 196.144 18.9847 196.018 18.6167 195.766C18.2527 195.514 17.9607 195.178 17.7407 194.758C17.5247 194.334 17.3687 193.866 17.2727 193.354C17.1807 192.838 17.1347 192.32 17.1347 191.8C17.1347 191.436 17.1607 191.054 17.2127 190.654C17.2647 190.254 17.3527 189.866 17.4767 189.49C17.6007 189.11 17.7707 188.768 17.9867 188.464C18.2027 188.156 18.4747 187.912 18.8027 187.732C19.1307 187.548 19.5247 187.456 19.9847 187.456C20.5327 187.456 20.9887 187.584 21.3527 187.84C21.7207 188.092 22.0127 188.43 22.2287 188.854C22.4487 189.278 22.6047 189.746 22.6967 190.258C22.7927 190.77 22.8407 191.284 22.8407 191.8C22.8407 192.164 22.8127 192.546 22.7567 192.946C22.7047 193.346 22.6147 193.736 22.4867 194.116C22.3627 194.492 22.1907 194.834 21.9707 195.142C21.7547 195.446 21.4827 195.69 21.1547 195.874C20.8307 196.054 20.4407 196.144 19.9847 196.144ZM19.9847 195.346C20.3887 195.346 20.7187 195.236 20.9747 195.016C21.2307 194.792 21.4287 194.502 21.5687 194.146C21.7087 193.79 21.8067 193.406 21.8627 192.994C21.9187 192.582 21.9467 192.184 21.9467 191.8C21.9467 191.368 21.9147 190.944 21.8507 190.528C21.7907 190.108 21.6867 189.726 21.5387 189.382C21.3947 189.034 21.1967 188.758 20.9447 188.554C20.6927 188.35 20.3727 188.248 19.9847 188.248C19.5807 188.248 19.2487 188.36 18.9887 188.584C18.7327 188.804 18.5327 189.094 18.3887 189.454C18.2487 189.81 18.1507 190.196 18.0947 190.612C18.0387 191.024 18.0107 191.42 18.0107 191.8C18.0107 192.232 18.0407 192.66 18.1007 193.084C18.1647 193.504 18.2707 193.884 18.4187 194.224C18.5667 194.564 18.7687 194.836 19.0247 195.04C19.2807 195.244 19.6007 195.346 19.9847 195.346ZM25.6107 196V189.208H24.2007V188.638C24.5047 188.638 24.7647 188.61 24.9807 188.554C25.1967 188.494 25.3747 188.39 25.5147 188.242C25.6587 188.09 25.7707 187.876 25.8507 187.6H26.4507V196H25.6107ZM29.9123 196C29.9203 195.088 30.0043 194.208 30.1643 193.36C30.3283 192.512 30.5983 191.68 30.9743 190.864C31.3503 190.044 31.8603 189.22 32.5043 188.392H28.2803V187.6H33.4283V188.356C32.8763 188.992 32.4263 189.652 32.0783 190.336C31.7343 191.02 31.4683 191.7 31.2803 192.376C31.0923 193.052 30.9623 193.698 30.8903 194.314C30.8223 194.93 30.7863 195.492 30.7823 196H29.9123Z" fill="white"/>
<path d="M10.8286 174.16L10.5966 173.92C10.6926 173.893 10.7939 173.872 10.9006 173.856C11.0126 173.84 11.1299 173.827 11.2526 173.816C11.3806 173.805 11.5112 173.8 11.6446 173.8C12.4179 173.8 13.0899 173.917 13.6606 174.152C14.2366 174.387 14.6819 174.723 14.9966 175.16C15.3112 175.597 15.4686 176.123 15.4686 176.736C15.4686 177.451 15.2872 178.075 14.9246 178.608C14.5672 179.141 14.0579 179.555 13.3966 179.848C12.7406 180.136 11.9592 180.28 11.0526 180.28C10.1779 180.28 9.44723 180.171 8.86056 179.952C8.2739 179.728 7.8339 179.424 7.54056 179.04C7.24723 178.651 7.10056 178.213 7.10056 177.728C7.10056 177.269 7.2419 176.899 7.52456 176.616C7.81256 176.328 8.16723 176.184 8.58856 176.184C9.03656 176.184 9.37256 176.307 9.59656 176.552C9.8259 176.792 9.94056 177.112 9.94056 177.512V178.328C9.94056 178.68 10.0366 178.973 10.2286 179.208C10.4206 179.443 10.6952 179.557 11.0526 179.552C11.3566 179.552 11.6179 179.469 11.8366 179.304C12.0606 179.139 12.2339 178.883 12.3566 178.536C12.4846 178.184 12.5486 177.731 12.5486 177.176C12.5486 176.328 12.3966 175.715 12.0926 175.336C11.7886 174.957 11.3486 174.768 10.7726 174.768H10.2206C10.0339 174.768 9.89523 174.728 9.80456 174.648C9.7139 174.568 9.66856 174.451 9.66856 174.296C9.66856 174.184 9.69523 174.083 9.74856 173.992C9.8019 173.896 9.90056 173.784 10.0446 173.656L13.6286 170.288L13.7086 171.104H9.37256C9.1699 171.104 9.01256 171.141 8.90056 171.216C8.78856 171.285 8.71123 171.403 8.66856 171.568L8.48456 172.312C8.45256 172.44 8.39123 172.544 8.30056 172.624C8.21523 172.699 8.0899 172.736 7.92456 172.736C7.76456 172.736 7.6339 172.693 7.53256 172.608C7.43656 172.517 7.39656 172.381 7.41256 172.2L7.69256 169.448C7.70856 169.245 7.78856 169.088 7.93256 168.976C8.07656 168.859 8.27123 168.8 8.51656 168.8H14.8446C15.1059 168.8 15.2926 168.835 15.4046 168.904C15.5219 168.968 15.5806 169.072 15.5806 169.216C15.5806 169.317 15.5432 169.432 15.4686 169.56C15.3939 169.683 15.2366 169.859 14.9966 170.088L10.8286 174.16ZM20.8577 180.28C19.8817 180.28 19.0844 180.16 18.4657 179.92C17.8524 179.68 17.399 179.352 17.1057 178.936C16.8177 178.52 16.6737 178.045 16.6737 177.512C16.6737 177.091 16.8017 176.707 17.0577 176.36C17.3137 176.008 17.711 175.715 18.2497 175.48C18.7937 175.24 19.4924 175.085 20.3457 175.016L20.3777 175.2C20.111 175.413 19.9217 175.72 19.8097 176.12C19.703 176.515 19.6497 176.904 19.6497 177.288C19.6497 178.019 19.783 178.589 20.0497 179C20.3164 179.405 20.7084 179.608 21.2257 179.608C21.695 179.608 22.0497 179.459 22.2897 179.16C22.5297 178.856 22.6497 178.443 22.6497 177.92C22.6497 177.557 22.5777 177.224 22.4337 176.92C22.2897 176.611 22.039 176.336 21.6817 176.096C21.3244 175.851 20.8284 175.64 20.1937 175.464C18.9564 175.117 18.0657 174.656 17.5217 174.08C16.9777 173.499 16.7057 172.843 16.7057 172.112C16.7057 171.477 16.879 170.888 17.2257 170.344C17.5777 169.8 18.111 169.36 18.8257 169.024C19.5404 168.688 20.4364 168.52 21.5137 168.52C22.3937 168.52 23.1457 168.653 23.7697 168.92C24.399 169.181 24.8817 169.544 25.2177 170.008C25.559 170.472 25.7297 171 25.7297 171.592C25.7297 172.067 25.5964 172.512 25.3297 172.928C25.0684 173.339 24.655 173.683 24.0897 173.96C23.5297 174.237 22.7964 174.405 21.8897 174.464L21.6577 174.264C21.887 174.083 22.0897 173.859 22.2657 173.592C22.4417 173.325 22.5777 173.027 22.6737 172.696C22.775 172.36 22.8257 172 22.8257 171.616C22.8257 171.099 22.759 170.664 22.6257 170.312C22.4977 169.955 22.3084 169.683 22.0577 169.496C21.807 169.309 21.4977 169.216 21.1297 169.216C20.815 169.216 20.5457 169.293 20.3217 169.448C20.0977 169.603 19.927 169.813 19.8097 170.08C19.6924 170.341 19.6337 170.645 19.6337 170.992C19.6337 171.472 19.7164 171.896 19.8817 172.264C20.0524 172.627 20.3377 172.947 20.7377 173.224C21.1377 173.501 21.6844 173.747 22.3777 173.96C23.5404 174.307 24.3937 174.744 24.9377 175.272C25.4817 175.8 25.7537 176.4 25.7537 177.072C25.7537 177.696 25.5617 178.248 25.1777 178.728C24.799 179.208 24.2444 179.587 23.5137 179.864C22.783 180.141 21.8977 180.28 20.8577 180.28ZM29.8632 168.552C30.7379 168.552 31.4419 168.816 31.9752 169.344C32.5139 169.872 32.7832 170.595 32.7832 171.512C32.7832 172.189 32.6552 172.765 32.3992 173.24C32.1432 173.715 31.7885 174.075 31.3352 174.32C30.8872 174.565 30.3752 174.688 29.7992 174.688C28.8499 174.688 28.1112 174.421 27.5832 173.888C27.0605 173.355 26.7992 172.597 26.7992 171.616C26.7992 170.688 27.0739 169.947 27.6232 169.392C28.1725 168.832 28.9192 168.552 29.8632 168.552ZM30.6872 171.648C30.6872 170.741 30.6099 170.101 30.4552 169.728C30.3005 169.349 30.0819 169.16 29.7992 169.16C29.5005 169.16 29.2765 169.349 29.1272 169.728C28.9779 170.107 28.9032 170.701 28.9032 171.512C28.9032 172.461 28.9805 173.125 29.1352 173.504C29.2952 173.883 29.5245 174.072 29.8232 174.072C29.9939 174.072 30.1432 174.003 30.2712 173.864C30.3992 173.72 30.5005 173.472 30.5752 173.12C30.6499 172.768 30.6872 172.277 30.6872 171.648ZM33.7592 173.776C33.6632 173.893 33.5752 173.968 33.4952 174C33.4205 174.027 33.3272 174.011 33.2152 173.952C33.1192 173.904 33.0659 173.84 33.0552 173.76C33.0499 173.675 33.0765 173.565 33.1352 173.432C33.2152 173.272 33.3139 173.069 33.4312 172.824C33.5539 172.579 33.6845 172.312 33.8232 172.024C33.9672 171.731 34.1139 171.432 34.2632 171.128C34.4125 170.824 34.5592 170.533 34.7032 170.256C34.8472 169.979 34.9752 169.731 35.0872 169.512C35.2045 169.288 35.3005 169.117 35.3752 169C35.5085 168.787 35.6712 168.651 35.8632 168.592C36.0605 168.528 36.2739 168.56 36.5032 168.688C36.7272 168.811 36.8552 168.965 36.8872 169.152C36.9245 169.339 36.8765 169.539 36.7432 169.752C36.6739 169.864 36.5672 170.019 36.4232 170.216C36.2792 170.413 36.1139 170.64 35.9272 170.896C35.7459 171.152 35.5539 171.419 35.3512 171.696C35.1485 171.968 34.9459 172.237 34.7432 172.504C34.5459 172.765 34.3619 173.005 34.1912 173.224C34.0205 173.443 33.8765 173.627 33.7592 173.776ZM32.1512 175C32.2525 174.883 32.3432 174.808 32.4232 174.776C32.5032 174.739 32.5992 174.749 32.7112 174.808C32.8072 174.861 32.8579 174.931 32.8632 175.016C32.8739 175.101 32.8445 175.208 32.7752 175.336C32.7005 175.496 32.6019 175.701 32.4792 175.952C32.3619 176.197 32.2312 176.467 32.0872 176.76C31.9432 177.053 31.7965 177.352 31.6472 177.656C31.5032 177.96 31.3592 178.253 31.2152 178.536C31.0712 178.813 30.9405 179.061 30.8232 179.28C30.7112 179.499 30.6179 179.667 30.5432 179.784C30.4045 179.992 30.2365 180.125 30.0392 180.184C29.8472 180.243 29.6392 180.211 29.4152 180.088C29.1965 179.971 29.0685 179.821 29.0312 179.64C28.9939 179.453 29.0445 179.251 29.1832 179.032C29.2525 178.92 29.3565 178.765 29.4952 178.568C29.6392 178.365 29.8019 178.136 29.9832 177.88C30.1699 177.624 30.3645 177.36 30.5672 177.088C30.7752 176.811 30.9779 176.541 31.1752 176.28C31.3779 176.013 31.5619 175.768 31.7272 175.544C31.8979 175.32 32.0392 175.139 32.1512 175ZM36.1672 174.128C37.0419 174.128 37.7459 174.392 38.2792 174.92C38.8179 175.448 39.0872 176.171 39.0872 177.088C39.0872 177.765 38.9592 178.341 38.7032 178.816C38.4472 179.291 38.0925 179.651 37.6392 179.896C37.1912 180.141 36.6792 180.264 36.1032 180.264C35.1539 180.264 34.4152 179.997 33.8872 179.464C33.3645 178.931 33.1032 178.173 33.1032 177.192C33.1032 176.264 33.3779 175.523 33.9272 174.968C34.4765 174.408 35.2232 174.128 36.1672 174.128ZM36.9912 177.224C36.9912 176.317 36.9139 175.677 36.7592 175.304C36.6045 174.925 36.3859 174.736 36.1032 174.736C35.8045 174.736 35.5805 174.925 35.4312 175.304C35.2819 175.683 35.2072 176.277 35.2072 177.088C35.2072 178.037 35.2845 178.701 35.4392 179.08C35.5992 179.459 35.8285 179.648 36.1272 179.648C36.2979 179.648 36.4472 179.579 36.5752 179.44C36.7032 179.296 36.8045 179.048 36.8792 178.696C36.9539 178.344 36.9912 177.853 36.9912 177.224Z" fill="white"/>
<path d="M273.926 28C273.926 27.472 273.996 27.012 274.136 26.62C274.28 26.228 274.474 25.882 274.718 25.582C274.966 25.282 275.248 25.014 275.564 24.778C275.884 24.542 276.214 24.322 276.554 24.118C276.886 23.914 277.196 23.704 277.484 23.488C277.776 23.272 278.01 23.03 278.186 22.762C278.366 22.49 278.456 22.174 278.456 21.814C278.456 21.366 278.3 20.994 277.988 20.698C277.676 20.398 277.25 20.248 276.71 20.248C276.182 20.248 275.766 20.372 275.462 20.62C275.162 20.864 274.95 21.188 274.826 21.592L274.07 21.25C274.226 20.734 274.538 20.306 275.006 19.966C275.474 19.626 276.05 19.456 276.734 19.456C277.274 19.456 277.738 19.556 278.126 19.756C278.514 19.956 278.81 20.234 279.014 20.59C279.222 20.946 279.326 21.358 279.326 21.826C279.326 22.334 279.214 22.766 278.99 23.122C278.766 23.474 278.472 23.786 278.108 24.058C277.744 24.326 277.356 24.582 276.944 24.826C276.572 25.05 276.24 25.276 275.948 25.504C275.66 25.732 275.424 25.98 275.24 26.248C275.06 26.516 274.946 26.826 274.898 27.178H279.398V28H273.926ZM283.975 28.144C283.431 28.144 282.975 28.018 282.607 27.766C282.243 27.514 281.951 27.178 281.731 26.758C281.515 26.334 281.359 25.866 281.263 25.354C281.171 24.838 281.125 24.32 281.125 23.8C281.125 23.436 281.151 23.054 281.203 22.654C281.255 22.254 281.343 21.866 281.467 21.49C281.591 21.11 281.761 20.768 281.977 20.464C282.193 20.156 282.465 19.912 282.793 19.732C283.121 19.548 283.515 19.456 283.975 19.456C284.523 19.456 284.979 19.584 285.343 19.84C285.711 20.092 286.003 20.43 286.219 20.854C286.439 21.278 286.595 21.746 286.687 22.258C286.783 22.77 286.831 23.284 286.831 23.8C286.831 24.164 286.803 24.546 286.747 24.946C286.695 25.346 286.605 25.736 286.477 26.116C286.353 26.492 286.181 26.834 285.961 27.142C285.745 27.446 285.473 27.69 285.145 27.874C284.821 28.054 284.431 28.144 283.975 28.144ZM283.975 27.346C284.379 27.346 284.709 27.236 284.965 27.016C285.221 26.792 285.419 26.502 285.559 26.146C285.699 25.79 285.797 25.406 285.853 24.994C285.909 24.582 285.937 24.184 285.937 23.8C285.937 23.368 285.905 22.944 285.841 22.528C285.781 22.108 285.677 21.726 285.529 21.382C285.385 21.034 285.187 20.758 284.935 20.554C284.683 20.35 284.363 20.248 283.975 20.248C283.571 20.248 283.239 20.36 282.979 20.584C282.723 20.804 282.523 21.094 282.379 21.454C282.239 21.81 282.141 22.196 282.085 22.612C282.029 23.024 282.001 23.42 282.001 23.8C282.001 24.232 282.031 24.66 282.091 25.084C282.155 25.504 282.261 25.884 282.409 26.224C282.557 26.564 282.759 26.836 283.015 27.04C283.271 27.244 283.591 27.346 283.975 27.346ZM288.545 28C288.545 27.472 288.615 27.012 288.755 26.62C288.899 26.228 289.093 25.882 289.337 25.582C289.585 25.282 289.867 25.014 290.183 24.778C290.503 24.542 290.833 24.322 291.173 24.118C291.505 23.914 291.815 23.704 292.103 23.488C292.395 23.272 292.629 23.03 292.805 22.762C292.985 22.49 293.075 22.174 293.075 21.814C293.075 21.366 292.919 20.994 292.607 20.698C292.295 20.398 291.869 20.248 291.329 20.248C290.801 20.248 290.385 20.372 290.081 20.62C289.781 20.864 289.569 21.188 289.445 21.592L288.689 21.25C288.845 20.734 289.157 20.306 289.625 19.966C290.093 19.626 290.669 19.456 291.353 19.456C291.893 19.456 292.357 19.556 292.745 19.756C293.133 19.956 293.429 20.234 293.633 20.59C293.841 20.946 293.945 21.358 293.945 21.826C293.945 22.334 293.833 22.766 293.609 23.122C293.385 23.474 293.091 23.786 292.727 24.058C292.363 24.326 291.975 24.582 291.563 24.826C291.191 25.05 290.859 25.276 290.567 25.504C290.279 25.732 290.043 25.98 289.859 26.248C289.679 26.516 289.565 26.826 289.517 27.178H294.017V28H288.545ZM298.27 28.144C297.598 28.144 297.022 27.982 296.542 27.658C296.062 27.33 295.7 26.856 295.456 26.236L296.242 25.918C296.642 26.862 297.318 27.334 298.27 27.334C298.862 27.334 299.33 27.188 299.674 26.896C300.022 26.6 300.196 26.202 300.196 25.702C300.196 25.178 300.032 24.77 299.704 24.478C299.38 24.182 298.928 24.034 298.348 24.034H297.796V23.236H298.246C298.734 23.236 299.126 23.098 299.422 22.822C299.718 22.542 299.866 22.178 299.866 21.73C299.866 21.286 299.722 20.93 299.434 20.662C299.146 20.39 298.77 20.254 298.306 20.254C297.922 20.254 297.574 20.356 297.262 20.56C296.954 20.764 296.708 21.058 296.524 21.442L295.738 21.142C295.954 20.618 296.29 20.206 296.746 19.906C297.206 19.606 297.726 19.456 298.306 19.456C298.778 19.456 299.198 19.552 299.566 19.744C299.934 19.932 300.222 20.192 300.43 20.524C300.642 20.852 300.748 21.226 300.748 21.646C300.748 22.062 300.644 22.44 300.436 22.78C300.228 23.116 299.94 23.37 299.572 23.542C300.044 23.694 300.412 23.958 300.676 24.334C300.944 24.71 301.078 25.158 301.078 25.678C301.078 26.162 300.958 26.59 300.718 26.962C300.482 27.33 300.152 27.62 299.728 27.832C299.308 28.04 298.822 28.144 298.27 28.144Z" fill="white"/>
<path d="M277.677 6.792C277.677 6.65867 277.698 6.544 277.741 6.448C277.784 6.352 277.848 6.264 277.933 6.184L279.773 4.52C279.89 4.408 279.989 4.336 280.069 4.304C280.149 4.272 280.226 4.256 280.301 4.256C280.402 4.256 280.482 4.28533 280.541 4.344C280.6 4.40267 280.629 4.49867 280.629 4.632L280.645 10.368C280.645 10.528 280.682 10.6507 280.757 10.736C280.832 10.816 280.936 10.8747 281.069 10.912L281.661 11.08C281.81 11.128 281.922 11.1893 281.997 11.264C282.077 11.3387 282.117 11.432 282.117 11.544C282.117 11.688 282.069 11.8 281.973 11.88C281.882 11.96 281.738 12 281.541 12H276.669C276.285 12 276.093 11.8507 276.093 11.552C276.093 11.3173 276.242 11.16 276.541 11.08L277.269 10.912C277.402 10.8747 277.504 10.8187 277.573 10.744C277.642 10.664 277.677 10.544 277.677 10.384V6.792ZM276.005 5.04C276.25 4.81067 276.432 4.60267 276.549 4.416C276.666 4.224 276.725 4.02667 276.725 3.824C276.725 3.65333 276.696 3.496 276.637 3.352C276.578 3.20267 276.506 3.05333 276.421 2.904C276.341 2.75467 276.272 2.59467 276.213 2.424C276.154 2.248 276.125 2.05067 276.125 1.832C276.125 1.53867 276.197 1.27733 276.341 1.048C276.485 0.813333 276.698 0.631999 276.981 0.504C277.269 0.370667 277.629 0.304 278.061 0.304C278.584 0.304 279.002 0.434666 279.317 0.695999C279.637 0.957333 279.797 1.328 279.797 1.808C279.797 2.01067 279.76 2.224 279.685 2.448C279.616 2.672 279.474 2.928 279.261 3.216C279.048 3.49867 278.728 3.83733 278.301 4.232L273.693 8.712L273.533 8.296H281.805C281.97 8.296 282.104 8.328 282.205 8.392C282.306 8.456 282.357 8.56 282.357 8.704C282.357 9.01867 282.168 9.176 281.789 9.176H273.309C273.117 9.176 272.968 9.128 272.861 9.032C272.76 8.93067 272.709 8.80267 272.709 8.648C272.709 8.55733 272.738 8.46133 272.797 8.36C272.861 8.25333 272.97 8.128 273.125 7.984L276.005 5.04ZM287.519 12.28C286.74 12.28 286.079 12.168 285.535 11.944C284.996 11.7147 284.586 11.416 284.303 11.048C284.026 10.68 283.887 10.2827 283.887 9.856C283.887 9.38133 284.023 9.016 284.295 8.76C284.572 8.49867 284.94 8.368 285.399 8.368C285.868 8.368 286.228 8.49067 286.479 8.736C286.735 8.976 286.863 9.32 286.863 9.768V10.48C286.863 10.8 286.946 11.048 287.111 11.224C287.276 11.3947 287.524 11.48 287.855 11.48C288.218 11.48 288.546 11.304 288.839 10.952C289.132 10.5947 289.364 10.0053 289.535 9.184C289.711 8.36267 289.799 7.256 289.799 5.864C289.799 4.68 289.722 3.76 289.567 3.104C289.418 2.44267 289.212 1.97867 288.951 1.712C288.695 1.44 288.407 1.304 288.087 1.304C287.612 1.304 287.234 1.51733 286.951 1.944C286.668 2.36533 286.527 3.02133 286.527 3.912C286.527 4.71733 286.687 5.33067 287.007 5.752C287.332 6.168 287.754 6.376 288.271 6.376C288.57 6.376 288.847 6.312 289.103 6.184C289.364 6.056 289.583 5.87733 289.759 5.648C289.935 5.41867 290.042 5.15733 290.079 4.864L290.583 5C290.556 5.44267 290.388 5.85333 290.079 6.232C289.77 6.60533 289.356 6.90667 288.839 7.136C288.327 7.36533 287.754 7.48 287.119 7.48C286.394 7.48 285.767 7.35467 285.239 7.104C284.711 6.85333 284.303 6.488 284.015 6.008C283.727 5.528 283.583 4.944 283.583 4.256C283.583 3.52 283.767 2.872 284.135 2.312C284.503 1.74667 285.02 1.30667 285.687 0.992C286.359 0.677333 287.151 0.52 288.063 0.52C289.082 0.52 289.946 0.743999 290.655 1.192C291.37 1.63467 291.914 2.26667 292.287 3.088C292.666 3.90933 292.855 4.88267 292.855 6.008C292.855 7.34133 292.639 8.47733 292.207 9.416C291.775 10.3493 291.159 11.0613 290.359 11.552C289.564 12.0373 288.618 12.28 287.519 12.28ZM296.887 0.551999C297.761 0.551999 298.465 0.815999 298.999 1.344C299.537 1.872 299.807 2.59467 299.807 3.512C299.807 4.18933 299.679 4.76533 299.423 5.24C299.167 5.71467 298.812 6.07467 298.359 6.32C297.911 6.56533 297.399 6.688 296.823 6.688C295.873 6.688 295.135 6.42133 294.607 5.888C294.084 5.35467 293.823 4.59733 293.823 3.616C293.823 2.688 294.097 1.94667 294.647 1.392C295.196 0.831999 295.943 0.551999 296.887 0.551999ZM297.711 3.648C297.711 2.74133 297.633 2.10133 297.479 1.728C297.324 1.34933 297.105 1.16 296.823 1.16C296.524 1.16 296.3 1.34933 296.151 1.728C296.001 2.10667 295.927 2.70133 295.927 3.512C295.927 4.46133 296.004 5.12533 296.159 5.504C296.319 5.88267 296.548 6.072 296.847 6.072C297.017 6.072 297.167 6.00267 297.295 5.864C297.423 5.72 297.524 5.472 297.599 5.12C297.673 4.768 297.711 4.27733 297.711 3.648ZM300.783 5.776C300.687 5.89333 300.599 5.968 300.519 6C300.444 6.02667 300.351 6.01067 300.239 5.952C300.143 5.904 300.089 5.84 300.079 5.76C300.073 5.67467 300.1 5.56533 300.159 5.432C300.239 5.272 300.337 5.06933 300.455 4.824C300.577 4.57867 300.708 4.312 300.847 4.024C300.991 3.73067 301.137 3.432 301.287 3.128C301.436 2.824 301.583 2.53333 301.727 2.256C301.871 1.97867 301.999 1.73067 302.111 1.512C302.228 1.288 302.324 1.11733 302.399 0.999999C302.532 0.786666 302.695 0.650666 302.887 0.591999C303.084 0.527999 303.297 0.559999 303.527 0.688C303.751 0.810666 303.879 0.965333 303.911 1.152C303.948 1.33867 303.9 1.53867 303.767 1.752C303.697 1.864 303.591 2.01867 303.447 2.216C303.303 2.41333 303.137 2.64 302.951 2.896C302.769 3.152 302.577 3.41867 302.375 3.696C302.172 3.968 301.969 4.23733 301.767 4.504C301.569 4.76533 301.385 5.00533 301.215 5.224C301.044 5.44267 300.9 5.62667 300.783 5.776ZM299.175 7C299.276 6.88267 299.367 6.808 299.447 6.776C299.527 6.73867 299.623 6.74933 299.735 6.808C299.831 6.86133 299.881 6.93067 299.887 7.016C299.897 7.10133 299.868 7.208 299.799 7.336C299.724 7.496 299.625 7.70133 299.503 7.952C299.385 8.19733 299.255 8.46667 299.111 8.76C298.967 9.05333 298.82 9.352 298.671 9.656C298.527 9.96 298.383 10.2533 298.239 10.536C298.095 10.8133 297.964 11.0613 297.847 11.28C297.735 11.4987 297.641 11.6667 297.567 11.784C297.428 11.992 297.26 12.1253 297.063 12.184C296.871 12.2427 296.663 12.2107 296.439 12.088C296.22 11.9707 296.092 11.8213 296.055 11.64C296.017 11.4533 296.068 11.2507 296.207 11.032C296.276 10.92 296.38 10.7653 296.519 10.568C296.663 10.3653 296.825 10.136 297.007 9.88C297.193 9.624 297.388 9.36 297.591 9.088C297.799 8.81067 298.001 8.54133 298.199 8.28C298.401 8.01333 298.585 7.768 298.751 7.544C298.921 7.32 299.063 7.13867 299.175 7ZM303.191 6.128C304.065 6.128 304.769 6.392 305.303 6.92C305.841 7.448 306.111 8.17067 306.111 9.088C306.111 9.76533 305.983 10.3413 305.727 10.816C305.471 11.2907 305.116 11.6507 304.663 11.896C304.215 12.1413 303.703 12.264 303.127 12.264C302.177 12.264 301.439 11.9973 300.911 11.464C300.388 10.9307 300.127 10.1733 300.127 9.192C300.127 8.264 300.401 7.52267 300.951 6.968C301.5 6.408 302.247 6.128 303.191 6.128ZM304.015 9.224C304.015 8.31733 303.937 7.67733 303.783 7.304C303.628 6.92533 303.409 6.736 303.127 6.736C302.828 6.736 302.604 6.92533 302.455 7.304C302.305 7.68267 302.231 8.27733 302.231 9.088C302.231 10.0373 302.308 10.7013 302.463 11.08C302.623 11.4587 302.852 11.648 303.151 11.648C303.321 11.648 303.471 11.5787 303.599 11.44C303.727 11.296 303.828 11.048 303.903 10.696C303.977 10.344 304.015 9.85333 304.015 9.224Z" fill="white"/>
<path d="M45.8714 181.606C46.7585 182.782 48.4307 183.016 49.6063 182.129C50.7819 181.241 51.0157 179.569 50.1286 178.394C49.2415 177.218 47.5693 176.984 46.3937 177.871C45.2181 178.759 44.9843 180.431 45.8714 181.606ZM261.871 18.6063C262.759 19.7819 264.431 20.0157 265.606 19.1286C266.782 18.2415 267.016 16.5693 266.129 15.3937C265.241 14.2181 263.569 13.9843 262.394 14.8714C261.218 15.7586 260.984 17.4307 261.871 18.6063ZM48.3012 180.399L264.301 17.3991L263.699 16.6009L47.6988 179.601L48.3012 180.399Z" fill="white"/>
</svg>
