<svg width="342" height="316" viewBox="0 0 342 316" fill="none" xmlns="http://www.w3.org/2000/svg">
<rect x="0.578506" y="27.5033" width="155" height="27" transform="rotate(-9.89819 0.578506 27.5033)" fill="white"/>
<path d="M17.7294 42.0214L17.5145 40.79L16.2831 41.0049L16.0683 39.7735L14.8369 39.9884L14.1923 36.2942L15.4236 36.0793L15.2088 34.8479L16.4402 34.633L16.2253 33.4016L21.1509 32.5422L21.3657 33.7736L22.5971 33.5587L22.812 34.7901L20.3492 35.2198L20.1343 33.9884L17.6716 34.4182L17.8864 35.6496L16.655 35.8644L17.2997 39.5586L18.5311 39.3437L18.7459 40.5751L21.2087 40.1454L20.9938 38.914L23.4566 38.4843L23.6715 39.7156L22.4401 39.9305L22.655 41.1619L17.7294 42.0214ZM26.4477 40.5001L26.2328 39.2687L25.0014 39.4836L23.927 33.3266L25.1584 33.1117L24.9436 31.8804L31.1005 30.806L31.3154 32.0374L32.5468 31.8225L33.6212 37.9795L32.3898 38.1943L32.6046 39.4257L26.4477 40.5001ZM27.4642 39.0538L31.1584 38.4092L30.084 32.2523L26.3898 32.8969L27.4642 39.0538ZM35.1659 38.9788L33.6618 30.3591L36.1246 29.9293L36.3395 31.1607L37.5709 30.9458L37.7858 32.1772L39.0171 31.9624L39.232 33.1937L40.4634 32.9789L39.8188 29.2847L42.2816 28.8549L43.7857 37.4747L41.3229 37.9044L40.8932 35.4417L39.6618 35.6565L39.4469 34.4251L38.2155 34.64L38.0006 33.4086L36.7692 33.6235L37.6287 38.5491L35.1659 38.9788ZM47.5784 36.8129L47.3635 35.5815L46.1321 35.7964L45.9172 34.565L44.6858 34.7799L44.0412 31.0857L45.2726 30.8708L45.0578 29.6394L46.2891 29.4245L46.0743 28.1931L50.9998 27.3336L51.2147 28.565L52.4461 28.3502L52.661 29.5816L50.1982 30.0113L49.9833 28.7799L47.5205 29.2097L47.7354 30.4411L46.504 30.6559L47.1486 34.3501L48.38 34.1352L48.5949 35.3666L51.0577 34.9369L50.8428 33.7055L53.3056 33.2757L53.5205 34.5071L52.2891 34.722L52.504 35.9534L47.5784 36.8129ZM55.0653 35.5065L53.5611 26.8867L62.1809 25.3826L62.3958 26.614L56.2388 27.6884L56.6686 30.1511L61.5941 29.2917L61.809 30.5231L56.8834 31.3825L57.3132 33.8453L63.4701 32.771L63.685 34.0024L55.0653 35.5065ZM65.0149 33.7703L63.5108 25.1505L65.9736 24.7208L66.1885 25.9522L67.4199 25.7373L67.6347 26.9687L68.8661 26.7538L69.081 27.9852L70.3124 27.7704L69.6678 24.0762L72.1306 23.6464L73.6347 32.2662L71.1719 32.6959L70.7421 30.2331L69.5107 30.448L69.2959 29.2166L68.0645 29.4315L67.8496 28.2001L66.6182 28.415L67.4777 33.3406L65.0149 33.7703ZM78.6587 31.3895L77.3695 24.0012L74.9067 24.4309L74.6919 23.1995L82.0802 21.9103L82.2951 23.1417L79.8323 23.5714L81.1215 30.9598L78.6587 31.3895ZM84.9142 30.298L83.4101 21.6782L90.7985 20.389L91.0134 21.6204L92.2447 21.4055L92.8894 25.0997L90.4266 25.5294L90.6414 26.7608L91.8728 26.5459L92.0877 27.7773L93.3191 27.5625L93.534 28.7939L89.8398 29.4385L89.6249 28.2071L88.3935 28.4219L88.1787 27.1906L86.9473 27.4054L87.377 29.8682L84.9142 30.298ZM86.7324 26.174L89.1952 25.7443L88.9803 24.5129L90.2117 24.298L89.782 21.8352L86.0878 22.4799L86.7324 26.174ZM94.8639 28.5618L93.7895 22.4048L95.0209 22.1899L94.8061 20.9586L96.0374 20.7437L95.8226 19.5123L99.5168 18.8677L99.7316 20.0991L100.963 19.8842L101.178 21.1156L102.409 20.9007L103.484 27.0577L101.021 27.4874L100.591 25.0246L96.8969 25.6693L97.3267 28.132L94.8639 28.5618ZM96.6821 24.4379L100.376 23.7932L99.9465 21.3305L98.7151 21.5453L98.5002 20.3139L97.2688 20.5288L97.4837 21.7602L96.2523 21.9751L96.6821 24.4379ZM108.508 26.181L107.218 18.7926L104.756 19.2224L104.541 17.991L111.929 16.7018L112.144 17.9332L109.681 18.3629L110.971 25.7513L108.508 26.181ZM115.995 24.8746L115.78 23.6432L118.243 23.2134L117.168 17.0565L114.705 17.4862L114.49 16.2548L121.879 14.9656L122.094 16.197L119.631 16.6267L120.705 22.7837L123.168 22.3539L123.383 23.5853L115.995 24.8746ZM125.944 23.1384L125.729 21.907L124.498 22.1219L123.424 15.9649L124.655 15.75L124.44 14.5187L130.597 13.4443L130.812 14.6757L132.043 14.4608L133.118 20.6178L131.886 20.8327L132.101 22.064L125.944 23.1384ZM126.961 21.6921L130.655 21.0475L129.581 14.8906L125.886 15.5352L126.961 21.6921ZM134.663 21.6171L133.158 12.9974L135.621 12.5676L135.836 13.799L137.067 13.5841L137.282 14.8155L138.514 14.6007L138.729 15.832L139.96 15.6172L139.315 11.923L141.778 11.4932L143.282 20.113L140.819 20.5427L140.39 18.08L139.158 18.2948L138.943 17.0634L137.712 17.2783L137.497 16.0469L136.266 16.2618L137.125 21.1874L134.663 21.6171Z" fill="#006967"/>
<path d="M15.6534 44.6677L144.9 22.1146L144.986 22.6072L15.7393 45.1602L15.6534 44.6677Z" fill="#006967"/>
<rect x="0.578506" y="27.5033" width="155" height="27" transform="rotate(-9.89819 0.578506 27.5033)" stroke="#006967"/>
<rect x="168.5" y="17.5" width="124" height="27" fill="white"/>
<path d="M180.05 34.75V26H187.55V27.25H188.8V31H186.3V32.25H187.55V33.5H188.8V34.75H185.05V33.5H183.8V32.25H182.55V34.75H180.05ZM182.55 31H185.05V29.75H186.3V27.25H182.55V31ZM190.15 34.75V26H198.9V27.25H192.65V29.75H197.65V31H192.65V33.5H198.9V34.75H190.15ZM201.5 34.75V33.5H200.25V32.25H202.75V33.5H206.5V31H201.5V29.75H200.25V27.25H201.5V26H207.75V27.25H209V28.5H206.5V27.25H202.75V29.75H207.75V31H209V33.5H207.75V34.75H201.5ZM211.6 34.75V33.5H214.1V27.25H211.6V26H219.1V27.25H216.6V33.5H219.1V34.75H211.6ZM221.7 34.75V33.5H220.45V32.25H222.95V33.5H226.7V31H221.7V29.75H220.45V27.25H221.7V26H227.95V27.25H229.2V28.5H226.7V27.25H222.95V29.75H227.95V31H229.2V33.5H227.95V34.75H221.7ZM234.3 34.75V27.25H231.8V26H239.3V27.25H236.8V34.75H234.3ZM240.65 34.75V26H249.4V27.25H243.15V29.75H248.15V31H243.15V33.5H249.4V34.75H240.65ZM250.75 34.75V26H253.25V27.25H254.5V28.5H255.75V29.75H257V26H259.5V34.75H257V32.25H255.75V31H254.5V29.75H253.25V34.75H250.75ZM263.35 34.75V33.5H262.1V32.25H260.85V28.5H262.1V27.25H263.35V26H268.35V27.25H269.6V28.5H267.1V27.25H264.6V28.5H263.35V32.25H264.6V33.5H267.1V32.25H269.6V33.5H268.35V34.75H263.35ZM270.95 34.75V26H279.7V27.25H273.45V29.75H278.45V31H273.45V33.5H279.7V34.75H270.95Z" fill="#006967"/>
<path d="M180.05 37H280.95V37.5H180.05V37Z" fill="#006967"/>
<rect x="168.5" y="17.5" width="124" height="27" stroke="#006967"/>
<rect x="7.5" y="78.5" width="104" height="27" fill="white"/>
<path d="M19.15 95.75V87H26.65V88.25H27.9V92H26.65V93.25H21.65V95.75H19.15ZM21.65 92H25.4V88.25H21.65V92ZM29.25 95.75V89.5H30.5V88.25H31.75V87H35.5V88.25H36.75V89.5H38V95.75H35.5V93.25H31.75V95.75H29.25ZM31.75 92H35.5V89.5H34.25V88.25H33V89.5H31.75V92ZM43.1 95.75V88.25H40.6V87H48.1V88.25H45.6V95.75H43.1ZM50.7 95.75V94.5H53.2V88.25H50.7V87H58.2V88.25H55.7V94.5H58.2V95.75H50.7ZM59.55 95.75V87H68.3V88.25H62.05V90.75H67.05V92H62.05V94.5H68.3V95.75H59.55ZM69.65 95.75V87H72.15V88.25H73.4V89.5H74.65V90.75H75.9V87H78.4V95.75H75.9V93.25H74.65V92H73.4V90.75H72.15V95.75H69.65ZM82.25 95.75V94.5H81V93.25H79.75V89.5H81V88.25H82.25V87H87.25V88.25H88.5V89.5H86V88.25H83.5V89.5H82.25V93.25H83.5V94.5H86V93.25H88.5V94.5H87.25V95.75H82.25ZM89.85 95.75V87H98.6V88.25H92.35V90.75H97.35V92H92.35V94.5H98.6V95.75H89.85Z" fill="#006967"/>
<path d="M19.15 98H99.85V98.5H19.15V98Z" fill="#006967"/>
<rect x="7.5" y="78.5" width="104" height="27" stroke="#006967"/>
<rect x="111.932" y="42.5586" width="94" height="27" transform="rotate(7.17718 111.932 42.5586)" fill="white"/>
<path d="M123.865 61.4475L124.022 60.2073L122.781 60.0511L122.938 58.8109L121.697 58.6547L122.166 54.9341L123.406 55.0903L123.562 53.8501L124.802 54.0062L124.959 52.766L129.919 53.3907L129.763 54.6309L131.003 54.7871L130.847 56.0273L128.367 55.7149L128.523 54.4747L126.043 54.1624L125.886 55.4026L124.646 55.2464L124.178 58.967L125.418 59.1232L125.262 60.3634L127.742 60.6758L127.898 59.4356L130.379 59.7479L130.223 60.9881L128.982 60.8319L128.826 62.0722L123.865 61.4475ZM132.646 62.5532L132.802 61.313L131.562 61.1568L132.343 54.9558L133.583 55.1119L133.739 53.8717L139.94 54.6526L139.784 55.8928L141.024 56.049L140.243 62.25L139.003 62.0938L138.847 63.334L132.646 62.5532ZM134.042 61.4691L137.763 61.9376L138.544 55.7366L134.823 55.2681L134.042 61.4691ZM141.427 63.6589L142.52 54.9774L145 55.2898L144.844 56.53L146.084 56.6861L145.928 57.9264L147.168 58.0825L147.012 59.3227L148.252 59.4789L148.721 55.7583L151.201 56.0706L150.108 64.7521L147.628 64.4397L147.94 61.9593L146.7 61.8031L146.856 60.5629L145.616 60.4068L145.772 59.1666L144.532 59.0104L143.907 63.9712L141.427 63.6589ZM155.168 65.3893L156.105 57.948L153.625 57.6357L153.781 56.3955L161.222 57.3325L161.066 58.5727L158.586 58.2604L157.649 65.7016L155.168 65.3893ZM161.468 66.1826L162.562 57.5012L170.003 58.4382L169.847 59.6784L171.087 59.8346L170.618 63.5552L168.138 63.2429L167.982 64.4831L169.222 64.6392L169.066 65.8794L170.306 66.0356L170.15 67.2758L166.429 66.8073L166.585 65.5671L165.345 65.4109L165.501 64.1707L164.261 64.0145L163.949 66.495L161.468 66.1826ZM164.417 62.7743L166.898 63.0867L167.054 61.8465L168.294 62.0027L168.607 59.5222L164.886 59.0537L164.417 62.7743ZM172.73 67.6007L172.886 66.3605L171.645 66.2043L172.426 60.0033L173.667 60.1594L173.823 58.9192L180.024 59.7001L179.868 60.9403L181.108 61.0965L180.327 67.2975L179.087 67.1413L178.931 68.3815L172.73 67.6007ZM174.126 66.5166L177.847 66.9851L178.627 60.7841L174.907 60.3156L174.126 66.5166ZM182.75 68.8625L183.844 60.1811L186.324 60.4934L185.387 67.9347L190.348 68.5594L190.192 69.7996L182.75 68.8625Z" fill="#006967"/>
<path d="M121.104 63.3675L191.151 72.1881L191.088 72.6842L121.041 63.8636L121.104 63.3675Z" fill="#006967"/>
<rect x="111.932" y="42.5586" width="94" height="27" transform="rotate(7.17718 111.932 42.5586)" stroke="#006967"/>
<rect x="192.249" y="96.5636" width="114" height="27" transform="rotate(7.84489 192.249 96.5636)" fill="white"/>
<path d="M201.386 115.236L202.58 106.568L210.01 107.591L209.839 108.83L211.078 109L210.566 112.715L208.089 112.374L207.919 113.612L209.157 113.783L208.986 115.021L210.225 115.192L210.054 116.43L206.339 115.918L206.51 114.68L205.271 114.509L205.442 113.271L204.204 113.101L203.862 115.577L201.386 115.236ZM204.374 111.862L206.851 112.203L207.021 110.965L208.26 111.136L208.601 108.659L204.886 108.147L204.374 111.862ZM211.391 116.614L212.586 107.946L221.254 109.141L221.083 110.379L214.892 109.526L214.55 112.002L219.504 112.685L219.333 113.923L214.38 113.241L214.039 115.717L220.23 116.57L220.059 117.809L211.391 116.614ZM221.397 117.993L222.25 111.802L223.488 111.972L223.659 110.734L224.897 110.904L225.068 109.666L228.783 110.178L228.612 111.416L229.85 111.587L229.68 112.825L230.918 112.996L230.065 119.187L227.588 118.846L227.929 116.369L224.215 115.858L223.873 118.334L221.397 117.993ZM224.385 114.619L228.1 115.131L228.441 112.655L227.203 112.484L227.374 111.246L226.135 111.075L225.965 112.313L224.726 112.143L224.385 114.619ZM232.641 119.542L232.811 118.304L231.573 118.133L231.743 116.895L234.22 117.236L234.049 118.475L237.764 118.986L238.106 116.51L233.152 115.827L233.323 114.589L232.085 114.418L232.426 111.942L233.664 112.112L233.835 110.874L240.026 111.727L239.856 112.965L241.094 113.136L240.923 114.374L238.447 114.033L238.617 112.795L234.903 112.283L234.561 114.76L239.515 115.442L239.344 116.68L240.582 116.851L240.241 119.328L239.003 119.157L238.832 120.395L232.641 119.542ZM242.646 120.921L242.817 119.682L241.578 119.512L242.431 113.32L243.67 113.491L243.84 112.253L250.032 113.106L249.861 114.344L251.1 114.515L250.246 120.706L249.008 120.536L248.838 121.774L242.646 120.921ZM244.055 119.853L247.77 120.365L248.623 114.173L244.908 113.662L244.055 119.853ZM251.413 122.129L252.607 113.461L255.084 113.802L254.913 115.04L256.152 115.211L255.981 116.449L257.219 116.62L257.049 117.858L258.287 118.029L258.799 114.314L261.276 114.655L260.081 123.323L257.605 122.982L257.946 120.505L256.708 120.335L256.878 119.096L255.64 118.926L255.811 117.687L254.572 117.517L253.89 122.47L251.413 122.129ZM262.657 123.678L262.828 122.44L265.304 122.781L266.157 116.589L263.681 116.248L263.851 115.01L271.281 116.033L271.11 117.272L268.634 116.931L267.781 123.122L270.257 123.463L270.087 124.702L262.657 123.678ZM271.424 124.886L272.618 116.218L275.095 116.559L274.924 117.797L276.163 117.968L275.992 119.206L277.23 119.377L277.06 120.615L278.298 120.786L278.81 117.071L281.287 117.412L280.092 126.08L277.616 125.739L277.957 123.262L276.719 123.092L276.889 121.853L275.651 121.683L275.821 120.444L274.583 120.274L273.901 125.227L271.424 124.886ZM283.906 126.606L284.077 125.367L282.839 125.197L283.009 123.958L281.771 123.788L282.283 120.073L283.521 120.244L283.692 119.005L284.93 119.176L285.101 117.938L291.292 118.791L291.121 120.029L286.168 119.346L285.998 120.585L284.759 120.414L284.247 124.129L285.486 124.3L285.315 125.538L287.792 125.879L288.133 123.403L286.895 123.232L287.065 121.994L290.78 122.506L290.098 127.459L283.906 126.606Z" fill="#006967"/>
<path d="M201.079 117.465L291.029 129.858L290.961 130.354L201.01 117.96L201.079 117.465Z" fill="#006967"/>
<rect x="192.249" y="96.5636" width="114" height="27" transform="rotate(7.84489 192.249 96.5636)" stroke="#006967"/>
<rect x="149.57" y="83.5281" width="114" height="27" transform="rotate(-8.69221 149.57 83.5281)" fill="white"/>
<path d="M164.879 98.6381L164.69 97.4025L163.455 97.5914L162.321 90.1775L164.792 89.7997L165.548 94.7423L166.784 94.5534L166.028 89.6108L167.264 89.4219L168.019 94.3644L169.255 94.1755L168.499 89.233L170.971 88.8551L172.104 96.269L170.868 96.4579L171.057 97.6936L169.822 97.8825L169.633 96.6468L168.397 96.8357L168.208 95.6001L166.973 95.789L167.162 97.0246L165.926 97.2135L166.115 98.4492L164.879 98.6381ZM174.863 97.1117L174.674 95.8761L177.146 95.4983L176.201 89.32L173.73 89.6979L173.541 88.4622L180.955 87.3288L181.144 88.5644L178.672 88.9422L179.617 95.1204L182.088 94.7426L182.277 95.9783L174.863 97.1117ZM184.847 95.5853L183.525 86.9358L185.996 86.558L187.13 93.9719L192.072 93.2163L192.261 94.4519L184.847 95.5853ZM194.831 94.059L193.509 85.4095L195.98 85.0317L197.114 92.4455L202.056 91.6899L202.245 92.9255L194.831 94.059ZM203.579 92.7215L202.257 84.072L209.671 82.9385L209.86 84.1742L211.096 83.9853L211.662 87.6922L210.427 87.8811L210.616 89.1168L205.673 89.8724L206.051 92.3437L203.579 92.7215ZM205.484 88.6368L209.191 88.07L208.624 84.3631L204.917 84.9298L205.484 88.6368ZM214.799 91.0062L214.61 89.7706L213.375 89.9595L212.43 83.7813L213.666 83.5924L213.477 82.3567L219.655 81.4122L219.844 82.6478L221.08 82.4589L222.024 88.6371L220.788 88.826L220.977 90.0617L214.799 91.0062ZM215.846 89.5817L219.553 89.0149L218.608 82.8367L214.901 83.4034L215.846 89.5817ZM224.783 89.4798L224.594 88.2442L223.359 88.4331L222.225 81.0192L224.696 80.6414L225.452 85.584L226.688 85.3951L225.932 80.4525L227.168 80.2636L227.923 85.2062L229.159 85.0173L228.403 80.0747L230.875 79.6969L232.008 87.1107L230.772 87.2997L230.961 88.5353L229.726 88.7242L229.537 87.4886L228.301 87.6775L228.112 86.4418L226.877 86.6307L227.066 87.8664L225.83 88.0553L226.019 89.2909L224.783 89.4798ZM233.531 88.1424L232.209 79.4929L240.859 78.1705L241.048 79.4062L234.869 80.3507L235.247 82.822L240.19 82.0663L240.379 83.302L235.436 84.0576L235.814 86.5289L241.992 85.5844L242.181 86.82L233.531 88.1424ZM243.515 86.616L242.193 77.9665L249.607 76.833L249.796 78.0687L251.032 77.8798L251.598 81.5867L249.127 81.9645L249.316 83.2002L250.552 83.0113L250.74 84.2469L251.976 84.058L252.165 85.2936L248.458 85.8604L248.269 84.6247L247.034 84.8136L246.845 83.578L245.609 83.7669L245.987 86.2382L243.515 86.616ZM245.42 82.5312L247.891 82.1534L247.702 80.9178L248.938 80.7289L248.56 78.2576L244.853 78.8243L245.42 82.5312Z" fill="#006967"/>
<path d="M163.984 101.051L253.741 87.3289L253.816 87.8231L164.059 101.545L163.984 101.051Z" fill="#006967"/>
<rect x="149.57" y="83.5281" width="114" height="27" transform="rotate(-8.69221 149.57 83.5281)" stroke="#006967"/>
<rect x="34.2682" y="103.548" width="155" height="27" transform="rotate(5.7825 34.2682 103.548)" fill="white"/>
<path d="M46.8569 122.161L46.9828 120.917L45.7392 120.791L45.8651 119.547L44.6215 119.421L44.9993 115.69L46.243 115.816L46.3689 114.573L47.6125 114.699L47.7385 113.455L52.713 113.959L52.5871 115.202L53.8307 115.328L53.7048 116.572L51.2175 116.32L51.3434 115.077L48.8562 114.825L48.7302 116.068L47.4866 115.942L47.1088 119.673L48.3524 119.799L48.2265 121.043L50.7137 121.295L50.8397 120.051L53.327 120.303L53.201 121.547L51.9574 121.421L51.8314 122.664L46.8569 122.161ZM55.6619 123.052L55.7878 121.809L54.5442 121.683L55.1739 115.464L56.4175 115.59L56.5434 114.347L62.7616 114.976L62.6357 116.22L63.8793 116.346L63.2496 122.564L62.006 122.438L61.8801 123.682L55.6619 123.052ZM57.0314 121.934L60.7624 122.312L61.3921 116.094L57.6611 115.716L57.0314 121.934ZM64.4668 123.944L65.3484 115.238L67.8357 115.49L67.7097 116.734L68.9534 116.86L68.8274 118.103L70.0711 118.229L69.9451 119.473L71.1888 119.599L71.5666 115.868L74.0539 116.12L73.1723 124.825L70.685 124.574L70.9369 122.086L69.6933 121.96L69.8192 120.717L68.5756 120.591L68.7015 119.347L67.4579 119.221L66.9541 124.196L64.4668 123.944ZM77.0027 125.213L77.1286 123.97L75.885 123.844L76.0109 122.6L74.7673 122.474L75.1451 118.743L76.3888 118.869L76.5147 117.626L77.7584 117.752L77.8843 116.508L82.8588 117.012L82.7329 118.255L83.9765 118.381L83.8506 119.625L81.3633 119.373L81.4893 118.129L79.002 117.877L78.876 119.121L77.6324 118.995L77.2546 122.726L78.4982 122.852L78.3723 124.096L80.8596 124.348L80.9855 123.104L83.4728 123.356L83.3468 124.599L82.1032 124.473L81.9773 125.717L77.0027 125.213ZM84.564 125.979L85.4456 117.274L94.1511 118.155L94.0252 119.399L87.807 118.769L87.5551 121.256L92.5296 121.76L92.4037 123.004L87.4291 122.5L87.1773 124.987L93.3955 125.617L93.2695 126.861L84.564 125.979ZM94.6126 126.997L95.4942 118.291L97.9815 118.543L97.8556 119.787L99.0992 119.913L98.9733 121.156L100.217 121.282L100.091 122.526L101.335 122.652L101.712 118.921L104.2 119.173L103.318 127.878L100.831 127.626L101.083 125.139L99.8391 125.013L99.965 123.77L98.7214 123.644L98.8473 122.4L97.6037 122.274L97.0999 127.249L94.6126 126.997ZM108.392 128.392L109.148 120.93L106.661 120.678L106.786 119.435L114.248 120.19L114.122 121.434L111.635 121.182L110.879 128.644L108.392 128.392ZM114.71 129.032L115.591 120.326L123.053 121.082L122.927 122.326L124.171 122.452L123.793 126.183L121.306 125.931L121.18 127.174L122.424 127.3L122.298 128.544L123.541 128.67L123.415 129.913L119.684 129.536L119.81 128.292L118.567 128.166L118.693 126.922L117.449 126.796L117.197 129.284L114.71 129.032ZM117.575 125.553L120.062 125.805L120.188 124.561L121.432 124.687L121.684 122.2L117.953 121.822L117.575 125.553ZM124.758 130.049L125.388 123.831L126.632 123.957L126.758 122.714L128.001 122.84L128.127 121.596L131.858 121.974L131.732 123.217L132.976 123.343L132.85 124.587L134.094 124.713L133.464 130.931L130.977 130.679L131.229 128.192L127.498 127.814L127.246 130.301L124.758 130.049ZM127.624 126.57L131.354 126.948L131.606 124.461L130.363 124.335L130.489 123.091L129.245 122.965L129.119 124.209L127.875 124.083L127.624 126.57ZM138.538 131.445L139.294 123.983L136.806 123.731L136.932 122.488L144.394 123.243L144.268 124.487L141.781 124.235L141.025 131.697L138.538 131.445ZM146.099 132.211L146.225 130.967L148.713 131.219L149.342 125.001L146.855 124.749L146.981 123.505L154.443 124.261L154.317 125.504L151.83 125.253L151.2 131.471L153.687 131.723L153.561 132.966L146.099 132.211ZM156.148 133.228L156.274 131.985L155.03 131.859L155.66 125.64L156.904 125.766L157.03 124.523L163.248 125.152L163.122 126.396L164.365 126.522L163.736 132.74L162.492 132.614L162.366 133.858L156.148 133.228ZM157.518 132.11L161.248 132.488L161.878 126.27L158.147 125.892L157.518 132.11ZM164.953 134.12L165.834 125.414L168.322 125.666L168.196 126.91L169.439 127.036L169.314 128.279L170.557 128.405L170.431 129.649L171.675 129.775L172.053 126.044L174.54 126.296L173.658 135.001L171.171 134.75L171.423 132.262L170.179 132.136L170.305 130.893L169.062 130.767L169.188 129.523L167.944 129.397L167.44 134.372L164.953 134.12Z" fill="#006967"/>
<path d="M44.1429 124.147L174.675 137.366L174.625 137.863L44.0925 124.645L44.1429 124.147Z" fill="#006967"/>
<rect x="34.2682" y="103.548" width="155" height="27" transform="rotate(5.7825 34.2682 103.548)" stroke="#006967"/>
<rect x="160.5" y="151.5" width="104" height="27" fill="white"/>
<path d="M172.15 168.75V160H179.65V161.25H180.9V165H179.65V166.25H174.65V168.75H172.15ZM174.65 165H178.4V161.25H174.65V165ZM183.5 168.75V160H186V167.5H191V168.75H183.5ZM192.35 168.75V162.5H193.6V161.25H194.85V160H198.6V161.25H199.85V162.5H201.1V168.75H198.6V166.25H194.85V168.75H192.35ZM194.85 165H198.6V162.5H197.35V161.25H196.1V162.5H194.85V165ZM202.45 168.75V160H204.95V161.25H206.2V162.5H207.45V163.75H208.7V160H211.2V168.75H208.7V166.25H207.45V165H206.2V163.75H204.95V168.75H202.45ZM212.55 168.75V160H215.05V161.25H216.3V162.5H217.55V163.75H218.8V160H221.3V168.75H218.8V166.25H217.55V165H216.3V163.75H215.05V168.75H212.55ZM223.9 168.75V167.5H226.4V161.25H223.9V160H231.4V161.25H228.9V167.5H231.4V168.75H223.9ZM232.75 168.75V160H235.25V161.25H236.5V162.5H237.75V163.75H239V160H241.5V168.75H239V166.25H237.75V165H236.5V163.75H235.25V168.75H232.75ZM245.35 168.75V167.5H244.1V166.25H242.85V162.5H244.1V161.25H245.35V160H251.6V161.25H246.6V162.5H245.35V166.25H246.6V167.5H249.1V165H247.85V163.75H251.6V168.75H245.35Z" fill="#006967"/>
<path d="M172.15 171H252.85V171.5H172.15V171Z" fill="#006967"/>
<rect x="160.5" y="151.5" width="104" height="27" stroke="#006967"/>
<rect x="144.323" y="211.565" width="145" height="27" transform="rotate(8.00151 144.323 211.565)" fill="white"/>
<path d="M153.756 230.31L154.974 221.646L162.401 222.69L162.227 223.928L163.464 224.102L162.942 227.815L161.705 227.641L161.531 228.879L156.579 228.183L156.231 230.658L153.756 230.31ZM156.753 226.945L160.467 227.467L160.989 223.754L157.275 223.232L156.753 226.945ZM163.757 231.716L164.975 223.052L173.64 224.27L173.466 225.507L167.277 224.637L166.929 227.113L171.88 227.809L171.706 229.047L166.755 228.351L166.407 230.827L172.596 231.697L172.422 232.934L163.757 231.716ZM173.759 233.122L174.977 224.458L182.404 225.501L182.23 226.739L183.468 226.913L182.946 230.627L180.47 230.279L180.296 231.517L181.534 231.691L181.36 232.928L182.598 233.102L182.424 234.34L178.71 233.818L178.884 232.58L177.646 232.406L177.82 231.169L176.583 230.995L176.235 233.47L173.759 233.122ZM176.757 229.757L179.232 230.105L179.406 228.867L180.644 229.041L180.992 226.565L177.279 226.043L176.757 229.757ZM184.998 234.702L185.172 233.464L183.935 233.29L184.109 232.053L186.584 232.401L186.41 233.638L190.124 234.16L190.472 231.685L185.52 230.989L185.694 229.751L184.457 229.577L184.805 227.101L186.042 227.275L186.216 226.037L192.406 226.907L192.232 228.145L193.469 228.319L193.295 229.557L190.82 229.209L190.994 227.971L187.28 227.449L186.932 229.925L191.884 230.621L191.71 231.859L192.947 232.033L192.599 234.508L191.362 234.334L191.188 235.572L184.998 234.702ZM193.762 235.934L194.98 227.269L203.645 228.487L203.471 229.725L197.282 228.855L196.934 231.331L201.885 232.027L201.711 233.265L196.76 232.569L196.412 235.044L202.601 235.914L202.427 237.152L193.762 235.934ZM207.477 237.862L207.651 236.624L206.414 236.45L206.588 235.212L205.35 235.038L205.524 233.801L204.286 233.627L204.982 228.675L207.458 229.023L206.936 232.737L208.173 232.911L207.999 234.149L209.237 234.323L209.411 233.085L210.649 233.259L211.171 229.545L213.647 229.893L212.951 234.845L211.713 234.671L211.539 235.908L210.301 235.734L210.127 236.972L208.889 236.798L208.715 238.036L207.477 237.862ZM213.766 238.746L214.984 230.081L223.648 231.299L223.474 232.537L217.285 231.667L216.937 234.143L221.889 234.839L221.715 236.076L216.763 235.38L216.415 237.856L222.604 238.726L222.43 239.964L213.766 238.746ZM223.767 240.152L224.985 231.487L232.412 232.531L232.238 233.769L233.476 233.943L232.954 237.656L230.478 237.308L230.304 238.546L231.542 238.72L231.368 239.958L232.606 240.132L232.432 241.37L228.719 240.848L228.893 239.61L227.655 239.436L227.829 238.198L226.591 238.024L226.243 240.5L223.767 240.152ZM226.765 236.786L229.241 237.134L229.415 235.897L230.652 236.071L231 233.595L227.287 233.073L226.765 236.786ZM233.769 241.558L234.639 235.369L235.877 235.543L236.051 234.305L237.289 234.479L237.463 233.241L241.176 233.763L241.002 235.001L242.24 235.175L242.066 236.413L243.304 236.587L242.434 242.776L239.958 242.428L240.306 239.952L236.593 239.43L236.245 241.906L233.769 241.558ZM236.767 238.192L240.48 238.714L240.828 236.239L239.59 236.065L239.764 234.827L238.526 234.653L238.352 235.891L237.115 235.717L236.767 238.192ZM243.771 242.964L244.989 234.299L247.464 234.647L247.29 235.885L248.528 236.059L248.354 237.297L249.592 237.471L249.418 238.708L250.656 238.882L251.178 235.169L253.653 235.517L252.435 244.182L249.96 243.834L250.308 241.358L249.07 241.184L249.244 239.946L248.006 239.772L248.18 238.534L246.942 238.36L246.246 243.312L243.771 242.964ZM256.248 244.718L256.422 243.48L255.184 243.306L255.358 242.068L254.12 241.894L254.642 238.18L255.88 238.354L256.054 237.117L257.292 237.291L257.466 236.053L262.417 236.749L262.243 237.987L263.481 238.161L263.307 239.398L260.831 239.05L261.005 237.813L258.53 237.465L258.356 238.702L257.118 238.528L256.596 242.242L257.834 242.416L257.66 243.654L260.135 244.002L260.309 242.764L262.785 243.112L262.611 244.35L261.373 244.176L261.199 245.414L256.248 244.718ZM263.774 245.776L264.992 237.111L273.657 238.329L273.483 239.567L267.294 238.697L266.946 241.172L271.897 241.868L271.723 243.106L266.772 242.41L266.424 244.886L272.613 245.756L272.439 246.994L263.774 245.776Z" fill="#006967"/>
<path d="M153.442 232.539L273.363 249.396L273.294 249.891L153.373 233.034L153.442 232.539Z" fill="#006967"/>
<rect x="144.323" y="211.565" width="145" height="27" transform="rotate(8.00151 144.323 211.565)" stroke="#006967"/>
<rect x="183.579" y="196.817" width="155" height="27" transform="rotate(-9.98657 183.579 196.817)" fill="white"/>
<path d="M200.752 211.308L200.536 210.077L199.305 210.294L199.088 209.063L197.857 209.28L197.206 205.587L198.437 205.37L198.221 204.139L199.452 203.922L199.235 202.691L204.159 201.824L204.376 203.055L205.607 202.838L205.824 204.069L203.362 204.503L203.145 203.272L200.683 203.705L200.9 204.936L199.669 205.153L200.319 208.846L201.55 208.629L201.767 209.861L204.229 209.427L204.012 208.196L206.474 207.762L206.691 208.993L205.46 209.21L205.677 210.441L200.752 211.308ZM209.468 209.774L209.252 208.543L208.02 208.759L206.937 202.604L208.168 202.387L207.951 201.156L214.106 200.072L214.323 201.303L215.554 201.087L216.638 207.242L215.407 207.459L215.624 208.69L209.468 209.774ZM210.483 208.326L214.176 207.675L213.092 201.52L209.399 202.17L210.483 208.326ZM219.415 208.022L217.898 199.405L220.36 198.971L221.661 206.357L226.585 205.49L226.802 206.721L219.415 208.022ZM229.362 206.271L227.845 197.653L230.307 197.22L231.608 204.606L236.532 203.739L236.749 204.97L229.362 206.271ZM238.078 204.736L236.994 198.581L238.225 198.364L238.009 197.133L239.24 196.916L239.023 195.685L242.716 195.035L242.933 196.266L244.164 196.049L244.381 197.28L245.612 197.063L246.696 203.218L244.233 203.652L243.8 201.19L240.107 201.84L240.54 204.302L238.078 204.736ZM239.89 200.609L243.583 199.959L243.15 197.497L241.919 197.713L241.702 196.482L240.471 196.699L240.687 197.93L239.456 198.147L239.89 200.609ZM248.025 202.984L246.508 194.367L253.894 193.066L254.111 194.297L255.342 194.081L255.775 196.543L254.544 196.759L254.761 197.991L255.992 197.774L256.426 200.236L255.195 200.453L255.411 201.684L248.025 202.984ZM249.62 197.627L253.313 196.976L252.88 194.514L249.187 195.164L249.62 197.627ZM250.27 201.32L253.964 200.669L253.53 198.207L249.837 198.858L250.27 201.32ZM259.203 201.016L258.986 199.785L257.755 200.002L256.671 193.846L257.903 193.63L257.686 192.399L263.841 191.315L264.058 192.546L265.289 192.329L266.373 198.484L265.142 198.701L265.358 199.932L259.203 201.016ZM260.217 199.568L263.911 198.918L262.827 192.763L259.134 193.413L260.217 199.568ZM267.919 199.481L266.402 190.864L273.788 189.563L274.005 190.794L275.236 190.578L275.886 194.271L273.424 194.704L273.641 195.935L274.872 195.719L275.089 196.95L276.32 196.733L276.536 197.964L272.843 198.614L272.627 197.383L271.395 197.6L271.179 196.369L269.948 196.586L270.381 199.048L267.919 199.481ZM269.731 195.355L272.193 194.921L271.976 193.69L273.207 193.473L272.774 191.011L269.081 191.661L269.731 195.355ZM277.866 197.73L276.782 191.574L278.013 191.358L277.796 190.127L279.028 189.91L278.811 188.679L282.504 188.028L282.721 189.26L283.952 189.043L284.169 190.274L285.4 190.057L286.483 196.212L284.021 196.646L283.588 194.184L279.895 194.834L280.328 197.296L277.866 197.73ZM279.678 193.603L283.371 192.953L282.937 190.491L281.706 190.707L281.49 189.476L280.259 189.693L280.475 190.924L279.244 191.141L279.678 193.603ZM291.506 195.328L290.206 187.942L287.743 188.375L287.527 187.144L294.913 185.843L295.13 187.074L292.668 187.508L293.968 194.894L291.506 195.328ZM298.991 194.01L298.774 192.779L301.236 192.345L300.153 186.19L297.69 186.624L297.474 185.393L304.86 184.092L305.077 185.323L302.615 185.757L303.699 191.912L306.161 191.478L306.377 192.709L298.991 194.01ZM308.938 192.258L308.721 191.027L307.49 191.244L306.406 185.089L307.637 184.872L307.421 183.641L313.576 182.557L313.793 183.788L315.024 183.571L316.108 189.727L314.877 189.944L315.093 191.175L308.938 192.258ZM309.952 190.811L313.645 190.16L312.562 184.005L308.868 184.655L309.952 190.811ZM317.654 190.724L316.137 182.106L318.599 181.673L318.815 182.904L320.046 182.687L320.263 183.918L321.494 183.701L321.711 184.932L322.942 184.716L322.292 181.022L324.754 180.589L326.271 189.206L323.809 189.64L323.376 187.178L322.145 187.395L321.928 186.163L320.697 186.38L320.48 185.149L319.249 185.366L320.116 190.29L317.654 190.724Z" fill="#006967"/>
<path d="M198.68 213.958L327.893 191.205L327.979 191.698L198.767 214.45L198.68 213.958Z" fill="#006967"/>
<rect x="183.579" y="196.817" width="155" height="27" transform="rotate(-9.98657 183.579 196.817)" stroke="#006967"/>
<rect x="145.399" y="281.533" width="94" height="27" transform="rotate(3.96293 145.399 281.533)" fill="white"/>
<path d="M157.126 299.637L157.213 298.39L155.966 298.304L156.052 297.057L158.546 297.23L158.46 298.477L162.201 298.736L162.373 296.242L157.385 295.896L157.472 294.649L156.225 294.563L156.398 292.069L157.645 292.155L157.731 290.908L163.966 291.34L163.88 292.587L165.127 292.674L165.04 293.921L162.546 293.748L162.633 292.501L158.892 292.242L158.719 294.736L163.707 295.081L163.62 296.328L164.867 296.415L164.695 298.909L163.448 298.822L163.361 300.069L157.126 299.637ZM168.449 300.422L168.535 299.175L167.288 299.088L167.375 297.841L166.128 297.755L166.387 294.014L167.634 294.1L167.72 292.853L168.967 292.94L169.054 291.693L174.042 292.038L173.955 293.285L175.202 293.372L175.116 294.619L172.622 294.446L172.708 293.199L170.214 293.026L170.128 294.273L168.881 294.187L168.622 297.928L169.869 298.014L169.782 299.261L172.277 299.434L172.363 298.187L174.857 298.36L174.771 299.607L173.524 299.52L173.437 300.767L168.449 300.422ZM177.278 301.033L177.364 299.786L179.858 299.959L180.29 293.724L177.796 293.551L177.883 292.304L185.365 292.823L185.278 294.07L182.784 293.897L182.352 300.132L184.846 300.305L184.76 301.552L177.278 301.033ZM186.107 301.645L186.711 292.916L195.441 293.521L195.354 294.768L189.119 294.336L188.946 296.83L193.934 297.175L193.848 298.422L188.86 298.077L188.687 300.571L194.922 301.003L194.836 302.25L186.107 301.645ZM196.183 302.343L196.787 293.614L199.281 293.787L199.195 295.034L200.442 295.12L200.356 296.367L201.603 296.454L201.516 297.701L202.763 297.787L203.022 294.046L205.516 294.219L204.912 302.948L202.418 302.775L202.59 300.281L201.343 300.195L201.43 298.948L200.183 298.861L200.269 297.614L199.022 297.528L198.677 302.516L196.183 302.343ZM208.752 303.214L208.839 301.967L207.592 301.881L207.678 300.634L206.431 300.547L206.69 296.806L207.937 296.892L208.024 295.645L209.271 295.732L209.357 294.485L214.345 294.83L214.259 296.077L215.506 296.164L215.419 297.411L212.925 297.238L213.012 295.991L210.518 295.818L210.431 297.065L209.184 296.979L208.925 300.72L210.172 300.806L210.086 302.053L212.58 302.226L212.666 300.979L215.16 301.152L215.074 302.399L213.827 302.312L213.741 303.559L208.752 303.214ZM216.334 303.739L216.939 295.01L225.668 295.615L225.582 296.862L219.347 296.43L219.174 298.924L224.162 299.269L224.076 300.516L219.088 300.171L218.915 302.665L225.15 303.097L225.063 304.344L216.334 303.739Z" fill="#006967"/>
<path d="M155.724 301.796L226.155 306.675L226.12 307.174L155.689 302.294L155.724 301.796Z" fill="#006967"/>
<rect x="145.399" y="281.533" width="94" height="27" transform="rotate(3.96293 145.399 281.533)" stroke="#006967"/>
<rect x="42.7756" y="143.556" width="104" height="27" transform="rotate(6.8485 42.7756 143.556)" fill="white"/>
<path d="M53.5266 162.221L53.6757 160.98L52.4346 160.831L52.5837 159.59L55.0658 159.888L54.9168 161.129L58.64 161.577L58.9381 159.094L53.9738 158.498L54.1229 157.257L52.8818 157.108L53.1799 154.626L54.421 154.775L54.57 153.534L60.7754 154.279L60.6264 155.52L61.8675 155.669L61.7184 156.91L59.2362 156.612L59.3853 155.371L55.662 154.924L55.3639 157.406L60.3283 158.002L60.1792 159.243L61.4203 159.392L61.1222 161.875L59.8811 161.726L59.732 162.967L53.5266 162.221ZM66.0367 163.724L66.9311 156.277L64.4489 155.979L64.598 154.738L72.0444 155.633L71.8954 156.874L69.4132 156.576L68.5189 164.022L66.0367 163.724ZM72.3414 164.481L73.3848 155.794L80.8313 156.688L80.6822 157.929L81.9233 158.078L81.4762 161.801L78.994 161.503L78.8449 162.744L80.086 162.893L79.937 164.134L81.178 164.283L81.029 165.524L77.3058 165.077L77.4548 163.836L76.2137 163.687L76.3628 162.446L75.1217 162.297L74.8236 164.779L72.3414 164.481ZM75.2708 161.056L77.7529 161.354L77.902 160.113L79.1431 160.262L79.4412 157.78L75.7179 157.333L75.2708 161.056ZM82.3694 165.685L83.1146 159.48L84.3557 159.629L84.5048 158.388L85.7459 158.537L85.8949 157.296L89.6182 157.743L89.4691 158.984L90.7102 159.133L90.5611 160.374L91.8022 160.523L91.0569 166.729L88.5748 166.431L88.8729 163.949L85.1496 163.501L84.8515 165.984L82.3694 165.685ZM85.2987 162.26L89.0219 162.707L89.32 160.225L88.079 160.076L88.228 158.835L86.9869 158.686L86.8379 159.927L85.5968 159.778L85.2987 162.26ZM96.1205 167.337L97.0149 159.89L94.5327 159.592L94.6818 158.351L102.128 159.246L101.979 160.487L99.497 160.189L98.6027 167.635L96.1205 167.337ZM102.425 168.094L103.469 159.407L112.156 160.45L112.007 161.691L105.802 160.946L105.504 163.428L110.468 164.024L110.319 165.265L105.355 164.669L105.056 167.151L111.262 167.896L111.113 169.138L102.425 168.094ZM114.935 169.597L115.084 168.356L113.843 168.207L113.992 166.965L112.751 166.816L113.198 163.093L114.44 163.242L114.589 162.001L115.83 162.15L115.979 160.909L122.184 161.654L122.035 162.895L117.071 162.299L116.922 163.54L115.681 163.391L115.233 167.115L116.475 167.264L116.325 168.505L118.808 168.803L119.106 166.321L117.865 166.172L118.014 164.93L121.737 165.378L121.141 170.342L114.935 169.597ZM126.204 170.95L126.652 167.227L125.41 167.078L125.559 165.837L124.318 165.688L124.766 161.964L127.248 162.263L126.801 165.986L129.283 166.284L129.73 162.561L132.212 162.859L131.765 166.582L130.524 166.433L130.375 167.674L129.134 167.525L128.687 171.248L126.204 170.95Z" fill="#006967"/>
<path d="M52.0173 164.306L132.141 173.929L132.082 174.426L51.9576 164.803L52.0173 164.306Z" fill="#006967"/>
<rect x="42.7756" y="143.556" width="104" height="27" transform="rotate(6.8485 42.7756 143.556)" stroke="#006967"/>
<rect x="7.54691" y="188.785" width="114" height="27" transform="rotate(-5.66392 7.54691 188.785)" fill="white"/>
<path d="M24.5244 204.436L23.7842 196.972L21.2964 197.219L21.1731 195.975L28.6364 195.235L28.7598 196.479L26.272 196.726L27.0122 204.189L24.5244 204.436ZM32.0873 203.686L31.9639 202.442L30.72 202.565L30.1032 196.346L31.3471 196.222L31.2237 194.978L37.4432 194.362L37.5666 195.605L38.8105 195.482L39.4273 201.702L38.1834 201.825L38.3068 203.069L32.0873 203.686ZM33.2078 202.318L36.9395 201.948L36.3227 195.729L32.591 196.099L33.2078 202.318ZM42.138 202.689L41.2744 193.982L43.7622 193.735L44.5024 201.198L49.478 200.705L49.6014 201.949L42.138 202.689ZM50.9448 201.815L50.0812 193.108L58.7885 192.245L58.9119 193.488L52.6924 194.105L52.9391 196.593L57.9147 196.1L58.0381 197.344L53.0625 197.837L53.3092 200.325L59.5287 199.708L59.6521 200.952L50.9448 201.815ZM60.9955 200.819L60.1319 192.111L67.5953 191.371L67.7187 192.615L68.9626 192.492L69.3327 196.223L66.8449 196.47L66.9682 197.714L68.2121 197.591L68.3355 198.835L69.5794 198.711L69.7028 199.955L65.9711 200.325L65.8477 199.081L64.6038 199.205L64.4804 197.961L63.2366 198.084L63.4833 200.572L60.9955 200.819ZM63.1132 196.84L65.601 196.593L65.4776 195.35L66.7215 195.226L66.4748 192.738L62.7431 193.108L63.1132 196.84ZM71.0462 199.822L70.4293 193.602L71.6732 193.479L71.5499 192.235L72.7938 192.112L72.6704 190.868L76.4021 190.498L76.5255 191.742L77.7694 191.618L77.8927 192.862L79.1366 192.739L79.7535 198.958L77.2657 199.205L77.0189 196.717L73.2872 197.087L73.534 199.575L71.0462 199.822ZM73.1639 195.843L76.8956 195.473L76.6488 192.985L75.4049 193.109L75.2816 191.865L74.0377 191.988L74.161 193.232L72.9171 193.356L73.1639 195.843ZM81.0969 198.825L80.2333 190.118L82.7211 189.871L82.8445 191.115L84.0884 190.992L84.2117 192.235L85.4556 192.112L85.579 193.356L86.8229 193.233L86.4528 189.501L88.9406 189.254L89.8042 197.961L87.3164 198.208L87.0696 195.72L85.8257 195.844L85.7024 194.6L84.4585 194.723L84.3351 193.479L83.0912 193.603L83.5847 198.578L81.0969 198.825ZM93.6354 197.581L93.512 196.338L92.2681 196.461L92.1447 195.217L90.9008 195.34L90.5307 191.609L91.7746 191.485L91.6513 190.241L92.8952 190.118L92.7718 188.874L97.7474 188.381L97.8707 189.625L99.1146 189.501L99.238 190.745L96.7502 190.992L96.6268 189.748L94.1391 189.995L94.2624 191.239L93.0185 191.362L93.3886 195.094L94.6325 194.97L94.7559 196.214L97.2437 195.967L97.1203 194.724L99.6081 194.477L99.7315 195.721L98.4876 195.844L98.6109 197.088L93.6354 197.581ZM101.198 196.831L100.335 188.124L109.042 187.261L109.165 188.504L102.946 189.121L103.193 191.609L108.168 191.116L108.292 192.36L103.316 192.853L103.563 195.341L109.782 194.724L109.906 195.968L101.198 196.831Z" fill="#006967"/>
<path d="M21.0148 207.045L111.371 198.083L111.421 198.581L21.0641 207.542L21.0148 207.045Z" fill="#006967"/>
<rect x="7.54691" y="188.785" width="114" height="27" transform="rotate(-5.66392 7.54691 188.785)" stroke="#006967"/>
<rect x="54.972" y="221.543" width="114" height="27" transform="rotate(5.1616 54.972 221.543)" fill="white"/>
<path d="M66.218 239.879L67.0052 231.164L69.4951 231.389L68.8203 238.859L73.8 239.309L73.6876 240.554L66.218 239.879ZM75.0321 240.675L75.5944 234.45L76.8393 234.563L76.9518 233.318L78.1967 233.43L78.3092 232.185L82.044 232.523L81.9315 233.768L83.1764 233.88L83.064 235.125L84.3089 235.238L83.7466 241.462L81.2568 241.237L81.4817 238.747L77.7469 238.41L77.522 240.9L75.0321 240.675ZM77.8593 237.165L81.5941 237.502L81.8191 235.013L80.5741 234.9L80.6866 233.655L79.4417 233.543L79.3292 234.788L78.0843 234.675L77.8593 237.165ZM85.0912 241.584L85.8784 232.869L88.3682 233.094L88.2558 234.339L89.5007 234.451L89.3882 235.696L90.6332 235.809L90.5207 237.054L91.7656 237.166L92.103 233.431L94.5929 233.656L93.8057 242.371L91.3158 242.146L91.5407 239.656L90.2958 239.544L90.4083 238.299L89.1633 238.186L89.2758 236.941L88.0309 236.829L87.581 241.809L85.0912 241.584ZM97.6401 242.717L97.7525 241.472L96.5076 241.36L96.62 240.115L95.3751 240.002L95.7125 236.268L96.9574 236.38L97.0699 235.135L98.3148 235.248L98.4273 234.003L104.652 234.565L104.539 235.81L99.5597 235.36L99.4473 236.605L98.2023 236.493L97.865 240.227L99.1099 240.34L98.9975 241.585L101.487 241.81L101.712 239.32L100.467 239.207L100.58 237.962L104.315 238.3L103.865 243.279L97.6401 242.717ZM106.454 243.513L106.567 242.268L105.322 242.156L105.996 234.686L108.486 234.911L107.812 242.381L111.546 242.718L112.221 235.249L114.711 235.474L114.036 242.943L112.791 242.831L112.679 244.076L106.454 243.513ZM115.268 244.31L115.831 238.085L117.076 238.197L117.188 236.952L118.433 237.065L118.545 235.82L122.28 236.157L122.168 237.402L123.413 237.515L123.3 238.76L124.545 238.872L123.983 245.097L121.493 244.872L121.718 242.382L117.983 242.045L117.758 244.534L115.268 244.31ZM118.096 240.8L121.83 241.137L122.055 238.647L120.81 238.535L120.923 237.29L119.678 237.177L119.565 238.422L118.32 238.31L118.096 240.8ZM127.817 245.443L127.93 244.198L126.685 244.086L126.797 242.841L125.552 242.728L125.89 238.994L127.135 239.106L127.247 237.861L128.492 237.974L128.604 236.729L134.829 237.291L134.717 238.536L129.737 238.086L129.624 239.331L128.379 239.218L128.042 242.953L129.287 243.066L129.175 244.311L131.664 244.536L131.889 242.046L130.644 241.933L130.757 240.688L134.492 241.026L134.042 246.005L127.817 245.443ZM135.386 246.127L136.174 237.412L144.888 238.2L144.776 239.444L138.551 238.882L138.326 241.372L143.306 241.822L143.193 243.067L138.214 242.617L137.989 245.107L144.213 245.669L144.101 246.914L135.386 246.127ZM146.69 247.148L146.803 245.903L145.558 245.791L145.67 244.546L148.16 244.771L148.048 246.015L151.783 246.353L152.007 243.863L147.028 243.413L147.14 242.168L145.895 242.056L146.12 239.566L147.365 239.678L147.478 238.433L153.702 238.996L153.59 240.241L154.835 240.353L154.722 241.598L152.232 241.373L152.345 240.128L148.61 239.791L148.385 242.281L153.365 242.731L153.252 243.975L154.497 244.088L154.272 246.578L153.027 246.465L152.915 247.71L146.69 247.148Z" fill="#006967"/>
<path d="M64.7707 242.007L155.202 250.176L155.157 250.674L64.7257 242.505L64.7707 242.007Z" fill="#006967"/>
<rect x="54.972" y="221.543" width="114" height="27" transform="rotate(5.1616 54.972 221.543)" stroke="#006967"/>
<rect x="30.5673" y="268.68" width="94" height="27" transform="rotate(-8.35522 30.5673 268.68)" fill="white"/>
<path d="M44.6498 284.046L43.3783 275.389L45.8518 275.026L46.3967 278.736L50.1069 278.191L49.562 274.481L52.0354 274.118L53.3069 282.775L50.8334 283.138L50.2885 279.428L46.5783 279.973L47.1232 283.683L44.6498 284.046ZM55.8793 282.397L55.6977 281.16L58.1711 280.797L57.263 274.613L54.7895 274.976L54.6078 273.74L62.0282 272.65L62.2099 273.887L59.7364 274.25L60.6446 280.434L63.1181 280.07L63.2997 281.307L55.8793 282.397ZM65.8721 280.929L65.6905 279.693L64.4537 279.874L64.2721 278.637L66.7456 278.274L66.9272 279.511L70.6374 278.966L70.2741 276.493L65.3272 277.219L65.1456 275.982L63.9088 276.164L63.5456 273.691L64.7823 273.509L64.6006 272.272L70.7843 271.364L70.966 272.601L72.2027 272.419L72.3843 273.656L69.9109 274.019L69.7292 272.782L66.019 273.327L66.3823 275.801L71.3292 275.074L71.5109 276.311L72.7476 276.129L73.1109 278.603L71.8741 278.784L72.0558 280.021L65.8721 280.929ZM78.3384 279.098L77.2486 271.678L74.7751 272.041L74.5934 270.805L82.0138 269.715L82.1955 270.951L79.722 271.315L80.8118 278.735L78.3384 279.098ZM85.8577 277.994L85.6761 276.757L84.4393 276.939L83.5312 270.755L84.7679 270.574L84.5863 269.337L90.7699 268.429L90.9516 269.665L92.1883 269.484L93.0965 275.667L91.8597 275.849L92.0414 277.086L85.8577 277.994ZM86.9128 276.576L90.623 276.031L89.7148 269.847L86.0046 270.392L86.9128 276.576ZM94.6138 276.708L93.3423 268.051L100.763 266.961L100.944 268.198L102.181 268.016L102.726 271.726L100.253 272.09L100.434 273.326L101.671 273.145L101.853 274.381L103.089 274.2L103.271 275.437L99.5607 275.981L99.3791 274.745L98.1423 274.926L97.9607 273.69L96.724 273.871L97.0872 276.345L94.6138 276.708ZM96.5423 272.635L99.0158 272.271L98.8342 271.035L100.071 270.853L99.7076 268.379L95.9974 268.924L96.5423 272.635ZM108.317 274.695L107.772 270.985L106.535 271.167L106.353 269.93L105.117 270.112L104.572 266.402L107.045 266.038L107.59 269.749L110.064 269.385L109.519 265.675L111.992 265.312L112.537 269.022L111.3 269.204L111.482 270.44L110.245 270.622L110.79 274.332L108.317 274.695Z" fill="#006967"/>
<path d="M44.9767 286.272L114.827 276.013L114.9 276.508L45.0494 286.767L44.9767 286.272Z" fill="#006967"/>
<rect x="30.5673" y="268.68" width="94" height="27" transform="rotate(-8.35522 30.5673 268.68)" stroke="#006967"/>
<rect x="188.527" y="260.432" width="64" height="27" transform="rotate(-3.1922 188.527 260.432)" fill="white"/>
<path d="M201.319 276.996L200.832 268.259L203.328 268.12L203.398 269.368L204.646 269.298L204.715 270.547L205.963 270.477L205.894 269.229L207.142 269.159L207.072 267.911L209.568 267.772L210.056 276.508L207.56 276.648L207.281 271.655L206.033 271.725L206.172 274.221L204.924 274.291L204.785 271.795L203.537 271.864L203.815 276.856L201.319 276.996ZM211.404 276.433L211.056 270.193L212.304 270.123L212.234 268.875L213.482 268.806L213.412 267.558L217.157 267.349L217.226 268.597L218.474 268.527L218.544 269.775L219.792 269.706L220.14 275.946L217.644 276.085L217.505 273.589L213.76 273.798L213.9 276.294L211.404 276.433ZM213.691 272.55L217.435 272.341L217.296 269.845L216.048 269.914L215.978 268.666L214.73 268.736L214.8 269.984L213.552 270.054L213.691 272.55ZM225.232 275.662L224.814 268.174L222.318 268.313L222.249 267.065L229.737 266.647L229.807 267.895L227.311 268.034L227.728 275.523L225.232 275.662ZM231.572 275.308L231.085 266.572L233.581 266.433L233.79 270.177L237.534 269.968L237.325 266.224L239.821 266.085L240.309 274.821L237.813 274.96L237.604 271.216L233.86 271.425L234.068 275.169L231.572 275.308Z" fill="#006967"/>
<path d="M201.445 279.242L241.682 276.998L241.71 277.497L201.472 279.741L201.445 279.242Z" fill="#006967"/>
<rect x="188.527" y="260.432" width="64" height="27" transform="rotate(-3.1922 188.527 260.432)" stroke="#006967"/>
</svg>
