<svg width="337" height="455" viewBox="0 0 337 455" fill="none" xmlns="http://www.w3.org/2000/svg">
<path d="M89.2055 306.765C136.996 306.765 175.738 268.023 175.738 220.232C175.738 172.441 136.996 133.699 89.2055 133.699C41.4148 133.699 2.67285 172.441 2.67285 220.232C2.67285 268.023 41.4148 306.765 89.2055 306.765Z" fill="url(#paint0_radial_917_19590)"/>
<path d="M72.5 210.5V209H71V207.5H74V209H78.5V206H74V204.5H75.5V203H77V201.5H72.5V200H81.5V201.5H80V203H78.5V204.5H80V206H81.5V209H80V210.5H72.5ZM83 210.5V207.5H84.5V206H86V204.5H89V203H90.5V201.5H86V203H83V201.5H84.5V200H92V201.5H93.5V204.5H92V206H90.5V207.5H87.5V209H93.5V210.5H83ZM98 201.5H96.5V200H99.5V203H98V201.5ZM105.5 200V201.5H104V200H105.5ZM98 204.5H95V201.5H96.5V203H98V204.5ZM102.5 201.5H104V203H102.5V201.5ZM101 203H102.5V204.5H101V203ZM99.5 204.5H101V206H99.5V204.5ZM98 206H99.5V207.5H98V206ZM102.5 206H105.5V209H104V207.5H102.5V206ZM96.5 207.5H98V209H96.5V207.5ZM102.5 209H104V210.5H101V207.5H102.5V209ZM95 209H96.5V210.5H95V209Z" fill="#404040"/>
<path d="M74.3061 224.088C73.9008 224.088 73.5568 224.005 73.2741 223.84C72.9914 223.672 72.7634 223.449 72.5901 223.172C72.4168 222.892 72.2901 222.581 72.2101 222.24C72.1301 221.896 72.0901 221.549 72.0901 221.2C72.0901 220.864 72.1301 220.527 72.2101 220.188C72.2928 219.847 72.4221 219.535 72.5981 219.252C72.7741 218.969 73.0021 218.743 73.2821 218.572C73.5648 218.399 73.9061 218.312 74.3061 218.312C74.6208 218.312 74.8928 218.369 75.1221 218.484C75.3541 218.596 75.5461 218.741 75.6981 218.92C75.8501 219.099 75.9648 219.285 76.0421 219.48L75.1941 219.888C75.0874 219.68 74.9661 219.516 74.8301 219.396C74.6968 219.276 74.5221 219.216 74.3061 219.216C74.0794 219.216 73.8874 219.276 73.7301 219.396C73.5728 219.516 73.4448 219.675 73.3461 219.872C73.2501 220.069 73.1808 220.284 73.1381 220.516C73.0954 220.748 73.0741 220.976 73.0741 221.2C73.0741 221.437 73.0981 221.673 73.1461 221.908C73.1968 222.143 73.2714 222.356 73.3701 222.548C73.4714 222.74 73.5994 222.895 73.7541 223.012C73.9114 223.127 74.0954 223.184 74.3061 223.184C74.5221 223.184 74.7008 223.117 74.8421 222.984C74.9834 222.848 75.1034 222.675 75.2021 222.464L76.0661 222.792C75.9648 223.04 75.8341 223.263 75.6741 223.46C75.5168 223.655 75.3248 223.808 75.0981 223.92C74.8714 224.032 74.6074 224.088 74.3061 224.088ZM79.1398 224.096C78.7638 224.096 78.4411 224.017 78.1718 223.86C77.9051 223.7 77.6864 223.484 77.5158 223.212C77.3451 222.94 77.2198 222.631 77.1398 222.284C77.0598 221.937 77.0198 221.576 77.0198 221.2C77.0198 220.824 77.0598 220.463 77.1398 220.116C77.2198 219.769 77.3451 219.46 77.5158 219.188C77.6864 218.916 77.9051 218.701 78.1718 218.544C78.4411 218.384 78.7638 218.304 79.1398 218.304C79.5158 218.304 79.8384 218.384 80.1078 218.544C80.3771 218.701 80.5971 218.916 80.7678 219.188C80.9384 219.46 81.0638 219.769 81.1438 220.116C81.2264 220.463 81.2678 220.824 81.2678 221.2C81.2678 221.576 81.2264 221.937 81.1438 222.284C81.0638 222.631 80.9384 222.94 80.7678 223.212C80.5971 223.484 80.3771 223.7 80.1078 223.86C79.8384 224.017 79.5158 224.096 79.1398 224.096ZM79.1398 223.192C79.3371 223.192 79.5078 223.136 79.6518 223.024C79.7958 222.912 79.9131 222.761 80.0038 222.572C80.0971 222.383 80.1651 222.169 80.2078 221.932C80.2531 221.695 80.2758 221.451 80.2758 221.2C80.2758 220.933 80.2531 220.681 80.2078 220.444C80.1651 220.204 80.0984 219.992 80.0078 219.808C79.9171 219.621 79.7998 219.475 79.6558 219.368C79.5118 219.261 79.3398 219.208 79.1398 219.208C78.9398 219.208 78.7678 219.264 78.6238 219.376C78.4798 219.485 78.3624 219.635 78.2718 219.824C78.1811 220.013 78.1131 220.227 78.0678 220.464C78.0251 220.701 78.0038 220.947 78.0038 221.2C78.0038 221.464 78.0251 221.716 78.0678 221.956C78.1131 222.193 78.1811 222.405 78.2718 222.592C78.3624 222.779 78.4798 222.925 78.6238 223.032C78.7678 223.139 78.9398 223.192 79.1398 223.192ZM82.2135 224V218.4H83.1175L84.8615 221.856C84.8855 221.899 84.9188 221.96 84.9615 222.04C85.0041 222.12 85.0375 222.187 85.0615 222.24C85.0588 222.171 85.0548 222.101 85.0495 222.032C85.0468 221.963 85.0455 221.904 85.0455 221.856V218.4H85.9255V224H85.0615L83.2855 220.528C83.2615 220.483 83.2281 220.42 83.1855 220.34C83.1428 220.26 83.1068 220.195 83.0775 220.144C83.0908 220.203 83.0975 220.268 83.0975 220.34C83.1001 220.412 83.1015 220.475 83.1015 220.528V224H82.2135ZM88.5192 224V219.312H86.8952V218.4H91.1032V219.312H89.4712V224H88.5192ZM92.0728 224V218.4H95.6648V219.304H93.0248V220.656H94.7448V221.56H93.0248V223.096H95.8328V224H92.0728ZM97.0025 224V218.4H97.9065L99.6505 221.856C99.6745 221.899 99.7079 221.96 99.7505 222.04C99.7932 222.12 99.8265 222.187 99.8505 222.24C99.8479 222.171 99.8439 222.101 99.8385 222.032C99.8359 221.963 99.8345 221.904 99.8345 221.856V218.4H100.715V224H99.8505L98.0745 220.528C98.0505 220.483 98.0172 220.42 97.9745 220.34C97.9319 220.26 97.8959 220.195 97.8665 220.144C97.8799 220.203 97.8865 220.268 97.8865 220.34C97.8892 220.412 97.8905 220.475 97.8905 220.528V224H97.0025ZM103.308 224V219.312H101.684V218.4H105.892V219.312H104.26V224H103.308ZM69.3764 234.088C68.9711 234.088 68.6271 234.005 68.3444 233.84C68.0617 233.672 67.8337 233.449 67.6604 233.172C67.4871 232.892 67.3604 232.581 67.2804 232.24C67.2004 231.896 67.1604 231.549 67.1604 231.2C67.1604 230.864 67.2004 230.527 67.2804 230.188C67.3631 229.847 67.4924 229.535 67.6684 229.252C67.8444 228.969 68.0724 228.743 68.3524 228.572C68.6351 228.399 68.9764 228.312 69.3764 228.312C69.6911 228.312 69.9631 228.369 70.1924 228.484C70.4244 228.596 70.6164 228.741 70.7684 228.92C70.9204 229.099 71.0351 229.285 71.1124 229.48L70.2644 229.888C70.1577 229.68 70.0364 229.516 69.9004 229.396C69.7671 229.276 69.5924 229.216 69.3764 229.216C69.1497 229.216 68.9577 229.276 68.8004 229.396C68.6431 229.516 68.5151 229.675 68.4164 229.872C68.3204 230.069 68.2511 230.284 68.2084 230.516C68.1657 230.748 68.1444 230.976 68.1444 231.2C68.1444 231.437 68.1684 231.673 68.2164 231.908C68.2671 232.143 68.3417 232.356 68.4404 232.548C68.5417 232.74 68.6697 232.895 68.8244 233.012C68.9817 233.127 69.1657 233.184 69.3764 233.184C69.5924 233.184 69.7711 233.117 69.9124 232.984C70.0537 232.848 70.1737 232.675 70.2724 232.464L71.1364 232.792C71.0351 233.04 70.9044 233.263 70.7444 233.46C70.5871 233.655 70.3951 233.808 70.1684 233.92C69.9417 234.032 69.6777 234.088 69.3764 234.088ZM72.3541 234V228.4H74.2901C74.7514 228.4 75.1154 228.48 75.3821 228.64C75.6488 228.8 75.8381 229.009 75.9501 229.268C76.0648 229.527 76.1221 229.803 76.1221 230.096C76.1221 230.304 76.0874 230.507 76.0181 230.704C75.9488 230.899 75.8448 231.076 75.7061 231.236C75.5674 231.393 75.3928 231.523 75.1821 231.624C74.9741 231.725 74.7301 231.787 74.4501 231.808H73.3061V234H72.3541ZM75.0581 234L73.9141 231.696L74.9301 231.592L76.1141 234H75.0581ZM73.3061 230.912H74.3061C74.5194 230.912 74.6874 230.873 74.8101 230.796C74.9328 230.719 75.0194 230.619 75.0701 230.496C75.1208 230.373 75.1461 230.243 75.1461 230.104C75.1461 229.979 75.1221 229.855 75.0741 229.732C75.0261 229.607 74.9408 229.503 74.8181 229.42C74.6981 229.337 74.5274 229.296 74.3061 229.296H73.3061V230.912ZM77.2838 234V228.4H80.8758V229.304H78.2358V230.656H79.9558V231.56H78.2358V233.096H81.0438V234H77.2838ZM81.7895 234L83.6215 228.4H84.5175L86.3495 234H85.3255L84.2055 230.24C84.1921 230.197 84.1761 230.14 84.1575 230.068C84.1415 229.996 84.1255 229.92 84.1095 229.84C84.0935 229.76 84.0801 229.685 84.0695 229.616C84.0561 229.685 84.0415 229.76 84.0255 229.84C84.0095 229.92 83.9935 229.996 83.9775 230.068C83.9615 230.14 83.9468 230.197 83.9335 230.24L82.8135 234H81.7895ZM82.9735 232.768L83.2295 231.904H84.9095L85.1655 232.768H82.9735ZM88.5192 234V229.312H86.8952V228.4H91.1032V229.312H89.4712V234H88.5192ZM93.4488 234V228.4H94.4008V234H93.4488ZM92.2808 234V233.16H95.5768V234H92.2808ZM92.2808 229.24V228.4H95.5768V229.24H92.2808ZM98.8585 234.096C98.4825 234.096 98.1599 234.017 97.8905 233.86C97.6239 233.7 97.4052 233.484 97.2345 233.212C97.0639 232.94 96.9385 232.631 96.8585 232.284C96.7785 231.937 96.7385 231.576 96.7385 231.2C96.7385 230.824 96.7785 230.463 96.8585 230.116C96.9385 229.769 97.0639 229.46 97.2345 229.188C97.4052 228.916 97.6239 228.701 97.8905 228.544C98.1599 228.384 98.4825 228.304 98.8585 228.304C99.2345 228.304 99.5572 228.384 99.8265 228.544C100.096 228.701 100.316 228.916 100.487 229.188C100.657 229.46 100.783 229.769 100.863 230.116C100.945 230.463 100.987 230.824 100.987 231.2C100.987 231.576 100.945 231.937 100.863 232.284C100.783 232.631 100.657 232.94 100.487 233.212C100.316 233.484 100.096 233.7 99.8265 233.86C99.5572 234.017 99.2345 234.096 98.8585 234.096ZM98.8585 233.192C99.0559 233.192 99.2265 233.136 99.3705 233.024C99.5145 232.912 99.6319 232.761 99.7225 232.572C99.8159 232.383 99.8839 232.169 99.9265 231.932C99.9719 231.695 99.9945 231.451 99.9945 231.2C99.9945 230.933 99.9719 230.681 99.9265 230.444C99.8839 230.204 99.8172 229.992 99.7265 229.808C99.6359 229.621 99.5185 229.475 99.3745 229.368C99.2305 229.261 99.0585 229.208 98.8585 229.208C98.6585 229.208 98.4865 229.264 98.3425 229.376C98.1985 229.485 98.0812 229.635 97.9905 229.824C97.8999 230.013 97.8319 230.227 97.7865 230.464C97.7439 230.701 97.7225 230.947 97.7225 231.2C97.7225 231.464 97.7439 231.716 97.7865 231.956C97.8319 232.193 97.8999 232.405 97.9905 232.592C98.0812 232.779 98.1985 232.925 98.3425 233.032C98.4865 233.139 98.6585 233.192 98.8585 233.192ZM101.932 234V228.4H102.836L104.58 231.856C104.604 231.899 104.638 231.96 104.68 232.04C104.723 232.12 104.756 232.187 104.78 232.24C104.778 232.171 104.774 232.101 104.768 232.032C104.766 231.963 104.764 231.904 104.764 231.856V228.4H105.644V234H104.78L103.004 230.528C102.98 230.483 102.947 230.42 102.904 230.34C102.862 230.26 102.826 230.195 102.796 230.144C102.81 230.203 102.816 230.268 102.816 230.34C102.819 230.412 102.82 230.475 102.82 230.528V234H101.932ZM106.67 235.04L109.814 228.304H110.758L107.614 235.04H106.67ZM60.0299 244V238.4H60.9579L61.7659 241.472C61.7872 241.552 61.8125 241.647 61.8419 241.756C61.8712 241.863 61.8912 241.952 61.9019 242.024C61.9152 241.952 61.9352 241.863 61.9619 241.756C61.9912 241.647 62.0165 241.552 62.0379 241.472L62.8699 238.4H63.7419V244H62.9179V240.96C62.9179 240.899 62.9179 240.82 62.9179 240.724C62.9205 240.628 62.9259 240.552 62.9339 240.496C62.9099 240.563 62.8832 240.637 62.8539 240.72C62.8272 240.803 62.8032 240.883 62.7819 240.96L61.9259 244H61.8459L60.9899 240.96C60.9685 240.883 60.9432 240.803 60.9139 240.72C60.8872 240.635 60.8619 240.56 60.8379 240.496C60.8432 240.552 60.8472 240.628 60.8499 240.724C60.8525 240.82 60.8539 240.899 60.8539 240.96V244H60.0299ZM66.8156 244.096C66.4396 244.096 66.1169 244.017 65.8476 243.86C65.5809 243.7 65.3622 243.484 65.1916 243.212C65.0209 242.94 64.8956 242.631 64.8156 242.284C64.7356 241.937 64.6956 241.576 64.6956 241.2C64.6956 240.824 64.7356 240.463 64.8156 240.116C64.8956 239.769 65.0209 239.46 65.1916 239.188C65.3622 238.916 65.5809 238.701 65.8476 238.544C66.1169 238.384 66.4396 238.304 66.8156 238.304C67.1916 238.304 67.5142 238.384 67.7836 238.544C68.0529 238.701 68.2729 238.916 68.4436 239.188C68.6142 239.46 68.7396 239.769 68.8196 240.116C68.9022 240.463 68.9436 240.824 68.9436 241.2C68.9436 241.576 68.9022 241.937 68.8196 242.284C68.7396 242.631 68.6142 242.94 68.4436 243.212C68.2729 243.484 68.0529 243.7 67.7836 243.86C67.5142 244.017 67.1916 244.096 66.8156 244.096ZM66.8156 243.192C67.0129 243.192 67.1836 243.136 67.3276 243.024C67.4716 242.912 67.5889 242.761 67.6796 242.572C67.7729 242.383 67.8409 242.169 67.8836 241.932C67.9289 241.695 67.9516 241.451 67.9516 241.2C67.9516 240.933 67.9289 240.681 67.8836 240.444C67.8409 240.204 67.7742 239.992 67.6836 239.808C67.5929 239.621 67.4756 239.475 67.3316 239.368C67.1876 239.261 67.0156 239.208 66.8156 239.208C66.6156 239.208 66.4436 239.264 66.2996 239.376C66.1556 239.485 66.0382 239.635 65.9476 239.824C65.8569 240.013 65.7889 240.227 65.7436 240.464C65.7009 240.701 65.6796 240.947 65.6796 241.2C65.6796 241.464 65.7009 241.716 65.7436 241.956C65.7889 242.193 65.8569 242.405 65.9476 242.592C66.0382 242.779 66.1556 242.925 66.2996 243.032C66.4436 243.139 66.6156 243.192 66.8156 243.192ZM69.8893 244V238.4H70.7933L72.5373 241.856C72.5613 241.899 72.5946 241.96 72.6373 242.04C72.6799 242.12 72.7133 242.187 72.7373 242.24C72.7346 242.171 72.7306 242.101 72.7253 242.032C72.7226 241.963 72.7213 241.904 72.7213 241.856V238.4H73.6013V244H72.7373L70.9613 240.528C70.9373 240.483 70.9039 240.42 70.8613 240.34C70.8186 240.26 70.7826 240.195 70.7533 240.144C70.7666 240.203 70.7733 240.268 70.7733 240.34C70.7759 240.412 70.7773 240.475 70.7773 240.528V244H69.8893ZM74.8189 244V238.4H78.4109V239.304H75.7709V240.656H77.4909V241.56H75.7709V243.096H78.5789V244H74.8189ZM81.1246 244V239.312H79.5006V238.4H83.7086V239.312H82.0766V244H81.1246ZM86.0543 244V238.4H87.0063V244H86.0543ZM84.8863 244V243.16H88.1823V244H84.8863ZM84.8863 239.24V238.4H88.1823V239.24H84.8863ZM89.576 244V243.28L92.36 238.904L92.576 239.296H89.752V238.4H93.36V239.12L90.552 243.488L90.344 243.096H93.352V244H89.576ZM94.1137 244L95.9457 238.4H96.8417L98.6737 244H97.6497L96.5297 240.24C96.5164 240.197 96.5004 240.14 96.4817 240.068C96.4657 239.996 96.4497 239.92 96.4337 239.84C96.4177 239.76 96.4044 239.685 96.3937 239.616C96.3804 239.685 96.3657 239.76 96.3497 239.84C96.3337 239.92 96.3177 239.996 96.3017 240.068C96.2857 240.14 96.271 240.197 96.2577 240.24L95.1377 244H94.1137ZM95.2977 242.768L95.5537 241.904H97.2337L97.4897 242.768H95.2977ZM100.843 244V239.312H99.2194V238.4H103.427V239.312H101.795V244H100.843ZM105.773 244V238.4H106.725V244H105.773ZM104.605 244V243.16H107.901V244H104.605ZM104.605 239.24V238.4H107.901V239.24H104.605ZM111.183 244.096C110.807 244.096 110.484 244.017 110.215 243.86C109.948 243.7 109.729 243.484 109.559 243.212C109.388 242.94 109.263 242.631 109.183 242.284C109.103 241.937 109.063 241.576 109.063 241.2C109.063 240.824 109.103 240.463 109.183 240.116C109.263 239.769 109.388 239.46 109.559 239.188C109.729 238.916 109.948 238.701 110.215 238.544C110.484 238.384 110.807 238.304 111.183 238.304C111.559 238.304 111.881 238.384 112.151 238.544C112.42 238.701 112.64 238.916 112.811 239.188C112.981 239.46 113.107 239.769 113.187 240.116C113.269 240.463 113.311 240.824 113.311 241.2C113.311 241.576 113.269 241.937 113.187 242.284C113.107 242.631 112.981 242.94 112.811 243.212C112.64 243.484 112.42 243.7 112.151 243.86C111.881 244.017 111.559 244.096 111.183 244.096ZM111.183 243.192C111.38 243.192 111.551 243.136 111.695 243.024C111.839 242.912 111.956 242.761 112.047 242.572C112.14 242.383 112.208 242.169 112.251 241.932C112.296 241.695 112.319 241.451 112.319 241.2C112.319 240.933 112.296 240.681 112.251 240.444C112.208 240.204 112.141 239.992 112.051 239.808C111.96 239.621 111.843 239.475 111.699 239.368C111.555 239.261 111.383 239.208 111.183 239.208C110.983 239.208 110.811 239.264 110.667 239.376C110.523 239.485 110.405 239.635 110.315 239.824C110.224 240.013 110.156 240.227 110.111 240.464C110.068 240.701 110.047 240.947 110.047 241.2C110.047 241.464 110.068 241.716 110.111 241.956C110.156 242.193 110.224 242.405 110.315 242.592C110.405 242.779 110.523 242.925 110.667 243.032C110.811 243.139 110.983 243.192 111.183 243.192ZM114.256 244V238.4H115.16L116.904 241.856C116.928 241.899 116.962 241.96 117.004 242.04C117.047 242.12 117.08 242.187 117.104 242.24C117.102 242.171 117.098 242.101 117.092 242.032C117.09 241.963 117.088 241.904 117.088 241.856V238.4H117.968V244H117.104L115.328 240.528C115.304 240.483 115.271 240.42 115.228 240.34C115.186 240.26 115.15 240.195 115.12 240.144C115.134 240.203 115.14 240.268 115.14 240.34C115.143 240.412 115.144 240.475 115.144 240.528V244H114.256Z" fill="#404040"/>
<path d="M257.515 299.717C301.413 299.717 337 264.13 337 220.231C337 176.333 301.413 140.746 257.515 140.746C213.616 140.746 178.029 176.333 178.029 220.231C178.029 264.13 213.616 299.717 257.515 299.717Z" fill="url(#paint1_radial_917_19590)"/>
<path d="M239.809 218.318V215.318H241.309V213.818H242.809V212.318H245.809V210.818H247.309V209.318H242.809V210.818H239.809V209.318H241.309V207.818H248.809V209.318H250.309V212.318H248.809V213.818H247.309V215.318H244.309V216.818H250.309V218.318H239.809ZM254.809 218.318V213.818H256.309V212.318H257.809V210.818H259.309V209.318H254.809V210.818H251.809V207.818H262.309V210.818H260.809V212.318H259.309V213.818H257.809V218.318H254.809ZM266.809 209.318H265.309V207.818H268.309V210.818H266.809V209.318ZM274.309 207.818V209.318H272.809V207.818H274.309ZM266.809 212.318H263.809V209.318H265.309V210.818H266.809V212.318ZM271.309 209.318H272.809V210.818H271.309V209.318ZM269.809 210.818H271.309V212.318H269.809V210.818ZM268.309 212.318H269.809V213.818H268.309V212.318ZM266.809 213.818H268.309V215.318H266.809V213.818ZM271.309 213.818H274.309V216.818H272.809V215.318H271.309V213.818ZM265.309 215.318H266.809V216.818H265.309V215.318ZM271.309 216.818H272.809V218.318H269.809V215.318H271.309V216.818ZM263.809 216.818H265.309V218.318H263.809V216.818Z" fill="#404040"/>
<path d="M238.153 231.914C237.849 231.914 237.564 231.856 237.297 231.738C237.033 231.618 236.803 231.45 236.605 231.234C236.408 231.018 236.26 230.765 236.161 230.474L237.025 230.154C237.145 230.41 237.313 230.618 237.529 230.778C237.748 230.938 237.983 231.018 238.233 231.018C238.473 231.018 238.669 230.957 238.821 230.834C238.973 230.712 239.049 230.533 239.049 230.298C239.049 230.146 238.996 230.012 238.889 229.894C238.783 229.774 238.641 229.665 238.465 229.566C238.292 229.468 238.103 229.373 237.897 229.282C237.719 229.205 237.539 229.118 237.357 229.022C237.179 228.926 237.013 228.813 236.861 228.682C236.712 228.552 236.591 228.398 236.497 228.222C236.407 228.046 236.361 227.84 236.361 227.602C236.361 227.333 236.432 227.086 236.573 226.862C236.715 226.638 236.915 226.46 237.173 226.326C237.432 226.19 237.737 226.122 238.089 226.122C238.511 226.122 238.872 226.236 239.173 226.462C239.477 226.689 239.679 226.973 239.777 227.314L238.921 227.602C238.841 227.437 238.727 227.298 238.577 227.186C238.428 227.074 238.247 227.018 238.033 227.018C237.833 227.018 237.664 227.069 237.525 227.17C237.389 227.272 237.321 227.41 237.321 227.586C237.321 227.709 237.36 227.816 237.437 227.906C237.517 227.997 237.633 228.085 237.785 228.17C237.94 228.256 238.129 228.352 238.353 228.458C238.535 228.544 238.721 228.64 238.913 228.746C239.105 228.85 239.284 228.972 239.449 229.11C239.617 229.249 239.752 229.412 239.853 229.598C239.957 229.785 240.009 230.002 240.009 230.25C240.009 230.605 239.923 230.906 239.749 231.154C239.579 231.402 239.352 231.592 239.069 231.722C238.789 231.85 238.484 231.914 238.153 231.914ZM242.539 231.818V226.218H243.491V231.818H242.539ZM241.371 231.818V230.978H244.667V231.818H241.371ZM241.371 227.058V226.218H244.667V227.058H241.371ZM248.037 231.914C247.658 231.914 247.329 231.834 247.049 231.674C246.772 231.512 246.542 231.293 246.361 231.018C246.182 230.741 246.049 230.43 245.961 230.086C245.873 229.74 245.829 229.384 245.829 229.018C245.829 228.669 245.874 228.324 245.965 227.982C246.056 227.638 246.193 227.326 246.377 227.046C246.561 226.766 246.79 226.542 247.065 226.374C247.342 226.206 247.666 226.122 248.037 226.122C248.354 226.122 248.621 226.177 248.837 226.286C249.056 226.393 249.238 226.533 249.385 226.706C249.532 226.877 249.658 227.058 249.765 227.25L248.925 227.73C248.826 227.541 248.706 227.377 248.565 227.238C248.426 227.097 248.25 227.026 248.037 227.026C247.813 227.026 247.624 227.088 247.469 227.21C247.314 227.33 247.189 227.49 247.093 227.69C246.997 227.888 246.928 228.104 246.885 228.338C246.842 228.57 246.821 228.797 246.821 229.018C246.821 229.272 246.845 229.517 246.893 229.754C246.944 229.992 247.018 230.205 247.117 230.394C247.216 230.584 247.341 230.734 247.493 230.846C247.648 230.956 247.829 231.01 248.037 231.01C248.333 231.01 248.554 230.912 248.701 230.714C248.85 230.514 248.925 230.266 248.925 229.97V229.85H247.949V228.954H249.901V229.73C249.901 230.202 249.818 230.601 249.653 230.926C249.49 231.252 249.268 231.498 248.985 231.666C248.705 231.832 248.389 231.914 248.037 231.914ZM251.023 231.818V226.218H251.927L253.671 229.674C253.695 229.717 253.728 229.778 253.771 229.858C253.813 229.938 253.847 230.005 253.871 230.058C253.868 229.989 253.864 229.92 253.859 229.85C253.856 229.781 253.855 229.722 253.855 229.674V226.218H254.735V231.818H253.871L252.095 228.346C252.071 228.301 252.037 228.238 251.995 228.158C251.952 228.078 251.916 228.013 251.887 227.962C251.9 228.021 251.907 228.086 251.907 228.158C251.909 228.23 251.911 228.293 251.911 228.346V231.818H251.023ZM255.528 231.818L257.36 226.218H258.256L260.088 231.818H259.064L257.944 228.058C257.931 228.016 257.915 227.958 257.896 227.886C257.88 227.814 257.864 227.738 257.848 227.658C257.832 227.578 257.819 227.504 257.808 227.434C257.795 227.504 257.78 227.578 257.764 227.658C257.748 227.738 257.732 227.814 257.716 227.886C257.7 227.958 257.686 228.016 257.672 228.058L256.552 231.818H255.528ZM256.712 230.586L256.968 229.722H258.648L258.904 230.586H256.712ZM262.258 231.818V227.13H260.634V226.218H264.842V227.13H263.21V231.818H262.258ZM267.668 231.914C267.332 231.914 267.02 231.844 266.732 231.702C266.446 231.561 266.216 231.328 266.04 231.002C265.866 230.677 265.78 230.237 265.78 229.682V226.218H266.724V229.682C266.724 230.026 266.764 230.294 266.844 230.486C266.926 230.678 267.038 230.814 267.18 230.894C267.324 230.972 267.486 231.01 267.668 231.01C267.846 231.01 268.006 230.972 268.148 230.894C268.292 230.814 268.405 230.678 268.488 230.486C268.57 230.294 268.612 230.026 268.612 229.682V226.218H269.564V229.682C269.564 230.229 269.477 230.666 269.304 230.994C269.13 231.32 268.9 231.554 268.612 231.698C268.324 231.842 268.009 231.914 267.668 231.914ZM270.741 231.818V226.218H272.677C273.139 226.218 273.503 226.298 273.769 226.458C274.036 226.618 274.225 226.828 274.337 227.086C274.452 227.345 274.509 227.621 274.509 227.914C274.509 228.122 274.475 228.325 274.405 228.522C274.336 228.717 274.232 228.894 274.093 229.054C273.955 229.212 273.78 229.341 273.569 229.442C273.361 229.544 273.117 229.605 272.837 229.626H271.693V231.818H270.741ZM273.445 231.818L272.301 229.514L273.317 229.41L274.501 231.818H273.445ZM271.693 228.73H272.693C272.907 228.73 273.075 228.692 273.197 228.614C273.32 228.537 273.407 228.437 273.457 228.314C273.508 228.192 273.533 228.061 273.533 227.922C273.533 227.797 273.509 227.673 273.461 227.55C273.413 227.425 273.328 227.321 273.205 227.238C273.085 227.156 272.915 227.114 272.693 227.114H271.693V228.73ZM275.671 231.818V226.218H279.263V227.122H276.623V228.474H278.343V229.378H276.623V230.914H279.431V231.818H275.671Z" fill="#404040"/>
<path d="M180.198 438.054C223.276 438.054 258.197 403.132 258.197 360.054C258.197 316.976 223.276 282.055 180.198 282.055C137.12 282.055 102.198 316.976 102.198 360.054C102.198 403.132 137.12 438.054 180.198 438.054Z" fill="url(#paint2_radial_917_19590)"/>
<path d="M161.5 355.5V352.5H163V351H164.5V349.5H167.5V348H169V346.5H164.5V348H161.5V346.5H163V345H170.5V346.5H172V349.5H170.5V351H169V352.5H166V354H172V355.5H161.5ZM175 355.5V354H173.5V348H175V346.5H176.5V345H182.5V346.5H178V348H176.5V349.5H182.5V351H184V354H182.5V355.5H175ZM176.5 354H181V351H176.5V354ZM188.5 346.5H187V345H190V348H188.5V346.5ZM196 345V346.5H194.5V345H196ZM188.5 349.5H185.5V346.5H187V348H188.5V349.5ZM193 346.5H194.5V348H193V346.5ZM191.5 348H193V349.5H191.5V348ZM190 349.5H191.5V351H190V349.5ZM188.5 351H190V352.5H188.5V351ZM193 351H196V354H194.5V352.5H193V351ZM187 352.5H188.5V354H187V352.5ZM193 354H194.5V355.5H191.5V352.5H193V354ZM185.5 354H187V355.5H185.5V354Z" fill="#404040"/>
<path d="M162.854 365V359.4H164.83C165.294 359.4 165.662 359.485 165.934 359.656C166.209 359.827 166.405 360.045 166.522 360.312C166.642 360.576 166.702 360.851 166.702 361.136C166.702 361.336 166.667 361.539 166.598 361.744C166.529 361.947 166.419 362.133 166.27 362.304C166.121 362.475 165.927 362.612 165.69 362.716C165.453 362.82 165.166 362.872 164.83 362.872H163.806V365H162.854ZM163.806 361.976H164.878C165.086 361.976 165.253 361.935 165.378 361.852C165.503 361.767 165.594 361.66 165.65 361.532C165.706 361.401 165.734 361.269 165.734 361.136C165.734 361.016 165.709 360.892 165.658 360.764C165.607 360.633 165.519 360.523 165.394 360.432C165.271 360.341 165.099 360.296 164.878 360.296H163.806V361.976ZM167.784 365V359.4H168.736V364.088H171.32V365H167.784ZM172.289 365L174.121 359.4H175.017L176.849 365H175.825L174.705 361.24C174.692 361.197 174.676 361.14 174.657 361.068C174.641 360.996 174.625 360.92 174.609 360.84C174.593 360.76 174.58 360.685 174.569 360.616C174.556 360.685 174.541 360.76 174.525 360.84C174.509 360.92 174.493 360.996 174.477 361.068C174.461 361.14 174.447 361.197 174.433 361.24L173.313 365H172.289ZM173.473 363.768L173.729 362.904H175.409L175.665 363.768H173.473ZM179.027 365V362.808L177.379 359.4H178.435L179.691 362.216H179.307L180.571 359.4H181.619L179.971 362.808V365H179.027ZM183.949 365V359.4H184.901V365H183.949ZM182.781 365V364.16H186.077V365H182.781ZM182.781 360.24V359.4H186.077V360.24H182.781ZM187.503 365V359.4H188.407L190.151 362.856C190.175 362.899 190.208 362.96 190.251 363.04C190.293 363.12 190.327 363.187 190.351 363.24C190.348 363.171 190.344 363.101 190.339 363.032C190.336 362.963 190.335 362.904 190.335 362.856V359.4H191.215V365H190.351L188.575 361.528C188.551 361.483 188.517 361.42 188.475 361.34C188.432 361.26 188.396 361.195 188.367 361.144C188.38 361.203 188.387 361.268 188.387 361.34C188.389 361.412 188.391 361.475 188.391 361.528V365H187.503ZM194.376 365.096C193.998 365.096 193.668 365.016 193.388 364.856C193.111 364.693 192.882 364.475 192.7 364.2C192.522 363.923 192.388 363.612 192.3 363.268C192.212 362.921 192.168 362.565 192.168 362.2C192.168 361.851 192.214 361.505 192.304 361.164C192.395 360.82 192.532 360.508 192.716 360.228C192.9 359.948 193.13 359.724 193.404 359.556C193.682 359.388 194.006 359.304 194.376 359.304C194.694 359.304 194.96 359.359 195.176 359.468C195.395 359.575 195.578 359.715 195.724 359.888C195.871 360.059 195.998 360.24 196.104 360.432L195.264 360.912C195.166 360.723 195.046 360.559 194.904 360.42C194.766 360.279 194.59 360.208 194.376 360.208C194.152 360.208 193.963 360.269 193.808 360.392C193.654 360.512 193.528 360.672 193.432 360.872C193.336 361.069 193.267 361.285 193.224 361.52C193.182 361.752 193.16 361.979 193.16 362.2C193.16 362.453 193.184 362.699 193.232 362.936C193.283 363.173 193.358 363.387 193.456 363.576C193.555 363.765 193.68 363.916 193.832 364.028C193.987 364.137 194.168 364.192 194.376 364.192C194.672 364.192 194.894 364.093 195.04 363.896C195.19 363.696 195.264 363.448 195.264 363.152V363.032H194.288V362.136H196.24V362.912C196.24 363.384 196.158 363.783 195.992 364.108C195.83 364.433 195.607 364.68 195.324 364.848C195.044 365.013 194.728 365.096 194.376 365.096ZM145.6 375V369.4H147.576C148.04 369.4 148.408 369.485 148.68 369.656C148.955 369.827 149.151 370.045 149.268 370.312C149.388 370.576 149.448 370.851 149.448 371.136C149.448 371.336 149.414 371.539 149.344 371.744C149.275 371.947 149.166 372.133 149.016 372.304C148.867 372.475 148.674 372.612 148.436 372.716C148.199 372.82 147.912 372.872 147.576 372.872H146.552V375H145.6ZM146.552 371.976H147.624C147.832 371.976 147.999 371.935 148.124 371.852C148.25 371.767 148.34 371.66 148.396 371.532C148.452 371.401 148.48 371.269 148.48 371.136C148.48 371.016 148.455 370.892 148.404 370.764C148.354 370.633 148.266 370.523 148.14 370.432C148.018 370.341 147.846 370.296 147.624 370.296H146.552V371.976ZM150.53 375V369.4H152.466C152.927 369.4 153.291 369.48 153.558 369.64C153.825 369.8 154.014 370.009 154.126 370.268C154.241 370.527 154.298 370.803 154.298 371.096C154.298 371.304 154.263 371.507 154.194 371.704C154.125 371.899 154.021 372.076 153.882 372.236C153.743 372.393 153.569 372.523 153.358 372.624C153.15 372.725 152.906 372.787 152.626 372.808H151.482V375H150.53ZM153.234 375L152.09 372.696L153.106 372.592L154.29 375H153.234ZM151.482 371.912H152.482C152.695 371.912 152.863 371.873 152.986 371.796C153.109 371.719 153.195 371.619 153.246 371.496C153.297 371.373 153.322 371.243 153.322 371.104C153.322 370.979 153.298 370.855 153.25 370.732C153.202 370.607 153.117 370.503 152.994 370.42C152.874 370.337 152.703 370.296 152.482 370.296H151.482V371.912ZM157.316 375.096C156.94 375.096 156.617 375.017 156.348 374.86C156.081 374.7 155.862 374.484 155.692 374.212C155.521 373.94 155.396 373.631 155.316 373.284C155.236 372.937 155.196 372.576 155.196 372.2C155.196 371.824 155.236 371.463 155.316 371.116C155.396 370.769 155.521 370.46 155.692 370.188C155.862 369.916 156.081 369.701 156.348 369.544C156.617 369.384 156.94 369.304 157.316 369.304C157.692 369.304 158.014 369.384 158.284 369.544C158.553 369.701 158.773 369.916 158.944 370.188C159.114 370.46 159.24 370.769 159.32 371.116C159.402 371.463 159.444 371.824 159.444 372.2C159.444 372.576 159.402 372.937 159.32 373.284C159.24 373.631 159.114 373.94 158.944 374.212C158.773 374.484 158.553 374.7 158.284 374.86C158.014 375.017 157.692 375.096 157.316 375.096ZM157.316 374.192C157.513 374.192 157.684 374.136 157.828 374.024C157.972 373.912 158.089 373.761 158.18 373.572C158.273 373.383 158.341 373.169 158.384 372.932C158.429 372.695 158.452 372.451 158.452 372.2C158.452 371.933 158.429 371.681 158.384 371.444C158.341 371.204 158.274 370.992 158.184 370.808C158.093 370.621 157.976 370.475 157.832 370.368C157.688 370.261 157.516 370.208 157.316 370.208C157.116 370.208 156.944 370.264 156.8 370.376C156.656 370.485 156.538 370.635 156.448 370.824C156.357 371.013 156.289 371.227 156.244 371.464C156.201 371.701 156.18 371.947 156.18 372.2C156.18 372.464 156.201 372.716 156.244 372.956C156.289 373.193 156.357 373.405 156.448 373.592C156.538 373.779 156.656 373.925 156.8 374.032C156.944 374.139 157.116 374.192 157.316 374.192ZM160.389 375V369.4H164.165V370.304H161.341V371.656H163.397V372.56H161.341V375H160.389ZM165.319 375V369.4H168.911V370.304H166.271V371.656H167.991V372.56H166.271V374.096H169.079V375H165.319ZM172.169 375.096C171.865 375.096 171.579 375.037 171.313 374.92C171.049 374.8 170.818 374.632 170.621 374.416C170.423 374.2 170.275 373.947 170.177 373.656L171.041 373.336C171.161 373.592 171.329 373.8 171.545 373.96C171.763 374.12 171.998 374.2 172.249 374.2C172.489 374.2 172.685 374.139 172.837 374.016C172.989 373.893 173.065 373.715 173.065 373.48C173.065 373.328 173.011 373.193 172.905 373.076C172.798 372.956 172.657 372.847 172.481 372.748C172.307 372.649 172.118 372.555 171.913 372.464C171.734 372.387 171.554 372.3 171.373 372.204C171.194 372.108 171.029 371.995 170.877 371.864C170.727 371.733 170.606 371.58 170.513 371.404C170.422 371.228 170.377 371.021 170.377 370.784C170.377 370.515 170.447 370.268 170.589 370.044C170.73 369.82 170.93 369.641 171.189 369.508C171.447 369.372 171.753 369.304 172.105 369.304C172.526 369.304 172.887 369.417 173.189 369.644C173.493 369.871 173.694 370.155 173.793 370.496L172.937 370.784C172.857 370.619 172.742 370.48 172.593 370.368C172.443 370.256 172.262 370.2 172.049 370.2C171.849 370.2 171.679 370.251 171.541 370.352C171.405 370.453 171.337 370.592 171.337 370.768C171.337 370.891 171.375 370.997 171.453 371.088C171.533 371.179 171.649 371.267 171.801 371.352C171.955 371.437 172.145 371.533 172.369 371.64C172.55 371.725 172.737 371.821 172.929 371.928C173.121 372.032 173.299 372.153 173.465 372.292C173.633 372.431 173.767 372.593 173.869 372.78C173.973 372.967 174.025 373.184 174.025 373.432C174.025 373.787 173.938 374.088 173.765 374.336C173.594 374.584 173.367 374.773 173.085 374.904C172.805 375.032 172.499 375.096 172.169 375.096ZM177.098 375.096C176.794 375.096 176.509 375.037 176.242 374.92C175.978 374.8 175.748 374.632 175.55 374.416C175.353 374.2 175.205 373.947 175.106 373.656L175.97 373.336C176.09 373.592 176.258 373.8 176.474 373.96C176.693 374.12 176.928 374.2 177.178 374.2C177.418 374.2 177.614 374.139 177.766 374.016C177.918 373.893 177.994 373.715 177.994 373.48C177.994 373.328 177.941 373.193 177.834 373.076C177.728 372.956 177.586 372.847 177.41 372.748C177.237 372.649 177.048 372.555 176.842 372.464C176.664 372.387 176.484 372.3 176.302 372.204C176.124 372.108 175.958 371.995 175.806 371.864C175.657 371.733 175.536 371.58 175.442 371.404C175.352 371.228 175.306 371.021 175.306 370.784C175.306 370.515 175.377 370.268 175.518 370.044C175.66 369.82 175.86 369.641 176.118 369.508C176.377 369.372 176.682 369.304 177.034 369.304C177.456 369.304 177.817 369.417 178.118 369.644C178.422 369.871 178.624 370.155 178.722 370.496L177.866 370.784C177.786 370.619 177.672 370.48 177.522 370.368C177.373 370.256 177.192 370.2 176.978 370.2C176.778 370.2 176.609 370.251 176.47 370.352C176.334 370.453 176.266 370.592 176.266 370.768C176.266 370.891 176.305 370.997 176.382 371.088C176.462 371.179 176.578 371.267 176.73 371.352C176.885 371.437 177.074 371.533 177.298 371.64C177.48 371.725 177.666 371.821 177.858 371.928C178.05 372.032 178.229 372.153 178.394 372.292C178.562 372.431 178.697 372.593 178.798 372.78C178.902 372.967 178.954 373.184 178.954 373.432C178.954 373.787 178.868 374.088 178.694 374.336C178.524 374.584 178.297 374.773 178.014 374.904C177.734 375.032 177.429 375.096 177.098 375.096ZM181.484 375V369.4H182.436V375H181.484ZM180.316 375V374.16H183.612V375H180.316ZM180.316 370.24V369.4H183.612V370.24H180.316ZM186.894 375.096C186.518 375.096 186.195 375.017 185.926 374.86C185.659 374.7 185.44 374.484 185.27 374.212C185.099 373.94 184.974 373.631 184.894 373.284C184.814 372.937 184.774 372.576 184.774 372.2C184.774 371.824 184.814 371.463 184.894 371.116C184.974 370.769 185.099 370.46 185.27 370.188C185.44 369.916 185.659 369.701 185.926 369.544C186.195 369.384 186.518 369.304 186.894 369.304C187.27 369.304 187.592 369.384 187.862 369.544C188.131 369.701 188.351 369.916 188.522 370.188C188.692 370.46 188.818 370.769 188.898 371.116C188.98 371.463 189.022 371.824 189.022 372.2C189.022 372.576 188.98 372.937 188.898 373.284C188.818 373.631 188.692 373.94 188.522 374.212C188.351 374.484 188.131 374.7 187.862 374.86C187.592 375.017 187.27 375.096 186.894 375.096ZM186.894 374.192C187.091 374.192 187.262 374.136 187.406 374.024C187.55 373.912 187.667 373.761 187.758 373.572C187.851 373.383 187.919 373.169 187.962 372.932C188.007 372.695 188.03 372.451 188.03 372.2C188.03 371.933 188.007 371.681 187.962 371.444C187.919 371.204 187.852 370.992 187.762 370.808C187.671 370.621 187.554 370.475 187.41 370.368C187.266 370.261 187.094 370.208 186.894 370.208C186.694 370.208 186.522 370.264 186.378 370.376C186.234 370.485 186.116 370.635 186.026 370.824C185.935 371.013 185.867 371.227 185.822 371.464C185.779 371.701 185.758 371.947 185.758 372.2C185.758 372.464 185.779 372.716 185.822 372.956C185.867 373.193 185.935 373.405 186.026 373.592C186.116 373.779 186.234 373.925 186.378 374.032C186.522 374.139 186.694 374.192 186.894 374.192ZM189.967 375V369.4H190.871L192.615 372.856C192.639 372.899 192.673 372.96 192.715 373.04C192.758 373.12 192.791 373.187 192.815 373.24C192.813 373.171 192.809 373.101 192.803 373.032C192.801 372.963 192.799 372.904 192.799 372.856V369.4H193.679V375H192.815L191.039 371.528C191.015 371.483 190.982 371.42 190.939 371.34C190.897 371.26 190.861 371.195 190.831 371.144C190.845 371.203 190.851 371.268 190.851 371.34C190.854 371.412 190.855 371.475 190.855 371.528V375H189.967ZM194.473 375L196.305 369.4H197.201L199.033 375H198.009L196.889 371.24C196.876 371.197 196.86 371.14 196.841 371.068C196.825 370.996 196.809 370.92 196.793 370.84C196.777 370.76 196.764 370.685 196.753 370.616C196.74 370.685 196.725 370.76 196.709 370.84C196.693 370.92 196.677 370.996 196.661 371.068C196.645 371.14 196.63 371.197 196.617 371.24L195.497 375H194.473ZM195.657 373.768L195.913 372.904H197.593L197.849 373.768H195.657ZM199.827 375V369.4H200.779V374.088H203.363V375H199.827ZM204.756 375V369.4H205.708V374.088H208.292V375H204.756ZM211.07 375V372.808L209.422 369.4H210.478L211.734 372.216H211.35L212.614 369.4H213.662L212.014 372.808V375H211.07Z" fill="#404040"/>
<path d="M179.936 159.498C219.562 159.498 251.685 127.375 251.685 87.7491C251.685 48.1232 219.562 16 179.936 16C140.31 16 108.187 48.1232 108.187 87.7491C108.187 127.375 140.31 159.498 179.936 159.498Z" fill="url(#paint3_radial_917_19590)"/>
<path d="M162.203 85.8359V82.8359H163.703V81.3359H165.203V79.8359H168.203V78.3359H169.703V76.8359H165.203V78.3359H162.203V76.8359H163.703V75.3359H171.203V76.8359H172.703V79.8359H171.203V81.3359H169.703V82.8359H166.703V84.3359H172.703V85.8359H162.203ZM174.203 85.8359V82.8359H175.703V81.3359H177.203V79.8359H180.203V78.3359H181.703V76.8359H177.203V78.3359H174.203V76.8359H175.703V75.3359H183.203V76.8359H184.703V79.8359H183.203V81.3359H181.703V82.8359H178.703V84.3359H184.703V85.8359H174.203ZM189.203 76.8359H187.703V75.3359H190.703V78.3359H189.203V76.8359ZM196.703 75.3359V76.8359H195.203V75.3359H196.703ZM189.203 79.8359H186.203V76.8359H187.703V78.3359H189.203V79.8359ZM193.703 76.8359H195.203V78.3359H193.703V76.8359ZM192.203 78.3359H193.703V79.8359H192.203V78.3359ZM190.703 79.8359H192.203V81.3359H190.703V79.8359ZM189.203 81.3359H190.703V82.8359H189.203V81.3359ZM193.703 81.3359H196.703V84.3359H195.203V82.8359H193.703V81.3359ZM187.703 82.8359H189.203V84.3359H187.703V82.8359ZM193.703 84.3359H195.203V85.8359H192.203V82.8359H193.703V84.3359ZM186.203 84.3359H187.703V85.8359H186.203V84.3359Z" fill="#404040"/>
<path d="M155.553 99.4319C155.177 99.4319 154.855 99.3533 154.585 99.1959C154.319 99.0359 154.1 98.8199 153.929 98.5479C153.759 98.2759 153.633 97.9666 153.553 97.6199C153.473 97.2733 153.433 96.9119 153.433 96.5359C153.433 96.1599 153.473 95.7986 153.553 95.4519C153.633 95.1053 153.759 94.7959 153.929 94.5239C154.1 94.2519 154.319 94.0373 154.585 93.8799C154.855 93.7199 155.177 93.6399 155.553 93.6399C155.929 93.6399 156.252 93.7199 156.521 93.8799C156.791 94.0373 157.011 94.2519 157.181 94.5239C157.352 94.7959 157.477 95.1053 157.557 95.4519C157.64 95.7986 157.681 96.1599 157.681 96.5359C157.681 96.9119 157.64 97.2733 157.557 97.6199C157.477 97.9666 157.352 98.2759 157.181 98.5479C157.011 98.8199 156.791 99.0359 156.521 99.1959C156.252 99.3533 155.929 99.4319 155.553 99.4319ZM155.553 98.5279C155.751 98.5279 155.921 98.4719 156.065 98.3599C156.209 98.2479 156.327 98.0973 156.417 97.9079C156.511 97.7186 156.579 97.5053 156.621 97.2679C156.667 97.0306 156.689 96.7866 156.689 96.5359C156.689 96.2693 156.667 96.0173 156.621 95.7799C156.579 95.5399 156.512 95.3279 156.421 95.1439C156.331 94.9573 156.213 94.8106 156.069 94.7039C155.925 94.5973 155.753 94.5439 155.553 94.5439C155.353 94.5439 155.181 94.5999 155.037 94.7119C154.893 94.8213 154.776 94.9706 154.685 95.1599C154.595 95.3493 154.527 95.5626 154.481 95.7999C154.439 96.0373 154.417 96.2826 154.417 96.5359C154.417 96.7999 154.439 97.0519 154.481 97.2919C154.527 97.5293 154.595 97.7413 154.685 97.9279C154.776 98.1146 154.893 98.2613 155.037 98.3679C155.181 98.4746 155.353 98.5279 155.553 98.5279ZM160.003 99.3359V94.6479H158.379V93.7359H162.587V94.6479H160.955V99.3359H160.003ZM163.557 99.3359V93.7359H164.509V95.9999H166.317V93.7359H167.269V99.3359H166.317V96.8959H164.509V99.3359H163.557ZM168.486 99.3359V93.7359H172.078V94.6399H169.438V95.9919H171.158V96.8959H169.438V98.4319H172.246V99.3359H168.486ZM173.416 99.3359V93.7359H175.352C175.813 93.7359 176.177 93.8159 176.444 93.9759C176.711 94.1359 176.9 94.3453 177.012 94.6039C177.127 94.8626 177.184 95.1386 177.184 95.4319C177.184 95.6399 177.149 95.8426 177.08 96.0399C177.011 96.2346 176.907 96.4119 176.768 96.5719C176.629 96.7293 176.455 96.8586 176.244 96.9599C176.036 97.0613 175.792 97.1226 175.512 97.1439H174.368V99.3359H173.416ZM176.12 99.3359L174.976 97.0319L175.992 96.9279L177.176 99.3359H176.12ZM174.368 96.2479H175.368C175.581 96.2479 175.749 96.2093 175.872 96.1319C175.995 96.0546 176.081 95.9546 176.132 95.8319C176.183 95.7093 176.208 95.5786 176.208 95.4399C176.208 95.3146 176.184 95.1906 176.136 95.0679C176.088 94.9426 176.003 94.8386 175.88 94.7559C175.76 94.6733 175.589 94.6319 175.368 94.6319H174.368V96.2479ZM183.275 99.3359V93.7359H187.051V94.6399H184.227V95.9919H186.283V96.8959H184.227V99.3359H183.275ZM190.061 99.4319C189.685 99.4319 189.363 99.3533 189.093 99.1959C188.827 99.0359 188.608 98.8199 188.437 98.5479C188.267 98.2759 188.141 97.9666 188.061 97.6199C187.981 97.2733 187.941 96.9119 187.941 96.5359C187.941 96.1599 187.981 95.7986 188.061 95.4519C188.141 95.1053 188.267 94.7959 188.437 94.5239C188.608 94.2519 188.827 94.0373 189.093 93.8799C189.363 93.7199 189.685 93.6399 190.061 93.6399C190.437 93.6399 190.76 93.7199 191.029 93.8799C191.299 94.0373 191.519 94.2519 191.689 94.5239C191.86 94.7959 191.985 95.1053 192.065 95.4519C192.148 95.7986 192.189 96.1599 192.189 96.5359C192.189 96.9119 192.148 97.2733 192.065 97.6199C191.985 97.9666 191.86 98.2759 191.689 98.5479C191.519 98.8199 191.299 99.0359 191.029 99.1959C190.76 99.3533 190.437 99.4319 190.061 99.4319ZM190.061 98.5279C190.259 98.5279 190.429 98.4719 190.573 98.3599C190.717 98.2479 190.835 98.0973 190.925 97.9079C191.019 97.7186 191.087 97.5053 191.129 97.2679C191.175 97.0306 191.197 96.7866 191.197 96.5359C191.197 96.2693 191.175 96.0173 191.129 95.7799C191.087 95.5399 191.02 95.3279 190.929 95.1439C190.839 94.9573 190.721 94.8106 190.577 94.7039C190.433 94.5973 190.261 94.5439 190.061 94.5439C189.861 94.5439 189.689 94.5999 189.545 94.7119C189.401 94.8213 189.284 94.9706 189.193 95.1599C189.103 95.3493 189.035 95.5626 188.989 95.7999C188.947 96.0373 188.925 96.2826 188.925 96.5359C188.925 96.7999 188.947 97.0519 188.989 97.2919C189.035 97.5293 189.103 97.7413 189.193 97.9279C189.284 98.1146 189.401 98.2613 189.545 98.3679C189.689 98.4746 189.861 98.5279 190.061 98.5279ZM193.135 99.3359V93.7359H195.071C195.532 93.7359 195.896 93.8159 196.163 93.9759C196.43 94.1359 196.619 94.3453 196.731 94.6039C196.846 94.8626 196.903 95.1386 196.903 95.4319C196.903 95.6399 196.868 95.8426 196.799 96.0399C196.73 96.2346 196.626 96.4119 196.487 96.5719C196.348 96.7293 196.174 96.8586 195.963 96.9599C195.755 97.0613 195.511 97.1226 195.231 97.1439H194.087V99.3359H193.135ZM195.839 99.3359L194.695 97.0319L195.711 96.9279L196.895 99.3359H195.839ZM194.087 96.2479H195.087C195.3 96.2479 195.468 96.2093 195.591 96.1319C195.714 96.0546 195.8 95.9546 195.851 95.8319C195.902 95.7093 195.927 95.5786 195.927 95.4399C195.927 95.3146 195.903 95.1906 195.855 95.0679C195.807 94.9426 195.722 94.8386 195.599 94.7559C195.479 94.6733 195.308 94.6319 195.087 94.6319H194.087V96.2479ZM198.065 99.3359V93.7359H198.993L199.801 96.8079C199.822 96.8879 199.847 96.9826 199.877 97.0919C199.906 97.1986 199.926 97.2879 199.937 97.3599C199.95 97.2879 199.97 97.1986 199.997 97.0919C200.026 96.9826 200.051 96.8879 200.073 96.8079L200.905 93.7359H201.777V99.3359H200.953V96.2959C200.953 96.2346 200.953 96.1559 200.953 96.0599C200.955 95.9639 200.961 95.8879 200.969 95.8319C200.945 95.8986 200.918 95.9733 200.889 96.0559C200.862 96.1386 200.838 96.2186 200.817 96.2959L199.961 99.3359H199.881L199.025 96.2959C199.003 96.2186 198.978 96.1386 198.949 96.0559C198.922 95.9706 198.897 95.8959 198.873 95.8319C198.878 95.8879 198.882 95.9639 198.885 96.0599C198.887 96.1559 198.889 96.2346 198.889 96.2959V99.3359H198.065ZM204.914 99.4319C204.61 99.4319 204.325 99.3733 204.058 99.2559C203.794 99.1359 203.564 98.9679 203.366 98.7519C203.169 98.5359 203.021 98.2826 202.922 97.9919L203.786 97.6719C203.906 97.9279 204.074 98.1359 204.29 98.2959C204.509 98.4559 204.744 98.5359 204.994 98.5359C205.234 98.5359 205.43 98.4746 205.582 98.3519C205.734 98.2293 205.81 98.0506 205.81 97.8159C205.81 97.6639 205.757 97.5293 205.65 97.4119C205.544 97.2919 205.402 97.1826 205.226 97.0839C205.053 96.9853 204.864 96.8906 204.658 96.7999C204.48 96.7226 204.3 96.6359 204.118 96.5399C203.94 96.4439 203.774 96.3306 203.622 96.1999C203.473 96.0693 203.352 95.9159 203.258 95.7399C203.168 95.5639 203.122 95.3573 203.122 95.1199C203.122 94.8506 203.193 94.6039 203.334 94.3799C203.476 94.1559 203.676 93.9773 203.934 93.8439C204.193 93.7079 204.498 93.6399 204.85 93.6399C205.272 93.6399 205.633 93.7533 205.934 93.9799C206.238 94.2066 206.44 94.4906 206.538 94.8319L205.682 95.1199C205.602 94.9546 205.488 94.8159 205.338 94.7039C205.189 94.5919 205.008 94.5359 204.794 94.5359C204.594 94.5359 204.425 94.5866 204.286 94.6879C204.15 94.7893 204.082 94.9279 204.082 95.1039C204.082 95.2266 204.121 95.3333 204.198 95.4239C204.278 95.5146 204.394 95.6026 204.546 95.6879C204.701 95.7733 204.89 95.8693 205.114 95.9759C205.296 96.0613 205.482 96.1573 205.674 96.2639C205.866 96.3679 206.045 96.4893 206.21 96.6279C206.378 96.7666 206.513 96.9293 206.614 97.1159C206.718 97.3026 206.77 97.5199 206.77 97.7679C206.77 98.1226 206.684 98.4239 206.51 98.6719C206.34 98.9199 206.113 99.1093 205.83 99.2399C205.55 99.3679 205.245 99.4319 204.914 99.4319Z" fill="#404040"/>
<path d="M52.9902 136.11C82.2559 136.11 105.98 112.386 105.98 83.1201C105.98 53.8544 82.2559 30.1299 52.9902 30.1299C23.7245 30.1299 0 53.8544 0 83.1201C0 112.386 23.7245 136.11 52.9902 136.11Z" fill="url(#paint4_radial_917_19590)"/>
<path d="M36.2466 76.207V74.707H39.2466V68.707H37.7466V67.207H39.2466V65.707H42.2466V74.707H45.2466V76.207H36.2466ZM46.7466 76.207V73.207H48.2466V71.707H49.7466V70.207H52.7466V68.707H54.2466V67.207H49.7466V68.707H46.7466V67.207H48.2466V65.707H55.7466V67.207H57.2466V70.207H55.7466V71.707H54.2466V73.207H51.2466V74.707H57.2466V76.207H46.7466ZM61.7466 67.207H60.2466V65.707H63.2466V68.707H61.7466V67.207ZM69.2466 65.707V67.207H67.7466V65.707H69.2466ZM61.7466 70.207H58.7466V67.207H60.2466V68.707H61.7466V70.207ZM66.2466 67.207H67.7466V68.707H66.2466V67.207ZM64.7466 68.707H66.2466V70.207H64.7466V68.707ZM63.2466 70.207H64.7466V71.707H63.2466V70.207ZM61.7466 71.707H63.2466V73.207H61.7466V71.707ZM66.2466 71.707H69.2466V74.707H67.7466V73.207H66.2466V71.707ZM60.2466 73.207H61.7466V74.707H60.2466V73.207ZM66.2466 74.707H67.7466V76.207H64.7466V73.207H66.2466V74.707ZM58.7466 74.707H60.2466V76.207H58.7466V74.707Z" fill="#404040"/>
<path d="M35.5558 89.803C35.2518 89.803 34.9665 89.7444 34.6998 89.627C34.4358 89.507 34.2052 89.339 34.0078 89.123C33.8105 88.907 33.6625 88.6537 33.5638 88.363L34.4278 88.043C34.5478 88.299 34.7158 88.507 34.9318 88.667C35.1505 88.827 35.3852 88.907 35.6358 88.907C35.8758 88.907 36.0718 88.8457 36.2238 88.723C36.3758 88.6004 36.4518 88.4217 36.4518 88.187C36.4518 88.035 36.3985 87.9004 36.2918 87.783C36.1852 87.663 36.0438 87.5537 35.8678 87.455C35.6945 87.3564 35.5052 87.2617 35.2998 87.171C35.1212 87.0937 34.9412 87.007 34.7598 86.911C34.5812 86.815 34.4158 86.7017 34.2638 86.571C34.1145 86.4404 33.9932 86.287 33.8998 86.111C33.8092 85.935 33.7638 85.7284 33.7638 85.491C33.7638 85.2217 33.8345 84.975 33.9758 84.751C34.1172 84.527 34.3172 84.3484 34.5758 84.215C34.8345 84.079 35.1398 84.011 35.4918 84.011C35.9132 84.011 36.2745 84.1244 36.5758 84.351C36.8798 84.5777 37.0812 84.8617 37.1798 85.203L36.3238 85.491C36.2438 85.3257 36.1292 85.187 35.9798 85.075C35.8305 84.963 35.6492 84.907 35.4358 84.907C35.2358 84.907 35.0665 84.9577 34.9278 85.059C34.7918 85.1604 34.7238 85.299 34.7238 85.475C34.7238 85.5977 34.7625 85.7044 34.8398 85.795C34.9198 85.8857 35.0358 85.9737 35.1878 86.059C35.3425 86.1444 35.5318 86.2404 35.7558 86.347C35.9372 86.4324 36.1238 86.5284 36.3158 86.635C36.5078 86.739 36.6865 86.8604 36.8518 86.999C37.0198 87.1377 37.1545 87.3004 37.2558 87.487C37.3598 87.6737 37.4118 87.891 37.4118 88.139C37.4118 88.4937 37.3252 88.795 37.1518 89.043C36.9812 89.291 36.7545 89.4804 36.4718 89.611C36.1918 89.739 35.8865 89.803 35.5558 89.803ZM38.5655 89.707V84.107H40.5415C41.0055 84.107 41.3735 84.1924 41.6455 84.363C41.9202 84.5337 42.1162 84.7524 42.2335 85.019C42.3535 85.283 42.4135 85.5577 42.4135 85.843C42.4135 86.043 42.3789 86.2457 42.3095 86.451C42.2402 86.6537 42.1309 86.8404 41.9815 87.011C41.8322 87.1817 41.6389 87.319 41.4015 87.423C41.1642 87.527 40.8775 87.579 40.5415 87.579H39.5175V89.707H38.5655ZM39.5175 86.683H40.5895C40.7975 86.683 40.9642 86.6417 41.0895 86.559C41.2149 86.4737 41.3055 86.367 41.3615 86.239C41.4175 86.1084 41.4455 85.9764 41.4455 85.843C41.4455 85.723 41.4202 85.599 41.3695 85.471C41.3189 85.3404 41.2309 85.2297 41.1055 85.139C40.9829 85.0484 40.8109 85.003 40.5895 85.003H39.5175V86.683ZM45.3512 89.803C44.9752 89.803 44.6525 89.7244 44.3832 89.567C44.1165 89.407 43.8979 89.191 43.7272 88.919C43.5565 88.647 43.4312 88.3377 43.3512 87.991C43.2712 87.6444 43.2312 87.283 43.2312 86.907C43.2312 86.531 43.2712 86.1697 43.3512 85.823C43.4312 85.4764 43.5565 85.167 43.7272 84.895C43.8979 84.623 44.1165 84.4084 44.3832 84.251C44.6525 84.091 44.9752 84.011 45.3512 84.011C45.7272 84.011 46.0499 84.091 46.3192 84.251C46.5885 84.4084 46.8085 84.623 46.9792 84.895C47.1499 85.167 47.2752 85.4764 47.3552 85.823C47.4379 86.1697 47.4792 86.531 47.4792 86.907C47.4792 87.283 47.4379 87.6444 47.3552 87.991C47.2752 88.3377 47.1499 88.647 46.9792 88.919C46.8085 89.191 46.5885 89.407 46.3192 89.567C46.0499 89.7244 45.7272 89.803 45.3512 89.803ZM45.3512 88.899C45.5485 88.899 45.7192 88.843 45.8632 88.731C46.0072 88.619 46.1245 88.4684 46.2152 88.279C46.3085 88.0897 46.3765 87.8764 46.4192 87.639C46.4645 87.4017 46.4872 87.1577 46.4872 86.907C46.4872 86.6404 46.4645 86.3884 46.4192 86.151C46.3765 85.911 46.3099 85.699 46.2192 85.515C46.1285 85.3284 46.0112 85.1817 45.8672 85.075C45.7232 84.9684 45.5512 84.915 45.3512 84.915C45.1512 84.915 44.9792 84.971 44.8352 85.083C44.6912 85.1924 44.5739 85.3417 44.4832 85.531C44.3925 85.7204 44.3245 85.9337 44.2792 86.171C44.2365 86.4084 44.2152 86.6537 44.2152 86.907C44.2152 87.171 44.2365 87.423 44.2792 87.663C44.3245 87.9004 44.3925 88.1124 44.4832 88.299C44.5739 88.4857 44.6912 88.6324 44.8352 88.739C44.9792 88.8457 45.1512 88.899 45.3512 88.899ZM48.4249 89.707V84.107H49.3289L51.0729 87.563C51.0969 87.6057 51.1302 87.667 51.1729 87.747C51.2156 87.827 51.2489 87.8937 51.2729 87.947C51.2702 87.8777 51.2662 87.8084 51.2609 87.739C51.2582 87.6697 51.2569 87.611 51.2569 87.563V84.107H52.1369V89.707H51.2729L49.4969 86.235C49.4729 86.1897 49.4396 86.127 49.3969 86.047C49.3542 85.967 49.3182 85.9017 49.2889 85.851C49.3022 85.9097 49.3089 85.975 49.3089 86.047C49.3116 86.119 49.3129 86.1817 49.3129 86.235V89.707H48.4249ZM55.2746 89.803C54.9706 89.803 54.6852 89.7444 54.4186 89.627C54.1546 89.507 53.9239 89.339 53.7266 89.123C53.5292 88.907 53.3812 88.6537 53.2826 88.363L54.1466 88.043C54.2666 88.299 54.4346 88.507 54.6506 88.667C54.8692 88.827 55.1039 88.907 55.3546 88.907C55.5946 88.907 55.7906 88.8457 55.9426 88.723C56.0946 88.6004 56.1706 88.4217 56.1706 88.187C56.1706 88.035 56.1172 87.9004 56.0106 87.783C55.9039 87.663 55.7626 87.5537 55.5866 87.455C55.4132 87.3564 55.2239 87.2617 55.0186 87.171C54.8399 87.0937 54.6599 87.007 54.4786 86.911C54.2999 86.815 54.1346 86.7017 53.9826 86.571C53.8332 86.4404 53.7119 86.287 53.6186 86.111C53.5279 85.935 53.4826 85.7284 53.4826 85.491C53.4826 85.2217 53.5532 84.975 53.6946 84.751C53.8359 84.527 54.0359 84.3484 54.2946 84.215C54.5532 84.079 54.8586 84.011 55.2106 84.011C55.6319 84.011 55.9932 84.1244 56.2946 84.351C56.5986 84.5777 56.7999 84.8617 56.8986 85.203L56.0426 85.491C55.9626 85.3257 55.8479 85.187 55.6986 85.075C55.5492 84.963 55.3679 84.907 55.1546 84.907C54.9546 84.907 54.7852 84.9577 54.6466 85.059C54.5106 85.1604 54.4426 85.299 54.4426 85.475C54.4426 85.5977 54.4812 85.7044 54.5586 85.795C54.6386 85.8857 54.7546 85.9737 54.9066 86.059C55.0612 86.1444 55.2506 86.2404 55.4746 86.347C55.6559 86.4324 55.8426 86.5284 56.0346 86.635C56.2266 86.739 56.4052 86.8604 56.5706 86.999C56.7386 87.1377 56.8732 87.3004 56.9746 87.487C57.0786 87.6737 57.1306 87.891 57.1306 88.139C57.1306 88.4937 57.0439 88.795 56.8706 89.043C56.6999 89.291 56.4732 89.4804 56.1906 89.611C55.9106 89.739 55.6052 89.803 55.2746 89.803ZM60.1403 89.803C59.7643 89.803 59.4416 89.7244 59.1723 89.567C58.9056 89.407 58.6869 89.191 58.5163 88.919C58.3456 88.647 58.2203 88.3377 58.1403 87.991C58.0603 87.6444 58.0203 87.283 58.0203 86.907C58.0203 86.531 58.0603 86.1697 58.1403 85.823C58.2203 85.4764 58.3456 85.167 58.5163 84.895C58.6869 84.623 58.9056 84.4084 59.1723 84.251C59.4416 84.091 59.7643 84.011 60.1403 84.011C60.5163 84.011 60.8389 84.091 61.1083 84.251C61.3776 84.4084 61.5976 84.623 61.7683 84.895C61.9389 85.167 62.0643 85.4764 62.1443 85.823C62.2269 86.1697 62.2683 86.531 62.2683 86.907C62.2683 87.283 62.2269 87.6444 62.1443 87.991C62.0643 88.3377 61.9389 88.647 61.7683 88.919C61.5976 89.191 61.3776 89.407 61.1083 89.567C60.8389 89.7244 60.5163 89.803 60.1403 89.803ZM60.1403 88.899C60.3376 88.899 60.5083 88.843 60.6523 88.731C60.7963 88.619 60.9136 88.4684 61.0043 88.279C61.0976 88.0897 61.1656 87.8764 61.2083 87.639C61.2536 87.4017 61.2763 87.1577 61.2763 86.907C61.2763 86.6404 61.2536 86.3884 61.2083 86.151C61.1656 85.911 61.0989 85.699 61.0083 85.515C60.9176 85.3284 60.8003 85.1817 60.6563 85.075C60.5123 84.9684 60.3403 84.915 60.1403 84.915C59.9403 84.915 59.7683 84.971 59.6243 85.083C59.4803 85.1924 59.3629 85.3417 59.2723 85.531C59.1816 85.7204 59.1136 85.9337 59.0683 86.171C59.0256 86.4084 59.0043 86.6537 59.0043 86.907C59.0043 87.171 59.0256 87.423 59.0683 87.663C59.1136 87.9004 59.1816 88.1124 59.2723 88.299C59.3629 88.4857 59.4803 88.6324 59.6243 88.739C59.7683 88.8457 59.9403 88.899 60.1403 88.899ZM63.214 89.707V84.107H65.15C65.6113 84.107 65.9753 84.187 66.242 84.347C66.5086 84.507 66.698 84.7164 66.81 84.975C66.9246 85.2337 66.982 85.5097 66.982 85.803C66.982 86.011 66.9473 86.2137 66.878 86.411C66.8086 86.6057 66.7046 86.783 66.566 86.943C66.4273 87.1004 66.2526 87.2297 66.042 87.331C65.834 87.4324 65.59 87.4937 65.31 87.515H64.166V89.707H63.214ZM65.918 89.707L64.774 87.403L65.79 87.299L66.974 89.707H65.918ZM64.166 86.619H65.166C65.3793 86.619 65.5473 86.5804 65.67 86.503C65.7926 86.4257 65.8793 86.3257 65.93 86.203C65.9806 86.0804 66.006 85.9497 66.006 85.811C66.006 85.6857 65.982 85.5617 65.934 85.439C65.886 85.3137 65.8006 85.2097 65.678 85.127C65.558 85.0444 65.3873 85.003 65.166 85.003H64.166V86.619ZM70.0636 89.803C69.7596 89.803 69.4743 89.7444 69.2076 89.627C68.9436 89.507 68.713 89.339 68.5156 89.123C68.3183 88.907 68.1703 88.6537 68.0716 88.363L68.9356 88.043C69.0556 88.299 69.2236 88.507 69.4396 88.667C69.6583 88.827 69.893 88.907 70.1436 88.907C70.3836 88.907 70.5796 88.8457 70.7316 88.723C70.8836 88.6004 70.9596 88.4217 70.9596 88.187C70.9596 88.035 70.9063 87.9004 70.7996 87.783C70.693 87.663 70.5516 87.5537 70.3756 87.455C70.2023 87.3564 70.013 87.2617 69.8076 87.171C69.629 87.0937 69.449 87.007 69.2676 86.911C69.089 86.815 68.9236 86.7017 68.7716 86.571C68.6223 86.4404 68.501 86.287 68.4076 86.111C68.317 85.935 68.2716 85.7284 68.2716 85.491C68.2716 85.2217 68.3423 84.975 68.4836 84.751C68.625 84.527 68.825 84.3484 69.0836 84.215C69.3423 84.079 69.6476 84.011 69.9996 84.011C70.421 84.011 70.7823 84.1244 71.0836 84.351C71.3876 84.5777 71.589 84.8617 71.6876 85.203L70.8316 85.491C70.7516 85.3257 70.637 85.187 70.4876 85.075C70.3383 84.963 70.157 84.907 69.9436 84.907C69.7436 84.907 69.5743 84.9577 69.4356 85.059C69.2996 85.1604 69.2316 85.299 69.2316 85.475C69.2316 85.5977 69.2703 85.7044 69.3476 85.795C69.4276 85.8857 69.5436 85.9737 69.6956 86.059C69.8503 86.1444 70.0396 86.2404 70.2636 86.347C70.445 86.4324 70.6316 86.5284 70.8236 86.635C71.0156 86.739 71.1943 86.8604 71.3596 86.999C71.5276 87.1377 71.6623 87.3004 71.7636 87.487C71.8676 87.6737 71.9196 87.891 71.9196 88.139C71.9196 88.4937 71.833 88.795 71.6596 89.043C71.489 89.291 71.2623 89.4804 70.9796 89.611C70.6996 89.739 70.3943 89.803 70.0636 89.803ZM45.9601 99.707V94.107H46.9121V96.371H48.7201V94.107H49.6721V99.707H48.7201V97.267H46.9121V99.707H45.9601ZM52.2657 99.707V94.107H53.2177V99.707H52.2657ZM51.0977 99.707V98.867H54.3937V99.707H51.0977ZM51.0977 94.947V94.107H54.3937V94.947H51.0977ZM55.8194 99.707V94.107H57.7954C58.2594 94.107 58.6274 94.1924 58.8994 94.363C59.1741 94.5337 59.3701 94.7524 59.4874 95.019C59.6074 95.283 59.6674 95.5577 59.6674 95.843C59.6674 96.043 59.6328 96.2457 59.5634 96.451C59.4941 96.6537 59.3848 96.8404 59.2354 97.011C59.0861 97.1817 58.8928 97.319 58.6554 97.423C58.4181 97.527 58.1314 97.579 57.7954 97.579H56.7714V99.707H55.8194ZM56.7714 96.683H57.8434C58.0514 96.683 58.2181 96.6417 58.3434 96.559C58.4688 96.4737 58.5594 96.367 58.6154 96.239C58.6714 96.1084 58.6994 95.9764 58.6994 95.843C58.6994 95.723 58.6741 95.599 58.6234 95.471C58.5728 95.3404 58.4848 95.2297 58.3594 95.139C58.2368 95.0484 58.0648 95.003 57.8434 95.003H56.7714V96.683Z" fill="#404040"/>
<defs>
<radialGradient id="paint0_radial_917_19590" cx="0" cy="0" r="1" gradientUnits="userSpaceOnUse" gradientTransform="translate(89.2055 220.232) rotate(90) scale(86.5326 86.5327)">
<stop offset="0.625" stop-color="white" stop-opacity="0"/>
<stop offset="1" stop-color="white"/>
</radialGradient>
<radialGradient id="paint1_radial_917_19590" cx="0" cy="0" r="1" gradientUnits="userSpaceOnUse" gradientTransform="translate(257.515 220.231) rotate(90) scale(79.4853 79.4853)">
<stop offset="0.625" stop-color="white" stop-opacity="0"/>
<stop offset="1" stop-color="white"/>
</radialGradient>
<radialGradient id="paint2_radial_917_19590" cx="0" cy="0" r="1" gradientUnits="userSpaceOnUse" gradientTransform="translate(180.198 360.054) rotate(90) scale(77.9995 77.9995)">
<stop offset="0.625" stop-color="white" stop-opacity="0"/>
<stop offset="1" stop-color="white"/>
</radialGradient>
<radialGradient id="paint3_radial_917_19590" cx="0" cy="0" r="1" gradientUnits="userSpaceOnUse" gradientTransform="translate(179.936 87.7491) rotate(90) scale(71.7491 71.7491)">
<stop offset="0.625" stop-color="white" stop-opacity="0"/>
<stop offset="1" stop-color="white"/>
</radialGradient>
<radialGradient id="paint4_radial_917_19590" cx="0" cy="0" r="1" gradientUnits="userSpaceOnUse" gradientTransform="translate(52.9902 83.1201) rotate(90) scale(52.9902 52.9902)">
<stop offset="0.625" stop-color="white" stop-opacity="0"/>
<stop offset="1" stop-color="white"/>
</radialGradient>
</defs>
</svg>
