<svg width="337" height="336" viewBox="0 0 337 336" fill="none" xmlns="http://www.w3.org/2000/svg">
<path d="M122.285 216.57C151.713 216.57 175.57 192.714 175.57 163.285C175.57 133.857 151.713 110 122.285 110C92.8565 110 69 133.857 69 163.285C69 192.714 92.8565 216.57 122.285 216.57Z" fill="url(#paint0_radial_967_20916)"/>
<path d="M113.772 155.932V151.244H112.148V150.332H116.356V151.244H114.724V155.932H113.772ZM118.701 155.932V150.332H119.653V155.932H118.701ZM117.533 155.932V155.092H120.829V155.932H117.533ZM117.533 151.172V150.332H120.829V151.172H117.533ZM122.255 155.932V150.332H124.231C124.695 150.332 125.063 150.417 125.335 150.588C125.61 150.759 125.806 150.977 125.923 151.244C126.043 151.508 126.103 151.783 126.103 152.068C126.103 152.268 126.068 152.471 125.999 152.676C125.93 152.879 125.82 153.065 125.671 153.236C125.522 153.407 125.328 153.544 125.091 153.648C124.854 153.752 124.567 153.804 124.231 153.804H123.207V155.932H122.255ZM123.207 152.908H124.279C124.487 152.908 124.654 152.867 124.779 152.784C124.904 152.699 124.995 152.592 125.051 152.464C125.107 152.333 125.135 152.201 125.135 152.068C125.135 151.948 125.11 151.824 125.059 151.696C125.008 151.565 124.92 151.455 124.795 151.364C124.672 151.273 124.5 151.228 124.279 151.228H123.207V152.908ZM129.105 156.028C128.801 156.028 128.515 155.969 128.249 155.852C127.985 155.732 127.754 155.564 127.557 155.348C127.359 155.132 127.211 154.879 127.113 154.588L127.977 154.268C128.097 154.524 128.265 154.732 128.481 154.892C128.699 155.052 128.934 155.132 129.185 155.132C129.425 155.132 129.621 155.071 129.773 154.948C129.925 154.825 130.001 154.647 130.001 154.412C130.001 154.26 129.947 154.125 129.841 154.008C129.734 153.888 129.593 153.779 129.417 153.68C129.243 153.581 129.054 153.487 128.849 153.396C128.67 153.319 128.49 153.232 128.309 153.136C128.13 153.04 127.965 152.927 127.813 152.796C127.663 152.665 127.542 152.512 127.449 152.336C127.358 152.16 127.313 151.953 127.313 151.716C127.313 151.447 127.383 151.2 127.525 150.976C127.666 150.752 127.866 150.573 128.125 150.44C128.383 150.304 128.689 150.236 129.041 150.236C129.462 150.236 129.823 150.349 130.125 150.576C130.429 150.803 130.63 151.087 130.729 151.428L129.873 151.716C129.793 151.551 129.678 151.412 129.529 151.3C129.379 151.188 129.198 151.132 128.985 151.132C128.785 151.132 128.615 151.183 128.477 151.284C128.341 151.385 128.273 151.524 128.273 151.7C128.273 151.823 128.311 151.929 128.389 152.02C128.469 152.111 128.585 152.199 128.737 152.284C128.891 152.369 129.081 152.465 129.305 152.572C129.486 152.657 129.673 152.753 129.865 152.86C130.057 152.964 130.235 153.085 130.401 153.224C130.569 153.363 130.703 153.525 130.805 153.712C130.909 153.899 130.961 154.116 130.961 154.364C130.961 154.719 130.874 155.02 130.701 155.268C130.53 155.516 130.303 155.705 130.021 155.836C129.741 155.964 129.435 156.028 129.105 156.028Z" fill="#333333"/>
<path d="M104.719 178.725V177.225H103.219V175.725H106.219V177.225H110.719V174.225H106.219V172.725H107.719V171.225H109.219V169.725H104.719V168.225H113.719V169.725H112.219V171.225H110.719V172.725H112.219V174.225H113.719V177.225H112.219V178.725H104.719ZM118.219 178.725V177.225H116.719V175.725H115.219V171.225H116.719V169.725H118.219V168.225H122.719V169.725H124.219V171.225H125.719V175.725H124.219V177.225H122.719V178.725H118.219ZM119.719 177.225H122.719V171.225H121.219V169.725H118.219V175.725H119.719V177.225ZM130.219 169.725H128.719V168.225H131.719V171.225H130.219V169.725ZM137.719 168.225V169.725H136.219V168.225H137.719ZM130.219 172.725H127.219V169.725H128.719V171.225H130.219V172.725ZM134.719 169.725H136.219V171.225H134.719V169.725ZM133.219 171.225H134.719V172.725H133.219V171.225ZM131.719 172.725H133.219V174.225H131.719V172.725ZM130.219 174.225H131.719V175.725H130.219V174.225ZM134.719 174.225H137.719V177.225H136.219V175.725H134.719V174.225ZM128.719 175.725H130.219V177.225H128.719V175.725ZM134.719 177.225H136.219V178.725H133.219V175.725H134.719V177.225ZM127.219 177.225H128.719V178.725H127.219V177.225Z" fill="#333333"/>
<path d="M247.27 206.54C272.272 206.54 292.54 186.272 292.54 161.27C292.54 136.268 272.272 116 247.27 116C222.268 116 202 136.268 202 161.27C202 186.272 222.268 206.54 247.27 206.54Z" fill="url(#paint1_radial_967_20916)"/>
<path d="M227.692 155.931V151.243H226.068V150.331H230.276V151.243H228.644V155.931H227.692ZM233.102 156.027C232.766 156.027 232.454 155.957 232.166 155.815C231.881 155.674 231.65 155.441 231.474 155.115C231.301 154.79 231.214 154.35 231.214 153.795V150.331H232.158V153.795C232.158 154.139 232.198 154.407 232.278 154.599C232.361 154.791 232.473 154.927 232.614 155.007C232.758 155.085 232.921 155.123 233.102 155.123C233.281 155.123 233.441 155.085 233.582 155.007C233.726 154.927 233.84 154.791 233.922 154.599C234.005 154.407 234.046 154.139 234.046 153.795V150.331H234.998V153.795C234.998 154.342 234.912 154.779 234.738 155.107C234.565 155.433 234.334 155.667 234.046 155.811C233.758 155.955 233.444 156.027 233.102 156.027ZM237.552 155.931V151.243H235.928V150.331H240.136V151.243H238.504V155.931H237.552ZM242.962 156.027C242.586 156.027 242.263 155.949 241.994 155.791C241.727 155.631 241.508 155.415 241.338 155.143C241.167 154.871 241.042 154.562 240.962 154.215C240.882 153.869 240.842 153.507 240.842 153.131C240.842 152.755 240.882 152.394 240.962 152.047C241.042 151.701 241.167 151.391 241.338 151.119C241.508 150.847 241.727 150.633 241.994 150.475C242.263 150.315 242.586 150.235 242.962 150.235C243.338 150.235 243.66 150.315 243.93 150.475C244.199 150.633 244.419 150.847 244.59 151.119C244.76 151.391 244.886 151.701 244.966 152.047C245.048 152.394 245.09 152.755 245.09 153.131C245.09 153.507 245.048 153.869 244.966 154.215C244.886 154.562 244.76 154.871 244.59 155.143C244.419 155.415 244.199 155.631 243.93 155.791C243.66 155.949 243.338 156.027 242.962 156.027ZM242.962 155.123C243.159 155.123 243.33 155.067 243.474 154.955C243.618 154.843 243.735 154.693 243.826 154.503C243.919 154.314 243.987 154.101 244.03 153.863C244.075 153.626 244.098 153.382 244.098 153.131C244.098 152.865 244.075 152.613 244.03 152.375C243.987 152.135 243.92 151.923 243.83 151.739C243.739 151.553 243.622 151.406 243.478 151.299C243.334 151.193 243.162 151.139 242.962 151.139C242.762 151.139 242.59 151.195 242.446 151.307C242.302 151.417 242.184 151.566 242.094 151.755C242.003 151.945 241.935 152.158 241.89 152.395C241.847 152.633 241.826 152.878 241.826 153.131C241.826 153.395 241.847 153.647 241.89 153.887C241.935 154.125 242.003 154.337 242.094 154.523C242.184 154.71 242.302 154.857 242.446 154.963C242.59 155.07 242.762 155.123 242.962 155.123ZM246.035 155.931V150.331H247.971C248.433 150.331 248.797 150.411 249.063 150.571C249.33 150.731 249.519 150.941 249.631 151.199C249.746 151.458 249.803 151.734 249.803 152.027C249.803 152.235 249.769 152.438 249.699 152.635C249.63 152.83 249.526 153.007 249.387 153.167C249.249 153.325 249.074 153.454 248.863 153.555C248.655 153.657 248.411 153.718 248.131 153.739H246.987V155.931H246.035ZM248.739 155.931L247.595 153.627L248.611 153.523L249.795 155.931H248.739ZM246.987 152.843H247.987C248.201 152.843 248.369 152.805 248.491 152.727C248.614 152.65 248.701 152.55 248.751 152.427C248.802 152.305 248.827 152.174 248.827 152.035C248.827 151.91 248.803 151.786 248.755 151.663C248.707 151.538 248.622 151.434 248.499 151.351C248.379 151.269 248.209 151.227 247.987 151.227H246.987V152.843ZM252.341 155.931V150.331H253.293V155.931H252.341ZM251.173 155.931V155.091H254.469V155.931H251.173ZM251.173 151.171V150.331H254.469V151.171H251.173ZM255.471 155.931L257.303 150.331H258.199L260.031 155.931H259.007L257.887 152.171C257.873 152.129 257.857 152.071 257.839 151.999C257.823 151.927 257.807 151.851 257.791 151.771C257.775 151.691 257.761 151.617 257.751 151.547C257.737 151.617 257.723 151.691 257.707 151.771C257.691 151.851 257.675 151.927 257.659 151.999C257.643 152.071 257.628 152.129 257.615 152.171L256.495 155.931H255.471ZM256.655 154.699L256.911 153.835H258.591L258.847 154.699H256.655ZM260.824 155.931V150.331H261.776V155.019H264.36V155.931H260.824ZM267.674 156.027C267.37 156.027 267.085 155.969 266.818 155.851C266.554 155.731 266.323 155.563 266.126 155.347C265.929 155.131 265.781 154.878 265.682 154.587L266.546 154.267C266.666 154.523 266.834 154.731 267.05 154.891C267.269 155.051 267.503 155.131 267.754 155.131C267.994 155.131 268.19 155.07 268.342 154.947C268.494 154.825 268.57 154.646 268.57 154.411C268.57 154.259 268.517 154.125 268.41 154.007C268.303 153.887 268.162 153.778 267.986 153.679C267.813 153.581 267.623 153.486 267.418 153.395C267.239 153.318 267.059 153.231 266.878 153.135C266.699 153.039 266.534 152.926 266.382 152.795C266.233 152.665 266.111 152.511 266.018 152.335C265.927 152.159 265.882 151.953 265.882 151.715C265.882 151.446 265.953 151.199 266.094 150.975C266.235 150.751 266.435 150.573 266.694 150.439C266.953 150.303 267.258 150.235 267.61 150.235C268.031 150.235 268.393 150.349 268.694 150.575C268.998 150.802 269.199 151.086 269.298 151.427L268.442 151.715C268.362 151.55 268.247 151.411 268.098 151.299C267.949 151.187 267.767 151.131 267.554 151.131C267.354 151.131 267.185 151.182 267.046 151.283C266.91 151.385 266.842 151.523 266.842 151.699C266.842 151.822 266.881 151.929 266.958 152.019C267.038 152.11 267.154 152.198 267.306 152.283C267.461 152.369 267.65 152.465 267.874 152.571C268.055 152.657 268.242 152.753 268.434 152.859C268.626 152.963 268.805 153.085 268.97 153.223C269.138 153.362 269.273 153.525 269.374 153.711C269.478 153.898 269.53 154.115 269.53 154.363C269.53 154.718 269.443 155.019 269.27 155.267C269.099 155.515 268.873 155.705 268.59 155.835C268.31 155.963 268.005 156.027 267.674 156.027Z" fill="#333333"/>
<path d="M229.648 178.724V175.724H231.148V174.224H232.648V172.724H235.648V171.224H237.148V169.724H232.648V171.224H229.648V169.724H231.148V168.224H238.648V169.724H240.148V172.724H238.648V174.224H237.148V175.724H234.148V177.224H240.148V178.724H229.648ZM243.148 178.724V177.224H246.148V171.224H244.648V169.724H246.148V168.224H249.148V177.224H252.148V178.724H243.148ZM256.648 169.724H255.148V168.224H258.148V171.224H256.648V169.724ZM264.148 168.224V169.724H262.648V168.224H264.148ZM256.648 172.724H253.648V169.724H255.148V171.224H256.648V172.724ZM261.148 169.724H262.648V171.224H261.148V169.724ZM259.648 171.224H261.148V172.724H259.648V171.224ZM258.148 172.724H259.648V174.224H258.148V172.724ZM256.648 174.224H258.148V175.724H256.648V174.224ZM261.148 174.224H264.148V177.224H262.648V175.724H261.148V174.224ZM255.148 175.724H256.648V177.224H255.148V175.724ZM261.148 177.224H262.648V178.724H259.648V175.724H261.148V177.224ZM253.648 177.224H255.148V178.724H253.648V177.224Z" fill="#333333"/>
<path d="M188.85 309.7C211.411 309.7 229.7 291.411 229.7 268.85C229.7 246.289 211.411 228 188.85 228C166.289 228 148 246.289 148 268.85C148 291.411 166.289 309.7 188.85 309.7Z" fill="url(#paint2_radial_967_20916)"/>
<path d="M172.491 260.107C172.112 260.107 171.783 260.027 171.503 259.867C171.226 259.705 170.996 259.486 170.815 259.211C170.636 258.934 170.503 258.623 170.415 258.279C170.327 257.933 170.283 257.577 170.283 257.211C170.283 256.862 170.328 256.517 170.419 256.175C170.51 255.831 170.647 255.519 170.831 255.239C171.015 254.959 171.244 254.735 171.519 254.567C171.796 254.399 172.12 254.315 172.491 254.315C172.808 254.315 173.075 254.37 173.291 254.479C173.51 254.586 173.692 254.726 173.839 254.899C173.986 255.07 174.112 255.251 174.219 255.443L173.379 255.923C173.28 255.734 173.16 255.57 173.019 255.431C172.88 255.29 172.704 255.219 172.491 255.219C172.267 255.219 172.078 255.281 171.923 255.403C171.768 255.523 171.643 255.683 171.547 255.883C171.451 256.081 171.382 256.297 171.339 256.531C171.296 256.763 171.275 256.99 171.275 257.211C171.275 257.465 171.299 257.71 171.347 257.947C171.398 258.185 171.472 258.398 171.571 258.587C171.67 258.777 171.795 258.927 171.947 259.039C172.102 259.149 172.283 259.203 172.491 259.203C172.787 259.203 173.008 259.105 173.155 258.907C173.304 258.707 173.379 258.459 173.379 258.163V258.043H172.403V257.147H174.355V257.923C174.355 258.395 174.272 258.794 174.107 259.119C173.944 259.445 173.722 259.691 173.439 259.859C173.159 260.025 172.843 260.107 172.491 260.107ZM175.053 260.011L176.885 254.411H177.781L179.613 260.011H178.589L177.469 256.251C177.455 256.209 177.439 256.151 177.421 256.079C177.405 256.007 177.389 255.931 177.373 255.851C177.357 255.771 177.343 255.697 177.333 255.627C177.319 255.697 177.305 255.771 177.289 255.851C177.273 255.931 177.257 256.007 177.241 256.079C177.225 256.151 177.21 256.209 177.197 256.251L176.077 260.011H175.053ZM176.237 258.779L176.493 257.915H178.173L178.429 258.779H176.237ZM180.406 260.011V254.411H181.334L182.142 257.483C182.164 257.563 182.189 257.658 182.218 257.767C182.248 257.874 182.268 257.963 182.278 258.035C182.292 257.963 182.312 257.874 182.338 257.767C182.368 257.658 182.393 257.563 182.414 257.483L183.246 254.411H184.118V260.011H183.294V256.971C183.294 256.91 183.294 256.831 183.294 256.735C183.297 256.639 183.302 256.563 183.31 256.507C183.286 256.574 183.26 256.649 183.23 256.731C183.204 256.814 183.18 256.894 183.158 256.971L182.302 260.011H182.222L181.366 256.971C181.345 256.894 181.32 256.814 181.29 256.731C181.264 256.646 181.238 256.571 181.214 256.507C181.22 256.563 181.224 256.639 181.226 256.735C181.229 256.831 181.23 256.91 181.23 256.971V260.011H180.406ZM185.336 260.011V254.411H188.928V255.315H186.288V256.667H188.008V257.571H186.288V259.107H189.096V260.011H185.336ZM190.266 260.011V254.411H192.242C192.706 254.411 193.074 254.497 193.346 254.667C193.62 254.838 193.816 255.057 193.934 255.323C194.054 255.587 194.114 255.862 194.114 256.147C194.114 256.347 194.079 256.55 194.01 256.755C193.94 256.958 193.831 257.145 193.682 257.315C193.532 257.486 193.339 257.623 193.102 257.727C192.864 257.831 192.578 257.883 192.242 257.883H191.218V260.011H190.266ZM191.218 256.987H192.29C192.498 256.987 192.664 256.946 192.79 256.863C192.915 256.778 193.006 256.671 193.062 256.543C193.118 256.413 193.146 256.281 193.146 256.147C193.146 256.027 193.12 255.903 193.07 255.775C193.019 255.645 192.931 255.534 192.806 255.443C192.683 255.353 192.511 255.307 192.29 255.307H191.218V256.987ZM195.195 260.011V254.411H196.147V259.099H198.731V260.011H195.195ZM199.701 260.011L201.533 254.411H202.429L204.261 260.011H203.237L202.117 256.251C202.104 256.209 202.088 256.151 202.069 256.079C202.053 256.007 202.037 255.931 202.021 255.851C202.005 255.771 201.992 255.697 201.981 255.627C201.968 255.697 201.953 255.771 201.937 255.851C201.921 255.931 201.905 256.007 201.889 256.079C201.873 256.151 201.858 256.209 201.845 256.251L200.725 260.011H199.701ZM200.885 258.779L201.141 257.915H202.821L203.077 258.779H200.885ZM206.439 260.011V257.819L204.791 254.411H205.847L207.103 257.227H206.719L207.983 254.411H209.031L207.383 257.819V260.011H206.439Z" fill="#333333"/>
<path d="M173.161 282.804V281.304H176.161V275.304H174.661V273.804H176.161V272.304H179.161V281.304H182.161V282.804H173.161ZM186.661 282.804V278.304H188.161V276.804H189.661V275.304H191.161V273.804H186.661V275.304H183.661V272.304H194.161V275.304H192.661V276.804H191.161V278.304H189.661V282.804H186.661ZM198.661 273.804H197.161V272.304H200.161V275.304H198.661V273.804ZM206.161 272.304V273.804H204.661V272.304H206.161ZM198.661 276.804H195.661V273.804H197.161V275.304H198.661V276.804ZM203.161 273.804H204.661V275.304H203.161V273.804ZM201.661 275.304H203.161V276.804H201.661V275.304ZM200.161 276.804H201.661V278.304H200.161V276.804ZM198.661 278.304H200.161V279.804H198.661V278.304ZM203.161 278.304H206.161V281.304H204.661V279.804H203.161V278.304ZM197.161 279.804H198.661V281.304H197.161V279.804ZM203.161 281.304H204.661V282.804H201.661V279.804H203.161V281.304ZM195.661 281.304H197.161V282.804H195.661V281.304Z" fill="#333333"/>
<path d="M190.09 115.18C216.649 115.18 238.18 93.6495 238.18 67.0901C238.18 40.5307 216.649 19.0001 190.09 19.0001C163.531 19.0001 142 40.5307 142 67.0901C142 93.6495 163.531 115.18 190.09 115.18Z" fill="url(#paint3_radial_967_20916)"/>
<path d="M174.711 46.1477V40.5477H175.663V45.2357H178.247V46.1477H174.711ZM179.217 46.1477L181.049 40.5477H181.945L183.777 46.1477H182.753L181.633 42.3877C181.619 42.345 181.603 42.2877 181.585 42.2157C181.569 42.1437 181.553 42.0677 181.537 41.9877C181.521 41.9077 181.507 41.833 181.497 41.7637C181.483 41.833 181.469 41.9077 181.453 41.9877C181.437 42.0677 181.421 42.1437 181.405 42.2157C181.389 42.2877 181.374 42.345 181.361 42.3877L180.241 46.1477H179.217ZM180.401 44.9157L180.657 44.0517H182.337L182.593 44.9157H180.401ZM186.426 46.2437C186.09 46.2437 185.778 46.173 185.49 46.0317C185.205 45.8904 184.974 45.657 184.798 45.3317C184.625 45.0064 184.538 44.5664 184.538 44.0117V40.5477H185.482V44.0117C185.482 44.3557 185.522 44.6237 185.602 44.8157C185.685 45.0077 185.797 45.1437 185.938 45.2237C186.082 45.301 186.245 45.3397 186.426 45.3397C186.605 45.3397 186.765 45.301 186.906 45.2237C187.05 45.1437 187.164 45.0077 187.246 44.8157C187.329 44.6237 187.37 44.3557 187.37 44.0117V40.5477H188.322V44.0117C188.322 44.5584 188.236 44.9957 188.062 45.3237C187.889 45.649 187.658 45.8837 187.37 46.0277C187.082 46.1717 186.768 46.2437 186.426 46.2437ZM189.5 46.1477V40.5477H190.404L192.148 44.0037C192.172 44.0464 192.205 44.1077 192.248 44.1877C192.291 44.2677 192.324 44.3344 192.348 44.3877C192.345 44.3184 192.341 44.249 192.336 44.1797C192.333 44.1104 192.332 44.0517 192.332 44.0037V40.5477H193.212V46.1477H192.348L190.572 42.6757C190.548 42.6304 190.515 42.5677 190.472 42.4877C190.429 42.4077 190.393 42.3424 190.364 42.2917C190.377 42.3504 190.384 42.4157 190.384 42.4877C190.387 42.5597 190.388 42.6224 190.388 42.6757V46.1477H189.5ZM196.382 46.2357C195.976 46.2357 195.632 46.153 195.35 45.9877C195.067 45.8197 194.839 45.597 194.666 45.3197C194.492 45.0397 194.366 44.729 194.286 44.3877C194.206 44.0437 194.166 43.697 194.166 43.3477C194.166 43.0117 194.206 42.6744 194.286 42.3357C194.368 41.9944 194.498 41.6824 194.674 41.3997C194.85 41.117 195.078 40.8904 195.358 40.7197C195.64 40.5464 195.982 40.4597 196.382 40.4597C196.696 40.4597 196.968 40.517 197.198 40.6317C197.43 40.7437 197.622 40.889 197.774 41.0677C197.926 41.2464 198.04 41.433 198.118 41.6277L197.27 42.0357C197.163 41.8277 197.042 41.6637 196.906 41.5437C196.772 41.4237 196.598 41.3637 196.382 41.3637C196.155 41.3637 195.963 41.4237 195.806 41.5437C195.648 41.6637 195.52 41.8224 195.422 42.0197C195.326 42.217 195.256 42.4317 195.214 42.6637C195.171 42.8957 195.15 43.1237 195.15 43.3477C195.15 43.585 195.174 43.821 195.222 44.0557C195.272 44.2904 195.347 44.5037 195.446 44.6957C195.547 44.8877 195.675 45.0424 195.83 45.1597C195.987 45.2744 196.171 45.3317 196.382 45.3317C196.598 45.3317 196.776 45.265 196.918 45.1317C197.059 44.9957 197.179 44.8224 197.278 44.6117L198.142 44.9397C198.04 45.1877 197.91 45.4104 197.75 45.6077C197.592 45.8024 197.4 45.9557 197.174 46.0677C196.947 46.1797 196.683 46.2357 196.382 46.2357ZM199.359 46.1477V40.5477H200.311V42.8117H202.119V40.5477H203.071V46.1477H202.119V43.7077H200.311V46.1477H199.359Z" fill="#333333"/>
<path d="M177.442 59.6111C177.066 59.6111 176.743 59.5325 176.474 59.3751C176.207 59.2151 175.988 58.9991 175.818 58.7271C175.647 58.4551 175.522 58.1458 175.442 57.7991C175.362 57.4525 175.322 57.0911 175.322 56.7151C175.322 56.3391 175.362 55.9778 175.442 55.6311C175.522 55.2845 175.647 54.9751 175.818 54.7031C175.988 54.4311 176.207 54.2165 176.474 54.0591C176.743 53.8991 177.066 53.8191 177.442 53.8191C177.818 53.8191 178.14 53.8991 178.41 54.0591C178.679 54.2165 178.899 54.4311 179.07 54.7031C179.24 54.9751 179.366 55.2845 179.446 55.6311C179.528 55.9778 179.57 56.3391 179.57 56.7151C179.57 57.0911 179.528 57.4525 179.446 57.7991C179.366 58.1458 179.24 58.4551 179.07 58.7271C178.899 58.9991 178.679 59.2151 178.41 59.3751C178.14 59.5325 177.818 59.6111 177.442 59.6111ZM177.442 58.7071C177.639 58.7071 177.81 58.6511 177.954 58.5391C178.098 58.4271 178.215 58.2765 178.306 58.0871C178.399 57.8978 178.467 57.6845 178.51 57.4471C178.555 57.2098 178.578 56.9658 178.578 56.7151C178.578 56.4485 178.555 56.1965 178.51 55.9591C178.467 55.7191 178.4 55.5071 178.31 55.3231C178.219 55.1365 178.102 54.9898 177.958 54.8831C177.814 54.7765 177.642 54.7231 177.442 54.7231C177.242 54.7231 177.07 54.7791 176.926 54.8911C176.782 55.0005 176.664 55.1498 176.574 55.3391C176.483 55.5285 176.415 55.7418 176.37 55.9791C176.327 56.2165 176.306 56.4618 176.306 56.7151C176.306 56.9791 176.327 57.2311 176.37 57.4711C176.415 57.7085 176.483 57.9205 176.574 58.1071C176.664 58.2938 176.782 58.4405 176.926 58.5471C177.07 58.6538 177.242 58.7071 177.442 58.7071ZM180.515 59.5151V53.9151H184.291V54.8191H181.467V56.1711H183.523V57.0751H181.467V59.5151H180.515ZM190.375 59.5151V53.9151H191.279L193.023 57.3711C193.047 57.4138 193.08 57.4751 193.123 57.5551C193.165 57.6351 193.199 57.7018 193.223 57.7551C193.22 57.6858 193.216 57.6165 193.211 57.5471C193.208 57.4778 193.207 57.4191 193.207 57.3711V53.9151H194.087V59.5151H193.223L191.447 56.0431C191.423 55.9978 191.389 55.9351 191.347 55.8551C191.304 55.7751 191.268 55.7098 191.239 55.6591C191.252 55.7178 191.259 55.7831 191.259 55.8551C191.261 55.9271 191.263 55.9898 191.263 56.0431V59.5151H190.375ZM195.304 59.5151V53.9151H198.896V54.8191H196.256V56.1711H197.976V57.0751H196.256V58.6111H199.064V59.5151H195.304ZM200.554 59.5151L199.73 53.9151H200.586L201.026 57.2511C201.031 57.2911 201.041 57.3551 201.054 57.4431C201.067 57.5285 201.077 57.5951 201.082 57.6431C201.09 57.5951 201.102 57.5311 201.118 57.4511C201.137 57.3685 201.151 57.2991 201.162 57.2431L201.834 53.9151H202.346L203.026 57.2271C203.042 57.3018 203.057 57.3711 203.07 57.4351C203.083 57.4965 203.095 57.5578 203.106 57.6191C203.119 57.5418 203.13 57.4751 203.138 57.4191C203.146 57.3605 203.154 57.2991 203.162 57.2351L203.53 53.9151H204.45L203.618 59.5151H202.866L202.154 56.0911C202.138 56.0138 202.123 55.9431 202.11 55.8791C202.099 55.8125 202.09 55.7471 202.082 55.6831C202.074 55.7471 202.063 55.8111 202.05 55.8751C202.039 55.9365 202.026 56.0058 202.01 56.0831L201.306 59.5151H200.554Z" fill="#333333"/>
<path d="M180.178 72.9786C179.8 72.9786 179.47 72.8986 179.19 72.7386C178.913 72.5759 178.684 72.3572 178.502 72.0826C178.324 71.8052 178.19 71.4946 178.102 71.1506C178.014 70.8039 177.97 70.4479 177.97 70.0826C177.97 69.7332 178.016 69.3879 178.106 69.0466C178.197 68.7026 178.334 68.3906 178.518 68.1106C178.702 67.8306 178.932 67.6066 179.206 67.4386C179.484 67.2706 179.808 67.1866 180.178 67.1866C180.496 67.1866 180.762 67.2412 180.978 67.3506C181.197 67.4572 181.38 67.5972 181.526 67.7706C181.673 67.9412 181.8 68.1226 181.906 68.3146L181.066 68.7946C180.968 68.6052 180.848 68.4412 180.706 68.3026C180.568 68.1612 180.392 68.0906 180.178 68.0906C179.954 68.0906 179.765 68.1519 179.61 68.2746C179.456 68.3946 179.33 68.5546 179.234 68.7546C179.138 68.9519 179.069 69.1679 179.026 69.4026C178.984 69.6346 178.962 69.8612 178.962 70.0826C178.962 70.3359 178.986 70.5812 179.034 70.8186C179.085 71.0559 179.16 71.2692 179.258 71.4586C179.357 71.6479 179.482 71.7986 179.634 71.9106C179.789 72.0199 179.97 72.0746 180.178 72.0746C180.474 72.0746 180.696 71.9759 180.842 71.7786C180.992 71.5786 181.066 71.3306 181.066 71.0346V70.9146H180.09V70.0186H182.042V70.7946C182.042 71.2666 181.96 71.6652 181.794 71.9906C181.632 72.3159 181.409 72.5626 181.126 72.7306C180.846 72.8959 180.53 72.9786 180.178 72.9786ZM182.74 72.8826L184.572 67.2826H185.468L187.3 72.8826H186.276L185.156 69.1226C185.143 69.0799 185.127 69.0226 185.108 68.9506C185.092 68.8786 185.076 68.8026 185.06 68.7226C185.044 68.6426 185.031 68.5679 185.02 68.4986C185.007 68.5679 184.992 68.6426 184.976 68.7226C184.96 68.8026 184.944 68.8786 184.928 68.9506C184.912 69.0226 184.897 69.0799 184.884 69.1226L183.764 72.8826H182.74ZM183.924 71.6506L184.18 70.7866H185.86L186.116 71.6506H183.924ZM188.094 72.8826V67.2826H189.022L189.83 70.3546C189.851 70.4346 189.877 70.5292 189.906 70.6386C189.935 70.7452 189.955 70.8346 189.966 70.9066C189.979 70.8346 189.999 70.7452 190.026 70.6386C190.055 70.5292 190.081 70.4346 190.102 70.3546L190.934 67.2826H191.806V72.8826H190.982V69.8426C190.982 69.7812 190.982 69.7026 190.982 69.6066C190.985 69.5106 190.99 69.4346 190.998 69.3786C190.974 69.4452 190.947 69.5199 190.918 69.6026C190.891 69.6852 190.867 69.7652 190.846 69.8426L189.99 72.8826H189.91L189.054 69.8426C189.033 69.7652 189.007 69.6852 188.978 69.6026C188.951 69.5172 188.926 69.4426 188.902 69.3786C188.907 69.4346 188.911 69.5106 188.914 69.6066C188.917 69.7026 188.918 69.7812 188.918 69.8426V72.8826H188.094ZM193.024 72.8826V67.2826H196.616V68.1866H193.976V69.5386H195.696V70.4426H193.976V71.9786H196.784V72.8826H193.024ZM199.873 72.9786C199.569 72.9786 199.284 72.9199 199.017 72.8026C198.753 72.6826 198.523 72.5146 198.325 72.2986C198.128 72.0826 197.98 71.8292 197.881 71.5386L198.745 71.2186C198.865 71.4746 199.033 71.6826 199.249 71.8426C199.468 72.0026 199.703 72.0826 199.953 72.0826C200.193 72.0826 200.389 72.0212 200.541 71.8986C200.693 71.7759 200.769 71.5972 200.769 71.3626C200.769 71.2106 200.716 71.0759 200.609 70.9586C200.503 70.8386 200.361 70.7292 200.185 70.6306C200.012 70.5319 199.823 70.4372 199.617 70.3466C199.439 70.2692 199.259 70.1826 199.077 70.0866C198.899 69.9906 198.733 69.8772 198.581 69.7466C198.432 69.6159 198.311 69.4626 198.217 69.2866C198.127 69.1106 198.081 68.9039 198.081 68.6666C198.081 68.3972 198.152 68.1506 198.293 67.9266C198.435 67.7026 198.635 67.5239 198.893 67.3906C199.152 67.2546 199.457 67.1866 199.809 67.1866C200.231 67.1866 200.592 67.2999 200.893 67.5266C201.197 67.7532 201.399 68.0372 201.497 68.3786L200.641 68.6666C200.561 68.5012 200.447 68.3626 200.297 68.2506C200.148 68.1386 199.967 68.0826 199.753 68.0826C199.553 68.0826 199.384 68.1332 199.245 68.2346C199.109 68.3359 199.041 68.4746 199.041 68.6506C199.041 68.7732 199.08 68.8799 199.157 68.9706C199.237 69.0612 199.353 69.1492 199.505 69.2346C199.66 69.3199 199.849 69.4159 200.073 69.5226C200.255 69.6079 200.441 69.7039 200.633 69.8106C200.825 69.9146 201.004 70.0359 201.169 70.1746C201.337 70.3132 201.472 70.4759 201.573 70.6626C201.677 70.8492 201.729 71.0666 201.729 71.3146C201.729 71.6692 201.643 71.9706 201.469 72.2186C201.299 72.4666 201.072 72.6559 200.789 72.7866C200.509 72.9146 200.204 72.9786 199.873 72.9786Z" fill="#333333"/>
<path d="M171.579 93.6091V90.6091H173.079V89.1091H174.579V87.6091H177.579V86.1091H179.079V84.6091H174.579V86.1091H171.579V84.6091H173.079V83.1091H180.579V84.6091H182.079V87.6091H180.579V89.1091H179.079V90.6091H176.079V92.1091H182.079V93.6091H171.579ZM189.579 93.6091V90.6091H183.579V87.6091H185.079V86.1091H186.579V84.6091H188.079V83.1091H192.579V89.1091H194.079V90.6091H192.579V93.6091H189.579ZM186.579 89.1091H189.579V86.1091H188.079V87.6091H186.579V89.1091ZM198.579 84.6091H197.079V83.1091H200.079V86.1091H198.579V84.6091ZM206.079 83.1091V84.6091H204.579V83.1091H206.079ZM198.579 87.6091H195.579V84.6091H197.079V86.1091H198.579V87.6091ZM203.079 84.6091H204.579V86.1091H203.079V84.6091ZM201.579 86.1091H203.079V87.6091H201.579V86.1091ZM200.079 87.6091H201.579V89.1091H200.079V87.6091ZM198.579 89.1091H200.079V90.6091H198.579V89.1091ZM203.079 89.1091H206.079V92.1091H204.579V90.6091H203.079V89.1091ZM197.079 90.6091H198.579V92.1091H197.079V90.6091ZM203.079 92.1091H204.579V93.6091H201.579V90.6091H203.079V92.1091ZM195.579 92.1091H197.079V93.6091H195.579V92.1091Z" fill="#333333"/>
<path d="M83.33 103.66C111.679 103.66 134.66 80.6787 134.66 52.33C134.66 23.9812 111.679 1 83.33 1C54.9812 1 32 23.9812 32 52.33C32 80.6787 54.9812 103.66 83.33 103.66Z" fill="url(#paint4_radial_967_20916)"/>
<path d="M75.5977 45.6967V40.0967H76.5017L78.2457 43.5527C78.2697 43.5953 78.3031 43.6567 78.3457 43.7367C78.3884 43.8167 78.4217 43.8833 78.4457 43.9367C78.4431 43.8673 78.4391 43.798 78.4337 43.7287C78.4311 43.6593 78.4297 43.6007 78.4297 43.5527V40.0967H79.3097V45.6967H78.4457L76.6697 42.2247C76.6457 42.1793 76.6124 42.1167 76.5697 42.0367C76.5271 41.9567 76.4911 41.8913 76.4617 41.8407C76.4751 41.8993 76.4817 41.9647 76.4817 42.0367C76.4844 42.1087 76.4857 42.1713 76.4857 42.2247V45.6967H75.5977ZM80.5274 45.6967V40.0967H84.1194V41.0007H81.4794V42.3527H83.1994V43.2567H81.4794V44.7927H84.2874V45.6967H80.5274ZM85.7771 45.6967L84.9531 40.0967H85.8091L86.2491 43.4327C86.2545 43.4727 86.2638 43.5367 86.2771 43.6247C86.2905 43.71 86.2998 43.7767 86.3051 43.8247C86.3131 43.7767 86.3251 43.7127 86.3411 43.6327C86.3598 43.55 86.3745 43.4807 86.3851 43.4247L87.0571 40.0967H87.5691L88.2491 43.4087C88.2651 43.4833 88.2798 43.5527 88.2931 43.6167C88.3065 43.678 88.3185 43.7393 88.3291 43.8007C88.3425 43.7233 88.3531 43.6567 88.3611 43.6007C88.3691 43.542 88.3771 43.4807 88.3851 43.4167L88.7531 40.0967H89.6731L88.8411 45.6967H88.0891L87.3771 42.2727C87.3611 42.1953 87.3465 42.1247 87.3331 42.0607C87.3225 41.994 87.3131 41.9287 87.3051 41.8647C87.2971 41.9287 87.2865 41.9927 87.2731 42.0567C87.2625 42.118 87.2491 42.1873 87.2331 42.2647L86.5291 45.6967H85.7771ZM92.3068 45.7927C92.0028 45.7927 91.7175 45.734 91.4508 45.6167C91.1868 45.4967 90.9561 45.3287 90.7588 45.1127C90.5615 44.8967 90.4135 44.6433 90.3148 44.3527L91.1788 44.0327C91.2988 44.2887 91.4668 44.4967 91.6828 44.6567C91.9015 44.8167 92.1361 44.8967 92.3868 44.8967C92.6268 44.8967 92.8228 44.8353 92.9748 44.7127C93.1268 44.59 93.2028 44.4113 93.2028 44.1767C93.2028 44.0247 93.1495 43.89 93.0428 43.7727C92.9361 43.6527 92.7948 43.5433 92.6188 43.4447C92.4455 43.346 92.2561 43.2513 92.0508 43.1607C91.8721 43.0833 91.6921 42.9967 91.5108 42.9007C91.3321 42.8047 91.1668 42.6913 91.0148 42.5607C90.8655 42.43 90.7441 42.2767 90.6508 42.1007C90.5601 41.9247 90.5148 41.718 90.5148 41.4807C90.5148 41.2113 90.5855 40.9647 90.7268 40.7407C90.8681 40.5167 91.0681 40.338 91.3268 40.2047C91.5855 40.0687 91.8908 40.0007 92.2428 40.0007C92.6641 40.0007 93.0255 40.114 93.3268 40.3407C93.6308 40.5673 93.8321 40.8513 93.9308 41.1927L93.0748 41.4807C92.9948 41.3153 92.8801 41.1767 92.7308 41.0647C92.5815 40.9527 92.4001 40.8967 92.1868 40.8967C91.9868 40.8967 91.8175 40.9473 91.6788 41.0487C91.5428 41.15 91.4748 41.2887 91.4748 41.4647C91.4748 41.5873 91.5135 41.694 91.5908 41.7847C91.6708 41.8753 91.7868 41.9633 91.9388 42.0487C92.0935 42.134 92.2828 42.23 92.5068 42.3367C92.6881 42.422 92.8748 42.518 93.0668 42.6247C93.2588 42.7287 93.4375 42.85 93.6028 42.9887C93.7708 43.1273 93.9055 43.29 94.0068 43.4767C94.1108 43.6633 94.1628 43.8807 94.1628 44.1287C94.1628 44.4833 94.0761 44.7847 93.9028 45.0327C93.7321 45.2807 93.5055 45.47 93.2228 45.6007C92.9428 45.7287 92.6375 45.7927 92.3068 45.7927Z" fill="#333333"/>
<path d="M67.2798 68.489V65.489H68.7798V63.989H70.2798V62.489H73.2798V60.989H74.7798V59.489H70.2798V60.989H67.2798V59.489H68.7798V57.989H76.2798V59.489H77.7798V62.489H76.2798V63.989H74.7798V65.489H71.7798V66.989H77.7798V68.489H67.2798ZM80.7798 68.489V66.989H79.2798V63.989H80.7798V62.489H79.2798V59.489H80.7798V57.989H86.7798V59.489H88.2798V62.489H86.7798V63.989H89.7798V66.989H88.2798V68.489H80.7798ZM83.7798 62.489H86.7798V59.489H82.2798V60.989H83.7798V62.489ZM80.7798 66.989H86.7798V65.489H83.7798V63.989H80.7798V66.989ZM94.2798 59.489H92.7798V57.989H95.7798V60.989H94.2798V59.489ZM101.78 57.989V59.489H100.28V57.989H101.78ZM94.2798 62.489H91.2798V59.489H92.7798V60.989H94.2798V62.489ZM98.7798 59.489H100.28V60.989H98.7798V59.489ZM97.2798 60.989H98.7798V62.489H97.2798V60.989ZM95.7798 62.489H97.2798V63.989H95.7798V62.489ZM94.2798 63.989H95.7798V65.489H94.2798V63.989ZM98.7798 63.989H101.78V66.989H100.28V65.489H98.7798V63.989ZM92.7798 65.489H94.2798V66.989H92.7798V65.489ZM98.7798 66.989H100.28V68.489H97.2798V65.489H98.7798V66.989ZM91.2798 66.989H92.7798V68.489H91.2798V66.989Z" fill="#333333"/>
<path d="M83.27 320.54C108.272 320.54 128.54 300.272 128.54 275.27C128.54 250.268 108.272 230 83.27 230C58.2681 230 38 250.268 38 275.27C38 300.272 58.2681 320.54 83.27 320.54Z" fill="url(#paint5_radial_967_20916)"/>
<path d="M53.831 268.706C53.4257 268.706 53.0817 268.623 52.799 268.458C52.5163 268.29 52.2883 268.067 52.115 267.79C51.9417 267.51 51.815 267.199 51.735 266.858C51.655 266.514 51.615 266.167 51.615 265.818C51.615 265.482 51.655 265.144 51.735 264.806C51.8177 264.464 51.947 264.152 52.123 263.87C52.299 263.587 52.527 263.36 52.807 263.19C53.0897 263.016 53.431 262.93 53.831 262.93C54.1457 262.93 54.4177 262.987 54.647 263.102C54.879 263.214 55.071 263.359 55.223 263.538C55.375 263.716 55.4897 263.903 55.567 264.098L54.719 264.506C54.6123 264.298 54.491 264.134 54.355 264.014C54.2217 263.894 54.047 263.834 53.831 263.834C53.6043 263.834 53.4123 263.894 53.255 264.014C53.0977 264.134 52.9697 264.292 52.871 264.49C52.775 264.687 52.7057 264.902 52.663 265.134C52.6203 265.366 52.599 265.594 52.599 265.818C52.599 266.055 52.623 266.291 52.671 266.526C52.7217 266.76 52.7963 266.974 52.895 267.166C52.9963 267.358 53.1243 267.512 53.279 267.63C53.4363 267.744 53.6203 267.802 53.831 267.802C54.047 267.802 54.2257 267.735 54.367 267.602C54.5083 267.466 54.6283 267.292 54.727 267.082L55.591 267.41C55.4897 267.658 55.359 267.88 55.199 268.078C55.0417 268.272 54.8497 268.426 54.623 268.538C54.3963 268.65 54.1323 268.706 53.831 268.706ZM56.8087 268.618V263.018H57.7607V265.282H59.5687V263.018H60.5207V268.618H59.5687V266.178H57.7607V268.618H56.8087ZM61.3144 268.618L63.1464 263.018H64.0424L65.8744 268.618H64.8504L63.7304 264.858C63.717 264.815 63.701 264.758 63.6824 264.686C63.6664 264.614 63.6504 264.538 63.6344 264.458C63.6184 264.378 63.605 264.303 63.5944 264.234C63.581 264.303 63.5664 264.378 63.5504 264.458C63.5344 264.538 63.5184 264.614 63.5024 264.686C63.4864 264.758 63.4717 264.815 63.4584 264.858L62.3384 268.618H61.3144ZM62.4984 267.386L62.7544 266.522H64.4344L64.6904 267.386H62.4984ZM66.6681 268.618V263.018H67.5961L68.4041 266.09C68.4254 266.17 68.4507 266.264 68.4801 266.374C68.5094 266.48 68.5294 266.57 68.5401 266.642C68.5534 266.57 68.5734 266.48 68.6001 266.374C68.6294 266.264 68.6547 266.17 68.6761 266.09L69.5081 263.018H70.3801V268.618H69.5561V265.578C69.5561 265.516 69.5561 265.438 69.5561 265.342C69.5587 265.246 69.5641 265.17 69.5721 265.114C69.5481 265.18 69.5214 265.255 69.4921 265.338C69.4654 265.42 69.4414 265.5 69.4201 265.578L68.5641 268.618H68.4841L67.6281 265.578C67.6067 265.5 67.5814 265.42 67.5521 265.338C67.5254 265.252 67.5001 265.178 67.4761 265.114C67.4814 265.17 67.4854 265.246 67.4881 265.342C67.4907 265.438 67.4921 265.516 67.4921 265.578V268.618H66.6681ZM71.5977 268.618V263.018H73.5737C74.0377 263.018 74.4057 263.103 74.6777 263.274C74.9524 263.444 75.1484 263.663 75.2657 263.93C75.3857 264.194 75.4457 264.468 75.4457 264.754C75.4457 264.954 75.4111 265.156 75.3417 265.362C75.2724 265.564 75.1631 265.751 75.0137 265.922C74.8644 266.092 74.6711 266.23 74.4337 266.334C74.1964 266.438 73.9097 266.49 73.5737 266.49H72.5497V268.618H71.5977ZM72.5497 265.594H73.6217C73.8297 265.594 73.9964 265.552 74.1217 265.47C74.2471 265.384 74.3377 265.278 74.3937 265.15C74.4497 265.019 74.4777 264.887 74.4777 264.754C74.4777 264.634 74.4524 264.51 74.4017 264.382C74.3511 264.251 74.2631 264.14 74.1377 264.05C74.0151 263.959 73.8431 263.914 73.6217 263.914H72.5497V265.594ZM77.9034 268.618V263.018H78.8554V268.618H77.9034ZM76.7354 268.618V267.778H80.0314V268.618H76.7354ZM76.7354 263.858V263.018H80.0314V263.858H76.7354ZM83.3131 268.714C82.9371 268.714 82.6145 268.635 82.3451 268.478C82.0785 268.318 81.8598 268.102 81.6891 267.83C81.5185 267.558 81.3931 267.248 81.3131 266.902C81.2331 266.555 81.1931 266.194 81.1931 265.818C81.1931 265.442 81.2331 265.08 81.3131 264.734C81.3931 264.387 81.5185 264.078 81.6891 263.806C81.8598 263.534 82.0785 263.319 82.3451 263.162C82.6145 263.002 82.9371 262.922 83.3131 262.922C83.6891 262.922 84.0118 263.002 84.2811 263.162C84.5505 263.319 84.7705 263.534 84.9411 263.806C85.1118 264.078 85.2371 264.387 85.3171 264.734C85.3998 265.08 85.4411 265.442 85.4411 265.818C85.4411 266.194 85.3998 266.555 85.3171 266.902C85.2371 267.248 85.1118 267.558 84.9411 267.83C84.7705 268.102 84.5505 268.318 84.2811 268.478C84.0118 268.635 83.6891 268.714 83.3131 268.714ZM83.3131 267.81C83.5105 267.81 83.6811 267.754 83.8251 267.642C83.9691 267.53 84.0865 267.379 84.1771 267.19C84.2705 267 84.3385 266.787 84.3811 266.55C84.4265 266.312 84.4491 266.068 84.4491 265.818C84.4491 265.551 84.4265 265.299 84.3811 265.062C84.3385 264.822 84.2718 264.61 84.1811 264.426C84.0905 264.239 83.9731 264.092 83.8291 263.986C83.6851 263.879 83.5131 263.826 83.3131 263.826C83.1131 263.826 82.9411 263.882 82.7971 263.994C82.6531 264.103 82.5358 264.252 82.4451 264.442C82.3545 264.631 82.2865 264.844 82.2411 265.082C82.1985 265.319 82.1771 265.564 82.1771 265.818C82.1771 266.082 82.1985 266.334 82.2411 266.574C82.2865 266.811 82.3545 267.023 82.4451 267.21C82.5358 267.396 82.6531 267.543 82.7971 267.65C82.9411 267.756 83.1131 267.81 83.3131 267.81ZM86.3868 268.618V263.018H87.2908L89.0348 266.474C89.0588 266.516 89.0921 266.578 89.1348 266.658C89.1775 266.738 89.2108 266.804 89.2348 266.858C89.2321 266.788 89.2281 266.719 89.2228 266.65C89.2201 266.58 89.2188 266.522 89.2188 266.474V263.018H90.0988V268.618H89.2348L87.4588 265.146C87.4348 265.1 87.4015 265.038 87.3588 264.958C87.3161 264.878 87.2801 264.812 87.2508 264.762C87.2641 264.82 87.2708 264.886 87.2708 264.958C87.2735 265.03 87.2748 265.092 87.2748 265.146V268.618H86.3868ZM93.2365 268.714C92.9325 268.714 92.6472 268.655 92.3805 268.538C92.1165 268.418 91.8858 268.25 91.6885 268.034C91.4912 267.818 91.3432 267.564 91.2445 267.274L92.1085 266.954C92.2285 267.21 92.3965 267.418 92.6125 267.578C92.8312 267.738 93.0658 267.818 93.3165 267.818C93.5565 267.818 93.7525 267.756 93.9045 267.634C94.0565 267.511 94.1325 267.332 94.1325 267.098C94.1325 266.946 94.0792 266.811 93.9725 266.694C93.8658 266.574 93.7245 266.464 93.5485 266.366C93.3752 266.267 93.1858 266.172 92.9805 266.082C92.8018 266.004 92.6218 265.918 92.4405 265.822C92.2618 265.726 92.0965 265.612 91.9445 265.482C91.7952 265.351 91.6738 265.198 91.5805 265.022C91.4898 264.846 91.4445 264.639 91.4445 264.402C91.4445 264.132 91.5152 263.886 91.6565 263.662C91.7978 263.438 91.9978 263.259 92.2565 263.126C92.5152 262.99 92.8205 262.922 93.1725 262.922C93.5938 262.922 93.9552 263.035 94.2565 263.262C94.5605 263.488 94.7618 263.772 94.8605 264.114L94.0045 264.402C93.9245 264.236 93.8098 264.098 93.6605 263.986C93.5112 263.874 93.3298 263.818 93.1165 263.818C92.9165 263.818 92.7472 263.868 92.6085 263.97C92.4725 264.071 92.4045 264.21 92.4045 264.386C92.4045 264.508 92.4432 264.615 92.5205 264.706C92.6005 264.796 92.7165 264.884 92.8685 264.97C93.0232 265.055 93.2125 265.151 93.4365 265.258C93.6178 265.343 93.8045 265.439 93.9965 265.546C94.1885 265.65 94.3672 265.771 94.5325 265.91C94.7005 266.048 94.8352 266.211 94.9365 266.398C95.0405 266.584 95.0925 266.802 95.0925 267.05C95.0925 267.404 95.0058 267.706 94.8325 267.954C94.6618 268.202 94.4352 268.391 94.1525 268.522C93.8725 268.65 93.5672 268.714 93.2365 268.714ZM96.2462 268.618V263.018H97.1982V265.282H99.0062V263.018H99.9582V268.618H99.0062V266.178H97.1982V268.618H96.2462ZM102.552 268.618V263.018H103.504V268.618H102.552ZM101.384 268.618V267.778H104.68V268.618H101.384ZM101.384 263.858V263.018H104.68V263.858H101.384ZM106.106 268.618V263.018H108.082C108.546 263.018 108.914 263.103 109.186 263.274C109.46 263.444 109.656 263.663 109.774 263.93C109.894 264.194 109.954 264.468 109.954 264.754C109.954 264.954 109.919 265.156 109.85 265.362C109.78 265.564 109.671 265.751 109.522 265.922C109.372 266.092 109.179 266.23 108.942 266.334C108.704 266.438 108.418 266.49 108.082 266.49H107.058V268.618H106.106ZM107.058 265.594H108.13C108.338 265.594 108.504 265.552 108.63 265.47C108.755 265.384 108.846 265.278 108.902 265.15C108.958 265.019 108.986 264.887 108.986 264.754C108.986 264.634 108.96 264.51 108.91 264.382C108.859 264.251 108.771 264.14 108.646 264.05C108.523 263.959 108.351 263.914 108.13 263.914H107.058V265.594ZM112.955 268.714C112.651 268.714 112.366 268.655 112.099 268.538C111.835 268.418 111.605 268.25 111.407 268.034C111.21 267.818 111.062 267.564 110.963 267.274L111.827 266.954C111.947 267.21 112.115 267.418 112.331 267.578C112.55 267.738 112.785 267.818 113.035 267.818C113.275 267.818 113.471 267.756 113.623 267.634C113.775 267.511 113.851 267.332 113.851 267.098C113.851 266.946 113.798 266.811 113.691 266.694C113.585 266.574 113.443 266.464 113.267 266.366C113.094 266.267 112.905 266.172 112.699 266.082C112.521 266.004 112.341 265.918 112.159 265.822C111.981 265.726 111.815 265.612 111.663 265.482C111.514 265.351 111.393 265.198 111.299 265.022C111.209 264.846 111.163 264.639 111.163 264.402C111.163 264.132 111.234 263.886 111.375 263.662C111.517 263.438 111.717 263.259 111.975 263.126C112.234 262.99 112.539 262.922 112.891 262.922C113.313 262.922 113.674 263.035 113.975 263.262C114.279 263.488 114.481 263.772 114.579 264.114L113.723 264.402C113.643 264.236 113.529 264.098 113.379 263.986C113.23 263.874 113.049 263.818 112.835 263.818C112.635 263.818 112.466 263.868 112.327 263.97C112.191 264.071 112.123 264.21 112.123 264.386C112.123 264.508 112.162 264.615 112.239 264.706C112.319 264.796 112.435 264.884 112.587 264.97C112.742 265.055 112.931 265.151 113.155 265.258C113.337 265.343 113.523 265.439 113.715 265.546C113.907 265.65 114.086 265.771 114.251 265.91C114.419 266.048 114.554 266.211 114.655 266.398C114.759 266.584 114.811 266.802 114.811 267.05C114.811 267.404 114.725 267.706 114.551 267.954C114.381 268.202 114.154 268.391 113.871 268.522C113.591 268.65 113.286 268.714 112.955 268.714Z" fill="#404040"/>
<path d="M65.6421 285.973V282.973H67.1421V281.473H68.6421V279.973H71.6421V278.473H73.1421V276.973H68.6421V278.473H65.6421V276.973H67.1421V275.473H74.6421V276.973H76.1421V279.973H74.6421V281.473H73.1421V282.973H70.1421V284.473H76.1421V285.973H65.6421ZM79.1421 285.973V284.473H82.1421V278.473H80.6421V276.973H82.1421V275.473H85.1421V284.473H88.1421V285.973H79.1421ZM92.6421 276.973H91.1421V275.473H94.1421V278.473H92.6421V276.973ZM100.142 275.473V276.973H98.6421V275.473H100.142ZM92.6421 279.973H89.6421V276.973H91.1421V278.473H92.6421V279.973ZM97.1421 276.973H98.6421V278.473H97.1421V276.973ZM95.6421 278.473H97.1421V279.973H95.6421V278.473ZM94.1421 279.973H95.6421V281.473H94.1421V279.973ZM92.6421 281.473H94.1421V282.973H92.6421V281.473ZM97.1421 281.473H100.142V284.473H98.6421V282.973H97.1421V281.473ZM91.1421 282.973H92.6421V284.473H91.1421V282.973ZM97.1421 284.473H98.6421V285.973H95.6421V282.973H97.1421V284.473ZM89.6421 284.473H91.1421V285.973H89.6421V284.473Z" fill="#404040"/>
<path d="M291.48 98.96C311.075 98.96 326.96 83.0751 326.96 63.48C326.96 43.8849 311.075 28 291.48 28C271.885 28 256 43.8849 256 63.48C256 83.0751 271.885 98.96 291.48 98.96Z" fill="url(#paint6_radial_967_20916)"/>
<path d="M283.55 50.2697C283.171 50.2697 282.842 50.1897 282.562 50.0297C282.284 49.867 282.055 49.6484 281.874 49.3737C281.695 49.0964 281.562 48.7857 281.474 48.4417C281.386 48.095 281.342 47.739 281.342 47.3737C281.342 47.0244 281.387 46.679 281.478 46.3377C281.568 45.9937 281.706 45.6817 281.89 45.4017C282.074 45.1217 282.303 44.8977 282.578 44.7297C282.855 44.5617 283.179 44.4777 283.55 44.4777C283.867 44.4777 284.134 44.5324 284.35 44.6417C284.568 44.7484 284.751 44.8884 284.898 45.0617C285.044 45.2324 285.171 45.4137 285.278 45.6057L284.438 46.0857C284.339 45.8964 284.219 45.7324 284.078 45.5937C283.939 45.4524 283.763 45.3817 283.55 45.3817C283.326 45.3817 283.136 45.443 282.982 45.5657C282.827 45.6857 282.702 45.8457 282.606 46.0457C282.51 46.243 282.44 46.459 282.398 46.6937C282.355 46.9257 282.334 47.1524 282.334 47.3737C282.334 47.627 282.358 47.8724 282.406 48.1097C282.456 48.347 282.531 48.5604 282.63 48.7497C282.728 48.939 282.854 49.0897 283.006 49.2017C283.16 49.311 283.342 49.3657 283.55 49.3657C283.846 49.3657 284.067 49.267 284.214 49.0697C284.363 48.8697 284.438 48.6217 284.438 48.3257V48.2057H283.462V47.3097H285.414V48.0857C285.414 48.5577 285.331 48.9564 285.166 49.2817C285.003 49.607 284.78 49.8537 284.498 50.0217C284.218 50.187 283.902 50.2697 283.55 50.2697ZM286.111 50.1737L287.943 44.5737H288.839L290.671 50.1737H289.647L288.527 46.4137C288.514 46.371 288.498 46.3137 288.479 46.2417C288.463 46.1697 288.447 46.0937 288.431 46.0137C288.415 45.9337 288.402 45.859 288.391 45.7897C288.378 45.859 288.363 45.9337 288.347 46.0137C288.331 46.0937 288.315 46.1697 288.299 46.2417C288.283 46.3137 288.269 46.371 288.255 46.4137L287.135 50.1737H286.111ZM287.295 48.9417L287.551 48.0777H289.231L289.487 48.9417H287.295ZM291.465 50.1737V44.5737H292.393L293.201 47.6457C293.222 47.7257 293.248 47.8204 293.277 47.9297C293.306 48.0364 293.326 48.1257 293.337 48.1977C293.35 48.1257 293.37 48.0364 293.397 47.9297C293.426 47.8204 293.452 47.7257 293.473 47.6457L294.305 44.5737H295.177V50.1737H294.353V47.1337C294.353 47.0724 294.353 46.9937 294.353 46.8977C294.356 46.8017 294.361 46.7257 294.369 46.6697C294.345 46.7364 294.318 46.811 294.289 46.8937C294.262 46.9764 294.238 47.0564 294.217 47.1337L293.361 50.1737H293.281L292.425 47.1337C292.404 47.0564 292.378 46.9764 292.349 46.8937C292.322 46.8084 292.297 46.7337 292.273 46.6697C292.278 46.7257 292.282 46.8017 292.285 46.8977C292.288 46.9937 292.289 47.0724 292.289 47.1337V50.1737H291.465ZM296.395 50.1737V44.5737H299.987V45.4777H297.347V46.8297H299.067V47.7337H297.347V49.2697H300.155V50.1737H296.395Z" fill="#404040"/>
<path d="M274.981 65.5088V59.9088H276.917C277.378 59.9088 277.742 59.9888 278.009 60.1488C278.276 60.3088 278.465 60.5181 278.577 60.7768C278.692 61.0355 278.749 61.3115 278.749 61.6048C278.749 61.8128 278.714 62.0155 278.645 62.2128C278.576 62.4075 278.472 62.5848 278.333 62.7448C278.194 62.9021 278.02 63.0315 277.809 63.1328C277.601 63.2341 277.357 63.2955 277.077 63.3168H275.933V65.5088H274.981ZM277.685 65.5088L276.541 63.2048L277.557 63.1008L278.741 65.5088H277.685ZM275.933 62.4208H276.933C277.146 62.4208 277.314 62.3821 277.437 62.3048C277.56 62.2275 277.646 62.1275 277.697 62.0048C277.748 61.8821 277.773 61.7515 277.773 61.6128C277.773 61.4875 277.749 61.3635 277.701 61.2408C277.653 61.1155 277.568 61.0115 277.445 60.9288C277.325 60.8461 277.154 60.8048 276.933 60.8048H275.933V62.4208ZM279.911 65.5088V59.9088H283.503V60.8128H280.863V62.1648H282.583V63.0688H280.863V64.6048H283.671V65.5088H279.911ZM286.24 65.5088L284.416 59.9088H285.472L286.584 63.7248C286.606 63.7915 286.627 63.8755 286.648 63.9768C286.67 64.0781 286.686 64.1675 286.696 64.2448C286.71 64.1675 286.726 64.0795 286.744 63.9808C286.763 63.8821 286.782 63.7995 286.8 63.7328L287.928 59.9088H288.976L287.152 65.5088H286.24ZM291.146 65.5088V59.9088H292.098V65.5088H291.146ZM289.978 65.5088V64.6688H293.274V65.5088H289.978ZM289.978 60.7488V59.9088H293.274V60.7488H289.978ZM294.7 65.5088V59.9088H298.292V60.8128H295.652V62.1648H297.372V63.0688H295.652V64.6048H298.46V65.5088H294.7ZM299.949 65.5088L299.125 59.9088H299.981L300.421 63.2448C300.427 63.2848 300.436 63.3488 300.449 63.4368C300.463 63.5221 300.472 63.5888 300.477 63.6368C300.485 63.5888 300.497 63.5248 300.513 63.4448C300.532 63.3621 300.547 63.2928 300.557 63.2368L301.229 59.9088H301.741L302.421 63.2208C302.437 63.2955 302.452 63.3648 302.465 63.4288C302.479 63.4901 302.491 63.5515 302.501 63.6128C302.515 63.5355 302.525 63.4688 302.533 63.4128C302.541 63.3541 302.549 63.2928 302.557 63.2288L302.925 59.9088H303.845L303.013 65.5088H302.261L301.549 62.0848C301.533 62.0075 301.519 61.9368 301.505 61.8728C301.495 61.8061 301.485 61.7408 301.477 61.6768C301.469 61.7408 301.459 61.8048 301.445 61.8688C301.435 61.9301 301.421 61.9995 301.405 62.0768L300.701 65.5088H299.949ZM306.479 65.6048C306.175 65.6048 305.89 65.5461 305.623 65.4288C305.359 65.3088 305.129 65.1408 304.931 64.9248C304.734 64.7088 304.586 64.4555 304.487 64.1648L305.351 63.8448C305.471 64.1008 305.639 64.3088 305.855 64.4688C306.074 64.6288 306.309 64.7088 306.559 64.7088C306.799 64.7088 306.995 64.6475 307.147 64.5248C307.299 64.4021 307.375 64.2235 307.375 63.9888C307.375 63.8368 307.322 63.7021 307.215 63.5848C307.109 63.4648 306.967 63.3555 306.791 63.2568C306.618 63.1581 306.429 63.0635 306.223 62.9728C306.045 62.8955 305.865 62.8088 305.683 62.7128C305.505 62.6168 305.339 62.5035 305.187 62.3728C305.038 62.2421 304.917 62.0888 304.823 61.9128C304.733 61.7368 304.687 61.5301 304.687 61.2928C304.687 61.0235 304.758 60.7768 304.899 60.5528C305.041 60.3288 305.241 60.1501 305.499 60.0168C305.758 59.8808 306.063 59.8128 306.415 59.8128C306.837 59.8128 307.198 59.9261 307.499 60.1528C307.803 60.3795 308.005 60.6635 308.103 61.0048L307.247 61.2928C307.167 61.1275 307.053 60.9888 306.903 60.8768C306.754 60.7648 306.573 60.7088 306.359 60.7088C306.159 60.7088 305.99 60.7595 305.851 60.8608C305.715 60.9621 305.647 61.1008 305.647 61.2768C305.647 61.3995 305.686 61.5061 305.763 61.5968C305.843 61.6875 305.959 61.7755 306.111 61.8608C306.266 61.9461 306.455 62.0421 306.679 62.1488C306.861 62.2341 307.047 62.3301 307.239 62.4368C307.431 62.5408 307.61 62.6621 307.775 62.8008C307.943 62.9395 308.078 63.1021 308.179 63.2888C308.283 63.4755 308.335 63.6928 308.335 63.9408C308.335 64.2955 308.249 64.5968 308.075 64.8448C307.905 65.0928 307.678 65.2821 307.395 65.4128C307.115 65.5408 306.81 65.6048 306.479 65.6048Z" fill="#404040"/>
<path d="M274.883 88.3013V86.8013H277.883V80.8013H276.383V79.3013H277.883V77.8013H280.883V86.8013H283.883V88.3013H274.883ZM286.883 88.3013V86.8013H285.383V85.3013H288.383V86.8013H292.883V83.8013H288.383V82.3013H289.883V80.8013H291.383V79.3013H286.883V77.8013H295.883V79.3013H294.383V80.8013H292.883V82.3013H294.383V83.8013H295.883V86.8013H294.383V88.3013H286.883ZM300.383 79.3013H298.883V77.8013H301.883V80.8013H300.383V79.3013ZM307.883 77.8013V79.3013H306.383V77.8013H307.883ZM300.383 82.3013H297.383V79.3013H298.883V80.8013H300.383V82.3013ZM304.883 79.3013H306.383V80.8013H304.883V79.3013ZM303.383 80.8013H304.883V82.3013H303.383V80.8013ZM301.883 82.3013H303.383V83.8013H301.883V82.3013ZM300.383 83.8013H301.883V85.3013H300.383V83.8013ZM304.883 83.8013H307.883V86.8013H306.383V85.3013H304.883V83.8013ZM298.883 85.3013H300.383V86.8013H298.883V85.3013ZM304.883 86.8013H306.383V88.3013H303.383V85.3013H304.883V86.8013ZM297.383 86.8013H298.883V88.3013H297.383V86.8013Z" fill="#404040"/>
<path d="M288.48 292.96C308.075 292.96 323.96 277.075 323.96 257.48C323.96 237.885 308.075 222 288.48 222C268.885 222 253 237.885 253 257.48C253 277.075 268.885 292.96 288.48 292.96Z" fill="url(#paint7_radial_967_20916)"/>
<path d="M273.681 238.752V233.152H277.457V234.056H274.633V235.408H276.689V236.312H274.633V238.752H273.681ZM280.467 238.848C280.091 238.848 279.768 238.769 279.499 238.612C279.232 238.452 279.014 238.236 278.843 237.964C278.672 237.692 278.547 237.382 278.467 237.036C278.387 236.689 278.347 236.328 278.347 235.952C278.347 235.576 278.387 235.214 278.467 234.868C278.547 234.521 278.672 234.212 278.843 233.94C279.014 233.668 279.232 233.453 279.499 233.296C279.768 233.136 280.091 233.056 280.467 233.056C280.843 233.056 281.166 233.136 281.435 233.296C281.704 233.453 281.924 233.668 282.095 233.94C282.266 234.212 282.391 234.521 282.471 234.868C282.554 235.214 282.595 235.576 282.595 235.952C282.595 236.328 282.554 236.689 282.471 237.036C282.391 237.382 282.266 237.692 282.095 237.964C281.924 238.236 281.704 238.452 281.435 238.612C281.166 238.769 280.843 238.848 280.467 238.848ZM280.467 237.944C280.664 237.944 280.835 237.888 280.979 237.776C281.123 237.664 281.24 237.513 281.331 237.324C281.424 237.134 281.492 236.921 281.535 236.684C281.58 236.446 281.603 236.202 281.603 235.952C281.603 235.685 281.58 235.433 281.535 235.196C281.492 234.956 281.426 234.744 281.335 234.56C281.244 234.373 281.127 234.226 280.983 234.12C280.839 234.013 280.667 233.96 280.467 233.96C280.267 233.96 280.095 234.016 279.951 234.128C279.807 234.237 279.69 234.386 279.599 234.576C279.508 234.765 279.44 234.978 279.395 235.216C279.352 235.453 279.331 235.698 279.331 235.952C279.331 236.216 279.352 236.468 279.395 236.708C279.44 236.945 279.508 237.157 279.599 237.344C279.69 237.53 279.807 237.677 279.951 237.784C280.095 237.89 280.267 237.944 280.467 237.944ZM283.541 238.752V233.152H284.493V237.84H287.077V238.752H283.541ZM288.47 238.752V233.152H289.422V237.84H292.006V238.752H288.47ZM295.256 238.848C294.88 238.848 294.557 238.769 294.288 238.612C294.021 238.452 293.803 238.236 293.632 237.964C293.461 237.692 293.336 237.382 293.256 237.036C293.176 236.689 293.136 236.328 293.136 235.952C293.136 235.576 293.176 235.214 293.256 234.868C293.336 234.521 293.461 234.212 293.632 233.94C293.803 233.668 294.021 233.453 294.288 233.296C294.557 233.136 294.88 233.056 295.256 233.056C295.632 233.056 295.955 233.136 296.224 233.296C296.493 233.453 296.713 233.668 296.884 233.94C297.055 234.212 297.18 234.521 297.26 234.868C297.343 235.214 297.384 235.576 297.384 235.952C297.384 236.328 297.343 236.689 297.26 237.036C297.18 237.382 297.055 237.692 296.884 237.964C296.713 238.236 296.493 238.452 296.224 238.612C295.955 238.769 295.632 238.848 295.256 238.848ZM295.256 237.944C295.453 237.944 295.624 237.888 295.768 237.776C295.912 237.664 296.029 237.513 296.12 237.324C296.213 237.134 296.281 236.921 296.324 236.684C296.369 236.446 296.392 236.202 296.392 235.952C296.392 235.685 296.369 235.433 296.324 235.196C296.281 234.956 296.215 234.744 296.124 234.56C296.033 234.373 295.916 234.226 295.772 234.12C295.628 234.013 295.456 233.96 295.256 233.96C295.056 233.96 294.884 234.016 294.74 234.128C294.596 234.237 294.479 234.386 294.388 234.576C294.297 234.765 294.229 234.978 294.184 235.216C294.141 235.453 294.12 235.698 294.12 235.952C294.12 236.216 294.141 236.468 294.184 236.708C294.229 236.945 294.297 237.157 294.388 237.344C294.479 237.53 294.596 237.677 294.74 237.784C294.884 237.89 295.056 237.944 295.256 237.944ZM298.65 238.752L297.826 233.152H298.682L299.122 236.488C299.127 236.528 299.136 236.592 299.15 236.68C299.163 236.765 299.172 236.832 299.178 236.88C299.186 236.832 299.198 236.768 299.214 236.688C299.232 236.605 299.247 236.536 299.258 236.48L299.93 233.152H300.442L301.122 236.464C301.138 236.538 301.152 236.608 301.166 236.672C301.179 236.733 301.191 236.794 301.202 236.856C301.215 236.778 301.226 236.712 301.234 236.656C301.242 236.597 301.25 236.536 301.258 236.472L301.626 233.152H302.546L301.714 238.752H300.962L300.25 235.328C300.234 235.25 300.219 235.18 300.206 235.116C300.195 235.049 300.186 234.984 300.178 234.92C300.17 234.984 300.159 235.048 300.146 235.112C300.135 235.173 300.122 235.242 300.106 235.32L299.402 238.752H298.65Z" fill="#333333"/>
<path d="M261.522 248.909V243.309H263.498C263.962 243.309 264.33 243.394 264.602 243.565C264.877 243.735 265.073 243.954 265.19 244.221C265.31 244.485 265.37 244.759 265.37 245.045C265.37 245.245 265.335 245.447 265.266 245.653C265.197 245.855 265.087 246.042 264.938 246.213C264.789 246.383 264.595 246.521 264.358 246.625C264.121 246.729 263.834 246.781 263.498 246.781H262.474V248.909H261.522ZM262.474 245.885H263.546C263.754 245.885 263.921 245.843 264.046 245.761C264.171 245.675 264.262 245.569 264.318 245.441C264.374 245.31 264.402 245.178 264.402 245.045C264.402 244.925 264.377 244.801 264.326 244.673C264.275 244.542 264.187 244.431 264.062 244.341C263.939 244.25 263.767 244.205 263.546 244.205H262.474V245.885ZM266.452 248.909V243.309H270.044V244.213H267.404V245.565H269.124V246.469H267.404V248.005H270.212V248.909H266.452ZM273.237 249.005C272.861 249.005 272.539 248.926 272.269 248.769C272.003 248.609 271.784 248.393 271.613 248.121C271.443 247.849 271.317 247.539 271.237 247.193C271.157 246.846 271.117 246.485 271.117 246.109C271.117 245.733 271.157 245.371 271.237 245.025C271.317 244.678 271.443 244.369 271.613 244.097C271.784 243.825 272.003 243.61 272.269 243.453C272.539 243.293 272.861 243.213 273.237 243.213C273.613 243.213 273.936 243.293 274.205 243.453C274.475 243.61 274.695 243.825 274.865 244.097C275.036 244.369 275.161 244.678 275.241 245.025C275.324 245.371 275.365 245.733 275.365 246.109C275.365 246.485 275.324 246.846 275.241 247.193C275.161 247.539 275.036 247.849 274.865 248.121C274.695 248.393 274.475 248.609 274.205 248.769C273.936 248.926 273.613 249.005 273.237 249.005ZM273.237 248.101C273.435 248.101 273.605 248.045 273.749 247.933C273.893 247.821 274.011 247.67 274.101 247.481C274.195 247.291 274.263 247.078 274.305 246.841C274.351 246.603 274.373 246.359 274.373 246.109C274.373 245.842 274.351 245.59 274.305 245.353C274.263 245.113 274.196 244.901 274.105 244.717C274.015 244.53 273.897 244.383 273.753 244.277C273.609 244.17 273.437 244.117 273.237 244.117C273.037 244.117 272.865 244.173 272.721 244.285C272.577 244.394 272.46 244.543 272.369 244.733C272.279 244.922 272.211 245.135 272.165 245.373C272.123 245.61 272.101 245.855 272.101 246.109C272.101 246.373 272.123 246.625 272.165 246.865C272.211 247.102 272.279 247.314 272.369 247.501C272.46 247.687 272.577 247.834 272.721 247.941C272.865 248.047 273.037 248.101 273.237 248.101ZM276.311 248.909V243.309H278.287C278.751 243.309 279.119 243.394 279.391 243.565C279.666 243.735 279.862 243.954 279.979 244.221C280.099 244.485 280.159 244.759 280.159 245.045C280.159 245.245 280.124 245.447 280.055 245.653C279.986 245.855 279.876 246.042 279.727 246.213C279.578 246.383 279.384 246.521 279.147 246.625C278.91 246.729 278.623 246.781 278.287 246.781H277.263V248.909H276.311ZM277.263 245.885H278.335C278.543 245.885 278.71 245.843 278.835 245.761C278.96 245.675 279.051 245.569 279.107 245.441C279.163 245.31 279.191 245.178 279.191 245.045C279.191 244.925 279.166 244.801 279.115 244.673C279.064 244.542 278.976 244.431 278.851 244.341C278.728 244.25 278.556 244.205 278.335 244.205H277.263V245.885ZM281.241 248.909V243.309H282.193V247.997H284.777V248.909H281.241ZM286.171 248.909V243.309H289.763V244.213H287.123V245.565H288.843V246.469H287.123V248.005H289.931V248.909H286.171ZM297.406 248.909V244.221H295.782V243.309H299.99V244.221H298.358V248.909H297.406ZM300.96 248.909V243.309H301.912V245.573H303.72V243.309H304.672V248.909H303.72V246.469H301.912V248.909H300.96ZM305.465 248.909L307.297 243.309H308.193L310.025 248.909H309.001L307.881 245.149C307.868 245.106 307.852 245.049 307.833 244.977C307.817 244.905 307.801 244.829 307.785 244.749C307.769 244.669 307.756 244.594 307.745 244.525C307.732 244.594 307.717 244.669 307.701 244.749C307.685 244.829 307.669 244.905 307.653 244.977C307.637 245.049 307.623 245.106 307.609 245.149L306.489 248.909H305.465ZM306.649 247.677L306.905 246.813H308.585L308.841 247.677H306.649ZM312.195 248.909V244.221H310.571V243.309H314.779V244.221H313.147V248.909H312.195Z" fill="#333333"/>
<path d="M269.796 259.066V253.466H270.748V259.066H269.796ZM268.628 259.066V258.226H271.924V259.066H268.628ZM268.628 254.306V253.466H271.924V254.306H268.628ZM273.349 259.066V253.466H274.253L275.997 256.922C276.021 256.965 276.055 257.026 276.097 257.106C276.14 257.186 276.173 257.253 276.197 257.306C276.195 257.237 276.191 257.167 276.185 257.098C276.183 257.029 276.181 256.97 276.181 256.922V253.466H277.061V259.066H276.197L274.421 255.594C274.397 255.549 274.364 255.486 274.321 255.406C274.279 255.326 274.243 255.261 274.213 255.21C274.227 255.269 274.233 255.334 274.233 255.406C274.236 255.478 274.237 255.541 274.237 255.594V259.066H273.349ZM279.655 259.066V254.378H278.031V253.466H282.239V254.378H280.607V259.066H279.655ZM283.209 259.066V253.466H286.801V254.37H284.161V255.722H285.881V256.626H284.161V258.162H286.969V259.066H283.209ZM288.138 259.066V253.466H290.074C290.536 253.466 290.9 253.546 291.166 253.706C291.433 253.866 291.622 254.075 291.734 254.334C291.849 254.593 291.906 254.869 291.906 255.162C291.906 255.37 291.872 255.573 291.802 255.77C291.733 255.965 291.629 256.142 291.49 256.302C291.352 256.459 291.177 256.589 290.966 256.69C290.758 256.791 290.514 256.853 290.234 256.874H289.09V259.066H288.138ZM290.842 259.066L289.698 256.762L290.714 256.658L291.898 259.066H290.842ZM289.09 255.978H290.09C290.304 255.978 290.472 255.939 290.594 255.862C290.717 255.785 290.804 255.685 290.854 255.562C290.905 255.439 290.93 255.309 290.93 255.17C290.93 255.045 290.906 254.921 290.858 254.798C290.81 254.673 290.725 254.569 290.602 254.486C290.482 254.403 290.312 254.362 290.09 254.362H289.09V255.978ZM293.068 259.066V253.466H296.66V254.37H294.02V255.722H295.74V256.626H294.02V258.162H296.828V259.066H293.068ZM299.918 259.162C299.614 259.162 299.328 259.103 299.062 258.986C298.798 258.866 298.567 258.698 298.37 258.482C298.172 258.266 298.024 258.013 297.926 257.722L298.79 257.402C298.91 257.658 299.078 257.866 299.294 258.026C299.512 258.186 299.747 258.266 299.998 258.266C300.238 258.266 300.434 258.205 300.586 258.082C300.738 257.959 300.814 257.781 300.814 257.546C300.814 257.394 300.76 257.259 300.654 257.142C300.547 257.022 300.406 256.913 300.23 256.814C300.056 256.715 299.867 256.621 299.662 256.53C299.483 256.453 299.303 256.366 299.122 256.27C298.943 256.174 298.778 256.061 298.626 255.93C298.476 255.799 298.355 255.646 298.262 255.47C298.171 255.294 298.126 255.087 298.126 254.85C298.126 254.581 298.196 254.334 298.338 254.11C298.479 253.886 298.679 253.707 298.938 253.574C299.196 253.438 299.502 253.37 299.854 253.37C300.275 253.37 300.636 253.483 300.938 253.71C301.242 253.937 301.443 254.221 301.542 254.562L300.686 254.85C300.606 254.685 300.491 254.546 300.342 254.434C300.192 254.322 300.011 254.266 299.798 254.266C299.598 254.266 299.428 254.317 299.29 254.418C299.154 254.519 299.086 254.658 299.086 254.834C299.086 254.957 299.124 255.063 299.202 255.154C299.282 255.245 299.398 255.333 299.55 255.418C299.704 255.503 299.894 255.599 300.118 255.706C300.299 255.791 300.486 255.887 300.678 255.994C300.87 256.098 301.048 256.219 301.214 256.358C301.382 256.497 301.516 256.659 301.618 256.846C301.722 257.033 301.774 257.25 301.774 257.498C301.774 257.853 301.687 258.154 301.514 258.402C301.343 258.65 301.116 258.839 300.834 258.97C300.554 259.098 300.248 259.162 299.918 259.162ZM304.303 259.066V254.378H302.679V253.466H306.887V254.378H305.255V259.066H304.303Z" fill="#333333"/>
<path d="M283.222 269.223V263.623H284.15L284.958 266.695C284.979 266.775 285.004 266.869 285.034 266.979C285.063 267.085 285.083 267.175 285.094 267.247C285.107 267.175 285.127 267.085 285.154 266.979C285.183 266.869 285.208 266.775 285.23 266.695L286.062 263.623H286.934V269.223H286.11V266.183C286.11 266.121 286.11 266.043 286.11 265.947C286.112 265.851 286.118 265.775 286.126 265.719C286.102 265.785 286.075 265.86 286.046 265.943C286.019 266.025 285.995 266.105 285.974 266.183L285.118 269.223H285.038L284.182 266.183C284.16 266.105 284.135 266.025 284.106 265.943C284.079 265.857 284.054 265.783 284.03 265.719C284.035 265.775 284.039 265.851 284.042 265.947C284.044 266.043 284.046 266.121 284.046 266.183V269.223H283.222ZM288.151 269.223V263.623H291.743V264.527H289.103V265.879H290.823V266.783H289.103V268.319H291.911V269.223H288.151Z" fill="#333333"/>
<path d="M271.665 286.579V285.079H274.665V279.079H273.165V277.579H274.665V276.079H277.665V285.079H280.665V286.579H271.665ZM283.665 286.579V285.079H282.165V283.579H285.165V285.079H289.665V282.079H285.165V280.579H286.665V279.079H288.165V277.579H283.665V276.079H292.665V277.579H291.165V279.079H289.665V280.579H291.165V282.079H292.665V285.079H291.165V286.579H283.665ZM297.165 277.579H295.665V276.079H298.665V279.079H297.165V277.579ZM304.665 276.079V277.579H303.165V276.079H304.665ZM297.165 280.579H294.165V277.579H295.665V279.079H297.165V280.579ZM301.665 277.579H303.165V279.079H301.665V277.579ZM300.165 279.079H301.665V280.579H300.165V279.079ZM298.665 280.579H300.165V282.079H298.665V280.579ZM297.165 282.079H298.665V283.579H297.165V282.079ZM301.665 282.079H304.665V285.079H303.165V283.579H301.665V282.079ZM295.665 283.579H297.165V285.079H295.665V283.579ZM301.665 285.079H303.165V286.579H300.165V283.579H301.665V285.079ZM294.165 285.079H295.665V286.579H294.165V285.079Z" fill="#333333"/>
<path d="M32.63 149.26C48.4419 149.26 61.26 136.442 61.26 120.63C61.26 104.818 48.4419 92.0001 32.63 92.0001C16.8181 92.0001 4 104.818 4 120.63C4 136.442 16.8181 149.26 32.63 149.26Z" fill="url(#paint8_radial_967_20916)"/>
<path d="M14.4005 107.319V102.631H12.7765V101.719H16.9845V102.631H15.3525V107.319H14.4005ZM17.9542 107.319V101.719H19.8902C20.3515 101.719 20.7155 101.799 20.9822 101.959C21.2489 102.119 21.4382 102.328 21.5502 102.587C21.6649 102.845 21.7222 103.121 21.7222 103.415C21.7222 103.623 21.6875 103.825 21.6182 104.023C21.5489 104.217 21.4449 104.395 21.3062 104.555C21.1675 104.712 20.9929 104.841 20.7822 104.943C20.5742 105.044 20.3302 105.105 20.0502 105.127H18.9062V107.319H17.9542ZM20.6582 107.319L19.5142 105.015L20.5302 104.911L21.7142 107.319H20.6582ZM18.9062 104.231H19.9062C20.1195 104.231 20.2875 104.192 20.4102 104.115C20.5329 104.037 20.6195 103.937 20.6702 103.815C20.7209 103.692 20.7462 103.561 20.7462 103.423C20.7462 103.297 20.7222 103.173 20.6742 103.051C20.6262 102.925 20.5409 102.821 20.4182 102.739C20.2982 102.656 20.1275 102.615 19.9062 102.615H18.9062V104.231ZM22.4599 107.319L24.2919 101.719H25.1879L27.0199 107.319H25.9959L24.8759 103.559C24.8625 103.516 24.8465 103.459 24.8279 103.387C24.8119 103.315 24.7959 103.239 24.7799 103.159C24.7639 103.079 24.7505 103.004 24.7399 102.935C24.7265 103.004 24.7119 103.079 24.6959 103.159C24.6799 103.239 24.6639 103.315 24.6479 103.387C24.6319 103.459 24.6172 103.516 24.6039 103.559L23.4839 107.319H22.4599ZM23.6439 106.087L23.8999 105.223H25.5799L25.8359 106.087H23.6439ZM29.7656 107.407C29.3602 107.407 29.0162 107.324 28.7336 107.159C28.4509 106.991 28.2229 106.768 28.0496 106.491C27.8762 106.211 27.7496 105.9 27.6696 105.559C27.5896 105.215 27.5496 104.868 27.5496 104.519C27.5496 104.183 27.5896 103.845 27.6696 103.507C27.7522 103.165 27.8816 102.853 28.0576 102.571C28.2336 102.288 28.4616 102.061 28.7416 101.891C29.0242 101.717 29.3656 101.631 29.7656 101.631C30.0802 101.631 30.3522 101.688 30.5816 101.803C30.8136 101.915 31.0056 102.06 31.1576 102.239C31.3096 102.417 31.4242 102.604 31.5016 102.799L30.6536 103.207C30.5469 102.999 30.4256 102.835 30.2896 102.715C30.1562 102.595 29.9816 102.535 29.7656 102.535C29.5389 102.535 29.3469 102.595 29.1896 102.715C29.0322 102.835 28.9042 102.993 28.8056 103.191C28.7096 103.388 28.6402 103.603 28.5976 103.835C28.5549 104.067 28.5336 104.295 28.5336 104.519C28.5336 104.756 28.5576 104.992 28.6056 105.227C28.6562 105.461 28.7309 105.675 28.8296 105.867C28.9309 106.059 29.0589 106.213 29.2136 106.331C29.3709 106.445 29.5549 106.503 29.7656 106.503C29.9816 106.503 30.1602 106.436 30.3016 106.303C30.4429 106.167 30.5629 105.993 30.6616 105.783L31.5256 106.111C31.4242 106.359 31.2936 106.581 31.1336 106.779C30.9762 106.973 30.7842 107.127 30.5576 107.239C30.3309 107.351 30.0669 107.407 29.7656 107.407ZM33.6153 105.263V103.935L35.3593 101.719H36.4713L33.6153 105.263ZM32.7433 107.319V101.719H33.6953V107.319H32.7433ZM35.7193 107.319L34.1593 104.399L34.7993 103.599L36.8313 107.319H35.7193ZM39.0489 107.319V101.719H40.0009V107.319H39.0489ZM37.8809 107.319V106.479H41.1769V107.319H37.8809ZM37.8809 102.559V101.719H41.1769V102.559H37.8809ZM42.6026 107.319V101.719H43.5066L45.2506 105.175C45.2746 105.217 45.308 105.279 45.3506 105.359C45.3933 105.439 45.4266 105.505 45.4506 105.559C45.448 105.489 45.444 105.42 45.4386 105.351C45.436 105.281 45.4346 105.223 45.4346 105.175V101.719H46.3146V107.319H45.4506L43.6746 103.847C43.6506 103.801 43.6173 103.739 43.5746 103.659C43.532 103.579 43.496 103.513 43.4666 103.463C43.48 103.521 43.4866 103.587 43.4866 103.659C43.4893 103.731 43.4906 103.793 43.4906 103.847V107.319H42.6026ZM49.4763 107.415C49.0976 107.415 48.7683 107.335 48.4883 107.175C48.211 107.012 47.9816 106.793 47.8003 106.519C47.6216 106.241 47.4883 105.931 47.4003 105.587C47.3123 105.24 47.2683 104.884 47.2683 104.519C47.2683 104.169 47.3136 103.824 47.4043 103.483C47.495 103.139 47.6323 102.827 47.8163 102.547C48.0003 102.267 48.2296 102.043 48.5043 101.875C48.7816 101.707 49.1056 101.623 49.4763 101.623C49.7936 101.623 50.0603 101.677 50.2763 101.787C50.495 101.893 50.6776 102.033 50.8243 102.207C50.971 102.377 51.0977 102.559 51.2043 102.751L50.3643 103.231C50.2656 103.041 50.1456 102.877 50.0043 102.739C49.8656 102.597 49.6896 102.527 49.4763 102.527C49.2523 102.527 49.063 102.588 48.9083 102.711C48.7536 102.831 48.6283 102.991 48.5323 103.191C48.4363 103.388 48.367 103.604 48.3243 103.839C48.2816 104.071 48.2603 104.297 48.2603 104.519C48.2603 104.772 48.2843 105.017 48.3323 105.255C48.383 105.492 48.4576 105.705 48.5563 105.895C48.655 106.084 48.7803 106.235 48.9323 106.347C49.087 106.456 49.2683 106.511 49.4763 106.511C49.7723 106.511 49.9936 106.412 50.1403 106.215C50.2896 106.015 50.3643 105.767 50.3643 105.471V105.351H49.3883V104.455H51.3403V105.231C51.3403 105.703 51.2577 106.101 51.0923 106.427C50.9296 106.752 50.707 106.999 50.4243 107.167C50.1443 107.332 49.8283 107.415 49.4763 107.415Z" fill="#333333"/>
<path d="M22.2159 120.686V115.998H20.5919V115.086H24.7999V115.998H23.1679V120.686H22.2159ZM25.7696 120.686V115.086H29.3616V115.99H26.7216V117.342H28.4416V118.246H26.7216V119.782H29.5296V120.686H25.7696ZM30.2753 120.686L32.1073 115.086H33.0033L34.8353 120.686H33.8113L32.6913 116.926C32.678 116.883 32.662 116.826 32.6433 116.754C32.6273 116.682 32.6113 116.606 32.5953 116.526C32.5793 116.446 32.566 116.371 32.5553 116.302C32.542 116.371 32.5273 116.446 32.5113 116.526C32.4953 116.606 32.4793 116.682 32.4633 116.754C32.4473 116.826 32.4326 116.883 32.4193 116.926L31.2993 120.686H30.2753ZM31.4593 119.454L31.7153 118.59H33.3953L33.6513 119.454H31.4593ZM35.629 120.686V115.086H36.557L37.365 118.158C37.3863 118.238 37.4117 118.333 37.441 118.442C37.4703 118.549 37.4903 118.638 37.501 118.71C37.5143 118.638 37.5343 118.549 37.561 118.442C37.5903 118.333 37.6157 118.238 37.637 118.158L38.469 115.086H39.341V120.686H38.517V117.646C38.517 117.585 38.517 117.506 38.517 117.41C38.5197 117.314 38.525 117.238 38.533 117.182C38.509 117.249 38.4823 117.323 38.453 117.406C38.4263 117.489 38.4023 117.569 38.381 117.646L37.525 120.686H37.445L36.589 117.646C36.5677 117.569 36.5423 117.489 36.513 117.406C36.4863 117.321 36.461 117.246 36.437 117.182C36.4423 117.238 36.4463 117.314 36.449 117.41C36.4517 117.506 36.453 117.585 36.453 117.646V120.686H35.629ZM42.4787 120.782C42.1747 120.782 41.8894 120.723 41.6227 120.606C41.3587 120.486 41.128 120.318 40.9307 120.102C40.7334 119.886 40.5854 119.633 40.4867 119.342L41.3507 119.022C41.4707 119.278 41.6387 119.486 41.8547 119.646C42.0734 119.806 42.308 119.886 42.5587 119.886C42.7987 119.886 42.9947 119.825 43.1467 119.702C43.2987 119.579 43.3747 119.401 43.3747 119.166C43.3747 119.014 43.3214 118.879 43.2147 118.762C43.108 118.642 42.9667 118.533 42.7907 118.434C42.6174 118.335 42.428 118.241 42.2227 118.15C42.044 118.073 41.864 117.986 41.6827 117.89C41.504 117.794 41.3387 117.681 41.1867 117.55C41.0374 117.419 40.916 117.266 40.8227 117.09C40.732 116.914 40.6867 116.707 40.6867 116.47C40.6867 116.201 40.7574 115.954 40.8987 115.73C41.04 115.506 41.24 115.327 41.4987 115.194C41.7574 115.058 42.0627 114.99 42.4147 114.99C42.836 114.99 43.1974 115.103 43.4987 115.33C43.8027 115.557 44.004 115.841 44.1027 116.182L43.2467 116.47C43.1667 116.305 43.052 116.166 42.9027 116.054C42.7534 115.942 42.572 115.886 42.3587 115.886C42.1587 115.886 41.9894 115.937 41.8507 116.038C41.7147 116.139 41.6467 116.278 41.6467 116.454C41.6467 116.577 41.6854 116.683 41.7627 116.774C41.8427 116.865 41.9587 116.953 42.1107 117.038C42.2654 117.123 42.4547 117.219 42.6787 117.326C42.86 117.411 43.0467 117.507 43.2387 117.614C43.4307 117.718 43.6094 117.839 43.7747 117.978C43.9427 118.117 44.0774 118.279 44.1787 118.466C44.2827 118.653 44.3347 118.87 44.3347 119.118C44.3347 119.473 44.248 119.774 44.0747 120.022C43.904 120.27 43.6774 120.459 43.3947 120.59C43.1147 120.718 42.8094 120.782 42.4787 120.782Z" fill="#333333"/>
<path d="M21.5889 141.413V139.913H26.0889V138.413H27.5889V136.913H21.5889V135.413H20.0889V132.413H21.5889V130.913H29.0889V132.413H30.5889V138.413H29.0889V139.913H27.5889V141.413H21.5889ZM23.0889 135.413H27.5889V132.413H23.0889V135.413ZM35.0889 132.413H33.5889V130.913H36.5889V133.913H35.0889V132.413ZM42.5889 130.913V132.413H41.0889V130.913H42.5889ZM35.0889 135.413H32.0889V132.413H33.5889V133.913H35.0889V135.413ZM39.5889 132.413H41.0889V133.913H39.5889V132.413ZM38.0889 133.913H39.5889V135.413H38.0889V133.913ZM36.5889 135.413H38.0889V136.913H36.5889V135.413ZM35.0889 136.913H36.5889V138.413H35.0889V136.913ZM39.5889 136.913H42.5889V139.913H41.0889V138.413H39.5889V136.913ZM33.5889 138.413H35.0889V139.913H33.5889V138.413ZM39.5889 139.913H41.0889V141.413H38.0889V138.413H39.5889V139.913ZM32.0889 139.913H33.5889V141.413H32.0889V139.913Z" fill="#333333"/>
<path d="M39.745 232.49C50.0976 232.49 58.49 224.098 58.49 213.745C58.49 203.392 50.0976 195 39.745 195C29.3924 195 21 203.392 21 213.745C21 224.098 29.3924 232.49 39.745 232.49Z" fill="url(#paint9_radial_967_20916)"/>
<path d="M21.1471 208.662V203.062H23.0831C23.5444 203.062 23.9084 203.142 24.1751 203.302C24.4417 203.462 24.6311 203.671 24.7431 203.93C24.8577 204.189 24.9151 204.465 24.9151 204.758C24.9151 204.966 24.8804 205.169 24.8111 205.366C24.7417 205.561 24.6377 205.738 24.4991 205.898C24.3604 206.055 24.1857 206.185 23.9751 206.286C23.7671 206.387 23.5231 206.449 23.2431 206.47H22.0991V208.662H21.1471ZM23.8511 208.662L22.7071 206.358L23.7231 206.254L24.9071 208.662H23.8511ZM22.0991 205.574H23.0991C23.3124 205.574 23.4804 205.535 23.6031 205.458C23.7257 205.381 23.8124 205.281 23.8631 205.158C23.9137 205.035 23.9391 204.905 23.9391 204.766C23.9391 204.641 23.9151 204.517 23.8671 204.394C23.8191 204.269 23.7337 204.165 23.6111 204.082C23.4911 203.999 23.3204 203.958 23.0991 203.958H22.0991V205.574ZM27.9328 208.758C27.5568 208.758 27.2341 208.679 26.9648 208.522C26.6981 208.362 26.4794 208.146 26.3088 207.874C26.1381 207.602 26.0128 207.293 25.9328 206.946C25.8528 206.599 25.8128 206.238 25.8128 205.862C25.8128 205.486 25.8528 205.125 25.9328 204.778C26.0128 204.431 26.1381 204.122 26.3088 203.85C26.4794 203.578 26.6981 203.363 26.9648 203.206C27.2341 203.046 27.5568 202.966 27.9328 202.966C28.3088 202.966 28.6314 203.046 28.9008 203.206C29.1701 203.363 29.3901 203.578 29.5608 203.85C29.7314 204.122 29.8568 204.431 29.9368 204.778C30.0194 205.125 30.0608 205.486 30.0608 205.862C30.0608 206.238 30.0194 206.599 29.9368 206.946C29.8568 207.293 29.7314 207.602 29.5608 207.874C29.3901 208.146 29.1701 208.362 28.9008 208.522C28.6314 208.679 28.3088 208.758 27.9328 208.758ZM27.9328 207.854C28.1301 207.854 28.3008 207.798 28.4448 207.686C28.5888 207.574 28.7061 207.423 28.7968 207.234C28.8901 207.045 28.9581 206.831 29.0008 206.594C29.0461 206.357 29.0688 206.113 29.0688 205.862C29.0688 205.595 29.0461 205.343 29.0008 205.106C28.9581 204.866 28.8914 204.654 28.8008 204.47C28.7101 204.283 28.5928 204.137 28.4488 204.03C28.3048 203.923 28.1328 203.87 27.9328 203.87C27.7328 203.87 27.5608 203.926 27.4168 204.038C27.2728 204.147 27.1554 204.297 27.0648 204.486C26.9741 204.675 26.9061 204.889 26.8608 205.126C26.8181 205.363 26.7968 205.609 26.7968 205.862C26.7968 206.126 26.8181 206.378 26.8608 206.618C26.9061 206.855 26.9741 207.067 27.0648 207.254C27.1554 207.441 27.2728 207.587 27.4168 207.694C27.5608 207.801 27.7328 207.854 27.9328 207.854ZM31.0064 208.662V203.062H31.9584V207.75H34.5424V208.662H31.0064ZM35.9361 208.662V203.062H39.5281V203.966H36.8881V205.318H38.6081V206.222H36.8881V207.758H39.6961V208.662H35.9361ZM40.8658 208.662V203.062H42.8418C43.3058 203.062 43.6738 203.147 43.9458 203.318C44.2205 203.489 44.4165 203.707 44.5338 203.974C44.6538 204.238 44.7138 204.513 44.7138 204.798C44.7138 204.998 44.6791 205.201 44.6098 205.406C44.5405 205.609 44.4311 205.795 44.2818 205.966C44.1325 206.137 43.9391 206.274 43.7018 206.378C43.4645 206.482 43.1778 206.534 42.8418 206.534H41.8178V208.662H40.8658ZM41.8178 205.638H42.8898C43.0978 205.638 43.2645 205.597 43.3898 205.514C43.5151 205.429 43.6058 205.322 43.6618 205.194C43.7178 205.063 43.7458 204.931 43.7458 204.798C43.7458 204.678 43.7205 204.554 43.6698 204.426C43.6191 204.295 43.5311 204.185 43.4058 204.094C43.2831 204.003 43.1111 203.958 42.8898 203.958H41.8178V205.638ZM45.7955 208.662V203.062H46.7475V207.75H49.3315V208.662H45.7955ZM50.3012 208.662L52.1332 203.062H53.0292L54.8612 208.662H53.8372L52.7172 204.902C52.7039 204.859 52.6879 204.802 52.6692 204.73C52.6532 204.658 52.6372 204.582 52.6212 204.502C52.6052 204.422 52.5919 204.347 52.5812 204.278C52.5679 204.347 52.5532 204.422 52.5372 204.502C52.5212 204.582 52.5052 204.658 52.4892 204.73C52.4732 204.802 52.4585 204.859 52.4452 204.902L51.3252 208.662H50.3012ZM51.4852 207.43L51.7412 206.566H53.4212L53.6772 207.43H51.4852ZM57.0389 208.662V206.47L55.3909 203.062H56.4469L57.7029 205.878H57.3189L58.5829 203.062H59.6309L57.9829 206.47V208.662H57.0389Z" fill="#333333"/>
<path d="M30.8462 224.649V220.149H32.3462V218.649H33.8462V217.149H35.3462V215.649H30.8462V217.149H27.8462V214.149H38.3462V217.149H36.8462V218.649H35.3462V220.149H33.8462V224.649H30.8462ZM42.8462 215.649H41.3462V214.149H44.3462V217.149H42.8462V215.649ZM50.3462 214.149V215.649H48.8462V214.149H50.3462ZM42.8462 218.649H39.8462V215.649H41.3462V217.149H42.8462V218.649ZM47.3462 215.649H48.8462V217.149H47.3462V215.649ZM45.8462 217.149H47.3462V218.649H45.8462V217.149ZM44.3462 218.649H45.8462V220.149H44.3462V218.649ZM42.8462 220.149H44.3462V221.649H42.8462V220.149ZM47.3462 220.149H50.3462V223.149H48.8462V221.649H47.3462V220.149ZM41.3462 221.649H42.8462V223.149H41.3462V221.649ZM47.3462 223.149H48.8462V224.649H45.8462V221.649H47.3462V223.149ZM39.8462 223.149H41.3462V224.649H39.8462V223.149Z" fill="#333333"/>
<defs>
<radialGradient id="paint0_radial_967_20916" cx="0" cy="0" r="1" gradientUnits="userSpaceOnUse" gradientTransform="translate(122.285 163.285) rotate(90) scale(53.285 53.285)">
<stop offset="0.625" stop-color="#FF378B" stop-opacity="0"/>
<stop offset="1" stop-color="#FF378B"/>
</radialGradient>
<radialGradient id="paint1_radial_967_20916" cx="0" cy="0" r="1" gradientUnits="userSpaceOnUse" gradientTransform="translate(247.27 161.27) rotate(90) scale(45.27 45.27)">
<stop offset="0.625" stop-color="#FF378B" stop-opacity="0"/>
<stop offset="1" stop-color="#FF378B"/>
</radialGradient>
<radialGradient id="paint2_radial_967_20916" cx="0" cy="0" r="1" gradientUnits="userSpaceOnUse" gradientTransform="translate(188.85 268.85) rotate(90) scale(40.85 40.85)">
<stop offset="0.625" stop-color="#FF378B" stop-opacity="0"/>
<stop offset="1" stop-color="#FF378B"/>
</radialGradient>
<radialGradient id="paint3_radial_967_20916" cx="0" cy="0" r="1" gradientUnits="userSpaceOnUse" gradientTransform="translate(190.09 67.0901) rotate(90) scale(48.09 48.09)">
<stop offset="0.625" stop-color="#FF378B" stop-opacity="0"/>
<stop offset="1" stop-color="#FF378B"/>
</radialGradient>
<radialGradient id="paint4_radial_967_20916" cx="0" cy="0" r="1" gradientUnits="userSpaceOnUse" gradientTransform="translate(83.33 52.33) rotate(90) scale(51.33 51.33)">
<stop offset="0.625" stop-color="#FF378B" stop-opacity="0"/>
<stop offset="1" stop-color="#FF378B"/>
</radialGradient>
<radialGradient id="paint5_radial_967_20916" cx="0" cy="0" r="1" gradientUnits="userSpaceOnUse" gradientTransform="translate(83.27 275.27) rotate(90) scale(45.27 45.27)">
<stop offset="0.625" stop-color="#FF378B" stop-opacity="0"/>
<stop offset="1" stop-color="#FF378B"/>
</radialGradient>
<radialGradient id="paint6_radial_967_20916" cx="0" cy="0" r="1" gradientUnits="userSpaceOnUse" gradientTransform="translate(291.48 63.48) rotate(90) scale(35.48 35.48)">
<stop offset="0.625" stop-color="#FF378B" stop-opacity="0"/>
<stop offset="1" stop-color="#FF378B"/>
</radialGradient>
<radialGradient id="paint7_radial_967_20916" cx="0" cy="0" r="1" gradientUnits="userSpaceOnUse" gradientTransform="translate(288.48 257.48) rotate(90) scale(35.48 35.48)">
<stop offset="0.625" stop-color="#FF378B" stop-opacity="0"/>
<stop offset="1" stop-color="#FF378B"/>
</radialGradient>
<radialGradient id="paint8_radial_967_20916" cx="0" cy="0" r="1" gradientUnits="userSpaceOnUse" gradientTransform="translate(32.63 120.63) rotate(90) scale(28.63 28.63)">
<stop offset="0.625" stop-color="#FF378B" stop-opacity="0"/>
<stop offset="1" stop-color="#FF378B"/>
</radialGradient>
<radialGradient id="paint9_radial_967_20916" cx="0" cy="0" r="1" gradientUnits="userSpaceOnUse" gradientTransform="translate(39.745 213.745) rotate(90) scale(18.745 18.745)">
<stop offset="0.625" stop-color="#FF378B" stop-opacity="0"/>
<stop offset="1" stop-color="#FF378B"/>
</radialGradient>
</defs>
</svg>
