<svg width="337" height="352" viewBox="0 0 337 352" fill="none" xmlns="http://www.w3.org/2000/svg">
<path d="M121.729 239.024C157.151 239.024 185.867 210.308 185.867 174.886C185.867 139.463 157.151 110.748 121.729 110.748C86.3064 110.748 57.5908 139.463 57.5908 174.886C57.5908 210.308 86.3064 239.024 121.729 239.024Z" fill="url(#paint0_radial_806_22364)"/>
<path d="M113.772 163.483V158.795H112.148V157.883H116.356V158.795H114.724V163.483H113.772ZM118.702 163.483V157.883H119.654V163.483H118.702ZM117.534 163.483V162.643H120.83V163.483H117.534ZM117.534 158.723V157.883H120.83V158.723H117.534ZM122.255 163.483V157.883H124.231C124.695 157.883 125.063 157.969 125.335 158.139C125.61 158.31 125.806 158.529 125.923 158.795C126.043 159.059 126.103 159.334 126.103 159.619C126.103 159.819 126.069 160.022 125.999 160.227C125.93 160.43 125.821 160.617 125.671 160.787C125.522 160.958 125.329 161.095 125.091 161.199C124.854 161.303 124.567 161.355 124.231 161.355H123.207V163.483H122.255ZM123.207 160.459H124.279C124.487 160.459 124.654 160.418 124.779 160.335C124.905 160.25 124.995 160.143 125.051 160.015C125.107 159.885 125.135 159.753 125.135 159.619C125.135 159.499 125.11 159.375 125.059 159.247C125.009 159.117 124.921 159.006 124.795 158.915C124.673 158.825 124.501 158.779 124.279 158.779H123.207V160.459ZM129.105 163.579C128.801 163.579 128.516 163.521 128.249 163.403C127.985 163.283 127.754 163.115 127.557 162.899C127.36 162.683 127.212 162.43 127.113 162.139L127.977 161.819C128.097 162.075 128.265 162.283 128.481 162.443C128.7 162.603 128.934 162.683 129.185 162.683C129.425 162.683 129.621 162.622 129.773 162.499C129.925 162.377 130.001 162.198 130.001 161.963C130.001 161.811 129.948 161.677 129.841 161.559C129.734 161.439 129.593 161.33 129.417 161.231C129.244 161.133 129.054 161.038 128.849 160.947C128.67 160.87 128.49 160.783 128.309 160.687C128.13 160.591 127.965 160.478 127.813 160.347C127.664 160.217 127.542 160.063 127.449 159.887C127.358 159.711 127.313 159.505 127.313 159.267C127.313 158.998 127.384 158.751 127.525 158.527C127.666 158.303 127.866 158.125 128.125 157.991C128.384 157.855 128.689 157.787 129.041 157.787C129.462 157.787 129.824 157.901 130.125 158.127C130.429 158.354 130.63 158.638 130.729 158.979L129.873 159.267C129.793 159.102 129.678 158.963 129.529 158.851C129.38 158.739 129.198 158.683 128.985 158.683C128.785 158.683 128.616 158.734 128.477 158.835C128.341 158.937 128.273 159.075 128.273 159.251C128.273 159.374 128.312 159.481 128.389 159.571C128.469 159.662 128.585 159.75 128.737 159.835C128.892 159.921 129.081 160.017 129.305 160.123C129.486 160.209 129.673 160.305 129.865 160.411C130.057 160.515 130.236 160.637 130.401 160.775C130.569 160.914 130.704 161.077 130.805 161.263C130.909 161.45 130.961 161.667 130.961 161.915C130.961 162.27 130.874 162.571 130.701 162.819C130.53 163.067 130.304 163.257 130.021 163.387C129.741 163.515 129.436 163.579 129.105 163.579Z" fill="#333333"/>
<path d="M109.22 186.276V183.276H103.22V180.276H104.72V178.776H106.22V177.276H107.72V175.776H112.22V181.776H113.72V183.276H112.22V186.276H109.22ZM106.22 181.776H109.22V178.776H107.72V180.276H106.22V181.776ZM121.22 186.276V183.276H115.22V180.276H116.72V178.776H118.22V177.276H119.72V175.776H124.22V181.776H125.72V183.276H124.22V186.276H121.22ZM118.22 181.776H121.22V178.776H119.72V180.276H118.22V181.776ZM130.22 177.276H128.72V175.776H131.72V178.776H130.22V177.276ZM137.72 175.776V177.276H136.22V175.776H137.72ZM130.22 180.276H127.22V177.276H128.72V178.776H130.22V180.276ZM134.72 177.276H136.22V178.776H134.72V177.276ZM133.22 178.776H134.72V180.276H133.22V178.776ZM131.72 180.276H133.22V181.776H131.72V180.276ZM130.22 181.776H131.72V183.276H130.22V181.776ZM134.72 181.776H137.72V184.776H136.22V183.276H134.72V181.776ZM128.72 183.276H130.22V184.776H128.72V183.276ZM134.72 184.776H136.22V186.276H133.22V183.276H134.72V184.776ZM127.22 184.776H128.72V186.276H127.22V184.776Z" fill="#333333"/>
<path d="M247.428 233.624C279.868 233.624 306.166 207.326 306.166 174.886C306.166 142.446 279.868 116.147 247.428 116.147C214.988 116.147 188.689 142.446 188.689 174.886C188.689 207.326 214.988 233.624 247.428 233.624Z" fill="url(#paint1_radial_806_22364)"/>
<path d="M227.692 163.483V158.795H226.068V157.883H230.276V158.795H228.644V163.483H227.692ZM233.102 163.579C232.766 163.579 232.454 163.509 232.166 163.367C231.881 163.226 231.65 162.993 231.474 162.667C231.301 162.342 231.214 161.902 231.214 161.347V157.883H232.158V161.347C232.158 161.691 232.198 161.959 232.278 162.151C232.361 162.343 232.473 162.479 232.614 162.559C232.758 162.637 232.921 162.675 233.102 162.675C233.281 162.675 233.441 162.637 233.582 162.559C233.726 162.479 233.84 162.343 233.922 162.151C234.005 161.959 234.046 161.691 234.046 161.347V157.883H234.998V161.347C234.998 161.894 234.912 162.331 234.738 162.659C234.565 162.985 234.334 163.219 234.046 163.363C233.758 163.507 233.444 163.579 233.102 163.579ZM237.552 163.483V158.795H235.928V157.883H240.136V158.795H238.504V163.483H237.552ZM242.962 163.579C242.586 163.579 242.263 163.501 241.994 163.343C241.727 163.183 241.508 162.967 241.338 162.695C241.167 162.423 241.042 162.114 240.962 161.767C240.882 161.421 240.842 161.059 240.842 160.683C240.842 160.307 240.882 159.946 240.962 159.599C241.042 159.253 241.167 158.943 241.338 158.671C241.508 158.399 241.727 158.185 241.994 158.027C242.263 157.867 242.586 157.787 242.962 157.787C243.338 157.787 243.66 157.867 243.93 158.027C244.199 158.185 244.419 158.399 244.59 158.671C244.76 158.943 244.886 159.253 244.966 159.599C245.048 159.946 245.09 160.307 245.09 160.683C245.09 161.059 245.048 161.421 244.966 161.767C244.886 162.114 244.76 162.423 244.59 162.695C244.419 162.967 244.199 163.183 243.93 163.343C243.66 163.501 243.338 163.579 242.962 163.579ZM242.962 162.675C243.159 162.675 243.33 162.619 243.474 162.507C243.618 162.395 243.735 162.245 243.826 162.055C243.919 161.866 243.987 161.653 244.03 161.415C244.075 161.178 244.098 160.934 244.098 160.683C244.098 160.417 244.075 160.165 244.03 159.927C243.987 159.687 243.92 159.475 243.83 159.291C243.739 159.105 243.622 158.958 243.478 158.851C243.334 158.745 243.162 158.691 242.962 158.691C242.762 158.691 242.59 158.747 242.446 158.859C242.302 158.969 242.184 159.118 242.094 159.307C242.003 159.497 241.935 159.71 241.89 159.947C241.847 160.185 241.826 160.43 241.826 160.683C241.826 160.947 241.847 161.199 241.89 161.439C241.935 161.677 242.003 161.889 242.094 162.075C242.184 162.262 242.302 162.409 242.446 162.515C242.59 162.622 242.762 162.675 242.962 162.675ZM246.035 163.483V157.883H247.971C248.433 157.883 248.797 157.963 249.063 158.123C249.33 158.283 249.519 158.493 249.631 158.751C249.746 159.01 249.803 159.286 249.803 159.579C249.803 159.787 249.769 159.99 249.699 160.187C249.63 160.382 249.526 160.559 249.387 160.719C249.249 160.877 249.074 161.006 248.863 161.107C248.655 161.209 248.411 161.27 248.131 161.291H246.987V163.483H246.035ZM248.739 163.483L247.595 161.179L248.611 161.075L249.795 163.483H248.739ZM246.987 160.395H247.987C248.201 160.395 248.369 160.357 248.491 160.279C248.614 160.202 248.701 160.102 248.751 159.979C248.802 159.857 248.827 159.726 248.827 159.587C248.827 159.462 248.803 159.338 248.755 159.215C248.707 159.09 248.622 158.986 248.499 158.903C248.379 158.821 248.209 158.779 247.987 158.779H246.987V160.395ZM252.341 163.483V157.883H253.293V163.483H252.341ZM251.173 163.483V162.643H254.469V163.483H251.173ZM251.173 158.723V157.883H254.469V158.723H251.173ZM255.471 163.483L257.303 157.883H258.199L260.031 163.483H259.007L257.887 159.723C257.873 159.681 257.857 159.623 257.839 159.551C257.823 159.479 257.807 159.403 257.791 159.323C257.775 159.243 257.761 159.169 257.751 159.099C257.737 159.169 257.723 159.243 257.707 159.323C257.691 159.403 257.675 159.479 257.659 159.551C257.643 159.623 257.628 159.681 257.615 159.723L256.495 163.483H255.471ZM256.655 162.251L256.911 161.387H258.591L258.847 162.251H256.655ZM260.824 163.483V157.883H261.776V162.571H264.36V163.483H260.824ZM267.674 163.579C267.37 163.579 267.085 163.521 266.818 163.403C266.554 163.283 266.323 163.115 266.126 162.899C265.929 162.683 265.781 162.43 265.682 162.139L266.546 161.819C266.666 162.075 266.834 162.283 267.05 162.443C267.269 162.603 267.503 162.683 267.754 162.683C267.994 162.683 268.19 162.622 268.342 162.499C268.494 162.377 268.57 162.198 268.57 161.963C268.57 161.811 268.517 161.677 268.41 161.559C268.303 161.439 268.162 161.33 267.986 161.231C267.813 161.133 267.623 161.038 267.418 160.947C267.239 160.87 267.059 160.783 266.878 160.687C266.699 160.591 266.534 160.478 266.382 160.347C266.233 160.217 266.111 160.063 266.018 159.887C265.927 159.711 265.882 159.505 265.882 159.267C265.882 158.998 265.953 158.751 266.094 158.527C266.235 158.303 266.435 158.125 266.694 157.991C266.953 157.855 267.258 157.787 267.61 157.787C268.031 157.787 268.393 157.901 268.694 158.127C268.998 158.354 269.199 158.638 269.298 158.979L268.442 159.267C268.362 159.102 268.247 158.963 268.098 158.851C267.949 158.739 267.767 158.683 267.554 158.683C267.354 158.683 267.185 158.734 267.046 158.835C266.91 158.937 266.842 159.075 266.842 159.251C266.842 159.374 266.881 159.481 266.958 159.571C267.038 159.662 267.154 159.75 267.306 159.835C267.461 159.921 267.65 160.017 267.874 160.123C268.055 160.209 268.242 160.305 268.434 160.411C268.626 160.515 268.805 160.637 268.97 160.775C269.138 160.914 269.273 161.077 269.374 161.263C269.478 161.45 269.53 161.667 269.53 161.915C269.53 162.27 269.443 162.571 269.27 162.819C269.099 163.067 268.873 163.257 268.59 163.387C268.31 163.515 268.005 163.579 267.674 163.579Z" fill="#333333"/>
<path d="M231.148 186.276V184.776H229.648V183.276H232.648V184.776H237.148V181.776H232.648V180.276H234.148V178.776H235.648V177.276H231.148V175.776H240.148V177.276H238.648V178.776H237.148V180.276H238.648V181.776H240.148V184.776H238.648V186.276H231.148ZM244.648 186.276V181.776H246.148V180.276H247.648V178.776H249.148V177.276H244.648V178.776H241.648V175.776H252.148V178.776H250.648V180.276H249.148V181.776H247.648V186.276H244.648ZM256.648 177.276H255.148V175.776H258.148V178.776H256.648V177.276ZM264.148 175.776V177.276H262.648V175.776H264.148ZM256.648 180.276H253.648V177.276H255.148V178.776H256.648V180.276ZM261.148 177.276H262.648V178.776H261.148V177.276ZM259.648 178.776H261.148V180.276H259.648V178.776ZM258.148 180.276H259.648V181.776H258.148V180.276ZM256.648 181.776H258.148V183.276H256.648V181.776ZM261.148 181.776H264.148V184.776H262.648V183.276H261.148V181.776ZM255.148 183.276H256.648V184.776H255.148V183.276ZM261.148 184.776H262.648V186.276H259.648V183.276H261.148V184.776ZM253.648 184.776H255.148V186.276H253.648V184.776Z" fill="#333333"/>
<path d="M189.805 336.371C221.509 336.371 247.21 310.67 247.21 278.965C247.21 247.261 221.509 221.56 189.805 221.56C158.101 221.56 132.399 247.261 132.399 278.965C132.399 310.67 158.101 336.371 189.805 336.371Z" fill="url(#paint2_radial_806_22364)"/>
<path d="M172.491 267.659C172.112 267.659 171.783 267.579 171.503 267.419C171.226 267.256 170.996 267.038 170.815 266.763C170.636 266.486 170.503 266.175 170.415 265.831C170.327 265.484 170.283 265.128 170.283 264.763C170.283 264.414 170.328 264.068 170.419 263.727C170.51 263.383 170.647 263.071 170.831 262.791C171.015 262.511 171.244 262.287 171.519 262.119C171.796 261.951 172.12 261.867 172.491 261.867C172.808 261.867 173.075 261.922 173.291 262.031C173.51 262.138 173.692 262.278 173.839 262.451C173.986 262.622 174.112 262.803 174.219 262.995L173.379 263.475C173.28 263.286 173.16 263.122 173.019 262.983C172.88 262.842 172.704 262.771 172.491 262.771C172.267 262.771 172.078 262.832 171.923 262.955C171.768 263.075 171.643 263.235 171.547 263.435C171.451 263.632 171.382 263.848 171.339 264.083C171.296 264.315 171.275 264.542 171.275 264.763C171.275 265.016 171.299 265.262 171.347 265.499C171.398 265.736 171.472 265.95 171.571 266.139C171.67 266.328 171.795 266.479 171.947 266.591C172.102 266.7 172.283 266.755 172.491 266.755C172.787 266.755 173.008 266.656 173.155 266.459C173.304 266.259 173.379 266.011 173.379 265.715V265.595H172.403V264.699H174.355V265.475C174.355 265.947 174.272 266.346 174.107 266.671C173.944 266.996 173.722 267.243 173.439 267.411C173.159 267.576 172.843 267.659 172.491 267.659ZM175.053 267.563L176.885 261.963H177.781L179.613 267.563H178.589L177.469 263.803C177.455 263.76 177.439 263.703 177.421 263.631C177.405 263.559 177.389 263.483 177.373 263.403C177.357 263.323 177.343 263.248 177.333 263.179C177.319 263.248 177.305 263.323 177.289 263.403C177.273 263.483 177.257 263.559 177.241 263.631C177.225 263.703 177.21 263.76 177.197 263.803L176.077 267.563H175.053ZM176.237 266.331L176.493 265.467H178.173L178.429 266.331H176.237ZM180.406 267.563V261.963H181.334L182.142 265.035C182.164 265.115 182.189 265.21 182.218 265.319C182.248 265.426 182.268 265.515 182.278 265.587C182.292 265.515 182.312 265.426 182.338 265.319C182.368 265.21 182.393 265.115 182.414 265.035L183.246 261.963H184.118V267.563H183.294V264.523C183.294 264.462 183.294 264.383 183.294 264.287C183.297 264.191 183.302 264.115 183.31 264.059C183.286 264.126 183.26 264.2 183.23 264.283C183.204 264.366 183.18 264.446 183.158 264.523L182.302 267.563H182.222L181.366 264.523C181.345 264.446 181.32 264.366 181.29 264.283C181.264 264.198 181.238 264.123 181.214 264.059C181.22 264.115 181.224 264.191 181.226 264.287C181.229 264.383 181.23 264.462 181.23 264.523V267.563H180.406ZM185.336 267.563V261.963H188.928V262.867H186.288V264.219H188.008V265.123H186.288V266.659H189.096V267.563H185.336ZM190.266 267.563V261.963H192.242C192.706 261.963 193.074 262.048 193.346 262.219C193.62 262.39 193.816 262.608 193.934 262.875C194.054 263.139 194.114 263.414 194.114 263.699C194.114 263.899 194.079 264.102 194.01 264.307C193.94 264.51 193.831 264.696 193.682 264.867C193.532 265.038 193.339 265.175 193.102 265.279C192.864 265.383 192.578 265.435 192.242 265.435H191.218V267.563H190.266ZM191.218 264.539H192.29C192.498 264.539 192.664 264.498 192.79 264.415C192.915 264.33 193.006 264.223 193.062 264.095C193.118 263.964 193.146 263.832 193.146 263.699C193.146 263.579 193.12 263.455 193.07 263.327C193.019 263.196 192.931 263.086 192.806 262.995C192.683 262.904 192.511 262.859 192.29 262.859H191.218V264.539ZM195.195 267.563V261.963H196.147V266.651H198.731V267.563H195.195ZM199.701 267.563L201.533 261.963H202.429L204.261 267.563H203.237L202.117 263.803C202.104 263.76 202.088 263.703 202.069 263.631C202.053 263.559 202.037 263.483 202.021 263.403C202.005 263.323 201.992 263.248 201.981 263.179C201.968 263.248 201.953 263.323 201.937 263.403C201.921 263.483 201.905 263.559 201.889 263.631C201.873 263.703 201.858 263.76 201.845 263.803L200.725 267.563H199.701ZM200.885 266.331L201.141 265.467H202.821L203.077 266.331H200.885ZM206.439 267.563V265.371L204.791 261.963H205.847L207.103 264.779H206.719L207.983 261.963H209.031L207.383 265.371V267.563H206.439Z" fill="#333333"/>
<path d="M173.161 290.355V288.855H171.661V287.355H174.661V288.855H179.161V285.855H174.661V284.355H176.161V282.855H177.661V281.355H173.161V279.855H182.161V281.355H180.661V282.855H179.161V284.355H180.661V285.855H182.161V288.855H180.661V290.355H173.161ZM185.161 290.355V288.855H183.661V287.355H186.661V288.855H191.161V284.355H183.661V279.855H192.661V281.355H186.661V282.855H192.661V284.355H194.161V288.855H192.661V290.355H185.161ZM198.661 281.355H197.161V279.855H200.161V282.855H198.661V281.355ZM206.161 279.855V281.355H204.661V279.855H206.161ZM198.661 284.355H195.661V281.355H197.161V282.855H198.661V284.355ZM203.161 281.355H204.661V282.855H203.161V281.355ZM201.661 282.855H203.161V284.355H201.661V282.855ZM200.161 284.355H201.661V285.855H200.161V284.355ZM198.661 285.855H200.161V287.355H198.661V285.855ZM203.161 285.855H206.161V288.855H204.661V287.355H203.161V285.855ZM197.161 287.355H198.661V288.855H197.161V287.355ZM203.161 288.855H204.661V290.355H201.661V287.355H203.161V288.855ZM195.661 288.855H197.161V290.355H195.661V288.855Z" fill="#333333"/>
<path d="M189.611 129.001C218.824 129.001 242.505 105.32 242.505 76.1077C242.505 46.8952 218.824 23.2139 189.611 23.2139C160.399 23.2139 136.717 46.8952 136.717 76.1077C136.717 105.32 160.399 129.001 189.611 129.001Z" fill="url(#paint3_radial_806_22364)"/>
<path d="M174.711 53.6992V48.0992H175.663V52.7872H178.247V53.6992H174.711ZM179.217 53.6992L181.049 48.0992H181.945L183.777 53.6992H182.753L181.633 49.9392C181.619 49.8966 181.603 49.8392 181.585 49.7672C181.569 49.6952 181.553 49.6192 181.537 49.5392C181.521 49.4592 181.507 49.3846 181.497 49.3152C181.483 49.3846 181.469 49.4592 181.453 49.5392C181.437 49.6192 181.421 49.6952 181.405 49.7672C181.389 49.8392 181.374 49.8966 181.361 49.9392L180.241 53.6992H179.217ZM180.401 52.4672L180.657 51.6032H182.337L182.593 52.4672H180.401ZM186.426 53.7952C186.09 53.7952 185.778 53.7246 185.49 53.5832C185.205 53.4419 184.974 53.2086 184.798 52.8832C184.625 52.5579 184.538 52.1179 184.538 51.5632V48.0992H185.482V51.5632C185.482 51.9072 185.522 52.1752 185.602 52.3672C185.685 52.5592 185.797 52.6952 185.938 52.7752C186.082 52.8526 186.245 52.8912 186.426 52.8912C186.605 52.8912 186.765 52.8526 186.906 52.7752C187.05 52.6952 187.164 52.5592 187.246 52.3672C187.329 52.1752 187.37 51.9072 187.37 51.5632V48.0992H188.322V51.5632C188.322 52.1099 188.236 52.5472 188.062 52.8752C187.889 53.2006 187.658 53.4352 187.37 53.5792C187.082 53.7232 186.768 53.7952 186.426 53.7952ZM189.5 53.6992V48.0992H190.404L192.148 51.5552C192.172 51.5979 192.205 51.6592 192.248 51.7392C192.291 51.8192 192.324 51.8859 192.348 51.9392C192.345 51.8699 192.341 51.8006 192.336 51.7312C192.333 51.6619 192.332 51.6032 192.332 51.5552V48.0992H193.212V53.6992H192.348L190.572 50.2272C190.548 50.1819 190.515 50.1192 190.472 50.0392C190.429 49.9592 190.393 49.8939 190.364 49.8432C190.377 49.9019 190.384 49.9672 190.384 50.0392C190.387 50.1112 190.388 50.1739 190.388 50.2272V53.6992H189.5ZM196.382 53.7872C195.976 53.7872 195.632 53.7046 195.35 53.5392C195.067 53.3712 194.839 53.1486 194.666 52.8712C194.492 52.5912 194.366 52.2806 194.286 51.9392C194.206 51.5952 194.166 51.2486 194.166 50.8992C194.166 50.5632 194.206 50.2259 194.286 49.8872C194.368 49.5459 194.498 49.2339 194.674 48.9512C194.85 48.6686 195.078 48.4419 195.358 48.2712C195.64 48.0979 195.982 48.0112 196.382 48.0112C196.696 48.0112 196.968 48.0686 197.198 48.1832C197.43 48.2952 197.622 48.4406 197.774 48.6192C197.926 48.7979 198.04 48.9846 198.118 49.1792L197.27 49.5872C197.163 49.3792 197.042 49.2152 196.906 49.0952C196.772 48.9752 196.598 48.9152 196.382 48.9152C196.155 48.9152 195.963 48.9752 195.806 49.0952C195.648 49.2152 195.52 49.3739 195.422 49.5712C195.326 49.7686 195.256 49.9832 195.214 50.2152C195.171 50.4472 195.15 50.6752 195.15 50.8992C195.15 51.1366 195.174 51.3726 195.222 51.6072C195.272 51.8419 195.347 52.0552 195.446 52.2472C195.547 52.4392 195.675 52.5939 195.83 52.7112C195.987 52.8259 196.171 52.8832 196.382 52.8832C196.598 52.8832 196.776 52.8166 196.918 52.6832C197.059 52.5472 197.179 52.3739 197.278 52.1632L198.142 52.4912C198.04 52.7392 197.91 52.9619 197.75 53.1592C197.592 53.3539 197.4 53.5072 197.174 53.6192C196.947 53.7312 196.683 53.7872 196.382 53.7872ZM199.359 53.6992V48.0992H200.311V50.3632H202.119V48.0992H203.071V53.6992H202.119V51.2592H200.311V53.6992H199.359Z" fill="#333333"/>
<path d="M177.442 67.1629C177.066 67.1629 176.743 67.0842 176.474 66.9269C176.207 66.7669 175.988 66.5509 175.818 66.2789C175.647 66.0069 175.522 65.6976 175.442 65.3509C175.362 65.0042 175.322 64.6429 175.322 64.2669C175.322 63.8909 175.362 63.5296 175.442 63.1829C175.522 62.8362 175.647 62.5269 175.818 62.2549C175.988 61.9829 176.207 61.7682 176.474 61.6109C176.743 61.4509 177.066 61.3709 177.442 61.3709C177.818 61.3709 178.14 61.4509 178.41 61.6109C178.679 61.7682 178.899 61.9829 179.07 62.2549C179.24 62.5269 179.366 62.8362 179.446 63.1829C179.528 63.5296 179.57 63.8909 179.57 64.2669C179.57 64.6429 179.528 65.0042 179.446 65.3509C179.366 65.6976 179.24 66.0069 179.07 66.2789C178.899 66.5509 178.679 66.7669 178.41 66.9269C178.14 67.0842 177.818 67.1629 177.442 67.1629ZM177.442 66.2589C177.639 66.2589 177.81 66.2029 177.954 66.0909C178.098 65.9789 178.215 65.8282 178.306 65.6389C178.399 65.4496 178.467 65.2362 178.51 64.9989C178.555 64.7616 178.578 64.5176 178.578 64.2669C178.578 64.0002 178.555 63.7482 178.51 63.5109C178.467 63.2709 178.4 63.0589 178.31 62.8749C178.219 62.6882 178.102 62.5416 177.958 62.4349C177.814 62.3282 177.642 62.2749 177.442 62.2749C177.242 62.2749 177.07 62.3309 176.926 62.4429C176.782 62.5522 176.664 62.7016 176.574 62.8909C176.483 63.0802 176.415 63.2936 176.37 63.5309C176.327 63.7682 176.306 64.0136 176.306 64.2669C176.306 64.5309 176.327 64.7829 176.37 65.0229C176.415 65.2602 176.483 65.4722 176.574 65.6589C176.664 65.8456 176.782 65.9922 176.926 66.0989C177.07 66.2056 177.242 66.2589 177.442 66.2589ZM180.515 67.0669V61.4669H184.291V62.3709H181.467V63.7229H183.523V64.6269H181.467V67.0669H180.515ZM190.375 67.0669V61.4669H191.279L193.023 64.9229C193.047 64.9656 193.08 65.0269 193.123 65.1069C193.165 65.1869 193.199 65.2536 193.223 65.3069C193.22 65.2376 193.216 65.1682 193.211 65.0989C193.208 65.0296 193.207 64.9709 193.207 64.9229V61.4669H194.087V67.0669H193.223L191.447 63.5949C191.423 63.5496 191.389 63.4869 191.347 63.4069C191.304 63.3269 191.268 63.2616 191.239 63.2109C191.252 63.2696 191.259 63.3349 191.259 63.4069C191.261 63.4789 191.263 63.5416 191.263 63.5949V67.0669H190.375ZM195.304 67.0669V61.4669H198.896V62.3709H196.256V63.7229H197.976V64.6269H196.256V66.1629H199.064V67.0669H195.304ZM200.554 67.0669L199.73 61.4669H200.586L201.026 64.8029C201.031 64.8429 201.041 64.9069 201.054 64.9949C201.067 65.0802 201.077 65.1469 201.082 65.1949C201.09 65.1469 201.102 65.0829 201.118 65.0029C201.137 64.9202 201.151 64.8509 201.162 64.7949L201.834 61.4669H202.346L203.026 64.7789C203.042 64.8536 203.057 64.9229 203.07 64.9869C203.083 65.0482 203.095 65.1096 203.106 65.1709C203.119 65.0936 203.13 65.0269 203.138 64.9709C203.146 64.9122 203.154 64.8509 203.162 64.7869L203.53 61.4669H204.45L203.618 67.0669H202.866L202.154 63.6429C202.138 63.5656 202.123 63.4949 202.11 63.4309C202.099 63.3642 202.09 63.2989 202.082 63.2349C202.074 63.2989 202.063 63.3629 202.05 63.4269C202.039 63.4882 202.026 63.5576 202.01 63.6349L201.306 67.0669H200.554Z" fill="#333333"/>
<path d="M180.178 80.5301C179.8 80.5301 179.47 80.4501 179.19 80.2901C178.913 80.1274 178.684 79.9087 178.502 79.6341C178.324 79.3567 178.19 79.0461 178.102 78.7021C178.014 78.3554 177.97 77.9994 177.97 77.6341C177.97 77.2847 178.016 76.9394 178.106 76.5981C178.197 76.2541 178.334 75.9421 178.518 75.6621C178.702 75.3821 178.932 75.1581 179.206 74.9901C179.484 74.8221 179.808 74.7381 180.178 74.7381C180.496 74.7381 180.762 74.7927 180.978 74.9021C181.197 75.0087 181.38 75.1487 181.526 75.3221C181.673 75.4927 181.8 75.6741 181.906 75.8661L181.066 76.3461C180.968 76.1567 180.848 75.9927 180.706 75.8541C180.568 75.7127 180.392 75.6421 180.178 75.6421C179.954 75.6421 179.765 75.7034 179.61 75.8261C179.456 75.9461 179.33 76.1061 179.234 76.3061C179.138 76.5034 179.069 76.7194 179.026 76.9541C178.984 77.1861 178.962 77.4127 178.962 77.6341C178.962 77.8874 178.986 78.1327 179.034 78.3701C179.085 78.6074 179.16 78.8207 179.258 79.0101C179.357 79.1994 179.482 79.3501 179.634 79.4621C179.789 79.5714 179.97 79.6261 180.178 79.6261C180.474 79.6261 180.696 79.5274 180.842 79.3301C180.992 79.1301 181.066 78.8821 181.066 78.5861V78.4661H180.09V77.5701H182.042V78.3461C182.042 78.8181 181.96 79.2167 181.794 79.5421C181.632 79.8674 181.409 80.1141 181.126 80.2821C180.846 80.4474 180.53 80.5301 180.178 80.5301ZM182.74 80.4341L184.572 74.8341H185.468L187.3 80.4341H186.276L185.156 76.6741C185.143 76.6314 185.127 76.5741 185.108 76.5021C185.092 76.4301 185.076 76.3541 185.06 76.2741C185.044 76.1941 185.031 76.1194 185.02 76.0501C185.007 76.1194 184.992 76.1941 184.976 76.2741C184.96 76.3541 184.944 76.4301 184.928 76.5021C184.912 76.5741 184.897 76.6314 184.884 76.6741L183.764 80.4341H182.74ZM183.924 79.2021L184.18 78.3381H185.86L186.116 79.2021H183.924ZM188.094 80.4341V74.8341H189.022L189.83 77.9061C189.851 77.9861 189.877 78.0807 189.906 78.1901C189.935 78.2967 189.955 78.3861 189.966 78.4581C189.979 78.3861 189.999 78.2967 190.026 78.1901C190.055 78.0807 190.081 77.9861 190.102 77.9061L190.934 74.8341H191.806V80.4341H190.982V77.3941C190.982 77.3327 190.982 77.2541 190.982 77.1581C190.985 77.0621 190.99 76.9861 190.998 76.9301C190.974 76.9967 190.947 77.0714 190.918 77.1541C190.891 77.2367 190.867 77.3167 190.846 77.3941L189.99 80.4341H189.91L189.054 77.3941C189.033 77.3167 189.007 77.2367 188.978 77.1541C188.951 77.0687 188.926 76.9941 188.902 76.9301C188.907 76.9861 188.911 77.0621 188.914 77.1581C188.917 77.2541 188.918 77.3327 188.918 77.3941V80.4341H188.094ZM193.024 80.4341V74.8341H196.616V75.7381H193.976V77.0901H195.696V77.9941H193.976V79.5301H196.784V80.4341H193.024ZM199.873 80.5301C199.569 80.5301 199.284 80.4714 199.017 80.3541C198.753 80.2341 198.523 80.0661 198.325 79.8501C198.128 79.6341 197.98 79.3807 197.881 79.0901L198.745 78.7701C198.865 79.0261 199.033 79.2341 199.249 79.3941C199.468 79.5541 199.703 79.6341 199.953 79.6341C200.193 79.6341 200.389 79.5727 200.541 79.4501C200.693 79.3274 200.769 79.1487 200.769 78.9141C200.769 78.7621 200.716 78.6274 200.609 78.5101C200.503 78.3901 200.361 78.2807 200.185 78.1821C200.012 78.0834 199.823 77.9887 199.617 77.8981C199.439 77.8207 199.259 77.7341 199.077 77.6381C198.899 77.5421 198.733 77.4287 198.581 77.2981C198.432 77.1674 198.311 77.0141 198.217 76.8381C198.127 76.6621 198.081 76.4554 198.081 76.2181C198.081 75.9487 198.152 75.7021 198.293 75.4781C198.435 75.2541 198.635 75.0754 198.893 74.9421C199.152 74.8061 199.457 74.7381 199.809 74.7381C200.231 74.7381 200.592 74.8514 200.893 75.0781C201.197 75.3047 201.399 75.5887 201.497 75.9301L200.641 76.2181C200.561 76.0527 200.447 75.9141 200.297 75.8021C200.148 75.6901 199.967 75.6341 199.753 75.6341C199.553 75.6341 199.384 75.6847 199.245 75.7861C199.109 75.8874 199.041 76.0261 199.041 76.2021C199.041 76.3247 199.08 76.4314 199.157 76.5221C199.237 76.6127 199.353 76.7007 199.505 76.7861C199.66 76.8714 199.849 76.9674 200.073 77.0741C200.255 77.1594 200.441 77.2554 200.633 77.3621C200.825 77.4661 201.004 77.5874 201.169 77.7261C201.337 77.8647 201.472 78.0274 201.573 78.2141C201.677 78.4007 201.729 78.6181 201.729 78.8661C201.729 79.2207 201.643 79.5221 201.469 79.7701C201.299 80.0181 201.072 80.2074 200.789 80.3381C200.509 80.4661 200.204 80.5301 199.873 80.5301Z" fill="#333333"/>
<path d="M173.079 101.161V99.6606H171.579V98.1606H174.579V99.6606H179.079V96.6606H174.579V95.1606H176.079V93.6606H177.579V92.1606H173.079V90.6606H182.079V92.1606H180.579V93.6606H179.079V95.1606H180.579V96.6606H182.079V99.6606H180.579V101.161H173.079ZM186.579 101.161V99.6606H185.079V98.1606H183.579V93.6606H185.079V92.1606H186.579V90.6606H191.079V92.1606H192.579V93.6606H194.079V98.1606H192.579V99.6606H191.079V101.161H186.579ZM188.079 99.6606H191.079V93.6606H189.579V92.1606H186.579V98.1606H188.079V99.6606ZM198.579 92.1606H197.079V90.6606H200.079V93.6606H198.579V92.1606ZM206.079 90.6606V92.1606H204.579V90.6606H206.079ZM198.579 95.1606H195.579V92.1606H197.079V93.6606H198.579V95.1606ZM203.079 92.1606H204.579V93.6606H203.079V92.1606ZM201.579 93.6606H203.079V95.1606H201.579V93.6606ZM200.079 95.1606H201.579V96.6606H200.079V95.1606ZM198.579 96.6606H200.079V98.1606H198.579V96.6606ZM203.079 96.6606H206.079V99.6606H204.579V98.1606H203.079V96.6606ZM197.079 98.1606H198.579V99.6606H197.079V98.1606ZM203.079 99.6606H204.579V101.161H201.579V98.1606H203.079V99.6606ZM195.579 99.6606H197.079V101.161H195.579V99.6606Z" fill="#333333"/>
<path d="M85.4237 113.75C112.54 113.75 134.523 91.7673 134.523 64.6507C134.523 37.5341 112.54 15.5518 85.4237 15.5518C58.3071 15.5518 36.3247 37.5341 36.3247 64.6507C36.3247 91.7673 58.3071 113.75 85.4237 113.75Z" fill="url(#paint4_radial_806_22364)"/>
<path d="M75.5977 53.2485V47.6485H76.5017L78.2457 51.1045C78.2697 51.1472 78.3031 51.2085 78.3457 51.2885C78.3884 51.3685 78.4217 51.4352 78.4457 51.4885C78.4431 51.4192 78.4391 51.3499 78.4337 51.2805C78.4311 51.2112 78.4297 51.1525 78.4297 51.1045V47.6485H79.3097V53.2485H78.4457L76.6697 49.7765C76.6457 49.7312 76.6124 49.6685 76.5697 49.5885C76.5271 49.5085 76.4911 49.4432 76.4617 49.3925C76.4751 49.4512 76.4817 49.5165 76.4817 49.5885C76.4844 49.6605 76.4857 49.7232 76.4857 49.7765V53.2485H75.5977ZM80.5274 53.2485V47.6485H84.1194V48.5525H81.4794V49.9045H83.1994V50.8085H81.4794V52.3445H84.2874V53.2485H80.5274ZM85.7771 53.2485L84.9531 47.6485H85.8091L86.2491 50.9845C86.2545 51.0245 86.2638 51.0885 86.2771 51.1765C86.2905 51.2619 86.2998 51.3285 86.3051 51.3765C86.3131 51.3285 86.3251 51.2645 86.3411 51.1845C86.3598 51.1019 86.3745 51.0325 86.3851 50.9765L87.0571 47.6485H87.5691L88.2491 50.9605C88.2651 51.0352 88.2798 51.1045 88.2931 51.1685C88.3065 51.2299 88.3185 51.2912 88.3291 51.3525C88.3425 51.2752 88.3531 51.2085 88.3611 51.1525C88.3691 51.0939 88.3771 51.0325 88.3851 50.9685L88.7531 47.6485H89.6731L88.8411 53.2485H88.0891L87.3771 49.8245C87.3611 49.7472 87.3465 49.6765 87.3331 49.6125C87.3225 49.5459 87.3131 49.4805 87.3051 49.4165C87.2971 49.4805 87.2865 49.5445 87.2731 49.6085C87.2625 49.6699 87.2491 49.7392 87.2331 49.8165L86.5291 53.2485H85.7771ZM92.3068 53.3445C92.0028 53.3445 91.7175 53.2859 91.4508 53.1685C91.1868 53.0485 90.9561 52.8805 90.7588 52.6645C90.5615 52.4485 90.4135 52.1952 90.3148 51.9045L91.1788 51.5845C91.2988 51.8405 91.4668 52.0485 91.6828 52.2085C91.9015 52.3685 92.1361 52.4485 92.3868 52.4485C92.6268 52.4485 92.8228 52.3872 92.9748 52.2645C93.1268 52.1419 93.2028 51.9632 93.2028 51.7285C93.2028 51.5765 93.1495 51.4419 93.0428 51.3245C92.9361 51.2045 92.7948 51.0952 92.6188 50.9965C92.4455 50.8979 92.2561 50.8032 92.0508 50.7125C91.8721 50.6352 91.6921 50.5485 91.5108 50.4525C91.3321 50.3565 91.1668 50.2432 91.0148 50.1125C90.8655 49.9819 90.7441 49.8285 90.6508 49.6525C90.5601 49.4765 90.5148 49.2699 90.5148 49.0325C90.5148 48.7632 90.5855 48.5165 90.7268 48.2925C90.8681 48.0685 91.0681 47.8899 91.3268 47.7565C91.5855 47.6205 91.8908 47.5525 92.2428 47.5525C92.6641 47.5525 93.0255 47.6659 93.3268 47.8925C93.6308 48.1192 93.8321 48.4032 93.9308 48.7445L93.0748 49.0325C92.9948 48.8672 92.8801 48.7285 92.7308 48.6165C92.5815 48.5045 92.4001 48.4485 92.1868 48.4485C91.9868 48.4485 91.8175 48.4992 91.6788 48.6005C91.5428 48.7019 91.4748 48.8405 91.4748 49.0165C91.4748 49.1392 91.5135 49.2459 91.5908 49.3365C91.6708 49.4272 91.7868 49.5152 91.9388 49.6005C92.0935 49.6859 92.2828 49.7819 92.5068 49.8885C92.6881 49.9739 92.8748 50.0699 93.0668 50.1765C93.2588 50.2805 93.4375 50.4019 93.6028 50.5405C93.7708 50.6792 93.9055 50.8419 94.0068 51.0285C94.1108 51.2152 94.1628 51.4325 94.1628 51.6805C94.1628 52.0352 94.0761 52.3365 93.9028 52.5845C93.7321 52.8325 93.5055 53.0219 93.2228 53.1525C92.9428 53.2805 92.6375 53.3445 92.3068 53.3445Z" fill="#333333"/>
<path d="M67.2798 76.041V73.041H68.7798V71.541H70.2798V70.041H73.2798V68.541H74.7798V67.041H70.2798V68.541H67.2798V67.041H68.7798V65.541H76.2798V67.041H77.7798V70.041H76.2798V71.541H74.7798V73.041H71.7798V74.541H77.7798V76.041H67.2798ZM80.7798 76.041V74.541H79.2798V68.541H80.7798V67.041H82.2798V65.541H88.2798V67.041H83.7798V68.541H82.2798V70.041H88.2798V71.541H89.7798V74.541H88.2798V76.041H80.7798ZM82.2798 74.541H86.7798V71.541H82.2798V74.541ZM94.2798 67.041H92.7798V65.541H95.7798V68.541H94.2798V67.041ZM101.78 65.541V67.041H100.28V65.541H101.78ZM94.2798 70.041H91.2798V67.041H92.7798V68.541H94.2798V70.041ZM98.7798 67.041H100.28V68.541H98.7798V67.041ZM97.2798 68.541H98.7798V70.041H97.2798V68.541ZM95.7798 70.041H97.2798V71.541H95.7798V70.041ZM94.2798 71.541H95.7798V73.041H94.2798V71.541ZM98.7798 71.541H101.78V74.541H100.28V73.041H98.7798V71.541ZM92.7798 73.041H94.2798V74.541H92.7798V73.041ZM98.7798 74.541H100.28V76.041H97.2798V73.041H98.7798V74.541ZM91.2798 74.541H92.7798V76.041H91.2798V74.541Z" fill="#333333"/>
<path d="M83.4055 327.556C108.92 327.556 129.603 306.872 129.603 281.358C129.603 255.843 108.92 235.16 83.4055 235.16C57.8911 235.16 37.2075 255.843 37.2075 281.358C37.2075 306.872 57.8911 327.556 83.4055 327.556Z" fill="url(#paint5_radial_806_22364)"/>
<path d="M53.831 276.257C53.4257 276.257 53.0817 276.175 52.799 276.009C52.5163 275.841 52.2883 275.619 52.115 275.341C51.9417 275.061 51.815 274.751 51.735 274.409C51.655 274.065 51.615 273.719 51.615 273.369C51.615 273.033 51.655 272.696 51.735 272.357C51.8177 272.016 51.947 271.704 52.123 271.421C52.299 271.139 52.527 270.912 52.807 270.741C53.0897 270.568 53.431 270.481 53.831 270.481C54.1457 270.481 54.4177 270.539 54.647 270.653C54.879 270.765 55.071 270.911 55.223 271.089C55.375 271.268 55.4897 271.455 55.567 271.649L54.719 272.057C54.6123 271.849 54.491 271.685 54.355 271.565C54.2217 271.445 54.047 271.385 53.831 271.385C53.6043 271.385 53.4123 271.445 53.255 271.565C53.0977 271.685 52.9697 271.844 52.871 272.041C52.775 272.239 52.7057 272.453 52.663 272.685C52.6203 272.917 52.599 273.145 52.599 273.369C52.599 273.607 52.623 273.843 52.671 274.077C52.7217 274.312 52.7963 274.525 52.895 274.717C52.9963 274.909 53.1243 275.064 53.279 275.181C53.4363 275.296 53.6203 275.353 53.831 275.353C54.047 275.353 54.2257 275.287 54.367 275.153C54.5083 275.017 54.6283 274.844 54.727 274.633L55.591 274.961C55.4897 275.209 55.359 275.432 55.199 275.629C55.0417 275.824 54.8497 275.977 54.623 276.089C54.3963 276.201 54.1323 276.257 53.831 276.257ZM56.8087 276.169V270.569H57.7607V272.833H59.5687V270.569H60.5207V276.169H59.5687V273.729H57.7607V276.169H56.8087ZM61.3144 276.169L63.1464 270.569H64.0424L65.8744 276.169H64.8504L63.7304 272.409C63.717 272.367 63.701 272.309 63.6824 272.237C63.6664 272.165 63.6504 272.089 63.6344 272.009C63.6184 271.929 63.605 271.855 63.5944 271.785C63.581 271.855 63.5664 271.929 63.5504 272.009C63.5344 272.089 63.5184 272.165 63.5024 272.237C63.4864 272.309 63.4717 272.367 63.4584 272.409L62.3384 276.169H61.3144ZM62.4984 274.937L62.7544 274.073H64.4344L64.6904 274.937H62.4984ZM66.6681 276.169V270.569H67.5961L68.4041 273.641C68.4254 273.721 68.4507 273.816 68.4801 273.925C68.5094 274.032 68.5294 274.121 68.5401 274.193C68.5534 274.121 68.5734 274.032 68.6001 273.925C68.6294 273.816 68.6547 273.721 68.6761 273.641L69.5081 270.569H70.3801V276.169H69.5561V273.129C69.5561 273.068 69.5561 272.989 69.5561 272.893C69.5587 272.797 69.5641 272.721 69.5721 272.665C69.5481 272.732 69.5214 272.807 69.4921 272.889C69.4654 272.972 69.4414 273.052 69.4201 273.129L68.5641 276.169H68.4841L67.6281 273.129C67.6067 273.052 67.5814 272.972 67.5521 272.889C67.5254 272.804 67.5001 272.729 67.4761 272.665C67.4814 272.721 67.4854 272.797 67.4881 272.893C67.4907 272.989 67.4921 273.068 67.4921 273.129V276.169H66.6681ZM71.5977 276.169V270.569H73.5737C74.0377 270.569 74.4057 270.655 74.6777 270.825C74.9524 270.996 75.1484 271.215 75.2657 271.481C75.3857 271.745 75.4457 272.02 75.4457 272.305C75.4457 272.505 75.4111 272.708 75.3417 272.913C75.2724 273.116 75.1631 273.303 75.0137 273.473C74.8644 273.644 74.6711 273.781 74.4337 273.885C74.1964 273.989 73.9097 274.041 73.5737 274.041H72.5497V276.169H71.5977ZM72.5497 273.145H73.6217C73.8297 273.145 73.9964 273.104 74.1217 273.021C74.2471 272.936 74.3377 272.829 74.3937 272.701C74.4497 272.571 74.4777 272.439 74.4777 272.305C74.4777 272.185 74.4524 272.061 74.4017 271.933C74.3511 271.803 74.2631 271.692 74.1377 271.601C74.0151 271.511 73.8431 271.465 73.6217 271.465H72.5497V273.145ZM77.9034 276.169V270.569H78.8554V276.169H77.9034ZM76.7354 276.169V275.329H80.0314V276.169H76.7354ZM76.7354 271.409V270.569H80.0314V271.409H76.7354ZM83.3131 276.265C82.9371 276.265 82.6145 276.187 82.3451 276.029C82.0785 275.869 81.8598 275.653 81.6891 275.381C81.5185 275.109 81.3931 274.8 81.3131 274.453C81.2331 274.107 81.1931 273.745 81.1931 273.369C81.1931 272.993 81.2331 272.632 81.3131 272.285C81.3931 271.939 81.5185 271.629 81.6891 271.357C81.8598 271.085 82.0785 270.871 82.3451 270.713C82.6145 270.553 82.9371 270.473 83.3131 270.473C83.6891 270.473 84.0118 270.553 84.2811 270.713C84.5505 270.871 84.7705 271.085 84.9411 271.357C85.1118 271.629 85.2371 271.939 85.3171 272.285C85.3998 272.632 85.4411 272.993 85.4411 273.369C85.4411 273.745 85.3998 274.107 85.3171 274.453C85.2371 274.8 85.1118 275.109 84.9411 275.381C84.7705 275.653 84.5505 275.869 84.2811 276.029C84.0118 276.187 83.6891 276.265 83.3131 276.265ZM83.3131 275.361C83.5105 275.361 83.6811 275.305 83.8251 275.193C83.9691 275.081 84.0865 274.931 84.1771 274.741C84.2705 274.552 84.3385 274.339 84.3811 274.101C84.4265 273.864 84.4491 273.62 84.4491 273.369C84.4491 273.103 84.4265 272.851 84.3811 272.613C84.3385 272.373 84.2718 272.161 84.1811 271.977C84.0905 271.791 83.9731 271.644 83.8291 271.537C83.6851 271.431 83.5131 271.377 83.3131 271.377C83.1131 271.377 82.9411 271.433 82.7971 271.545C82.6531 271.655 82.5358 271.804 82.4451 271.993C82.3545 272.183 82.2865 272.396 82.2411 272.633C82.1985 272.871 82.1771 273.116 82.1771 273.369C82.1771 273.633 82.1985 273.885 82.2411 274.125C82.2865 274.363 82.3545 274.575 82.4451 274.761C82.5358 274.948 82.6531 275.095 82.7971 275.201C82.9411 275.308 83.1131 275.361 83.3131 275.361ZM86.3868 276.169V270.569H87.2908L89.0348 274.025C89.0588 274.068 89.0921 274.129 89.1348 274.209C89.1775 274.289 89.2108 274.356 89.2348 274.409C89.2321 274.34 89.2281 274.271 89.2228 274.201C89.2201 274.132 89.2188 274.073 89.2188 274.025V270.569H90.0988V276.169H89.2348L87.4588 272.697C87.4348 272.652 87.4015 272.589 87.3588 272.509C87.3161 272.429 87.2801 272.364 87.2508 272.313C87.2641 272.372 87.2708 272.437 87.2708 272.509C87.2735 272.581 87.2748 272.644 87.2748 272.697V276.169H86.3868ZM93.2365 276.265C92.9325 276.265 92.6472 276.207 92.3805 276.089C92.1165 275.969 91.8858 275.801 91.6885 275.585C91.4912 275.369 91.3432 275.116 91.2445 274.825L92.1085 274.505C92.2285 274.761 92.3965 274.969 92.6125 275.129C92.8312 275.289 93.0658 275.369 93.3165 275.369C93.5565 275.369 93.7525 275.308 93.9045 275.185C94.0565 275.063 94.1325 274.884 94.1325 274.649C94.1325 274.497 94.0792 274.363 93.9725 274.245C93.8658 274.125 93.7245 274.016 93.5485 273.917C93.3752 273.819 93.1858 273.724 92.9805 273.633C92.8018 273.556 92.6218 273.469 92.4405 273.373C92.2618 273.277 92.0965 273.164 91.9445 273.033C91.7952 272.903 91.6738 272.749 91.5805 272.573C91.4898 272.397 91.4445 272.191 91.4445 271.953C91.4445 271.684 91.5152 271.437 91.6565 271.213C91.7978 270.989 91.9978 270.811 92.2565 270.677C92.5152 270.541 92.8205 270.473 93.1725 270.473C93.5938 270.473 93.9552 270.587 94.2565 270.813C94.5605 271.04 94.7618 271.324 94.8605 271.665L94.0045 271.953C93.9245 271.788 93.8098 271.649 93.6605 271.537C93.5112 271.425 93.3298 271.369 93.1165 271.369C92.9165 271.369 92.7472 271.42 92.6085 271.521C92.4725 271.623 92.4045 271.761 92.4045 271.937C92.4045 272.06 92.4432 272.167 92.5205 272.257C92.6005 272.348 92.7165 272.436 92.8685 272.521C93.0232 272.607 93.2125 272.703 93.4365 272.809C93.6178 272.895 93.8045 272.991 93.9965 273.097C94.1885 273.201 94.3672 273.323 94.5325 273.461C94.7005 273.6 94.8352 273.763 94.9365 273.949C95.0405 274.136 95.0925 274.353 95.0925 274.601C95.0925 274.956 95.0058 275.257 94.8325 275.505C94.6618 275.753 94.4352 275.943 94.1525 276.073C93.8725 276.201 93.5672 276.265 93.2365 276.265ZM96.2462 276.169V270.569H97.1982V272.833H99.0062V270.569H99.9582V276.169H99.0062V273.729H97.1982V276.169H96.2462ZM102.552 276.169V270.569H103.504V276.169H102.552ZM101.384 276.169V275.329H104.68V276.169H101.384ZM101.384 271.409V270.569H104.68V271.409H101.384ZM106.106 276.169V270.569H108.082C108.546 270.569 108.914 270.655 109.186 270.825C109.46 270.996 109.656 271.215 109.774 271.481C109.894 271.745 109.954 272.02 109.954 272.305C109.954 272.505 109.919 272.708 109.85 272.913C109.78 273.116 109.671 273.303 109.522 273.473C109.372 273.644 109.179 273.781 108.942 273.885C108.704 273.989 108.418 274.041 108.082 274.041H107.058V276.169H106.106ZM107.058 273.145H108.13C108.338 273.145 108.504 273.104 108.63 273.021C108.755 272.936 108.846 272.829 108.902 272.701C108.958 272.571 108.986 272.439 108.986 272.305C108.986 272.185 108.96 272.061 108.91 271.933C108.859 271.803 108.771 271.692 108.646 271.601C108.523 271.511 108.351 271.465 108.13 271.465H107.058V273.145ZM112.955 276.265C112.651 276.265 112.366 276.207 112.099 276.089C111.835 275.969 111.605 275.801 111.407 275.585C111.21 275.369 111.062 275.116 110.963 274.825L111.827 274.505C111.947 274.761 112.115 274.969 112.331 275.129C112.55 275.289 112.785 275.369 113.035 275.369C113.275 275.369 113.471 275.308 113.623 275.185C113.775 275.063 113.851 274.884 113.851 274.649C113.851 274.497 113.798 274.363 113.691 274.245C113.585 274.125 113.443 274.016 113.267 273.917C113.094 273.819 112.905 273.724 112.699 273.633C112.521 273.556 112.341 273.469 112.159 273.373C111.981 273.277 111.815 273.164 111.663 273.033C111.514 272.903 111.393 272.749 111.299 272.573C111.209 272.397 111.163 272.191 111.163 271.953C111.163 271.684 111.234 271.437 111.375 271.213C111.517 270.989 111.717 270.811 111.975 270.677C112.234 270.541 112.539 270.473 112.891 270.473C113.313 270.473 113.674 270.587 113.975 270.813C114.279 271.04 114.481 271.324 114.579 271.665L113.723 271.953C113.643 271.788 113.529 271.649 113.379 271.537C113.23 271.425 113.049 271.369 112.835 271.369C112.635 271.369 112.466 271.42 112.327 271.521C112.191 271.623 112.123 271.761 112.123 271.937C112.123 272.06 112.162 272.167 112.239 272.257C112.319 272.348 112.435 272.436 112.587 272.521C112.742 272.607 112.931 272.703 113.155 272.809C113.337 272.895 113.523 272.991 113.715 273.097C113.907 273.201 114.086 273.323 114.251 273.461C114.419 273.6 114.554 273.763 114.655 273.949C114.759 274.136 114.811 274.353 114.811 274.601C114.811 274.956 114.725 275.257 114.551 275.505C114.381 275.753 114.154 275.943 113.871 276.073C113.591 276.201 113.286 276.265 112.955 276.265Z" fill="#404040"/>
<path d="M65.6421 293.525V290.525H67.1421V289.025H68.6421V287.525H71.6421V286.025H73.1421V284.525H68.6421V286.025H65.6421V284.525H67.1421V283.025H74.6421V284.525H76.1421V287.525H74.6421V289.025H73.1421V290.525H70.1421V292.025H76.1421V293.525H65.6421ZM79.1421 293.525V292.025H77.6421V290.525H80.6421V292.025H85.1421V289.025H80.6421V287.525H82.1421V286.025H83.6421V284.525H79.1421V283.025H88.1421V284.525H86.6421V286.025H85.1421V287.525H86.6421V289.025H88.1421V292.025H86.6421V293.525H79.1421ZM92.6421 284.525H91.1421V283.025H94.1421V286.025H92.6421V284.525ZM100.142 283.025V284.525H98.6421V283.025H100.142ZM92.6421 287.525H89.6421V284.525H91.1421V286.025H92.6421V287.525ZM97.1421 284.525H98.6421V286.025H97.1421V284.525ZM95.6421 286.025H97.1421V287.525H95.6421V286.025ZM94.1421 287.525H95.6421V289.025H94.1421V287.525ZM92.6421 289.025H94.1421V290.525H92.6421V289.025ZM97.1421 289.025H100.142V292.025H98.6421V290.525H97.1421V289.025ZM91.1421 290.525H92.6421V292.025H91.1421V290.525ZM97.1421 292.025H98.6421V293.525H95.6421V290.525H97.1421V292.025ZM89.6421 292.025H91.1421V293.525H89.6421V292.025Z" fill="#404040"/>
<path d="M291.163 122.633C316.478 122.633 337 102.111 337 76.7955C337 51.4801 316.478 30.958 291.163 30.958C265.847 30.958 245.325 51.4801 245.325 76.7955C245.325 102.111 265.847 122.633 291.163 122.633Z" fill="url(#paint6_radial_806_22364)"/>
<path d="M283.55 57.8216C283.171 57.8216 282.842 57.7416 282.562 57.5816C282.285 57.4189 282.055 57.2003 281.874 56.9256C281.695 56.6483 281.562 56.3376 281.474 55.9936C281.386 55.6469 281.342 55.2909 281.342 54.9256C281.342 54.5763 281.387 54.2309 281.478 53.8896C281.569 53.5456 281.706 53.2336 281.89 52.9536C282.074 52.6736 282.303 52.4496 282.578 52.2816C282.855 52.1136 283.179 52.0296 283.55 52.0296C283.867 52.0296 284.134 52.0843 284.35 52.1936C284.569 52.3003 284.751 52.4403 284.898 52.6136C285.045 52.7843 285.171 52.9656 285.278 53.1576L284.438 53.6376C284.339 53.4483 284.219 53.2843 284.078 53.1456C283.939 53.0043 283.763 52.9336 283.55 52.9336C283.326 52.9336 283.137 52.9949 282.982 53.1176C282.827 53.2376 282.702 53.3976 282.606 53.5976C282.51 53.7949 282.441 54.0109 282.398 54.2456C282.355 54.4776 282.334 54.7043 282.334 54.9256C282.334 55.1789 282.358 55.4243 282.406 55.6616C282.457 55.8989 282.531 56.1123 282.63 56.3016C282.729 56.4909 282.854 56.6416 283.006 56.7536C283.161 56.8629 283.342 56.9176 283.55 56.9176C283.846 56.9176 284.067 56.8189 284.214 56.6216C284.363 56.4216 284.438 56.1736 284.438 55.8776V55.7576H283.462V54.8616H285.414V55.6376C285.414 56.1096 285.331 56.5083 285.166 56.8336C285.003 57.1589 284.781 57.4056 284.498 57.5736C284.218 57.7389 283.902 57.8216 283.55 57.8216ZM286.112 57.7256L287.944 52.1256H288.84L290.672 57.7256H289.648L288.528 53.9656C288.514 53.9229 288.498 53.8656 288.48 53.7936C288.464 53.7216 288.448 53.6456 288.432 53.5656C288.416 53.4856 288.402 53.4109 288.392 53.3416C288.378 53.4109 288.364 53.4856 288.348 53.5656C288.332 53.6456 288.316 53.7216 288.3 53.7936C288.284 53.8656 288.269 53.9229 288.256 53.9656L287.136 57.7256H286.112ZM287.296 56.4936L287.552 55.6296H289.232L289.488 56.4936H287.296ZM291.465 57.7256V52.1256H292.393L293.201 55.1976C293.223 55.2776 293.248 55.3723 293.277 55.4816C293.307 55.5883 293.327 55.6776 293.337 55.7496C293.351 55.6776 293.371 55.5883 293.397 55.4816C293.427 55.3723 293.452 55.2776 293.473 55.1976L294.305 52.1256H295.177V57.7256H294.353V54.6856C294.353 54.6243 294.353 54.5456 294.353 54.4496C294.356 54.3536 294.361 54.2776 294.369 54.2216C294.345 54.2883 294.319 54.3629 294.289 54.4456C294.263 54.5283 294.239 54.6083 294.217 54.6856L293.361 57.7256H293.281L292.425 54.6856C292.404 54.6083 292.379 54.5283 292.349 54.4456C292.323 54.3603 292.297 54.2856 292.273 54.2216C292.279 54.2776 292.283 54.3536 292.285 54.4496C292.288 54.5456 292.289 54.6243 292.289 54.6856V57.7256H291.465ZM296.395 57.7256V52.1256H299.987V53.0296H297.347V54.3816H299.067V55.2856H297.347V56.8216H300.155V57.7256H296.395Z" fill="#404040"/>
<path d="M274.982 73.0605V67.4605H276.918C277.379 67.4605 277.743 67.5405 278.01 67.7005C278.276 67.8605 278.466 68.0699 278.578 68.3285C278.692 68.5872 278.75 68.8632 278.75 69.1565C278.75 69.3645 278.715 69.5672 278.646 69.7645C278.576 69.9592 278.472 70.1365 278.334 70.2965C278.195 70.4539 278.02 70.5832 277.81 70.6845C277.602 70.7859 277.358 70.8472 277.078 70.8685H275.934V73.0605H274.982ZM277.686 73.0605L276.542 70.7565L277.558 70.6525L278.742 73.0605H277.686ZM275.934 69.9725H276.934C277.147 69.9725 277.315 69.9339 277.438 69.8565C277.56 69.7792 277.647 69.6792 277.698 69.5565C277.748 69.4339 277.774 69.3032 277.774 69.1645C277.774 69.0392 277.75 68.9152 277.702 68.7925C277.654 68.6672 277.568 68.5632 277.446 68.4805C277.326 68.3979 277.155 68.3565 276.934 68.3565H275.934V69.9725ZM279.911 73.0605V67.4605H283.503V68.3645H280.863V69.7165H282.583V70.6205H280.863V72.1565H283.671V73.0605H279.911ZM286.241 73.0605L284.417 67.4605H285.473L286.585 71.2765C286.606 71.3432 286.628 71.4272 286.649 71.5285C286.67 71.6299 286.686 71.7192 286.697 71.7965C286.71 71.7192 286.726 71.6312 286.745 71.5325C286.764 71.4339 286.782 71.3512 286.801 71.2845L287.929 67.4605H288.977L287.153 73.0605H286.241ZM291.147 73.0605V67.4605H292.099V73.0605H291.147ZM289.979 73.0605V72.2205H293.275V73.0605H289.979ZM289.979 68.3005V67.4605H293.275V68.3005H289.979ZM294.7 73.0605V67.4605H298.292V68.3645H295.652V69.7165H297.372V70.6205H295.652V72.1565H298.46V73.0605H294.7ZM299.95 73.0605L299.126 67.4605H299.982L300.422 70.7965C300.427 70.8365 300.437 70.9005 300.45 70.9885C300.463 71.0739 300.473 71.1405 300.478 71.1885C300.486 71.1405 300.498 71.0765 300.514 70.9965C300.533 70.9139 300.547 70.8445 300.558 70.7885L301.23 67.4605H301.742L302.422 70.7725C302.438 70.8472 302.453 70.9165 302.466 70.9805C302.479 71.0419 302.491 71.1032 302.502 71.1645C302.515 71.0872 302.526 71.0205 302.534 70.9645C302.542 70.9059 302.55 70.8445 302.558 70.7805L302.926 67.4605H303.846L303.014 73.0605H302.262L301.55 69.6365C301.534 69.5592 301.519 69.4885 301.506 69.4245C301.495 69.3579 301.486 69.2925 301.478 69.2285C301.47 69.2925 301.459 69.3565 301.446 69.4205C301.435 69.4819 301.422 69.5512 301.406 69.6285L300.702 73.0605H299.95ZM306.48 73.1565C306.176 73.1565 305.89 73.0979 305.624 72.9805C305.36 72.8605 305.129 72.6925 304.932 72.4765C304.734 72.2605 304.586 72.0072 304.488 71.7165L305.352 71.3965C305.472 71.6525 305.64 71.8605 305.856 72.0205C306.074 72.1805 306.309 72.2605 306.56 72.2605C306.8 72.2605 306.996 72.1992 307.148 72.0765C307.3 71.9539 307.376 71.7752 307.376 71.5405C307.376 71.3885 307.322 71.2539 307.216 71.1365C307.109 71.0165 306.968 70.9072 306.792 70.8085C306.618 70.7099 306.429 70.6152 306.224 70.5245C306.045 70.4472 305.865 70.3605 305.684 70.2645C305.505 70.1685 305.34 70.0552 305.188 69.9245C305.038 69.7939 304.917 69.6405 304.824 69.4645C304.733 69.2885 304.688 69.0819 304.688 68.8445C304.688 68.5752 304.758 68.3285 304.9 68.1045C305.041 67.8805 305.241 67.7019 305.5 67.5685C305.758 67.4325 306.064 67.3645 306.416 67.3645C306.837 67.3645 307.198 67.4779 307.5 67.7045C307.804 67.9312 308.005 68.2152 308.104 68.5565L307.248 68.8445C307.168 68.6792 307.053 68.5405 306.904 68.4285C306.754 68.3165 306.573 68.2605 306.36 68.2605C306.16 68.2605 305.99 68.3112 305.852 68.4125C305.716 68.5139 305.648 68.6525 305.648 68.8285C305.648 68.9512 305.686 69.0579 305.764 69.1485C305.844 69.2392 305.96 69.3272 306.112 69.4125C306.266 69.4979 306.456 69.5939 306.68 69.7005C306.861 69.7859 307.048 69.8819 307.24 69.9885C307.432 70.0925 307.61 70.2139 307.776 70.3525C307.944 70.4912 308.078 70.6539 308.18 70.8405C308.284 71.0272 308.336 71.2445 308.336 71.4925C308.336 71.8472 308.249 72.1485 308.076 72.3965C307.905 72.6445 307.678 72.8339 307.396 72.9645C307.116 73.0925 306.81 73.1565 306.48 73.1565Z" fill="#404040"/>
<path d="M273.383 95.853V92.853H274.883V91.353H276.383V89.853H279.383V88.353H280.883V86.853H276.383V88.353H273.383V86.853H274.883V85.353H282.383V86.853H283.883V89.853H282.383V91.353H280.883V92.853H277.883V94.353H283.883V95.853H273.383ZM285.383 95.853V92.853H286.883V91.353H288.383V89.853H291.383V88.353H292.883V86.853H288.383V88.353H285.383V86.853H286.883V85.353H294.383V86.853H295.883V89.853H294.383V91.353H292.883V92.853H289.883V94.353H295.883V95.853H285.383ZM300.383 86.853H298.883V85.353H301.883V88.353H300.383V86.853ZM307.883 85.353V86.853H306.383V85.353H307.883ZM300.383 89.853H297.383V86.853H298.883V88.353H300.383V89.853ZM304.883 86.853H306.383V88.353H304.883V86.853ZM303.383 88.353H304.883V89.853H303.383V88.353ZM301.883 89.853H303.383V91.353H301.883V89.853ZM300.383 91.353H301.883V92.853H300.383V91.353ZM304.883 91.353H307.883V94.353H306.383V92.853H304.883V91.353ZM298.883 92.853H300.383V94.353H298.883V92.853ZM304.883 94.353H306.383V95.853H303.383V92.853H304.883V94.353ZM297.383 94.353H298.883V95.853H297.383V94.353Z" fill="#404040"/>
<path d="M288.197 305.65C309.694 305.65 327.12 288.224 327.12 266.727C327.12 245.231 309.694 227.804 288.197 227.804C266.701 227.804 249.274 245.231 249.274 266.727C249.274 288.224 266.701 305.65 288.197 305.65Z" fill="url(#paint7_radial_806_22364)"/>
<path d="M273.681 246.303V240.703H277.457V241.607H274.633V242.959H276.689V243.863H274.633V246.303H273.681ZM280.467 246.399C280.091 246.399 279.768 246.321 279.499 246.163C279.232 246.003 279.014 245.787 278.843 245.515C278.672 245.243 278.547 244.934 278.467 244.587C278.387 244.241 278.347 243.879 278.347 243.503C278.347 243.127 278.387 242.766 278.467 242.419C278.547 242.073 278.672 241.763 278.843 241.491C279.014 241.219 279.232 241.005 279.499 240.847C279.768 240.687 280.091 240.607 280.467 240.607C280.843 240.607 281.166 240.687 281.435 240.847C281.704 241.005 281.924 241.219 282.095 241.491C282.266 241.763 282.391 242.073 282.471 242.419C282.554 242.766 282.595 243.127 282.595 243.503C282.595 243.879 282.554 244.241 282.471 244.587C282.391 244.934 282.266 245.243 282.095 245.515C281.924 245.787 281.704 246.003 281.435 246.163C281.166 246.321 280.843 246.399 280.467 246.399ZM280.467 245.495C280.664 245.495 280.835 245.439 280.979 245.327C281.123 245.215 281.24 245.065 281.331 244.875C281.424 244.686 281.492 244.473 281.535 244.235C281.58 243.998 281.603 243.754 281.603 243.503C281.603 243.237 281.58 242.985 281.535 242.747C281.492 242.507 281.426 242.295 281.335 242.111C281.244 241.925 281.127 241.778 280.983 241.671C280.839 241.565 280.667 241.511 280.467 241.511C280.267 241.511 280.095 241.567 279.951 241.679C279.807 241.789 279.69 241.938 279.599 242.127C279.508 242.317 279.44 242.53 279.395 242.767C279.352 243.005 279.331 243.25 279.331 243.503C279.331 243.767 279.352 244.019 279.395 244.259C279.44 244.497 279.508 244.709 279.599 244.895C279.69 245.082 279.807 245.229 279.951 245.335C280.095 245.442 280.267 245.495 280.467 245.495ZM283.541 246.303V240.703H284.493V245.391H287.077V246.303H283.541ZM288.47 246.303V240.703H289.422V245.391H292.006V246.303H288.47ZM295.256 246.399C294.88 246.399 294.557 246.321 294.288 246.163C294.021 246.003 293.803 245.787 293.632 245.515C293.461 245.243 293.336 244.934 293.256 244.587C293.176 244.241 293.136 243.879 293.136 243.503C293.136 243.127 293.176 242.766 293.256 242.419C293.336 242.073 293.461 241.763 293.632 241.491C293.803 241.219 294.021 241.005 294.288 240.847C294.557 240.687 294.88 240.607 295.256 240.607C295.632 240.607 295.955 240.687 296.224 240.847C296.493 241.005 296.713 241.219 296.884 241.491C297.055 241.763 297.18 242.073 297.26 242.419C297.343 242.766 297.384 243.127 297.384 243.503C297.384 243.879 297.343 244.241 297.26 244.587C297.18 244.934 297.055 245.243 296.884 245.515C296.713 245.787 296.493 246.003 296.224 246.163C295.955 246.321 295.632 246.399 295.256 246.399ZM295.256 245.495C295.453 245.495 295.624 245.439 295.768 245.327C295.912 245.215 296.029 245.065 296.12 244.875C296.213 244.686 296.281 244.473 296.324 244.235C296.369 243.998 296.392 243.754 296.392 243.503C296.392 243.237 296.369 242.985 296.324 242.747C296.281 242.507 296.215 242.295 296.124 242.111C296.033 241.925 295.916 241.778 295.772 241.671C295.628 241.565 295.456 241.511 295.256 241.511C295.056 241.511 294.884 241.567 294.74 241.679C294.596 241.789 294.479 241.938 294.388 242.127C294.297 242.317 294.229 242.53 294.184 242.767C294.141 243.005 294.12 243.25 294.12 243.503C294.12 243.767 294.141 244.019 294.184 244.259C294.229 244.497 294.297 244.709 294.388 244.895C294.479 245.082 294.596 245.229 294.74 245.335C294.884 245.442 295.056 245.495 295.256 245.495ZM298.65 246.303L297.826 240.703H298.682L299.122 244.039C299.127 244.079 299.136 244.143 299.15 244.231C299.163 244.317 299.172 244.383 299.178 244.431C299.186 244.383 299.198 244.319 299.214 244.239C299.232 244.157 299.247 244.087 299.258 244.031L299.93 240.703H300.442L301.122 244.015C301.138 244.09 301.152 244.159 301.166 244.223C301.179 244.285 301.191 244.346 301.202 244.407C301.215 244.33 301.226 244.263 301.234 244.207C301.242 244.149 301.25 244.087 301.258 244.023L301.626 240.703H302.546L301.714 246.303H300.962L300.25 242.879C300.234 242.802 300.219 242.731 300.206 242.667C300.195 242.601 300.186 242.535 300.178 242.471C300.17 242.535 300.159 242.599 300.146 242.663C300.135 242.725 300.122 242.794 300.106 242.871L299.402 246.303H298.65Z" fill="#333333"/>
<path d="M261.522 256.46V250.86H263.498C263.962 250.86 264.33 250.946 264.602 251.116C264.877 251.287 265.073 251.506 265.19 251.772C265.31 252.036 265.37 252.311 265.37 252.596C265.37 252.796 265.335 252.999 265.266 253.204C265.197 253.407 265.087 253.594 264.938 253.764C264.789 253.935 264.595 254.072 264.358 254.176C264.121 254.28 263.834 254.332 263.498 254.332H262.474V256.46H261.522ZM262.474 253.436H263.546C263.754 253.436 263.921 253.395 264.046 253.312C264.171 253.227 264.262 253.12 264.318 252.992C264.374 252.862 264.402 252.73 264.402 252.596C264.402 252.476 264.377 252.352 264.326 252.224C264.275 252.094 264.187 251.983 264.062 251.892C263.939 251.802 263.767 251.756 263.546 251.756H262.474V253.436ZM266.452 256.46V250.86H270.044V251.764H267.404V253.116H269.124V254.02H267.404V255.556H270.212V256.46H266.452ZM273.237 256.556C272.861 256.556 272.539 256.478 272.269 256.32C272.003 256.16 271.784 255.944 271.613 255.672C271.443 255.4 271.317 255.091 271.237 254.744C271.157 254.398 271.117 254.036 271.117 253.66C271.117 253.284 271.157 252.923 271.237 252.576C271.317 252.23 271.443 251.92 271.613 251.648C271.784 251.376 272.003 251.162 272.269 251.004C272.539 250.844 272.861 250.764 273.237 250.764C273.613 250.764 273.936 250.844 274.205 251.004C274.475 251.162 274.695 251.376 274.865 251.648C275.036 251.92 275.161 252.23 275.241 252.576C275.324 252.923 275.365 253.284 275.365 253.66C275.365 254.036 275.324 254.398 275.241 254.744C275.161 255.091 275.036 255.4 274.865 255.672C274.695 255.944 274.475 256.16 274.205 256.32C273.936 256.478 273.613 256.556 273.237 256.556ZM273.237 255.652C273.435 255.652 273.605 255.596 273.749 255.484C273.893 255.372 274.011 255.222 274.101 255.032C274.195 254.843 274.263 254.63 274.305 254.392C274.351 254.155 274.373 253.911 274.373 253.66C274.373 253.394 274.351 253.142 274.305 252.904C274.263 252.664 274.196 252.452 274.105 252.268C274.015 252.082 273.897 251.935 273.753 251.828C273.609 251.722 273.437 251.668 273.237 251.668C273.037 251.668 272.865 251.724 272.721 251.836C272.577 251.946 272.46 252.095 272.369 252.284C272.279 252.474 272.211 252.687 272.165 252.924C272.123 253.162 272.101 253.407 272.101 253.66C272.101 253.924 272.123 254.176 272.165 254.416C272.211 254.654 272.279 254.866 272.369 255.052C272.46 255.239 272.577 255.386 272.721 255.492C272.865 255.599 273.037 255.652 273.237 255.652ZM276.311 256.46V250.86H278.287C278.751 250.86 279.119 250.946 279.391 251.116C279.666 251.287 279.862 251.506 279.979 251.772C280.099 252.036 280.159 252.311 280.159 252.596C280.159 252.796 280.124 252.999 280.055 253.204C279.986 253.407 279.876 253.594 279.727 253.764C279.578 253.935 279.384 254.072 279.147 254.176C278.91 254.28 278.623 254.332 278.287 254.332H277.263V256.46H276.311ZM277.263 253.436H278.335C278.543 253.436 278.71 253.395 278.835 253.312C278.96 253.227 279.051 253.12 279.107 252.992C279.163 252.862 279.191 252.73 279.191 252.596C279.191 252.476 279.166 252.352 279.115 252.224C279.064 252.094 278.976 251.983 278.851 251.892C278.728 251.802 278.556 251.756 278.335 251.756H277.263V253.436ZM281.241 256.46V250.86H282.193V255.548H284.777V256.46H281.241ZM286.171 256.46V250.86H289.763V251.764H287.123V253.116H288.843V254.02H287.123V255.556H289.931V256.46H286.171ZM297.406 256.46V251.772H295.782V250.86H299.99V251.772H298.358V256.46H297.406ZM300.96 256.46V250.86H301.912V253.124H303.72V250.86H304.672V256.46H303.72V254.02H301.912V256.46H300.96ZM305.465 256.46L307.297 250.86H308.193L310.025 256.46H309.001L307.881 252.7C307.868 252.658 307.852 252.6 307.833 252.528C307.817 252.456 307.801 252.38 307.785 252.3C307.769 252.22 307.756 252.146 307.745 252.076C307.732 252.146 307.717 252.22 307.701 252.3C307.685 252.38 307.669 252.456 307.653 252.528C307.637 252.6 307.623 252.658 307.609 252.7L306.489 256.46H305.465ZM306.649 255.228L306.905 254.364H308.585L308.841 255.228H306.649ZM312.195 256.46V251.772H310.571V250.86H314.779V251.772H313.147V256.46H312.195Z" fill="#333333"/>
<path d="M269.796 266.618V261.018H270.748V266.618H269.796ZM268.628 266.618V265.778H271.924V266.618H268.628ZM268.628 261.858V261.018H271.924V261.858H268.628ZM273.349 266.618V261.018H274.253L275.997 264.474C276.021 264.516 276.055 264.578 276.097 264.658C276.14 264.738 276.173 264.804 276.197 264.858C276.195 264.788 276.191 264.719 276.185 264.65C276.183 264.58 276.181 264.522 276.181 264.474V261.018H277.061V266.618H276.197L274.421 263.146C274.397 263.1 274.364 263.038 274.321 262.958C274.279 262.878 274.243 262.812 274.213 262.762C274.227 262.82 274.233 262.886 274.233 262.958C274.236 263.03 274.237 263.092 274.237 263.146V266.618H273.349ZM279.655 266.618V261.93H278.031V261.018H282.239V261.93H280.607V266.618H279.655ZM283.209 266.618V261.018H286.801V261.922H284.161V263.274H285.881V264.178H284.161V265.714H286.969V266.618H283.209ZM288.138 266.618V261.018H290.074C290.536 261.018 290.9 261.098 291.166 261.258C291.433 261.418 291.622 261.627 291.734 261.886C291.849 262.144 291.906 262.42 291.906 262.714C291.906 262.922 291.872 263.124 291.802 263.322C291.733 263.516 291.629 263.694 291.49 263.854C291.352 264.011 291.177 264.14 290.966 264.242C290.758 264.343 290.514 264.404 290.234 264.426H289.09V266.618H288.138ZM290.842 266.618L289.698 264.314L290.714 264.21L291.898 266.618H290.842ZM289.09 263.53H290.09C290.304 263.53 290.472 263.491 290.594 263.414C290.717 263.336 290.804 263.236 290.854 263.114C290.905 262.991 290.93 262.86 290.93 262.722C290.93 262.596 290.906 262.472 290.858 262.35C290.81 262.224 290.725 262.12 290.602 262.038C290.482 261.955 290.312 261.914 290.09 261.914H289.09V263.53ZM293.068 266.618V261.018H296.66V261.922H294.02V263.274H295.74V264.178H294.02V265.714H296.828V266.618H293.068ZM299.918 266.714C299.614 266.714 299.328 266.655 299.062 266.538C298.798 266.418 298.567 266.25 298.37 266.034C298.172 265.818 298.024 265.564 297.926 265.274L298.79 264.954C298.91 265.21 299.078 265.418 299.294 265.578C299.512 265.738 299.747 265.818 299.998 265.818C300.238 265.818 300.434 265.756 300.586 265.634C300.738 265.511 300.814 265.332 300.814 265.098C300.814 264.946 300.76 264.811 300.654 264.694C300.547 264.574 300.406 264.464 300.23 264.366C300.056 264.267 299.867 264.172 299.662 264.082C299.483 264.004 299.303 263.918 299.122 263.822C298.943 263.726 298.778 263.612 298.626 263.482C298.476 263.351 298.355 263.198 298.262 263.022C298.171 262.846 298.126 262.639 298.126 262.402C298.126 262.132 298.196 261.886 298.338 261.662C298.479 261.438 298.679 261.259 298.938 261.126C299.196 260.99 299.502 260.922 299.854 260.922C300.275 260.922 300.636 261.035 300.938 261.262C301.242 261.488 301.443 261.772 301.542 262.114L300.686 262.402C300.606 262.236 300.491 262.098 300.342 261.986C300.192 261.874 300.011 261.818 299.798 261.818C299.598 261.818 299.428 261.868 299.29 261.97C299.154 262.071 299.086 262.21 299.086 262.386C299.086 262.508 299.124 262.615 299.202 262.706C299.282 262.796 299.398 262.884 299.55 262.97C299.704 263.055 299.894 263.151 300.118 263.258C300.299 263.343 300.486 263.439 300.678 263.546C300.87 263.65 301.048 263.771 301.214 263.91C301.382 264.048 301.516 264.211 301.618 264.398C301.722 264.584 301.774 264.802 301.774 265.05C301.774 265.404 301.687 265.706 301.514 265.954C301.343 266.202 301.116 266.391 300.834 266.522C300.554 266.65 300.248 266.714 299.918 266.714ZM304.303 266.618V261.93H302.679V261.018H306.887V261.93H305.255V266.618H304.303Z" fill="#333333"/>
<path d="M283.222 276.774V271.174H284.15L284.958 274.246C284.979 274.326 285.004 274.421 285.034 274.53C285.063 274.637 285.083 274.726 285.094 274.798C285.107 274.726 285.127 274.637 285.154 274.53C285.183 274.421 285.208 274.326 285.23 274.246L286.062 271.174H286.934V276.774H286.11V273.734C286.11 273.673 286.11 273.594 286.11 273.498C286.112 273.402 286.118 273.326 286.126 273.27C286.102 273.337 286.075 273.412 286.046 273.494C286.019 273.577 285.995 273.657 285.974 273.734L285.118 276.774H285.038L284.182 273.734C284.16 273.657 284.135 273.577 284.106 273.494C284.079 273.409 284.054 273.334 284.03 273.27C284.035 273.326 284.039 273.402 284.042 273.498C284.044 273.594 284.046 273.673 284.046 273.734V276.774H283.222ZM288.151 276.774V271.174H291.743V272.078H289.103V273.43H290.823V274.334H289.103V275.87H291.911V276.774H288.151Z" fill="#333333"/>
<path d="M271.665 294.13V292.63H274.665V286.63H273.165V285.13H274.665V283.63H277.665V292.63H280.665V294.13H271.665ZM283.665 294.13V292.63H282.165V286.63H283.665V285.13H285.165V283.63H291.165V285.13H286.665V286.63H285.165V288.13H291.165V289.63H292.665V292.63H291.165V294.13H283.665ZM285.165 292.63H289.665V289.63H285.165V292.63ZM297.165 285.13H295.665V283.63H298.665V286.63H297.165V285.13ZM304.665 283.63V285.13H303.165V283.63H304.665ZM297.165 288.13H294.165V285.13H295.665V286.63H297.165V288.13ZM301.665 285.13H303.165V286.63H301.665V285.13ZM300.165 286.63H301.665V288.13H300.165V286.63ZM298.665 288.13H300.165V289.63H298.665V288.13ZM297.165 289.63H298.665V291.13H297.165V289.63ZM301.665 289.63H304.665V292.63H303.165V291.13H301.665V289.63ZM295.665 291.13H297.165V292.63H295.665V291.13ZM301.665 292.63H303.165V294.13H300.165V291.13H301.665V292.63ZM294.165 292.63H295.665V294.13H294.165V292.63Z" fill="#333333"/>
<path d="M32.5822 163.177C50.5768 163.177 65.1643 148.589 65.1643 130.595C65.1643 112.6 50.5768 98.0127 32.5822 98.0127C14.5875 98.0127 0 112.6 0 130.595C0 148.589 14.5875 163.177 32.5822 163.177Z" fill="url(#paint8_radial_806_22364)"/>
<path d="M14.4005 114.87V110.182H12.7765V109.27H16.9845V110.182H15.3525V114.87H14.4005ZM17.9542 114.87V109.27H19.8902C20.3515 109.27 20.7155 109.35 20.9822 109.51C21.2489 109.67 21.4382 109.879 21.5502 110.138C21.6649 110.397 21.7222 110.673 21.7222 110.966C21.7222 111.174 21.6875 111.377 21.6182 111.574C21.5489 111.769 21.4449 111.946 21.3062 112.106C21.1675 112.263 20.9929 112.393 20.7822 112.494C20.5742 112.595 20.3302 112.657 20.0502 112.678H18.9062V114.87H17.9542ZM20.6582 114.87L19.5142 112.566L20.5302 112.462L21.7142 114.87H20.6582ZM18.9062 111.782H19.9062C20.1195 111.782 20.2875 111.743 20.4102 111.666C20.5329 111.589 20.6195 111.489 20.6702 111.366C20.7209 111.243 20.7462 111.113 20.7462 110.974C20.7462 110.849 20.7222 110.725 20.6742 110.602C20.6262 110.477 20.5409 110.373 20.4182 110.29C20.2982 110.207 20.1275 110.166 19.9062 110.166H18.9062V111.782ZM22.4599 114.87L24.2919 109.27H25.1879L27.0199 114.87H25.9959L24.8759 111.11C24.8625 111.067 24.8465 111.01 24.8279 110.938C24.8119 110.866 24.7959 110.79 24.7799 110.71C24.7639 110.63 24.7505 110.555 24.7399 110.486C24.7265 110.555 24.7119 110.63 24.6959 110.71C24.6799 110.79 24.6639 110.866 24.6479 110.938C24.6319 111.01 24.6172 111.067 24.6039 111.11L23.4839 114.87H22.4599ZM23.6439 113.638L23.8999 112.774H25.5799L25.8359 113.638H23.6439ZM29.7656 114.958C29.3602 114.958 29.0162 114.875 28.7336 114.71C28.4509 114.542 28.2229 114.319 28.0496 114.042C27.8762 113.762 27.7496 113.451 27.6696 113.11C27.5896 112.766 27.5496 112.419 27.5496 112.07C27.5496 111.734 27.5896 111.397 27.6696 111.058C27.7522 110.717 27.8816 110.405 28.0576 110.122C28.2336 109.839 28.4616 109.613 28.7416 109.442C29.0242 109.269 29.3656 109.182 29.7656 109.182C30.0802 109.182 30.3522 109.239 30.5816 109.354C30.8136 109.466 31.0056 109.611 31.1576 109.79C31.3096 109.969 31.4242 110.155 31.5016 110.35L30.6536 110.758C30.5469 110.55 30.4256 110.386 30.2896 110.266C30.1562 110.146 29.9816 110.086 29.7656 110.086C29.5389 110.086 29.3469 110.146 29.1896 110.266C29.0322 110.386 28.9042 110.545 28.8056 110.742C28.7096 110.939 28.6402 111.154 28.5976 111.386C28.5549 111.618 28.5336 111.846 28.5336 112.07C28.5336 112.307 28.5576 112.543 28.6056 112.778C28.6562 113.013 28.7309 113.226 28.8296 113.418C28.9309 113.61 29.0589 113.765 29.2136 113.882C29.3709 113.997 29.5549 114.054 29.7656 114.054C29.9816 114.054 30.1602 113.987 30.3016 113.854C30.4429 113.718 30.5629 113.545 30.6616 113.334L31.5256 113.662C31.4242 113.91 31.2936 114.133 31.1336 114.33C30.9762 114.525 30.7842 114.678 30.5576 114.79C30.3309 114.902 30.0669 114.958 29.7656 114.958ZM33.6153 112.814V111.486L35.3593 109.27H36.4713L33.6153 112.814ZM32.7433 114.87V109.27H33.6953V114.87H32.7433ZM35.7193 114.87L34.1593 111.95L34.7993 111.15L36.8313 114.87H35.7193ZM39.0489 114.87V109.27H40.0009V114.87H39.0489ZM37.8809 114.87V114.03H41.1769V114.87H37.8809ZM37.8809 110.11V109.27H41.1769V110.11H37.8809ZM42.6026 114.87V109.27H43.5066L45.2506 112.726C45.2746 112.769 45.308 112.83 45.3506 112.91C45.3933 112.99 45.4266 113.057 45.4506 113.11C45.448 113.041 45.444 112.971 45.4386 112.902C45.436 112.833 45.4346 112.774 45.4346 112.726V109.27H46.3146V114.87H45.4506L43.6746 111.398C43.6506 111.353 43.6173 111.29 43.5746 111.21C43.532 111.13 43.496 111.065 43.4666 111.014C43.48 111.073 43.4866 111.138 43.4866 111.21C43.4893 111.282 43.4906 111.345 43.4906 111.398V114.87H42.6026ZM49.4763 114.966C49.0976 114.966 48.7683 114.886 48.4883 114.726C48.211 114.563 47.9816 114.345 47.8003 114.07C47.6216 113.793 47.4883 113.482 47.4003 113.138C47.3123 112.791 47.2683 112.435 47.2683 112.07C47.2683 111.721 47.3136 111.375 47.4043 111.034C47.495 110.69 47.6323 110.378 47.8163 110.098C48.0003 109.818 48.2296 109.594 48.5043 109.426C48.7816 109.258 49.1056 109.174 49.4763 109.174C49.7936 109.174 50.0603 109.229 50.2763 109.338C50.495 109.445 50.6776 109.585 50.8243 109.758C50.971 109.929 51.0977 110.11 51.2043 110.302L50.3643 110.782C50.2656 110.593 50.1456 110.429 50.0043 110.29C49.8656 110.149 49.6896 110.078 49.4763 110.078C49.2523 110.078 49.063 110.139 48.9083 110.262C48.7536 110.382 48.6283 110.542 48.5323 110.742C48.4363 110.939 48.367 111.155 48.3243 111.39C48.2816 111.622 48.2603 111.849 48.2603 112.07C48.2603 112.323 48.2843 112.569 48.3323 112.806C48.383 113.043 48.4576 113.257 48.5563 113.446C48.655 113.635 48.7803 113.786 48.9323 113.898C49.087 114.007 49.2683 114.062 49.4763 114.062C49.7723 114.062 49.9936 113.963 50.1403 113.766C50.2896 113.566 50.3643 113.318 50.3643 113.022V112.902H49.3883V112.006H51.3403V112.782C51.3403 113.254 51.2577 113.653 51.0923 113.978C50.9296 114.303 50.707 114.55 50.4243 114.718C50.1443 114.883 49.8283 114.966 49.4763 114.966Z" fill="#333333"/>
<path d="M22.2159 128.237V123.549H20.5919V122.637H24.7999V123.549H23.1679V128.237H22.2159ZM25.7696 128.237V122.637H29.3616V123.541H26.7216V124.893H28.4416V125.797H26.7216V127.333H29.5296V128.237H25.7696ZM30.2753 128.237L32.1073 122.637H33.0033L34.8353 128.237H33.8113L32.6913 124.477C32.678 124.435 32.662 124.377 32.6433 124.305C32.6273 124.233 32.6113 124.157 32.5953 124.077C32.5793 123.997 32.566 123.923 32.5553 123.853C32.542 123.923 32.5273 123.997 32.5113 124.077C32.4953 124.157 32.4793 124.233 32.4633 124.305C32.4473 124.377 32.4326 124.435 32.4193 124.477L31.2993 128.237H30.2753ZM31.4593 127.005L31.7153 126.141H33.3953L33.6513 127.005H31.4593ZM35.629 128.237V122.637H36.557L37.365 125.709C37.3863 125.789 37.4117 125.884 37.441 125.993C37.4703 126.1 37.4903 126.189 37.501 126.261C37.5143 126.189 37.5343 126.1 37.561 125.993C37.5903 125.884 37.6157 125.789 37.637 125.709L38.469 122.637H39.341V128.237H38.517V125.197C38.517 125.136 38.517 125.057 38.517 124.961C38.5197 124.865 38.525 124.789 38.533 124.733C38.509 124.8 38.4823 124.875 38.453 124.957C38.4263 125.04 38.4023 125.12 38.381 125.197L37.525 128.237H37.445L36.589 125.197C36.5677 125.12 36.5423 125.04 36.513 124.957C36.4863 124.872 36.461 124.797 36.437 124.733C36.4423 124.789 36.4463 124.865 36.449 124.961C36.4517 125.057 36.453 125.136 36.453 125.197V128.237H35.629ZM42.4787 128.333C42.1747 128.333 41.8894 128.275 41.6227 128.157C41.3587 128.037 41.128 127.869 40.9307 127.653C40.7334 127.437 40.5854 127.184 40.4867 126.893L41.3507 126.573C41.4707 126.829 41.6387 127.037 41.8547 127.197C42.0734 127.357 42.308 127.437 42.5587 127.437C42.7987 127.437 42.9947 127.376 43.1467 127.253C43.2987 127.131 43.3747 126.952 43.3747 126.717C43.3747 126.565 43.3214 126.431 43.2147 126.313C43.108 126.193 42.9667 126.084 42.7907 125.985C42.6174 125.887 42.428 125.792 42.2227 125.701C42.044 125.624 41.864 125.537 41.6827 125.441C41.504 125.345 41.3387 125.232 41.1867 125.101C41.0374 124.971 40.916 124.817 40.8227 124.641C40.732 124.465 40.6867 124.259 40.6867 124.021C40.6867 123.752 40.7574 123.505 40.8987 123.281C41.04 123.057 41.24 122.879 41.4987 122.745C41.7574 122.609 42.0627 122.541 42.4147 122.541C42.836 122.541 43.1974 122.655 43.4987 122.881C43.8027 123.108 44.004 123.392 44.1027 123.733L43.2467 124.021C43.1667 123.856 43.052 123.717 42.9027 123.605C42.7534 123.493 42.572 123.437 42.3587 123.437C42.1587 123.437 41.9894 123.488 41.8507 123.589C41.7147 123.691 41.6467 123.829 41.6467 124.005C41.6467 124.128 41.6854 124.235 41.7627 124.325C41.8427 124.416 41.9587 124.504 42.1107 124.589C42.2654 124.675 42.4547 124.771 42.6787 124.877C42.86 124.963 43.0467 125.059 43.2387 125.165C43.4307 125.269 43.6094 125.391 43.7747 125.529C43.9427 125.668 44.0774 125.831 44.1787 126.017C44.2827 126.204 44.3347 126.421 44.3347 126.669C44.3347 127.024 44.248 127.325 44.0747 127.573C43.904 127.821 43.6774 128.011 43.3947 128.141C43.1147 128.269 42.8094 128.333 42.4787 128.333Z" fill="#333333"/>
<path d="M15.5889 148.964V147.464H18.5889V141.464H17.0889V139.964H18.5889V138.464H21.5889V147.464H24.5889V148.964H15.5889ZM27.5889 148.964V147.464H30.5889V141.464H29.0889V139.964H30.5889V138.464H33.5889V147.464H36.5889V148.964H27.5889ZM41.0889 139.964H39.5889V138.464H42.5889V141.464H41.0889V139.964ZM48.5889 138.464V139.964H47.0889V138.464H48.5889ZM41.0889 142.964H38.0889V139.964H39.5889V141.464H41.0889V142.964ZM45.5889 139.964H47.0889V141.464H45.5889V139.964ZM44.0889 141.464H45.5889V142.964H44.0889V141.464ZM42.5889 142.964H44.0889V144.464H42.5889V142.964ZM41.0889 144.464H42.5889V145.964H41.0889V144.464ZM45.5889 144.464H48.5889V147.464H47.0889V145.964H45.5889V144.464ZM39.5889 145.964H41.0889V147.464H39.5889V145.964ZM45.5889 147.464H47.0889V148.964H44.0889V145.964H45.5889V147.464ZM38.0889 147.464H39.5889V148.964H38.0889V147.464Z" fill="#333333"/>
<path d="M40.1487 246.022C54.6099 246.022 66.333 234.299 66.333 219.838C66.333 205.377 54.6099 193.654 40.1487 193.654C25.6875 193.654 13.9644 205.377 13.9644 219.838C13.9644 234.299 25.6875 246.022 40.1487 246.022Z" fill="url(#paint9_radial_806_22364)"/>
<path d="M21.1471 216.213V210.613H23.0831C23.5444 210.613 23.9084 210.693 24.1751 210.853C24.4417 211.013 24.6311 211.223 24.7431 211.481C24.8577 211.74 24.9151 212.016 24.9151 212.309C24.9151 212.517 24.8804 212.72 24.8111 212.917C24.7417 213.112 24.6377 213.289 24.4991 213.449C24.3604 213.607 24.1857 213.736 23.9751 213.837C23.7671 213.939 23.5231 214 23.2431 214.021H22.0991V216.213H21.1471ZM23.8511 216.213L22.7071 213.909L23.7231 213.805L24.9071 216.213H23.8511ZM22.0991 213.125H23.0991C23.3124 213.125 23.4804 213.087 23.6031 213.009C23.7257 212.932 23.8124 212.832 23.8631 212.709C23.9137 212.587 23.9391 212.456 23.9391 212.317C23.9391 212.192 23.9151 212.068 23.8671 211.945C23.8191 211.82 23.7337 211.716 23.6111 211.633C23.4911 211.551 23.3204 211.509 23.0991 211.509H22.0991V213.125ZM27.9328 216.309C27.5568 216.309 27.2341 216.231 26.9648 216.073C26.6981 215.913 26.4794 215.697 26.3088 215.425C26.1381 215.153 26.0128 214.844 25.9328 214.497C25.8528 214.151 25.8128 213.789 25.8128 213.413C25.8128 213.037 25.8528 212.676 25.9328 212.329C26.0128 211.983 26.1381 211.673 26.3088 211.401C26.4794 211.129 26.6981 210.915 26.9648 210.757C27.2341 210.597 27.5568 210.517 27.9328 210.517C28.3088 210.517 28.6314 210.597 28.9008 210.757C29.1701 210.915 29.3901 211.129 29.5608 211.401C29.7314 211.673 29.8568 211.983 29.9368 212.329C30.0194 212.676 30.0608 213.037 30.0608 213.413C30.0608 213.789 30.0194 214.151 29.9368 214.497C29.8568 214.844 29.7314 215.153 29.5608 215.425C29.3901 215.697 29.1701 215.913 28.9008 216.073C28.6314 216.231 28.3088 216.309 27.9328 216.309ZM27.9328 215.405C28.1301 215.405 28.3008 215.349 28.4448 215.237C28.5888 215.125 28.7061 214.975 28.7968 214.785C28.8901 214.596 28.9581 214.383 29.0008 214.145C29.0461 213.908 29.0688 213.664 29.0688 213.413C29.0688 213.147 29.0461 212.895 29.0008 212.657C28.9581 212.417 28.8914 212.205 28.8008 212.021C28.7101 211.835 28.5928 211.688 28.4488 211.581C28.3048 211.475 28.1328 211.421 27.9328 211.421C27.7328 211.421 27.5608 211.477 27.4168 211.589C27.2728 211.699 27.1554 211.848 27.0648 212.037C26.9741 212.227 26.9061 212.44 26.8608 212.677C26.8181 212.915 26.7968 213.16 26.7968 213.413C26.7968 213.677 26.8181 213.929 26.8608 214.169C26.9061 214.407 26.9741 214.619 27.0648 214.805C27.1554 214.992 27.2728 215.139 27.4168 215.245C27.5608 215.352 27.7328 215.405 27.9328 215.405ZM31.0064 216.213V210.613H31.9584V215.301H34.5424V216.213H31.0064ZM35.9361 216.213V210.613H39.5281V211.517H36.8881V212.869H38.6081V213.773H36.8881V215.309H39.6961V216.213H35.9361ZM40.8658 216.213V210.613H42.8418C43.3058 210.613 43.6738 210.699 43.9458 210.869C44.2205 211.04 44.4165 211.259 44.5338 211.525C44.6538 211.789 44.7138 212.064 44.7138 212.349C44.7138 212.549 44.6791 212.752 44.6098 212.957C44.5405 213.16 44.4311 213.347 44.2818 213.517C44.1325 213.688 43.9391 213.825 43.7018 213.929C43.4645 214.033 43.1778 214.085 42.8418 214.085H41.8178V216.213H40.8658ZM41.8178 213.189H42.8898C43.0978 213.189 43.2645 213.148 43.3898 213.065C43.5151 212.98 43.6058 212.873 43.6618 212.745C43.7178 212.615 43.7458 212.483 43.7458 212.349C43.7458 212.229 43.7205 212.105 43.6698 211.977C43.6191 211.847 43.5311 211.736 43.4058 211.645C43.2831 211.555 43.1111 211.509 42.8898 211.509H41.8178V213.189ZM45.7955 216.213V210.613H46.7475V215.301H49.3315V216.213H45.7955ZM50.3012 216.213L52.1332 210.613H53.0292L54.8612 216.213H53.8372L52.7172 212.453C52.7039 212.411 52.6879 212.353 52.6692 212.281C52.6532 212.209 52.6372 212.133 52.6212 212.053C52.6052 211.973 52.5919 211.899 52.5812 211.829C52.5679 211.899 52.5532 211.973 52.5372 212.053C52.5212 212.133 52.5052 212.209 52.4892 212.281C52.4732 212.353 52.4585 212.411 52.4452 212.453L51.3252 216.213H50.3012ZM51.4852 214.981L51.7412 214.117H53.4212L53.6772 214.981H51.4852ZM57.0389 216.213V214.021L55.3909 210.613H56.4469L57.7029 213.429H57.3189L58.5829 210.613H59.6309L57.9829 214.021V216.213H57.0389Z" fill="#333333"/>
<path d="M30.8462 232.201V227.701H32.3462V226.201H33.8462V224.701H35.3462V223.201H30.8462V224.701H27.8462V221.701H38.3462V224.701H36.8462V226.201H35.3462V227.701H33.8462V232.201H30.8462ZM42.8462 223.201H41.3462V221.701H44.3462V224.701H42.8462V223.201ZM50.3462 221.701V223.201H48.8462V221.701H50.3462ZM42.8462 226.201H39.8462V223.201H41.3462V224.701H42.8462V226.201ZM47.3462 223.201H48.8462V224.701H47.3462V223.201ZM45.8462 224.701H47.3462V226.201H45.8462V224.701ZM44.3462 226.201H45.8462V227.701H44.3462V226.201ZM42.8462 227.701H44.3462V229.201H42.8462V227.701ZM47.3462 227.701H50.3462V230.701H48.8462V229.201H47.3462V227.701ZM41.3462 229.201H42.8462V230.701H41.3462V229.201ZM47.3462 230.701H48.8462V232.201H45.8462V229.201H47.3462V230.701ZM39.8462 230.701H41.3462V232.201H39.8462V230.701Z" fill="#333333"/>
<defs>
<radialGradient id="paint0_radial_806_22364" cx="0" cy="0" r="1" gradientUnits="userSpaceOnUse" gradientTransform="translate(121.729 174.886) rotate(90) scale(64.138 64.1381)">
<stop offset="0.625" stop-color="#FF378B" stop-opacity="0"/>
<stop offset="1" stop-color="#FF378B"/>
</radialGradient>
<radialGradient id="paint1_radial_806_22364" cx="0" cy="0" r="1" gradientUnits="userSpaceOnUse" gradientTransform="translate(247.428 174.886) rotate(90) scale(58.7384 58.7384)">
<stop offset="0.625" stop-color="#FF378B" stop-opacity="0"/>
<stop offset="1" stop-color="#FF378B"/>
</radialGradient>
<radialGradient id="paint2_radial_806_22364" cx="0" cy="0" r="1" gradientUnits="userSpaceOnUse" gradientTransform="translate(189.805 278.965) rotate(90) scale(57.4054 57.4054)">
<stop offset="0.625" stop-color="#FF378B" stop-opacity="0"/>
<stop offset="1" stop-color="#FF378B"/>
</radialGradient>
<radialGradient id="paint3_radial_806_22364" cx="0" cy="0" r="1" gradientUnits="userSpaceOnUse" gradientTransform="translate(189.611 76.1077) rotate(90) scale(52.8938 52.8938)">
<stop offset="0.625" stop-color="#FF378B" stop-opacity="0"/>
<stop offset="1" stop-color="#FF378B"/>
</radialGradient>
<radialGradient id="paint4_radial_806_22364" cx="0" cy="0" r="1" gradientUnits="userSpaceOnUse" gradientTransform="translate(85.4237 64.6507) rotate(90) scale(49.099 49.099)">
<stop offset="0.625" stop-color="#FF378B" stop-opacity="0"/>
<stop offset="1" stop-color="#FF378B"/>
</radialGradient>
<radialGradient id="paint5_radial_806_22364" cx="0" cy="0" r="1" gradientUnits="userSpaceOnUse" gradientTransform="translate(83.4055 281.358) rotate(90) scale(46.198 46.198)">
<stop offset="0.625" stop-color="#FF378B" stop-opacity="0"/>
<stop offset="1" stop-color="#FF378B"/>
</radialGradient>
<radialGradient id="paint6_radial_806_22364" cx="0" cy="0" r="1" gradientUnits="userSpaceOnUse" gradientTransform="translate(291.163 76.7955) rotate(90) scale(45.8375 45.8375)">
<stop offset="0.625" stop-color="#FF378B" stop-opacity="0"/>
<stop offset="1" stop-color="#FF378B"/>
</radialGradient>
<radialGradient id="paint7_radial_806_22364" cx="0" cy="0" r="1" gradientUnits="userSpaceOnUse" gradientTransform="translate(288.197 266.727) rotate(90) scale(38.9229 38.9229)">
<stop offset="0.625" stop-color="#FF378B" stop-opacity="0"/>
<stop offset="1" stop-color="#FF378B"/>
</radialGradient>
<radialGradient id="paint8_radial_806_22364" cx="0" cy="0" r="1" gradientUnits="userSpaceOnUse" gradientTransform="translate(32.5822 130.595) rotate(90) scale(32.5821 32.5822)">
<stop offset="0.625" stop-color="#FF378B" stop-opacity="0"/>
<stop offset="1" stop-color="#FF378B"/>
</radialGradient>
<radialGradient id="paint9_radial_806_22364" cx="0" cy="0" r="1" gradientUnits="userSpaceOnUse" gradientTransform="translate(40.1487 219.838) rotate(90) scale(26.1843 26.1843)">
<stop offset="0.625" stop-color="#FF378B" stop-opacity="0"/>
<stop offset="1" stop-color="#FF378B"/>
</radialGradient>
</defs>
</svg>
