<svg width="317" height="204" viewBox="0 0 317 204" fill="none" xmlns="http://www.w3.org/2000/svg">
<path d="M64.5688 109.888V106.624L75.3208 43.2H83.1288V105.28H87.3528V110.848H83.1288V120H76.8568V110.848H65.5288C64.8888 110.848 64.5688 110.528 64.5688 109.888ZM78.7128 48.704L70.4568 105.28H76.9208L79.0968 48.704H78.7128ZM90.4408 120V43.2H96.7128V91.904H98.3767L103.305 52.8H109.577L103.497 94.72L109.577 120.064H103.305L98.3767 97.536H96.7128V120H90.4408Z" fill="#FE016A"/>
<path d="M56.1495 148.436V139.868H56.9895V140.51C57.4255 139.986 57.9855 139.724 58.6695 139.724C59.1735 139.724 59.6095 139.854 59.9775 140.114C60.3455 140.374 60.6295 140.744 60.8295 141.224C61.0295 141.704 61.1295 142.272 61.1295 142.928C61.1295 143.588 61.0275 144.16 60.8235 144.644C60.6235 145.124 60.3355 145.494 59.9595 145.754C59.5875 146.014 59.1455 146.144 58.6335 146.144C58.2895 146.144 57.9795 146.072 57.7035 145.928C57.4275 145.78 57.1895 145.564 56.9895 145.28V148.034L56.1495 148.436ZM58.5495 145.352C59.1015 145.352 59.5255 145.142 59.8215 144.722C60.1175 144.302 60.2655 143.704 60.2655 142.928C60.2655 142.184 60.1095 141.596 59.7975 141.164C59.4895 140.728 59.0735 140.51 58.5495 140.51C58.2215 140.51 57.9215 140.592 57.6495 140.756C57.3775 140.92 57.1575 141.152 56.9895 141.452V144.362C57.2015 144.686 57.4395 144.932 57.7035 145.1C57.9675 145.268 58.2495 145.352 58.5495 145.352ZM62.7326 146V139.868H63.5726V140.84C63.7246 140.48 63.9346 140.204 64.2026 140.012C64.4746 139.82 64.7886 139.724 65.1446 139.724C65.5126 139.724 65.8126 139.822 66.0446 140.018L65.9186 140.816C65.7986 140.732 65.6666 140.67 65.5226 140.63C65.3826 140.59 65.2306 140.57 65.0666 140.57C64.7706 140.57 64.5106 140.654 64.2866 140.822C64.0626 140.99 63.8866 141.224 63.7586 141.524C63.6346 141.82 63.5726 142.166 63.5726 142.562V146H62.7326ZM69.1865 146.144C68.3785 146.144 67.7405 145.858 67.2725 145.286C66.8045 144.71 66.5705 143.928 66.5705 142.94C66.5705 142.28 66.6765 141.71 66.8885 141.23C67.1005 140.75 67.4025 140.38 67.7945 140.12C68.1865 139.856 68.6505 139.724 69.1865 139.724C69.7265 139.724 70.1925 139.854 70.5845 140.114C70.9765 140.37 71.2765 140.738 71.4845 141.218C71.6965 141.698 71.8025 142.268 71.8025 142.928C71.8025 143.588 71.6965 144.16 71.4845 144.644C71.2725 145.124 70.9705 145.494 70.5785 145.754C70.1865 146.014 69.7225 146.144 69.1865 146.144ZM69.1865 145.352C69.7385 145.352 70.1685 145.138 70.4765 144.71C70.7885 144.282 70.9445 143.688 70.9445 142.928C70.9445 142.164 70.7885 141.57 70.4765 141.146C70.1685 140.722 69.7385 140.51 69.1865 140.51C68.6265 140.51 68.1925 140.722 67.8845 141.146C67.5805 141.566 67.4285 142.164 67.4285 142.94C67.4285 143.704 67.5825 144.298 67.8905 144.722C68.1985 145.142 68.6305 145.352 69.1865 145.352ZM73.6442 146V140.606H72.6842V139.868H73.6442V138.818C73.6442 138.378 73.7542 138.042 73.9742 137.81C74.1982 137.574 74.5162 137.456 74.9282 137.456C75.1002 137.456 75.2702 137.478 75.4382 137.522C75.6102 137.566 75.7742 137.63 75.9302 137.714V138.422C75.7662 138.346 75.6202 138.292 75.4922 138.26C75.3642 138.228 75.2342 138.212 75.1022 138.212C74.8822 138.212 74.7242 138.27 74.6282 138.386C74.5322 138.498 74.4842 138.688 74.4842 138.956V139.868H75.9302V140.606H74.4842V146H73.6442ZM79.0778 146.144C78.5338 146.144 78.0638 146.01 77.6678 145.742C77.2758 145.47 76.9738 145.092 76.7618 144.608C76.5498 144.124 76.4438 143.564 76.4438 142.928C76.4438 142.252 76.5538 141.676 76.7738 141.2C76.9978 140.72 77.3078 140.354 77.7038 140.102C78.0998 139.85 78.5578 139.724 79.0778 139.724C79.5298 139.724 79.9398 139.83 80.3078 140.042C80.6758 140.254 80.9678 140.582 81.1838 141.026C81.3998 141.47 81.5078 142.04 81.5078 142.736C81.5078 142.808 81.5058 142.89 81.5018 142.982C81.4978 143.07 81.4918 143.162 81.4838 143.258H77.3138C77.3458 143.682 77.4318 144.054 77.5718 144.374C77.7158 144.69 77.9138 144.94 78.1658 145.124C78.4218 145.304 78.7358 145.394 79.1078 145.394C79.3598 145.394 79.6018 145.35 79.8338 145.262C80.0658 145.17 80.2818 145.03 80.4818 144.842L80.9738 145.406C80.7498 145.618 80.4738 145.794 80.1458 145.934C79.8218 146.074 79.4658 146.144 79.0778 146.144ZM77.3018 142.52H80.6498C80.6498 142.14 80.5918 141.794 80.4758 141.482C80.3638 141.17 80.1898 140.922 79.9538 140.738C79.7218 140.554 79.4298 140.462 79.0778 140.462C78.6018 140.462 78.1958 140.626 77.8598 140.954C77.5278 141.282 77.3418 141.804 77.3018 142.52ZM84.7113 146.144C84.3033 146.144 83.9113 146.056 83.5353 145.88C83.1593 145.704 82.8433 145.46 82.5873 145.148L83.1993 144.626C83.4193 144.866 83.6633 145.052 83.9313 145.184C84.1993 145.316 84.4633 145.382 84.7233 145.382C85.1153 145.382 85.4173 145.302 85.6293 145.142C85.8453 144.982 85.9533 144.758 85.9533 144.47C85.9533 144.29 85.9033 144.126 85.8033 143.978C85.7073 143.83 85.5493 143.692 85.3293 143.564C85.1093 143.432 84.8193 143.298 84.4593 143.162C83.8113 142.922 83.3453 142.66 83.0613 142.376C82.7773 142.088 82.6353 141.732 82.6353 141.308C82.6353 140.836 82.8173 140.454 83.1813 140.162C83.5493 139.87 84.0273 139.724 84.6153 139.724C85.0033 139.724 85.3673 139.8 85.7073 139.952C86.0473 140.1 86.3373 140.314 86.5773 140.594L85.9893 141.086C85.5973 140.686 85.1353 140.486 84.6033 140.486C84.2553 140.486 83.9793 140.56 83.7753 140.708C83.5753 140.852 83.4753 141.052 83.4753 141.308C83.4753 141.544 83.5793 141.748 83.7873 141.92C83.9953 142.088 84.3753 142.274 84.9273 142.478C85.3753 142.646 85.7353 142.824 86.0073 143.012C86.2793 143.196 86.4753 143.406 86.5953 143.642C86.7193 143.878 86.7813 144.15 86.7813 144.458C86.7813 144.982 86.5973 145.394 86.2293 145.694C85.8613 145.994 85.3553 146.144 84.7113 146.144ZM90.1695 146.144C89.7615 146.144 89.3695 146.056 88.9935 145.88C88.6175 145.704 88.3015 145.46 88.0455 145.148L88.6575 144.626C88.8775 144.866 89.1215 145.052 89.3895 145.184C89.6575 145.316 89.9215 145.382 90.1815 145.382C90.5735 145.382 90.8755 145.302 91.0875 145.142C91.3035 144.982 91.4115 144.758 91.4115 144.47C91.4115 144.29 91.3615 144.126 91.2615 143.978C91.1655 143.83 91.0075 143.692 90.7875 143.564C90.5675 143.432 90.2775 143.298 89.9175 143.162C89.2695 142.922 88.8035 142.66 88.5195 142.376C88.2355 142.088 88.0935 141.732 88.0935 141.308C88.0935 140.836 88.2755 140.454 88.6395 140.162C89.0075 139.87 89.4855 139.724 90.0735 139.724C90.4615 139.724 90.8255 139.8 91.1655 139.952C91.5055 140.1 91.7955 140.314 92.0355 140.594L91.4475 141.086C91.0555 140.686 90.5935 140.486 90.0615 140.486C89.7135 140.486 89.4375 140.56 89.2335 140.708C89.0335 140.852 88.9335 141.052 88.9335 141.308C88.9335 141.544 89.0375 141.748 89.2455 141.92C89.4535 142.088 89.8335 142.274 90.3855 142.478C90.8335 142.646 91.1935 142.824 91.4655 143.012C91.7375 143.196 91.9335 143.406 92.0535 143.642C92.1775 143.878 92.2395 144.15 92.2395 144.458C92.2395 144.982 92.0555 145.394 91.6875 145.694C91.3195 145.994 90.8135 146.144 90.1695 146.144ZM93.9116 146V139.868H94.7516V146H93.9116ZM94.3256 138.638C94.1736 138.638 94.0436 138.584 93.9356 138.476C93.8316 138.368 93.7796 138.238 93.7796 138.086C93.7796 137.926 93.8316 137.792 93.9356 137.684C94.0436 137.572 94.1736 137.516 94.3256 137.516C94.4856 137.516 94.6176 137.572 94.7216 137.684C94.8296 137.792 94.8836 137.926 94.8836 138.086C94.8836 138.238 94.8296 138.368 94.7216 138.476C94.6176 138.584 94.4856 138.638 94.3256 138.638ZM99.029 146.144C98.221 146.144 97.583 145.858 97.115 145.286C96.647 144.71 96.413 143.928 96.413 142.94C96.413 142.28 96.519 141.71 96.731 141.23C96.943 140.75 97.245 140.38 97.637 140.12C98.029 139.856 98.493 139.724 99.029 139.724C99.569 139.724 100.035 139.854 100.427 140.114C100.819 140.37 101.119 140.738 101.327 141.218C101.539 141.698 101.645 142.268 101.645 142.928C101.645 143.588 101.539 144.16 101.327 144.644C101.115 145.124 100.813 145.494 100.421 145.754C100.029 146.014 99.565 146.144 99.029 146.144ZM99.029 145.352C99.581 145.352 100.011 145.138 100.319 144.71C100.631 144.282 100.787 143.688 100.787 142.928C100.787 142.164 100.631 141.57 100.319 141.146C100.011 140.722 99.581 140.51 99.029 140.51C98.469 140.51 98.035 140.722 97.727 141.146C97.423 141.566 97.271 142.164 97.271 142.94C97.271 143.704 97.425 144.298 97.733 144.722C98.041 145.142 98.473 145.352 99.029 145.352ZM103.245 146V139.868H104.085V140.654C104.257 140.354 104.485 140.124 104.769 139.964C105.057 139.804 105.383 139.724 105.747 139.724C106.463 139.724 106.995 139.946 107.343 140.39C107.691 140.83 107.865 141.5 107.865 142.4V146H107.025V142.25C107.025 141.678 106.905 141.244 106.665 140.948C106.425 140.648 106.077 140.498 105.621 140.498C105.117 140.498 104.735 140.652 104.475 140.96C104.215 141.268 104.085 141.722 104.085 142.322V146H103.245ZM111.603 146.144C110.955 146.144 110.447 145.964 110.079 145.604C109.711 145.24 109.527 144.74 109.527 144.104C109.527 143.696 109.617 143.342 109.797 143.042C109.981 142.742 110.239 142.512 110.571 142.352C110.907 142.188 111.303 142.106 111.759 142.106C112.059 142.106 112.345 142.144 112.617 142.22C112.893 142.296 113.159 142.41 113.415 142.562V141.974C113.415 141.454 113.301 141.072 113.073 140.828C112.849 140.584 112.499 140.462 112.023 140.462C111.739 140.462 111.437 140.516 111.117 140.624C110.801 140.728 110.501 140.876 110.217 141.068L109.971 140.36C110.295 140.156 110.645 140 111.021 139.892C111.397 139.78 111.765 139.724 112.125 139.724C112.813 139.724 113.333 139.904 113.685 140.264C114.037 140.624 114.213 141.154 114.213 141.854V146H113.415V145.304C113.171 145.572 112.891 145.78 112.575 145.928C112.263 146.072 111.939 146.144 111.603 146.144ZM111.711 145.406C112.019 145.406 112.319 145.326 112.611 145.166C112.903 145.002 113.171 144.768 113.415 144.464V143.318C113.179 143.166 112.923 143.05 112.647 142.97C112.375 142.886 112.111 142.844 111.855 142.844C111.395 142.844 111.027 142.96 110.751 143.192C110.479 143.42 110.343 143.726 110.343 144.11C110.343 144.506 110.465 144.822 110.709 145.058C110.953 145.29 111.287 145.406 111.711 145.406ZM116.09 146V137.738L116.93 137.336V146H116.09ZM68.5629 162.436V153.868H69.4029V154.51C69.8389 153.986 70.3989 153.724 71.0829 153.724C71.5869 153.724 72.0229 153.854 72.3909 154.114C72.7589 154.374 73.0429 154.744 73.2429 155.224C73.4429 155.704 73.5429 156.272 73.5429 156.928C73.5429 157.588 73.4409 158.16 73.2369 158.644C73.0369 159.124 72.7489 159.494 72.3729 159.754C72.0009 160.014 71.5589 160.144 71.0469 160.144C70.7029 160.144 70.3929 160.072 70.1169 159.928C69.8409 159.78 69.6029 159.564 69.4029 159.28V162.034L68.5629 162.436ZM70.9629 159.352C71.5149 159.352 71.9389 159.142 72.2349 158.722C72.5309 158.302 72.6789 157.704 72.6789 156.928C72.6789 156.184 72.5229 155.596 72.2109 155.164C71.9029 154.728 71.4869 154.51 70.9629 154.51C70.6349 154.51 70.3349 154.592 70.0629 154.756C69.7909 154.92 69.5709 155.152 69.4029 155.452V158.362C69.6149 158.686 69.8529 158.932 70.1169 159.1C70.3809 159.268 70.6629 159.352 70.9629 159.352ZM75.2349 160V151.738L76.0749 151.336V160H75.2349ZM79.8592 160.144C79.2112 160.144 78.7032 159.964 78.3352 159.604C77.9672 159.24 77.7832 158.74 77.7832 158.104C77.7832 157.696 77.8732 157.342 78.0532 157.042C78.2372 156.742 78.4952 156.512 78.8272 156.352C79.1632 156.188 79.5592 156.106 80.0152 156.106C80.3152 156.106 80.6012 156.144 80.8732 156.22C81.1492 156.296 81.4152 156.41 81.6712 156.562V155.974C81.6712 155.454 81.5572 155.072 81.3292 154.828C81.1052 154.584 80.7552 154.462 80.2792 154.462C79.9952 154.462 79.6932 154.516 79.3732 154.624C79.0572 154.728 78.7572 154.876 78.4732 155.068L78.2272 154.36C78.5512 154.156 78.9012 154 79.2772 153.892C79.6532 153.78 80.0212 153.724 80.3812 153.724C81.0692 153.724 81.5892 153.904 81.9412 154.264C82.2932 154.624 82.4692 155.154 82.4692 155.854V160H81.6712V159.304C81.4272 159.572 81.1472 159.78 80.8312 159.928C80.5192 160.072 80.1952 160.144 79.8592 160.144ZM79.9672 159.406C80.2752 159.406 80.5752 159.326 80.8672 159.166C81.1592 159.002 81.4272 158.768 81.6712 158.464V157.318C81.4352 157.166 81.1792 157.05 80.9032 156.97C80.6312 156.886 80.3672 156.844 80.1112 156.844C79.6512 156.844 79.2832 156.96 79.0072 157.192C78.7352 157.42 78.5992 157.726 78.5992 158.11C78.5992 158.506 78.7212 158.822 78.9652 159.058C79.2092 159.29 79.5432 159.406 79.9672 159.406ZM84.9307 162.328L85.8547 159.85L83.6107 153.868H84.4507L86.0587 158.266C86.0987 158.37 86.1327 158.468 86.1607 158.56C86.1927 158.652 86.2247 158.752 86.2567 158.86C86.2887 158.752 86.3207 158.652 86.3527 158.56C86.3847 158.468 86.4187 158.37 86.4547 158.266L88.0807 153.868H88.9387L85.7767 162.328H84.9307ZM92.4991 160.144C91.9551 160.144 91.4851 160.01 91.0891 159.742C90.6971 159.47 90.3951 159.092 90.1831 158.608C89.9711 158.124 89.8651 157.564 89.8651 156.928C89.8651 156.252 89.9751 155.676 90.1951 155.2C90.4191 154.72 90.7291 154.354 91.1251 154.102C91.5211 153.85 91.9791 153.724 92.4991 153.724C92.9511 153.724 93.3611 153.83 93.7291 154.042C94.0971 154.254 94.3891 154.582 94.6051 155.026C94.8211 155.47 94.9291 156.04 94.9291 156.736C94.9291 156.808 94.9271 156.89 94.9231 156.982C94.9191 157.07 94.9131 157.162 94.9051 157.258H90.7351C90.7671 157.682 90.8531 158.054 90.9931 158.374C91.1371 158.69 91.3351 158.94 91.5871 159.124C91.8431 159.304 92.1571 159.394 92.5291 159.394C92.7811 159.394 93.0231 159.35 93.2551 159.262C93.4871 159.17 93.7031 159.03 93.9031 158.842L94.3951 159.406C94.1711 159.618 93.8951 159.794 93.5671 159.934C93.2431 160.074 92.8871 160.144 92.4991 160.144ZM90.7231 156.52H94.0711C94.0711 156.14 94.0131 155.794 93.8971 155.482C93.7851 155.17 93.6111 154.922 93.3751 154.738C93.1431 154.554 92.8511 154.462 92.4991 154.462C92.0231 154.462 91.6171 154.626 91.2811 154.954C90.9491 155.282 90.7631 155.804 90.7231 156.52ZM96.6035 160V153.868H97.4435V154.84C97.5955 154.48 97.8055 154.204 98.0735 154.012C98.3455 153.82 98.6595 153.724 99.0155 153.724C99.3835 153.724 99.6835 153.822 99.9155 154.018L99.7895 154.816C99.6695 154.732 99.5375 154.67 99.3935 154.63C99.2535 154.59 99.1015 154.57 98.9375 154.57C98.6415 154.57 98.3815 154.654 98.1575 154.822C97.9335 154.99 97.7575 155.224 97.6295 155.524C97.5055 155.82 97.4435 156.166 97.4435 156.562V160H96.6035ZM102.747 160.144C102.339 160.144 101.947 160.056 101.571 159.88C101.195 159.704 100.879 159.46 100.623 159.148L101.235 158.626C101.455 158.866 101.699 159.052 101.967 159.184C102.235 159.316 102.499 159.382 102.759 159.382C103.151 159.382 103.453 159.302 103.665 159.142C103.881 158.982 103.989 158.758 103.989 158.47C103.989 158.29 103.939 158.126 103.839 157.978C103.743 157.83 103.585 157.692 103.365 157.564C103.145 157.432 102.855 157.298 102.495 157.162C101.847 156.922 101.381 156.66 101.097 156.376C100.813 156.088 100.671 155.732 100.671 155.308C100.671 154.836 100.853 154.454 101.217 154.162C101.585 153.87 102.063 153.724 102.651 153.724C103.039 153.724 103.403 153.8 103.743 153.952C104.083 154.1 104.373 154.314 104.613 154.594L104.025 155.086C103.633 154.686 103.171 154.486 102.639 154.486C102.291 154.486 102.015 154.56 101.811 154.708C101.611 154.852 101.511 155.052 101.511 155.308C101.511 155.544 101.615 155.748 101.823 155.92C102.031 156.088 102.411 156.274 102.963 156.478C103.411 156.646 103.771 156.824 104.043 157.012C104.315 157.196 104.511 157.406 104.631 157.642C104.755 157.878 104.817 158.15 104.817 158.458C104.817 158.982 104.633 159.394 104.265 159.694C103.897 159.994 103.391 160.144 102.747 160.144Z" fill="#FE016A"/>
<path d="M188.472 63.744V52.608L195.512 43.2H200.12C204.472 43.2 207.16 46.528 207.16 50.624V62.016C206.712 62.464 202.36 67.2 201.848 67.776C205.88 69.248 207.096 71.104 207.096 74.816L207.16 110.016L200.056 120H195.704C189.944 120 188.472 115.456 188.472 109.376V76.736C188.856 76.16 192.952 70.528 193.4 69.824C190.648 69.184 188.472 67.52 188.472 63.744ZM197.624 66.56H198.712L200.888 63.296V50.176C200.888 48.512 200.12 47.296 198.008 47.296H196.92L194.808 50.624L194.744 63.744C194.744 65.6 195.768 66.56 197.624 66.56ZM197.24 115.2H198.712L200.888 111.936V72.96C200.888 72.128 200.312 70.4 198.52 70.4H196.856L194.744 73.664V112.256C194.744 114.368 195.96 115.2 197.24 115.2ZM210.795 120V110.08H218.347V119.232L215.019 127.872H212.075L214.763 120H210.795ZM239.45 62.336H234.138V50.88C234.138 48.896 233.242 48 231.258 48H229.978L227.994 50.944V66.368H233.178C237.53 66.368 240.41 69.376 240.41 73.856V110.08L233.37 120H228.954C224.602 120 221.722 116.992 221.722 112.512V53.12L228.826 43.2H233.242C237.914 43.2 240.41 45.696 240.41 50.368V61.376C240.41 62.016 240.09 62.336 239.45 62.336ZM230.874 115.2H232.154L234.138 112.256V74.112C234.138 72.128 233.178 71.168 231.258 71.168H227.994V112.256C227.994 114.24 229.018 115.2 230.874 115.2ZM243.41 120V43.2H249.682V91.904H251.345L256.274 52.8H262.546L256.466 94.72L262.546 120.064H256.274L251.345 97.536H249.682V120H243.41Z" fill="#FE016A"/>
<path d="M178.375 148.436V139.868H179.215V140.51C179.651 139.986 180.211 139.724 180.895 139.724C181.399 139.724 181.835 139.854 182.203 140.114C182.571 140.374 182.855 140.744 183.055 141.224C183.255 141.704 183.355 142.272 183.355 142.928C183.355 143.588 183.253 144.16 183.049 144.644C182.849 145.124 182.561 145.494 182.185 145.754C181.813 146.014 181.371 146.144 180.859 146.144C180.515 146.144 180.205 146.072 179.929 145.928C179.653 145.78 179.415 145.564 179.215 145.28V148.034L178.375 148.436ZM180.775 145.352C181.327 145.352 181.751 145.142 182.047 144.722C182.343 144.302 182.491 143.704 182.491 142.928C182.491 142.184 182.335 141.596 182.023 141.164C181.715 140.728 181.299 140.51 180.775 140.51C180.447 140.51 180.147 140.592 179.875 140.756C179.603 140.92 179.383 141.152 179.215 141.452V144.362C179.427 144.686 179.665 144.932 179.929 145.1C180.193 145.268 180.475 145.352 180.775 145.352ZM184.958 146V139.868H185.798V140.84C185.95 140.48 186.16 140.204 186.428 140.012C186.7 139.82 187.014 139.724 187.37 139.724C187.738 139.724 188.038 139.822 188.27 140.018L188.144 140.816C188.024 140.732 187.892 140.67 187.748 140.63C187.608 140.59 187.456 140.57 187.292 140.57C186.996 140.57 186.736 140.654 186.512 140.822C186.288 140.99 186.112 141.224 185.984 141.524C185.86 141.82 185.798 142.166 185.798 142.562V146H184.958ZM191.412 146.144C190.604 146.144 189.966 145.858 189.498 145.286C189.03 144.71 188.796 143.928 188.796 142.94C188.796 142.28 188.902 141.71 189.114 141.23C189.326 140.75 189.628 140.38 190.02 140.12C190.412 139.856 190.876 139.724 191.412 139.724C191.952 139.724 192.418 139.854 192.81 140.114C193.202 140.37 193.502 140.738 193.71 141.218C193.922 141.698 194.028 142.268 194.028 142.928C194.028 143.588 193.922 144.16 193.71 144.644C193.498 145.124 193.196 145.494 192.804 145.754C192.412 146.014 191.948 146.144 191.412 146.144ZM191.412 145.352C191.964 145.352 192.394 145.138 192.702 144.71C193.014 144.282 193.17 143.688 193.17 142.928C193.17 142.164 193.014 141.57 192.702 141.146C192.394 140.722 191.964 140.51 191.412 140.51C190.852 140.51 190.418 140.722 190.11 141.146C189.806 141.566 189.654 142.164 189.654 142.94C189.654 143.704 189.808 144.298 190.116 144.722C190.424 145.142 190.856 145.352 191.412 145.352ZM195.869 146V140.606H194.909V139.868H195.869V138.818C195.869 138.378 195.979 138.042 196.199 137.81C196.423 137.574 196.741 137.456 197.153 137.456C197.325 137.456 197.495 137.478 197.663 137.522C197.835 137.566 197.999 137.63 198.155 137.714V138.422C197.991 138.346 197.845 138.292 197.717 138.26C197.589 138.228 197.459 138.212 197.327 138.212C197.107 138.212 196.949 138.27 196.853 138.386C196.757 138.498 196.709 138.688 196.709 138.956V139.868H198.155V140.606H196.709V146H195.869ZM201.303 146.144C200.759 146.144 200.289 146.01 199.893 145.742C199.501 145.47 199.199 145.092 198.987 144.608C198.775 144.124 198.669 143.564 198.669 142.928C198.669 142.252 198.779 141.676 198.999 141.2C199.223 140.72 199.533 140.354 199.929 140.102C200.325 139.85 200.783 139.724 201.303 139.724C201.755 139.724 202.165 139.83 202.533 140.042C202.901 140.254 203.193 140.582 203.409 141.026C203.625 141.47 203.733 142.04 203.733 142.736C203.733 142.808 203.731 142.89 203.727 142.982C203.723 143.07 203.717 143.162 203.709 143.258H199.539C199.571 143.682 199.657 144.054 199.797 144.374C199.941 144.69 200.139 144.94 200.391 145.124C200.647 145.304 200.961 145.394 201.333 145.394C201.585 145.394 201.827 145.35 202.059 145.262C202.291 145.17 202.507 145.03 202.707 144.842L203.199 145.406C202.975 145.618 202.699 145.794 202.371 145.934C202.047 146.074 201.691 146.144 201.303 146.144ZM199.527 142.52H202.875C202.875 142.14 202.817 141.794 202.701 141.482C202.589 141.17 202.415 140.922 202.179 140.738C201.947 140.554 201.655 140.462 201.303 140.462C200.827 140.462 200.421 140.626 200.085 140.954C199.753 141.282 199.567 141.804 199.527 142.52ZM206.937 146.144C206.529 146.144 206.137 146.056 205.761 145.88C205.385 145.704 205.069 145.46 204.813 145.148L205.425 144.626C205.645 144.866 205.889 145.052 206.157 145.184C206.425 145.316 206.689 145.382 206.949 145.382C207.341 145.382 207.643 145.302 207.855 145.142C208.071 144.982 208.179 144.758 208.179 144.47C208.179 144.29 208.129 144.126 208.029 143.978C207.933 143.83 207.775 143.692 207.555 143.564C207.335 143.432 207.045 143.298 206.685 143.162C206.037 142.922 205.571 142.66 205.287 142.376C205.003 142.088 204.861 141.732 204.861 141.308C204.861 140.836 205.043 140.454 205.407 140.162C205.775 139.87 206.253 139.724 206.841 139.724C207.229 139.724 207.593 139.8 207.933 139.952C208.273 140.1 208.563 140.314 208.803 140.594L208.215 141.086C207.823 140.686 207.361 140.486 206.829 140.486C206.481 140.486 206.205 140.56 206.001 140.708C205.801 140.852 205.701 141.052 205.701 141.308C205.701 141.544 205.805 141.748 206.013 141.92C206.221 142.088 206.601 142.274 207.153 142.478C207.601 142.646 207.961 142.824 208.233 143.012C208.505 143.196 208.701 143.406 208.821 143.642C208.945 143.878 209.007 144.15 209.007 144.458C209.007 144.982 208.823 145.394 208.455 145.694C208.087 145.994 207.581 146.144 206.937 146.144ZM212.395 146.144C211.987 146.144 211.595 146.056 211.219 145.88C210.843 145.704 210.527 145.46 210.271 145.148L210.883 144.626C211.103 144.866 211.347 145.052 211.615 145.184C211.883 145.316 212.147 145.382 212.407 145.382C212.799 145.382 213.101 145.302 213.313 145.142C213.529 144.982 213.637 144.758 213.637 144.47C213.637 144.29 213.587 144.126 213.487 143.978C213.391 143.83 213.233 143.692 213.013 143.564C212.793 143.432 212.503 143.298 212.143 143.162C211.495 142.922 211.029 142.66 210.745 142.376C210.461 142.088 210.319 141.732 210.319 141.308C210.319 140.836 210.501 140.454 210.865 140.162C211.233 139.87 211.711 139.724 212.299 139.724C212.687 139.724 213.051 139.8 213.391 139.952C213.731 140.1 214.021 140.314 214.261 140.594L213.673 141.086C213.281 140.686 212.819 140.486 212.287 140.486C211.939 140.486 211.663 140.56 211.459 140.708C211.259 140.852 211.159 141.052 211.159 141.308C211.159 141.544 211.263 141.748 211.471 141.92C211.679 142.088 212.059 142.274 212.611 142.478C213.059 142.646 213.419 142.824 213.691 143.012C213.963 143.196 214.159 143.406 214.279 143.642C214.403 143.878 214.465 144.15 214.465 144.458C214.465 144.982 214.281 145.394 213.913 145.694C213.545 145.994 213.039 146.144 212.395 146.144ZM216.137 146V139.868H216.977V146H216.137ZM216.551 138.638C216.399 138.638 216.269 138.584 216.161 138.476C216.057 138.368 216.005 138.238 216.005 138.086C216.005 137.926 216.057 137.792 216.161 137.684C216.269 137.572 216.399 137.516 216.551 137.516C216.711 137.516 216.843 137.572 216.947 137.684C217.055 137.792 217.109 137.926 217.109 138.086C217.109 138.238 217.055 138.368 216.947 138.476C216.843 138.584 216.711 138.638 216.551 138.638ZM221.254 146.144C220.446 146.144 219.808 145.858 219.34 145.286C218.872 144.71 218.638 143.928 218.638 142.94C218.638 142.28 218.744 141.71 218.956 141.23C219.168 140.75 219.47 140.38 219.862 140.12C220.254 139.856 220.718 139.724 221.254 139.724C221.794 139.724 222.26 139.854 222.652 140.114C223.044 140.37 223.344 140.738 223.552 141.218C223.764 141.698 223.87 142.268 223.87 142.928C223.87 143.588 223.764 144.16 223.552 144.644C223.34 145.124 223.038 145.494 222.646 145.754C222.254 146.014 221.79 146.144 221.254 146.144ZM221.254 145.352C221.806 145.352 222.236 145.138 222.544 144.71C222.856 144.282 223.012 143.688 223.012 142.928C223.012 142.164 222.856 141.57 222.544 141.146C222.236 140.722 221.806 140.51 221.254 140.51C220.694 140.51 220.26 140.722 219.952 141.146C219.648 141.566 219.496 142.164 219.496 142.94C219.496 143.704 219.65 144.298 219.958 144.722C220.266 145.142 220.698 145.352 221.254 145.352ZM225.47 146V139.868H226.31V140.654C226.482 140.354 226.71 140.124 226.994 139.964C227.282 139.804 227.608 139.724 227.972 139.724C228.688 139.724 229.22 139.946 229.568 140.39C229.916 140.83 230.09 141.5 230.09 142.4V146H229.25V142.25C229.25 141.678 229.13 141.244 228.89 140.948C228.65 140.648 228.302 140.498 227.846 140.498C227.342 140.498 226.96 140.652 226.7 140.96C226.44 141.268 226.31 141.722 226.31 142.322V146H225.47ZM233.828 146.144C233.18 146.144 232.672 145.964 232.304 145.604C231.936 145.24 231.752 144.74 231.752 144.104C231.752 143.696 231.842 143.342 232.022 143.042C232.206 142.742 232.464 142.512 232.796 142.352C233.132 142.188 233.528 142.106 233.984 142.106C234.284 142.106 234.57 142.144 234.842 142.22C235.118 142.296 235.384 142.41 235.64 142.562V141.974C235.64 141.454 235.526 141.072 235.298 140.828C235.074 140.584 234.724 140.462 234.248 140.462C233.964 140.462 233.662 140.516 233.342 140.624C233.026 140.728 232.726 140.876 232.442 141.068L232.196 140.36C232.52 140.156 232.87 140 233.246 139.892C233.622 139.78 233.99 139.724 234.35 139.724C235.038 139.724 235.558 139.904 235.91 140.264C236.262 140.624 236.438 141.154 236.438 141.854V146H235.64V145.304C235.396 145.572 235.116 145.78 234.8 145.928C234.488 146.072 234.164 146.144 233.828 146.144ZM233.936 145.406C234.244 145.406 234.544 145.326 234.836 145.166C235.128 145.002 235.396 144.768 235.64 144.464V143.318C235.404 143.166 235.148 143.05 234.872 142.97C234.6 142.886 234.336 142.844 234.08 142.844C233.62 142.844 233.252 142.96 232.976 143.192C232.704 143.42 232.568 143.726 232.568 144.11C232.568 144.506 232.69 144.822 232.934 145.058C233.178 145.29 233.512 145.406 233.936 145.406ZM238.315 146V137.738L239.155 137.336V146H238.315ZM242.964 146.144C242.556 146.144 242.164 146.056 241.788 145.88C241.412 145.704 241.096 145.46 240.84 145.148L241.452 144.626C241.672 144.866 241.916 145.052 242.184 145.184C242.452 145.316 242.716 145.382 242.976 145.382C243.368 145.382 243.67 145.302 243.882 145.142C244.098 144.982 244.206 144.758 244.206 144.47C244.206 144.29 244.156 144.126 244.056 143.978C243.96 143.83 243.802 143.692 243.582 143.564C243.362 143.432 243.072 143.298 242.712 143.162C242.064 142.922 241.598 142.66 241.314 142.376C241.03 142.088 240.888 141.732 240.888 141.308C240.888 140.836 241.07 140.454 241.434 140.162C241.802 139.87 242.28 139.724 242.868 139.724C243.256 139.724 243.62 139.8 243.96 139.952C244.3 140.1 244.59 140.314 244.83 140.594L244.242 141.086C243.85 140.686 243.388 140.486 242.856 140.486C242.508 140.486 242.232 140.56 242.028 140.708C241.828 140.852 241.728 141.052 241.728 141.308C241.728 141.544 241.832 141.748 242.04 141.92C242.248 142.088 242.628 142.274 243.18 142.478C243.628 142.646 243.988 142.824 244.26 143.012C244.532 143.196 244.728 143.406 244.848 143.642C244.972 143.878 245.034 144.15 245.034 144.458C245.034 144.982 244.85 145.394 244.482 145.694C244.114 145.994 243.608 146.144 242.964 146.144ZM249.628 146V140.606H248.668V139.868H249.628V138.818C249.628 138.378 249.738 138.042 249.958 137.81C250.182 137.574 250.5 137.456 250.912 137.456C251.084 137.456 251.254 137.478 251.422 137.522C251.594 137.566 251.758 137.63 251.914 137.714V138.422C251.75 138.346 251.604 138.292 251.476 138.26C251.348 138.228 251.218 138.212 251.086 138.212C250.866 138.212 250.708 138.27 250.612 138.386C250.516 138.498 250.468 138.688 250.468 138.956V139.868H251.914V140.606H250.468V146H249.628ZM253.11 146V139.868H253.95V140.84C254.102 140.48 254.312 140.204 254.58 140.012C254.852 139.82 255.166 139.724 255.522 139.724C255.89 139.724 256.19 139.822 256.422 140.018L256.296 140.816C256.176 140.732 256.044 140.67 255.9 140.63C255.76 140.59 255.608 140.57 255.444 140.57C255.148 140.57 254.888 140.654 254.664 140.822C254.44 140.99 254.264 141.224 254.136 141.524C254.012 141.82 253.95 142.166 253.95 142.562V146H253.11ZM259.564 146.144C258.756 146.144 258.118 145.858 257.65 145.286C257.182 144.71 256.948 143.928 256.948 142.94C256.948 142.28 257.054 141.71 257.266 141.23C257.478 140.75 257.78 140.38 258.172 140.12C258.564 139.856 259.028 139.724 259.564 139.724C260.104 139.724 260.57 139.854 260.962 140.114C261.354 140.37 261.654 140.738 261.862 141.218C262.074 141.698 262.18 142.268 262.18 142.928C262.18 143.588 262.074 144.16 261.862 144.644C261.65 145.124 261.348 145.494 260.956 145.754C260.564 146.014 260.1 146.144 259.564 146.144ZM259.564 145.352C260.116 145.352 260.546 145.138 260.854 144.71C261.166 144.282 261.322 143.688 261.322 142.928C261.322 142.164 261.166 141.57 260.854 141.146C260.546 140.722 260.116 140.51 259.564 140.51C259.004 140.51 258.57 140.722 258.262 141.146C257.958 141.566 257.806 142.164 257.806 142.94C257.806 143.704 257.96 144.298 258.268 144.722C258.576 145.142 259.008 145.352 259.564 145.352ZM263.78 146V139.868H264.62V140.588C264.796 140.308 265.026 140.094 265.31 139.946C265.594 139.798 265.912 139.724 266.264 139.724C266.652 139.724 266.99 139.82 267.278 140.012C267.57 140.204 267.786 140.474 267.926 140.822C268.098 140.478 268.342 140.21 268.658 140.018C268.978 139.822 269.334 139.724 269.726 139.724C270.362 139.724 270.868 139.922 271.244 140.318C271.62 140.71 271.808 141.242 271.808 141.914V146H270.968V142.238C270.968 141.67 270.854 141.238 270.626 140.942C270.398 140.646 270.068 140.498 269.636 140.498C269.352 140.498 269.102 140.572 268.886 140.72C268.674 140.868 268.508 141.076 268.388 141.344C268.268 141.608 268.208 141.914 268.208 142.262V146H267.368V142.238C267.368 141.666 267.258 141.234 267.038 140.942C266.818 140.646 266.49 140.498 266.054 140.498C265.61 140.498 265.26 140.656 265.004 140.972C264.748 141.284 264.62 141.712 264.62 142.256V146H263.78ZM182.376 160.144C181.568 160.144 180.93 159.858 180.462 159.286C179.994 158.71 179.76 157.928 179.76 156.94C179.76 156.28 179.866 155.71 180.078 155.23C180.29 154.75 180.592 154.38 180.984 154.12C181.376 153.856 181.84 153.724 182.376 153.724C182.916 153.724 183.382 153.854 183.774 154.114C184.166 154.37 184.466 154.738 184.674 155.218C184.886 155.698 184.992 156.268 184.992 156.928C184.992 157.588 184.886 158.16 184.674 158.644C184.462 159.124 184.16 159.494 183.768 159.754C183.376 160.014 182.912 160.144 182.376 160.144ZM182.376 159.352C182.928 159.352 183.358 159.138 183.666 158.71C183.978 158.282 184.134 157.688 184.134 156.928C184.134 156.164 183.978 155.57 183.666 155.146C183.358 154.722 182.928 154.51 182.376 154.51C181.816 154.51 181.382 154.722 181.074 155.146C180.77 155.566 180.618 156.164 180.618 156.94C180.618 157.704 180.772 158.298 181.08 158.722C181.388 159.142 181.82 159.352 182.376 159.352ZM188.13 160.144C187.726 160.144 187.418 160.022 187.206 159.778C186.998 159.53 186.894 159.172 186.894 158.704V154.606H185.88V153.868H186.894V151.744L187.734 151.336V153.868H189.258V154.606H187.734V158.452C187.734 158.772 187.786 159.004 187.89 159.148C187.998 159.288 188.17 159.358 188.406 159.358C188.694 159.358 188.996 159.254 189.312 159.046L189.216 159.874C189.056 159.966 188.884 160.034 188.7 160.078C188.516 160.122 188.326 160.144 188.13 160.144ZM190.621 160V151.726L191.461 151.336V154.66C191.633 154.36 191.863 154.13 192.151 153.97C192.439 153.806 192.763 153.724 193.123 153.724C193.639 153.724 194.051 153.834 194.359 154.054C194.671 154.27 194.895 154.578 195.031 154.978C195.171 155.378 195.241 155.852 195.241 156.4V160H194.401V156.25C194.401 155.722 194.289 155.298 194.065 154.978C193.845 154.658 193.489 154.498 192.997 154.498C192.493 154.498 192.111 154.652 191.851 154.96C191.591 155.268 191.461 155.722 191.461 156.322V160H190.621ZM199.648 160.144C199.104 160.144 198.634 160.01 198.238 159.742C197.846 159.47 197.544 159.092 197.332 158.608C197.12 158.124 197.014 157.564 197.014 156.928C197.014 156.252 197.124 155.676 197.344 155.2C197.568 154.72 197.878 154.354 198.274 154.102C198.67 153.85 199.128 153.724 199.648 153.724C200.1 153.724 200.51 153.83 200.878 154.042C201.246 154.254 201.538 154.582 201.754 155.026C201.97 155.47 202.078 156.04 202.078 156.736C202.078 156.808 202.076 156.89 202.072 156.982C202.068 157.07 202.062 157.162 202.054 157.258H197.884C197.916 157.682 198.002 158.054 198.142 158.374C198.286 158.69 198.484 158.94 198.736 159.124C198.992 159.304 199.306 159.394 199.678 159.394C199.93 159.394 200.172 159.35 200.404 159.262C200.636 159.17 200.852 159.03 201.052 158.842L201.544 159.406C201.32 159.618 201.044 159.794 200.716 159.934C200.392 160.074 200.036 160.144 199.648 160.144ZM197.872 156.52H201.22C201.22 156.14 201.162 155.794 201.046 155.482C200.934 155.17 200.76 154.922 200.524 154.738C200.292 154.554 200 154.462 199.648 154.462C199.172 154.462 198.766 154.626 198.43 154.954C198.098 155.282 197.912 155.804 197.872 156.52ZM203.752 160V153.868H204.592V154.84C204.744 154.48 204.954 154.204 205.222 154.012C205.494 153.82 205.808 153.724 206.164 153.724C206.532 153.724 206.832 153.822 207.064 154.018L206.938 154.816C206.818 154.732 206.686 154.67 206.542 154.63C206.402 154.59 206.25 154.57 206.086 154.57C205.79 154.57 205.53 154.654 205.306 154.822C205.082 154.99 204.906 155.224 204.778 155.524C204.654 155.82 204.592 156.166 204.592 156.562V160H203.752ZM212.634 160.144C211.986 160.144 211.478 159.964 211.11 159.604C210.742 159.24 210.558 158.74 210.558 158.104C210.558 157.696 210.648 157.342 210.828 157.042C211.012 156.742 211.27 156.512 211.602 156.352C211.938 156.188 212.334 156.106 212.79 156.106C213.09 156.106 213.376 156.144 213.648 156.22C213.924 156.296 214.19 156.41 214.446 156.562V155.974C214.446 155.454 214.332 155.072 214.104 154.828C213.88 154.584 213.53 154.462 213.054 154.462C212.77 154.462 212.468 154.516 212.148 154.624C211.832 154.728 211.532 154.876 211.248 155.068L211.002 154.36C211.326 154.156 211.676 154 212.052 153.892C212.428 153.78 212.796 153.724 213.156 153.724C213.844 153.724 214.364 153.904 214.716 154.264C215.068 154.624 215.244 155.154 215.244 155.854V160H214.446V159.304C214.202 159.572 213.922 159.78 213.606 159.928C213.294 160.072 212.97 160.144 212.634 160.144ZM212.742 159.406C213.05 159.406 213.35 159.326 213.642 159.166C213.934 159.002 214.202 158.768 214.446 158.464V157.318C214.21 157.166 213.954 157.05 213.678 156.97C213.406 156.886 213.142 156.844 212.886 156.844C212.426 156.844 212.058 156.96 211.782 157.192C211.51 157.42 211.374 157.726 211.374 158.11C211.374 158.506 211.496 158.822 211.74 159.058C211.984 159.29 212.318 159.406 212.742 159.406ZM217.22 160V153.868H218.06V154.84C218.212 154.48 218.422 154.204 218.69 154.012C218.962 153.82 219.276 153.724 219.632 153.724C220 153.724 220.3 153.822 220.532 154.018L220.406 154.816C220.286 154.732 220.154 154.67 220.01 154.63C219.87 154.59 219.718 154.57 219.554 154.57C219.258 154.57 218.998 154.654 218.774 154.822C218.55 154.99 218.374 155.224 218.246 155.524C218.122 155.82 218.06 156.166 218.06 156.562V160H217.22ZM223.692 160.144C223.148 160.144 222.678 160.01 222.282 159.742C221.89 159.47 221.588 159.092 221.376 158.608C221.164 158.124 221.058 157.564 221.058 156.928C221.058 156.252 221.168 155.676 221.388 155.2C221.612 154.72 221.922 154.354 222.318 154.102C222.714 153.85 223.172 153.724 223.692 153.724C224.144 153.724 224.554 153.83 224.922 154.042C225.29 154.254 225.582 154.582 225.798 155.026C226.014 155.47 226.122 156.04 226.122 156.736C226.122 156.808 226.12 156.89 226.116 156.982C226.112 157.07 226.106 157.162 226.098 157.258H221.928C221.96 157.682 222.046 158.054 222.186 158.374C222.33 158.69 222.528 158.94 222.78 159.124C223.036 159.304 223.35 159.394 223.722 159.394C223.974 159.394 224.216 159.35 224.448 159.262C224.68 159.17 224.896 159.03 225.096 158.842L225.588 159.406C225.364 159.618 225.088 159.794 224.76 159.934C224.436 160.074 224.08 160.144 223.692 160.144ZM221.916 156.52H225.264C225.264 156.14 225.206 155.794 225.09 155.482C224.978 155.17 224.804 154.922 224.568 154.738C224.336 154.554 224.044 154.462 223.692 154.462C223.216 154.462 222.81 154.626 222.474 154.954C222.142 155.282 221.956 155.804 221.916 156.52ZM229.36 160.144C228.712 160.144 228.204 159.964 227.836 159.604C227.468 159.24 227.284 158.74 227.284 158.104C227.284 157.696 227.374 157.342 227.554 157.042C227.738 156.742 227.996 156.512 228.328 156.352C228.664 156.188 229.06 156.106 229.516 156.106C229.816 156.106 230.102 156.144 230.374 156.22C230.65 156.296 230.916 156.41 231.172 156.562V155.974C231.172 155.454 231.058 155.072 230.83 154.828C230.606 154.584 230.256 154.462 229.78 154.462C229.496 154.462 229.194 154.516 228.874 154.624C228.558 154.728 228.258 154.876 227.974 155.068L227.728 154.36C228.052 154.156 228.402 154 228.778 153.892C229.154 153.78 229.522 153.724 229.882 153.724C230.57 153.724 231.09 153.904 231.442 154.264C231.794 154.624 231.97 155.154 231.97 155.854V160H231.172V159.304C230.928 159.572 230.648 159.78 230.332 159.928C230.02 160.072 229.696 160.144 229.36 160.144ZM229.468 159.406C229.776 159.406 230.076 159.326 230.368 159.166C230.66 159.002 230.928 158.768 231.172 158.464V157.318C230.936 157.166 230.68 157.05 230.404 156.97C230.132 156.886 229.868 156.844 229.612 156.844C229.152 156.844 228.784 156.96 228.508 157.192C228.236 157.42 228.1 157.726 228.1 158.11C228.1 158.506 228.222 158.822 228.466 159.058C228.71 159.29 229.044 159.406 229.468 159.406ZM235.546 160.144C235.138 160.144 234.746 160.056 234.37 159.88C233.994 159.704 233.678 159.46 233.422 159.148L234.034 158.626C234.254 158.866 234.498 159.052 234.766 159.184C235.034 159.316 235.298 159.382 235.558 159.382C235.95 159.382 236.252 159.302 236.464 159.142C236.68 158.982 236.788 158.758 236.788 158.47C236.788 158.29 236.738 158.126 236.638 157.978C236.542 157.83 236.384 157.692 236.164 157.564C235.944 157.432 235.654 157.298 235.294 157.162C234.646 156.922 234.18 156.66 233.896 156.376C233.612 156.088 233.47 155.732 233.47 155.308C233.47 154.836 233.652 154.454 234.016 154.162C234.384 153.87 234.862 153.724 235.45 153.724C235.838 153.724 236.202 153.8 236.542 153.952C236.882 154.1 237.172 154.314 237.412 154.594L236.824 155.086C236.432 154.686 235.97 154.486 235.438 154.486C235.09 154.486 234.814 154.56 234.61 154.708C234.41 154.852 234.31 155.052 234.31 155.308C234.31 155.544 234.414 155.748 234.622 155.92C234.83 156.088 235.21 156.274 235.762 156.478C236.21 156.646 236.57 156.824 236.842 157.012C237.114 157.196 237.31 157.406 237.43 157.642C237.554 157.878 237.616 158.15 237.616 158.458C237.616 158.982 237.432 159.394 237.064 159.694C236.696 159.994 236.19 160.144 235.546 160.144ZM243.625 160.144C242.977 160.144 242.469 159.964 242.101 159.604C241.733 159.24 241.549 158.74 241.549 158.104C241.549 157.696 241.639 157.342 241.819 157.042C242.003 156.742 242.261 156.512 242.593 156.352C242.929 156.188 243.325 156.106 243.781 156.106C244.081 156.106 244.367 156.144 244.639 156.22C244.915 156.296 245.181 156.41 245.437 156.562V155.974C245.437 155.454 245.323 155.072 245.095 154.828C244.871 154.584 244.521 154.462 244.045 154.462C243.761 154.462 243.459 154.516 243.139 154.624C242.823 154.728 242.523 154.876 242.239 155.068L241.993 154.36C242.317 154.156 242.667 154 243.043 153.892C243.419 153.78 243.787 153.724 244.147 153.724C244.835 153.724 245.355 153.904 245.707 154.264C246.059 154.624 246.235 155.154 246.235 155.854V160H245.437V159.304C245.193 159.572 244.913 159.78 244.597 159.928C244.285 160.072 243.961 160.144 243.625 160.144ZM243.733 159.406C244.041 159.406 244.341 159.326 244.633 159.166C244.925 159.002 245.193 158.768 245.437 158.464V157.318C245.201 157.166 244.945 157.05 244.669 156.97C244.397 156.886 244.133 156.844 243.877 156.844C243.417 156.844 243.049 156.96 242.773 157.192C242.501 157.42 242.365 157.726 242.365 158.11C242.365 158.506 242.487 158.822 242.731 159.058C242.975 159.29 243.309 159.406 243.733 159.406ZM249.503 160.144C249.099 160.144 248.791 160.022 248.579 159.778C248.371 159.53 248.267 159.172 248.267 158.704V154.606H247.253V153.868H248.267V151.744L249.107 151.336V153.868H250.631V154.606H249.107V158.452C249.107 158.772 249.159 159.004 249.263 159.148C249.371 159.288 249.543 159.358 249.779 159.358C250.067 159.358 250.369 159.254 250.685 159.046L250.589 159.874C250.429 159.966 250.257 160.034 250.073 160.078C249.889 160.122 249.699 160.144 249.503 160.144ZM256.482 160.144C256.078 160.144 255.77 160.022 255.558 159.778C255.35 159.53 255.246 159.172 255.246 158.704V154.606H254.232V153.868H255.246V151.744L256.086 151.336V153.868H257.61V154.606H256.086V158.452C256.086 158.772 256.138 159.004 256.242 159.148C256.35 159.288 256.522 159.358 256.758 159.358C257.046 159.358 257.348 159.254 257.664 159.046L257.568 159.874C257.408 159.966 257.236 160.034 257.052 160.078C256.868 160.122 256.678 160.144 256.482 160.144ZM258.972 160V151.726L259.812 151.336V154.66C259.984 154.36 260.214 154.13 260.502 153.97C260.79 153.806 261.114 153.724 261.474 153.724C261.99 153.724 262.402 153.834 262.71 154.054C263.022 154.27 263.246 154.578 263.382 154.978C263.522 155.378 263.592 155.852 263.592 156.4V160H262.752V156.25C262.752 155.722 262.64 155.298 262.416 154.978C262.196 154.658 261.84 154.498 261.348 154.498C260.844 154.498 260.462 154.652 260.202 154.96C259.942 155.268 259.812 155.722 259.812 156.322V160H258.972ZM267.999 160.144C267.455 160.144 266.985 160.01 266.589 159.742C266.197 159.47 265.895 159.092 265.683 158.608C265.471 158.124 265.365 157.564 265.365 156.928C265.365 156.252 265.475 155.676 265.695 155.2C265.919 154.72 266.229 154.354 266.625 154.102C267.021 153.85 267.479 153.724 267.999 153.724C268.451 153.724 268.861 153.83 269.229 154.042C269.597 154.254 269.889 154.582 270.105 155.026C270.321 155.47 270.429 156.04 270.429 156.736C270.429 156.808 270.427 156.89 270.423 156.982C270.419 157.07 270.413 157.162 270.405 157.258H266.235C266.267 157.682 266.353 158.054 266.493 158.374C266.637 158.69 266.835 158.94 267.087 159.124C267.343 159.304 267.657 159.394 268.029 159.394C268.281 159.394 268.523 159.35 268.755 159.262C268.987 159.17 269.203 159.03 269.403 158.842L269.895 159.406C269.671 159.618 269.395 159.794 269.067 159.934C268.743 160.074 268.387 160.144 267.999 160.144ZM266.223 156.52H269.571C269.571 156.14 269.513 155.794 269.397 155.482C269.285 155.17 269.111 154.922 268.875 154.738C268.643 154.554 268.351 154.462 267.999 154.462C267.523 154.462 267.117 154.626 266.781 154.954C266.449 155.282 266.263 155.804 266.223 156.52ZM210.412 176.556L209.998 175.884C210.554 175.852 211.008 175.772 211.36 175.644C211.712 175.52 211.972 175.342 212.14 175.11C212.308 174.878 212.392 174.584 212.392 174.228V173.262C212.024 173.85 211.468 174.144 210.724 174.144C210.232 174.144 209.802 174.01 209.434 173.742C209.066 173.474 208.78 173.1 208.576 172.62C208.372 172.136 208.27 171.572 208.27 170.928C208.27 170.276 208.372 169.71 208.576 169.23C208.784 168.75 209.074 168.38 209.446 168.12C209.818 167.856 210.258 167.724 210.766 167.724C211.098 167.724 211.408 167.794 211.696 167.934C211.988 168.07 212.22 168.258 212.392 168.498V167.868H213.232V173.982C213.232 174.39 213.174 174.748 213.058 175.056C212.946 175.368 212.772 175.63 212.536 175.842C212.304 176.054 212.01 176.218 211.654 176.334C211.302 176.454 210.888 176.528 210.412 176.556ZM210.874 173.352C211.174 173.352 211.462 173.26 211.738 173.076C212.014 172.888 212.232 172.642 212.392 172.338V169.446C212.236 169.166 212.018 168.94 211.738 168.768C211.462 168.596 211.178 168.51 210.886 168.51C210.318 168.51 209.882 168.718 209.578 169.134C209.278 169.546 209.128 170.144 209.128 170.928C209.128 171.416 209.2 171.842 209.344 172.206C209.492 172.566 209.696 172.848 209.956 173.052C210.22 173.252 210.526 173.352 210.874 173.352ZM217.017 174.144C216.369 174.144 215.861 173.964 215.493 173.604C215.125 173.24 214.941 172.74 214.941 172.104C214.941 171.696 215.031 171.342 215.211 171.042C215.395 170.742 215.653 170.512 215.985 170.352C216.321 170.188 216.717 170.106 217.173 170.106C217.473 170.106 217.759 170.144 218.031 170.22C218.307 170.296 218.573 170.41 218.829 170.562V169.974C218.829 169.454 218.715 169.072 218.487 168.828C218.263 168.584 217.913 168.462 217.437 168.462C217.153 168.462 216.851 168.516 216.531 168.624C216.215 168.728 215.915 168.876 215.631 169.068L215.385 168.36C215.709 168.156 216.059 168 216.435 167.892C216.811 167.78 217.179 167.724 217.539 167.724C218.227 167.724 218.747 167.904 219.099 168.264C219.451 168.624 219.627 169.154 219.627 169.854V174H218.829V173.304C218.585 173.572 218.305 173.78 217.989 173.928C217.677 174.072 217.353 174.144 217.017 174.144ZM217.125 173.406C217.433 173.406 217.733 173.326 218.025 173.166C218.317 173.002 218.585 172.768 218.829 172.464V171.318C218.593 171.166 218.337 171.05 218.061 170.97C217.789 170.886 217.525 170.844 217.269 170.844C216.809 170.844 216.441 170.96 216.165 171.192C215.893 171.42 215.757 171.726 215.757 172.11C215.757 172.506 215.879 172.822 216.123 173.058C216.367 173.29 216.701 173.406 217.125 173.406ZM221.603 174V167.868H222.443V168.588C222.619 168.308 222.849 168.094 223.133 167.946C223.417 167.798 223.735 167.724 224.087 167.724C224.475 167.724 224.813 167.82 225.101 168.012C225.393 168.204 225.609 168.474 225.749 168.822C225.921 168.478 226.165 168.21 226.481 168.018C226.801 167.822 227.157 167.724 227.549 167.724C228.185 167.724 228.691 167.922 229.067 168.318C229.443 168.71 229.631 169.242 229.631 169.914V174H228.791V170.238C228.791 169.67 228.677 169.238 228.449 168.942C228.221 168.646 227.891 168.498 227.459 168.498C227.175 168.498 226.925 168.572 226.709 168.72C226.497 168.868 226.331 169.076 226.211 169.344C226.091 169.608 226.031 169.914 226.031 170.262V174H225.191V170.238C225.191 169.666 225.081 169.234 224.861 168.942C224.641 168.646 224.313 168.498 223.877 168.498C223.433 168.498 223.083 168.656 222.827 168.972C222.571 169.284 222.443 169.712 222.443 170.256V174H221.603ZM234.028 174.144C233.484 174.144 233.014 174.01 232.618 173.742C232.226 173.47 231.924 173.092 231.712 172.608C231.5 172.124 231.394 171.564 231.394 170.928C231.394 170.252 231.504 169.676 231.724 169.2C231.948 168.72 232.258 168.354 232.654 168.102C233.05 167.85 233.508 167.724 234.028 167.724C234.48 167.724 234.89 167.83 235.258 168.042C235.626 168.254 235.918 168.582 236.134 169.026C236.35 169.47 236.458 170.04 236.458 170.736C236.458 170.808 236.456 170.89 236.452 170.982C236.448 171.07 236.442 171.162 236.434 171.258H232.264C232.296 171.682 232.382 172.054 232.522 172.374C232.666 172.69 232.864 172.94 233.116 173.124C233.372 173.304 233.686 173.394 234.058 173.394C234.31 173.394 234.552 173.35 234.784 173.262C235.016 173.17 235.232 173.03 235.432 172.842L235.924 173.406C235.7 173.618 235.424 173.794 235.096 173.934C234.772 174.074 234.416 174.144 234.028 174.144ZM232.252 170.52H235.6C235.6 170.14 235.542 169.794 235.426 169.482C235.314 169.17 235.14 168.922 234.904 168.738C234.672 168.554 234.38 168.462 234.028 168.462C233.552 168.462 233.146 168.626 232.81 168.954C232.478 169.282 232.292 169.804 232.252 170.52ZM239.662 174.144C239.254 174.144 238.862 174.056 238.486 173.88C238.11 173.704 237.794 173.46 237.538 173.148L238.15 172.626C238.37 172.866 238.614 173.052 238.882 173.184C239.15 173.316 239.414 173.382 239.674 173.382C240.066 173.382 240.368 173.302 240.58 173.142C240.796 172.982 240.904 172.758 240.904 172.47C240.904 172.29 240.854 172.126 240.754 171.978C240.658 171.83 240.5 171.692 240.28 171.564C240.06 171.432 239.77 171.298 239.41 171.162C238.762 170.922 238.296 170.66 238.012 170.376C237.728 170.088 237.586 169.732 237.586 169.308C237.586 168.836 237.768 168.454 238.132 168.162C238.5 167.87 238.978 167.724 239.566 167.724C239.954 167.724 240.318 167.8 240.658 167.952C240.998 168.1 241.288 168.314 241.528 168.594L240.94 169.086C240.548 168.686 240.086 168.486 239.554 168.486C239.206 168.486 238.93 168.56 238.726 168.708C238.526 168.852 238.426 169.052 238.426 169.308C238.426 169.544 238.53 169.748 238.738 169.92C238.946 170.088 239.326 170.274 239.878 170.478C240.326 170.646 240.686 170.824 240.958 171.012C241.23 171.196 241.426 171.406 241.546 171.642C241.67 171.878 241.732 172.15 241.732 172.458C241.732 172.982 241.548 173.394 241.18 173.694C240.812 173.994 240.306 174.144 239.662 174.144Z" fill="#FE016A"/>
<rect x="3.6" y="3.6" width="302.8" height="192.8" stroke="#FE016A" stroke-width="7.2" stroke-dasharray="7.2 7.2"/>
<rect x="10.6" y="6.6" width="302.8" height="193.8" stroke="#00EAE5" stroke-width="7.2" stroke-dasharray="7.2 7.2"/>
</svg>
