<svg width="310" height="77" viewBox="0 0 310 77" fill="none" xmlns="http://www.w3.org/2000/svg">
<path d="M113.72 39.064C113.299 39.064 112.885 39.216 112.48 39.52C112.08 39.8187 111.733 40.2267 111.44 40.744C111.147 41.256 110.955 41.8373 110.864 42.488C110.72 43.464 110.789 44.2053 111.072 44.712C111.355 45.2133 111.787 45.4613 112.368 45.456C112.667 45.4507 112.963 45.384 113.256 45.256C113.555 45.1227 113.824 44.928 114.064 44.672C114.309 44.4107 114.488 44.0907 114.6 43.712C114.653 43.6213 114.701 43.5547 114.744 43.512C114.787 43.4693 114.835 43.4507 114.888 43.456C114.947 43.456 114.992 43.4827 115.024 43.536C115.056 43.584 115.061 43.6587 115.04 43.76C115.019 43.9893 114.936 44.2427 114.792 44.52C114.648 44.792 114.448 45.0533 114.192 45.304C113.936 45.5493 113.621 45.752 113.248 45.912C112.88 46.0667 112.453 46.144 111.968 46.144C111.035 46.144 110.368 45.8187 109.968 45.168C109.573 44.5173 109.48 43.6507 109.688 42.568C109.789 42.0187 109.968 41.504 110.224 41.024C110.48 40.544 110.795 40.1227 111.168 39.76C111.541 39.3973 111.96 39.1147 112.424 38.912C112.888 38.7093 113.381 38.608 113.904 38.608C114.304 38.608 114.637 38.68 114.904 38.824C115.176 38.968 115.379 39.16 115.512 39.4C115.651 39.6347 115.717 39.896 115.712 40.184C115.707 40.472 115.632 40.6933 115.488 40.848C115.344 40.9973 115.181 41.072 115 41.072C114.845 41.072 114.725 41.032 114.64 40.952C114.555 40.8667 114.512 40.76 114.512 40.632C114.512 40.5147 114.531 40.392 114.568 40.264C114.611 40.1307 114.632 39.9947 114.632 39.856C114.632 39.6213 114.552 39.432 114.392 39.288C114.232 39.1387 114.008 39.064 113.72 39.064ZM120.796 38.608C121.361 38.6293 121.849 38.7867 122.26 39.08C122.67 39.3733 122.964 39.7867 123.14 40.32C123.316 40.8533 123.337 41.4987 123.204 42.256C123.102 42.8267 122.916 43.3547 122.644 43.84C122.377 44.3253 122.046 44.744 121.652 45.096C121.262 45.448 120.83 45.7173 120.356 45.904C119.886 46.0907 119.393 46.1707 118.876 46.144C118.332 46.1173 117.86 45.96 117.46 45.672C117.06 45.384 116.774 44.9733 116.604 44.44C116.433 43.9013 116.412 43.256 116.54 42.504C116.646 41.928 116.83 41.3973 117.092 40.912C117.358 40.4267 117.684 40.008 118.068 39.656C118.452 39.304 118.876 39.0373 119.34 38.856C119.804 38.6693 120.289 38.5867 120.796 38.608ZM118.964 45.656C119.236 45.6773 119.5 45.6427 119.756 45.552C120.017 45.456 120.265 45.312 120.5 45.12C120.74 44.9227 120.958 44.6827 121.156 44.4C121.353 44.112 121.524 43.784 121.668 43.416C121.817 43.0427 121.934 42.6373 122.02 42.2C122.148 41.5173 122.172 40.952 122.092 40.504C122.017 40.056 121.86 39.7173 121.62 39.488C121.38 39.2533 121.076 39.1227 120.708 39.096C120.441 39.0747 120.182 39.112 119.932 39.208C119.681 39.2987 119.438 39.4427 119.204 39.64C118.974 39.832 118.761 40.072 118.564 40.36C118.372 40.6427 118.204 40.9707 118.06 41.344C117.916 41.712 117.804 42.1173 117.724 42.56C117.59 43.2427 117.561 43.808 117.636 44.256C117.71 44.704 117.862 45.0427 118.092 45.272C118.326 45.5013 118.617 45.6293 118.964 45.656ZM125.009 39.952C124.961 39.9307 124.94 39.8907 124.945 39.832C124.95 39.768 124.974 39.6933 125.017 39.608C125.193 39.304 125.43 39.064 125.729 38.888C126.033 38.7067 126.353 38.616 126.689 38.616C126.934 38.616 127.129 38.6747 127.273 38.792C127.422 38.904 127.497 39.0773 127.497 39.312C127.497 39.4507 127.47 39.6133 127.417 39.8C127.364 39.9867 127.281 40.224 127.169 40.512C127.062 40.7947 126.918 41.1547 126.737 41.592C126.561 42.024 126.342 42.5573 126.081 43.192L126.129 42.776C126.444 41.9973 126.798 41.3413 127.193 40.808C127.588 40.2747 127.99 39.848 128.401 39.528C128.817 39.2027 129.217 38.9707 129.601 38.832C129.99 38.688 130.337 38.616 130.641 38.616C131.068 38.616 131.361 38.7067 131.521 38.888C131.686 39.064 131.75 39.32 131.713 39.656C131.681 39.992 131.582 40.3973 131.417 40.872L130.249 44.192C130.094 44.6347 130.036 44.944 130.073 45.12C130.116 45.296 130.214 45.384 130.369 45.384C130.465 45.384 130.569 45.352 130.681 45.288C130.798 45.224 130.937 45.1093 131.097 44.944C131.172 44.8747 131.233 44.8293 131.281 44.808C131.334 44.7813 131.382 44.7787 131.425 44.8C131.473 44.8267 131.494 44.872 131.489 44.936C131.489 44.9947 131.465 45.0667 131.417 45.152C131.246 45.456 131.012 45.6987 130.713 45.88C130.414 46.056 130.094 46.144 129.753 46.144C129.492 46.144 129.292 46.08 129.153 45.952C129.014 45.8187 128.942 45.6213 128.937 45.36C128.932 45.0987 128.996 44.7787 129.129 44.4L130.329 40.952C130.537 40.36 130.606 39.952 130.537 39.728C130.468 39.504 130.276 39.392 129.961 39.392C129.716 39.392 129.428 39.472 129.097 39.632C128.772 39.792 128.433 40.0373 128.081 40.368C127.729 40.6933 127.393 41.1093 127.073 41.616C126.753 42.1173 126.473 42.7067 126.233 43.384C126.11 43.7413 126.017 44.0213 125.953 44.224C125.889 44.4213 125.844 44.5733 125.817 44.68C125.796 44.7867 125.785 44.8747 125.785 44.944C125.785 45.072 125.804 45.176 125.841 45.256C125.878 45.3307 125.897 45.4267 125.897 45.544C125.897 45.7253 125.812 45.872 125.641 45.984C125.47 46.0907 125.246 46.144 124.969 46.144C124.718 46.144 124.566 46.0373 124.513 45.824C124.465 45.6107 124.529 45.2613 124.705 44.776L126.185 40.576C126.34 40.128 126.398 39.816 126.361 39.64C126.324 39.464 126.225 39.376 126.065 39.376C125.974 39.376 125.87 39.408 125.753 39.472C125.636 39.536 125.497 39.6507 125.337 39.816C125.262 39.8853 125.198 39.9307 125.145 39.952C125.097 39.9733 125.052 39.9733 125.009 39.952ZM135.44 45.696C135.835 45.696 136.158 45.5947 136.408 45.392C136.664 45.184 136.792 44.92 136.792 44.6C136.792 44.44 136.758 44.28 136.688 44.12C136.619 43.96 136.494 43.7787 136.312 43.576C136.136 43.3733 135.878 43.128 135.536 42.84C135.174 42.5307 134.891 42.264 134.688 42.04C134.486 41.816 134.344 41.6027 134.264 41.4C134.184 41.192 134.144 40.96 134.144 40.704C134.144 40.3253 134.254 39.9787 134.472 39.664C134.696 39.344 135.011 39.088 135.416 38.896C135.827 38.704 136.315 38.608 136.88 38.608C137.318 38.608 137.688 38.672 137.992 38.8C138.302 38.928 138.539 39.096 138.704 39.304C138.87 39.5067 138.952 39.72 138.952 39.944C138.952 40.0987 138.912 40.2187 138.832 40.304C138.758 40.3893 138.656 40.432 138.528 40.432C138.411 40.432 138.307 40.3947 138.216 40.32C138.126 40.24 138.035 40.1013 137.944 39.904C137.816 39.6213 137.654 39.4027 137.456 39.248C137.259 39.0933 137.014 39.016 136.72 39.016C136.256 39.016 135.886 39.1413 135.608 39.392C135.331 39.6373 135.192 39.9413 135.192 40.304C135.192 40.4747 135.224 40.6453 135.288 40.816C135.358 40.9813 135.48 41.168 135.656 41.376C135.832 41.5787 136.088 41.8267 136.424 42.12C136.803 42.4507 137.094 42.7307 137.296 42.96C137.504 43.1893 137.648 43.4027 137.728 43.6C137.808 43.7973 137.848 44.0133 137.848 44.248C137.843 44.6107 137.734 44.936 137.52 45.224C137.312 45.5067 137.011 45.7307 136.616 45.896C136.222 46.0613 135.755 46.144 135.216 46.144C134.758 46.144 134.36 46.0693 134.024 45.92C133.688 45.7707 133.427 45.5813 133.24 45.352C133.054 45.1173 132.96 44.88 132.96 44.64C132.966 44.4907 133.003 44.3733 133.072 44.288C133.147 44.2027 133.243 44.16 133.36 44.16C133.478 44.16 133.587 44.2 133.688 44.28C133.79 44.36 133.886 44.496 133.976 44.688C134.168 45.0507 134.387 45.3093 134.632 45.464C134.878 45.6187 135.147 45.696 135.44 45.696ZM146.626 44.8C146.674 44.8213 146.695 44.864 146.69 44.928C146.685 44.9867 146.661 45.0587 146.618 45.144C146.442 45.4533 146.202 45.6987 145.898 45.88C145.599 46.056 145.279 46.144 144.938 46.144C144.698 46.144 144.503 46.088 144.354 45.976C144.21 45.8587 144.138 45.6827 144.138 45.448C144.138 45.3093 144.162 45.1467 144.21 44.96C144.263 44.7733 144.343 44.536 144.45 44.248C144.562 43.96 144.709 43.6 144.89 43.168C145.071 42.736 145.29 42.2 145.546 41.56L145.506 41.976C145.191 42.76 144.837 43.4187 144.442 43.952C144.047 44.48 143.642 44.9067 143.226 45.232C142.815 45.5573 142.415 45.792 142.026 45.936C141.642 46.0747 141.295 46.144 140.986 46.144C140.565 46.144 140.271 46.056 140.106 45.88C139.946 45.6987 139.882 45.44 139.914 45.104C139.946 44.768 140.045 44.3627 140.21 43.888L141.378 40.568C141.538 40.1253 141.597 39.816 141.554 39.64C141.517 39.4587 141.421 39.368 141.266 39.368C141.17 39.368 141.063 39.4027 140.946 39.472C140.834 39.536 140.695 39.648 140.53 39.808C140.455 39.8773 140.394 39.9253 140.346 39.952C140.298 39.9733 140.25 39.9733 140.202 39.952C140.154 39.9307 140.133 39.8907 140.138 39.832C140.143 39.768 140.167 39.6933 140.21 39.608C140.386 39.304 140.623 39.064 140.922 38.888C141.221 38.7067 141.538 38.616 141.874 38.616C142.141 38.616 142.341 38.6827 142.474 38.816C142.613 38.944 142.685 39.136 142.69 39.392C142.701 39.648 142.639 39.968 142.506 40.352L141.306 43.808C141.093 44.3947 141.021 44.8027 141.09 45.032C141.165 45.256 141.357 45.368 141.666 45.368C141.917 45.368 142.205 45.288 142.53 45.128C142.855 44.9627 143.194 44.7173 143.546 44.392C143.898 44.0613 144.234 43.6453 144.554 43.144C144.879 42.6427 145.162 42.0507 145.402 41.368C145.525 41.016 145.618 40.7387 145.682 40.536C145.746 40.3333 145.789 40.1813 145.81 40.08C145.831 39.9733 145.842 39.8853 145.842 39.816C145.842 39.6827 145.823 39.5787 145.786 39.504C145.749 39.4293 145.73 39.3307 145.73 39.208C145.73 39.032 145.815 38.8907 145.986 38.784C146.162 38.672 146.386 38.616 146.658 38.616C146.914 38.616 147.066 38.72 147.114 38.928C147.162 39.136 147.098 39.488 146.922 39.984L145.45 44.184C145.29 44.6267 145.229 44.9387 145.266 45.12C145.309 45.296 145.407 45.384 145.562 45.384C145.663 45.384 145.77 45.352 145.882 45.288C145.994 45.224 146.133 45.1093 146.298 44.944C146.373 44.8747 146.434 44.8293 146.482 44.808C146.53 44.7813 146.578 44.7787 146.626 44.8ZM153.044 44.768L154.38 40.952C154.577 40.376 154.641 39.9733 154.572 39.744C154.508 39.5093 154.348 39.392 154.092 39.392C153.772 39.392 153.385 39.536 152.932 39.824C152.484 40.112 152.036 40.552 151.588 41.144C151.14 41.7307 150.756 42.4773 150.436 43.384C150.313 43.7413 150.22 44.0213 150.156 44.224C150.092 44.4213 150.047 44.5733 150.02 44.68C149.999 44.7867 149.988 44.8747 149.988 44.944C149.988 45.072 150.007 45.176 150.044 45.256C150.081 45.3307 150.1 45.4267 150.1 45.544C150.1 45.7253 150.015 45.872 149.844 45.984C149.673 46.0907 149.449 46.144 149.172 46.144C148.921 46.144 148.769 46.0373 148.716 45.824C148.668 45.6107 148.732 45.256 148.908 44.76L150.388 40.568C150.543 40.1253 150.601 39.816 150.564 39.64C150.527 39.464 150.428 39.376 150.268 39.376C150.177 39.376 150.073 39.408 149.956 39.472C149.839 39.536 149.7 39.6507 149.54 39.816C149.465 39.8853 149.401 39.9307 149.348 39.952C149.3 39.9733 149.255 39.9733 149.212 39.952C149.164 39.9307 149.143 39.8907 149.148 39.832C149.153 39.768 149.177 39.6933 149.22 39.608C149.396 39.304 149.633 39.064 149.932 38.888C150.236 38.7067 150.556 38.616 150.892 38.616C151.137 38.616 151.332 38.6747 151.476 38.792C151.625 38.904 151.7 39.0773 151.7 39.312C151.7 39.4507 151.673 39.6133 151.62 39.8C151.567 39.9867 151.484 40.224 151.372 40.512C151.265 40.7947 151.121 41.152 150.94 41.584C150.764 42.016 150.545 42.552 150.284 43.192L150.332 42.776C150.753 41.736 151.233 40.9147 151.772 40.312C152.316 39.704 152.852 39.2693 153.38 39.008C153.913 38.7467 154.377 38.616 154.772 38.616C155.119 38.616 155.375 38.6933 155.54 38.848C155.705 39.0027 155.777 39.2427 155.756 39.568C155.751 39.7013 155.727 39.848 155.684 40.008C155.641 40.168 155.569 40.376 155.468 40.632C155.372 40.8827 155.241 41.2133 155.076 41.624C154.916 42.0347 154.711 42.5573 154.46 43.192V42.776C154.78 42.0027 155.129 41.3493 155.508 40.816C155.892 40.2827 156.284 39.856 156.684 39.536C157.089 39.2107 157.479 38.976 157.852 38.832C158.231 38.688 158.569 38.616 158.868 38.616C159.241 38.616 159.503 38.7067 159.652 38.888C159.807 39.064 159.871 39.32 159.844 39.656C159.823 39.992 159.729 40.3973 159.564 40.872L158.396 44.192C158.241 44.6347 158.185 44.944 158.228 45.12C158.271 45.296 158.367 45.384 158.516 45.384C158.617 45.384 158.724 45.352 158.836 45.288C158.953 45.224 159.092 45.1093 159.252 44.944C159.327 44.8747 159.388 44.8293 159.436 44.808C159.489 44.7813 159.537 44.7787 159.58 44.8C159.628 44.8267 159.649 44.872 159.644 44.936C159.639 44.9947 159.615 45.0667 159.572 45.152C159.401 45.456 159.164 45.6987 158.86 45.88C158.561 46.056 158.241 46.144 157.9 46.144C157.644 46.144 157.447 46.08 157.308 45.952C157.169 45.8187 157.097 45.6213 157.092 45.36C157.087 45.0987 157.148 44.7787 157.276 44.4L158.476 40.952C158.684 40.376 158.751 39.9733 158.676 39.744C158.601 39.5093 158.439 39.392 158.188 39.392C157.868 39.392 157.487 39.5387 157.044 39.832C156.601 40.12 156.159 40.56 155.716 41.152C155.273 41.7387 154.892 42.4827 154.572 43.384C154.449 43.7413 154.353 44.0213 154.284 44.224C154.22 44.4213 154.177 44.5733 154.156 44.68C154.135 44.7867 154.124 44.8747 154.124 44.944C154.124 45.072 154.143 45.176 154.18 45.256C154.217 45.3307 154.236 45.4267 154.236 45.544C154.236 45.7253 154.148 45.872 153.972 45.984C153.801 46.0907 153.58 46.144 153.308 46.144C153.143 46.144 153.02 46.0987 152.94 46.008C152.86 45.9173 152.828 45.7707 152.844 45.568C152.865 45.3653 152.932 45.0987 153.044 44.768ZM162.069 42.72C162.069 42.72 162.171 42.6773 162.373 42.592C162.581 42.5067 162.851 42.3973 163.181 42.264C163.512 42.1307 163.869 41.984 164.253 41.824C164.643 41.664 165.019 41.5093 165.381 41.36C165.749 41.2107 166.072 41.0773 166.349 40.96L166.205 41.184C166.243 41.0827 166.269 40.9707 166.285 40.848C166.301 40.7253 166.309 40.5733 166.309 40.392C166.309 40.008 166.221 39.688 166.045 39.432C165.869 39.176 165.64 39.048 165.357 39.048C165.069 39.048 164.771 39.1547 164.461 39.368C164.152 39.5813 163.861 39.8747 163.589 40.248C163.317 40.616 163.088 41.0453 162.901 41.536C162.72 42.0213 162.611 42.5413 162.573 43.096C162.52 43.8907 162.651 44.488 162.965 44.888C163.28 45.2827 163.709 45.48 164.253 45.48C164.605 45.48 164.947 45.4133 165.277 45.28C165.613 45.1413 165.912 44.9387 166.173 44.672C166.435 44.4 166.629 44.0667 166.757 43.672C166.8 43.5867 166.843 43.528 166.885 43.496C166.928 43.4587 166.976 43.4427 167.029 43.448C167.093 43.448 167.141 43.4747 167.173 43.528C167.211 43.576 167.216 43.6587 167.189 43.776C167.125 44.1707 166.947 44.552 166.653 44.92C166.36 45.2827 165.968 45.5787 165.477 45.808C164.992 46.032 164.416 46.144 163.749 46.144C163.221 46.144 162.779 46.0373 162.421 45.824C162.064 45.6053 161.8 45.296 161.629 44.896C161.464 44.496 161.397 44.0133 161.429 43.448C161.467 42.808 161.608 42.2 161.853 41.624C162.099 41.0427 162.416 40.5253 162.805 40.072C163.2 39.6187 163.64 39.2613 164.125 39C164.616 38.7387 165.12 38.608 165.637 38.608C166 38.608 166.307 38.6853 166.557 38.84C166.813 38.9947 167.008 39.2027 167.141 39.464C167.28 39.72 167.355 40.0053 167.365 40.32C167.371 40.3893 167.389 40.4427 167.421 40.48C167.459 40.5173 167.512 40.5307 167.581 40.52C167.656 40.504 167.709 40.512 167.741 40.544C167.779 40.5707 167.797 40.6107 167.797 40.664C167.797 40.728 167.768 40.7893 167.709 40.848C167.651 40.9013 167.533 40.9627 167.357 41.032C167.16 41.1067 166.896 41.2107 166.565 41.344C166.235 41.4773 165.872 41.624 165.477 41.784C165.088 41.9387 164.696 42.096 164.301 42.256C163.907 42.4107 163.544 42.5547 163.213 42.688C162.888 42.816 162.624 42.92 162.421 43C162.224 43.08 162.125 43.12 162.125 43.12L162.069 42.72ZM176.111 39.064C175.689 39.064 175.276 39.216 174.871 39.52C174.471 39.8187 174.124 40.2267 173.831 40.744C173.537 41.256 173.345 41.8373 173.255 42.488C173.111 43.464 173.18 44.2053 173.463 44.712C173.745 45.2133 174.177 45.4613 174.759 45.456C175.057 45.4507 175.353 45.384 175.647 45.256C175.945 45.1227 176.215 44.928 176.455 44.672C176.7 44.4107 176.879 44.0907 176.991 43.712C177.044 43.6213 177.092 43.5547 177.135 43.512C177.177 43.4693 177.225 43.4507 177.279 43.456C177.337 43.456 177.383 43.4827 177.415 43.536C177.447 43.584 177.452 43.6587 177.431 43.76C177.409 43.9893 177.327 44.2427 177.183 44.52C177.039 44.792 176.839 45.0533 176.583 45.304C176.327 45.5493 176.012 45.752 175.639 45.912C175.271 46.0667 174.844 46.144 174.359 46.144C173.425 46.144 172.759 45.8187 172.359 45.168C171.964 44.5173 171.871 43.6507 172.079 42.568C172.18 42.0187 172.359 41.504 172.615 41.024C172.871 40.544 173.185 40.1227 173.559 39.76C173.932 39.3973 174.351 39.1147 174.815 38.912C175.279 38.7093 175.772 38.608 176.295 38.608C176.695 38.608 177.028 38.68 177.295 38.824C177.567 38.968 177.769 39.16 177.903 39.4C178.041 39.6347 178.108 39.896 178.103 40.184C178.097 40.472 178.023 40.6933 177.879 40.848C177.735 40.9973 177.572 41.072 177.391 41.072C177.236 41.072 177.116 41.032 177.031 40.952C176.945 40.8667 176.903 40.76 176.903 40.632C176.903 40.5147 176.921 40.392 176.959 40.264C177.001 40.1307 177.023 39.9947 177.023 39.856C177.023 39.6213 176.943 39.432 176.783 39.288C176.623 39.1387 176.399 39.064 176.111 39.064ZM183.186 38.608C183.752 38.6293 184.24 38.7867 184.65 39.08C185.061 39.3733 185.354 39.7867 185.53 40.32C185.706 40.8533 185.728 41.4987 185.594 42.256C185.493 42.8267 185.306 43.3547 185.034 43.84C184.768 44.3253 184.437 44.744 184.042 45.096C183.653 45.448 183.221 45.7173 182.746 45.904C182.277 46.0907 181.784 46.1707 181.266 46.144C180.722 46.1173 180.25 45.96 179.85 45.672C179.45 45.384 179.165 44.9733 178.994 44.44C178.824 43.9013 178.802 43.256 178.93 42.504C179.037 41.928 179.221 41.3973 179.482 40.912C179.749 40.4267 180.074 40.008 180.458 39.656C180.842 39.304 181.266 39.0373 181.73 38.856C182.194 38.6693 182.68 38.5867 183.186 38.608ZM181.354 45.656C181.626 45.6773 181.89 45.6427 182.146 45.552C182.408 45.456 182.656 45.312 182.89 45.12C183.13 44.9227 183.349 44.6827 183.546 44.4C183.744 44.112 183.914 43.784 184.058 43.416C184.208 43.0427 184.325 42.6373 184.41 42.2C184.538 41.5173 184.562 40.952 184.482 40.504C184.408 40.056 184.25 39.7173 184.01 39.488C183.77 39.2533 183.466 39.1227 183.098 39.096C182.832 39.0747 182.573 39.112 182.322 39.208C182.072 39.2987 181.829 39.4427 181.594 39.64C181.365 39.832 181.152 40.072 180.954 40.36C180.762 40.6427 180.594 40.9707 180.45 41.344C180.306 41.712 180.194 42.1173 180.114 42.56C179.981 43.2427 179.952 43.808 180.026 44.256C180.101 44.704 180.253 45.0427 180.482 45.272C180.717 45.5013 181.008 45.6293 181.354 45.656ZM187.4 39.952C187.352 39.9307 187.33 39.8907 187.336 39.832C187.341 39.768 187.365 39.6933 187.408 39.608C187.584 39.304 187.821 39.064 188.12 38.888C188.424 38.7067 188.744 38.616 189.08 38.616C189.325 38.616 189.52 38.6747 189.664 38.792C189.813 38.904 189.888 39.0773 189.888 39.312C189.888 39.4507 189.861 39.6133 189.808 39.8C189.754 39.9867 189.672 40.224 189.56 40.512C189.453 40.7947 189.309 41.1547 189.128 41.592C188.952 42.024 188.733 42.5573 188.472 43.192L188.52 42.776C188.834 41.9973 189.189 41.3413 189.584 40.808C189.978 40.2747 190.381 39.848 190.792 39.528C191.208 39.2027 191.608 38.9707 191.992 38.832C192.381 38.688 192.728 38.616 193.032 38.616C193.458 38.616 193.752 38.7067 193.912 38.888C194.077 39.064 194.141 39.32 194.104 39.656C194.072 39.992 193.973 40.3973 193.808 40.872L192.64 44.192C192.485 44.6347 192.426 44.944 192.464 45.12C192.506 45.296 192.605 45.384 192.76 45.384C192.856 45.384 192.96 45.352 193.072 45.288C193.189 45.224 193.328 45.1093 193.488 44.944C193.562 44.8747 193.624 44.8293 193.672 44.808C193.725 44.7813 193.773 44.7787 193.816 44.8C193.864 44.8267 193.885 44.872 193.88 44.936C193.88 44.9947 193.856 45.0667 193.808 45.152C193.637 45.456 193.402 45.6987 193.104 45.88C192.805 46.056 192.485 46.144 192.144 46.144C191.882 46.144 191.682 46.08 191.544 45.952C191.405 45.8187 191.333 45.6213 191.328 45.36C191.322 45.0987 191.386 44.7787 191.52 44.4L192.72 40.952C192.928 40.36 192.997 39.952 192.928 39.728C192.858 39.504 192.666 39.392 192.352 39.392C192.106 39.392 191.818 39.472 191.488 39.632C191.162 39.792 190.824 40.0373 190.472 40.368C190.12 40.6933 189.784 41.1093 189.464 41.616C189.144 42.1173 188.864 42.7067 188.624 43.384C188.501 43.7413 188.408 44.0213 188.344 44.224C188.28 44.4213 188.234 44.5733 188.208 44.68C188.186 44.7867 188.176 44.8747 188.176 44.944C188.176 45.072 188.194 45.176 188.232 45.256C188.269 45.3307 188.288 45.4267 188.288 45.544C188.288 45.7253 188.202 45.872 188.032 45.984C187.861 46.0907 187.637 46.144 187.36 46.144C187.109 46.144 186.957 46.0373 186.904 45.824C186.856 45.6107 186.92 45.2613 187.096 44.776L188.576 40.576C188.73 40.128 188.789 39.816 188.752 39.64C188.714 39.464 188.616 39.376 188.456 39.376C188.365 39.376 188.261 39.408 188.144 39.472C188.026 39.536 187.888 39.6507 187.728 39.816C187.653 39.8853 187.589 39.9307 187.536 39.952C187.488 39.9733 187.442 39.9733 187.4 39.952ZM197.226 39.392L196.506 39.264C196.431 39.248 196.375 39.2213 196.338 39.184C196.301 39.1413 196.282 39.0933 196.282 39.04C196.282 38.9653 196.311 38.9093 196.37 38.872C196.429 38.8293 196.509 38.808 196.61 38.808H197.434C197.53 38.808 197.61 38.792 197.674 38.76C197.743 38.7227 197.805 38.6693 197.858 38.6L198.586 37.456C198.634 37.3867 198.685 37.3387 198.738 37.312C198.797 37.2853 198.858 37.272 198.922 37.272C198.991 37.272 199.042 37.2907 199.074 37.328C199.111 37.3653 199.13 37.4213 199.13 37.496C199.13 37.544 199.122 37.6053 199.106 37.68C199.095 37.7547 199.074 37.8427 199.042 37.944L197.178 43.896C196.991 44.4933 196.943 44.888 197.034 45.08C197.125 45.2667 197.322 45.36 197.626 45.36C197.898 45.36 198.154 45.3013 198.394 45.184C198.634 45.0613 198.882 44.856 199.138 44.568C199.186 44.5147 199.226 44.48 199.258 44.464C199.295 44.4427 199.333 44.432 199.37 44.432C199.423 44.432 199.461 44.448 199.482 44.48C199.509 44.5067 199.519 44.5467 199.514 44.6C199.503 44.744 199.429 44.904 199.29 45.08C199.157 45.256 198.975 45.424 198.746 45.584C198.517 45.744 198.253 45.8773 197.954 45.984C197.655 46.0907 197.338 46.144 197.002 46.144C196.629 46.144 196.349 46.0667 196.162 45.912C195.981 45.7573 195.882 45.536 195.866 45.248C195.855 44.9547 195.914 44.6 196.042 44.184L197.354 40.056C197.429 39.816 197.455 39.6507 197.434 39.56C197.418 39.4693 197.349 39.4133 197.226 39.392ZM198.066 39.32L198.234 38.824H200.498C200.653 38.824 200.73 38.8853 200.73 39.008C200.73 39.104 200.685 39.1813 200.594 39.24C200.503 39.2933 200.378 39.32 200.218 39.32H198.066ZM201.569 42.72C201.569 42.72 201.671 42.6773 201.873 42.592C202.081 42.5067 202.351 42.3973 202.681 42.264C203.012 42.1307 203.369 41.984 203.753 41.824C204.143 41.664 204.519 41.5093 204.881 41.36C205.249 41.2107 205.572 41.0773 205.849 40.96L205.705 41.184C205.743 41.0827 205.769 40.9707 205.785 40.848C205.801 40.7253 205.809 40.5733 205.809 40.392C205.809 40.008 205.721 39.688 205.545 39.432C205.369 39.176 205.14 39.048 204.857 39.048C204.569 39.048 204.271 39.1547 203.961 39.368C203.652 39.5813 203.361 39.8747 203.089 40.248C202.817 40.616 202.588 41.0453 202.401 41.536C202.22 42.0213 202.111 42.5413 202.073 43.096C202.02 43.8907 202.151 44.488 202.465 44.888C202.78 45.2827 203.209 45.48 203.753 45.48C204.105 45.48 204.447 45.4133 204.777 45.28C205.113 45.1413 205.412 44.9387 205.673 44.672C205.935 44.4 206.129 44.0667 206.257 43.672C206.3 43.5867 206.343 43.528 206.385 43.496C206.428 43.4587 206.476 43.4427 206.529 43.448C206.593 43.448 206.641 43.4747 206.673 43.528C206.711 43.576 206.716 43.6587 206.689 43.776C206.625 44.1707 206.447 44.552 206.153 44.92C205.86 45.2827 205.468 45.5787 204.977 45.808C204.492 46.032 203.916 46.144 203.249 46.144C202.721 46.144 202.279 46.0373 201.921 45.824C201.564 45.6053 201.3 45.296 201.129 44.896C200.964 44.496 200.897 44.0133 200.929 43.448C200.967 42.808 201.108 42.2 201.353 41.624C201.599 41.0427 201.916 40.5253 202.305 40.072C202.7 39.6187 203.14 39.2613 203.625 39C204.116 38.7387 204.62 38.608 205.137 38.608C205.5 38.608 205.807 38.6853 206.057 38.84C206.313 38.9947 206.508 39.2027 206.641 39.464C206.78 39.72 206.855 40.0053 206.865 40.32C206.871 40.3893 206.889 40.4427 206.921 40.48C206.959 40.5173 207.012 40.5307 207.081 40.52C207.156 40.504 207.209 40.512 207.241 40.544C207.279 40.5707 207.297 40.6107 207.297 40.664C207.297 40.728 207.268 40.7893 207.209 40.848C207.151 40.9013 207.033 40.9627 206.857 41.032C206.66 41.1067 206.396 41.2107 206.065 41.344C205.735 41.4773 205.372 41.624 204.977 41.784C204.588 41.9387 204.196 42.096 203.801 42.256C203.407 42.4107 203.044 42.5547 202.713 42.688C202.388 42.816 202.124 42.92 201.921 43C201.724 43.08 201.625 43.12 201.625 43.12L201.569 42.72ZM208.853 39.952C208.805 39.9307 208.783 39.8907 208.789 39.832C208.794 39.768 208.818 39.6933 208.861 39.608C209.037 39.304 209.274 39.064 209.573 38.888C209.877 38.7067 210.197 38.616 210.533 38.616C210.778 38.616 210.973 38.6747 211.117 38.792C211.266 38.904 211.341 39.0773 211.341 39.312C211.341 39.4507 211.314 39.6133 211.261 39.8C211.207 39.9867 211.125 40.224 211.013 40.512C210.906 40.7947 210.762 41.1547 210.581 41.592C210.405 42.024 210.186 42.5573 209.925 43.192L209.973 42.776C210.287 41.9973 210.642 41.3413 211.037 40.808C211.431 40.2747 211.834 39.848 212.245 39.528C212.661 39.2027 213.061 38.9707 213.445 38.832C213.834 38.688 214.181 38.616 214.485 38.616C214.911 38.616 215.205 38.7067 215.365 38.888C215.53 39.064 215.594 39.32 215.557 39.656C215.525 39.992 215.426 40.3973 215.261 40.872L214.093 44.192C213.938 44.6347 213.879 44.944 213.917 45.12C213.959 45.296 214.058 45.384 214.213 45.384C214.309 45.384 214.413 45.352 214.525 45.288C214.642 45.224 214.781 45.1093 214.941 44.944C215.015 44.8747 215.077 44.8293 215.125 44.808C215.178 44.7813 215.226 44.7787 215.269 44.8C215.317 44.8267 215.338 44.872 215.333 44.936C215.333 44.9947 215.309 45.0667 215.261 45.152C215.09 45.456 214.855 45.6987 214.557 45.88C214.258 46.056 213.938 46.144 213.597 46.144C213.335 46.144 213.135 46.08 212.997 45.952C212.858 45.8187 212.786 45.6213 212.781 45.36C212.775 45.0987 212.839 44.7787 212.973 44.4L214.173 40.952C214.381 40.36 214.45 39.952 214.381 39.728C214.311 39.504 214.119 39.392 213.805 39.392C213.559 39.392 213.271 39.472 212.941 39.632C212.615 39.792 212.277 40.0373 211.925 40.368C211.573 40.6933 211.237 41.1093 210.917 41.616C210.597 42.1173 210.317 42.7067 210.077 43.384C209.954 43.7413 209.861 44.0213 209.797 44.224C209.733 44.4213 209.687 44.5733 209.661 44.68C209.639 44.7867 209.629 44.8747 209.629 44.944C209.629 45.072 209.647 45.176 209.685 45.256C209.722 45.3307 209.741 45.4267 209.741 45.544C209.741 45.7253 209.655 45.872 209.485 45.984C209.314 46.0907 209.09 46.144 208.813 46.144C208.562 46.144 208.41 46.0373 208.357 45.824C208.309 45.6107 208.373 45.2613 208.549 44.776L210.029 40.576C210.183 40.128 210.242 39.816 210.205 39.64C210.167 39.464 210.069 39.376 209.909 39.376C209.818 39.376 209.714 39.408 209.597 39.472C209.479 39.536 209.341 39.6507 209.181 39.816C209.106 39.8853 209.042 39.9307 208.989 39.952C208.941 39.9733 208.895 39.9733 208.853 39.952ZM218.679 39.392L217.959 39.264C217.884 39.248 217.828 39.2213 217.791 39.184C217.754 39.1413 217.735 39.0933 217.735 39.04C217.735 38.9653 217.764 38.9093 217.823 38.872C217.882 38.8293 217.962 38.808 218.063 38.808H218.887C218.983 38.808 219.063 38.792 219.127 38.76C219.196 38.7227 219.258 38.6693 219.311 38.6L220.039 37.456C220.087 37.3867 220.138 37.3387 220.191 37.312C220.25 37.2853 220.311 37.272 220.375 37.272C220.444 37.272 220.495 37.2907 220.527 37.328C220.564 37.3653 220.583 37.4213 220.583 37.496C220.583 37.544 220.575 37.6053 220.559 37.68C220.548 37.7547 220.527 37.8427 220.495 37.944L218.631 43.896C218.444 44.4933 218.396 44.888 218.487 45.08C218.578 45.2667 218.775 45.36 219.079 45.36C219.351 45.36 219.607 45.3013 219.847 45.184C220.087 45.0613 220.335 44.856 220.591 44.568C220.639 44.5147 220.679 44.48 220.711 44.464C220.748 44.4427 220.786 44.432 220.823 44.432C220.876 44.432 220.914 44.448 220.935 44.48C220.962 44.5067 220.972 44.5467 220.967 44.6C220.956 44.744 220.882 44.904 220.743 45.08C220.61 45.256 220.428 45.424 220.199 45.584C219.97 45.744 219.706 45.8773 219.407 45.984C219.108 46.0907 218.791 46.144 218.455 46.144C218.082 46.144 217.802 46.0667 217.615 45.912C217.434 45.7573 217.335 45.536 217.319 45.248C217.308 44.9547 217.367 44.6 217.495 44.184L218.807 40.056C218.882 39.816 218.908 39.6507 218.887 39.56C218.871 39.4693 218.802 39.4133 218.679 39.392ZM219.519 39.32L219.687 38.824H221.951C222.106 38.824 222.183 38.8853 222.183 39.008C222.183 39.104 222.138 39.1813 222.047 39.24C221.956 39.2933 221.831 39.32 221.671 39.32H219.519ZM226.577 39.952C226.529 39.9307 226.508 39.8907 226.513 39.832C226.519 39.768 226.543 39.6933 226.585 39.608C226.703 39.4053 226.849 39.2293 227.025 39.08C227.201 38.9307 227.393 38.816 227.601 38.736C227.815 38.656 228.031 38.616 228.249 38.616C228.479 38.616 228.66 38.6747 228.793 38.792C228.927 38.9093 228.993 39.0853 228.993 39.32C228.993 39.5493 228.943 39.8213 228.841 40.136C228.745 40.4453 228.631 40.768 228.497 41.104C228.369 41.44 228.249 41.76 228.137 42.064C228.031 42.368 227.969 42.624 227.953 42.832H227.833C227.999 42.2453 228.209 41.696 228.465 41.184C228.721 40.672 229.004 40.224 229.313 39.84C229.628 39.456 229.956 39.1573 230.297 38.944C230.644 38.7253 230.988 38.616 231.329 38.616C231.687 38.616 231.953 38.712 232.129 38.904C232.311 39.096 232.399 39.3493 232.393 39.664C232.388 39.8773 232.351 40.064 232.281 40.224C232.212 40.3787 232.121 40.4987 232.009 40.584C231.897 40.664 231.772 40.704 231.633 40.704C231.495 40.704 231.388 40.6667 231.313 40.592C231.239 40.5173 231.201 40.4293 231.201 40.328C231.201 40.232 231.217 40.136 231.249 40.04C231.281 39.944 231.297 39.84 231.297 39.728C231.297 39.5893 231.265 39.4773 231.201 39.392C231.137 39.3067 231.031 39.264 230.881 39.264C230.609 39.264 230.295 39.4293 229.937 39.76C229.58 40.0907 229.22 40.5707 228.857 41.2C228.5 41.8293 228.18 42.5893 227.897 43.48C227.78 43.848 227.692 44.1413 227.633 44.36C227.575 44.5733 227.545 44.7627 227.545 44.928C227.545 45.04 227.564 45.1307 227.601 45.2C227.644 45.264 227.687 45.3253 227.729 45.384C227.772 45.4373 227.793 45.512 227.793 45.608C227.793 45.704 227.753 45.7947 227.673 45.88C227.593 45.96 227.479 46.024 227.329 46.072C227.18 46.1253 227.001 46.152 226.793 46.152C226.607 46.152 226.468 46.104 226.377 46.008C226.292 45.9173 226.252 45.7733 226.257 45.576C226.268 45.3787 226.327 45.1173 226.433 44.792L227.777 40.576C227.921 40.128 227.972 39.816 227.929 39.64C227.892 39.464 227.793 39.376 227.633 39.376C227.543 39.376 227.439 39.408 227.321 39.472C227.204 39.536 227.065 39.6507 226.905 39.816C226.831 39.8853 226.769 39.9307 226.721 39.952C226.673 39.9733 226.625 39.9733 226.577 39.952ZM233.319 42.72C233.319 42.72 233.421 42.6773 233.623 42.592C233.831 42.5067 234.101 42.3973 234.431 42.264C234.762 42.1307 235.119 41.984 235.503 41.824C235.893 41.664 236.269 41.5093 236.631 41.36C236.999 41.2107 237.322 41.0773 237.599 40.96L237.455 41.184C237.493 41.0827 237.519 40.9707 237.535 40.848C237.551 40.7253 237.559 40.5733 237.559 40.392C237.559 40.008 237.471 39.688 237.295 39.432C237.119 39.176 236.89 39.048 236.607 39.048C236.319 39.048 236.021 39.1547 235.711 39.368C235.402 39.5813 235.111 39.8747 234.839 40.248C234.567 40.616 234.338 41.0453 234.151 41.536C233.97 42.0213 233.861 42.5413 233.823 43.096C233.77 43.8907 233.901 44.488 234.215 44.888C234.53 45.2827 234.959 45.48 235.503 45.48C235.855 45.48 236.197 45.4133 236.527 45.28C236.863 45.1413 237.162 44.9387 237.423 44.672C237.685 44.4 237.879 44.0667 238.007 43.672C238.05 43.5867 238.093 43.528 238.135 43.496C238.178 43.4587 238.226 43.4427 238.279 43.448C238.343 43.448 238.391 43.4747 238.423 43.528C238.461 43.576 238.466 43.6587 238.439 43.776C238.375 44.1707 238.197 44.552 237.903 44.92C237.61 45.2827 237.218 45.5787 236.727 45.808C236.242 46.032 235.666 46.144 234.999 46.144C234.471 46.144 234.029 46.0373 233.671 45.824C233.314 45.6053 233.05 45.296 232.879 44.896C232.714 44.496 232.647 44.0133 232.679 43.448C232.717 42.808 232.858 42.2 233.103 41.624C233.349 41.0427 233.666 40.5253 234.055 40.072C234.45 39.6187 234.89 39.2613 235.375 39C235.866 38.7387 236.37 38.608 236.887 38.608C237.25 38.608 237.557 38.6853 237.807 38.84C238.063 38.9947 238.258 39.2027 238.391 39.464C238.53 39.72 238.605 40.0053 238.615 40.32C238.621 40.3893 238.639 40.4427 238.671 40.48C238.709 40.5173 238.762 40.5307 238.831 40.52C238.906 40.504 238.959 40.512 238.991 40.544C239.029 40.5707 239.047 40.6107 239.047 40.664C239.047 40.728 239.018 40.7893 238.959 40.848C238.901 40.9013 238.783 40.9627 238.607 41.032C238.41 41.1067 238.146 41.2107 237.815 41.344C237.485 41.4773 237.122 41.624 236.727 41.784C236.338 41.9387 235.946 42.096 235.551 42.256C235.157 42.4107 234.794 42.5547 234.463 42.688C234.138 42.816 233.874 42.92 233.671 43C233.474 43.08 233.375 43.12 233.375 43.12L233.319 42.72ZM243.536 36.272L241.152 43.984C240.987 44.5333 240.931 44.8987 240.984 45.08C241.037 45.2613 241.168 45.352 241.376 45.352C241.573 45.352 241.779 45.296 241.992 45.184C242.211 45.072 242.405 44.904 242.576 44.68C242.624 44.6267 242.667 44.592 242.704 44.576C242.741 44.5547 242.779 44.5493 242.816 44.56C242.869 44.5707 242.904 44.6027 242.92 44.656C242.936 44.7093 242.925 44.7813 242.888 44.872C242.813 45.096 242.661 45.3067 242.432 45.504C242.208 45.696 241.944 45.8507 241.64 45.968C241.336 46.0853 241.021 46.144 240.696 46.144C240.408 46.144 240.189 46.08 240.04 45.952C239.891 45.824 239.813 45.6213 239.808 45.344C239.803 45.0667 239.869 44.704 240.008 44.256L242.424 36.472C242.563 36.024 242.608 35.712 242.56 35.536C242.512 35.36 242.411 35.272 242.256 35.272C242.16 35.272 242.053 35.304 241.936 35.368C241.824 35.432 241.688 35.5467 241.528 35.712C241.453 35.7813 241.389 35.8267 241.336 35.848C241.288 35.8693 241.243 35.8693 241.2 35.848C241.152 35.8267 241.131 35.7867 241.136 35.728C241.141 35.664 241.165 35.5893 241.208 35.504C241.325 35.3013 241.469 35.128 241.64 34.984C241.816 34.8347 242.008 34.72 242.216 34.64C242.429 34.5547 242.648 34.512 242.872 34.512C243.128 34.512 243.325 34.5787 243.464 34.712C243.603 34.84 243.677 35.0347 243.688 35.296C243.704 35.5573 243.653 35.8827 243.536 36.272ZM249.927 44.184C249.809 44.6427 249.769 44.96 249.807 45.136C249.844 45.3067 249.929 45.392 250.063 45.392C250.169 45.392 250.276 45.36 250.383 45.296C250.489 45.2267 250.623 45.112 250.783 44.952C250.857 44.8827 250.919 44.8373 250.967 44.816C251.02 44.7893 251.068 44.7867 251.111 44.808C251.159 44.8293 251.18 44.872 251.175 44.936C251.175 44.9947 251.153 45.0667 251.111 45.152C250.935 45.456 250.695 45.6987 250.391 45.88C250.087 46.056 249.78 46.144 249.471 46.144C249.225 46.144 249.036 46.0827 248.903 45.96C248.769 45.832 248.703 45.64 248.703 45.384C248.703 45.2667 248.713 45.1333 248.735 44.984C248.761 44.8293 248.807 44.6293 248.871 44.384C248.935 44.1387 249.025 43.8213 249.143 43.432C249.265 43.0373 249.42 42.544 249.607 41.952L249.735 42.104C249.388 42.968 248.993 43.7013 248.551 44.304C248.113 44.9067 247.649 45.3653 247.159 45.68C246.668 45.9893 246.175 46.144 245.679 46.144C245.177 46.144 244.788 45.9707 244.511 45.624C244.233 45.2773 244.129 44.712 244.199 43.928C244.241 43.384 244.375 42.8533 244.599 42.336C244.828 41.8187 245.124 41.336 245.487 40.888C245.849 40.4347 246.263 40.0373 246.727 39.696C247.191 39.3547 247.687 39.0907 248.215 38.904C248.743 38.712 249.279 38.616 249.823 38.616C250.175 38.616 250.468 38.6427 250.703 38.696C250.937 38.7493 251.113 38.8213 251.231 38.912C251.348 39.0027 251.404 39.1067 251.399 39.224C251.393 39.3093 251.364 39.384 251.311 39.448C251.263 39.5067 251.209 39.568 251.151 39.632C251.092 39.6907 251.052 39.7653 251.031 39.856L249.927 44.184ZM245.327 43.856C245.273 44.4587 245.327 44.8853 245.487 45.136C245.652 45.3813 245.887 45.504 246.191 45.504C246.468 45.504 246.761 45.3973 247.071 45.184C247.385 44.9707 247.697 44.6773 248.007 44.304C248.321 43.9253 248.615 43.4933 248.887 43.008C249.159 42.5227 249.393 42.0027 249.591 41.448C249.793 40.888 249.937 40.3227 250.023 39.752C250.06 39.5227 250.033 39.3573 249.943 39.256C249.852 39.1547 249.711 39.104 249.519 39.104C249.135 39.104 248.751 39.192 248.367 39.368C247.988 39.5387 247.625 39.7787 247.279 40.088C246.937 40.392 246.625 40.7467 246.343 41.152C246.065 41.552 245.839 41.984 245.663 42.448C245.487 42.9067 245.375 43.376 245.327 43.856ZM254.32 39.392L253.6 39.264C253.525 39.248 253.469 39.2213 253.432 39.184C253.394 39.1413 253.376 39.0933 253.376 39.04C253.376 38.9653 253.405 38.9093 253.464 38.872C253.522 38.8293 253.602 38.808 253.704 38.808H254.528C254.624 38.808 254.704 38.792 254.768 38.76C254.837 38.7227 254.898 38.6693 254.952 38.6L255.68 37.456C255.728 37.3867 255.778 37.3387 255.832 37.312C255.89 37.2853 255.952 37.272 256.016 37.272C256.085 37.272 256.136 37.2907 256.168 37.328C256.205 37.3653 256.224 37.4213 256.224 37.496C256.224 37.544 256.216 37.6053 256.2 37.68C256.189 37.7547 256.168 37.8427 256.136 37.944L254.272 43.896C254.085 44.4933 254.037 44.888 254.128 45.08C254.218 45.2667 254.416 45.36 254.72 45.36C254.992 45.36 255.248 45.3013 255.488 45.184C255.728 45.0613 255.976 44.856 256.232 44.568C256.28 44.5147 256.32 44.48 256.352 44.464C256.389 44.4427 256.426 44.432 256.464 44.432C256.517 44.432 256.554 44.448 256.576 44.48C256.602 44.5067 256.613 44.5467 256.608 44.6C256.597 44.744 256.522 44.904 256.384 45.08C256.25 45.256 256.069 45.424 255.84 45.584C255.61 45.744 255.346 45.8773 255.048 45.984C254.749 46.0907 254.432 46.144 254.096 46.144C253.722 46.144 253.442 46.0667 253.256 45.912C253.074 45.7573 252.976 45.536 252.96 45.248C252.949 44.9547 253.008 44.6 253.136 44.184L254.448 40.056C254.522 39.816 254.549 39.6507 254.528 39.56C254.512 39.4693 254.442 39.4133 254.32 39.392ZM255.16 39.32L255.328 38.824H257.592C257.746 38.824 257.824 38.8853 257.824 39.008C257.824 39.104 257.778 39.1813 257.688 39.24C257.597 39.2933 257.472 39.32 257.312 39.32H255.16ZM258.663 42.72C258.663 42.72 258.764 42.6773 258.967 42.592C259.175 42.5067 259.444 42.3973 259.775 42.264C260.106 42.1307 260.463 41.984 260.847 41.824C261.236 41.664 261.612 41.5093 261.975 41.36C262.343 41.2107 262.666 41.0773 262.943 40.96L262.799 41.184C262.836 41.0827 262.863 40.9707 262.879 40.848C262.895 40.7253 262.903 40.5733 262.903 40.392C262.903 40.008 262.815 39.688 262.639 39.432C262.463 39.176 262.234 39.048 261.951 39.048C261.663 39.048 261.364 39.1547 261.055 39.368C260.746 39.5813 260.455 39.8747 260.183 40.248C259.911 40.616 259.682 41.0453 259.495 41.536C259.314 42.0213 259.204 42.5413 259.167 43.096C259.114 43.8907 259.244 44.488 259.559 44.888C259.874 45.2827 260.303 45.48 260.847 45.48C261.199 45.48 261.54 45.4133 261.871 45.28C262.207 45.1413 262.506 44.9387 262.767 44.672C263.028 44.4 263.223 44.0667 263.351 43.672C263.394 43.5867 263.436 43.528 263.479 43.496C263.522 43.4587 263.57 43.4427 263.623 43.448C263.687 43.448 263.735 43.4747 263.767 43.528C263.804 43.576 263.81 43.6587 263.783 43.776C263.719 44.1707 263.54 44.552 263.247 44.92C262.954 45.2827 262.562 45.5787 262.071 45.808C261.586 46.032 261.01 46.144 260.343 46.144C259.815 46.144 259.372 46.0373 259.015 45.824C258.658 45.6053 258.394 45.296 258.223 44.896C258.058 44.496 257.991 44.0133 258.023 43.448C258.06 42.808 258.202 42.2 258.447 41.624C258.692 41.0427 259.01 40.5253 259.399 40.072C259.794 39.6187 260.234 39.2613 260.719 39C261.21 38.7387 261.714 38.608 262.231 38.608C262.594 38.608 262.9 38.6853 263.151 38.84C263.407 38.9947 263.602 39.2027 263.735 39.464C263.874 39.72 263.948 40.0053 263.959 40.32C263.964 40.3893 263.983 40.4427 264.015 40.48C264.052 40.5173 264.106 40.5307 264.175 40.52C264.25 40.504 264.303 40.512 264.335 40.544C264.372 40.5707 264.391 40.6107 264.391 40.664C264.391 40.728 264.362 40.7893 264.303 40.848C264.244 40.9013 264.127 40.9627 263.951 41.032C263.754 41.1067 263.49 41.2107 263.159 41.344C262.828 41.4773 262.466 41.624 262.071 41.784C261.682 41.9387 261.29 42.096 260.895 42.256C260.5 42.4107 260.138 42.5547 259.807 42.688C259.482 42.816 259.218 42.92 259.015 43C258.818 43.08 258.719 43.12 258.719 43.12L258.663 42.72ZM273.335 36.272L270.975 44.168C270.884 44.472 270.831 44.7147 270.815 44.896C270.804 45.072 270.823 45.2 270.871 45.28C270.924 45.3547 271.002 45.392 271.103 45.392C271.204 45.392 271.311 45.36 271.423 45.296C271.535 45.232 271.671 45.1173 271.831 44.952C271.906 44.8827 271.967 44.8373 272.015 44.816C272.068 44.7893 272.116 44.7867 272.159 44.808C272.207 44.8293 272.228 44.872 272.223 44.936C272.223 44.9947 272.199 45.0667 272.151 45.152C272.044 45.3547 271.903 45.5307 271.727 45.68C271.556 45.8293 271.37 45.944 271.167 46.024C270.964 46.104 270.756 46.144 270.543 46.144C270.298 46.144 270.103 46.08 269.959 45.952C269.82 45.824 269.751 45.6347 269.751 45.384C269.751 45.2347 269.775 45.048 269.823 44.824C269.876 44.5947 269.962 44.2827 270.079 43.888C270.196 43.4933 270.354 42.976 270.551 42.336L270.735 42.432C270.351 43.2373 269.93 43.9173 269.471 44.472C269.012 45.0213 268.546 45.4373 268.071 45.72C267.602 46.0027 267.151 46.144 266.719 46.144C266.223 46.144 265.831 45.9733 265.543 45.632C265.26 45.2853 265.148 44.712 265.207 43.912C265.25 43.208 265.428 42.5387 265.743 41.904C266.058 41.2693 266.463 40.704 266.959 40.208C267.46 39.712 268.015 39.3227 268.623 39.04C269.231 38.7573 269.847 38.616 270.471 38.616C270.77 38.616 271.026 38.6507 271.239 38.72C271.458 38.7893 271.634 38.8907 271.767 39.024C271.906 39.152 272.004 39.3013 272.063 39.472L271.479 39.712C271.372 39.4987 271.228 39.3387 271.047 39.232C270.871 39.1253 270.634 39.072 270.335 39.072C269.956 39.072 269.58 39.1627 269.207 39.344C268.834 39.5253 268.479 39.776 268.143 40.096C267.807 40.416 267.506 40.784 267.239 41.2C266.972 41.616 266.759 42.0613 266.599 42.536C266.439 43.0053 266.348 43.4827 266.327 43.968C266.295 44.496 266.367 44.8773 266.543 45.112C266.719 45.3467 266.954 45.464 267.247 45.464C267.514 45.464 267.815 45.3493 268.151 45.12C268.487 44.8853 268.826 44.568 269.167 44.168C269.514 43.7627 269.831 43.3013 270.119 42.784C270.412 42.2613 270.644 41.7147 270.815 41.144L272.231 36.472C272.37 36.024 272.415 35.712 272.367 35.536C272.319 35.36 272.218 35.272 272.063 35.272C271.967 35.272 271.86 35.304 271.743 35.368C271.631 35.432 271.495 35.5467 271.335 35.712C271.26 35.7813 271.199 35.8267 271.151 35.848C271.103 35.8693 271.055 35.8693 271.007 35.848C270.959 35.8267 270.938 35.7867 270.943 35.728C270.948 35.664 270.972 35.5893 271.015 35.504C271.132 35.3013 271.276 35.128 271.447 34.984C271.618 34.8347 271.81 34.72 272.023 34.64C272.236 34.5547 272.452 34.512 272.671 34.512C272.927 34.512 273.122 34.5787 273.255 34.712C273.394 34.84 273.471 35.0347 273.487 35.296C273.503 35.5573 273.452 35.8827 273.335 36.272ZM278.835 39.392L278.115 39.264C278.041 39.248 277.985 39.2213 277.947 39.184C277.91 39.1413 277.891 39.0933 277.891 39.04C277.891 38.9653 277.921 38.9093 277.979 38.872C278.038 38.8293 278.118 38.808 278.219 38.808H279.043C279.139 38.808 279.219 38.792 279.283 38.76C279.353 38.7227 279.414 38.6693 279.467 38.6L280.195 37.456C280.243 37.3867 280.294 37.3387 280.347 37.312C280.406 37.2853 280.467 37.272 280.531 37.272C280.601 37.272 280.651 37.2907 280.683 37.328C280.721 37.3653 280.739 37.4213 280.739 37.496C280.739 37.544 280.731 37.6053 280.715 37.68C280.705 37.7547 280.683 37.8427 280.651 37.944L278.787 43.896C278.601 44.4933 278.553 44.888 278.643 45.08C278.734 45.2667 278.931 45.36 279.235 45.36C279.507 45.36 279.763 45.3013 280.003 45.184C280.243 45.0613 280.491 44.856 280.747 44.568C280.795 44.5147 280.835 44.48 280.867 44.464C280.905 44.4427 280.942 44.432 280.979 44.432C281.033 44.432 281.07 44.448 281.091 44.48C281.118 44.5067 281.129 44.5467 281.123 44.6C281.113 44.744 281.038 44.904 280.899 45.08C280.766 45.256 280.585 45.424 280.355 45.584C280.126 45.744 279.862 45.8773 279.563 45.984C279.265 46.0907 278.947 46.144 278.611 46.144C278.238 46.144 277.958 46.0667 277.771 45.912C277.59 45.7573 277.491 45.536 277.475 45.248C277.465 44.9547 277.523 44.6 277.651 44.184L278.963 40.056C279.038 39.816 279.065 39.6507 279.043 39.56C279.027 39.4693 278.958 39.4133 278.835 39.392ZM279.675 39.32L279.843 38.824H282.107C282.262 38.824 282.339 38.8853 282.339 39.008C282.339 39.104 282.294 39.1813 282.203 39.24C282.113 39.2933 281.987 39.32 281.827 39.32H279.675ZM286.843 38.608C287.408 38.6293 287.896 38.7867 288.307 39.08C288.717 39.3733 289.011 39.7867 289.187 40.32C289.363 40.8533 289.384 41.4987 289.251 42.256C289.149 42.8267 288.963 43.3547 288.691 43.84C288.424 44.3253 288.093 44.744 287.699 45.096C287.309 45.448 286.877 45.7173 286.403 45.904C285.933 46.0907 285.44 46.1707 284.923 46.144C284.379 46.1173 283.907 45.96 283.507 45.672C283.107 45.384 282.821 44.9733 282.651 44.44C282.48 43.9013 282.459 43.256 282.587 42.504C282.693 41.928 282.877 41.3973 283.139 40.912C283.405 40.4267 283.731 40.008 284.115 39.656C284.499 39.304 284.923 39.0373 285.387 38.856C285.851 38.6693 286.336 38.5867 286.843 38.608ZM285.011 45.656C285.283 45.6773 285.547 45.6427 285.803 45.552C286.064 45.456 286.312 45.312 286.547 45.12C286.787 44.9227 287.005 44.6827 287.203 44.4C287.4 44.112 287.571 43.784 287.715 43.416C287.864 43.0427 287.981 42.6373 288.067 42.2C288.195 41.5173 288.219 40.952 288.139 40.504C288.064 40.056 287.907 39.7173 287.667 39.488C287.427 39.2533 287.123 39.1227 286.755 39.096C286.488 39.0747 286.229 39.112 285.979 39.208C285.728 39.2987 285.485 39.4427 285.251 39.64C285.021 39.832 284.808 40.072 284.611 40.36C284.419 40.6427 284.251 40.9707 284.107 41.344C283.963 41.712 283.851 42.1173 283.771 42.56C283.637 43.2427 283.608 43.808 283.683 44.256C283.757 44.704 283.909 45.0427 284.139 45.272C284.373 45.5013 284.664 45.6293 285.011 45.656ZM114.96 65.048C114.757 65.9653 114.413 66.7173 113.928 67.304C113.443 67.8907 112.848 68.3227 112.144 68.6C111.445 68.8827 110.675 69.024 109.832 69.024C109.315 69.024 108.933 68.9493 108.688 68.8C108.443 68.656 108.32 68.4693 108.32 68.24C108.32 68.08 108.379 67.9467 108.496 67.84C108.608 67.7333 108.757 67.68 108.944 67.68C109.093 67.68 109.237 67.7147 109.376 67.784C109.52 67.8533 109.664 67.936 109.808 68.032C109.957 68.128 110.109 68.2107 110.264 68.28C110.424 68.3547 110.592 68.392 110.768 68.392C111.195 68.392 111.603 68.2987 111.992 68.112C112.381 67.9307 112.725 67.6373 113.024 67.232C113.328 66.832 113.557 66.296 113.712 65.624L114.736 61.312L114.928 61.456C114.603 62.24 114.235 62.9093 113.824 63.464C113.413 64.0133 112.971 64.432 112.496 64.72C112.021 65.0027 111.528 65.144 111.016 65.144C110.696 65.144 110.416 65.072 110.176 64.928C109.936 64.7787 109.755 64.552 109.632 64.248C109.515 63.9387 109.475 63.5387 109.512 63.048C109.544 62.488 109.667 61.944 109.88 61.416C110.093 60.8827 110.376 60.3867 110.728 59.928C111.08 59.464 111.488 59.0587 111.952 58.712C112.416 58.3653 112.917 58.0933 113.456 57.896C113.995 57.6987 114.555 57.6 115.136 57.6C115.472 57.6 115.752 57.624 115.976 57.672C116.205 57.72 116.376 57.7867 116.488 57.872C116.6 57.9573 116.653 58.0507 116.648 58.152C116.643 58.248 116.616 58.3253 116.568 58.384C116.52 58.4373 116.469 58.4933 116.416 58.552C116.368 58.6053 116.333 58.68 116.312 58.776L114.96 65.048ZM110.656 62.84C110.624 63.2507 110.648 63.576 110.728 63.816C110.808 64.0507 110.923 64.2187 111.072 64.32C111.227 64.416 111.403 64.464 111.6 64.464C111.909 64.464 112.229 64.344 112.56 64.104C112.891 63.8587 113.211 63.5333 113.52 63.128C113.829 62.7227 114.109 62.272 114.36 61.776C114.611 61.28 114.811 60.7733 114.96 60.256C115.115 59.7387 115.2 59.2507 115.216 58.792C115.232 58.552 115.197 58.3787 115.112 58.272C115.032 58.16 114.899 58.104 114.712 58.104C114.355 58.104 113.989 58.1893 113.616 58.36C113.243 58.5253 112.885 58.76 112.544 59.064C112.203 59.368 111.896 59.72 111.624 60.12C111.352 60.5147 111.131 60.944 110.96 61.408C110.789 61.872 110.688 62.3493 110.656 62.84ZM123.036 63.184C122.919 63.6427 122.879 63.96 122.916 64.136C122.953 64.3067 123.039 64.392 123.172 64.392C123.279 64.392 123.385 64.36 123.492 64.296C123.599 64.2267 123.732 64.112 123.892 63.952C123.967 63.8827 124.028 63.8373 124.076 63.816C124.129 63.7893 124.177 63.7867 124.22 63.808C124.268 63.8293 124.289 63.872 124.284 63.936C124.284 63.9947 124.263 64.0667 124.22 64.152C124.044 64.456 123.804 64.6987 123.5 64.88C123.196 65.056 122.889 65.144 122.58 65.144C122.335 65.144 122.145 65.0827 122.012 64.96C121.879 64.832 121.812 64.64 121.812 64.384C121.812 64.2667 121.823 64.1333 121.844 63.984C121.871 63.8293 121.916 63.6293 121.98 63.384C122.044 63.1387 122.135 62.8213 122.252 62.432C122.375 62.0373 122.529 61.544 122.716 60.952L122.844 61.104C122.497 61.968 122.103 62.7013 121.66 63.304C121.223 63.9067 120.759 64.3653 120.268 64.68C119.777 64.9893 119.284 65.144 118.788 65.144C118.287 65.144 117.897 64.9707 117.62 64.624C117.343 64.2773 117.239 63.712 117.308 62.928C117.351 62.384 117.484 61.8533 117.708 61.336C117.937 60.8187 118.233 60.336 118.596 59.888C118.959 59.4347 119.372 59.0373 119.836 58.696C120.3 58.3547 120.796 58.0907 121.324 57.904C121.852 57.712 122.388 57.616 122.932 57.616C123.284 57.616 123.577 57.6427 123.812 57.696C124.047 57.7493 124.223 57.8213 124.34 57.912C124.457 58.0027 124.513 58.1067 124.508 58.224C124.503 58.3093 124.473 58.384 124.42 58.448C124.372 58.5067 124.319 58.568 124.26 58.632C124.201 58.6907 124.161 58.7653 124.14 58.856L123.036 63.184ZM118.436 62.856C118.383 63.4587 118.436 63.8853 118.596 64.136C118.761 64.3813 118.996 64.504 119.3 64.504C119.577 64.504 119.871 64.3973 120.18 64.184C120.495 63.9707 120.807 63.6773 121.116 63.304C121.431 62.9253 121.724 62.4933 121.996 62.008C122.268 61.5227 122.503 61.0027 122.7 60.448C122.903 59.888 123.047 59.3227 123.132 58.752C123.169 58.5227 123.143 58.3573 123.052 58.256C122.961 58.1547 122.82 58.104 122.628 58.104C122.244 58.104 121.86 58.192 121.476 58.368C121.097 58.5387 120.735 58.7787 120.388 59.088C120.047 59.392 119.735 59.7467 119.452 60.152C119.175 60.552 118.948 60.984 118.772 61.448C118.596 61.9067 118.484 62.376 118.436 62.856ZM130.216 63.768L131.552 59.952C131.749 59.376 131.813 58.9733 131.744 58.744C131.68 58.5093 131.52 58.392 131.264 58.392C130.944 58.392 130.557 58.536 130.104 58.824C129.656 59.112 129.208 59.552 128.76 60.144C128.312 60.7307 127.928 61.4773 127.608 62.384C127.485 62.7413 127.392 63.0213 127.328 63.224C127.264 63.4213 127.219 63.5733 127.192 63.68C127.171 63.7867 127.16 63.8747 127.16 63.944C127.16 64.072 127.179 64.176 127.216 64.256C127.253 64.3307 127.272 64.4267 127.272 64.544C127.272 64.7253 127.187 64.872 127.016 64.984C126.845 65.0907 126.621 65.144 126.344 65.144C126.093 65.144 125.941 65.0373 125.888 64.824C125.84 64.6107 125.904 64.256 126.08 63.76L127.56 59.568C127.715 59.1253 127.773 58.816 127.736 58.64C127.699 58.464 127.6 58.376 127.44 58.376C127.349 58.376 127.245 58.408 127.128 58.472C127.011 58.536 126.872 58.6507 126.712 58.816C126.637 58.8853 126.573 58.9307 126.52 58.952C126.472 58.9733 126.427 58.9733 126.384 58.952C126.336 58.9307 126.315 58.8907 126.32 58.832C126.325 58.768 126.349 58.6933 126.392 58.608C126.568 58.304 126.805 58.064 127.104 57.888C127.408 57.7067 127.728 57.616 128.064 57.616C128.309 57.616 128.504 57.6747 128.648 57.792C128.797 57.904 128.872 58.0773 128.872 58.312C128.872 58.4507 128.845 58.6133 128.792 58.8C128.739 58.9867 128.656 59.224 128.544 59.512C128.437 59.7947 128.293 60.152 128.112 60.584C127.936 61.016 127.717 61.552 127.456 62.192L127.504 61.776C127.925 60.736 128.405 59.9147 128.944 59.312C129.488 58.704 130.024 58.2693 130.552 58.008C131.085 57.7467 131.549 57.616 131.944 57.616C132.291 57.616 132.547 57.6933 132.712 57.848C132.877 58.0027 132.949 58.2427 132.928 58.568C132.923 58.7013 132.899 58.848 132.856 59.008C132.813 59.168 132.741 59.376 132.64 59.632C132.544 59.8827 132.413 60.2133 132.248 60.624C132.088 61.0347 131.883 61.5573 131.632 62.192V61.776C131.952 61.0027 132.301 60.3493 132.68 59.816C133.064 59.2827 133.456 58.856 133.856 58.536C134.261 58.2107 134.651 57.976 135.024 57.832C135.403 57.688 135.741 57.616 136.04 57.616C136.413 57.616 136.675 57.7067 136.824 57.888C136.979 58.064 137.043 58.32 137.016 58.656C136.995 58.992 136.901 59.3973 136.736 59.872L135.568 63.192C135.413 63.6347 135.357 63.944 135.4 64.12C135.443 64.296 135.539 64.384 135.688 64.384C135.789 64.384 135.896 64.352 136.008 64.288C136.125 64.224 136.264 64.1093 136.424 63.944C136.499 63.8747 136.56 63.8293 136.608 63.808C136.661 63.7813 136.709 63.7787 136.752 63.8C136.8 63.8267 136.821 63.872 136.816 63.936C136.811 63.9947 136.787 64.0667 136.744 64.152C136.573 64.456 136.336 64.6987 136.032 64.88C135.733 65.056 135.413 65.144 135.072 65.144C134.816 65.144 134.619 65.08 134.48 64.952C134.341 64.8187 134.269 64.6213 134.264 64.36C134.259 64.0987 134.32 63.7787 134.448 63.4L135.648 59.952C135.856 59.376 135.923 58.9733 135.848 58.744C135.773 58.5093 135.611 58.392 135.36 58.392C135.04 58.392 134.659 58.5387 134.216 58.832C133.773 59.12 133.331 59.56 132.888 60.152C132.445 60.7387 132.064 61.4827 131.744 62.384C131.621 62.7413 131.525 63.0213 131.456 63.224C131.392 63.4213 131.349 63.5733 131.328 63.68C131.307 63.7867 131.296 63.8747 131.296 63.944C131.296 64.072 131.315 64.176 131.352 64.256C131.389 64.3307 131.408 64.4267 131.408 64.544C131.408 64.7253 131.32 64.872 131.144 64.984C130.973 65.0907 130.752 65.144 130.48 65.144C130.315 65.144 130.192 65.0987 130.112 65.008C130.032 64.9173 130 64.7707 130.016 64.568C130.037 64.3653 130.104 64.0987 130.216 63.768ZM139.241 61.72C139.241 61.72 139.342 61.6773 139.545 61.592C139.753 61.5067 140.022 61.3973 140.353 61.264C140.684 61.1307 141.041 60.984 141.425 60.824C141.814 60.664 142.19 60.5093 142.553 60.36C142.921 60.2107 143.244 60.0773 143.521 59.96L143.377 60.184C143.414 60.0827 143.441 59.9707 143.457 59.848C143.473 59.7253 143.481 59.5733 143.481 59.392C143.481 59.008 143.393 58.688 143.217 58.432C143.041 58.176 142.812 58.048 142.529 58.048C142.241 58.048 141.942 58.1547 141.633 58.368C141.324 58.5813 141.033 58.8747 140.761 59.248C140.489 59.616 140.26 60.0453 140.073 60.536C139.892 61.0213 139.782 61.5413 139.745 62.096C139.692 62.8907 139.822 63.488 140.137 63.888C140.452 64.2827 140.881 64.48 141.425 64.48C141.777 64.48 142.118 64.4133 142.449 64.28C142.785 64.1413 143.084 63.9387 143.345 63.672C143.606 63.4 143.801 63.0667 143.929 62.672C143.972 62.5867 144.014 62.528 144.057 62.496C144.1 62.4587 144.148 62.4427 144.201 62.448C144.265 62.448 144.313 62.4747 144.345 62.528C144.382 62.576 144.388 62.6587 144.361 62.776C144.297 63.1707 144.118 63.552 143.825 63.92C143.532 64.2827 143.14 64.5787 142.649 64.808C142.164 65.032 141.588 65.144 140.921 65.144C140.393 65.144 139.95 65.0373 139.593 64.824C139.236 64.6053 138.972 64.296 138.801 63.896C138.636 63.496 138.569 63.0133 138.601 62.448C138.638 61.808 138.78 61.2 139.025 60.624C139.27 60.0427 139.588 59.5253 139.977 59.072C140.372 58.6187 140.812 58.2613 141.297 58C141.788 57.7387 142.292 57.608 142.809 57.608C143.172 57.608 143.478 57.6853 143.729 57.84C143.985 57.9947 144.18 58.2027 144.313 58.464C144.452 58.72 144.526 59.0053 144.537 59.32C144.542 59.3893 144.561 59.4427 144.593 59.48C144.63 59.5173 144.684 59.5307 144.753 59.52C144.828 59.504 144.881 59.512 144.913 59.544C144.95 59.5707 144.969 59.6107 144.969 59.664C144.969 59.728 144.94 59.7893 144.881 59.848C144.822 59.9013 144.705 59.9627 144.529 60.032C144.332 60.1067 144.068 60.2107 143.737 60.344C143.406 60.4773 143.044 60.624 142.649 60.784C142.26 60.9387 141.868 61.096 141.473 61.256C141.078 61.4107 140.716 61.5547 140.385 61.688C140.06 61.816 139.796 61.92 139.593 62C139.396 62.08 139.297 62.12 139.297 62.12L139.241 61.72ZM147.847 64.696C148.241 64.696 148.564 64.5947 148.815 64.392C149.071 64.184 149.199 63.92 149.199 63.6C149.199 63.44 149.164 63.28 149.095 63.12C149.025 62.96 148.9 62.7787 148.719 62.576C148.543 62.3733 148.284 62.128 147.943 61.84C147.58 61.5307 147.297 61.264 147.095 61.04C146.892 60.816 146.751 60.6027 146.671 60.4C146.591 60.192 146.551 59.96 146.551 59.704C146.551 59.3253 146.66 58.9787 146.879 58.664C147.103 58.344 147.417 58.088 147.823 57.896C148.233 57.704 148.721 57.608 149.286 57.608C149.724 57.608 150.095 57.672 150.399 57.8C150.708 57.928 150.945 58.096 151.111 58.304C151.276 58.5067 151.359 58.72 151.359 58.944C151.359 59.0987 151.319 59.2187 151.239 59.304C151.164 59.3893 151.063 59.432 150.935 59.432C150.817 59.432 150.713 59.3947 150.623 59.32C150.532 59.24 150.441 59.1013 150.351 58.904C150.223 58.6213 150.06 58.4027 149.863 58.248C149.665 58.0933 149.42 58.016 149.127 58.016C148.663 58.016 148.292 58.1413 148.015 58.392C147.737 58.6373 147.599 58.9413 147.599 59.304C147.599 59.4747 147.631 59.6453 147.695 59.816C147.764 59.9813 147.887 60.168 148.063 60.376C148.239 60.5787 148.495 60.8267 148.831 61.12C149.209 61.4507 149.5 61.7307 149.703 61.96C149.911 62.1893 150.055 62.4027 150.135 62.6C150.215 62.7973 150.255 63.0133 150.255 63.248C150.249 63.6107 150.14 63.936 149.927 64.224C149.719 64.5067 149.417 64.7307 149.023 64.896C148.628 65.0613 148.161 65.144 147.623 65.144C147.164 65.144 146.767 65.0693 146.431 64.92C146.095 64.7707 145.833 64.5813 145.647 64.352C145.46 64.1173 145.367 63.88 145.367 63.64C145.372 63.4907 145.409 63.3733 145.479 63.288C145.553 63.2027 145.649 63.16 145.767 63.16C145.884 63.16 145.993 63.2 146.095 63.28C146.196 63.36 146.292 63.496 146.383 63.688C146.575 64.0507 146.793 64.3093 147.039 64.464C147.284 64.6187 147.553 64.696 147.847 64.696Z" fill="#1D1D1D"/>
<path d="M10.14 61.6H11.4L13.02 59.2V36.64C13.02 35.86 12.54 34.54 11.1 34.54H9.66L8.1 37V59.26C8.1 60.94 9.06 61.6 10.14 61.6ZM10.38 30.28H11.4L13.02 27.88V15.64C13.02 14.26 12.42 13.3 10.74 13.3H9.72L8.1 15.76V28C8.1 29.5 8.88 30.28 10.38 30.28ZM1.02 27.88V18.22L8.22 8.68H12.96C17.34 8.68 20.1 11.98 20.1 16.3V26.26C19.68 26.68 15.36 31.12 14.82 31.66C18.84 33.16 20.1 34.9 20.1 38.8V56.92L12.84 67H8.34C2.94 67 1.02 62.86 1.02 57.16V40.66C1.38 40.12 5.4 34.6 5.88 33.94C3 33.22 1.02 31.6 1.02 27.88ZM36.5695 14.98L29.1895 52.18H34.5295L36.9895 14.98H36.5695ZM22.5295 57.46V53.68L32.7895 8.68H41.4895V52.18H45.5095V58.42H41.4895V67H34.4095L34.4695 58.42H23.5495C22.8895 58.42 22.5295 58.12 22.5295 57.46ZM80.8978 63.34H81.7978L83.2378 61.24V38.74L78.8578 48.34V61.24C78.8578 62.62 79.5778 63.34 80.8978 63.34ZM55.3378 47.26H56.2378L57.6178 45.16V22.24L53.2378 31.84V45.16C53.2378 46.54 53.9578 47.26 55.3378 47.26ZM78.8578 30.94V44.32L83.2378 34.72V31C83.2378 29.56 82.5778 28.9 81.1978 28.9H80.2978L78.8578 30.94ZM53.2378 14.5V27.82L57.6178 18.22V14.5C57.6178 13.12 56.8978 12.4 55.5778 12.4H54.6778L53.2378 14.5ZM62.4178 43.48L57.1378 50.92H53.8378C50.5978 50.92 48.4378 48.7 48.4378 45.34V16.18L53.7178 8.74H57.0178C60.2578 8.74 62.4178 10.96 62.4178 14.32V43.48ZM59.2378 67H54.8578L77.3578 8.68H81.7378L59.2378 67ZM88.0378 59.56L82.7578 67H79.4578C76.2178 67 74.0578 64.78 74.0578 61.42V32.68L79.3378 25.24H82.6378C85.8778 25.24 88.0378 27.46 88.0378 30.82V59.56Z" fill="#FE016A"/>
</svg>
