<svg width="360" height="204" viewBox="0 0 360 204" fill="none" xmlns="http://www.w3.org/2000/svg">
<rect x="25.6" y="3.6" width="302.8" height="192.8" stroke="#FE016A" stroke-width="7.2" stroke-dasharray="7.2 7.2"/>
<rect x="32.6" y="6.6" width="302.8" height="193.8" stroke="#00EAE5" stroke-width="7.2" stroke-dasharray="7.2 7.2"/>
<path d="M73.2268 58.248H67.4028V53.448L75.0828 37.704H64.2028V32.2H81.5468V37.256L73.5468 53.448H75.1468C79.4988 53.448 82.3788 56.392 82.3788 60.872V101.512C82.3788 105.992 79.4988 109 75.1468 109H70.7948L63.6908 99.08V64.2C63.6908 63.56 64.0108 63.24 64.6508 63.24H69.9628V101.256L71.9468 104.2H73.2268C75.1468 104.2 76.1068 103.24 76.1068 101.256V61.128C76.1068 59.208 75.1468 58.248 73.2268 58.248ZM85.6283 108.04V104.008C85.6283 93.96 87.6763 85.64 90.6203 80.072L95.9323 69.896C96.9563 67.976 98.6203 65.096 98.6203 61.768V39.88C98.6203 37.96 97.6603 37 95.7403 37H94.4603L92.4763 39.944V62.984H87.1643C86.5883 62.984 86.2043 62.6 86.2043 62.024V42.12L93.3083 32.2H97.6603C102.012 32.2 104.892 35.144 104.892 39.624V62.088C104.892 67.144 102.78 70.344 100.54 74.44L96.0603 82.952C93.3723 87.944 92.2203 95.624 92.2203 103.368H104.188V109H86.5883C86.0123 109 85.6283 108.616 85.6283 108.04ZM122.6 84.168L117.16 91.848H113.832C110.504 91.848 108.264 89.544 108.264 86.088V39.88L113.64 32.2H117.032C120.36 32.2 122.6 34.504 122.6 37.96V84.168ZM119.656 109H115.688L139.688 32.2H143.656L119.656 109ZM112.616 38.472V55.816L118.248 41.544V38.216C118.248 36.424 117.352 35.528 115.56 35.528H114.6L112.616 38.472ZM115.304 88.52H116.264L118.248 85.576V45.448L112.616 59.656V85.832C112.616 87.624 113.512 88.52 115.304 88.52ZM150.888 101.32L145.512 109H142.12C138.792 109 136.552 106.696 136.552 103.24V58.376L141.992 50.696H145.32C148.648 50.696 150.888 53 150.888 56.392V101.32ZM140.904 56.968V74.312L146.536 60.04V56.712C146.536 54.856 145.64 54.024 143.848 54.024H142.888L140.904 56.968ZM143.592 105.672H144.552L146.536 102.728V63.944L140.904 78.152V102.984C140.904 104.776 141.8 105.672 143.592 105.672Z" fill="black"/>
<path d="M66.7675 132.144C65.9595 132.144 65.3215 131.858 64.8535 131.286C64.3855 130.71 64.1515 129.928 64.1515 128.94C64.1515 128.28 64.2575 127.71 64.4695 127.23C64.6815 126.75 64.9835 126.38 65.3755 126.12C65.7675 125.856 66.2315 125.724 66.7675 125.724C67.3075 125.724 67.7735 125.854 68.1655 126.114C68.5575 126.37 68.8575 126.738 69.0655 127.218C69.2775 127.698 69.3835 128.268 69.3835 128.928C69.3835 129.588 69.2775 130.16 69.0655 130.644C68.8535 131.124 68.5515 131.494 68.1595 131.754C67.7675 132.014 67.3035 132.144 66.7675 132.144ZM66.7675 131.352C67.3195 131.352 67.7495 131.138 68.0575 130.71C68.3695 130.282 68.5255 129.688 68.5255 128.928C68.5255 128.164 68.3695 127.57 68.0575 127.146C67.7495 126.722 67.3195 126.51 66.7675 126.51C66.2075 126.51 65.7735 126.722 65.4655 127.146C65.1615 127.566 65.0095 128.164 65.0095 128.94C65.0095 129.704 65.1635 130.298 65.4715 130.722C65.7795 131.142 66.2115 131.352 66.7675 131.352ZM71.2252 132V126.606H70.2652V125.868H71.2252V124.818C71.2252 124.378 71.3352 124.042 71.5552 123.81C71.7792 123.574 72.0972 123.456 72.5092 123.456C72.6812 123.456 72.8512 123.478 73.0192 123.522C73.1912 123.566 73.3552 123.63 73.5112 123.714V124.422C73.3472 124.346 73.2012 124.292 73.0732 124.26C72.9452 124.228 72.8152 124.212 72.6832 124.212C72.4632 124.212 72.3052 124.27 72.2092 124.386C72.1132 124.498 72.0652 124.688 72.0652 124.956V125.868H73.5112V126.606H72.0652V132H71.2252ZM77.3531 134.436V125.868H78.1931V126.51C78.6291 125.986 79.1891 125.724 79.8731 125.724C80.3771 125.724 80.8131 125.854 81.1811 126.114C81.5491 126.374 81.8331 126.744 82.0331 127.224C82.2331 127.704 82.3331 128.272 82.3331 128.928C82.3331 129.588 82.2311 130.16 82.0271 130.644C81.8271 131.124 81.5391 131.494 81.1631 131.754C80.7911 132.014 80.3491 132.144 79.8371 132.144C79.4931 132.144 79.1831 132.072 78.9071 131.928C78.6311 131.78 78.3931 131.564 78.1931 131.28V134.034L77.3531 134.436ZM79.7531 131.352C80.3051 131.352 80.7291 131.142 81.0251 130.722C81.3211 130.302 81.4691 129.704 81.4691 128.928C81.4691 128.184 81.3131 127.596 81.0011 127.164C80.6931 126.728 80.2771 126.51 79.7531 126.51C79.4251 126.51 79.1251 126.592 78.8531 126.756C78.5811 126.92 78.3611 127.152 78.1931 127.452V130.362C78.4051 130.686 78.6431 130.932 78.9071 131.1C79.1711 131.268 79.4531 131.352 79.7531 131.352ZM86.3446 132.144C85.8006 132.144 85.3306 132.01 84.9346 131.742C84.5426 131.47 84.2406 131.092 84.0286 130.608C83.8166 130.124 83.7106 129.564 83.7106 128.928C83.7106 128.252 83.8206 127.676 84.0406 127.2C84.2646 126.72 84.5746 126.354 84.9706 126.102C85.3666 125.85 85.8246 125.724 86.3446 125.724C86.7966 125.724 87.2066 125.83 87.5746 126.042C87.9426 126.254 88.2346 126.582 88.4506 127.026C88.6666 127.47 88.7746 128.04 88.7746 128.736C88.7746 128.808 88.7726 128.89 88.7686 128.982C88.7646 129.07 88.7586 129.162 88.7506 129.258H84.5806C84.6126 129.682 84.6986 130.054 84.8386 130.374C84.9826 130.69 85.1806 130.94 85.4326 131.124C85.6886 131.304 86.0026 131.394 86.3746 131.394C86.6266 131.394 86.8686 131.35 87.1006 131.262C87.3326 131.17 87.5486 131.03 87.7486 130.842L88.2406 131.406C88.0166 131.618 87.7406 131.794 87.4126 131.934C87.0886 132.074 86.7326 132.144 86.3446 132.144ZM84.5686 128.52H87.9166C87.9166 128.14 87.8586 127.794 87.7426 127.482C87.6306 127.17 87.4566 126.922 87.2206 126.738C86.9886 126.554 86.6966 126.462 86.3446 126.462C85.8686 126.462 85.4626 126.626 85.1266 126.954C84.7946 127.282 84.6086 127.804 84.5686 128.52ZM92.7222 132.144C91.9142 132.144 91.2762 131.858 90.8082 131.286C90.3402 130.71 90.1062 129.928 90.1062 128.94C90.1062 128.28 90.2122 127.71 90.4242 127.23C90.6362 126.75 90.9382 126.38 91.3302 126.12C91.7222 125.856 92.1862 125.724 92.7222 125.724C93.2622 125.724 93.7282 125.854 94.1202 126.114C94.5122 126.37 94.8122 126.738 95.0202 127.218C95.2322 127.698 95.3382 128.268 95.3382 128.928C95.3382 129.588 95.2322 130.16 95.0202 130.644C94.8082 131.124 94.5062 131.494 94.1142 131.754C93.7222 132.014 93.2582 132.144 92.7222 132.144ZM92.7222 131.352C93.2742 131.352 93.7042 131.138 94.0122 130.71C94.3242 130.282 94.4802 129.688 94.4802 128.928C94.4802 128.164 94.3242 127.57 94.0122 127.146C93.7042 126.722 93.2742 126.51 92.7222 126.51C92.1622 126.51 91.7282 126.722 91.4202 127.146C91.1162 127.566 90.9642 128.164 90.9642 128.94C90.9642 129.704 91.1182 130.298 91.4262 130.722C91.7342 131.142 92.1662 131.352 92.7222 131.352ZM96.9385 134.436V125.868H97.7785V126.51C98.2145 125.986 98.7745 125.724 99.4585 125.724C99.9625 125.724 100.398 125.854 100.766 126.114C101.134 126.374 101.418 126.744 101.618 127.224C101.818 127.704 101.918 128.272 101.918 128.928C101.918 129.588 101.816 130.16 101.612 130.644C101.412 131.124 101.124 131.494 100.748 131.754C100.376 132.014 99.9345 132.144 99.4225 132.144C99.0785 132.144 98.7685 132.072 98.4925 131.928C98.2165 131.78 97.9785 131.564 97.7785 131.28V134.034L96.9385 134.436ZM99.3385 131.352C99.8905 131.352 100.314 131.142 100.61 130.722C100.906 130.302 101.054 129.704 101.054 128.928C101.054 128.184 100.898 127.596 100.586 127.164C100.278 126.728 99.8625 126.51 99.3385 126.51C99.0105 126.51 98.7105 126.592 98.4385 126.756C98.1665 126.92 97.9465 127.152 97.7785 127.452V130.362C97.9905 130.686 98.2285 130.932 98.4925 131.1C98.7565 131.268 99.0385 131.352 99.3385 131.352ZM103.61 132V123.738L104.45 123.336V132H103.61ZM108.775 132.144C108.231 132.144 107.761 132.01 107.365 131.742C106.973 131.47 106.671 131.092 106.459 130.608C106.247 130.124 106.141 129.564 106.141 128.928C106.141 128.252 106.251 127.676 106.471 127.2C106.695 126.72 107.005 126.354 107.401 126.102C107.797 125.85 108.255 125.724 108.775 125.724C109.227 125.724 109.637 125.83 110.005 126.042C110.373 126.254 110.665 126.582 110.881 127.026C111.097 127.47 111.205 128.04 111.205 128.736C111.205 128.808 111.203 128.89 111.199 128.982C111.195 129.07 111.189 129.162 111.181 129.258H107.011C107.043 129.682 107.129 130.054 107.269 130.374C107.413 130.69 107.611 130.94 107.863 131.124C108.119 131.304 108.433 131.394 108.805 131.394C109.057 131.394 109.299 131.35 109.531 131.262C109.763 131.17 109.979 131.03 110.179 130.842L110.671 131.406C110.447 131.618 110.171 131.794 109.843 131.934C109.519 132.074 109.163 132.144 108.775 132.144ZM106.999 128.52H110.347C110.347 128.14 110.289 127.794 110.173 127.482C110.061 127.17 109.887 126.922 109.651 126.738C109.419 126.554 109.127 126.462 108.775 126.462C108.299 126.462 107.893 126.626 107.557 126.954C107.225 127.282 107.039 127.804 106.999 128.52ZM117.687 132.144C117.143 132.144 116.673 132.01 116.277 131.742C115.885 131.47 115.583 131.092 115.371 130.608C115.159 130.124 115.053 129.564 115.053 128.928C115.053 128.252 115.163 127.676 115.383 127.2C115.607 126.72 115.917 126.354 116.313 126.102C116.709 125.85 117.167 125.724 117.687 125.724C118.139 125.724 118.549 125.83 118.917 126.042C119.285 126.254 119.577 126.582 119.793 127.026C120.009 127.47 120.117 128.04 120.117 128.736C120.117 128.808 120.115 128.89 120.111 128.982C120.107 129.07 120.101 129.162 120.093 129.258H115.923C115.955 129.682 116.041 130.054 116.181 130.374C116.325 130.69 116.523 130.94 116.775 131.124C117.031 131.304 117.345 131.394 117.717 131.394C117.969 131.394 118.211 131.35 118.443 131.262C118.675 131.17 118.891 131.03 119.091 130.842L119.583 131.406C119.359 131.618 119.083 131.794 118.755 131.934C118.431 132.074 118.075 132.144 117.687 132.144ZM115.911 128.52H119.259C119.259 128.14 119.201 127.794 119.085 127.482C118.973 127.17 118.799 126.922 118.563 126.738C118.331 126.554 118.039 126.462 117.687 126.462C117.211 126.462 116.805 126.626 116.469 126.954C116.137 127.282 115.951 127.804 115.911 128.52ZM123.355 132.144C122.707 132.144 122.199 131.964 121.831 131.604C121.463 131.24 121.279 130.74 121.279 130.104C121.279 129.696 121.369 129.342 121.549 129.042C121.733 128.742 121.991 128.512 122.323 128.352C122.659 128.188 123.055 128.106 123.511 128.106C123.811 128.106 124.097 128.144 124.369 128.22C124.645 128.296 124.911 128.41 125.167 128.562V127.974C125.167 127.454 125.053 127.072 124.825 126.828C124.601 126.584 124.251 126.462 123.775 126.462C123.491 126.462 123.189 126.516 122.869 126.624C122.553 126.728 122.253 126.876 121.969 127.068L121.723 126.36C122.047 126.156 122.397 126 122.773 125.892C123.149 125.78 123.517 125.724 123.877 125.724C124.565 125.724 125.085 125.904 125.437 126.264C125.789 126.624 125.965 127.154 125.965 127.854V132H125.167V131.304C124.923 131.572 124.643 131.78 124.327 131.928C124.015 132.072 123.691 132.144 123.355 132.144ZM123.463 131.406C123.771 131.406 124.071 131.326 124.363 131.166C124.655 131.002 124.923 130.768 125.167 130.464V129.318C124.931 129.166 124.675 129.05 124.399 128.97C124.127 128.886 123.863 128.844 123.607 128.844C123.147 128.844 122.779 128.96 122.503 129.192C122.231 129.42 122.095 129.726 122.095 130.11C122.095 130.506 122.217 130.822 122.461 131.058C122.705 131.29 123.039 131.406 123.463 131.406ZM127.941 132V125.868H128.781V126.84C128.933 126.48 129.143 126.204 129.411 126.012C129.683 125.82 129.997 125.724 130.353 125.724C130.721 125.724 131.021 125.822 131.253 126.018L131.127 126.816C131.007 126.732 130.875 126.67 130.731 126.63C130.591 126.59 130.439 126.57 130.275 126.57C129.979 126.57 129.719 126.654 129.495 126.822C129.271 126.99 129.095 127.224 128.967 127.524C128.843 127.82 128.781 128.166 128.781 128.562V132H127.941ZM132.403 132V125.868H133.243V126.654C133.415 126.354 133.643 126.124 133.927 125.964C134.215 125.804 134.541 125.724 134.905 125.724C135.621 125.724 136.153 125.946 136.501 126.39C136.849 126.83 137.023 127.5 137.023 128.4V132H136.183V128.25C136.183 127.678 136.063 127.244 135.823 126.948C135.583 126.648 135.235 126.498 134.779 126.498C134.275 126.498 133.893 126.652 133.633 126.96C133.373 127.268 133.243 127.722 133.243 128.322V132H132.403ZM143.882 132.144C143.074 132.144 142.436 131.858 141.968 131.286C141.5 130.71 141.266 129.928 141.266 128.94C141.266 128.28 141.372 127.71 141.584 127.23C141.796 126.75 142.098 126.38 142.49 126.12C142.882 125.856 143.346 125.724 143.882 125.724C144.422 125.724 144.888 125.854 145.28 126.114C145.672 126.37 145.972 126.738 146.18 127.218C146.392 127.698 146.498 128.268 146.498 128.928C146.498 129.588 146.392 130.16 146.18 130.644C145.968 131.124 145.666 131.494 145.274 131.754C144.882 132.014 144.418 132.144 143.882 132.144ZM143.882 131.352C144.434 131.352 144.864 131.138 145.172 130.71C145.484 130.282 145.64 129.688 145.64 128.928C145.64 128.164 145.484 127.57 145.172 127.146C144.864 126.722 144.434 126.51 143.882 126.51C143.322 126.51 142.888 126.722 142.58 127.146C142.276 127.566 142.124 128.164 142.124 128.94C142.124 129.704 142.278 130.298 142.586 130.722C142.894 131.142 143.326 131.352 143.882 131.352ZM148.098 132V125.868H148.938V126.84C149.09 126.48 149.3 126.204 149.568 126.012C149.84 125.82 150.154 125.724 150.51 125.724C150.878 125.724 151.178 125.822 151.41 126.018L151.284 126.816C151.164 126.732 151.032 126.67 150.888 126.63C150.748 126.59 150.596 126.57 150.432 126.57C150.136 126.57 149.876 126.654 149.652 126.822C149.428 126.99 149.252 127.224 149.124 127.524C149 127.82 148.938 128.166 148.938 128.562V132H148.098ZM57.3635 146V137.726L58.2035 137.336V140.66C58.3755 140.36 58.6055 140.13 58.8935 139.97C59.1815 139.806 59.5055 139.724 59.8655 139.724C60.3815 139.724 60.7935 139.834 61.1015 140.054C61.4135 140.27 61.6375 140.578 61.7735 140.978C61.9135 141.378 61.9835 141.852 61.9835 142.4V146H61.1435V142.25C61.1435 141.722 61.0315 141.298 60.8075 140.978C60.5875 140.658 60.2315 140.498 59.7395 140.498C59.2355 140.498 58.8535 140.652 58.5935 140.96C58.3335 141.268 58.2035 141.722 58.2035 142.322V146H57.3635ZM65.7213 146.144C65.0733 146.144 64.5653 145.964 64.1973 145.604C63.8293 145.24 63.6453 144.74 63.6453 144.104C63.6453 143.696 63.7353 143.342 63.9153 143.042C64.0993 142.742 64.3573 142.512 64.6893 142.352C65.0253 142.188 65.4213 142.106 65.8773 142.106C66.1773 142.106 66.4633 142.144 66.7353 142.22C67.0113 142.296 67.2773 142.41 67.5333 142.562V141.974C67.5333 141.454 67.4193 141.072 67.1913 140.828C66.9673 140.584 66.6173 140.462 66.1413 140.462C65.8573 140.462 65.5553 140.516 65.2353 140.624C64.9193 140.728 64.6193 140.876 64.3353 141.068L64.0893 140.36C64.4133 140.156 64.7633 140 65.1393 139.892C65.5153 139.78 65.8833 139.724 66.2433 139.724C66.9313 139.724 67.4513 139.904 67.8033 140.264C68.1553 140.624 68.3313 141.154 68.3313 141.854V146H67.5333V145.304C67.2893 145.572 67.0093 145.78 66.6933 145.928C66.3813 146.072 66.0573 146.144 65.7213 146.144ZM65.8293 145.406C66.1373 145.406 66.4373 145.326 66.7293 145.166C67.0213 145.002 67.2893 144.768 67.5333 144.464V143.318C67.2973 143.166 67.0413 143.05 66.7653 142.97C66.4933 142.886 66.2293 142.844 65.9733 142.844C65.5133 142.844 65.1453 142.96 64.8693 143.192C64.5973 143.42 64.4613 143.726 64.4613 144.11C64.4613 144.506 64.5833 144.822 64.8273 145.058C65.0713 145.29 65.4053 145.406 65.8293 145.406ZM71.6928 146L69.4728 139.868H70.3188L71.8788 144.242C71.9108 144.33 71.9408 144.416 71.9688 144.5C71.9968 144.584 72.0248 144.676 72.0528 144.776C72.0808 144.676 72.1068 144.584 72.1308 144.5C72.1588 144.416 72.1888 144.33 72.2208 144.242L73.7688 139.868H74.6088L72.3828 146H71.6928ZM78.1736 146.144C77.6296 146.144 77.1596 146.01 76.7636 145.742C76.3716 145.47 76.0696 145.092 75.8576 144.608C75.6456 144.124 75.5396 143.564 75.5396 142.928C75.5396 142.252 75.6496 141.676 75.8696 141.2C76.0936 140.72 76.4036 140.354 76.7996 140.102C77.1956 139.85 77.6536 139.724 78.1736 139.724C78.6256 139.724 79.0356 139.83 79.4036 140.042C79.7716 140.254 80.0636 140.582 80.2796 141.026C80.4956 141.47 80.6036 142.04 80.6036 142.736C80.6036 142.808 80.6016 142.89 80.5976 142.982C80.5936 143.07 80.5876 143.162 80.5796 143.258H76.4096C76.4416 143.682 76.5276 144.054 76.6676 144.374C76.8116 144.69 77.0096 144.94 77.2616 145.124C77.5176 145.304 77.8316 145.394 78.2036 145.394C78.4556 145.394 78.6976 145.35 78.9296 145.262C79.1616 145.17 79.3776 145.03 79.5776 144.842L80.0696 145.406C79.8456 145.618 79.5696 145.794 79.2416 145.934C78.9176 146.074 78.5616 146.144 78.1736 146.144ZM76.3976 142.52H79.7456C79.7456 142.14 79.6876 141.794 79.5716 141.482C79.4596 141.17 79.2856 140.922 79.0496 140.738C78.8176 140.554 78.5256 140.462 78.1736 140.462C77.6976 140.462 77.2916 140.626 76.9556 140.954C76.6236 141.282 76.4376 141.804 76.3976 142.52ZM87.0859 146.144C86.5419 146.144 86.0719 146.01 85.6759 145.742C85.2839 145.47 84.9819 145.092 84.7699 144.608C84.5579 144.124 84.4519 143.564 84.4519 142.928C84.4519 142.252 84.5619 141.676 84.7819 141.2C85.0059 140.72 85.3159 140.354 85.7119 140.102C86.1079 139.85 86.5659 139.724 87.0859 139.724C87.5379 139.724 87.9479 139.83 88.3159 140.042C88.6839 140.254 88.9759 140.582 89.1919 141.026C89.4079 141.47 89.5159 142.04 89.5159 142.736C89.5159 142.808 89.5139 142.89 89.5099 142.982C89.5059 143.07 89.4999 143.162 89.4919 143.258H85.3219C85.3539 143.682 85.4399 144.054 85.5799 144.374C85.7239 144.69 85.9219 144.94 86.1739 145.124C86.4299 145.304 86.7439 145.394 87.1159 145.394C87.3679 145.394 87.6099 145.35 87.8419 145.262C88.0739 145.17 88.2899 145.03 88.4899 144.842L88.9819 145.406C88.7579 145.618 88.4819 145.794 88.1539 145.934C87.8299 146.074 87.4739 146.144 87.0859 146.144ZM85.3099 142.52H88.6579C88.6579 142.14 88.5999 141.794 88.4839 141.482C88.3719 141.17 88.1979 140.922 87.9619 140.738C87.7299 140.554 87.4379 140.462 87.0859 140.462C86.6099 140.462 86.2039 140.626 85.8679 140.954C85.5359 141.282 85.3499 141.804 85.3099 142.52ZM92.7541 146.144C92.1061 146.144 91.5981 145.964 91.2301 145.604C90.8621 145.24 90.6781 144.74 90.6781 144.104C90.6781 143.696 90.7681 143.342 90.9481 143.042C91.1321 142.742 91.3901 142.512 91.7221 142.352C92.0581 142.188 92.4541 142.106 92.9101 142.106C93.2101 142.106 93.4961 142.144 93.7681 142.22C94.0441 142.296 94.3101 142.41 94.5661 142.562V141.974C94.5661 141.454 94.4521 141.072 94.2241 140.828C94.0001 140.584 93.6501 140.462 93.1741 140.462C92.8901 140.462 92.5881 140.516 92.2681 140.624C91.9521 140.728 91.6521 140.876 91.3681 141.068L91.1221 140.36C91.4461 140.156 91.7961 140 92.1721 139.892C92.5481 139.78 92.9161 139.724 93.2761 139.724C93.9641 139.724 94.4841 139.904 94.8361 140.264C95.1881 140.624 95.3641 141.154 95.3641 141.854V146H94.5661V145.304C94.3221 145.572 94.0421 145.78 93.7261 145.928C93.4141 146.072 93.0901 146.144 92.7541 146.144ZM92.8621 145.406C93.1701 145.406 93.4701 145.326 93.7621 145.166C94.0541 145.002 94.3221 144.768 94.5661 144.464V143.318C94.3301 143.166 94.0741 143.05 93.7981 142.97C93.5261 142.886 93.2621 142.844 93.0061 142.844C92.5461 142.844 92.1781 142.96 91.9021 143.192C91.6301 143.42 91.4941 143.726 91.4941 144.11C91.4941 144.506 91.6161 144.822 91.8601 145.058C92.1041 145.29 92.4381 145.406 92.8621 145.406ZM97.3399 146V139.868H98.1799V140.84C98.3319 140.48 98.5419 140.204 98.8099 140.012C99.0819 139.82 99.3959 139.724 99.7519 139.724C100.12 139.724 100.42 139.822 100.652 140.018L100.526 140.816C100.406 140.732 100.274 140.67 100.13 140.63C99.9899 140.59 99.8379 140.57 99.6739 140.57C99.3779 140.57 99.1179 140.654 98.8939 140.822C98.6699 140.99 98.4939 141.224 98.3659 141.524C98.2419 141.82 98.1799 142.166 98.1799 142.562V146H97.3399ZM101.802 146V139.868H102.642V140.654C102.814 140.354 103.042 140.124 103.326 139.964C103.614 139.804 103.94 139.724 104.304 139.724C105.02 139.724 105.552 139.946 105.9 140.39C106.248 140.83 106.422 141.5 106.422 142.4V146H105.582V142.25C105.582 141.678 105.462 141.244 105.222 140.948C104.982 140.648 104.634 140.498 104.178 140.498C103.674 140.498 103.292 140.652 103.032 140.96C102.772 141.268 102.642 141.722 102.642 142.322V146H101.802ZM110.829 146.144C110.285 146.144 109.815 146.01 109.419 145.742C109.027 145.47 108.725 145.092 108.513 144.608C108.301 144.124 108.195 143.564 108.195 142.928C108.195 142.252 108.305 141.676 108.525 141.2C108.749 140.72 109.059 140.354 109.455 140.102C109.851 139.85 110.309 139.724 110.829 139.724C111.281 139.724 111.691 139.83 112.059 140.042C112.427 140.254 112.719 140.582 112.935 141.026C113.151 141.47 113.259 142.04 113.259 142.736C113.259 142.808 113.257 142.89 113.253 142.982C113.249 143.07 113.243 143.162 113.235 143.258H109.065C109.097 143.682 109.183 144.054 109.323 144.374C109.467 144.69 109.665 144.94 109.917 145.124C110.173 145.304 110.487 145.394 110.859 145.394C111.111 145.394 111.353 145.35 111.585 145.262C111.817 145.17 112.033 145.03 112.233 144.842L112.725 145.406C112.501 145.618 112.225 145.794 111.897 145.934C111.573 146.074 111.217 146.144 110.829 146.144ZM109.053 142.52H112.401C112.401 142.14 112.343 141.794 112.227 141.482C112.115 141.17 111.941 140.922 111.705 140.738C111.473 140.554 111.181 140.462 110.829 140.462C110.353 140.462 109.947 140.626 109.611 140.954C109.279 141.282 109.093 141.804 109.053 142.52ZM117.056 146.144C116.296 146.144 115.694 145.856 115.25 145.28C114.81 144.7 114.59 143.916 114.59 142.928C114.59 142.264 114.69 141.694 114.89 141.218C115.09 140.738 115.376 140.37 115.748 140.114C116.124 139.854 116.57 139.724 117.086 139.724C117.722 139.724 118.26 139.968 118.7 140.456V137.738L119.54 137.336V146H118.7V145.388C118.272 145.892 117.724 146.144 117.056 146.144ZM117.182 145.352C117.482 145.352 117.768 145.266 118.04 145.094C118.312 144.918 118.532 144.68 118.7 144.38V141.44C118.52 141.152 118.294 140.926 118.022 140.762C117.754 140.594 117.474 140.51 117.182 140.51C116.63 140.51 116.202 140.72 115.898 141.14C115.598 141.556 115.448 142.152 115.448 142.928C115.448 143.404 115.522 143.824 115.67 144.188C115.818 144.552 116.022 144.838 116.282 145.046C116.542 145.25 116.842 145.352 117.182 145.352ZM124.209 146V139.868H125.049V140.588C125.225 140.308 125.455 140.094 125.739 139.946C126.023 139.798 126.341 139.724 126.693 139.724C127.081 139.724 127.419 139.82 127.707 140.012C127.999 140.204 128.215 140.474 128.355 140.822C128.527 140.478 128.771 140.21 129.087 140.018C129.407 139.822 129.763 139.724 130.155 139.724C130.791 139.724 131.297 139.922 131.673 140.318C132.049 140.71 132.237 141.242 132.237 141.914V146H131.397V142.238C131.397 141.67 131.283 141.238 131.055 140.942C130.827 140.646 130.497 140.498 130.065 140.498C129.781 140.498 129.531 140.572 129.315 140.72C129.103 140.868 128.937 141.076 128.817 141.344C128.697 141.608 128.637 141.914 128.637 142.262V146H127.797V142.238C127.797 141.666 127.687 141.234 127.467 140.942C127.247 140.646 126.919 140.498 126.483 140.498C126.039 140.498 125.689 140.656 125.433 140.972C125.177 141.284 125.049 141.712 125.049 142.256V146H124.209ZM136.616 146.144C135.808 146.144 135.17 145.858 134.702 145.286C134.234 144.71 134 143.928 134 142.94C134 142.28 134.106 141.71 134.318 141.23C134.53 140.75 134.832 140.38 135.224 140.12C135.616 139.856 136.08 139.724 136.616 139.724C137.156 139.724 137.622 139.854 138.014 140.114C138.406 140.37 138.706 140.738 138.914 141.218C139.126 141.698 139.232 142.268 139.232 142.928C139.232 143.588 139.126 144.16 138.914 144.644C138.702 145.124 138.4 145.494 138.008 145.754C137.616 146.014 137.152 146.144 136.616 146.144ZM136.616 145.352C137.168 145.352 137.598 145.138 137.906 144.71C138.218 144.282 138.374 143.688 138.374 142.928C138.374 142.164 138.218 141.57 137.906 141.146C137.598 140.722 137.168 140.51 136.616 140.51C136.056 140.51 135.622 140.722 135.314 141.146C135.01 141.566 134.858 142.164 134.858 142.94C134.858 143.704 135.012 144.298 135.32 144.722C135.628 145.142 136.06 145.352 136.616 145.352ZM140.832 146V139.868H141.672V140.654C141.844 140.354 142.072 140.124 142.356 139.964C142.644 139.804 142.97 139.724 143.334 139.724C144.05 139.724 144.582 139.946 144.93 140.39C145.278 140.83 145.452 141.5 145.452 142.4V146H144.612V142.25C144.612 141.678 144.492 141.244 144.252 140.948C144.012 140.648 143.664 140.498 143.208 140.498C142.704 140.498 142.322 140.652 142.062 140.96C141.802 141.268 141.672 141.722 141.672 142.322V146H140.832ZM149.859 146.144C149.315 146.144 148.845 146.01 148.449 145.742C148.057 145.47 147.755 145.092 147.543 144.608C147.331 144.124 147.225 143.564 147.225 142.928C147.225 142.252 147.335 141.676 147.555 141.2C147.779 140.72 148.089 140.354 148.485 140.102C148.881 139.85 149.339 139.724 149.859 139.724C150.311 139.724 150.721 139.83 151.089 140.042C151.457 140.254 151.749 140.582 151.965 141.026C152.181 141.47 152.289 142.04 152.289 142.736C152.289 142.808 152.287 142.89 152.283 142.982C152.279 143.07 152.273 143.162 152.265 143.258H148.095C148.127 143.682 148.213 144.054 148.353 144.374C148.497 144.69 148.695 144.94 148.947 145.124C149.203 145.304 149.517 145.394 149.889 145.394C150.141 145.394 150.383 145.35 150.615 145.262C150.847 145.17 151.063 145.03 151.263 144.842L151.755 145.406C151.531 145.618 151.255 145.794 150.927 145.934C150.603 146.074 150.247 146.144 149.859 146.144ZM148.083 142.52H151.431C151.431 142.14 151.373 141.794 151.257 141.482C151.145 141.17 150.971 140.922 150.735 140.738C150.503 140.554 150.211 140.462 149.859 140.462C149.383 140.462 148.977 140.626 148.641 140.954C148.309 141.282 148.123 141.804 148.083 142.52ZM154.355 148.328L155.279 145.85L153.035 139.868H153.875L155.483 144.266C155.523 144.37 155.557 144.468 155.585 144.56C155.617 144.652 155.649 144.752 155.681 144.86C155.713 144.752 155.745 144.652 155.777 144.56C155.809 144.468 155.843 144.37 155.879 144.266L157.505 139.868H158.363L155.201 148.328H154.355ZM77.9023 160V154.606H76.9423V153.868H77.9023V152.818C77.9023 152.378 78.0123 152.042 78.2323 151.81C78.4563 151.574 78.7743 151.456 79.1863 151.456C79.3583 151.456 79.5283 151.478 79.6963 151.522C79.8683 151.566 80.0323 151.63 80.1883 151.714V152.422C80.0243 152.346 79.8783 152.292 79.7503 152.26C79.6223 152.228 79.4923 152.212 79.3603 152.212C79.1403 152.212 78.9823 152.27 78.8863 152.386C78.7903 152.498 78.7423 152.688 78.7423 152.956V153.868H80.1883V154.606H78.7423V160H77.9023ZM81.3846 160V153.868H82.2246V154.84C82.3766 154.48 82.5866 154.204 82.8546 154.012C83.1266 153.82 83.4406 153.724 83.7966 153.724C84.1646 153.724 84.4646 153.822 84.6966 154.018L84.5706 154.816C84.4506 154.732 84.3186 154.67 84.1746 154.63C84.0346 154.59 83.8826 154.57 83.7186 154.57C83.4226 154.57 83.1626 154.654 82.9386 154.822C82.7146 154.99 82.5386 155.224 82.4106 155.524C82.2866 155.82 82.2246 156.166 82.2246 156.562V160H81.3846ZM87.8386 160.144C87.0306 160.144 86.3926 159.858 85.9246 159.286C85.4566 158.71 85.2226 157.928 85.2226 156.94C85.2226 156.28 85.3286 155.71 85.5406 155.23C85.7526 154.75 86.0546 154.38 86.4466 154.12C86.8386 153.856 87.3026 153.724 87.8386 153.724C88.3786 153.724 88.8446 153.854 89.2366 154.114C89.6286 154.37 89.9286 154.738 90.1366 155.218C90.3486 155.698 90.4546 156.268 90.4546 156.928C90.4546 157.588 90.3486 158.16 90.1366 158.644C89.9246 159.124 89.6226 159.494 89.2306 159.754C88.8386 160.014 88.3746 160.144 87.8386 160.144ZM87.8386 159.352C88.3906 159.352 88.8206 159.138 89.1286 158.71C89.4406 158.282 89.5966 157.688 89.5966 156.928C89.5966 156.164 89.4406 155.57 89.1286 155.146C88.8206 154.722 88.3906 154.51 87.8386 154.51C87.2786 154.51 86.8446 154.722 86.5366 155.146C86.2326 155.566 86.0806 156.164 86.0806 156.94C86.0806 157.704 86.2346 158.298 86.5426 158.722C86.8506 159.142 87.2826 159.352 87.8386 159.352ZM92.0548 160V153.868H92.8948V154.588C93.0708 154.308 93.3008 154.094 93.5848 153.946C93.8688 153.798 94.1868 153.724 94.5388 153.724C94.9268 153.724 95.2648 153.82 95.5528 154.012C95.8448 154.204 96.0608 154.474 96.2008 154.822C96.3728 154.478 96.6168 154.21 96.9328 154.018C97.2528 153.822 97.6088 153.724 98.0008 153.724C98.6368 153.724 99.1428 153.922 99.5188 154.318C99.8948 154.71 100.083 155.242 100.083 155.914V160H99.2428V156.238C99.2428 155.67 99.1288 155.238 98.9008 154.942C98.6728 154.646 98.3428 154.498 97.9108 154.498C97.6268 154.498 97.3768 154.572 97.1608 154.72C96.9488 154.868 96.7828 155.076 96.6628 155.344C96.5428 155.608 96.4828 155.914 96.4828 156.262V160H95.6428V156.238C95.6428 155.666 95.5328 155.234 95.3128 154.942C95.0928 154.646 94.7648 154.498 94.3288 154.498C93.8848 154.498 93.5348 154.656 93.2788 154.972C93.0228 155.284 92.8948 155.712 92.8948 156.256V160H92.0548ZM106.458 162.556L106.044 161.884C106.6 161.852 107.054 161.772 107.406 161.644C107.758 161.52 108.018 161.342 108.186 161.11C108.354 160.878 108.438 160.584 108.438 160.228V159.262C108.07 159.85 107.514 160.144 106.77 160.144C106.278 160.144 105.848 160.01 105.48 159.742C105.112 159.474 104.826 159.1 104.622 158.62C104.418 158.136 104.316 157.572 104.316 156.928C104.316 156.276 104.418 155.71 104.622 155.23C104.83 154.75 105.12 154.38 105.492 154.12C105.864 153.856 106.304 153.724 106.812 153.724C107.144 153.724 107.454 153.794 107.742 153.934C108.034 154.07 108.266 154.258 108.438 154.498V153.868H109.278V159.982C109.278 160.39 109.22 160.748 109.104 161.056C108.992 161.368 108.818 161.63 108.582 161.842C108.35 162.054 108.056 162.218 107.7 162.334C107.348 162.454 106.934 162.528 106.458 162.556ZM106.92 159.352C107.22 159.352 107.508 159.26 107.784 159.076C108.06 158.888 108.278 158.642 108.438 158.338V155.446C108.282 155.166 108.064 154.94 107.784 154.768C107.508 154.596 107.224 154.51 106.932 154.51C106.364 154.51 105.928 154.718 105.624 155.134C105.324 155.546 105.174 156.144 105.174 156.928C105.174 157.416 105.246 157.842 105.39 158.206C105.538 158.566 105.742 158.848 106.002 159.052C106.266 159.252 106.572 159.352 106.92 159.352ZM113.063 160.144C112.415 160.144 111.907 159.964 111.539 159.604C111.171 159.24 110.987 158.74 110.987 158.104C110.987 157.696 111.077 157.342 111.257 157.042C111.441 156.742 111.699 156.512 112.031 156.352C112.367 156.188 112.763 156.106 113.219 156.106C113.519 156.106 113.805 156.144 114.077 156.22C114.353 156.296 114.619 156.41 114.875 156.562V155.974C114.875 155.454 114.761 155.072 114.533 154.828C114.309 154.584 113.959 154.462 113.483 154.462C113.199 154.462 112.897 154.516 112.577 154.624C112.261 154.728 111.961 154.876 111.677 155.068L111.431 154.36C111.755 154.156 112.105 154 112.481 153.892C112.857 153.78 113.225 153.724 113.585 153.724C114.273 153.724 114.793 153.904 115.145 154.264C115.497 154.624 115.673 155.154 115.673 155.854V160H114.875V159.304C114.631 159.572 114.351 159.78 114.035 159.928C113.723 160.072 113.399 160.144 113.063 160.144ZM113.171 159.406C113.479 159.406 113.779 159.326 114.071 159.166C114.363 159.002 114.631 158.768 114.875 158.464V157.318C114.639 157.166 114.383 157.05 114.107 156.97C113.835 156.886 113.571 156.844 113.315 156.844C112.855 156.844 112.487 156.96 112.211 157.192C111.939 157.42 111.803 157.726 111.803 158.11C111.803 158.506 111.925 158.822 112.169 159.058C112.413 159.29 112.747 159.406 113.171 159.406ZM117.649 160V153.868H118.489V154.588C118.665 154.308 118.895 154.094 119.179 153.946C119.463 153.798 119.781 153.724 120.133 153.724C120.521 153.724 120.859 153.82 121.147 154.012C121.439 154.204 121.655 154.474 121.795 154.822C121.967 154.478 122.211 154.21 122.527 154.018C122.847 153.822 123.203 153.724 123.595 153.724C124.231 153.724 124.737 153.922 125.113 154.318C125.489 154.71 125.677 155.242 125.677 155.914V160H124.837V156.238C124.837 155.67 124.723 155.238 124.495 154.942C124.267 154.646 123.937 154.498 123.505 154.498C123.221 154.498 122.971 154.572 122.755 154.72C122.543 154.868 122.377 155.076 122.257 155.344C122.137 155.608 122.077 155.914 122.077 156.262V160H121.237V156.238C121.237 155.666 121.127 155.234 120.907 154.942C120.687 154.646 120.359 154.498 119.923 154.498C119.479 154.498 119.129 154.656 118.873 154.972C118.617 155.284 118.489 155.712 118.489 156.256V160H117.649ZM130.074 160.144C129.53 160.144 129.06 160.01 128.664 159.742C128.272 159.47 127.97 159.092 127.758 158.608C127.546 158.124 127.44 157.564 127.44 156.928C127.44 156.252 127.55 155.676 127.77 155.2C127.994 154.72 128.304 154.354 128.7 154.102C129.096 153.85 129.554 153.724 130.074 153.724C130.526 153.724 130.936 153.83 131.304 154.042C131.672 154.254 131.964 154.582 132.18 155.026C132.396 155.47 132.504 156.04 132.504 156.736C132.504 156.808 132.502 156.89 132.498 156.982C132.494 157.07 132.488 157.162 132.48 157.258H128.31C128.342 157.682 128.428 158.054 128.568 158.374C128.712 158.69 128.91 158.94 129.162 159.124C129.418 159.304 129.732 159.394 130.104 159.394C130.356 159.394 130.598 159.35 130.83 159.262C131.062 159.17 131.278 159.03 131.478 158.842L131.97 159.406C131.746 159.618 131.47 159.794 131.142 159.934C130.818 160.074 130.462 160.144 130.074 160.144ZM128.298 156.52H131.646C131.646 156.14 131.588 155.794 131.472 155.482C131.36 155.17 131.186 154.922 130.95 154.738C130.718 154.554 130.426 154.462 130.074 154.462C129.598 154.462 129.192 154.626 128.856 154.954C128.524 155.282 128.338 155.804 128.298 156.52ZM135.708 160.144C135.3 160.144 134.908 160.056 134.532 159.88C134.156 159.704 133.84 159.46 133.584 159.148L134.196 158.626C134.416 158.866 134.66 159.052 134.928 159.184C135.196 159.316 135.46 159.382 135.72 159.382C136.112 159.382 136.414 159.302 136.626 159.142C136.842 158.982 136.95 158.758 136.95 158.47C136.95 158.29 136.9 158.126 136.8 157.978C136.704 157.83 136.546 157.692 136.326 157.564C136.106 157.432 135.816 157.298 135.456 157.162C134.808 156.922 134.342 156.66 134.058 156.376C133.774 156.088 133.632 155.732 133.632 155.308C133.632 154.836 133.814 154.454 134.178 154.162C134.546 153.87 135.024 153.724 135.612 153.724C136 153.724 136.364 153.8 136.704 153.952C137.044 154.1 137.334 154.314 137.574 154.594L136.986 155.086C136.594 154.686 136.132 154.486 135.6 154.486C135.252 154.486 134.976 154.56 134.772 154.708C134.572 154.852 134.472 155.052 134.472 155.308C134.472 155.544 134.576 155.748 134.784 155.92C134.992 156.088 135.372 156.274 135.924 156.478C136.372 156.646 136.732 156.824 137.004 157.012C137.276 157.196 137.472 157.406 137.592 157.642C137.716 157.878 137.778 158.15 137.778 158.458C137.778 158.982 137.594 159.394 137.226 159.694C136.858 159.994 136.352 160.144 135.708 160.144Z" fill="black"/>
<path d="M218.633 58.248H212.809V53.448L220.489 37.704H209.609V32.2H226.953V37.256L218.953 53.448H220.553C224.905 53.448 227.785 56.392 227.785 60.872V101.512C227.785 105.992 224.905 109 220.553 109H216.201L209.097 99.08V64.2C209.097 63.56 209.417 63.24 210.057 63.24H215.369V101.256L217.353 104.2H218.633C220.553 104.2 221.513 103.24 221.513 101.256V61.128C221.513 59.208 220.553 58.248 218.633 58.248ZM231.682 66.76H236.994V101.32C236.994 103.304 237.954 104.2 239.874 104.2H241.154L243.138 101.256V62.728H237.954C233.666 62.728 230.786 59.72 230.786 55.24V42.12L237.826 32.2H242.242C246.53 32.2 249.41 35.144 249.41 39.624V99.08L242.37 109H237.954C233.282 109 230.722 106.44 230.722 101.832V67.72C230.722 67.08 231.042 66.76 231.682 66.76ZM240.258 37H239.042L237.058 39.944V54.984C237.058 56.904 238.018 57.928 239.938 57.928H243.138V39.88C243.138 37.96 242.178 37 240.258 37ZM267.194 84.168L261.754 91.848H258.426C255.098 91.848 252.858 89.544 252.858 86.088V39.88L258.234 32.2H261.626C264.954 32.2 267.194 34.504 267.194 37.96V84.168ZM264.25 109H260.282L284.282 32.2H288.25L264.25 109ZM257.21 38.472V55.816L262.842 41.544V38.216C262.842 36.424 261.946 35.528 260.154 35.528H259.194L257.21 38.472ZM259.898 88.52H260.858L262.842 85.576V45.448L257.21 59.656V85.832C257.21 87.624 258.106 88.52 259.898 88.52ZM295.482 101.32L290.106 109H286.714C283.386 109 281.146 106.696 281.146 103.24V58.376L286.586 50.696H289.914C293.242 50.696 295.482 53 295.482 56.392V101.32ZM285.498 56.968V74.312L291.13 60.04V56.712C291.13 54.856 290.234 54.024 288.442 54.024H287.482L285.498 56.968ZM288.186 105.672H289.146L291.13 102.728V63.944L285.498 78.152V102.984C285.498 104.776 286.394 105.672 288.186 105.672Z" fill="black"/>
<path d="M214.601 132.144C213.793 132.144 213.155 131.858 212.687 131.286C212.219 130.71 211.985 129.928 211.985 128.94C211.985 128.28 212.091 127.71 212.303 127.23C212.515 126.75 212.817 126.38 213.209 126.12C213.601 125.856 214.065 125.724 214.601 125.724C215.141 125.724 215.607 125.854 215.999 126.114C216.391 126.37 216.691 126.738 216.899 127.218C217.111 127.698 217.217 128.268 217.217 128.928C217.217 129.588 217.111 130.16 216.899 130.644C216.687 131.124 216.385 131.494 215.993 131.754C215.601 132.014 215.137 132.144 214.601 132.144ZM214.601 131.352C215.153 131.352 215.583 131.138 215.891 130.71C216.203 130.282 216.359 129.688 216.359 128.928C216.359 128.164 216.203 127.57 215.891 127.146C215.583 126.722 215.153 126.51 214.601 126.51C214.041 126.51 213.607 126.722 213.299 127.146C212.995 127.566 212.843 128.164 212.843 128.94C212.843 129.704 212.997 130.298 213.305 130.722C213.613 131.142 214.045 131.352 214.601 131.352ZM219.058 132V126.606H218.098V125.868H219.058V124.818C219.058 124.378 219.168 124.042 219.388 123.81C219.612 123.574 219.93 123.456 220.342 123.456C220.514 123.456 220.684 123.478 220.852 123.522C221.024 123.566 221.188 123.63 221.344 123.714V124.422C221.18 124.346 221.034 124.292 220.906 124.26C220.778 124.228 220.648 124.212 220.516 124.212C220.296 124.212 220.138 124.27 220.042 124.386C219.946 124.498 219.898 124.688 219.898 124.956V125.868H221.344V126.606H219.898V132H219.058ZM227.832 132.144C227.552 132.144 227.31 132.094 227.106 131.994C226.906 131.894 226.72 131.732 226.548 131.508V132H225.048V124.014L226.548 123.336V126.348C226.704 126.148 226.896 125.994 227.124 125.886C227.356 125.778 227.608 125.724 227.88 125.724C228.388 125.724 228.832 125.858 229.212 126.126C229.592 126.394 229.888 126.77 230.1 127.254C230.316 127.734 230.424 128.292 230.424 128.928C230.424 129.94 230.194 130.73 229.734 131.298C229.278 131.862 228.644 132.144 227.832 132.144ZM227.652 130.71C228.06 130.71 228.372 130.556 228.588 130.248C228.808 129.94 228.918 129.5 228.918 128.928C228.918 128.356 228.808 127.918 228.588 127.614C228.372 127.306 228.06 127.152 227.652 127.152C227.428 127.152 227.216 127.202 227.016 127.302C226.816 127.398 226.66 127.528 226.548 127.692V130.17C226.672 130.346 226.824 130.48 227.004 130.572C227.184 130.664 227.4 130.71 227.652 130.71ZM231.914 132V124.014L233.414 123.336V132H231.914ZM237.038 132.144C236.37 132.144 235.84 131.964 235.448 131.604C235.06 131.24 234.866 130.748 234.866 130.128C234.866 129.728 234.966 129.378 235.166 129.078C235.37 128.774 235.652 128.54 236.012 128.376C236.376 128.208 236.8 128.124 237.284 128.124C237.552 128.124 237.81 128.15 238.058 128.202C238.31 128.25 238.53 128.32 238.718 128.412V128.028C238.718 127.684 238.62 127.426 238.424 127.254C238.232 127.078 237.948 126.99 237.572 126.99C237.272 126.99 236.964 127.044 236.648 127.152C236.332 127.26 236.012 127.42 235.688 127.632L235.238 126.45C235.59 126.218 235.982 126.04 236.414 125.916C236.846 125.788 237.282 125.724 237.722 125.724C238.546 125.724 239.162 125.92 239.57 126.312C239.978 126.7 240.182 127.28 240.182 128.052V132H238.718V131.508C238.51 131.716 238.262 131.874 237.974 131.982C237.69 132.09 237.378 132.144 237.038 132.144ZM237.386 130.878C237.634 130.878 237.872 130.83 238.1 130.734C238.332 130.634 238.538 130.494 238.718 130.314V129.588C238.546 129.504 238.354 129.44 238.142 129.396C237.934 129.348 237.726 129.324 237.518 129.324C237.146 129.324 236.852 129.396 236.636 129.54C236.424 129.68 236.318 129.876 236.318 130.128C236.318 130.364 236.412 130.548 236.6 130.68C236.788 130.812 237.05 130.878 237.386 130.878ZM244.275 132.144C243.711 132.144 243.223 132.014 242.811 131.754C242.399 131.494 242.081 131.126 241.857 130.65C241.633 130.17 241.521 129.6 241.521 128.94C241.521 128.28 241.633 127.71 241.857 127.23C242.085 126.75 242.407 126.38 242.823 126.12C243.239 125.856 243.729 125.724 244.293 125.724C244.929 125.724 245.457 125.872 245.877 126.168C246.301 126.46 246.607 126.894 246.795 127.47L245.373 127.95C245.277 127.694 245.137 127.498 244.953 127.362C244.769 127.222 244.557 127.152 244.317 127.152C243.929 127.152 243.619 127.312 243.387 127.632C243.159 127.952 243.045 128.388 243.045 128.94C243.045 129.484 243.157 129.916 243.381 130.236C243.605 130.556 243.907 130.716 244.287 130.716C244.555 130.716 244.783 130.64 244.971 130.488C245.163 130.336 245.305 130.114 245.397 129.822L246.813 130.248C246.633 130.876 246.327 131.35 245.895 131.67C245.467 131.986 244.927 132.144 244.275 132.144ZM248.217 132V124.038L249.717 123.336V127.614L251.421 125.868H253.197L251.421 127.632L253.677 132H252.045L250.323 128.7L249.717 129.3V132H248.217ZM257.68 134.436V125.868H259.18V126.318C259.516 125.922 259.966 125.724 260.53 125.724C261.054 125.724 261.506 125.854 261.886 126.114C262.266 126.37 262.558 126.738 262.762 127.218C262.966 127.698 263.068 128.27 263.068 128.934C263.068 129.578 262.962 130.142 262.75 130.626C262.538 131.106 262.24 131.48 261.856 131.748C261.472 132.012 261.024 132.144 260.512 132.144C260.232 132.144 259.98 132.094 259.756 131.994C259.532 131.89 259.34 131.738 259.18 131.538V133.758L257.68 134.436ZM260.29 130.71C260.698 130.71 261.012 130.556 261.232 130.248C261.452 129.936 261.562 129.498 261.562 128.934C261.562 128.37 261.45 127.932 261.226 127.62C261.002 127.308 260.69 127.152 260.29 127.152C260.046 127.152 259.832 127.196 259.648 127.284C259.468 127.372 259.312 127.506 259.18 127.686V130.164C259.288 130.336 259.44 130.47 259.636 130.566C259.836 130.662 260.054 130.71 260.29 130.71ZM267.094 132.144C266.506 132.144 265.998 132.012 265.57 131.748C265.146 131.484 264.818 131.112 264.586 130.632C264.358 130.148 264.244 129.58 264.244 128.928C264.244 128.268 264.36 127.698 264.592 127.218C264.828 126.738 265.158 126.37 265.582 126.114C266.01 125.854 266.514 125.724 267.094 125.724C267.59 125.724 268.04 125.828 268.444 126.036C268.848 126.244 269.17 126.564 269.41 126.996C269.65 127.424 269.77 127.97 269.77 128.634C269.77 128.738 269.766 128.866 269.758 129.018C269.754 129.166 269.744 129.316 269.728 129.468H265.726C265.742 129.748 265.806 129.994 265.918 130.206C266.034 130.414 266.192 130.576 266.392 130.692C266.592 130.808 266.828 130.866 267.1 130.866C267.392 130.866 267.646 130.818 267.862 130.722C268.078 130.622 268.282 130.464 268.474 130.248L269.338 131.142C269.074 131.442 268.756 131.684 268.384 131.868C268.012 132.052 267.582 132.144 267.094 132.144ZM265.732 128.298H268.318C268.298 128.03 268.238 127.8 268.138 127.608C268.038 127.412 267.898 127.262 267.718 127.158C267.538 127.054 267.32 127.002 267.064 127.002C266.712 127.002 266.412 127.11 266.164 127.326C265.916 127.542 265.772 127.866 265.732 128.298ZM273.81 132.144C272.946 132.144 272.264 131.858 271.764 131.286C271.264 130.714 271.014 129.932 271.014 128.94C271.014 128.284 271.128 127.716 271.356 127.236C271.584 126.752 271.906 126.38 272.322 126.12C272.742 125.856 273.238 125.724 273.81 125.724C274.378 125.724 274.87 125.854 275.286 126.114C275.702 126.374 276.022 126.744 276.246 127.224C276.47 127.704 276.582 128.274 276.582 128.934C276.582 129.598 276.47 130.17 276.246 130.65C276.026 131.13 275.708 131.5 275.292 131.76C274.876 132.016 274.382 132.144 273.81 132.144ZM273.81 130.71C274.214 130.71 274.528 130.554 274.752 130.242C274.976 129.93 275.088 129.494 275.088 128.934C275.088 128.374 274.974 127.938 274.746 127.626C274.522 127.31 274.21 127.152 273.81 127.152C273.406 127.152 273.09 127.31 272.862 127.626C272.634 127.942 272.52 128.38 272.52 128.94C272.52 129.492 272.634 129.926 272.862 130.242C273.09 130.554 273.406 130.71 273.81 130.71ZM277.898 134.436V125.868H279.398V126.318C279.734 125.922 280.184 125.724 280.748 125.724C281.272 125.724 281.724 125.854 282.104 126.114C282.484 126.37 282.776 126.738 282.98 127.218C283.184 127.698 283.286 128.27 283.286 128.934C283.286 129.578 283.18 130.142 282.968 130.626C282.756 131.106 282.458 131.48 282.074 131.748C281.69 132.012 281.242 132.144 280.73 132.144C280.45 132.144 280.198 132.094 279.974 131.994C279.75 131.89 279.558 131.738 279.398 131.538V133.758L277.898 134.436ZM280.508 130.71C280.916 130.71 281.23 130.556 281.45 130.248C281.67 129.936 281.78 129.498 281.78 128.934C281.78 128.37 281.668 127.932 281.444 127.62C281.22 127.308 280.908 127.152 280.508 127.152C280.264 127.152 280.05 127.196 279.866 127.284C279.686 127.372 279.53 127.506 279.398 127.686V130.164C279.506 130.336 279.658 130.47 279.854 130.566C280.054 130.662 280.272 130.71 280.508 130.71ZM284.775 132V124.014L286.275 123.336V132H284.775ZM290.614 132.144C290.026 132.144 289.518 132.012 289.09 131.748C288.666 131.484 288.338 131.112 288.106 130.632C287.878 130.148 287.764 129.58 287.764 128.928C287.764 128.268 287.88 127.698 288.112 127.218C288.348 126.738 288.678 126.37 289.102 126.114C289.53 125.854 290.034 125.724 290.614 125.724C291.11 125.724 291.56 125.828 291.964 126.036C292.368 126.244 292.69 126.564 292.93 126.996C293.17 127.424 293.29 127.97 293.29 128.634C293.29 128.738 293.286 128.866 293.278 129.018C293.274 129.166 293.264 129.316 293.248 129.468H289.246C289.262 129.748 289.326 129.994 289.438 130.206C289.554 130.414 289.712 130.576 289.912 130.692C290.112 130.808 290.348 130.866 290.62 130.866C290.912 130.866 291.166 130.818 291.382 130.722C291.598 130.622 291.802 130.464 291.994 130.248L292.858 131.142C292.594 131.442 292.276 131.684 291.904 131.868C291.532 132.052 291.102 132.144 290.614 132.144ZM289.252 128.298H291.838C291.818 128.03 291.758 127.8 291.658 127.608C291.558 127.412 291.418 127.262 291.238 127.158C291.058 127.054 290.84 127.002 290.584 127.002C290.232 127.002 289.932 127.11 289.684 127.326C289.436 127.542 289.292 127.866 289.252 128.298ZM203.814 146.144C203.27 146.144 202.8 146.01 202.404 145.742C202.012 145.47 201.71 145.092 201.498 144.608C201.286 144.124 201.18 143.564 201.18 142.928C201.18 142.252 201.29 141.676 201.51 141.2C201.734 140.72 202.044 140.354 202.44 140.102C202.836 139.85 203.294 139.724 203.814 139.724C204.266 139.724 204.676 139.83 205.044 140.042C205.412 140.254 205.704 140.582 205.92 141.026C206.136 141.47 206.244 142.04 206.244 142.736C206.244 142.808 206.242 142.89 206.238 142.982C206.234 143.07 206.228 143.162 206.22 143.258H202.05C202.082 143.682 202.168 144.054 202.308 144.374C202.452 144.69 202.65 144.94 202.902 145.124C203.158 145.304 203.472 145.394 203.844 145.394C204.096 145.394 204.338 145.35 204.57 145.262C204.802 145.17 205.018 145.03 205.218 144.842L205.71 145.406C205.486 145.618 205.21 145.794 204.882 145.934C204.558 146.074 204.202 146.144 203.814 146.144ZM202.038 142.52H205.386C205.386 142.14 205.328 141.794 205.212 141.482C205.1 141.17 204.926 140.922 204.69 140.738C204.458 140.554 204.166 140.462 203.814 140.462C203.338 140.462 202.932 140.626 202.596 140.954C202.264 141.282 202.078 141.804 202.038 142.52ZM209.482 146.144C208.834 146.144 208.326 145.964 207.958 145.604C207.59 145.24 207.406 144.74 207.406 144.104C207.406 143.696 207.496 143.342 207.676 143.042C207.86 142.742 208.118 142.512 208.45 142.352C208.786 142.188 209.182 142.106 209.638 142.106C209.938 142.106 210.224 142.144 210.496 142.22C210.772 142.296 211.038 142.41 211.294 142.562V141.974C211.294 141.454 211.18 141.072 210.952 140.828C210.728 140.584 210.378 140.462 209.902 140.462C209.618 140.462 209.316 140.516 208.996 140.624C208.68 140.728 208.38 140.876 208.096 141.068L207.85 140.36C208.174 140.156 208.524 140 208.9 139.892C209.276 139.78 209.644 139.724 210.004 139.724C210.692 139.724 211.212 139.904 211.564 140.264C211.916 140.624 212.092 141.154 212.092 141.854V146H211.294V145.304C211.05 145.572 210.77 145.78 210.454 145.928C210.142 146.072 209.818 146.144 209.482 146.144ZM209.59 145.406C209.898 145.406 210.198 145.326 210.49 145.166C210.782 145.002 211.05 144.768 211.294 144.464V143.318C211.058 143.166 210.802 143.05 210.526 142.97C210.254 142.886 209.99 142.844 209.734 142.844C209.274 142.844 208.906 142.96 208.63 143.192C208.358 143.42 208.222 143.726 208.222 144.11C208.222 144.506 208.344 144.822 208.588 145.058C208.832 145.29 209.166 145.406 209.59 145.406ZM214.068 146V139.868H214.908V140.84C215.06 140.48 215.27 140.204 215.538 140.012C215.81 139.82 216.124 139.724 216.48 139.724C216.848 139.724 217.148 139.822 217.38 140.018L217.254 140.816C217.134 140.732 217.002 140.67 216.858 140.63C216.718 140.59 216.566 140.57 216.402 140.57C216.106 140.57 215.846 140.654 215.622 140.822C215.398 140.99 215.222 141.224 215.094 141.524C214.97 141.82 214.908 142.166 214.908 142.562V146H214.068ZM218.53 146V139.868H219.37V140.654C219.542 140.354 219.77 140.124 220.054 139.964C220.342 139.804 220.668 139.724 221.032 139.724C221.748 139.724 222.28 139.946 222.628 140.39C222.976 140.83 223.15 141.5 223.15 142.4V146H222.31V142.25C222.31 141.678 222.19 141.244 221.95 140.948C221.71 140.648 221.362 140.498 220.906 140.498C220.402 140.498 220.02 140.652 219.76 140.96C219.5 141.268 219.37 141.722 219.37 142.322V146H218.53ZM230.008 146.144C229.2 146.144 228.562 145.858 228.094 145.286C227.626 144.71 227.392 143.928 227.392 142.94C227.392 142.28 227.498 141.71 227.71 141.23C227.922 140.75 228.224 140.38 228.616 140.12C229.008 139.856 229.472 139.724 230.008 139.724C230.548 139.724 231.014 139.854 231.406 140.114C231.798 140.37 232.098 140.738 232.306 141.218C232.518 141.698 232.624 142.268 232.624 142.928C232.624 143.588 232.518 144.16 232.306 144.644C232.094 145.124 231.792 145.494 231.4 145.754C231.008 146.014 230.544 146.144 230.008 146.144ZM230.008 145.352C230.56 145.352 230.99 145.138 231.298 144.71C231.61 144.282 231.766 143.688 231.766 142.928C231.766 142.164 231.61 141.57 231.298 141.146C230.99 140.722 230.56 140.51 230.008 140.51C229.448 140.51 229.014 140.722 228.706 141.146C228.402 141.566 228.25 142.164 228.25 142.94C228.25 143.704 228.404 144.298 228.712 144.722C229.02 145.142 229.452 145.352 230.008 145.352ZM234.224 146V139.868H235.064V140.84C235.216 140.48 235.426 140.204 235.694 140.012C235.966 139.82 236.28 139.724 236.636 139.724C237.004 139.724 237.304 139.822 237.536 140.018L237.41 140.816C237.29 140.732 237.158 140.67 237.014 140.63C236.874 140.59 236.722 140.57 236.558 140.57C236.262 140.57 236.002 140.654 235.778 140.822C235.554 140.99 235.378 141.224 235.25 141.524C235.126 141.82 235.064 142.166 235.064 142.562V146H234.224ZM241.391 146V137.726L242.231 137.336V140.66C242.403 140.36 242.633 140.13 242.921 139.97C243.209 139.806 243.533 139.724 243.893 139.724C244.409 139.724 244.821 139.834 245.129 140.054C245.441 140.27 245.665 140.578 245.801 140.978C245.941 141.378 246.011 141.852 246.011 142.4V146H245.171V142.25C245.171 141.722 245.059 141.298 244.835 140.978C244.615 140.658 244.259 140.498 243.767 140.498C243.263 140.498 242.881 140.652 242.621 140.96C242.361 141.268 242.231 141.722 242.231 142.322V146H241.391ZM249.748 146.144C249.1 146.144 248.592 145.964 248.224 145.604C247.856 145.24 247.672 144.74 247.672 144.104C247.672 143.696 247.762 143.342 247.942 143.042C248.126 142.742 248.384 142.512 248.716 142.352C249.052 142.188 249.448 142.106 249.904 142.106C250.204 142.106 250.49 142.144 250.762 142.22C251.038 142.296 251.304 142.41 251.56 142.562V141.974C251.56 141.454 251.446 141.072 251.218 140.828C250.994 140.584 250.644 140.462 250.168 140.462C249.884 140.462 249.582 140.516 249.262 140.624C248.946 140.728 248.646 140.876 248.362 141.068L248.116 140.36C248.44 140.156 248.79 140 249.166 139.892C249.542 139.78 249.91 139.724 250.27 139.724C250.958 139.724 251.478 139.904 251.83 140.264C252.182 140.624 252.358 141.154 252.358 141.854V146H251.56V145.304C251.316 145.572 251.036 145.78 250.72 145.928C250.408 146.072 250.084 146.144 249.748 146.144ZM249.856 145.406C250.164 145.406 250.464 145.326 250.756 145.166C251.048 145.002 251.316 144.768 251.56 144.464V143.318C251.324 143.166 251.068 143.05 250.792 142.97C250.52 142.886 250.256 142.844 250 142.844C249.54 142.844 249.172 142.96 248.896 143.192C248.624 143.42 248.488 143.726 248.488 144.11C248.488 144.506 248.61 144.822 248.854 145.058C249.098 145.29 249.432 145.406 249.856 145.406ZM255.72 146L253.5 139.868H254.346L255.906 144.242C255.938 144.33 255.968 144.416 255.996 144.5C256.024 144.584 256.052 144.676 256.08 144.776C256.108 144.676 256.134 144.584 256.158 144.5C256.186 144.416 256.216 144.33 256.248 144.242L257.796 139.868H258.636L256.41 146H255.72ZM262.201 146.144C261.657 146.144 261.187 146.01 260.791 145.742C260.399 145.47 260.097 145.092 259.885 144.608C259.673 144.124 259.567 143.564 259.567 142.928C259.567 142.252 259.677 141.676 259.897 141.2C260.121 140.72 260.431 140.354 260.827 140.102C261.223 139.85 261.681 139.724 262.201 139.724C262.653 139.724 263.063 139.83 263.431 140.042C263.799 140.254 264.091 140.582 264.307 141.026C264.523 141.47 264.631 142.04 264.631 142.736C264.631 142.808 264.629 142.89 264.625 142.982C264.621 143.07 264.615 143.162 264.607 143.258H260.437C260.469 143.682 260.555 144.054 260.695 144.374C260.839 144.69 261.037 144.94 261.289 145.124C261.545 145.304 261.859 145.394 262.231 145.394C262.483 145.394 262.725 145.35 262.957 145.262C263.189 145.17 263.405 145.03 263.605 144.842L264.097 145.406C263.873 145.618 263.597 145.794 263.269 145.934C262.945 146.074 262.589 146.144 262.201 146.144ZM260.425 142.52H263.773C263.773 142.14 263.715 141.794 263.599 141.482C263.487 141.17 263.313 140.922 263.077 140.738C262.845 140.554 262.553 140.462 262.201 140.462C261.725 140.462 261.319 140.626 260.983 140.954C260.651 141.282 260.465 141.804 260.425 142.52ZM271.113 146.144C270.569 146.144 270.099 146.01 269.703 145.742C269.311 145.47 269.009 145.092 268.797 144.608C268.585 144.124 268.479 143.564 268.479 142.928C268.479 142.252 268.589 141.676 268.809 141.2C269.033 140.72 269.343 140.354 269.739 140.102C270.135 139.85 270.593 139.724 271.113 139.724C271.565 139.724 271.975 139.83 272.343 140.042C272.711 140.254 273.003 140.582 273.219 141.026C273.435 141.47 273.543 142.04 273.543 142.736C273.543 142.808 273.541 142.89 273.537 142.982C273.533 143.07 273.527 143.162 273.519 143.258H269.349C269.381 143.682 269.467 144.054 269.607 144.374C269.751 144.69 269.949 144.94 270.201 145.124C270.457 145.304 270.771 145.394 271.143 145.394C271.395 145.394 271.637 145.35 271.869 145.262C272.101 145.17 272.317 145.03 272.517 144.842L273.009 145.406C272.785 145.618 272.509 145.794 272.181 145.934C271.857 146.074 271.501 146.144 271.113 146.144ZM269.337 142.52H272.685C272.685 142.14 272.627 141.794 272.511 141.482C272.399 141.17 272.225 140.922 271.989 140.738C271.757 140.554 271.465 140.462 271.113 140.462C270.637 140.462 270.231 140.626 269.895 140.954C269.563 141.282 269.377 141.804 269.337 142.52ZM276.781 146.144C276.133 146.144 275.625 145.964 275.257 145.604C274.889 145.24 274.705 144.74 274.705 144.104C274.705 143.696 274.795 143.342 274.975 143.042C275.159 142.742 275.417 142.512 275.749 142.352C276.085 142.188 276.481 142.106 276.937 142.106C277.237 142.106 277.523 142.144 277.795 142.22C278.071 142.296 278.337 142.41 278.593 142.562V141.974C278.593 141.454 278.479 141.072 278.251 140.828C278.027 140.584 277.677 140.462 277.201 140.462C276.917 140.462 276.615 140.516 276.295 140.624C275.979 140.728 275.679 140.876 275.395 141.068L275.149 140.36C275.473 140.156 275.823 140 276.199 139.892C276.575 139.78 276.943 139.724 277.303 139.724C277.991 139.724 278.511 139.904 278.863 140.264C279.215 140.624 279.391 141.154 279.391 141.854V146H278.593V145.304C278.349 145.572 278.069 145.78 277.753 145.928C277.441 146.072 277.117 146.144 276.781 146.144ZM276.889 145.406C277.197 145.406 277.497 145.326 277.789 145.166C278.081 145.002 278.349 144.768 278.593 144.464V143.318C278.357 143.166 278.101 143.05 277.825 142.97C277.553 142.886 277.289 142.844 277.033 142.844C276.573 142.844 276.205 142.96 275.929 143.192C275.657 143.42 275.521 143.726 275.521 144.11C275.521 144.506 275.643 144.822 275.887 145.058C276.131 145.29 276.465 145.406 276.889 145.406ZM281.367 146V139.868H282.207V140.84C282.359 140.48 282.569 140.204 282.837 140.012C283.109 139.82 283.423 139.724 283.779 139.724C284.147 139.724 284.447 139.822 284.679 140.018L284.553 140.816C284.433 140.732 284.301 140.67 284.157 140.63C284.017 140.59 283.865 140.57 283.701 140.57C283.405 140.57 283.145 140.654 282.921 140.822C282.697 140.99 282.521 141.224 282.393 141.524C282.269 141.82 282.207 142.166 282.207 142.562V146H281.367ZM285.829 146V139.868H286.669V140.654C286.841 140.354 287.069 140.124 287.353 139.964C287.641 139.804 287.967 139.724 288.331 139.724C289.047 139.724 289.579 139.946 289.927 140.39C290.275 140.83 290.449 141.5 290.449 142.4V146H289.609V142.25C289.609 141.678 289.489 141.244 289.249 140.948C289.009 140.648 288.661 140.498 288.205 140.498C287.701 140.498 287.319 140.652 287.059 140.96C286.799 141.268 286.669 141.722 286.669 142.322V146H285.829ZM294.856 146.144C294.312 146.144 293.842 146.01 293.446 145.742C293.054 145.47 292.752 145.092 292.54 144.608C292.328 144.124 292.222 143.564 292.222 142.928C292.222 142.252 292.332 141.676 292.552 141.2C292.776 140.72 293.086 140.354 293.482 140.102C293.878 139.85 294.336 139.724 294.856 139.724C295.308 139.724 295.718 139.83 296.086 140.042C296.454 140.254 296.746 140.582 296.962 141.026C297.178 141.47 297.286 142.04 297.286 142.736C297.286 142.808 297.284 142.89 297.28 142.982C297.276 143.07 297.27 143.162 297.262 143.258H293.092C293.124 143.682 293.21 144.054 293.35 144.374C293.494 144.69 293.692 144.94 293.944 145.124C294.2 145.304 294.514 145.394 294.886 145.394C295.138 145.394 295.38 145.35 295.612 145.262C295.844 145.17 296.06 145.03 296.26 144.842L296.752 145.406C296.528 145.618 296.252 145.794 295.924 145.934C295.6 146.074 295.244 146.144 294.856 146.144ZM293.08 142.52H296.428C296.428 142.14 296.37 141.794 296.254 141.482C296.142 141.17 295.968 140.922 295.732 140.738C295.5 140.554 295.208 140.462 294.856 140.462C294.38 140.462 293.974 140.626 293.638 140.954C293.306 141.282 293.12 141.804 293.08 142.52ZM301.083 146.144C300.323 146.144 299.721 145.856 299.277 145.28C298.837 144.7 298.617 143.916 298.617 142.928C298.617 142.264 298.717 141.694 298.917 141.218C299.117 140.738 299.403 140.37 299.775 140.114C300.151 139.854 300.597 139.724 301.113 139.724C301.749 139.724 302.287 139.968 302.727 140.456V137.738L303.567 137.336V146H302.727V145.388C302.299 145.892 301.751 146.144 301.083 146.144ZM301.209 145.352C301.509 145.352 301.795 145.266 302.067 145.094C302.339 144.918 302.559 144.68 302.727 144.38V141.44C302.547 141.152 302.321 140.926 302.049 140.762C301.781 140.594 301.501 140.51 301.209 140.51C300.657 140.51 300.229 140.72 299.925 141.14C299.625 141.556 299.475 142.152 299.475 142.928C299.475 143.404 299.549 143.824 299.697 144.188C299.845 144.552 300.049 144.838 300.309 145.046C300.569 145.25 300.869 145.352 301.209 145.352ZM202.169 160V153.868H203.009V154.588C203.185 154.308 203.415 154.094 203.699 153.946C203.983 153.798 204.301 153.724 204.653 153.724C205.041 153.724 205.379 153.82 205.667 154.012C205.959 154.204 206.175 154.474 206.315 154.822C206.487 154.478 206.731 154.21 207.047 154.018C207.367 153.822 207.723 153.724 208.115 153.724C208.751 153.724 209.257 153.922 209.633 154.318C210.009 154.71 210.197 155.242 210.197 155.914V160H209.357V156.238C209.357 155.67 209.243 155.238 209.015 154.942C208.787 154.646 208.457 154.498 208.025 154.498C207.741 154.498 207.491 154.572 207.275 154.72C207.063 154.868 206.897 155.076 206.777 155.344C206.657 155.608 206.597 155.914 206.597 156.262V160H205.757V156.238C205.757 155.666 205.647 155.234 205.427 154.942C205.207 154.646 204.879 154.498 204.443 154.498C203.999 154.498 203.649 154.656 203.393 154.972C203.137 155.284 203.009 155.712 203.009 156.256V160H202.169ZM214.576 160.144C213.768 160.144 213.13 159.858 212.662 159.286C212.194 158.71 211.96 157.928 211.96 156.94C211.96 156.28 212.066 155.71 212.278 155.23C212.49 154.75 212.792 154.38 213.184 154.12C213.576 153.856 214.04 153.724 214.576 153.724C215.116 153.724 215.582 153.854 215.974 154.114C216.366 154.37 216.666 154.738 216.874 155.218C217.086 155.698 217.192 156.268 217.192 156.928C217.192 157.588 217.086 158.16 216.874 158.644C216.662 159.124 216.36 159.494 215.968 159.754C215.576 160.014 215.112 160.144 214.576 160.144ZM214.576 159.352C215.128 159.352 215.558 159.138 215.866 158.71C216.178 158.282 216.334 157.688 216.334 156.928C216.334 156.164 216.178 155.57 215.866 155.146C215.558 154.722 215.128 154.51 214.576 154.51C214.016 154.51 213.582 154.722 213.274 155.146C212.97 155.566 212.818 156.164 212.818 156.94C212.818 157.704 212.972 158.298 213.28 158.722C213.588 159.142 214.02 159.352 214.576 159.352ZM218.792 160V153.868H219.632V154.654C219.804 154.354 220.032 154.124 220.316 153.964C220.604 153.804 220.93 153.724 221.294 153.724C222.01 153.724 222.542 153.946 222.89 154.39C223.238 154.83 223.412 155.5 223.412 156.4V160H222.572V156.25C222.572 155.678 222.452 155.244 222.212 154.948C221.972 154.648 221.624 154.498 221.168 154.498C220.664 154.498 220.282 154.652 220.022 154.96C219.762 155.268 219.632 155.722 219.632 156.322V160H218.792ZM227.819 160.144C227.275 160.144 226.805 160.01 226.409 159.742C226.017 159.47 225.715 159.092 225.503 158.608C225.291 158.124 225.185 157.564 225.185 156.928C225.185 156.252 225.295 155.676 225.515 155.2C225.739 154.72 226.049 154.354 226.445 154.102C226.841 153.85 227.299 153.724 227.819 153.724C228.271 153.724 228.681 153.83 229.049 154.042C229.417 154.254 229.709 154.582 229.925 155.026C230.141 155.47 230.249 156.04 230.249 156.736C230.249 156.808 230.247 156.89 230.243 156.982C230.239 157.07 230.233 157.162 230.225 157.258H226.055C226.087 157.682 226.173 158.054 226.313 158.374C226.457 158.69 226.655 158.94 226.907 159.124C227.163 159.304 227.477 159.394 227.849 159.394C228.101 159.394 228.343 159.35 228.575 159.262C228.807 159.17 229.023 159.03 229.223 158.842L229.715 159.406C229.491 159.618 229.215 159.794 228.887 159.934C228.563 160.074 228.207 160.144 227.819 160.144ZM226.043 156.52H229.391C229.391 156.14 229.333 155.794 229.217 155.482C229.105 155.17 228.931 154.922 228.695 154.738C228.463 154.554 228.171 154.462 227.819 154.462C227.343 154.462 226.937 154.626 226.601 154.954C226.269 155.282 226.083 155.804 226.043 156.52ZM232.315 162.328L233.239 159.85L230.995 153.868H231.835L233.443 158.266C233.483 158.37 233.517 158.468 233.545 158.56C233.577 158.652 233.609 158.752 233.641 158.86C233.673 158.752 233.705 158.652 233.737 158.56C233.769 158.468 233.803 158.37 233.839 158.266L235.465 153.868H236.323L233.161 162.328H232.315ZM240.69 160V154.606H239.73V153.868H240.69V152.818C240.69 152.378 240.8 152.042 241.02 151.81C241.244 151.574 241.562 151.456 241.974 151.456C242.146 151.456 242.316 151.478 242.484 151.522C242.656 151.566 242.82 151.63 242.976 151.714V152.422C242.812 152.346 242.666 152.292 242.538 152.26C242.41 152.228 242.28 152.212 242.148 152.212C241.928 152.212 241.77 152.27 241.674 152.386C241.578 152.498 241.53 152.688 241.53 152.956V153.868H242.976V154.606H241.53V160H240.69ZM244.173 160V153.868H245.013V154.84C245.165 154.48 245.375 154.204 245.643 154.012C245.915 153.82 246.229 153.724 246.585 153.724C246.953 153.724 247.253 153.822 247.485 154.018L247.359 154.816C247.239 154.732 247.107 154.67 246.963 154.63C246.823 154.59 246.671 154.57 246.507 154.57C246.211 154.57 245.951 154.654 245.727 154.822C245.503 154.99 245.327 155.224 245.199 155.524C245.075 155.82 245.013 156.166 245.013 156.562V160H244.173ZM250.626 160.144C249.818 160.144 249.18 159.858 248.712 159.286C248.244 158.71 248.01 157.928 248.01 156.94C248.01 156.28 248.116 155.71 248.328 155.23C248.54 154.75 248.842 154.38 249.234 154.12C249.626 153.856 250.09 153.724 250.626 153.724C251.166 153.724 251.632 153.854 252.024 154.114C252.416 154.37 252.716 154.738 252.924 155.218C253.136 155.698 253.242 156.268 253.242 156.928C253.242 157.588 253.136 158.16 252.924 158.644C252.712 159.124 252.41 159.494 252.018 159.754C251.626 160.014 251.162 160.144 250.626 160.144ZM250.626 159.352C251.178 159.352 251.608 159.138 251.916 158.71C252.228 158.282 252.384 157.688 252.384 156.928C252.384 156.164 252.228 155.57 251.916 155.146C251.608 154.722 251.178 154.51 250.626 154.51C250.066 154.51 249.632 154.722 249.324 155.146C249.02 155.566 248.868 156.164 248.868 156.94C248.868 157.704 249.022 158.298 249.33 158.722C249.638 159.142 250.07 159.352 250.626 159.352ZM254.843 160V153.868H255.683V154.588C255.859 154.308 256.089 154.094 256.373 153.946C256.657 153.798 256.975 153.724 257.327 153.724C257.715 153.724 258.053 153.82 258.341 154.012C258.633 154.204 258.849 154.474 258.989 154.822C259.161 154.478 259.405 154.21 259.721 154.018C260.041 153.822 260.397 153.724 260.789 153.724C261.425 153.724 261.931 153.922 262.307 154.318C262.683 154.71 262.871 155.242 262.871 155.914V160H262.031V156.238C262.031 155.67 261.917 155.238 261.689 154.942C261.461 154.646 261.131 154.498 260.699 154.498C260.415 154.498 260.165 154.572 259.949 154.72C259.737 154.868 259.571 155.076 259.451 155.344C259.331 155.608 259.271 155.914 259.271 156.262V160H258.431V156.238C258.431 155.666 258.321 155.234 258.101 154.942C257.881 154.646 257.553 154.498 257.117 154.498C256.673 154.498 256.323 154.656 256.067 154.972C255.811 155.284 255.683 155.712 255.683 156.256V160H254.843ZM269.246 162.556L268.832 161.884C269.388 161.852 269.842 161.772 270.194 161.644C270.546 161.52 270.806 161.342 270.974 161.11C271.142 160.878 271.226 160.584 271.226 160.228V159.262C270.858 159.85 270.302 160.144 269.558 160.144C269.066 160.144 268.636 160.01 268.268 159.742C267.9 159.474 267.614 159.1 267.41 158.62C267.206 158.136 267.104 157.572 267.104 156.928C267.104 156.276 267.206 155.71 267.41 155.23C267.618 154.75 267.908 154.38 268.28 154.12C268.652 153.856 269.092 153.724 269.6 153.724C269.932 153.724 270.242 153.794 270.53 153.934C270.822 154.07 271.054 154.258 271.226 154.498V153.868H272.066V159.982C272.066 160.39 272.008 160.748 271.892 161.056C271.78 161.368 271.606 161.63 271.37 161.842C271.138 162.054 270.844 162.218 270.488 162.334C270.136 162.454 269.722 162.528 269.246 162.556ZM269.708 159.352C270.008 159.352 270.296 159.26 270.572 159.076C270.848 158.888 271.066 158.642 271.226 158.338V155.446C271.07 155.166 270.852 154.94 270.572 154.768C270.296 154.596 270.012 154.51 269.72 154.51C269.152 154.51 268.716 154.718 268.412 155.134C268.112 155.546 267.962 156.144 267.962 156.928C267.962 157.416 268.034 157.842 268.178 158.206C268.326 158.566 268.53 158.848 268.79 159.052C269.054 159.252 269.36 159.352 269.708 159.352ZM275.851 160.144C275.203 160.144 274.695 159.964 274.327 159.604C273.959 159.24 273.775 158.74 273.775 158.104C273.775 157.696 273.865 157.342 274.045 157.042C274.229 156.742 274.487 156.512 274.819 156.352C275.155 156.188 275.551 156.106 276.007 156.106C276.307 156.106 276.593 156.144 276.865 156.22C277.141 156.296 277.407 156.41 277.663 156.562V155.974C277.663 155.454 277.549 155.072 277.321 154.828C277.097 154.584 276.747 154.462 276.271 154.462C275.987 154.462 275.685 154.516 275.365 154.624C275.049 154.728 274.749 154.876 274.465 155.068L274.219 154.36C274.543 154.156 274.893 154 275.269 153.892C275.645 153.78 276.013 153.724 276.373 153.724C277.061 153.724 277.581 153.904 277.933 154.264C278.285 154.624 278.461 155.154 278.461 155.854V160H277.663V159.304C277.419 159.572 277.139 159.78 276.823 159.928C276.511 160.072 276.187 160.144 275.851 160.144ZM275.959 159.406C276.267 159.406 276.567 159.326 276.859 159.166C277.151 159.002 277.419 158.768 277.663 158.464V157.318C277.427 157.166 277.171 157.05 276.895 156.97C276.623 156.886 276.359 156.844 276.103 156.844C275.643 156.844 275.275 156.96 274.999 157.192C274.727 157.42 274.591 157.726 274.591 158.11C274.591 158.506 274.713 158.822 274.957 159.058C275.201 159.29 275.535 159.406 275.959 159.406ZM280.437 160V153.868H281.277V154.588C281.453 154.308 281.683 154.094 281.967 153.946C282.251 153.798 282.569 153.724 282.921 153.724C283.309 153.724 283.647 153.82 283.935 154.012C284.227 154.204 284.443 154.474 284.583 154.822C284.755 154.478 284.999 154.21 285.315 154.018C285.635 153.822 285.991 153.724 286.383 153.724C287.019 153.724 287.525 153.922 287.901 154.318C288.277 154.71 288.465 155.242 288.465 155.914V160H287.625V156.238C287.625 155.67 287.511 155.238 287.283 154.942C287.055 154.646 286.725 154.498 286.293 154.498C286.009 154.498 285.759 154.572 285.543 154.72C285.331 154.868 285.165 155.076 285.045 155.344C284.925 155.608 284.865 155.914 284.865 156.262V160H284.025V156.238C284.025 155.666 283.915 155.234 283.695 154.942C283.475 154.646 283.147 154.498 282.711 154.498C282.267 154.498 281.917 154.656 281.661 154.972C281.405 155.284 281.277 155.712 281.277 156.256V160H280.437ZM292.862 160.144C292.318 160.144 291.848 160.01 291.452 159.742C291.06 159.47 290.758 159.092 290.546 158.608C290.334 158.124 290.228 157.564 290.228 156.928C290.228 156.252 290.338 155.676 290.558 155.2C290.782 154.72 291.092 154.354 291.488 154.102C291.884 153.85 292.342 153.724 292.862 153.724C293.314 153.724 293.724 153.83 294.092 154.042C294.46 154.254 294.752 154.582 294.968 155.026C295.184 155.47 295.292 156.04 295.292 156.736C295.292 156.808 295.29 156.89 295.286 156.982C295.282 157.07 295.276 157.162 295.268 157.258H291.098C291.13 157.682 291.216 158.054 291.356 158.374C291.5 158.69 291.698 158.94 291.95 159.124C292.206 159.304 292.52 159.394 292.892 159.394C293.144 159.394 293.386 159.35 293.618 159.262C293.85 159.17 294.066 159.03 294.266 158.842L294.758 159.406C294.534 159.618 294.258 159.794 293.93 159.934C293.606 160.074 293.25 160.144 292.862 160.144ZM291.086 156.52H294.434C294.434 156.14 294.376 155.794 294.26 155.482C294.148 155.17 293.974 154.922 293.738 154.738C293.506 154.554 293.214 154.462 292.862 154.462C292.386 154.462 291.98 154.626 291.644 154.954C291.312 155.282 291.126 155.804 291.086 156.52ZM298.495 160.144C298.087 160.144 297.695 160.056 297.319 159.88C296.943 159.704 296.627 159.46 296.371 159.148L296.983 158.626C297.203 158.866 297.447 159.052 297.715 159.184C297.983 159.316 298.247 159.382 298.507 159.382C298.899 159.382 299.201 159.302 299.413 159.142C299.629 158.982 299.737 158.758 299.737 158.47C299.737 158.29 299.687 158.126 299.587 157.978C299.491 157.83 299.333 157.692 299.113 157.564C298.893 157.432 298.603 157.298 298.243 157.162C297.595 156.922 297.129 156.66 296.845 156.376C296.561 156.088 296.419 155.732 296.419 155.308C296.419 154.836 296.601 154.454 296.965 154.162C297.333 153.87 297.811 153.724 298.399 153.724C298.787 153.724 299.151 153.8 299.491 153.952C299.831 154.1 300.121 154.314 300.361 154.594L299.773 155.086C299.381 154.686 298.919 154.486 298.387 154.486C298.039 154.486 297.763 154.56 297.559 154.708C297.359 154.852 297.259 155.052 297.259 155.308C297.259 155.544 297.363 155.748 297.571 155.92C297.779 156.088 298.159 156.274 298.711 156.478C299.159 156.646 299.519 156.824 299.791 157.012C300.063 157.196 300.259 157.406 300.379 157.642C300.503 157.878 300.565 158.15 300.565 158.458C300.565 158.982 300.381 159.394 300.013 159.694C299.645 159.994 299.139 160.144 298.495 160.144Z" fill="black"/>
</svg>
