<svg width="95" height="7" viewBox="0 0 95 7" fill="none" xmlns="http://www.w3.org/2000/svg">
<rect x="70" width="2" height="6.72126" rx="1" fill="#FE016A"/>
<rect x="65" width="2" height="6.72126" rx="1" fill="#FE016A"/>
<rect x="60" width="2" height="6.72126" rx="1" fill="#FE016A"/>
<rect x="55" width="2" height="6.72126" rx="1" fill="#FE016A"/>
<rect x="50" width="2" height="6.72126" rx="1" fill="#FE016A"/>
<rect x="45" width="2" height="6.72126" rx="1" fill="#FE016A"/>
<rect x="40" width="2" height="6.72126" rx="1" fill="#FE016A"/>
<rect x="35" width="2" height="6.72126" rx="1" fill="#FE016A"/>
<rect x="30" width="2" height="6.72126" rx="1" fill="#FE016A"/>
<rect x="25" width="2" height="6.72126" rx="1" fill="#FE016A"/>
<rect x="20" width="2" height="6.72126" rx="1" fill="#FE016A"/>
<rect x="15" width="2" height="6.72126" rx="1" fill="#FE016A"/>
<rect x="10" width="2" height="6.72126" rx="1" fill="#FE016A"/>
<rect x="5" width="2" height="6.72126" rx="1" fill="#FE016A"/>
<rect width="2" height="6.72126" rx="1" fill="#FE016A"/>
<rect x="90" width="2" height="6.72126" rx="1" fill="#FE016A"/>
<rect x="85" width="2" height="6.72126" rx="1" fill="#FE016A"/>
<rect x="80" width="2" height="6.72126" rx="1" fill="#FE016A"/>
<rect x="75" width="2" height="6.72126" rx="1" fill="#FE016A"/>
</svg>
