<svg width="310" height="270" viewBox="0 0 310 270" fill="none" xmlns="http://www.w3.org/2000/svg">
<path d="M243 191.711C243 183.758 236.553 177.311 228.6 177.311H12.7648V254.964H228.6C236.553 254.964 243 248.517 243 240.564V191.711Z" fill="#00D3CE"/>
<path d="M0.00482178 177.311H12.7648V254.964L0.00482178 269.399V177.311Z" fill="#00D3CE"/>
<path d="M0.00473022 104.599C0.00473022 96.6463 6.45183 90.1992 14.4047 90.1992H298.173V167.853H14.4047C6.45181 167.853 0.00473022 161.405 0.00473022 153.453V104.599Z" fill="#FE016A"/>
<path d="M309.622 90.1992H298.173V167.853L309.622 182.288V90.1992Z" fill="#FE016A"/>
<path d="M208 15.4C208 7.4471 201.553 1 193.6 1H11V78H193.6C201.553 78 208 71.5529 208 63.6V15.4Z" fill="#03E650"/>
<path d="M0 0.599609H11.4489V78.2529L0 92.6885V0.599609Z" fill="#03E650"/>
<g clip-path="url(#clip0_255_1044)">
<path d="M159.967 65.2196L160.207 62.8916H162.595V63.4436H160.711L160.567 64.7156C160.795 64.5836 161.059 64.5116 161.347 64.5116C161.767 64.5116 162.115 64.6556 162.355 64.9316C162.607 65.2076 162.727 65.5916 162.727 66.0716C162.727 66.5516 162.595 66.9356 162.331 67.2116C162.067 67.4876 161.707 67.6316 161.239 67.6316C160.831 67.6316 160.495 67.5116 160.231 67.2836C159.967 67.0556 159.823 66.7316 159.787 66.3356H160.351C160.387 66.5996 160.483 66.8036 160.639 66.9356C160.795 67.0676 160.999 67.1396 161.251 67.1396C161.527 67.1396 161.743 67.0436 161.899 66.8516C162.055 66.6596 162.139 66.4076 162.139 66.0716C162.139 65.7596 162.055 65.5076 161.887 65.3156C161.719 65.1236 161.491 65.0276 161.203 65.0276C160.939 65.0276 160.735 65.0876 160.591 65.1956L160.435 65.3276L159.955 65.2076L159.967 65.2196Z" fill="white"/>
<path d="M163.423 67.2474C163.423 67.1514 163.459 67.0554 163.519 66.9954C163.579 66.9234 163.675 66.8994 163.795 66.8994C163.915 66.8994 164.011 66.9354 164.071 66.9954C164.131 67.0674 164.167 67.1514 164.167 67.2474C164.167 67.3434 164.131 67.4274 164.071 67.4994C164.011 67.5714 163.915 67.5954 163.795 67.5954C163.675 67.5954 163.579 67.5594 163.519 67.4994C163.459 67.4394 163.423 67.3554 163.423 67.2474ZM163.423 64.4154C163.423 64.3074 163.459 64.2234 163.519 64.1634C163.579 64.0914 163.675 64.0674 163.795 64.0674C163.915 64.0674 164.011 64.1034 164.071 64.1634C164.131 64.2354 164.167 64.3194 164.167 64.4154C164.167 64.5114 164.131 64.5954 164.071 64.6674C164.011 64.7394 163.915 64.7634 163.795 64.7634C163.675 64.7634 163.579 64.7274 163.519 64.6674C163.459 64.6074 163.423 64.5234 163.423 64.4154Z" fill="white"/>
<path d="M168.031 67.5593H164.971V67.1273L166.591 65.3273C166.831 65.0513 166.999 64.8353 167.083 64.6673C167.179 64.4993 167.215 64.3193 167.215 64.1393C167.215 63.8993 167.143 63.6953 166.999 63.5393C166.855 63.3833 166.651 63.3113 166.411 63.3113C166.111 63.3113 165.883 63.3953 165.727 63.5633C165.559 63.7313 165.475 63.9593 165.475 64.2593H164.887C164.887 63.8273 165.031 63.4793 165.307 63.2153C165.583 62.9513 165.955 62.8193 166.423 62.8193C166.855 62.8193 167.203 62.9393 167.455 63.1673C167.707 63.3953 167.839 63.6953 167.839 64.0793C167.839 64.5353 167.551 65.0873 166.963 65.7233L165.715 67.0793H168.067V67.5593H168.031Z" fill="white"/>
<path d="M171.595 65.5673C171.595 66.2633 171.475 66.7793 171.235 67.1153C170.995 67.4513 170.623 67.6193 170.119 67.6193C169.615 67.6193 169.255 67.4513 169.015 67.1273C168.775 66.7913 168.655 66.2993 168.643 65.6513V64.8593C168.643 64.1753 168.763 63.6593 169.003 63.3233C169.243 62.9873 169.615 62.8193 170.119 62.8193C170.623 62.8193 170.995 62.9753 171.223 63.2993C171.463 63.6233 171.583 64.1153 171.583 64.7873V65.5553L171.595 65.5673ZM171.007 64.7513C171.007 64.2473 170.935 63.8873 170.791 63.6473C170.647 63.4073 170.431 63.2993 170.119 63.2993C169.807 63.2993 169.591 63.4073 169.459 63.6473C169.315 63.8753 169.243 64.2233 169.243 64.7033V65.6513C169.243 66.1553 169.315 66.5273 169.459 66.7673C169.603 67.0073 169.831 67.1273 170.119 67.1273C170.407 67.1273 170.635 67.0193 170.767 66.7913C170.911 66.5633 170.983 66.2033 170.995 65.7233V64.7513H171.007Z" fill="white"/>
<path d="M174.751 65.7356V67.5596H174.139V62.8916H175.867C176.383 62.8916 176.779 63.0236 177.067 63.2876C177.355 63.5516 177.499 63.8996 177.499 64.3196C177.499 64.7756 177.355 65.1236 177.079 65.3636C176.803 65.6036 176.395 65.7356 175.867 65.7356H174.763H174.751ZM174.751 65.2316H175.855C176.179 65.2316 176.443 65.1596 176.611 65.0036C176.791 64.8476 176.875 64.6196 176.875 64.3316C176.875 64.0436 176.791 63.8276 176.611 63.6596C176.431 63.4916 176.191 63.4076 175.891 63.3956H174.751V65.2316Z" fill="white"/>
<path d="M179.083 62.8916L180.607 66.7076L182.131 62.8916H182.935V67.5596H182.323V65.7356L182.383 63.7676L180.847 67.5476H180.379L178.843 63.7796L178.903 65.7356V67.5596H178.291V62.8916H179.083Z" fill="white"/>
<path d="M188.347 68.0758L185.899 65.6278L186.547 64.9798L188.275 66.6958L192.211 61.7998L192.931 62.3758L188.347 68.0758Z" fill="white"/>
<path d="M191.227 68.0758L190.039 66.8878L190.687 66.2398L191.155 66.6958L195.091 61.7998L195.811 62.3758L191.227 68.0758Z" fill="white"/>
</g>
<g clip-path="url(#clip1_255_1044)">
<path d="M261.772 155.22L262.012 152.892H264.4V153.444H262.516L262.372 154.716C262.6 154.584 262.864 154.512 263.152 154.512C263.572 154.512 263.92 154.656 264.16 154.932C264.412 155.208 264.532 155.592 264.532 156.072C264.532 156.552 264.4 156.936 264.136 157.212C263.872 157.488 263.512 157.632 263.044 157.632C262.636 157.632 262.3 157.512 262.036 157.284C261.772 157.056 261.628 156.732 261.592 156.336H262.156C262.192 156.6 262.288 156.804 262.444 156.936C262.6 157.068 262.804 157.14 263.056 157.14C263.332 157.14 263.548 157.044 263.704 156.852C263.86 156.66 263.944 156.408 263.944 156.072C263.944 155.76 263.86 155.508 263.692 155.316C263.524 155.124 263.296 155.028 263.008 155.028C262.744 155.028 262.54 155.088 262.396 155.196L262.24 155.328L261.76 155.208L261.772 155.22Z" fill="white"/>
<path d="M265.228 157.247C265.228 157.151 265.264 157.055 265.324 156.995C265.384 156.923 265.48 156.899 265.6 156.899C265.72 156.899 265.816 156.935 265.876 156.995C265.936 157.067 265.972 157.151 265.972 157.247C265.972 157.343 265.936 157.427 265.876 157.499C265.816 157.571 265.72 157.595 265.6 157.595C265.48 157.595 265.384 157.559 265.324 157.499C265.264 157.439 265.228 157.355 265.228 157.247ZM265.228 154.415C265.228 154.307 265.264 154.223 265.324 154.163C265.384 154.091 265.48 154.067 265.6 154.067C265.72 154.067 265.816 154.103 265.876 154.163C265.936 154.235 265.972 154.319 265.972 154.415C265.972 154.511 265.936 154.595 265.876 154.667C265.816 154.739 265.72 154.763 265.6 154.763C265.48 154.763 265.384 154.727 265.324 154.667C265.264 154.607 265.228 154.523 265.228 154.415Z" fill="white"/>
<path d="M269.836 157.559H266.776V157.127L268.396 155.327C268.636 155.051 268.804 154.835 268.888 154.667C268.984 154.499 269.02 154.319 269.02 154.139C269.02 153.899 268.948 153.695 268.804 153.539C268.66 153.383 268.456 153.311 268.216 153.311C267.916 153.311 267.688 153.395 267.532 153.563C267.364 153.731 267.28 153.959 267.28 154.259H266.692C266.692 153.827 266.836 153.479 267.112 153.215C267.388 152.951 267.76 152.819 268.228 152.819C268.66 152.819 269.008 152.939 269.26 153.167C269.512 153.395 269.644 153.695 269.644 154.079C269.644 154.535 269.356 155.087 268.768 155.723L267.52 157.079H269.872V157.559H269.836Z" fill="white"/>
<path d="M273.4 155.567C273.4 156.263 273.28 156.779 273.04 157.115C272.8 157.451 272.428 157.619 271.924 157.619C271.42 157.619 271.06 157.451 270.82 157.127C270.58 156.791 270.46 156.299 270.448 155.651V154.859C270.448 154.175 270.568 153.659 270.808 153.323C271.048 152.987 271.42 152.819 271.924 152.819C272.428 152.819 272.8 152.975 273.028 153.299C273.268 153.623 273.388 154.115 273.388 154.787V155.555L273.4 155.567ZM272.812 154.751C272.812 154.247 272.74 153.887 272.596 153.647C272.452 153.407 272.236 153.299 271.924 153.299C271.612 153.299 271.396 153.407 271.264 153.647C271.12 153.875 271.048 154.223 271.048 154.703V155.651C271.048 156.155 271.12 156.527 271.264 156.767C271.408 157.007 271.636 157.127 271.924 157.127C272.212 157.127 272.44 157.019 272.572 156.791C272.716 156.563 272.788 156.203 272.8 155.723V154.751H272.812Z" fill="white"/>
<path d="M276.556 155.736V157.56H275.944V152.892H277.672C278.188 152.892 278.584 153.024 278.872 153.288C279.16 153.552 279.304 153.9 279.304 154.32C279.304 154.776 279.16 155.124 278.884 155.364C278.608 155.604 278.2 155.736 277.672 155.736H276.568H276.556ZM276.556 155.232H277.66C277.984 155.232 278.248 155.16 278.416 155.004C278.596 154.848 278.68 154.62 278.68 154.332C278.68 154.044 278.596 153.828 278.416 153.66C278.236 153.492 277.996 153.408 277.696 153.396H276.556V155.232Z" fill="white"/>
<path d="M280.888 152.892L282.412 156.708L283.936 152.892H284.74V157.56H284.128V155.736L284.188 153.768L282.652 157.548H282.184L280.648 153.78L280.708 155.736V157.56H280.096V152.892H280.888Z" fill="white"/>
<path d="M290.152 158.076L287.704 155.628L288.352 154.98L290.08 156.696L294.016 151.8L294.736 152.376L290.152 158.076Z" fill="white"/>
<path d="M293.032 158.076L291.844 156.888L292.492 156.24L292.96 156.696L296.896 151.8L297.616 152.376L293.032 158.076Z" fill="white"/>
</g>
<g clip-path="url(#clip2_255_1044)">
<path d="M196.569 242.82L196.809 240.492H199.197V241.044H197.313L197.169 242.316C197.397 242.184 197.661 242.112 197.949 242.112C198.369 242.112 198.717 242.256 198.957 242.532C199.209 242.808 199.329 243.192 199.329 243.672C199.329 244.152 199.197 244.536 198.933 244.812C198.669 245.088 198.309 245.232 197.841 245.232C197.433 245.232 197.097 245.112 196.833 244.884C196.569 244.656 196.425 244.332 196.389 243.936H196.953C196.989 244.2 197.085 244.404 197.241 244.536C197.397 244.668 197.601 244.74 197.853 244.74C198.129 244.74 198.345 244.644 198.501 244.452C198.657 244.26 198.741 244.008 198.741 243.672C198.741 243.36 198.657 243.108 198.489 242.916C198.321 242.724 198.093 242.628 197.805 242.628C197.541 242.628 197.337 242.688 197.193 242.796L197.037 242.928L196.557 242.808L196.569 242.82Z" fill="white"/>
<path d="M200.025 244.848C200.025 244.752 200.061 244.656 200.121 244.596C200.181 244.524 200.277 244.5 200.397 244.5C200.517 244.5 200.613 244.536 200.673 244.596C200.733 244.668 200.769 244.752 200.769 244.848C200.769 244.944 200.733 245.028 200.673 245.1C200.613 245.172 200.517 245.196 200.397 245.196C200.277 245.196 200.181 245.16 200.121 245.1C200.061 245.04 200.025 244.956 200.025 244.848ZM200.025 242.016C200.025 241.908 200.061 241.824 200.121 241.764C200.181 241.692 200.277 241.668 200.397 241.668C200.517 241.668 200.613 241.704 200.673 241.764C200.733 241.836 200.769 241.92 200.769 242.016C200.769 242.112 200.733 242.196 200.673 242.268C200.613 242.34 200.517 242.364 200.397 242.364C200.277 242.364 200.181 242.328 200.121 242.268C200.061 242.208 200.025 242.124 200.025 242.016Z" fill="white"/>
<path d="M204.633 245.16H201.573V244.728L203.193 242.928C203.433 242.652 203.601 242.436 203.685 242.268C203.781 242.1 203.817 241.92 203.817 241.74C203.817 241.5 203.745 241.296 203.601 241.14C203.457 240.984 203.253 240.912 203.013 240.912C202.713 240.912 202.485 240.996 202.329 241.164C202.161 241.332 202.077 241.56 202.077 241.86H201.489C201.489 241.428 201.633 241.08 201.909 240.816C202.185 240.552 202.557 240.42 203.025 240.42C203.457 240.42 203.805 240.54 204.057 240.768C204.309 240.996 204.441 241.296 204.441 241.68C204.441 242.136 204.153 242.688 203.565 243.324L202.317 244.68H204.669V245.16H204.633Z" fill="white"/>
<path d="M208.197 243.168C208.197 243.864 208.077 244.38 207.837 244.716C207.597 245.052 207.225 245.22 206.721 245.22C206.217 245.22 205.857 245.052 205.617 244.728C205.377 244.392 205.257 243.9 205.245 243.252V242.46C205.245 241.776 205.365 241.26 205.605 240.924C205.845 240.588 206.217 240.42 206.721 240.42C207.225 240.42 207.597 240.576 207.825 240.9C208.065 241.224 208.185 241.716 208.185 242.388V243.156L208.197 243.168ZM207.609 242.352C207.609 241.848 207.537 241.488 207.393 241.248C207.249 241.008 207.033 240.9 206.721 240.9C206.409 240.9 206.193 241.008 206.061 241.248C205.917 241.476 205.845 241.824 205.845 242.304V243.252C205.845 243.756 205.917 244.128 206.061 244.368C206.205 244.608 206.433 244.728 206.721 244.728C207.009 244.728 207.237 244.62 207.369 244.392C207.513 244.164 207.585 243.804 207.597 243.324V242.352H207.609Z" fill="white"/>
<path d="M211.353 243.336V245.16H210.741V240.492H212.469C212.985 240.492 213.381 240.624 213.669 240.888C213.957 241.152 214.101 241.5 214.101 241.92C214.101 242.376 213.957 242.724 213.681 242.964C213.405 243.204 212.997 243.336 212.469 243.336H211.365H211.353ZM211.353 242.832H212.457C212.781 242.832 213.045 242.76 213.213 242.604C213.393 242.448 213.477 242.22 213.477 241.932C213.477 241.644 213.393 241.428 213.213 241.26C213.033 241.092 212.793 241.008 212.493 240.996H211.353V242.832Z" fill="white"/>
<path d="M215.685 240.492L217.209 244.308L218.733 240.492H219.537V245.16H218.925V243.336L218.985 241.368L217.449 245.148H216.981L215.445 241.38L215.505 243.336V245.16H214.893V240.492H215.685Z" fill="white"/>
<path d="M224.949 245.675L222.501 243.227L223.149 242.579L224.877 244.295L228.813 239.399L229.533 239.975L224.949 245.675Z" fill="white"/>
<path d="M227.829 245.675L226.641 244.487L227.289 243.839L227.757 244.295L231.693 239.399L232.413 239.975L227.829 245.675Z" fill="white"/>
</g>
<path d="M18.6135 50.0996V48.5996H17.1135V47.0996H15.6135V42.5996H17.1135V41.0996H18.6135V39.5996H26.1135V41.0996H20.1135V42.5996H18.6135V47.0996H20.1135V48.5996H23.1135V45.5996H21.6135V44.0996H26.1135V50.0996H18.6135ZM27.6135 50.0996V39.5996H38.1135V41.0996H30.6135V44.0996H36.6135V45.5996H30.6135V48.5996H38.1135V50.0996H27.6135ZM39.6135 50.0996V39.5996H48.6135V41.0996H50.1135V45.5996H47.1135V47.0996H48.6135V48.5996H50.1135V50.0996H45.6135V48.5996H44.1135V47.0996H42.6135V50.0996H39.6135ZM42.6135 45.5996H45.6135V44.0996H47.1135V41.0996H42.6135V45.5996ZM51.6135 50.0996V42.5996H53.1135V41.0996H54.6135V39.5996H59.1135V41.0996H60.6135V42.5996H62.1135V50.0996H59.1135V47.0996H54.6135V50.0996H51.6135ZM54.6135 45.5996H59.1135V42.5996H57.6135V41.0996H56.1135V42.5996H54.6135V45.5996ZM65.1135 50.0996V39.5996H68.1135V48.5996H74.1135V50.0996H65.1135ZM17.1135 68.0996V66.5996H15.6135V65.0996H18.6135V66.5996H23.1135V63.5996H18.6135V62.0996H20.1135V60.5996H21.6135V59.0996H17.1135V57.5996H26.1135V59.0996H24.6135V60.5996H23.1135V62.0996H24.6135V63.5996H26.1135V66.5996H24.6135V68.0996H17.1135ZM29.1135 68.0996V66.5996H27.6135V63.5996H29.1135V62.0996H27.6135V59.0996H29.1135V57.5996H35.1135V59.0996H36.6135V62.0996H35.1135V63.5996H38.1135V66.5996H36.6135V68.0996H29.1135ZM32.1135 62.0996H35.1135V59.0996H30.6135V60.5996H32.1135V62.0996ZM29.1135 66.5996H35.1135V65.0996H32.1135V63.5996H29.1135V66.5996ZM42.6135 59.0996H41.1135V57.5996H44.1135V60.5996H42.6135V59.0996ZM50.1135 57.5996V59.0996H48.6135V57.5996H50.1135ZM42.6135 62.0996H39.6135V59.0996H41.1135V60.5996H42.6135V62.0996ZM47.1135 59.0996H48.6135V60.5996H47.1135V59.0996ZM45.6135 60.5996H47.1135V62.0996H45.6135V60.5996ZM44.1135 62.0996H45.6135V63.5996H44.1135V62.0996ZM42.6135 63.5996H44.1135V65.0996H42.6135V63.5996ZM47.1135 63.5996H50.1135V66.5996H48.6135V65.0996H47.1135V63.5996ZM41.1135 65.0996H42.6135V66.5996H41.1135V65.0996ZM47.1135 66.5996H48.6135V68.0996H45.6135V65.0996H47.1135V66.5996ZM39.6135 66.5996H41.1135V68.0996H39.6135V66.5996Z" fill="#F5F5F5"/>
<path d="M15.6135 140.1V129.6H18.6135V131.1H20.1135V132.6H21.6135V131.1H23.1135V129.6H26.1135V140.1H23.1135V134.1H21.6135V137.1H20.1135V134.1H18.6135V140.1H15.6135ZM29.1135 140.1V138.6H27.6135V129.6H30.6135V138.6H35.1135V129.6H38.1135V138.6H36.6135V140.1H29.1135ZM41.1135 140.1V129.6H44.1135V138.6H50.1135V140.1H41.1135ZM56.1135 140.1V131.1H53.1135V129.6H62.1135V131.1H59.1135V140.1H56.1135ZM65.1135 140.1V138.6H68.1135V131.1H65.1135V129.6H74.1135V131.1H71.1135V138.6H74.1135V140.1H65.1135ZM75.6135 140.1V129.6H84.6135V131.1H86.1135V135.6H84.6135V137.1H78.6135V140.1H75.6135ZM78.6135 135.6H83.1135V131.1H78.6135V135.6ZM89.1135 140.1V129.6H92.1135V138.6H98.1135V140.1H89.1135ZM99.6135 140.1V132.6H101.113V131.1H102.613V129.6H107.113V131.1H108.613V132.6H110.113V140.1H107.113V137.1H102.613V140.1H99.6135ZM102.613 135.6H107.113V132.6H105.613V131.1H104.113V132.6H102.613V135.6ZM116.113 140.1V131.1H113.113V129.6H122.113V131.1H119.113V140.1H116.113ZM123.613 140.1V132.6H125.113V131.1H126.613V129.6H131.113V131.1H132.613V132.6H134.113V140.1H131.113V137.1H126.613V140.1H123.613ZM126.613 135.6H131.113V132.6H129.613V131.1H128.113V132.6H126.613V135.6ZM135.613 140.1V129.6H146.113V131.1H138.613V134.1H144.613V135.6H138.613V140.1H135.613ZM149.113 140.1V138.6H147.613V131.1H149.113V129.6H156.613V131.1H158.113V138.6H156.613V140.1H149.113ZM150.613 138.6H155.113V131.1H150.613V138.6ZM159.613 140.1V129.6H168.613V131.1H170.113V135.6H167.113V137.1H168.613V138.6H170.113V140.1H165.613V138.6H164.113V137.1H162.613V140.1H159.613ZM162.613 135.6H165.613V134.1H167.113V131.1H162.613V135.6ZM171.613 140.1V129.6H174.613V131.1H176.113V132.6H177.613V131.1H179.113V129.6H182.113V140.1H179.113V134.1H177.613V137.1H176.113V134.1H174.613V140.1H171.613ZM183.613 140.1V132.6H185.113V131.1H186.613V129.6H191.113V131.1H192.613V132.6H194.113V140.1H191.113V137.1H186.613V140.1H183.613ZM186.613 135.6H191.113V132.6H189.613V131.1H188.113V132.6H186.613V135.6ZM197.113 140.1V138.6H195.613V137.1H198.613V138.6H203.113V135.6H197.113V134.1H195.613V131.1H197.113V129.6H204.613V131.1H206.113V132.6H203.113V131.1H198.613V134.1H204.613V135.6H206.113V138.6H204.613V140.1H197.113ZM17.1135 158.1V156.6H15.6135V155.1H18.6135V156.6H23.1135V152.1H15.6135V147.6H24.6135V149.1H18.6135V150.6H24.6135V152.1H26.1135V156.6H24.6135V158.1H17.1135ZM29.1135 158.1V156.6H27.6135V150.6H29.1135V149.1H30.6135V147.6H36.6135V149.1H32.1135V150.6H30.6135V152.1H36.6135V153.6H38.1135V156.6H36.6135V158.1H29.1135ZM30.6135 156.6H35.1135V153.6H30.6135V156.6ZM42.6135 149.1H41.1135V147.6H44.1135V150.6H42.6135V149.1ZM50.1135 147.6V149.1H48.6135V147.6H50.1135ZM42.6135 152.1H39.6135V149.1H41.1135V150.6H42.6135V152.1ZM47.1135 149.1H48.6135V150.6H47.1135V149.1ZM45.6135 150.6H47.1135V152.1H45.6135V150.6ZM44.1135 152.1H45.6135V153.6H44.1135V152.1ZM42.6135 153.6H44.1135V155.1H42.6135V153.6ZM47.1135 153.6H50.1135V156.6H48.6135V155.1H47.1135V153.6ZM41.1135 155.1H42.6135V156.6H41.1135V155.1ZM47.1135 156.6H48.6135V158.1H45.6135V155.1H47.1135V156.6ZM39.6135 156.6H41.1135V158.1H39.6135V156.6Z" fill="#F5F5F5"/>
<path d="M17.1135 227.699V226.199H20.1135V220.199H18.6135V218.699H20.1135V217.199H23.1135V226.199H26.1135V227.699H17.1135ZM29.1135 227.699V226.199H27.6135V220.199H29.1135V218.699H30.6135V217.199H36.6135V218.699H32.1135V220.199H30.6135V221.699H36.6135V223.199H38.1135V226.199H36.6135V227.699H29.1135ZM30.6135 226.199H35.1135V223.199H30.6135V226.199ZM51.6135 227.699V220.199H53.1135V218.699H54.6135V217.199H59.1135V218.699H60.6135V220.199H62.1135V227.699H59.1135V224.699H54.6135V227.699H51.6135ZM54.6135 223.199H59.1135V220.199H57.6135V218.699H56.1135V220.199H54.6135V223.199ZM75.6135 227.699V224.699H77.1135V223.199H78.6135V221.699H81.6135V220.199H83.1135V218.699H78.6135V220.199H75.6135V218.699H77.1135V217.199H84.6135V218.699H86.1135V221.699H84.6135V223.199H83.1135V224.699H80.1135V226.199H86.1135V227.699H75.6135ZM89.1135 227.699V226.199H87.6135V220.199H89.1135V218.699H90.6135V217.199H96.6135V218.699H92.1135V220.199H90.6135V221.699H96.6135V223.199H98.1135V226.199H96.6135V227.699H89.1135ZM90.6135 226.199H95.1135V223.199H90.6135V226.199ZM111.613 227.699V220.199H113.113V218.699H114.613V217.199H119.113V218.699H120.613V220.199H122.113V227.699H119.113V224.699H114.613V227.699H111.613ZM114.613 223.199H119.113V220.199H117.613V218.699H116.113V220.199H114.613V223.199ZM123.613 227.699V217.199H126.613V218.699H128.113V220.199H129.613V221.699H131.113V217.199H134.113V227.699H131.113V224.699H129.613V223.199H128.113V221.699H126.613V227.699H123.613ZM137.113 227.699V226.199H135.613V218.699H137.113V217.199H144.613V218.699H146.113V226.199H144.613V227.699H137.113ZM138.613 226.199H143.113V218.699H138.613V226.199ZM149.113 227.699V226.199H147.613V224.699H150.613V226.199H155.113V223.199H149.113V221.699H147.613V218.699H149.113V217.199H156.613V218.699H158.113V220.199H155.113V218.699H150.613V221.699H156.613V223.199H158.113V226.199H156.613V227.699H149.113ZM21.6135 245.699V242.699H15.6135V239.699H17.1135V238.199H18.6135V236.699H20.1135V235.199H24.6135V241.199H26.1135V242.699H24.6135V245.699H21.6135ZM18.6135 241.199H21.6135V238.199H20.1135V239.699H18.6135V241.199ZM33.6135 245.699V242.699H27.6135V239.699H29.1135V238.199H30.6135V236.699H32.1135V235.199H36.6135V241.199H38.1135V242.699H36.6135V245.699H33.6135ZM30.6135 241.199H33.6135V238.199H32.1135V239.699H30.6135V241.199ZM42.6135 236.699H41.1135V235.199H44.1135V238.199H42.6135V236.699ZM50.1135 235.199V236.699H48.6135V235.199H50.1135ZM42.6135 239.699H39.6135V236.699H41.1135V238.199H42.6135V239.699ZM47.1135 236.699H48.6135V238.199H47.1135V236.699ZM45.6135 238.199H47.1135V239.699H45.6135V238.199ZM44.1135 239.699H45.6135V241.199H44.1135V239.699ZM42.6135 241.199H44.1135V242.699H42.6135V241.199ZM47.1135 241.199H50.1135V244.199H48.6135V242.699H47.1135V241.199ZM41.1135 242.699H42.6135V244.199H41.1135V242.699ZM47.1135 244.199H48.6135V245.699H45.6135V242.699H47.1135V244.199ZM39.6135 244.199H41.1135V245.699H39.6135V244.199Z" fill="#F5F5F5"/>
<defs>
<clipPath id="clip0_255_1044">
<rect width="36.012" height="6.276" fill="white" transform="translate(159.8 61.7998)"/>
</clipPath>
<clipPath id="clip1_255_1044">
<rect width="36.012" height="6.276" fill="white" transform="translate(261.604 151.8)"/>
</clipPath>
<clipPath id="clip2_255_1044">
<rect width="36.012" height="6.276" fill="white" transform="translate(196.401 239.399)"/>
</clipPath>
</defs>
</svg>
