<svg width="338" height="315" viewBox="0 0 338 315" fill="none" xmlns="http://www.w3.org/2000/svg">
<rect x="0.578506" y="25.5033" width="145" height="27" transform="rotate(-9.89819 0.578506 25.5033)" fill="white"/>
<path d="M17.7787 40.0128L17.5638 38.7814L16.3324 38.9963L16.1175 37.7649L14.8861 37.9798L14.2415 34.2856L15.4729 34.0707L15.258 32.8393L16.4894 32.6244L16.2746 31.3931L21.2001 30.5336L21.415 31.765L22.6464 31.5501L22.8613 32.7815L20.3985 33.2112L20.1836 31.9798L17.7208 32.4096L17.9357 33.641L16.7043 33.8558L17.3489 37.55L18.5803 37.3351L18.7952 38.5665L21.258 38.1368L21.0431 36.9054L23.5059 36.4757L23.7208 37.7071L22.4894 37.9219L22.7042 39.1533L17.7787 40.0128ZM26.4969 38.4915L26.2821 37.2601L25.0507 37.475L23.9763 31.318L25.2077 31.1031L24.9928 29.8718L31.1498 28.7974L31.3647 30.0288L32.5961 29.8139L33.6704 35.9709L32.439 36.1858L32.6539 37.4171L26.4969 38.4915ZM27.5134 37.0452L31.2076 36.4006L30.1333 30.2437L26.4391 30.8883L27.5134 37.0452ZM35.2152 36.9702L33.7111 28.3505L36.1739 27.9207L36.3887 29.1521L37.6201 28.9372L37.835 30.1686L39.0664 29.9538L39.2813 31.1851L40.5127 30.9703L39.8681 27.2761L42.3308 26.8464L43.8349 35.4661L41.3722 35.8959L40.9424 33.4331L39.711 33.6479L39.4961 32.4165L38.2648 32.6314L38.0499 31.4L36.8185 31.6149L37.678 36.5405L35.2152 36.9702ZM47.6276 34.8043L47.4128 33.5729L46.1814 33.7878L45.9665 32.5564L44.7351 32.7713L44.0905 29.0771L45.3219 28.8622L45.107 27.6308L46.3384 27.4159L46.1235 26.1845L51.0491 25.3251L51.264 26.5564L52.4954 26.3416L52.7102 27.573L50.2475 28.0027L50.0326 26.7713L47.5698 27.2011L47.7847 28.4325L46.5533 28.6473L47.1979 32.3415L48.4293 32.1266L48.6442 33.358L51.1069 32.9283L50.8921 31.6969L53.3549 31.2671L53.5697 32.4985L52.3383 32.7134L52.5532 33.9448L47.6276 34.8043ZM55.1145 33.4979L53.6104 24.8781L62.2302 23.374L62.445 24.6054L56.2881 25.6798L56.7178 28.1426L61.6434 27.2831L61.8583 28.5145L56.9327 29.3739L57.3624 31.8367L63.5194 30.7624L63.7343 31.9938L55.1145 33.4979ZM65.0642 31.7617L63.5601 23.142L66.0228 22.7122L66.2377 23.9436L67.4691 23.7287L67.684 24.9601L68.9154 24.7452L69.1303 25.9766L70.3616 25.7618L69.717 22.0676L72.1798 21.6378L73.6839 30.2576L71.2211 30.6873L70.7914 28.2246L69.56 28.4394L69.3451 27.208L68.1137 27.4229L67.8989 26.1915L66.6675 26.4064L67.527 31.332L65.0642 31.7617ZM78.708 29.3809L77.4188 21.9926L74.956 22.4223L74.7411 21.1909L82.1295 19.9017L82.3443 21.1331L79.8816 21.5628L81.1708 28.9512L78.708 29.3809ZM84.9635 28.2894L83.4594 19.6696L90.8477 18.3804L91.0626 19.6118L92.294 19.3969L92.9386 23.0911L90.4758 23.5208L90.6907 24.7522L91.9221 24.5373L92.137 25.7687L93.3684 25.5539L93.5832 26.7853L89.8891 27.4299L89.6742 26.1985L88.4428 26.4134L88.2279 25.182L86.9965 25.3968L87.4263 27.8596L84.9635 28.2894ZM86.7816 24.1654L89.2444 23.7357L89.0296 22.5043L90.261 22.2894L89.8312 19.8266L86.137 20.4713L86.7816 24.1654ZM94.9131 26.5532L93.8388 20.3962L95.0702 20.1814L94.8553 18.95L96.0867 18.7351L95.8718 17.5037L99.566 16.8591L99.7809 18.0905L101.012 17.8756L101.227 19.107L102.459 18.8921L103.533 25.0491L101.07 25.4788L100.64 23.016L96.9462 23.6607L97.3759 26.1234L94.9131 26.5532ZM96.7313 22.4293L100.425 21.7847L99.9957 19.3219L98.7644 19.5367L98.5495 18.3053L97.3181 18.5202L97.533 19.7516L96.3016 19.9665L96.7313 22.4293ZM112.193 15.9246L112.408 17.1559L109.945 17.5857L109.731 16.3543L107.268 16.784L107.483 18.0154L106.251 18.2303L106.681 20.6931L107.912 20.4782L108.127 21.7096L110.59 21.2799L110.375 20.0485L112.838 19.6187L113.053 20.8501L111.821 21.065L112.036 22.2964L110.805 22.5113L111.02 23.7427L109.788 23.9575L109.574 22.7261L107.111 23.1559L106.896 21.9245L105.664 22.1394L105.45 20.908L104.218 21.1228L103.788 18.6601L105.02 18.4452L104.805 17.2138L106.036 16.9989L105.821 15.7675L110.747 14.908L110.962 16.1394L112.193 15.9246ZM107.326 24.3873L109.788 23.9575L110.003 25.1889L107.54 25.6187L107.326 24.3873ZM122.788 17.8826L123.432 21.5767L120.969 22.0065L120.755 20.7751L117.06 21.4197L117.275 22.6511L114.812 23.0809L114.168 19.3867L115.399 19.1718L115.184 17.9404L116.416 17.7255L116.201 16.4941L117.432 16.2793L117.217 15.0479L115.986 15.2627L115.771 14.0314L118.234 13.6016L118.449 14.833L119.68 14.6181L120.11 17.0809L121.341 16.866L121.556 18.0974L122.788 17.8826ZM120.912 14.4033L119.68 14.6181L119.465 13.3867L120.697 13.1719L120.912 14.4033ZM115.986 15.2627L116.201 16.4941L114.969 16.709L114.755 15.4776L115.986 15.2627ZM120.325 18.3123L119.093 18.5272L118.879 17.2958L117.647 17.5107L117.862 18.7421L116.631 18.9569L116.845 20.1883L120.54 19.5437L120.325 18.3123ZM125.994 21.1298L125.779 19.8984L124.547 20.1133L123.473 13.9563L124.704 13.7415L124.489 12.5101L130.646 11.4357L130.861 12.6671L132.093 12.4522L133.167 18.6092L131.936 18.8241L132.15 20.0554L125.994 21.1298ZM127.01 19.6835L130.704 19.0389L129.63 12.882L125.936 13.5266L127.01 19.6835Z" fill="#006967"/>
<path d="M15.7026 42.6591L135 21.8422L135.086 22.3348L15.7886 43.1516L15.7026 42.6591Z" fill="#006967"/>
<rect x="0.578506" y="25.5033" width="145" height="27" transform="rotate(-9.89819 0.578506 25.5033)" stroke="#006967"/>
<rect x="168.5" y="15.5" width="134" height="27" fill="white"/>
<path d="M180 32.75V24H187.5V25.25H188.75V29H186.25V30.25H187.5V31.5H188.75V32.75H185V31.5H183.75V30.25H182.5V32.75H180ZM182.5 29H185V27.75H186.25V25.25H182.5V29ZM190.1 32.75V24H198.85V25.25H192.6V27.75H197.6V29H192.6V31.5H198.85V32.75H190.1ZM201.45 32.75V31.5H200.2V30.25H202.7V31.5H206.45V29H201.45V27.75H200.2V25.25H201.45V24H207.7V25.25H208.95V26.5H206.45V25.25H202.7V27.75H207.7V29H208.95V31.5H207.7V32.75H201.45ZM211.55 32.75V31.5H214.05V25.25H211.55V24H219.05V25.25H216.55V31.5H219.05V32.75H211.55ZM221.65 32.75V31.5H220.4V30.25H222.9V31.5H226.65V29H221.65V27.75H220.4V25.25H221.65V24H227.9V25.25H229.15V26.5H226.65V25.25H222.9V27.75H227.9V29H229.15V31.5H227.9V32.75H221.65ZM234.25 32.75V25.25H231.75V24H239.25V25.25H236.75V32.75H234.25ZM240.6 32.75V26.5H241.85V25.25H243.1V24H246.85V25.25H248.1V26.5H249.35V27.75H243.1V29H248.1V30.25H243.1V31.5H249.35V32.75H240.6ZM244.35 26.5H245.6V25.25H244.35V26.5ZM250.7 32.75V24H253.2V25.25H254.45V26.5H255.7V27.75H256.95V24H259.45V32.75H256.95V30.25H255.7V29H254.45V27.75H253.2V32.75H250.7ZM263.3 32.75V31.5H262.05V30.25H260.8V26.5H262.05V25.25H263.3V24H268.3V25.25H269.55V26.5H267.05V25.25H264.55V26.5H263.3V30.25H264.55V31.5H267.05V30.25H269.55V31.5H268.3V32.75H263.3ZM272.15 32.75V31.5H274.65V25.25H272.15V24H279.65V25.25H277.15V31.5H279.65V32.75H272.15ZM281 32.75V26.5H282.25V25.25H283.5V24H287.25V25.25H288.5V26.5H289.75V32.75H287.25V30.25H283.5V32.75H281ZM283.5 29H287.25V26.5H286V25.25H284.75V26.5H283.5V29Z" fill="#006967"/>
<path d="M180 35H291V35.5H180V35Z" fill="#006967"/>
<rect x="168.5" y="15.5" width="134" height="27" stroke="#006967"/>
<rect x="7.5" y="76.5" width="114" height="27" fill="white"/>
<path d="M19.1 93.75V85H26.6V86.25H27.85V90H26.6V91.25H21.6V93.75H19.1ZM21.6 90H25.35V86.25H21.6V90ZM29.2 93.75V87.5H30.45V86.25H31.7V85H35.45V86.25H36.7V87.5H37.95V93.75H35.45V91.25H31.7V93.75H29.2ZM31.7 90H35.45V87.5H34.2V86.25H32.95V87.5H31.7V90ZM41.8 93.75V92.5H40.55V91.25H39.3V87.5H40.55V86.25H41.8V85H46.8V86.25H48.05V87.5H45.55V86.25H43.05V87.5H41.8V91.25H43.05V92.5H45.55V91.25H48.05V92.5H46.8V93.75H41.8ZM50.65 93.75V92.5H53.15V86.25H50.65V85H58.15V86.25H55.65V92.5H58.15V93.75H50.65ZM59.5 93.75V87.5H60.75V86.25H62V85H65.75V86.25H67V87.5H68.25V88.75H62V90H67V91.25H62V92.5H68.25V93.75H59.5ZM63.25 87.5H64.5V86.25H63.25V87.5ZM69.6 93.75V85H72.1V86.25H73.35V87.5H74.6V88.75H75.85V85H78.35V93.75H75.85V91.25H74.6V90H73.35V88.75H72.1V93.75H69.6ZM82.2 93.75V92.5H80.95V91.25H79.7V87.5H80.95V86.25H82.2V85H87.2V86.25H88.45V87.5H85.95V86.25H83.45V87.5H82.2V91.25H83.45V92.5H85.95V91.25H88.45V92.5H87.2V93.75H82.2ZM91.05 93.75V92.5H93.55V86.25H91.05V85H98.55V86.25H96.05V92.5H98.55V93.75H91.05ZM99.9 93.75V87.5H101.15V86.25H102.4V85H106.15V86.25H107.4V87.5H108.65V93.75H106.15V91.25H102.4V93.75H99.9ZM102.4 90H106.15V87.5H104.9V86.25H103.65V87.5H102.4V90Z" fill="#006967"/>
<path d="M19.1 96H109.9V96.5H19.1V96Z" fill="#006967"/>
<rect x="7.5" y="76.5" width="114" height="27" stroke="#006967"/>
<rect x="111.932" y="40.5586" width="104" height="27" transform="rotate(7.17718 111.932 40.5586)" fill="white"/>
<path d="M123.816 59.4412L123.972 58.201L122.732 58.0448L122.888 56.8046L121.648 56.6485L122.116 52.9278L123.356 53.084L123.513 51.8438L124.753 52L124.909 50.7598L129.87 51.3845L129.714 52.6247L130.954 52.7808L130.798 54.021L128.317 53.7087L128.473 52.4685L125.993 52.1562L125.837 53.3964L124.597 53.2402L124.128 56.9608L125.368 57.117L125.212 58.3572L127.693 58.6695L127.849 57.4293L130.329 57.7417L130.173 58.9819L128.933 58.8257L128.777 60.0659L123.816 59.4412ZM132.596 60.5469L132.753 59.3067L131.512 59.1505L132.293 52.9495L133.534 53.1057L133.69 51.8655L139.891 52.6463L139.735 53.8865L140.975 54.0427L140.194 60.2437L138.954 60.0876L138.798 61.3278L132.596 60.5469ZM133.993 59.4629L137.713 59.9314L138.494 53.7304L134.774 53.2619L133.993 59.4629ZM141.377 61.6526L142.47 52.9712L144.951 53.2835L144.795 54.5237L146.035 54.6799L145.879 55.9201L147.119 56.0763L146.963 57.3165L148.203 57.4727L148.671 53.752L151.152 54.0644L150.059 62.7458L147.578 62.4335L147.891 59.9531L146.65 59.7969L146.806 58.5567L145.566 58.4005L145.722 57.1603L144.482 57.0041L143.858 61.965L141.377 61.6526ZM155.119 63.383L156.056 55.9418L153.575 55.6294L153.731 54.3892L161.173 55.3263L161.016 56.5665L158.536 56.2541L157.599 63.6954L155.119 63.383ZM161.419 64.1764L162.512 55.4949L169.953 56.432L169.797 57.6722L171.037 57.8283L170.569 61.549L168.088 61.2366L167.932 62.4768L169.172 62.633L169.016 63.8732L170.256 64.0294L170.1 65.2696L166.38 64.8011L166.536 63.5608L165.296 63.4047L165.452 62.1645L164.212 62.0083L163.899 64.4887L161.419 64.1764ZM164.368 60.7681L166.848 61.0804L167.004 59.8402L168.245 59.9964L168.557 57.516L164.836 57.0475L164.368 60.7681ZM172.68 65.5944L172.836 64.3542L171.596 64.198L172.377 57.997L173.617 58.1532L173.773 56.913L179.974 57.6938L179.818 58.934L181.058 59.0902L180.277 65.2912L179.037 65.1351L178.881 66.3753L172.68 65.5944ZM174.076 64.5104L177.797 64.9789L178.578 58.7779L174.857 58.3093L174.076 64.5104ZM182.701 66.8563L183.794 58.1748L186.274 58.4872L185.337 65.9284L190.298 66.5531L190.142 67.7933L182.701 66.8563ZM191.481 67.962L192.575 59.2805L201.256 60.3738L201.1 61.614L194.899 60.8331L194.587 63.3135L199.547 63.9382L199.391 65.1784L194.43 64.5537L194.118 67.0341L200.319 67.815L200.163 69.0552L191.481 67.962Z" fill="#006967"/>
<path d="M121.054 61.3612L201.122 71.4437L201.06 71.9398L120.992 61.8573L121.054 61.3612Z" fill="#006967"/>
<rect x="111.932" y="40.5586" width="104" height="27" transform="rotate(7.17718 111.932 40.5586)" stroke="#006967"/>
<rect x="192.249" y="94.5636" width="124" height="27" transform="rotate(7.84489 192.249 94.5636)" fill="white"/>
<path d="M201.336 113.229L202.531 104.561L209.96 105.585L209.79 106.823L211.028 106.994L210.516 110.708L208.04 110.367L207.869 111.606L209.107 111.776L208.937 113.014L210.175 113.185L210.004 114.423L206.289 113.912L206.46 112.673L205.222 112.503L205.392 111.264L204.154 111.094L203.813 113.57L201.336 113.229ZM204.325 109.855L206.801 110.197L206.972 108.958L208.21 109.129L208.551 106.652L204.837 106.14L204.325 109.855ZM211.342 114.608L212.195 108.416L213.433 108.587L213.604 107.348L214.842 107.519L215.013 106.281L218.728 106.793L218.557 108.031L219.795 108.201L219.625 109.44L220.863 109.61L220.01 115.802L217.533 115.461L217.874 112.984L214.16 112.472L213.818 114.949L211.342 114.608ZM214.33 111.234L218.045 111.746L218.386 109.269L217.148 109.099L217.319 107.86L216.08 107.69L215.91 108.928L214.671 108.757L214.33 111.234ZM223.824 116.327L223.994 115.089L222.756 114.919L222.927 113.68L221.688 113.51L222.2 109.795L223.439 109.965L223.609 108.727L224.848 108.898L225.018 107.659L229.971 108.342L229.801 109.58L231.039 109.751L230.868 110.989L228.392 110.648L228.562 109.409L226.086 109.068L225.915 110.307L224.677 110.136L224.165 113.851L225.403 114.021L225.233 115.26L227.709 115.601L227.88 114.363L230.357 114.704L230.186 115.942L228.948 115.772L228.777 117.01L223.824 116.327ZM232.591 117.535L232.762 116.297L235.238 116.638L236.091 110.447L233.615 110.106L233.785 108.867L241.215 109.891L241.045 111.129L238.568 110.788L237.715 116.98L240.191 117.321L240.021 118.559L232.591 117.535ZM242.596 118.914L242.767 117.676L241.529 117.505L242.382 111.314L243.62 111.484L243.791 110.246L249.982 111.099L249.812 112.337L251.05 112.508L250.197 118.699L248.959 118.529L248.788 119.767L242.596 118.914ZM244.005 117.846L247.72 118.358L248.573 112.167L244.858 111.655L244.005 117.846ZM253.84 120.463L254.011 119.225L252.773 119.054L252.943 117.816L251.705 117.645L252.217 113.93L253.455 114.101L253.626 112.863L254.864 113.033L255.035 111.795L259.988 112.477L259.817 113.716L261.055 113.886L260.885 115.125L258.408 114.783L258.579 113.545L256.102 113.204L255.932 114.442L254.693 114.272L254.181 117.987L255.42 118.157L255.249 119.395L257.726 119.737L257.896 118.498L260.373 118.84L260.202 120.078L258.964 119.907L258.793 121.146L253.84 120.463ZM268.584 114.924L267.346 114.753L267.517 113.515L268.755 113.685L268.584 114.924ZM270.89 116.503L270.72 117.742L268.243 117.4L267.731 121.115L270.208 121.456L270.037 122.695L262.607 121.671L262.778 120.433L265.255 120.774L265.766 117.059L263.29 116.718L263.461 115.48L265.937 115.821L266.108 114.582L267.346 114.753L267.175 115.991L270.89 116.503ZM271.375 122.879L272.569 114.211L275.046 114.552L274.875 115.79L276.113 115.961L275.943 117.199L277.181 117.37L277.01 118.608L278.249 118.779L278.76 115.064L281.237 115.405L280.043 124.073L277.566 123.732L277.907 121.255L276.669 121.085L276.84 119.847L275.601 119.676L275.772 118.438L274.534 118.267L273.851 123.22L271.375 122.879ZM282.618 124.428L282.789 123.19L285.266 123.531L286.119 117.34L283.642 116.998L283.813 115.76L291.243 116.784L291.072 118.022L288.595 117.681L287.742 123.872L290.219 124.214L290.048 125.452L282.618 124.428ZM292.624 125.807L292.794 124.568L291.556 124.398L292.409 118.206L293.648 118.377L293.818 117.139L300.01 117.992L299.839 119.23L301.077 119.401L300.224 125.592L298.986 125.422L298.815 126.66L292.624 125.807ZM294.033 124.739L297.748 125.251L298.601 119.059L294.886 118.548L294.033 124.739Z" fill="#006967"/>
<path d="M201.029 115.458L300.985 129.23L300.917 129.725L200.961 115.953L201.029 115.458Z" fill="#006967"/>
<rect x="192.249" y="94.5636" width="124" height="27" transform="rotate(7.84489 192.249 94.5636)" stroke="#006967"/>
<rect x="149.57" y="81.5281" width="185" height="27" transform="rotate(-8.69221 149.57 81.5281)" fill="white"/>
<path d="M163.792 96.8043L162.469 88.1548L171.119 86.8325L171.308 88.0681L165.13 89.0127L165.507 91.4839L170.45 90.7283L170.639 91.964L165.696 92.7196L166.263 96.4265L163.792 96.8043ZM175.011 95.0891L174.823 93.8534L173.587 94.0423L172.642 87.8641L173.878 87.6752L173.689 86.4395L179.867 85.495L180.056 86.7307L181.292 86.5417L182.236 92.72L181.001 92.9089L181.19 94.1445L175.011 95.0891ZM176.058 93.6645L179.765 93.0978L178.821 86.9196L175.114 87.4863L176.058 93.6645ZM183.76 93.7516L182.437 85.1021L189.851 83.9686L190.04 85.2043L191.276 85.0154L191.843 88.7223L189.371 89.1001L189.56 90.3358L190.796 90.1468L190.985 91.3825L192.22 91.1936L192.409 92.4292L188.702 92.996L188.513 91.7603L187.278 91.9492L187.089 90.7136L185.853 90.9025L186.231 93.3738L183.76 93.7516ZM185.664 89.6668L188.136 89.289L187.947 88.0534L189.182 87.8645L188.805 85.3932L185.098 85.9599L185.664 89.6668ZM201.26 83.489L201.449 84.7246L198.977 85.1025L198.789 83.8668L196.317 84.2446L196.506 85.4803L195.271 85.6692L195.648 88.1405L196.884 87.9516L197.073 89.1872L199.544 88.8094L199.355 87.5737L201.827 87.1959L202.015 88.4316L200.78 88.6205L200.969 89.8561L199.733 90.045L199.922 91.2807L198.686 91.4696L198.497 90.2339L196.026 90.6117L195.837 89.3761L194.602 89.565L194.413 88.3294L193.177 88.5183L192.799 86.047L194.035 85.8581L193.846 84.6224L195.082 84.4335L194.893 83.1979L199.835 82.4423L200.024 83.6779L201.26 83.489ZM196.215 91.8474L198.686 91.4696L198.875 92.7052L196.404 93.083L196.215 91.8474ZM203.728 90.6988L202.783 84.5206L204.019 84.3317L203.83 83.0961L205.066 82.9072L204.877 81.6715L208.584 81.1048L208.773 82.3404L210.008 82.1515L210.197 83.3872L211.433 83.1983L212.377 89.3765L209.906 89.7543L209.528 87.283L205.821 87.8497L206.199 90.321L203.728 90.6988ZM205.632 86.6141L209.339 86.0474L208.961 83.5761L207.726 83.765L207.537 82.5293L206.301 82.7182L206.49 83.9539L205.255 84.1428L205.632 86.6141ZM223.696 87.6461L222.373 78.9966L228.552 78.052L228.741 79.2877L229.976 79.0988L230.165 80.3344L231.401 80.1455L231.967 83.8524L230.732 84.0413L230.921 85.277L229.685 85.4659L229.874 86.7015L223.696 87.6461ZM225.978 86.0326L228.449 85.6548L228.261 84.4192L229.496 84.2303L228.929 80.5233L227.694 80.7122L227.505 79.4766L225.034 79.8544L225.978 86.0326ZM233.68 86.1197L232.357 77.4702L241.007 76.1478L241.196 77.3835L235.018 78.328L235.395 80.7993L240.338 80.0437L240.527 81.2793L235.584 82.035L235.962 84.5062L242.14 83.5617L242.329 84.7973L233.68 86.1197ZM257.355 82.5002L257.166 81.2646L255.93 81.4535L255.741 80.2178L254.506 80.4068L254.317 79.1711L253.081 79.36L252.325 74.4174L254.797 74.0396L255.363 77.7466L256.599 77.5577L256.788 78.7933L258.024 78.6044L257.835 77.3687L259.07 77.1798L258.504 73.4729L260.975 73.0951L261.731 78.0377L260.495 78.2266L260.684 79.4622L259.448 79.6511L259.637 80.8868L258.401 81.0757L258.59 82.3113L257.355 82.5002ZM264.867 81.3517L264.678 80.116L263.443 80.3049L262.498 74.1267L263.734 73.9378L263.545 72.7022L269.723 71.7576L269.912 72.9933L271.148 72.8044L272.092 78.9826L270.857 79.1715L271.046 80.4071L264.867 81.3517ZM265.914 79.9271L269.621 79.3604L268.677 73.1822L264.97 73.7489L265.914 79.9271ZM273.616 80.0142L272.293 71.3647L274.765 70.9869L274.954 72.2225L276.189 72.0336L276.378 73.2693L277.614 73.0803L277.803 74.316L279.038 74.1271L278.472 70.4202L280.943 70.0423L282.265 78.6918L279.794 79.0697L279.416 76.5984L278.181 76.7873L277.992 75.5516L276.756 75.7405L276.567 74.5049L275.331 74.6938L276.087 79.6364L273.616 80.0142ZM287.307 77.9211L286.173 70.5072L283.702 70.8851L283.513 69.6494L290.927 68.516L291.116 69.7516L288.645 70.1294L289.778 77.5433L287.307 77.9211ZM293.584 76.9614L292.639 70.7832L293.875 70.5943L293.686 69.3587L294.922 69.1698L294.733 67.9341L298.44 67.3674L298.629 68.603L299.864 68.4141L300.053 69.6498L301.289 69.4609L302.233 75.6391L299.762 76.0169L299.384 73.5456L295.677 74.1123L296.055 76.5836L293.584 76.9614ZM295.488 72.8767L299.195 72.31L298.817 69.8387L297.582 70.0276L297.393 68.792L296.157 68.9809L296.346 70.2165L295.11 70.4054L295.488 72.8767ZM303.568 75.4351L302.245 66.7856L308.424 65.841L308.612 67.0767L309.848 66.8878L310.037 68.1234L311.273 67.9345L311.839 71.6414L310.604 71.8303L310.793 73.066L309.557 73.2549L309.746 74.4905L303.568 75.4351ZM305.85 73.8216L308.321 73.4438L308.132 72.2081L309.368 72.0192L308.801 68.3123L307.566 68.5012L307.377 67.2656L304.906 67.6434L305.85 73.8216ZM313.552 73.9087L312.229 65.2592L320.879 63.9368L321.068 65.1725L314.89 66.117L315.267 68.5883L320.21 67.8327L320.399 69.0683L315.456 69.8239L315.834 72.2952L322.012 71.3507L322.201 72.5863L313.552 73.9087Z" fill="#006967"/>
<path d="M164.132 99.0285L323.777 74.6216L323.852 75.1158L164.207 99.5228L164.132 99.0285Z" fill="#006967"/>
<rect x="149.57" y="81.5281" width="185" height="27" transform="rotate(-8.69221 149.57 81.5281)" stroke="#006967"/>
<rect x="34.2682" y="101.548" width="145" height="27" transform="rotate(5.7825 34.2682 101.548)" fill="white"/>
<path d="M46.9066 120.166L47.0326 118.922L45.7889 118.796L45.9149 117.552L44.6712 117.426L45.0491 113.695L46.2927 113.821L46.4186 112.578L47.6623 112.704L47.7882 111.46L52.7628 111.964L52.6368 113.208L53.8805 113.333L53.7545 114.577L51.2673 114.325L51.3932 113.082L48.9059 112.83L48.78 114.073L47.5363 113.947L47.1585 117.678L48.4022 117.804L48.2762 119.048L50.7635 119.3L50.8894 118.056L53.3767 118.308L53.2508 119.552L52.0071 119.426L51.8812 120.669L46.9066 120.166ZM55.7116 121.057L55.8375 119.814L54.5939 119.688L55.2236 113.469L56.4672 113.595L56.5932 112.352L62.8114 112.981L62.6854 114.225L63.9291 114.351L63.2994 120.569L62.0557 120.443L61.9298 121.687L55.7116 121.057ZM57.0812 119.94L60.8121 120.317L61.4418 114.099L57.7109 113.721L57.0812 119.94ZM64.5166 121.949L65.3982 113.243L67.8854 113.495L67.7595 114.739L69.0031 114.865L68.8772 116.109L70.1208 116.234L69.9949 117.478L71.2385 117.604L71.6163 113.873L74.1036 114.125L73.222 122.83L70.7348 122.579L70.9866 120.091L69.743 119.965L69.8689 118.722L68.6253 118.596L68.7512 117.352L67.5076 117.226L67.0038 122.201L64.5166 121.949ZM77.0525 123.218L77.1784 121.975L75.9348 121.849L76.0607 120.605L74.8171 120.479L75.1949 116.748L76.4385 116.874L76.5645 115.631L77.8081 115.757L77.934 114.513L82.9086 115.017L82.7827 116.26L84.0263 116.386L83.9004 117.63L81.4131 117.378L81.539 116.134L79.0517 115.882L78.9258 117.126L77.6822 117L77.3043 120.731L78.548 120.857L78.422 122.101L80.9093 122.353L81.0353 121.109L83.5225 121.361L83.3966 122.604L82.153 122.478L82.027 123.722L77.0525 123.218ZM84.6138 123.984L85.4954 115.279L94.2008 116.16L94.0749 117.404L87.8567 116.774L87.6048 119.261L92.5794 119.765L92.4534 121.009L87.4789 120.505L87.227 122.992L93.4452 123.622L93.3193 124.866L84.6138 123.984ZM94.6624 125.002L95.544 116.296L98.0313 116.548L97.9053 117.792L99.1489 117.918L99.023 119.161L100.267 119.287L100.141 120.531L101.384 120.657L101.762 116.926L104.249 117.178L103.368 125.883L100.881 125.631L101.132 123.144L99.8888 123.018L100.015 121.775L98.7711 121.649L98.8971 120.405L97.6534 120.279L97.1497 125.254L94.6624 125.002ZM108.442 126.397L109.198 118.935L106.71 118.683L106.836 117.44L114.298 118.195L114.172 119.439L111.685 119.187L110.929 126.649L108.442 126.397ZM114.76 127.037L115.641 118.331L123.103 119.087L122.977 120.331L124.221 120.457L123.843 124.188L121.356 123.936L121.23 125.179L122.473 125.305L122.347 126.549L123.591 126.675L123.465 127.918L119.734 127.541L119.86 126.297L118.616 126.171L118.742 124.927L117.499 124.801L117.247 127.289L114.76 127.037ZM117.625 123.558L120.112 123.81L120.238 122.566L121.482 122.692L121.733 120.205L118.003 119.827L117.625 123.558ZM124.808 128.054L125.438 121.836L126.682 121.962L126.807 120.719L128.051 120.845L128.177 119.601L131.908 119.979L131.782 121.222L133.026 121.348L132.9 122.592L134.143 122.718L133.514 128.936L131.026 128.684L131.278 126.197L127.547 125.819L127.295 128.306L124.808 128.054ZM127.673 124.575L131.404 124.953L131.656 122.466L130.412 122.34L130.538 121.096L129.295 120.97L129.169 122.214L127.925 122.088L127.673 124.575ZM144.318 122.492L144.192 123.735L141.705 123.484L141.831 122.24L139.343 121.988L139.217 123.232L137.974 123.106L137.722 125.593L138.966 125.719L138.84 126.963L141.327 127.215L141.453 125.971L143.94 126.223L143.814 127.466L142.571 127.34L142.445 128.584L141.201 128.458L141.075 129.702L139.831 129.576L139.957 128.332L137.47 128.08L137.596 126.837L136.352 126.711L136.478 125.467L135.235 125.341L135.487 122.854L136.73 122.98L136.856 121.736L138.1 121.862L138.226 120.618L143.2 121.122L143.074 122.366L144.318 122.492ZM137.344 129.324L139.831 129.576L139.705 130.819L137.218 130.568L137.344 129.324ZM153.989 127.24L153.611 130.971L151.124 130.719L151.25 129.476L147.519 129.098L147.393 130.342L144.905 130.09L145.283 126.359L146.527 126.485L146.653 125.241L147.896 125.367L148.022 124.123L149.266 124.249L149.392 123.006L148.148 122.88L148.274 121.636L150.762 121.888L150.636 123.132L151.879 123.258L151.627 125.745L152.871 125.871L152.745 127.114L153.989 127.24ZM153.123 123.384L151.879 123.258L152.005 122.014L153.249 122.14L153.123 123.384ZM148.148 122.88L148.022 124.123L146.779 123.997L146.905 122.754L148.148 122.88ZM151.501 126.988L150.258 126.863L150.384 125.619L149.14 125.493L149.014 126.737L147.771 126.611L147.645 127.854L151.375 128.232L151.501 126.988ZM156.198 131.233L156.324 129.99L155.08 129.864L155.71 123.645L156.953 123.771L157.079 122.528L163.297 123.157L163.172 124.401L164.415 124.527L163.785 130.745L162.542 130.619L162.416 131.863L156.198 131.233ZM157.567 130.116L161.298 130.493L161.928 124.275L158.197 123.897L157.567 130.116Z" fill="#006967"/>
<path d="M44.1927 122.152L164.676 134.353L164.626 134.851L44.1423 122.65L44.1927 122.152Z" fill="#006967"/>
<rect x="34.2682" y="101.548" width="145" height="27" transform="rotate(5.7825 34.2682 101.548)" stroke="#006967"/>
<rect x="160.5" y="149.5" width="145" height="27" fill="white"/>
<path d="M172.45 166.75V158H179.95V159.25H181.2V163H179.95V164.25H174.95V166.75H172.45ZM174.95 163H178.7V159.25H174.95V163ZM183.8 166.75V158H186.3V165.5H191.3V166.75H183.8ZM192.65 166.75V160.5H193.9V159.25H195.15V158H198.9V159.25H200.15V160.5H201.4V166.75H198.9V164.25H195.15V166.75H192.65ZM195.15 163H198.9V160.5H197.65V159.25H196.4V160.5H195.15V163ZM202.75 166.75V158H205.25V159.25H206.5V160.5H207.75V161.75H209V158H211.5V166.75H209V164.25H207.75V163H206.5V161.75H205.25V166.75H202.75ZM212.85 166.75V158H221.6V159.25H215.35V161.75H220.35V163H215.35V165.5H221.6V166.75H212.85ZM224.2 166.75V165.5H222.95V164.25H225.45V165.5H229.2V158H231.7V165.5H230.45V166.75H224.2ZM233.05 166.75V160.5H234.3V159.25H235.55V158H239.3V159.25H240.55V160.5H241.8V166.75H239.3V164.25H235.55V166.75H233.05ZM235.55 163H239.3V160.5H238.05V159.25H236.8V160.5H235.55V163ZM243.15 166.75V158H245.65V159.25H246.9V160.5H248.15V159.25H249.4V158H251.9V166.75H249.4V161.75H248.15V164.25H246.9V161.75H245.65V166.75H243.15ZM253.25 166.75V158H262V159.25H255.75V161.75H260.75V163H255.75V165.5H262V166.75H253.25ZM263.35 166.75V158H265.85V159.25H267.1V160.5H268.35V161.75H269.6V158H272.1V166.75H269.6V164.25H268.35V163H267.1V161.75H265.85V166.75H263.35ZM277.2 166.75V159.25H274.7V158H282.2V159.25H279.7V166.75H277.2ZM284.8 166.75V165.5H283.55V159.25H284.8V158H291.05V159.25H292.3V165.5H291.05V166.75H284.8ZM286.05 165.5H289.8V159.25H286.05V165.5Z" fill="#006967"/>
<path d="M172.45 169H293.55V169.5H172.45V169Z" fill="#006967"/>
<rect x="160.5" y="149.5" width="145" height="27" stroke="#006967"/>
<rect x="144.323" y="209.565" width="145" height="27" transform="rotate(8.00151 144.323 209.565)" fill="white"/>
<path d="M153.756 228.31L154.974 219.646L162.401 220.69L162.227 221.928L163.464 222.102L162.942 225.815L161.705 225.641L161.531 226.879L156.579 226.183L156.231 228.658L153.756 228.31ZM156.753 224.945L160.467 225.467L160.989 221.754L157.275 221.232L156.753 224.945ZM163.757 229.716L164.975 221.052L173.64 222.27L173.466 223.507L167.277 222.637L166.929 225.113L171.88 225.809L171.706 227.047L166.755 226.351L166.407 228.827L172.596 229.697L172.422 230.934L163.757 229.716ZM173.759 231.122L174.977 222.458L182.404 223.501L182.23 224.739L183.468 224.913L182.946 228.627L180.47 228.279L180.296 229.517L181.534 229.691L181.36 230.928L182.598 231.102L182.424 232.34L178.71 231.818L178.884 230.58L177.646 230.406L177.82 229.169L176.583 228.995L176.235 231.47L173.759 231.122ZM176.757 227.757L179.232 228.105L179.406 226.867L180.644 227.041L180.992 224.565L177.279 224.043L176.757 227.757ZM184.998 232.702L185.172 231.464L183.935 231.29L184.109 230.053L186.584 230.401L186.41 231.638L190.124 232.16L190.472 229.685L185.52 228.989L185.694 227.751L184.457 227.577L184.805 225.101L186.042 225.275L186.216 224.037L192.406 224.907L192.232 226.145L193.469 226.319L193.295 227.557L190.82 227.209L190.994 225.971L187.28 225.449L186.932 227.925L191.884 228.621L191.71 229.859L192.947 230.033L192.599 232.508L191.362 232.334L191.188 233.572L184.998 232.702ZM193.762 233.934L194.98 225.269L203.645 226.487L203.471 227.725L197.282 226.855L196.934 229.331L201.885 230.027L201.711 231.265L196.76 230.569L196.412 233.044L202.601 233.914L202.427 235.152L193.762 233.934ZM207.477 235.862L207.651 234.624L206.414 234.45L206.588 233.212L205.35 233.038L205.524 231.801L204.286 231.627L204.982 226.675L207.458 227.023L206.936 230.737L208.173 230.911L207.999 232.149L209.237 232.323L209.411 231.085L210.649 231.259L211.171 227.545L213.647 227.893L212.951 232.845L211.713 232.671L211.539 233.908L210.301 233.734L210.127 234.972L208.889 234.798L208.715 236.036L207.477 235.862ZM213.766 236.746L214.984 228.081L223.648 229.299L223.474 230.537L217.285 229.667L216.937 232.143L221.889 232.839L221.715 234.076L216.763 233.38L216.415 235.856L222.604 236.726L222.43 237.964L213.766 236.746ZM223.767 238.152L224.985 229.487L232.412 230.531L232.238 231.769L233.476 231.943L232.954 235.656L230.478 235.308L230.304 236.546L231.542 236.72L231.368 237.958L232.606 238.132L232.432 239.37L228.719 238.848L228.893 237.61L227.655 237.436L227.829 236.198L226.591 236.024L226.243 238.5L223.767 238.152ZM226.765 234.786L229.241 235.134L229.415 233.897L230.652 234.071L231 231.595L227.287 231.073L226.765 234.786ZM233.769 239.558L234.639 233.369L235.877 233.543L236.051 232.305L237.289 232.479L237.463 231.241L241.176 231.763L241.002 233.001L242.24 233.175L242.066 234.413L243.304 234.587L242.434 240.776L239.958 240.428L240.306 237.952L236.593 237.43L236.245 239.906L233.769 239.558ZM236.767 236.192L240.48 236.714L240.828 234.239L239.59 234.065L239.764 232.827L238.526 232.653L238.352 233.891L237.115 233.717L236.767 236.192ZM243.771 240.964L244.989 232.299L247.464 232.647L247.29 233.885L248.528 234.059L248.354 235.297L249.592 235.471L249.418 236.708L250.656 236.882L251.178 233.169L253.653 233.517L252.435 242.182L249.96 241.834L250.308 239.358L249.07 239.184L249.244 237.946L248.006 237.772L248.18 236.534L246.942 236.36L246.246 241.312L243.771 240.964ZM263.481 236.161L263.307 237.398L260.831 237.05L261.005 235.813L258.53 235.465L258.356 236.702L257.118 236.528L256.77 239.004L258.008 239.178L257.834 240.416L260.309 240.764L260.483 239.526L262.959 239.874L262.785 241.112L261.547 240.938L261.373 242.176L260.135 242.002L259.961 243.24L258.724 243.066L258.898 241.828L256.422 241.48L256.596 240.242L255.358 240.068L255.532 238.83L254.294 238.656L254.642 236.18L255.88 236.354L256.054 235.117L257.292 235.291L257.466 234.053L262.417 234.749L262.243 235.987L263.481 236.161ZM256.248 242.718L258.724 243.066L258.55 244.303L256.074 243.955L256.248 242.718ZM263.774 243.776L264.644 237.586L265.882 237.76L266.056 236.523L267.294 236.697L267.468 235.459L271.181 235.981L271.007 237.219L272.245 237.393L272.071 238.63L273.309 238.804L272.439 244.994L269.963 244.646L270.311 242.17L266.598 241.648L266.25 244.124L263.774 243.776ZM266.772 240.41L270.485 240.932L270.833 238.456L269.595 238.282L269.769 237.045L268.531 236.871L268.357 238.108L267.12 237.934L266.772 240.41Z" fill="#006967"/>
<path d="M153.442 230.539L273.363 247.396L273.294 247.891L153.373 231.034L153.442 230.539Z" fill="#006967"/>
<rect x="144.323" y="209.565" width="145" height="27" transform="rotate(8.00151 144.323 209.565)" stroke="#006967"/>
<rect x="183.579" y="194.817" width="134" height="27" transform="rotate(-9.98657 183.579 194.817)" fill="white"/>
<path d="M200.358 209.378L200.142 208.147L198.911 208.363L198.694 207.132L197.463 207.349L196.812 203.656L198.044 203.439L197.827 202.208L199.058 201.991L198.841 200.76L203.765 199.893L203.982 201.124L205.213 200.907L205.43 202.139L202.968 202.572L202.751 201.341L200.289 201.775L200.506 203.006L199.275 203.222L199.925 206.916L201.156 206.699L201.373 207.93L203.835 207.496L203.618 206.265L206.08 205.832L206.297 207.063L205.066 207.28L205.283 208.511L200.358 209.378ZM209.074 207.843L208.858 206.612L207.627 206.829L206.543 200.673L207.774 200.457L207.557 199.226L213.712 198.142L213.929 199.373L215.16 199.156L216.244 205.311L215.013 205.528L215.23 206.759L209.074 207.843ZM210.089 206.395L213.782 205.745L212.698 199.59L209.005 200.24L210.089 206.395ZM219.021 206.091L217.504 197.474L219.966 197.04L221.267 204.427L226.191 203.56L226.408 204.791L219.021 206.091ZM227.737 204.557L226.653 198.401L227.884 198.185L227.668 196.954L228.899 196.737L228.682 195.506L232.375 194.855L232.592 196.086L233.823 195.87L234.04 197.101L235.271 196.884L236.355 203.039L233.893 203.473L233.459 201.011L229.766 201.661L230.199 204.123L227.737 204.557ZM229.549 200.43L233.242 199.78L232.809 197.318L231.578 197.534L231.361 196.303L230.13 196.52L230.347 197.751L229.116 197.968L229.549 200.43ZM237.684 202.805L236.167 194.188L243.553 192.887L243.77 194.118L245.001 193.901L245.435 196.364L244.203 196.58L244.42 197.811L245.651 197.595L246.085 200.057L244.854 200.274L245.071 201.505L237.684 202.805ZM239.279 197.447L242.972 196.797L242.539 194.335L238.846 194.985L239.279 197.447ZM239.93 201.141L243.623 200.49L243.189 198.028L239.496 198.678L239.93 201.141ZM248.862 200.837L248.645 199.606L247.414 199.823L246.331 193.667L247.562 193.451L247.345 192.219L253.5 191.136L253.717 192.367L254.948 192.15L256.032 198.305L254.801 198.522L255.018 199.753L248.862 200.837ZM249.877 199.389L253.57 198.739L252.486 192.583L248.793 193.234L249.877 199.389ZM257.578 199.302L256.061 190.685L263.447 189.384L263.664 190.615L264.895 190.398L265.545 194.092L263.083 194.525L263.3 195.756L264.531 195.539L264.748 196.77L265.979 196.554L266.196 197.785L262.502 198.435L262.286 197.204L261.055 197.421L260.838 196.19L259.607 196.407L260.04 198.869L257.578 199.302ZM259.39 195.175L261.852 194.742L261.635 193.511L262.866 193.294L262.433 190.832L258.74 191.482L259.39 195.175ZM267.525 197.551L266.441 191.395L267.672 191.179L267.456 189.948L268.687 189.731L268.47 188.5L272.163 187.849L272.38 189.08L273.611 188.864L273.828 190.095L275.059 189.878L276.143 196.033L273.68 196.467L273.247 194.005L269.554 194.655L269.987 197.117L267.525 197.551ZM269.337 193.424L273.03 192.774L272.597 190.311L271.366 190.528L271.149 189.297L269.918 189.514L270.134 190.745L268.903 190.962L269.337 193.424ZM284.789 186.895L285.006 188.126L282.544 188.56L282.327 187.329L279.865 187.762L280.081 188.994L278.85 189.21L279.284 191.672L280.515 191.456L280.732 192.687L283.194 192.253L282.977 191.022L285.439 190.589L285.656 191.82L284.425 192.036L284.642 193.267L283.411 193.484L283.627 194.715L282.396 194.932L282.18 193.701L279.717 194.135L279.501 192.903L278.27 193.12L278.053 191.889L276.822 192.106L276.388 189.644L277.619 189.427L277.403 188.196L278.634 187.979L278.417 186.748L283.341 185.881L283.558 187.112L284.789 186.895ZM279.934 195.366L282.396 194.932L282.613 196.163L280.151 196.597L279.934 195.366ZM295.386 188.837L296.036 192.53L293.574 192.964L293.358 191.733L289.664 192.383L289.881 193.614L287.419 194.048L286.769 190.354L288 190.138L287.783 188.907L289.014 188.69L288.797 187.459L290.028 187.242L289.812 186.011L288.581 186.228L288.364 184.997L290.826 184.563L291.043 185.794L292.274 185.577L292.707 188.04L293.938 187.823L294.155 189.054L295.386 188.837ZM293.505 185.361L292.274 185.577L292.057 184.346L293.288 184.13L293.505 185.361ZM288.581 186.228L288.797 187.459L287.566 187.676L287.349 186.444L288.581 186.228ZM292.924 189.271L291.693 189.487L291.476 188.256L290.245 188.473L290.462 189.704L289.231 189.921L289.448 191.152L293.141 190.502L292.924 189.271ZM298.597 192.079L298.38 190.848L297.149 191.065L296.065 184.91L297.296 184.693L297.08 183.462L303.235 182.378L303.452 183.609L304.683 183.392L305.767 189.548L304.536 189.764L304.752 190.995L298.597 192.079ZM299.611 190.632L303.305 189.981L302.221 183.826L298.528 184.476L299.611 190.632Z" fill="#006967"/>
<path d="M198.287 212.027L307.605 192.778L307.691 193.27L198.373 212.52L198.287 212.027Z" fill="#006967"/>
<rect x="183.579" y="194.817" width="134" height="27" transform="rotate(-9.98657 183.579 194.817)" stroke="#006967"/>
<rect x="145.399" y="279.533" width="104" height="27" transform="rotate(3.96293 145.399 279.533)" fill="white"/>
<path d="M158.323 297.72L158.41 296.473L157.163 296.387L157.249 295.14L156.002 295.054L156.261 291.313L157.508 291.399L157.595 290.152L158.842 290.238L158.928 288.991L163.916 289.337L163.83 290.584L165.077 290.67L164.99 291.917L162.496 291.744L162.583 290.497L160.089 290.325L160.002 291.572L158.755 291.485L158.496 295.226L159.743 295.313L159.657 296.56L162.151 296.733L162.237 295.486L164.731 295.658L164.645 296.905L163.398 296.819L163.311 298.066L158.323 297.72ZM167.152 298.332L167.239 297.085L169.733 297.258L170.165 291.023L167.671 290.85L167.757 289.603L175.239 290.121L175.153 291.368L172.659 291.195L172.227 297.431L174.721 297.603L174.634 298.85L167.152 298.332ZM175.981 298.944L176.413 292.709L177.66 292.795L177.746 291.548L178.993 291.634L179.08 290.387L182.821 290.647L182.734 291.894L183.981 291.98L183.895 293.227L185.142 293.313L185.056 294.56L178.821 294.128L178.734 295.375L183.722 295.721L183.636 296.968L178.648 296.622L178.561 297.869L184.797 298.301L184.71 299.548L175.981 298.944ZM180.154 292.968L181.401 293.054L181.487 291.807L180.24 291.721L180.154 292.968ZM186.057 299.642L186.662 290.913L189.156 291.085L189.069 292.332L190.316 292.419L190.23 293.666L191.477 293.752L191.39 294.999L192.638 295.086L192.897 291.345L195.391 291.517L194.786 300.246L192.292 300.074L192.465 297.58L191.218 297.493L191.304 296.246L190.057 296.16L190.143 294.913L188.896 294.826L188.551 299.814L186.057 299.642ZM198.627 300.512L198.713 299.265L197.466 299.179L197.553 297.932L196.306 297.846L196.565 294.105L197.812 294.191L197.898 292.944L199.145 293.03L199.231 291.783L204.22 292.129L204.133 293.376L205.38 293.462L205.294 294.709L202.8 294.537L202.886 293.29L200.392 293.117L200.306 294.364L199.059 294.277L198.8 298.018L200.047 298.105L199.96 299.352L202.454 299.525L202.541 298.278L205.035 298.45L204.948 299.697L203.701 299.611L203.615 300.858L198.627 300.512ZM207.456 301.124L207.542 299.877L210.036 300.05L210.468 293.815L207.974 293.642L208.06 292.395L215.542 292.913L215.456 294.16L212.962 293.988L212.53 300.223L215.024 300.395L214.938 301.642L207.456 301.124ZM216.284 301.736L216.716 295.501L217.963 295.587L218.05 294.34L219.297 294.426L219.383 293.179L223.124 293.439L223.038 294.686L224.285 294.772L224.198 296.019L225.445 296.105L225.014 302.34L222.519 302.168L222.692 299.674L218.951 299.414L218.778 301.909L216.284 301.736ZM219.038 298.167L222.779 298.427L222.951 295.933L221.704 295.846L221.791 294.599L220.544 294.513L220.457 295.76L219.21 295.673L219.038 298.167ZM227.607 302.52L227.694 301.273L226.447 301.187L226.533 299.94L229.027 300.113L228.941 301.36L232.682 301.619L232.855 299.125L227.866 298.779L227.953 297.532L226.706 297.446L226.879 294.952L228.126 295.038L228.212 293.791L234.447 294.223L234.361 295.47L235.608 295.556L235.521 296.803L233.027 296.631L233.114 295.384L229.373 295.124L229.2 297.618L234.188 297.964L234.102 299.211L235.349 299.297L235.176 301.791L233.929 301.705L233.842 302.952L227.607 302.52Z" fill="#006967"/>
<path d="M155.674 299.792L236.181 305.369L236.146 305.868L155.639 300.291L155.674 299.792Z" fill="#006967"/>
<rect x="145.399" y="279.533" width="104" height="27" transform="rotate(3.96293 145.399 279.533)" stroke="#006967"/>
<rect x="42.7756" y="141.556" width="124" height="27" transform="rotate(6.8485 42.7756 141.556)" fill="white"/>
<path d="M52.1863 160.06L53.2297 151.373L61.9172 152.416L61.7682 153.657L55.5628 152.912L55.2646 155.394L60.229 155.99L60.0799 157.232L55.1156 156.635L54.8175 159.117L61.0229 159.863L60.8738 161.104L52.1863 160.06ZM63.4553 161.414L63.6043 160.173L62.3633 160.024L62.5123 158.783L64.9945 159.081L64.8454 160.322L68.5687 160.769L68.8668 158.287L63.9024 157.691L64.0515 156.45L62.8104 156.3L63.1085 153.818L64.3496 153.967L64.4987 152.726L70.7041 153.472L70.555 154.713L71.7961 154.862L71.647 156.103L69.1649 155.805L69.3139 154.564L65.5907 154.116L65.2926 156.599L70.2569 157.195L70.1079 158.436L71.3489 158.585L71.0508 161.067L69.8097 160.918L69.6607 162.159L63.4553 161.414ZM75.9654 162.916L76.8597 155.47L74.3776 155.172L74.5266 153.931L81.9731 154.825L81.824 156.066L79.3419 155.768L78.4475 163.214L75.9654 162.916ZM82.2701 163.674L83.3135 154.986L90.7599 155.88L90.6109 157.121L91.852 157.27L91.4048 160.994L88.9226 160.696L88.7736 161.937L90.0147 162.086L89.8656 163.327L91.1067 163.476L90.9576 164.717L87.2344 164.27L87.3835 163.029L86.1424 162.88L86.2914 161.639L85.0503 161.489L84.7522 163.972L82.2701 163.674ZM85.1994 160.248L87.6816 160.547L87.8306 159.305L89.0717 159.454L89.3698 156.972L85.6466 156.525L85.1994 160.248ZM92.298 164.878L93.0433 158.672L94.2844 158.822L94.4334 157.58L95.6745 157.73L95.8236 156.488L99.5468 156.936L99.3977 158.177L100.639 158.326L100.49 159.567L101.731 159.716L100.986 165.921L98.5034 165.623L98.8015 163.141L95.0783 162.694L94.7802 165.176L92.298 164.878ZM95.2273 161.453L98.9506 161.9L99.2487 159.418L98.0076 159.269L98.1567 158.028L96.9156 157.879L96.7665 159.12L95.5254 158.971L95.2273 161.453ZM106.049 166.529L106.944 159.083L104.461 158.785L104.61 157.544L112.057 158.438L111.908 159.679L109.426 159.381L108.531 166.828L106.049 166.529ZM119.454 160.585L118.213 160.436L118.362 159.195L119.603 159.344L119.454 160.585ZM121.787 162.125L121.638 163.366L115.432 162.62L115.283 163.861L120.248 164.458L120.098 165.699L115.134 165.103L114.985 166.344L121.191 167.089L121.041 168.33L112.354 167.287L113.099 161.081L116.822 161.528L116.971 160.287L118.213 160.436L118.063 161.677L121.787 162.125ZM124.864 168.789L125.013 167.548L123.772 167.399L123.921 166.158L122.68 166.009L123.127 162.286L124.368 162.435L124.517 161.194L125.758 161.343L125.907 160.102L132.113 160.847L131.964 162.088L126.999 161.492L126.85 162.733L125.609 162.584L125.162 166.307L126.403 166.456L126.254 167.697L128.736 167.995L129.034 165.513L127.793 165.364L127.942 164.123L131.666 164.57L131.069 169.534L124.864 168.789ZM133.651 169.844L133.8 168.603L136.282 168.901L137.027 162.696L134.545 162.398L134.694 161.157L142.141 162.051L141.992 163.292L139.509 162.994L138.764 169.2L141.246 169.498L141.097 170.739L133.651 169.844ZM142.438 170.9L143.183 164.694L144.424 164.843L144.573 163.602L145.814 163.751L145.963 162.51L149.686 162.957L149.537 164.199L150.779 164.348L150.629 165.589L151.871 165.738L151.125 171.943L148.643 171.645L148.941 169.163L145.218 168.716L144.92 171.198L142.438 170.9ZM145.367 167.475L149.09 167.922L149.388 165.44L148.147 165.291L148.296 164.049L147.055 163.9L146.906 165.141L145.665 164.992L145.367 167.475Z" fill="#006967"/>
<path d="M51.918 162.294L152.098 174.326L152.038 174.823L51.8583 162.791L51.918 162.294Z" fill="#006967"/>
<rect x="42.7756" y="141.556" width="124" height="27" transform="rotate(6.8485 42.7756 141.556)" stroke="#006967"/>
<rect x="7.54691" y="186.785" width="124" height="27" transform="rotate(-5.66392 7.54691 186.785)" fill="white"/>
<path d="M24.4747 202.441L23.7345 194.977L21.2467 195.224L21.1233 193.98L28.5867 193.24L28.7101 194.484L26.2223 194.731L26.9625 202.194L24.4747 202.441ZM32.0376 201.691L31.9142 200.447L30.6703 200.57L30.0535 194.351L31.2974 194.227L31.174 192.983L37.3935 192.366L37.5168 193.61L38.7607 193.487L39.3776 199.706L38.1337 199.83L38.257 201.074L32.0376 201.691ZM33.1581 200.323L36.8898 199.953L36.2729 193.734L32.5413 194.104L33.1581 200.323ZM42.0882 200.694L41.2247 191.986L43.7125 191.74L44.4527 199.203L49.4283 198.71L49.5516 199.954L42.0882 200.694ZM50.895 199.82L50.0315 191.113L58.7388 190.249L58.8621 191.493L52.6426 192.11L52.8894 194.598L57.865 194.105L57.9883 195.348L53.0127 195.842L53.2595 198.33L59.479 197.713L59.6023 198.957L50.895 199.82ZM60.9457 198.824L60.0822 190.116L67.5456 189.376L67.6689 190.62L68.9128 190.497L69.2829 194.228L66.7951 194.475L66.9185 195.719L68.1624 195.596L68.2858 196.839L69.5297 196.716L69.653 197.96L65.9213 198.33L65.798 197.086L64.5541 197.21L64.4307 195.966L63.1868 196.089L63.4335 198.577L60.9457 198.824ZM63.0634 194.845L65.5512 194.598L65.4279 193.354L66.6718 193.231L66.425 190.743L62.6933 191.113L63.0634 194.845ZM70.9964 197.827L70.6263 194.095L71.8702 193.972L71.7469 192.728L72.9908 192.604L72.8674 191.361L71.6235 191.484L71.5001 190.24L72.744 190.117L72.6207 188.873L76.3523 188.503L76.4757 189.747L77.7196 189.623L77.843 190.867L76.5991 190.99L76.7224 192.234L77.9663 192.111L78.0897 193.355L79.3336 193.231L79.7037 196.963L77.2159 197.21L77.0925 195.966L73.3609 196.336L73.4842 197.58L70.9964 197.827ZM74.1113 191.237L75.3552 191.114L75.2318 189.87L73.9879 189.993L74.1113 191.237ZM73.2375 195.092L76.9692 194.722L76.8458 193.478L75.6019 193.602L75.4785 192.358L74.2347 192.481L74.358 193.725L73.1141 193.848L73.2375 195.092ZM81.0471 196.83L80.1835 188.123L82.6713 187.876L82.7947 189.12L84.0386 188.996L84.162 190.24L85.4059 190.117L85.5292 191.361L86.7731 191.238L86.403 187.506L88.8908 187.259L89.7544 195.966L87.2666 196.213L87.0199 193.725L85.776 193.849L85.6526 192.605L84.4087 192.728L84.2853 191.484L83.0414 191.608L83.5349 196.583L81.0471 196.83ZM93.5856 195.586L93.4622 194.343L92.2183 194.466L92.095 193.222L90.8511 193.345L90.481 189.614L91.7249 189.49L91.6015 188.246L92.8454 188.123L92.722 186.879L97.6976 186.386L97.821 187.63L99.0649 187.506L99.1883 188.75L96.7005 188.997L96.5771 187.753L94.0893 188L94.2127 189.244L92.9688 189.367L93.3389 193.099L94.5828 192.975L94.7061 194.219L97.1939 193.972L97.0706 192.729L99.5584 192.482L99.6817 193.726L98.4378 193.849L98.5612 195.093L93.5856 195.586ZM102.392 194.713L102.269 193.469L104.757 193.222L104.14 187.003L101.652 187.25L101.529 186.006L108.992 185.265L109.116 186.509L106.628 186.756L107.245 192.976L109.732 192.729L109.856 193.973L102.392 194.713ZM111.199 193.84L110.582 187.62L111.826 187.497L111.703 186.253L112.947 186.129L112.823 184.886L116.555 184.515L116.678 185.759L117.922 185.636L118.046 186.88L119.29 186.756L119.906 192.976L117.419 193.223L117.172 190.735L113.44 191.105L113.687 193.593L111.199 193.84ZM113.317 189.861L117.049 189.491L116.802 187.003L115.558 187.127L115.435 185.883L114.191 186.006L114.314 187.25L113.07 187.373L113.317 189.861Z" fill="#006967"/>
<path d="M20.965 205.05L121.372 195.092L121.422 195.589L21.0144 205.547L20.965 205.05Z" fill="#006967"/>
<rect x="7.54691" y="186.785" width="124" height="27" transform="rotate(-5.66392 7.54691 186.785)" stroke="#006967"/>
<rect x="54.972" y="219.543" width="94" height="27" transform="rotate(5.1616 54.972 219.543)" fill="white"/>
<path d="M66.3176 237.888L66.4301 236.643L68.9199 236.868L69.4822 230.643L66.9923 230.418L67.1048 229.173L74.5744 229.848L74.4619 231.093L71.9721 230.868L71.4098 237.093L73.8996 237.318L73.7872 238.563L66.3176 237.888ZM75.1317 238.684L75.9189 229.969L82.1436 230.532L82.0311 231.777L83.276 231.889L83.1636 233.134L84.4085 233.247L84.0711 236.981L82.8262 236.869L82.7138 238.114L81.4688 238.001L81.3564 239.246L75.1317 238.684ZM77.734 237.664L80.2239 237.889L80.3364 236.644L81.5813 236.756L81.9187 233.022L80.6737 232.909L80.7862 231.664L78.2963 231.439L77.734 237.664ZM86.4357 239.705L86.5481 238.46L89.038 238.685L89.6003 232.46L87.1104 232.235L87.2229 230.991L94.6925 231.665L94.58 232.91L92.0902 232.685L91.5279 238.91L94.0177 239.135L93.9053 240.38L86.4357 239.705ZM96.4947 240.614L96.6072 239.369L95.3623 239.256L95.9245 233.032L97.1695 233.144L97.2819 231.899L103.507 232.461L103.394 233.706L104.639 233.819L104.077 240.044L102.832 239.931L102.719 241.176L96.4947 240.614ZM97.8521 239.481L101.587 239.819L102.149 233.594L98.4144 233.257L97.8521 239.481ZM105.309 241.41L106.096 232.695L108.586 232.92L108.473 234.165L109.718 234.278L109.606 235.523L110.851 235.635L110.963 234.39L112.208 234.503L112.321 233.258L114.811 233.483L114.023 242.197L111.534 241.972L111.983 236.992L110.738 236.88L110.513 239.37L109.269 239.257L109.493 236.768L108.249 236.655L107.799 241.635L105.309 241.41ZM115.368 242.319L115.93 236.094L117.175 236.206L117.288 234.961L118.532 235.074L118.645 233.829L122.38 234.166L122.267 235.411L123.512 235.524L123.4 236.769L124.645 236.881L124.082 243.106L121.593 242.881L121.817 240.391L118.083 240.054L117.858 242.543L115.368 242.319ZM118.195 238.809L121.93 239.146L122.155 236.656L120.91 236.544L121.022 235.299L119.777 235.186L119.665 236.431L118.42 236.319L118.195 238.809ZM126.672 243.34L126.784 242.095L125.539 241.982L125.652 240.737L128.142 240.962L128.029 242.207L131.764 242.545L131.989 240.055L127.009 239.605L127.122 238.36L125.877 238.247L126.102 235.758L127.347 235.87L127.459 234.625L133.684 235.187L133.571 236.432L134.816 236.545L134.704 237.79L132.214 237.565L132.326 236.32L128.592 235.983L128.367 238.472L133.346 238.922L133.234 240.167L134.479 240.28L134.254 242.769L133.009 242.657L132.897 243.902L126.672 243.34Z" fill="#006967"/>
<path d="M64.8702 240.016L135.184 246.368L135.139 246.866L64.8253 240.514L64.8702 240.016Z" fill="#006967"/>
<rect x="54.972" y="219.543" width="94" height="27" transform="rotate(5.1616 54.972 219.543)" stroke="#006967"/>
<rect x="30.5673" y="266.68" width="104" height="27" transform="rotate(-8.35522 30.5673 266.68)" fill="white"/>
<path d="M44.6003 282.053L43.3288 273.396L45.8023 273.033L46.3472 276.743L50.0574 276.198L49.5125 272.488L51.986 272.125L53.2574 280.782L50.784 281.145L50.2391 277.435L46.5289 277.98L47.0738 281.69L44.6003 282.053ZM55.8298 280.404L55.6482 279.167L58.1217 278.804L57.2135 272.62L54.74 272.984L54.5584 271.747L61.9788 270.657L62.1604 271.894L59.6869 272.257L60.5951 278.441L63.0686 278.078L63.2502 279.314L55.8298 280.404ZM65.8226 278.937L65.641 277.7L64.4043 277.881L64.2226 276.645L66.6961 276.281L66.8777 277.518L70.5879 276.973L70.2247 274.5L65.2777 275.226L65.0961 273.99L63.8594 274.171L63.4961 271.698L64.7328 271.516L64.5512 270.279L70.7348 269.371L70.9165 270.608L72.1532 270.426L72.3349 271.663L69.8614 272.026L69.6797 270.79L65.9695 271.334L66.3328 273.808L71.2798 273.081L71.4614 274.318L72.6981 274.137L73.0614 276.61L71.8247 276.792L72.0063 278.028L65.8226 278.937ZM78.2889 277.106L77.1991 269.685L74.7256 270.049L74.544 268.812L81.9644 267.722L82.146 268.959L79.6725 269.322L80.7624 276.742L78.2889 277.106ZM89.6654 267.854L88.4286 268.036L88.247 266.799L89.4837 266.618L89.6654 267.854ZM92.5021 269.965L93.047 273.675L91.8103 273.856L91.9919 275.093L85.8082 276.001L85.6266 274.765L84.3899 274.946L83.845 271.236L85.0817 271.054L84.9001 269.818L87.3735 269.454L87.1919 268.218L88.4286 268.036L88.6103 269.273L91.0837 268.909L91.2654 270.146L92.5021 269.965ZM90.0286 270.328L86.3184 270.873L86.8633 274.583L90.5735 274.038L90.0286 270.328ZM94.5643 274.715L93.2928 266.058L100.713 264.968L100.895 266.205L102.132 266.023L102.677 269.734L100.203 270.097L100.385 271.334L101.621 271.152L101.803 272.389L103.04 272.207L103.221 273.444L99.5112 273.989L99.3296 272.752L98.0929 272.934L97.9112 271.697L96.6745 271.879L97.0378 274.352L94.5643 274.715ZM96.4929 270.642L98.9663 270.279L98.7847 269.042L100.021 268.86L99.6581 266.387L95.948 266.932L96.4929 270.642ZM105.794 273.066L105.612 271.829L108.086 271.466L107.177 265.282L104.704 265.646L104.522 264.409L111.943 263.319L112.124 264.556L109.651 264.919L110.559 271.103L113.033 270.739L113.214 271.976L105.794 273.066ZM114.55 271.78L113.642 265.596L114.878 265.415L114.697 264.178L115.934 263.996L115.752 262.76L119.462 262.215L119.644 263.451L120.88 263.27L121.062 264.507L122.299 264.325L123.207 270.509L120.734 270.872L120.37 268.398L116.66 268.943L117.023 271.417L114.55 271.78ZM116.478 267.707L120.189 267.162L119.825 264.688L118.589 264.87L118.407 263.633L117.17 263.815L117.352 265.051L116.115 265.233L116.478 267.707Z" fill="#006967"/>
<path d="M44.9273 284.28L124.771 272.553L124.843 273.048L44.9999 284.774L44.9273 284.28Z" fill="#006967"/>
<rect x="30.5673" y="266.68" width="104" height="27" transform="rotate(-8.35522 30.5673 266.68)" stroke="#006967"/>
<rect x="188.527" y="258.432" width="124" height="27" transform="rotate(-3.1922 188.527 258.432)" fill="white"/>
<path d="M201.02 275.012L200.532 266.276L203.029 266.137L203.098 267.385L204.346 267.315L204.416 268.563L205.664 268.494L205.594 267.246L206.842 267.176L206.773 265.928L209.269 265.789L209.756 274.525L207.26 274.664L206.982 269.672L205.734 269.742L205.873 272.238L204.625 272.307L204.485 269.811L203.237 269.881L203.516 274.873L201.02 275.012ZM211.104 274.45L210.756 268.21L212.004 268.14L211.934 266.892L213.183 266.822L213.113 265.574L216.857 265.365L216.927 266.614L218.175 266.544L218.244 267.792L219.492 267.722L219.84 273.963L217.344 274.102L217.205 271.606L213.461 271.815L213.6 274.311L211.104 274.45ZM213.391 270.567L217.136 270.358L216.996 267.862L215.748 267.931L215.679 266.683L214.431 266.753L214.5 268.001L213.252 268.07L213.391 270.567ZM224.933 273.679L224.515 266.19L222.019 266.33L221.949 265.081L229.438 264.664L229.507 265.912L227.011 266.051L227.429 273.539L224.933 273.679ZM231.273 273.325L230.785 264.589L239.522 264.101L239.591 265.349L233.351 265.698L233.49 268.194L238.483 267.915L238.552 269.163L233.56 269.442L233.699 271.938L239.94 271.59L240.009 272.838L231.273 273.325ZM241.357 272.763L240.87 264.026L243.366 263.887L243.436 265.135L244.684 265.065L244.753 266.314L246.001 266.244L245.932 264.996L247.18 264.926L247.11 263.678L249.606 263.539L250.093 272.275L247.597 272.415L247.319 267.422L246.071 267.492L246.21 269.988L244.962 270.058L244.823 267.562L243.575 267.631L243.853 272.623L241.357 272.763ZM257.264 264.364L256.016 264.433L255.946 263.185L257.194 263.116L257.264 264.364ZM259.969 267.969L260.178 271.713L257.682 271.852L257.612 270.604L253.868 270.813L253.937 272.061L251.441 272.2L251.233 268.456L252.481 268.386L252.411 267.138L253.659 267.069L253.589 265.821L254.838 265.751L254.768 264.503L256.016 264.433L256.086 265.682L257.334 265.612L257.403 266.86L258.651 266.79L258.721 268.038L259.969 267.969ZM257.473 268.108L256.225 268.178L256.155 266.93L254.907 266.999L254.977 268.247L253.729 268.317L253.798 269.565L257.542 269.356L257.473 268.108ZM265.27 271.429L264.852 263.941L262.356 264.08L262.287 262.832L269.775 262.414L269.844 263.662L267.348 263.801L267.766 271.29L265.27 271.429ZM272.858 271.006L272.788 269.758L275.285 269.619L274.937 263.378L272.44 263.517L272.371 262.269L279.859 261.852L279.929 263.1L277.433 263.239L277.781 269.479L280.277 269.34L280.346 270.588L272.858 271.006ZM284.19 270.374L284.121 269.126L282.873 269.195L282.803 267.947L281.555 268.017L281.346 264.273L282.594 264.203L282.525 262.955L283.773 262.885L283.703 261.637L288.695 261.359L288.765 262.607L290.013 262.537L290.083 263.785L287.587 263.925L287.517 262.677L285.021 262.816L285.091 264.064L283.842 264.133L284.051 267.878L285.299 267.808L285.369 269.056L287.865 268.917L287.795 267.669L290.292 267.53L290.361 268.778L289.113 268.847L289.183 270.095L284.19 270.374ZM291.779 269.951L291.431 263.71L292.679 263.641L292.609 262.393L293.857 262.323L293.788 261.075L297.532 260.866L297.601 262.114L298.849 262.045L298.919 263.293L300.167 263.223L300.515 269.463L298.019 269.603L297.88 267.106L294.136 267.315L294.275 269.811L291.779 269.951ZM294.066 266.067L297.81 265.858L297.671 263.362L296.423 263.432L296.353 262.184L295.105 262.253L295.175 263.501L293.927 263.571L294.066 266.067Z" fill="#006967"/>
<path d="M201.145 277.259L301.888 271.64L301.916 272.139L201.173 277.758L201.145 277.259Z" fill="#006967"/>
<rect x="188.527" y="258.432" width="124" height="27" transform="rotate(-3.1922 188.527 258.432)" stroke="#006967"/>
</svg>
