<svg width="337" height="386" viewBox="0 0 337 386" fill="none" xmlns="http://www.w3.org/2000/svg">
<path d="M42.5 41.2773V38.7773H43.75V37.5273H45V36.2773H47.5V35.0273H48.75V33.7773H45V35.0273H42.5V33.7773H43.75V32.5273H50V33.7773H51.25V36.2773H50V37.5273H48.75V38.7773H46.25V40.0273H51.25V41.2773H42.5ZM55 41.2773V40.0273H53.75V38.7773H52.5V35.0273H53.75V33.7773H55V32.5273H58.75V33.7773H60V35.0273H61.25V38.7773H60V40.0273H58.75V41.2773H55ZM56.25 40.0273H58.75V35.0273H57.5V33.7773H55V38.7773H56.25V40.0273ZM63.75 41.2773V40.0273H66.25V35.0273H65V33.7773H66.25V32.5273H68.75V40.0273H71.25V41.2773H63.75ZM75 41.2773V37.5273H76.25V36.2773H77.5V35.0273H78.75V33.7773H75V35.0273H72.5V32.5273H81.25V35.0273H80V36.2773H78.75V37.5273H77.5V41.2773H75Z" fill="white"/>
<path d="M9.5 119.527V117.527H5.5V115.527H6.5V114.527H7.5V113.527H8.5V112.527H11.5V116.527H12.5V117.527H11.5V119.527H9.5ZM7.5 116.527H9.5V114.527H8.5V115.527H7.5V116.527ZM15.5 119.527V116.527H16.5V115.527H17.5V114.527H18.5V113.527H15.5V114.527H13.5V112.527H20.5V114.527H19.5V115.527H18.5V116.527H17.5V119.527H15.5ZM22.5 120.527V119.527H23.5V117.527H25.5V119.527H24.5V120.527H22.5ZM30.5 119.527V118.527H29.5V117.527H31.5V118.527H34.5V116.527H31.5V115.527H32.5V114.527H33.5V113.527H30.5V112.527H36.5V113.527H35.5V114.527H34.5V115.527H35.5V116.527H36.5V118.527H35.5V119.527H30.5ZM39.5 113.527H38.5V112.527H40.5V114.527H39.5V113.527ZM44.5 112.527V113.527H43.5V112.527H44.5ZM39.5 115.527H37.5V113.527H38.5V114.527H39.5V115.527ZM42.5 113.527H43.5V114.527H42.5V113.527ZM41.5 114.527H42.5V115.527H41.5V114.527ZM40.5 115.527H41.5V116.527H40.5V115.527ZM39.5 116.527H40.5V117.527H39.5V116.527ZM42.5 116.527H44.5V118.527H43.5V117.527H42.5V116.527ZM38.5 117.527H39.5V118.527H38.5V117.527ZM42.5 118.527H43.5V119.527H41.5V117.527H42.5V118.527ZM37.5 118.527H38.5V119.527H37.5V118.527Z" fill="#F2FF00"/>
<path d="M5.5 278.527V276.527H6.5V275.527H7.5V274.527H9.5V273.527H10.5V272.527H7.5V273.527H5.5V272.527H6.5V271.527H11.5V272.527H12.5V274.527H11.5V275.527H10.5V276.527H8.5V277.527H12.5V278.527H5.5ZM14.5 278.527V277.527H13.5V273.527H14.5V272.527H15.5V271.527H19.5V272.527H16.5V273.527H15.5V274.527H19.5V275.527H20.5V277.527H19.5V278.527H14.5ZM15.5 277.527H18.5V275.527H15.5V277.527ZM22.5 279.527V278.527H23.5V276.527H25.5V278.527H24.5V279.527H22.5ZM30.5 278.527V277.527H29.5V276.527H31.5V277.527H34.5V274.527H29.5V271.527H35.5V272.527H31.5V273.527H35.5V274.527H36.5V277.527H35.5V278.527H30.5ZM39.5 272.527H38.5V271.527H40.5V273.527H39.5V272.527ZM44.5 271.527V272.527H43.5V271.527H44.5ZM39.5 274.527H37.5V272.527H38.5V273.527H39.5V274.527ZM42.5 272.527H43.5V273.527H42.5V272.527ZM41.5 273.527H42.5V274.527H41.5V273.527ZM40.5 274.527H41.5V275.527H40.5V274.527ZM39.5 275.527H40.5V276.527H39.5V275.527ZM42.5 275.527H44.5V277.527H43.5V276.527H42.5V275.527ZM38.5 276.527H39.5V277.527H38.5V276.527ZM42.5 277.527H43.5V278.527H41.5V276.527H42.5V277.527ZM37.5 277.527H38.5V278.527H37.5V277.527Z" fill="#8400EC"/>
<path d="M5.5 278.527V276.527H6.5V275.527H7.5V274.527H9.5V273.527H10.5V272.527H7.5V273.527H5.5V272.527H6.5V271.527H11.5V272.527H12.5V274.527H11.5V275.527H10.5V276.527H8.5V277.527H12.5V278.527H5.5ZM14.5 278.527V277.527H13.5V273.527H14.5V272.527H15.5V271.527H19.5V272.527H16.5V273.527H15.5V274.527H19.5V275.527H20.5V277.527H19.5V278.527H14.5ZM15.5 277.527H18.5V275.527H15.5V277.527ZM22.5 279.527V278.527H23.5V276.527H25.5V278.527H24.5V279.527H22.5ZM30.5 278.527V277.527H29.5V276.527H31.5V277.527H34.5V274.527H29.5V271.527H35.5V272.527H31.5V273.527H35.5V274.527H36.5V277.527H35.5V278.527H30.5ZM39.5 272.527H38.5V271.527H40.5V273.527H39.5V272.527ZM44.5 271.527V272.527H43.5V271.527H44.5ZM39.5 274.527H37.5V272.527H38.5V273.527H39.5V274.527ZM42.5 272.527H43.5V273.527H42.5V272.527ZM41.5 273.527H42.5V274.527H41.5V273.527ZM40.5 274.527H41.5V275.527H40.5V274.527ZM39.5 275.527H40.5V276.527H39.5V275.527ZM42.5 275.527H44.5V277.527H43.5V276.527H42.5V275.527ZM38.5 276.527H39.5V277.527H38.5V276.527ZM42.5 277.527H43.5V278.527H41.5V276.527H42.5V277.527ZM37.5 277.527H38.5V278.527H37.5V277.527Z" fill="white" fill-opacity="0.4"/>
<path d="M5.5 299.527V297.527H6.5V296.527H7.5V295.527H9.5V294.527H10.5V293.527H7.5V294.527H5.5V293.527H6.5V292.527H11.5V293.527H12.5V295.527H11.5V296.527H10.5V297.527H8.5V298.527H12.5V299.527H5.5ZM14.5 299.527V298.527H13.5V297.527H15.5V298.527H18.5V296.527H15.5V295.527H16.5V294.527H17.5V293.527H14.5V292.527H20.5V293.527H19.5V294.527H18.5V295.527H19.5V296.527H20.5V298.527H19.5V299.527H14.5ZM22.5 300.527V299.527H23.5V297.527H25.5V299.527H24.5V300.527H22.5ZM30.5 299.527V298.527H33.5V297.527H34.5V296.527H30.5V295.527H29.5V293.527H30.5V292.527H35.5V293.527H36.5V297.527H35.5V298.527H34.5V299.527H30.5ZM31.5 295.527H34.5V293.527H31.5V295.527ZM39.5 293.527H38.5V292.527H40.5V294.527H39.5V293.527ZM44.5 292.527V293.527H43.5V292.527H44.5ZM39.5 295.527H37.5V293.527H38.5V294.527H39.5V295.527ZM42.5 293.527H43.5V294.527H42.5V293.527ZM41.5 294.527H42.5V295.527H41.5V294.527ZM40.5 295.527H41.5V296.527H40.5V295.527ZM39.5 296.527H40.5V297.527H39.5V296.527ZM42.5 296.527H44.5V298.527H43.5V297.527H42.5V296.527ZM38.5 297.527H39.5V298.527H38.5V297.527ZM42.5 298.527H43.5V299.527H41.5V297.527H42.5V298.527ZM37.5 298.527H38.5V299.527H37.5V298.527Z" fill="#03FF59"/>
<path d="M5.5 313.527V311.527H6.5V310.527H7.5V309.527H9.5V308.527H10.5V307.527H7.5V308.527H5.5V307.527H6.5V306.527H11.5V307.527H12.5V309.527H11.5V310.527H10.5V311.527H8.5V312.527H12.5V313.527H5.5ZM14.5 313.527V312.527H16.5V308.527H15.5V307.527H16.5V306.527H18.5V312.527H20.5V313.527H14.5ZM22.5 314.527V313.527H23.5V311.527H25.5V313.527H24.5V314.527H22.5ZM31.5 313.527V310.527H32.5V309.527H33.5V308.527H34.5V307.527H31.5V308.527H29.5V306.527H36.5V308.527H35.5V309.527H34.5V310.527H33.5V313.527H31.5ZM39.5 307.527H38.5V306.527H40.5V308.527H39.5V307.527ZM44.5 306.527V307.527H43.5V306.527H44.5ZM39.5 309.527H37.5V307.527H38.5V308.527H39.5V309.527ZM42.5 307.527H43.5V308.527H42.5V307.527ZM41.5 308.527H42.5V309.527H41.5V308.527ZM40.5 309.527H41.5V310.527H40.5V309.527ZM39.5 310.527H40.5V311.527H39.5V310.527ZM42.5 310.527H44.5V312.527H43.5V311.527H42.5V310.527ZM38.5 311.527H39.5V312.527H38.5V311.527ZM42.5 312.527H43.5V313.527H41.5V311.527H42.5V312.527ZM37.5 312.527H38.5V313.527H37.5V312.527Z" fill="#11F1FF"/>
<path d="M5.5 327.527V325.527H6.5V324.527H7.5V323.527H9.5V322.527H10.5V321.527H7.5V322.527H5.5V321.527H6.5V320.527H11.5V321.527H12.5V323.527H11.5V324.527H10.5V325.527H8.5V326.527H12.5V327.527H5.5ZM14.5 327.527V326.527H16.5V322.527H15.5V321.527H16.5V320.527H18.5V326.527H20.5V327.527H14.5ZM22.5 328.527V327.527H23.5V325.527H25.5V327.527H24.5V328.527H22.5ZM33.5 327.527V325.527H29.5V323.527H30.5V322.527H31.5V321.527H32.5V320.527H35.5V324.527H36.5V325.527H35.5V327.527H33.5ZM31.5 324.527H33.5V322.527H32.5V323.527H31.5V324.527ZM39.5 321.527H38.5V320.527H40.5V322.527H39.5V321.527ZM44.5 320.527V321.527H43.5V320.527H44.5ZM39.5 323.527H37.5V321.527H38.5V322.527H39.5V323.527ZM42.5 321.527H43.5V322.527H42.5V321.527ZM41.5 322.527H42.5V323.527H41.5V322.527ZM40.5 323.527H41.5V324.527H40.5V323.527ZM39.5 324.527H40.5V325.527H39.5V324.527ZM42.5 324.527H44.5V326.527H43.5V325.527H42.5V324.527ZM38.5 325.527H39.5V326.527H38.5V325.527ZM42.5 326.527H43.5V327.527H41.5V325.527H42.5V326.527ZM37.5 326.527H38.5V327.527H37.5V326.527Z" fill="#FF4040"/>
<path d="M6.5 341.527V340.527H8.5V336.527H7.5V335.527H8.5V334.527H10.5V340.527H12.5V341.527H6.5ZM14.5 341.527V340.527H17.5V339.527H18.5V338.527H14.5V337.527H13.5V335.527H14.5V334.527H19.5V335.527H20.5V339.527H19.5V340.527H18.5V341.527H14.5ZM15.5 337.527H18.5V335.527H15.5V337.527ZM22.5 342.527V341.527H23.5V339.527H25.5V341.527H24.5V342.527H22.5ZM31.5 341.527V338.527H32.5V337.527H33.5V336.527H34.5V335.527H31.5V336.527H29.5V334.527H36.5V336.527H35.5V337.527H34.5V338.527H33.5V341.527H31.5ZM39.5 335.527H38.5V334.527H40.5V336.527H39.5V335.527ZM44.5 334.527V335.527H43.5V334.527H44.5ZM39.5 337.527H37.5V335.527H38.5V336.527H39.5V337.527ZM42.5 335.527H43.5V336.527H42.5V335.527ZM41.5 336.527H42.5V337.527H41.5V336.527ZM40.5 337.527H41.5V338.527H40.5V337.527ZM39.5 338.527H40.5V339.527H39.5V338.527ZM42.5 338.527H44.5V340.527H43.5V339.527H42.5V338.527ZM38.5 339.527H39.5V340.527H38.5V339.527ZM42.5 340.527H43.5V341.527H41.5V339.527H42.5V340.527ZM37.5 340.527H38.5V341.527H37.5V340.527Z" fill="#FF8800"/>
<path d="M239.5 325.527V323.527H240.5V322.527H241.5V321.527H243.5V320.527H244.5V319.527H241.5V320.527H239.5V319.527H240.5V318.527H245.5V319.527H246.5V321.527H245.5V322.527H244.5V323.527H242.5V324.527H246.5V325.527H239.5ZM249.5 325.527V322.527H250.5V321.527H251.5V320.527H252.5V319.527H249.5V320.527H247.5V318.527H254.5V320.527H253.5V321.527H252.5V322.527H251.5V325.527H249.5ZM256.5 326.527V325.527H257.5V323.527H259.5V325.527H258.5V326.527H256.5ZM264.5 325.527V324.527H266.5V320.527H265.5V319.527H266.5V318.527H268.5V324.527H270.5V325.527H264.5ZM273.5 319.527H272.5V318.527H274.5V320.527H273.5V319.527ZM278.5 318.527V319.527H277.5V318.527H278.5ZM273.5 321.527H271.5V319.527H272.5V320.527H273.5V321.527ZM276.5 319.527H277.5V320.527H276.5V319.527ZM275.5 320.527H276.5V321.527H275.5V320.527ZM274.5 321.527H275.5V322.527H274.5V321.527ZM273.5 322.527H274.5V323.527H273.5V322.527ZM276.5 322.527H278.5V324.527H277.5V323.527H276.5V322.527ZM272.5 323.527H273.5V324.527H272.5V323.527ZM276.5 324.527H277.5V325.527H275.5V323.527H276.5V324.527ZM271.5 324.527H272.5V325.527H271.5V324.527Z" fill="#FF4040"/>
<path d="M239.5 282.527V280.527H240.5V279.527H241.5V278.527H243.5V277.527H244.5V276.527H241.5V277.527H239.5V276.527H240.5V275.527H245.5V276.527H246.5V278.527H245.5V279.527H244.5V280.527H242.5V281.527H246.5V282.527H239.5ZM248.5 282.527V281.527H247.5V279.527H248.5V278.527H247.5V276.527H248.5V275.527H252.5V276.527H253.5V278.527H252.5V279.527H254.5V281.527H253.5V282.527H248.5ZM250.5 278.527H252.5V276.527H249.5V277.527H250.5V278.527ZM248.5 281.527H252.5V280.527H250.5V279.527H248.5V281.527ZM256.5 283.527V282.527H257.5V280.527H259.5V282.527H258.5V283.527H256.5ZM267.5 282.527V280.527H263.5V278.527H264.5V277.527H265.5V276.527H266.5V275.527H269.5V279.527H270.5V280.527H269.5V282.527H267.5ZM265.5 279.527H267.5V277.527H266.5V278.527H265.5V279.527ZM273.5 276.527H272.5V275.527H274.5V277.527H273.5V276.527ZM278.5 275.527V276.527H277.5V275.527H278.5ZM273.5 278.527H271.5V276.527H272.5V277.527H273.5V278.527ZM276.5 276.527H277.5V277.527H276.5V276.527ZM275.5 277.527H276.5V278.527H275.5V277.527ZM274.5 278.527H275.5V279.527H274.5V278.527ZM273.5 279.527H274.5V280.527H273.5V279.527ZM276.5 279.527H278.5V281.527H277.5V280.527H276.5V279.527ZM272.5 280.527H273.5V281.527H272.5V280.527ZM276.5 281.527H277.5V282.527H275.5V280.527H276.5V281.527ZM271.5 281.527H272.5V282.527H271.5V281.527Z" fill="#FF8800"/>
<path d="M239.5 248.527V246.527H240.5V245.527H241.5V244.527H243.5V243.527H244.5V242.527H241.5V243.527H239.5V242.527H240.5V241.527H245.5V242.527H246.5V244.527H245.5V245.527H244.5V246.527H242.5V247.527H246.5V248.527H239.5ZM248.5 248.527V247.527H251.5V246.527H252.5V245.527H248.5V244.527H247.5V242.527H248.5V241.527H253.5V242.527H254.5V246.527H253.5V247.527H252.5V248.527H248.5ZM249.5 244.527H252.5V242.527H249.5V244.527ZM256.5 249.527V248.527H257.5V246.527H259.5V248.527H258.5V249.527H256.5ZM265.5 248.527V245.527H266.5V244.527H267.5V243.527H268.5V242.527H265.5V243.527H263.5V241.527H270.5V243.527H269.5V244.527H268.5V245.527H267.5V248.527H265.5ZM273.5 242.527H272.5V241.527H274.5V243.527H273.5V242.527ZM278.5 241.527V242.527H277.5V241.527H278.5ZM273.5 244.527H271.5V242.527H272.5V243.527H273.5V244.527ZM276.5 242.527H277.5V243.527H276.5V242.527ZM275.5 243.527H276.5V244.527H275.5V243.527ZM274.5 244.527H275.5V245.527H274.5V244.527ZM273.5 245.527H274.5V246.527H273.5V245.527ZM276.5 245.527H278.5V247.527H277.5V246.527H276.5V245.527ZM272.5 246.527H273.5V247.527H272.5V246.527ZM276.5 247.527H277.5V248.527H275.5V246.527H276.5V247.527ZM271.5 247.527H272.5V248.527H271.5V247.527Z" fill="#11F1FF"/>
<path d="M240.5 216.527V215.527H239.5V214.527H241.5V215.527H244.5V213.527H241.5V212.527H242.5V211.527H243.5V210.527H240.5V209.527H246.5V210.527H245.5V211.527H244.5V212.527H245.5V213.527H246.5V215.527H245.5V216.527H240.5ZM247.5 216.527V214.527H248.5V213.527H249.5V212.527H251.5V211.527H252.5V210.527H249.5V211.527H247.5V210.527H248.5V209.527H253.5V210.527H254.5V212.527H253.5V213.527H252.5V214.527H250.5V215.527H254.5V216.527H247.5ZM256.5 217.527V216.527H257.5V214.527H259.5V216.527H258.5V217.527H256.5ZM264.5 216.527V215.527H267.5V214.527H268.5V213.527H264.5V212.527H263.5V210.527H264.5V209.527H269.5V210.527H270.5V214.527H269.5V215.527H268.5V216.527H264.5ZM265.5 212.527H268.5V210.527H265.5V212.527ZM273.5 210.527H272.5V209.527H274.5V211.527H273.5V210.527ZM278.5 209.527V210.527H277.5V209.527H278.5ZM273.5 212.527H271.5V210.527H272.5V211.527H273.5V212.527ZM276.5 210.527H277.5V211.527H276.5V210.527ZM275.5 211.527H276.5V212.527H275.5V211.527ZM274.5 212.527H275.5V213.527H274.5V212.527ZM273.5 213.527H274.5V214.527H273.5V213.527ZM276.5 213.527H278.5V215.527H277.5V214.527H276.5V213.527ZM272.5 214.527H273.5V215.527H272.5V214.527ZM276.5 215.527H277.5V216.527H275.5V214.527H276.5V215.527ZM271.5 215.527H272.5V216.527H271.5V215.527Z" fill="#03FF59"/>
<path d="M240.5 173.527V172.527H239.5V171.527H241.5V172.527H244.5V170.527H241.5V169.527H242.5V168.527H243.5V167.527H240.5V166.527H246.5V167.527H245.5V168.527H244.5V169.527H245.5V170.527H246.5V172.527H245.5V173.527H240.5ZM247.5 173.527V171.527H248.5V170.527H249.5V169.527H251.5V168.527H252.5V167.527H249.5V168.527H247.5V167.527H248.5V166.527H253.5V167.527H254.5V169.527H253.5V170.527H252.5V171.527H250.5V172.527H254.5V173.527H247.5ZM256.5 174.527V173.527H257.5V171.527H259.5V173.527H258.5V174.527H256.5ZM264.5 173.527V172.527H267.5V171.527H268.5V170.527H264.5V169.527H263.5V167.527H264.5V166.527H269.5V167.527H270.5V171.527H269.5V172.527H268.5V173.527H264.5ZM265.5 169.527H268.5V167.527H265.5V169.527ZM281.5 167.527H280.5V166.527H282.5V168.527H281.5V167.527ZM286.5 166.527V167.527H285.5V166.527H286.5ZM281.5 169.527H279.5V167.527H280.5V168.527H281.5V169.527ZM284.5 167.527H285.5V168.527H284.5V167.527ZM283.5 168.527H284.5V169.527H283.5V168.527ZM282.5 169.527H283.5V170.527H282.5V169.527ZM281.5 170.527H282.5V171.527H281.5V170.527ZM284.5 170.527H286.5V172.527H285.5V171.527H284.5V170.527ZM280.5 171.527H281.5V172.527H280.5V171.527ZM284.5 172.527H285.5V173.527H283.5V171.527H284.5V172.527ZM279.5 172.527H280.5V173.527H279.5V172.527Z" fill="#8400EC"/>
<path d="M240.5 173.527V172.527H239.5V171.527H241.5V172.527H244.5V170.527H241.5V169.527H242.5V168.527H243.5V167.527H240.5V166.527H246.5V167.527H245.5V168.527H244.5V169.527H245.5V170.527H246.5V172.527H245.5V173.527H240.5ZM247.5 173.527V171.527H248.5V170.527H249.5V169.527H251.5V168.527H252.5V167.527H249.5V168.527H247.5V167.527H248.5V166.527H253.5V167.527H254.5V169.527H253.5V170.527H252.5V171.527H250.5V172.527H254.5V173.527H247.5ZM256.5 174.527V173.527H257.5V171.527H259.5V173.527H258.5V174.527H256.5ZM264.5 173.527V172.527H267.5V171.527H268.5V170.527H264.5V169.527H263.5V167.527H264.5V166.527H269.5V167.527H270.5V171.527H269.5V172.527H268.5V173.527H264.5ZM265.5 169.527H268.5V167.527H265.5V169.527ZM281.5 167.527H280.5V166.527H282.5V168.527H281.5V167.527ZM286.5 166.527V167.527H285.5V166.527H286.5ZM281.5 169.527H279.5V167.527H280.5V168.527H281.5V169.527ZM284.5 167.527H285.5V168.527H284.5V167.527ZM283.5 168.527H284.5V169.527H283.5V168.527ZM282.5 169.527H283.5V170.527H282.5V169.527ZM281.5 170.527H282.5V171.527H281.5V170.527ZM284.5 170.527H286.5V172.527H285.5V171.527H284.5V170.527ZM280.5 171.527H281.5V172.527H280.5V171.527ZM284.5 172.527H285.5V173.527H283.5V171.527H284.5V172.527ZM279.5 172.527H280.5V173.527H279.5V172.527Z" fill="white" fill-opacity="0.4"/>
<path d="M240.5 92.5273V91.5273H239.5V90.5273H241.5V91.5273H244.5V88.5273H239.5V85.5273H245.5V86.5273H241.5V87.5273H245.5V88.5273H246.5V91.5273H245.5V92.5273H240.5ZM247.5 92.5273V90.5273H248.5V89.5273H249.5V88.5273H251.5V87.5273H252.5V86.5273H249.5V87.5273H247.5V86.5273H248.5V85.5273H253.5V86.5273H254.5V88.5273H253.5V89.5273H252.5V90.5273H250.5V91.5273H254.5V92.5273H247.5ZM256.5 93.5273V92.5273H257.5V90.5273H259.5V92.5273H258.5V93.5273H256.5ZM264.5 92.5273V91.5273H263.5V90.5273H265.5V91.5273H268.5V89.5273H265.5V88.5273H266.5V87.5273H267.5V86.5273H264.5V85.5273H270.5V86.5273H269.5V87.5273H268.5V88.5273H269.5V89.5273H270.5V91.5273H269.5V92.5273H264.5ZM273.5 86.5273H272.5V85.5273H274.5V87.5273H273.5V86.5273ZM278.5 85.5273V86.5273H277.5V85.5273H278.5ZM273.5 88.5273H271.5V86.5273H272.5V87.5273H273.5V88.5273ZM276.5 86.5273H277.5V87.5273H276.5V86.5273ZM275.5 87.5273H276.5V88.5273H275.5V87.5273ZM274.5 88.5273H275.5V89.5273H274.5V88.5273ZM273.5 89.5273H274.5V90.5273H273.5V89.5273ZM276.5 89.5273H278.5V91.5273H277.5V90.5273H276.5V89.5273ZM272.5 90.5273H273.5V91.5273H272.5V90.5273ZM276.5 91.5273H277.5V92.5273H275.5V90.5273H276.5V91.5273ZM271.5 91.5273H272.5V92.5273H271.5V91.5273Z" fill="#F2FF00"/>
<path d="M241.5 71.5273V70.5273H240.5V69.5273H239.5V66.5273H240.5V65.5273H241.5V64.5273H245.5V65.5273H246.5V66.5273H244.5V65.5273H242.5V66.5273H241.5V69.5273H242.5V70.5273H244.5V69.5273H246.5V70.5273H245.5V71.5273H241.5ZM248.5 71.5273V70.5273H247.5V67.5273H248.5V66.5273H253.5V67.5273H254.5V70.5273H253.5V71.5273H248.5ZM249.5 70.5273H252.5V67.5273H249.5V70.5273ZM255.5 71.5273V66.5273H261.5V67.5273H262.5V71.5273H260.5V67.5273H257.5V71.5273H255.5ZM266.5 71.5273V67.5273H264.5V66.5273H266.5V64.5273H268.5V66.5273H270.5V67.5273H268.5V71.5273H266.5ZM274.5 67.5273H275.5V68.5273H274.5V71.5273H272.5V66.5273H274.5V67.5273ZM278.5 66.5273V67.5273H275.5V66.5273H278.5ZM280.5 71.5273V70.5273H279.5V69.5273H280.5V68.5273H284.5V67.5273H280.5V66.5273H285.5V67.5273H286.5V71.5273H280.5ZM281.5 70.5273H284.5V69.5273H281.5V70.5273ZM239.5 79.5273V74.5273H245.5V75.5273H246.5V79.5273H244.5V75.5273H243.5V79.5273H241.5V75.5273H240.5V79.5273H239.5ZM248.5 79.5273V78.5273H247.5V74.5273H249.5V78.5273H252.5V74.5273H254.5V79.5273H248.5ZM256.5 79.5273V78.5273H258.5V73.5273H257.5V72.5273H260.5V78.5273H262.5V79.5273H256.5ZM263.5 79.5273V72.5273H265.5V74.5273H269.5V75.5273H270.5V79.5273H268.5V75.5273H265.5V79.5273H263.5ZM272.5 79.5273V78.5273H271.5V75.5273H272.5V74.5273H277.5V75.5273H278.5V77.5273H273.5V78.5273H277.5V79.5273H272.5ZM273.5 76.5273H276.5V75.5273H273.5V76.5273ZM282.5 75.5273H283.5V76.5273H282.5V79.5273H280.5V74.5273H282.5V75.5273ZM286.5 74.5273V75.5273H283.5V74.5273H286.5ZM288.5 79.5273V78.5273H287.5V75.5273H288.5V74.5273H293.5V75.5273H294.5V77.5273H289.5V78.5273H293.5V79.5273H288.5ZM289.5 76.5273H292.5V75.5273H289.5V76.5273ZM295.5 79.5273V78.5273H300.5V77.5273H296.5V76.5273H295.5V75.5273H296.5V74.5273H301.5V75.5273H297.5V76.5273H301.5V77.5273H302.5V78.5273H301.5V79.5273H295.5Z" fill="#F2FF00"/>
<path d="M240.5 305.527V298.527H242.5V304.527H246.5V305.527H240.5ZM249.5 305.527V304.527H248.5V303.527H247.5V300.527H248.5V299.527H249.5V298.527H254.5V299.527H250.5V300.527H249.5V303.527H250.5V304.527H252.5V302.527H251.5V301.527H254.5V305.527H249.5ZM255.5 305.527V298.527H261.5V299.527H262.5V301.527H261.5V302.527H262.5V304.527H261.5V305.527H255.5ZM257.5 301.527H260.5V299.527H257.5V301.527ZM257.5 304.527H260.5V302.527H257.5V304.527ZM266.5 305.527V299.527H264.5V298.527H270.5V299.527H268.5V305.527H266.5ZM278.5 299.527V303.527H277.5V304.527H276.5V305.527H272.5V304.527H271.5V299.527H272.5V298.527H277.5V299.527H278.5ZM276.5 299.527H273.5V304.527H275.5V303.527H274.5V302.527H276.5V299.527ZM277.5 305.527V304.527H278.5V305.527H277.5ZM280.5 305.527V304.527H282.5V299.527H280.5V298.527H286.5V299.527H284.5V304.527H286.5V305.527H280.5ZM287.5 305.527V300.527H288.5V299.527H289.5V298.527H292.5V299.527H293.5V300.527H294.5V305.527H292.5V303.527H289.5V305.527H287.5ZM289.5 302.527H292.5V300.527H291.5V299.527H290.5V300.527H289.5V302.527ZM298.5 304.527V302.527H296.5V301.527H298.5V299.527H300.5V301.527H302.5V302.527H300.5V304.527H298.5ZM239.5 313.527V306.527H246.5V307.527H241.5V309.527H245.5V310.527H241.5V313.527H239.5ZM248.5 313.527V312.527H247.5V309.527H248.5V308.527H253.5V309.527H254.5V312.527H253.5V313.527H248.5ZM249.5 312.527H252.5V309.527H249.5V312.527ZM256.5 313.527V312.527H255.5V306.527H257.5V308.527H261.5V309.527H262.5V312.527H261.5V313.527H256.5ZM257.5 312.527H260.5V309.527H257.5V312.527ZM266.5 307.527V306.527H268.5V307.527H266.5ZM264.5 313.527V312.527H266.5V309.527H265.5V308.527H268.5V312.527H270.5V313.527H264.5ZM272.5 313.527V312.527H271.5V311.527H272.5V310.527H276.5V309.527H272.5V308.527H277.5V309.527H278.5V313.527H272.5ZM273.5 312.527H276.5V311.527H273.5V312.527Z" fill="#FF4040"/>
<path d="M240.5 271.527V270.527H239.5V269.527H241.5V270.527H244.5V268.527H240.5V267.527H239.5V265.527H240.5V264.527H245.5V265.527H246.5V266.527H244.5V265.527H241.5V267.527H245.5V268.527H246.5V270.527H245.5V271.527H240.5ZM248.5 271.527V270.527H247.5V267.527H248.5V266.527H253.5V267.527H254.5V270.527H253.5V271.527H248.5ZM249.5 270.527H252.5V267.527H249.5V270.527ZM256.5 271.527V270.527H255.5V267.527H256.5V266.527H262.5V267.527H257.5V270.527H262.5V271.527H256.5ZM266.5 265.527V264.527H268.5V265.527H266.5ZM264.5 271.527V270.527H266.5V267.527H265.5V266.527H268.5V270.527H270.5V271.527H264.5ZM272.5 271.527V270.527H271.5V269.527H272.5V268.527H276.5V267.527H272.5V266.527H277.5V267.527H278.5V271.527H272.5ZM273.5 270.527H276.5V269.527H273.5V270.527ZM280.5 271.527V270.527H282.5V265.527H281.5V264.527H284.5V270.527H286.5V271.527H280.5Z" fill="#FF8800"/>
<path d="M239.5 237.527V230.527H245.5V231.527H246.5V234.527H244.5V235.527H245.5V236.527H246.5V237.527H243.5V236.527H242.5V235.527H241.5V237.527H239.5ZM241.5 234.527H243.5V233.527H244.5V231.527H241.5V234.527ZM248.5 237.527V236.527H247.5V233.527H248.5V232.527H253.5V233.527H254.5V235.527H249.5V236.527H253.5V237.527H248.5ZM249.5 234.527H252.5V233.527H249.5V234.527ZM256.5 238.527V237.527H260.5V236.527H256.5V235.527H255.5V233.527H256.5V232.527H262.5V237.527H261.5V238.527H256.5ZM257.5 235.527H260.5V233.527H257.5V235.527ZM266.5 231.527V230.527H268.5V231.527H266.5ZM264.5 237.527V236.527H266.5V233.527H265.5V232.527H268.5V236.527H270.5V237.527H264.5ZM272.5 237.527V236.527H271.5V233.527H272.5V232.527H277.5V233.527H278.5V236.527H277.5V237.527H272.5ZM273.5 236.527H276.5V233.527H273.5V236.527ZM279.5 237.527V232.527H285.5V233.527H286.5V237.527H284.5V233.527H281.5V237.527H279.5ZM288.5 237.527V236.527H287.5V235.527H288.5V234.527H292.5V233.527H288.5V232.527H293.5V233.527H294.5V237.527H288.5ZM289.5 236.527H292.5V235.527H289.5V236.527ZM296.5 237.527V236.527H298.5V231.527H297.5V230.527H300.5V236.527H302.5V237.527H296.5Z" fill="#11F1FF"/>
<path d="M241.5 197.527V196.527H240.5V195.527H239.5V192.527H240.5V191.527H241.5V190.527H245.5V191.527H246.5V192.527H244.5V191.527H242.5V192.527H241.5V195.527H242.5V196.527H244.5V195.527H246.5V196.527H245.5V197.527H241.5ZM248.5 197.527V196.527H247.5V193.527H248.5V192.527H253.5V193.527H254.5V196.527H253.5V197.527H248.5ZM249.5 196.527H252.5V193.527H249.5V196.527ZM255.5 197.527V192.527H261.5V193.527H262.5V197.527H260.5V193.527H259.5V197.527H257.5V193.527H256.5V197.527H255.5ZM239.5 205.527V198.527H245.5V199.527H246.5V201.527H245.5V202.527H246.5V204.527H245.5V205.527H239.5ZM241.5 201.527H244.5V199.527H241.5V201.527ZM241.5 204.527H244.5V202.527H241.5V204.527ZM250.5 201.527H251.5V202.527H250.5V205.527H248.5V200.527H250.5V201.527ZM254.5 200.527V201.527H251.5V200.527H254.5ZM256.5 205.527V204.527H255.5V203.527H256.5V202.527H260.5V201.527H256.5V200.527H261.5V201.527H262.5V205.527H256.5ZM257.5 204.527H260.5V203.527H257.5V204.527ZM263.5 205.527V204.527H268.5V203.527H264.5V202.527H263.5V201.527H264.5V200.527H269.5V201.527H265.5V202.527H269.5V203.527H270.5V204.527H269.5V205.527H263.5ZM274.5 199.527V198.527H276.5V199.527H274.5ZM272.5 205.527V204.527H274.5V201.527H273.5V200.527H276.5V204.527H278.5V205.527H272.5ZM280.5 205.527V204.527H282.5V199.527H281.5V198.527H284.5V204.527H286.5V205.527H280.5ZM288.5 205.527V204.527H287.5V201.527H288.5V200.527H293.5V201.527H294.5V203.527H289.5V204.527H293.5V205.527H288.5ZM289.5 202.527H292.5V201.527H289.5V202.527ZM298.5 199.527V198.527H300.5V199.527H298.5ZM296.5 205.527V204.527H298.5V201.527H297.5V200.527H300.5V204.527H302.5V205.527H296.5ZM306.5 201.527H307.5V202.527H306.5V205.527H304.5V200.527H306.5V201.527ZM310.5 200.527V201.527H307.5V200.527H310.5ZM312.5 205.527V204.527H311.5V201.527H312.5V200.527H317.5V201.527H318.5V204.527H317.5V205.527H312.5ZM313.5 204.527H316.5V201.527H313.5V204.527ZM319.5 205.527V204.527H324.5V203.527H320.5V202.527H319.5V201.527H320.5V200.527H325.5V201.527H321.5V202.527H325.5V203.527H326.5V204.527H325.5V205.527H319.5Z" fill="#03FF59"/>
<path d="M239.5 162.527V155.527H245.5V156.527H246.5V159.527H244.5V160.527H245.5V161.527H246.5V162.527H243.5V161.527H242.5V160.527H241.5V162.527H239.5ZM241.5 159.527H243.5V158.527H244.5V156.527H241.5V159.527ZM248.5 162.527V161.527H247.5V160.527H248.5V159.527H252.5V158.527H248.5V157.527H253.5V158.527H254.5V162.527H248.5ZM249.5 161.527H252.5V160.527H249.5V161.527ZM256.5 162.527V161.527H255.5V158.527H256.5V157.527H262.5V158.527H257.5V161.527H262.5V162.527H256.5ZM266.5 156.527V155.527H268.5V156.527H266.5ZM264.5 162.527V161.527H266.5V158.527H265.5V157.527H268.5V161.527H270.5V162.527H264.5ZM271.5 162.527V161.527H276.5V160.527H272.5V159.527H271.5V158.527H272.5V157.527H277.5V158.527H273.5V159.527H277.5V160.527H278.5V161.527H277.5V162.527H271.5ZM279.5 162.527V157.527H285.5V158.527H286.5V162.527H284.5V158.527H283.5V162.527H281.5V158.527H280.5V162.527H279.5ZM288.5 162.527V161.527H287.5V158.527H288.5V157.527H293.5V158.527H294.5V161.527H293.5V162.527H288.5ZM289.5 161.527H292.5V158.527H289.5V161.527Z" fill="#8400EC"/>
<path d="M239.5 162.527V155.527H245.5V156.527H246.5V159.527H244.5V160.527H245.5V161.527H246.5V162.527H243.5V161.527H242.5V160.527H241.5V162.527H239.5ZM241.5 159.527H243.5V158.527H244.5V156.527H241.5V159.527ZM248.5 162.527V161.527H247.5V160.527H248.5V159.527H252.5V158.527H248.5V157.527H253.5V158.527H254.5V162.527H248.5ZM249.5 161.527H252.5V160.527H249.5V161.527ZM256.5 162.527V161.527H255.5V158.527H256.5V157.527H262.5V158.527H257.5V161.527H262.5V162.527H256.5ZM266.5 156.527V155.527H268.5V156.527H266.5ZM264.5 162.527V161.527H266.5V158.527H265.5V157.527H268.5V161.527H270.5V162.527H264.5ZM271.5 162.527V161.527H276.5V160.527H272.5V159.527H271.5V158.527H272.5V157.527H277.5V158.527H273.5V159.527H277.5V160.527H278.5V161.527H277.5V162.527H271.5ZM279.5 162.527V157.527H285.5V158.527H286.5V162.527H284.5V158.527H283.5V162.527H281.5V158.527H280.5V162.527H279.5ZM288.5 162.527V161.527H287.5V158.527H288.5V157.527H293.5V158.527H294.5V161.527H293.5V162.527H288.5ZM289.5 161.527H292.5V158.527H289.5V161.527Z" fill="white" fill-opacity="0.4"/>
<path d="M231.5 41.2773V38.7773H232.75V37.5273H234V36.2773H236.5V35.0273H237.75V33.7773H234V35.0273H231.5V33.7773H232.75V32.5273H239V33.7773H240.25V36.2773H239V37.5273H237.75V38.7773H235.25V40.0273H240.25V41.2773H231.5ZM244 41.2773V40.0273H242.75V38.7773H241.5V35.0273H242.75V33.7773H244V32.5273H247.75V33.7773H249V35.0273H250.25V38.7773H249V40.0273H247.75V41.2773H244ZM245.25 40.0273H247.75V35.0273H246.5V33.7773H244V38.7773H245.25V40.0273ZM251.5 41.2773V38.7773H252.75V37.5273H254V36.2773H256.5V35.0273H257.75V33.7773H254V35.0273H251.5V33.7773H252.75V32.5273H259V33.7773H260.25V36.2773H259V37.5273H257.75V38.7773H255.25V40.0273H260.25V41.2773H251.5ZM262.75 41.2773V40.0273H261.5V38.7773H264V40.0273H267.75V37.5273H264V36.2773H265.25V35.0273H266.5V33.7773H262.75V32.5273H270.25V33.7773H269V35.0273H267.75V36.2773H269V37.5273H270.25V40.0273H269V41.2773H262.75Z" fill="white"/>
<line x1="60" y1="54.5273" x2="60" y2="353.527" stroke="white" stroke-dasharray="2 2"/>
<path d="M60.6982 277.442L228.381 227.95L60.6982 277.442Z" fill="#8400EC"/>
<path d="M60.6982 277.442L228.381 227.95L60.6982 277.442Z" fill="white" fill-opacity="0.4"/>
<path d="M60.6982 277.442L228.381 227.95" stroke="#8400EC" stroke-width="2"/>
<path d="M60.6984 277.59C60.7641 277.59 60.8174 277.524 60.8174 277.442C60.8174 277.361 60.7641 277.295 60.6984 277.295C60.6326 277.295 60.5793 277.361 60.5793 277.442C60.5793 277.524 60.6326 277.59 60.6984 277.59Z" fill="#4328E7" stroke="white"/>
<path d="M228.381 228.098C228.447 228.098 228.5 228.032 228.5 227.951C228.5 227.87 228.447 227.804 228.381 227.804C228.315 227.804 228.262 227.87 228.262 227.951C228.262 228.032 228.315 228.098 228.381 228.098Z" fill="#4328E7" stroke="white"/>
<path d="M60.6982 116.595L228.381 77.9297" stroke="#F2FF00" stroke-width="2"/>
<path d="M60.6984 116.742C60.7641 116.742 60.8174 116.676 60.8174 116.595C60.8174 116.513 60.7641 116.447 60.6984 116.447C60.6326 116.447 60.5793 116.513 60.5793 116.595C60.5793 116.676 60.6326 116.742 60.6984 116.742Z" fill="#9654E5" stroke="white"/>
<path d="M228.381 78.077C228.447 78.077 228.5 78.011 228.5 77.9296C228.5 77.8482 228.447 77.7822 228.381 77.7822C228.315 77.7822 228.262 77.8482 228.262 77.9296C228.262 78.011 228.315 78.077 228.381 78.077Z" fill="#9654E5" stroke="white"/>
<path d="M60.6982 316.881L228.381 272.803" stroke="#FF4040" stroke-width="2"/>
<path d="M60.6984 317.028C60.7641 317.028 60.8174 316.962 60.8174 316.881C60.8174 316.799 60.7641 316.733 60.6984 316.733C60.6326 316.733 60.5793 316.799 60.5793 316.881C60.5793 316.962 60.6326 317.028 60.6984 317.028Z" fill="#FF6283" stroke="white"/>
<path d="M228.381 272.949C228.447 272.949 228.5 272.883 228.5 272.802C228.5 272.72 228.447 272.654 228.381 272.654C228.315 272.654 228.262 272.72 228.262 272.802C228.262 272.883 228.315 272.949 228.381 272.949Z" fill="#FF6283" stroke="white"/>
<path d="M60.6982 330.027L228.381 262.749" stroke="#FF8800" stroke-width="2"/>
<path d="M60.6984 330.175C60.7641 330.175 60.8174 330.109 60.8174 330.027C60.8174 329.946 60.7641 329.88 60.6984 329.88C60.6326 329.88 60.5793 329.946 60.5793 330.027C60.5793 330.109 60.6326 330.175 60.6984 330.175Z" fill="#FF8800" stroke="white"/>
<path d="M228.381 262.896C228.447 262.896 228.5 262.83 228.5 262.749C228.5 262.668 228.447 262.602 228.381 262.602C228.315 262.602 228.262 262.668 228.262 262.749C228.262 262.83 228.315 262.896 228.381 262.896Z" fill="#FF8800" stroke="white"/>
<path d="M60.6982 314.561L228.381 252.696" stroke="#11F1FF" stroke-width="2"/>
<path d="M60.6984 314.708C60.7641 314.708 60.8174 314.642 60.8174 314.56C60.8174 314.479 60.7641 314.413 60.6984 314.413C60.6326 314.413 60.5793 314.479 60.5793 314.56C60.5793 314.642 60.6326 314.708 60.6984 314.708Z" fill="#FFC502" stroke="white"/>
<path d="M228.381 252.844C228.447 252.844 228.5 252.778 228.5 252.696C228.5 252.615 228.447 252.549 228.381 252.549C228.315 252.549 228.262 252.615 228.262 252.696C228.262 252.778 228.315 252.844 228.381 252.844Z" fill="#FFC502" stroke="white"/>
<path d="M60.6982 297.548L228.381 227.95" stroke="#03FF59" stroke-width="2"/>
<path d="M60.6984 297.695C60.7641 297.695 60.8174 297.629 60.8174 297.548C60.8174 297.466 60.7641 297.4 60.6984 297.4C60.6326 297.4 60.5793 297.466 60.5793 297.548C60.5793 297.629 60.6326 297.695 60.6984 297.695Z" fill="#007D8E" stroke="white"/>
<path d="M228.381 228.098C228.447 228.098 228.5 228.032 228.5 227.951C228.5 227.87 228.447 227.804 228.381 227.804C228.315 227.804 228.262 227.87 228.262 227.951C228.262 228.032 228.315 228.098 228.381 228.098Z" fill="#007D8E" stroke="white"/>
<line x1="228" y1="54.5273" x2="228" y2="353.527" stroke="white" stroke-dasharray="2 2"/>
</svg>
