<svg width="232" height="234" viewBox="0 0 232 234" fill="none" xmlns="http://www.w3.org/2000/svg">
<path d="M35.84 185V178H40.84V179H41.84V180H42.84V183H41.84V184H40.84V185H35.84ZM37.84 184H39.84V183H40.84V180H39.84V179H37.84V184ZM43.76 185V180H44.76V179H45.76V178H48.76V179H49.76V180H50.76V185H48.76V183H45.76V185H43.76ZM45.76 182H48.76V180H47.76V179H46.76V180H45.76V182ZM52.68 185V184H51.68V183H53.68V184H56.68V182H52.68V181H51.68V179H52.68V178H57.68V179H58.68V180H56.68V179H53.68V181H57.68V182H58.68V184H57.68V185H52.68ZM67.52 185V178H74.52V179H69.52V181H73.52V182H69.52V184H74.52V185H67.52ZM75.44 185V178H77.44V179H78.44V180H79.44V179H80.44V178H82.44V185H80.44V181H79.44V183H78.44V181H77.44V185H75.44ZM83.36 185V178H89.36V179H90.36V182H89.36V183H85.36V185H83.36ZM85.36 182H88.36V179H85.36V182ZM91.28 185V178H97.28V179H98.28V182H96.28V183H97.28V184H98.28V185H95.28V184H94.28V183H93.28V185H91.28ZM93.28 182H95.28V181H96.28V179H93.28V182ZM99.2 185V178H106.2V179H101.2V181H105.2V182H101.2V184H106.2V185H99.2ZM108.12 185V184H107.12V183H109.12V184H112.12V182H108.12V181H107.12V179H108.12V178H113.12V179H114.12V180H112.12V179H109.12V181H113.12V182H114.12V184H113.12V185H108.12ZM115.04 185V180H116.04V179H117.04V178H120.04V179H121.04V180H122.04V185H120.04V183H117.04V185H115.04ZM117.04 182H120.04V180H119.04V179H118.04V180H117.04V182ZM123.96 185V184H122.96V183H124.96V184H127.96V182H123.96V181H122.96V179H123.96V178H128.96V179H129.96V180H127.96V179H124.96V181H128.96V182H129.96V184H128.96V185H123.96ZM138.8 185V178H143.8V179H144.8V180H145.8V183H144.8V184H143.8V185H138.8ZM140.8 184H142.8V183H143.8V180H142.8V179H140.8V184ZM146.72 185V178H153.72V179H148.72V181H152.72V182H148.72V184H153.72V185H146.72ZM163.56 185V184H162.56V183H164.56V184H167.56V178H169.56V184H168.56V185H163.56ZM171.48 185V184H170.48V179H171.48V178H176.48V179H177.48V184H176.48V185H171.48ZM172.48 184H175.48V179H172.48V184ZM180.4 185V184H179.4V183H178.4V180H179.4V179H180.4V178H185.4V179H181.4V180H180.4V183H181.4V184H183.4V182H182.4V181H185.4V185H180.4ZM187.32 185V184H186.32V179H187.32V178H192.32V179H193.32V184H192.32V185H187.32ZM188.32 184H191.32V179H188.32V184ZM195.24 185V184H194.24V183H196.24V184H199.24V182H195.24V181H194.24V179H195.24V178H200.24V179H201.24V180H199.24V179H196.24V181H200.24V182H201.24V184H200.24V185H195.24ZM39.8 196V189H41.8V190H42.8V191H43.8V192H44.8V189H46.8V196H44.8V194H43.8V193H42.8V192H41.8V196H39.8ZM54.72 193V196H52.72V195H49.72V196H47.72V193H48.72V192H49.72V191H50.72V190H49.72V189H51.72V190H52.72V192H53.72V193H54.72ZM53.72 190H52.72V189H53.72V190ZM49.72 190V191H48.72V190H49.72ZM52.72 193H51.72V192H50.72V193H49.72V194H52.72V193ZM56.64 196V195H55.64V190H56.64V189H61.64V190H62.64V195H61.64V196H56.64ZM57.64 195H60.64V190H57.64V195ZM74.48 196V190H72.48V189H78.48V190H76.48V196H74.48ZM79.4 196V189H86.4V190H81.4V192H85.4V193H81.4V195H86.4V196H79.4ZM87.32 196V189H89.32V190H90.32V191H91.32V190H92.32V189H94.32V196H92.32V192H91.32V194H90.32V192H89.32V196H87.32ZM103.16 196V189H109.16V190H110.16V193H109.16V194H105.16V196H103.16ZM105.16 193H108.16V190H105.16V193ZM112.08 196V195H111.08V190H112.08V189H117.08V190H118.08V195H117.08V196H112.08ZM113.08 195H116.08V190H113.08V195ZM120 196V189H122V195H126V196H120ZM131.92 190H130.92V189H131.92V190ZM133.92 191V192H131.92V195H133.92V196H127.92V195H129.92V192H127.92V191H129.92V190H130.92V191H133.92ZM137.84 196V190H135.84V189H141.84V190H139.84V196H137.84ZM143.76 196V195H145.76V190H143.76V189H149.76V190H147.76V195H149.76V196H143.76ZM152.68 196V195H151.68V194H150.68V191H151.68V190H152.68V189H156.68V190H157.68V191H155.68V190H153.68V191H152.68V194H153.68V195H155.68V194H157.68V195H156.68V196H152.68ZM158.6 196V191H159.6V190H160.6V189H163.6V190H164.6V191H165.6V196H163.6V194H160.6V196H158.6ZM160.6 193H163.6V191H162.6V190H161.6V191H160.6V193ZM167.52 196V195H166.52V194H168.52V195H171.52V193H167.52V192H166.52V190H167.52V189H172.52V190H173.52V191H171.52V190H168.52V192H172.52V193H173.52V195H172.52V196H167.52ZM182.36 196V189H187.36V190H188.36V191H189.36V194H188.36V195H187.36V196H182.36ZM184.36 195H186.36V194H187.36V191H186.36V190H184.36V195ZM190.28 196V189H197.28V190H192.28V192H196.28V193H192.28V195H197.28V196H190.28ZM88.28 207V206H90.28V201H88.28V200H94.28V201H92.28V206H94.28V207H88.28ZM95.2 207V200H97.2V201H98.2V202H99.2V203H100.2V200H102.2V207H100.2V205H99.2V204H98.2V203H97.2V207H95.2ZM105.12 207V206H104.12V205H103.12V202H104.12V201H105.12V200H109.12V201H110.12V202H108.12V201H106.12V202H105.12V205H106.12V206H108.12V205H110.12V206H109.12V207H105.12ZM112.04 207V200H114.04V206H118.04V207H112.04ZM119.96 207V206H118.96V200H120.96V206H123.96V200H125.96V206H124.96V207H119.96ZM127.88 207V206H126.88V205H128.88V206H131.88V204H127.88V203H126.88V201H127.88V200H132.88V201H133.88V202H131.88V201H128.88V203H132.88V204H133.88V206H132.88V207H127.88ZM141.8 204V207H139.8V206H136.8V207H134.8V204H135.8V203H136.8V202H137.8V201H136.8V200H138.8V201H139.8V203H140.8V204H141.8ZM140.8 201H139.8V200H140.8V201ZM136.8 201V202H135.8V201H136.8ZM139.8 204H138.8V203H137.8V204H136.8V205H139.8V204ZM143.72 207V206H142.72V201H143.72V200H148.72V201H149.72V206H148.72V207H143.72ZM144.72 206H147.72V201H144.72V206Z" fill="white"/>
<path d="M35.84 186.8H202.16V187.2H35.84V186.8ZM39.8 197.8H198.2V198.2H39.8V197.8ZM87.28 208.8H150.72V209.2H87.28V208.8Z" fill="white"/>
<rect x="3.98623" y="4.54336" width="224.414" height="225.456" stroke="#03FF59" stroke-width="7.2" stroke-dasharray="7.2 7.2"/>
<g filter="url(#filter0_d_1654_3759)">
<path d="M74.256 48.968H60.528V69.912H66.776C72.672 69.912 76.632 74.048 76.632 80.208V136.704C76.632 142.864 72.672 147 66.776 147H60.704L51.024 133.272V84.432C51.024 83.552 51.376 83.112 52.344 83.112H59.648V136.352L62.376 140.4H64.048C66.688 140.4 68.008 138.992 68.008 136.352V80.56C68.008 77.832 66.688 76.512 64.048 76.512H60.352L51.904 69.912V41.4H75.576V47.648C75.576 48.616 75.136 48.968 74.256 48.968ZM83.1447 133.096V128.608L97.9287 41.4H108.665V126.76H114.473V134.416H108.665V147H100.041V134.416H84.4647C83.5847 134.416 83.1447 133.976 83.1447 133.096ZM102.593 48.968L91.2407 126.76H100.129L103.121 48.968H102.593ZM141.687 112.856L134.207 123.416H129.631C125.055 123.416 121.975 120.248 121.975 115.496V51.96L129.367 41.4H134.031C138.607 41.4 141.687 44.568 141.687 49.32V112.856ZM137.639 147H132.183L165.183 41.4H170.639L137.639 147ZM127.959 50.024V73.872L135.703 54.248V49.672C135.703 47.208 134.471 45.976 132.007 45.976H130.687L127.959 50.024ZM131.655 118.84H132.975L135.703 114.792V59.616L127.959 79.152V115.144C127.959 117.608 129.191 118.84 131.655 118.84ZM180.583 136.44L173.191 147H168.527C163.951 147 160.871 143.832 160.871 139.08V77.392L168.351 66.832H172.927C177.503 66.832 180.583 70 180.583 74.664V136.44ZM166.855 75.456V99.304L174.599 79.68V75.104C174.599 72.552 173.367 71.408 170.903 71.408H169.583L166.855 75.456ZM170.551 142.424H171.871L174.599 138.376V85.048L166.855 104.584V138.728C166.855 141.192 168.087 142.424 170.551 142.424Z" fill="white"/>
</g>
<defs>
<filter id="filter0_d_1654_3759" x="51.0239" y="41.4004" width="133.559" height="109.6" filterUnits="userSpaceOnUse" color-interpolation-filters="sRGB">
<feFlood flood-opacity="0" result="BackgroundImageFix"/>
<feColorMatrix in="SourceAlpha" type="matrix" values="0 0 0 0 0 0 0 0 0 0 0 0 0 0 0 0 0 0 127 0" result="hardAlpha"/>
<feOffset dx="4" dy="4"/>
<feComposite in2="hardAlpha" operator="out"/>
<feColorMatrix type="matrix" values="0 0 0 0 0.3 0 0 0 0 0.0011811 0 0 0 0 0.125197 0 0 0 1 0"/>
<feBlend mode="normal" in2="BackgroundImageFix" result="effect1_dropShadow_1654_3759"/>
<feBlend mode="normal" in="SourceGraphic" in2="effect1_dropShadow_1654_3759" result="shape"/>
</filter>
</defs>
</svg>
