<svg width="337" height="419" viewBox="0 0 337 419" fill="none" xmlns="http://www.w3.org/2000/svg">
<g opacity="0.8">
<g style="mix-blend-mode:multiply">
<path d="M9 233.938C9 249.361 12.0378 264.634 17.94 278.883C23.8421 293.132 32.4931 306.079 43.3988 316.984C54.3046 327.89 67.2516 336.541 81.5007 342.443C95.7498 348.346 111.022 351.383 126.445 351.383C141.868 351.383 157.14 348.346 171.389 342.443C185.638 336.541 198.585 327.89 209.491 316.984C220.397 306.079 229.048 293.132 234.95 278.883C240.852 264.634 243.89 249.361 243.89 233.938C243.89 218.515 240.852 203.243 234.95 188.994C229.048 174.745 220.397 161.798 209.491 150.892C198.585 139.986 185.638 131.336 171.389 125.433C157.14 119.531 141.868 116.493 126.445 116.493C111.022 116.493 95.7498 119.531 81.5007 125.433C67.2516 131.336 54.3046 139.986 43.3988 150.892C32.4931 161.798 23.8421 174.745 17.94 188.994C12.0378 203.243 9 218.515 9 233.938Z" fill="url(#paint0_radial_883_23300)"/>
</g>
</g>
<g style="mix-blend-mode:multiply" opacity="0.8">
<path d="M83.3706 172.98C83.3706 202.149 94.9578 230.123 115.583 250.748C136.208 271.374 164.182 282.961 193.351 282.961C222.52 282.961 250.493 271.374 271.119 250.748C291.744 230.123 303.331 202.149 303.331 172.98C303.331 143.812 291.744 115.838 271.119 95.2125C250.493 74.5872 222.52 63 193.351 63C164.182 63 136.208 74.5872 115.583 95.2125C94.9578 115.838 83.3706 143.812 83.3706 172.98Z" fill="url(#paint1_radial_883_23300)"/>
</g>
<g style="mix-blend-mode:multiply" opacity="0.8">
<path d="M94.4717 233.938C94.4717 249.338 97.5048 264.586 103.398 278.813C109.291 293.041 117.929 305.968 128.818 316.857C139.707 327.746 152.634 336.383 166.861 342.276C181.088 348.169 196.336 351.203 211.736 351.203C227.135 351.203 242.384 348.169 256.611 342.276C270.838 336.383 283.765 327.746 294.654 316.857C305.543 305.968 314.181 293.041 320.074 278.813C325.967 264.586 329 249.338 329 233.938C329 218.539 325.967 203.291 320.074 189.063C314.181 174.836 305.543 161.909 294.654 151.02C283.765 140.131 270.838 131.494 256.611 125.601C242.384 119.707 227.135 116.674 211.736 116.674C196.336 116.674 181.088 119.707 166.861 125.601C152.634 131.494 139.707 140.131 128.818 151.02C117.929 161.909 109.291 174.836 103.398 189.063C97.5048 203.291 94.4717 218.539 94.4717 233.938Z" fill="url(#paint2_radial_883_23300)"/>
</g>
<path d="M153.875 216.125V214.25H157.625V206.75H155.75V204.875H157.625V203H161.375V214.25H165.125V216.125H153.875ZM167 216.125V212.375H168.875V210.5H170.75V208.625H174.5V206.75H176.375V204.875H170.75V206.75H167V204.875H168.875V203H178.25V204.875H180.125V208.625H178.25V210.5H176.375V212.375H172.625V214.25H180.125V216.125H167ZM185.75 204.875H183.875V203H187.625V206.75H185.75V204.875ZM195.125 203V204.875H193.25V203H195.125ZM185.75 208.625H182V204.875H183.875V206.75H185.75V208.625ZM191.375 204.875H193.25V206.75H191.375V204.875ZM189.5 206.75H191.375V208.625H189.5V206.75ZM187.625 208.625H189.5V210.5H187.625V208.625ZM185.75 210.5H187.625V212.375H185.75V210.5ZM191.375 210.5H195.125V214.25H193.25V212.375H191.375V210.5ZM183.875 212.375H185.75V214.25H183.875V212.375ZM191.375 214.25H193.25V216.125H189.5V212.375H191.375V214.25ZM182 214.25H183.875V216.125H182V214.25Z" fill="#404040"/>
<path d="M247 184.5V180H248.5V178.5H250V177H251.5V175.5H247V177H244V174H254.5V177H253V178.5H251.5V180H250V184.5H247ZM259 175.5H257.5V174H260.5V177H259V175.5ZM266.5 174V175.5H265V174H266.5ZM259 178.5H256V175.5H257.5V177H259V178.5ZM263.5 175.5H265V177H263.5V175.5ZM262 177H263.5V178.5H262V177ZM260.5 178.5H262V180H260.5V178.5ZM259 180H260.5V181.5H259V180ZM263.5 180H266.5V183H265V181.5H263.5V180ZM257.5 181.5H259V183H257.5V181.5ZM263.5 183H265V184.5H262V181.5H263.5V183ZM256 183H257.5V184.5H256V183Z" fill="#404040"/>
<path d="M39.5 253.5V252H42.5V246H41V244.5H42.5V243H45.5V252H48.5V253.5H39.5ZM51.5 253.5V252H54.5V246H53V244.5H54.5V243H57.5V252H60.5V253.5H51.5ZM65 244.5H63.5V243H66.5V246H65V244.5ZM72.5 243V244.5H71V243H72.5ZM65 247.5H62V244.5H63.5V246H65V247.5ZM69.5 244.5H71V246H69.5V244.5ZM68 246H69.5V247.5H68V246ZM66.5 247.5H68V249H66.5V247.5ZM65 249H66.5V250.5H65V249ZM69.5 249H72.5V252H71V250.5H69.5V249ZM63.5 250.5H65V252H63.5V250.5ZM69.5 252H71V253.5H68V250.5H69.5V252ZM62 252H63.5V253.5H62V252Z" fill="#404040"/>
<path d="M179.5 96.5V95H178V89H179.5V87.5H181V86H187V87.5H182.5V89H181V90.5H187V92H188.5V95H187V96.5H179.5ZM181 95H185.5V92H181V95ZM193 87.5H191.5V86H194.5V89H193V87.5ZM200.5 86V87.5H199V86H200.5ZM193 90.5H190V87.5H191.5V89H193V90.5ZM197.5 87.5H199V89H197.5V87.5ZM196 89H197.5V90.5H196V89ZM194.5 90.5H196V92H194.5V90.5ZM193 92H194.5V93.5H193V92ZM197.5 92H200.5V95H199V93.5H197.5V92ZM191.5 93.5H193V95H191.5V93.5ZM197.5 95H199V96.5H196V93.5H197.5V95ZM190 95H191.5V96.5H190V95Z" fill="#404040"/>
<path d="M265 296.5V292H266.5V290.5H268V289H269.5V287.5H265V289H262V286H272.5V289H271V290.5H269.5V292H268V296.5H265ZM277 287.5H275.5V286H278.5V289H277V287.5ZM284.5 286V287.5H283V286H284.5ZM277 290.5H274V287.5H275.5V289H277V290.5ZM281.5 287.5H283V289H281.5V287.5ZM280 289H281.5V290.5H280V289ZM278.5 290.5H280V292H278.5V290.5ZM277 292H278.5V293.5H277V292ZM281.5 292H284.5V295H283V293.5H281.5V292ZM275.5 293.5H277V295H275.5V293.5ZM281.5 295H283V296.5H280V293.5H281.5V295ZM274 295H275.5V296.5H274V295Z" fill="#404040"/>
<path d="M101.5 144.5V143H100V141.5H103V143H107.5V140H103V138.5H104.5V137H106V135.5H101.5V134H110.5V135.5H109V137H107.5V138.5H109V140H110.5V143H109V144.5H101.5ZM115 135.5H113.5V134H116.5V137H115V135.5ZM122.5 134V135.5H121V134H122.5ZM115 138.5H112V135.5H113.5V137H115V138.5ZM119.5 135.5H121V137H119.5V135.5ZM118 137H119.5V138.5H118V137ZM116.5 138.5H118V140H116.5V138.5ZM115 140H116.5V141.5H115V140ZM119.5 140H122.5V143H121V141.5H119.5V140ZM113.5 141.5H115V143H113.5V141.5ZM119.5 143H121V144.5H118V141.5H119.5V143ZM112 143H113.5V144.5H112V143Z" fill="#404040"/>
<path d="M157.5 311.5V310H156V308.5H159V310H163.5V305.5H156V301H165V302.5H159V304H165V305.5H166.5V310H165V311.5H157.5ZM171 302.5H169.5V301H172.5V304H171V302.5ZM178.5 301V302.5H177V301H178.5ZM171 305.5H168V302.5H169.5V304H171V305.5ZM175.5 302.5H177V304H175.5V302.5ZM174 304H175.5V305.5H174V304ZM172.5 305.5H174V307H172.5V305.5ZM171 307H172.5V308.5H171V307ZM175.5 307H178.5V310H177V308.5H175.5V307ZM169.5 308.5H171V310H169.5V308.5ZM175.5 310H177V311.5H174V308.5H175.5V310ZM168 310H169.5V311.5H168V310Z" fill="#404040"/>
<path d="M159.976 16V10.4H160.928V16H159.976ZM158.808 16V15.16H162.104V16H158.808ZM158.808 11.24V10.4H162.104V11.24H158.808ZM165.45 16.096C165.146 16.096 164.861 16.0373 164.594 15.92C164.33 15.8 164.099 15.632 163.902 15.416C163.705 15.2 163.557 14.9467 163.458 14.656L164.322 14.336C164.442 14.592 164.61 14.8 164.826 14.96C165.045 15.12 165.279 15.2 165.53 15.2C165.77 15.2 165.966 15.1387 166.118 15.016C166.27 14.8933 166.346 14.7147 166.346 14.48C166.346 14.328 166.293 14.1933 166.186 14.076C166.079 13.956 165.938 13.8467 165.762 13.748C165.589 13.6493 165.399 13.5547 165.194 13.464C165.015 13.3867 164.835 13.3 164.654 13.204C164.475 13.108 164.31 12.9947 164.158 12.864C164.009 12.7333 163.887 12.58 163.794 12.404C163.703 12.228 163.658 12.0213 163.658 11.784C163.658 11.5147 163.729 11.268 163.87 11.044C164.011 10.82 164.211 10.6413 164.47 10.508C164.729 10.372 165.034 10.304 165.386 10.304C165.807 10.304 166.169 10.4173 166.47 10.644C166.774 10.8707 166.975 11.1547 167.074 11.496L166.218 11.784C166.138 11.6187 166.023 11.48 165.874 11.368C165.725 11.256 165.543 11.2 165.33 11.2C165.13 11.2 164.961 11.2507 164.822 11.352C164.686 11.4533 164.618 11.592 164.618 11.768C164.618 11.8907 164.657 11.9973 164.734 12.088C164.814 12.1787 164.93 12.2667 165.082 12.352C165.237 12.4373 165.426 12.5333 165.65 12.64C165.831 12.7253 166.018 12.8213 166.21 12.928C166.402 13.032 166.581 13.1533 166.746 13.292C166.914 13.4307 167.049 13.5933 167.15 13.78C167.254 13.9667 167.306 14.184 167.306 14.432C167.306 14.7867 167.219 15.088 167.046 15.336C166.875 15.584 166.649 15.7733 166.366 15.904C166.086 16.032 165.781 16.096 165.45 16.096ZM174.765 16V10.4H175.717V16H174.765ZM173.597 16V15.16H176.893V16H173.597ZM173.597 11.24V10.4H176.893V11.24H173.597ZM178.319 16V10.4H179.223L180.967 13.856C180.991 13.8987 181.024 13.96 181.067 14.04C181.11 14.12 181.143 14.1867 181.167 14.24C181.164 14.1707 181.16 14.1013 181.155 14.032C181.152 13.9627 181.151 13.904 181.151 13.856V10.4H182.031V16H181.167L179.391 12.528C179.367 12.4827 179.334 12.42 179.291 12.34C179.248 12.26 179.212 12.1947 179.183 12.144C179.196 12.2027 179.203 12.268 179.203 12.34C179.206 12.412 179.207 12.4747 179.207 12.528V16H178.319ZM184.625 16V11.312H183.001V10.4H187.209V11.312H185.577V16H184.625ZM188.178 16V10.4H191.77V11.304H189.13V12.656H190.85V13.56H189.13V15.096H191.938V16H188.178ZM193.108 16V10.4H195.044C195.505 10.4 195.869 10.48 196.136 10.64C196.403 10.8 196.592 11.0093 196.704 11.268C196.819 11.5267 196.876 11.8027 196.876 12.096C196.876 12.304 196.841 12.5067 196.772 12.704C196.703 12.8987 196.599 13.076 196.46 13.236C196.321 13.3933 196.147 13.5227 195.936 13.624C195.728 13.7253 195.484 13.7867 195.204 13.808H194.06V16H193.108ZM195.812 16L194.668 13.696L195.684 13.592L196.868 16H195.812ZM194.06 12.912H195.06C195.273 12.912 195.441 12.8733 195.564 12.796C195.687 12.7187 195.773 12.6187 195.824 12.496C195.875 12.3733 195.9 12.2427 195.9 12.104C195.9 11.9787 195.876 11.8547 195.828 11.732C195.78 11.6067 195.695 11.5027 195.572 11.42C195.452 11.3373 195.281 11.296 195.06 11.296H194.06V12.912ZM198.038 16V10.4H201.63V11.304H198.99V12.656H200.71V13.56H198.99V15.096H201.798V16H198.038ZM204.887 16.096C204.583 16.096 204.298 16.0373 204.031 15.92C203.767 15.8 203.537 15.632 203.339 15.416C203.142 15.2 202.994 14.9467 202.895 14.656L203.759 14.336C203.879 14.592 204.047 14.8 204.263 14.96C204.482 15.12 204.717 15.2 204.967 15.2C205.207 15.2 205.403 15.1387 205.555 15.016C205.707 14.8933 205.783 14.7147 205.783 14.48C205.783 14.328 205.73 14.1933 205.623 14.076C205.517 13.956 205.375 13.8467 205.199 13.748C205.026 13.6493 204.837 13.5547 204.631 13.464C204.453 13.3867 204.273 13.3 204.091 13.204C203.913 13.108 203.747 12.9947 203.595 12.864C203.446 12.7333 203.325 12.58 203.231 12.404C203.141 12.228 203.095 12.0213 203.095 11.784C203.095 11.5147 203.166 11.268 203.307 11.044C203.449 10.82 203.649 10.6413 203.907 10.508C204.166 10.372 204.471 10.304 204.823 10.304C205.245 10.304 205.606 10.4173 205.907 10.644C206.211 10.8707 206.413 11.1547 206.511 11.496L205.655 11.784C205.575 11.6187 205.461 11.48 205.311 11.368C205.162 11.256 204.981 11.2 204.767 11.2C204.567 11.2 204.398 11.2507 204.259 11.352C204.123 11.4533 204.055 11.592 204.055 11.768C204.055 11.8907 204.094 11.9973 204.171 12.088C204.251 12.1787 204.367 12.2667 204.519 12.352C204.674 12.4373 204.863 12.5333 205.087 12.64C205.269 12.7253 205.455 12.8213 205.647 12.928C205.839 13.032 206.018 13.1533 206.183 13.292C206.351 13.4307 206.486 13.5933 206.587 13.78C206.691 13.9667 206.743 14.184 206.743 14.432C206.743 14.7867 206.657 15.088 206.483 15.336C206.313 15.584 206.086 15.7733 205.803 15.904C205.523 16.032 205.218 16.096 204.887 16.096ZM209.273 16V11.312H207.649V10.4H211.857V11.312H210.225V16H209.273ZM212.827 16V10.4H216.419V11.304H213.779V12.656H215.499V13.56H213.779V15.096H216.587V16H212.827ZM217.756 16V10.4H219.164C219.634 10.4 220.031 10.48 220.356 10.64C220.684 10.7973 220.95 11.0107 221.152 11.28C221.358 11.5467 221.507 11.8467 221.6 12.18C221.694 12.5107 221.74 12.8507 221.74 13.2C221.74 13.52 221.696 13.844 221.608 14.172C221.52 14.5 221.375 14.8027 221.172 15.08C220.972 15.3573 220.706 15.58 220.372 15.748C220.039 15.916 219.626 16 219.132 16H217.756ZM218.708 15.104H219.228C219.514 15.104 219.754 15.048 219.948 14.936C220.143 14.8213 220.299 14.6707 220.416 14.484C220.534 14.2973 220.618 14.092 220.668 13.868C220.722 13.644 220.748 13.4213 220.748 13.2C220.748 12.9627 220.72 12.732 220.664 12.508C220.611 12.2813 220.527 12.0773 220.412 11.896C220.298 11.712 220.15 11.5667 219.968 11.46C219.787 11.3507 219.57 11.296 219.316 11.296H218.708V15.104ZM155.047 26V20.4H155.999V26H155.047ZM153.879 26V25.16H157.174V26H153.879ZM153.879 21.24V20.4H157.174V21.24H153.879ZM158.6 26V20.4H159.504L161.248 23.856C161.272 23.8987 161.306 23.96 161.348 24.04C161.391 24.12 161.424 24.1867 161.448 24.24C161.446 24.1707 161.442 24.1013 161.436 24.032C161.434 23.9627 161.432 23.904 161.432 23.856V20.4H162.312V26H161.448L159.672 22.528C159.648 22.4827 159.615 22.42 159.572 22.34C159.53 22.26 159.494 22.1947 159.464 22.144C159.478 22.2027 159.484 22.268 159.484 22.34C159.487 22.412 159.488 22.4747 159.488 22.528V26H158.6ZM170.412 26.088C170.006 26.088 169.662 26.0053 169.38 25.84C169.097 25.672 168.869 25.4493 168.696 25.172C168.522 24.892 168.396 24.5813 168.316 24.24C168.236 23.896 168.196 23.5493 168.196 23.2C168.196 22.864 168.236 22.5267 168.316 22.188C168.398 21.8467 168.528 21.5347 168.704 21.252C168.88 20.9693 169.108 20.7427 169.388 20.572C169.67 20.3987 170.012 20.312 170.412 20.312C170.726 20.312 170.998 20.3693 171.228 20.484C171.46 20.596 171.652 20.7413 171.804 20.92C171.956 21.0987 172.07 21.2853 172.148 21.48L171.3 21.888C171.193 21.68 171.072 21.516 170.936 21.396C170.802 21.276 170.628 21.216 170.412 21.216C170.185 21.216 169.993 21.276 169.836 21.396C169.678 21.516 169.55 21.6747 169.452 21.872C169.356 22.0693 169.286 22.284 169.244 22.516C169.201 22.748 169.18 22.976 169.18 23.2C169.18 23.4373 169.204 23.6733 169.252 23.908C169.302 24.1427 169.377 24.356 169.476 24.548C169.577 24.74 169.705 24.8947 169.86 25.012C170.017 25.1267 170.201 25.184 170.412 25.184C170.628 25.184 170.806 25.1173 170.948 24.984C171.089 24.848 171.209 24.6747 171.308 24.464L172.172 24.792C172.07 25.04 171.94 25.2627 171.78 25.46C171.622 25.6547 171.43 25.808 171.204 25.92C170.977 26.032 170.713 26.088 170.412 26.088ZM173.389 26V20.4H174.341V22.664H176.149V20.4H177.101V26H176.149V23.56H174.341V26H173.389ZM177.895 26L179.727 20.4H180.623L182.455 26H181.431L180.311 22.24C180.298 22.1973 180.282 22.14 180.263 22.068C180.247 21.996 180.231 21.92 180.215 21.84C180.199 21.76 180.186 21.6853 180.175 21.616C180.162 21.6853 180.147 21.76 180.131 21.84C180.115 21.92 180.099 21.996 180.083 22.068C180.067 22.14 180.052 22.1973 180.039 22.24L178.919 26H177.895ZM179.079 24.768L179.335 23.904H181.015L181.271 24.768H179.079ZM183.249 26V20.4H184.177L184.985 23.472C185.006 23.552 185.031 23.6467 185.061 23.756C185.09 23.8627 185.11 23.952 185.121 24.024C185.134 23.952 185.154 23.8627 185.181 23.756C185.21 23.6467 185.235 23.552 185.257 23.472L186.089 20.4H186.961V26H186.137V22.96C186.137 22.8987 186.137 22.82 186.137 22.724C186.139 22.628 186.145 22.552 186.153 22.496C186.129 22.5627 186.102 22.6373 186.073 22.72C186.046 22.8027 186.022 22.8827 186.001 22.96L185.145 26H185.065L184.209 22.96C184.187 22.8827 184.162 22.8027 184.133 22.72C184.106 22.6347 184.081 22.56 184.057 22.496C184.062 22.552 184.066 22.628 184.069 22.724C184.071 22.82 184.073 22.8987 184.073 22.96V26H183.249ZM188.178 26V20.4H190.154C190.618 20.4 190.986 20.4853 191.258 20.656C191.533 20.8267 191.729 21.0453 191.846 21.312C191.966 21.576 192.026 21.8507 192.026 22.136C192.026 22.336 191.992 22.5387 191.922 22.744C191.853 22.9467 191.744 23.1333 191.594 23.304C191.445 23.4747 191.252 23.612 191.014 23.716C190.777 23.82 190.49 23.872 190.154 23.872H189.13V26H188.178ZM189.13 22.976H190.202C190.41 22.976 190.577 22.9347 190.702 22.852C190.828 22.7667 190.918 22.66 190.974 22.532C191.03 22.4013 191.058 22.2693 191.058 22.136C191.058 22.016 191.033 21.892 190.982 21.764C190.932 21.6333 190.844 21.5227 190.718 21.432C190.596 21.3413 190.424 21.296 190.202 21.296H189.13V22.976ZM194.484 26V20.4H195.436V26H194.484ZM193.316 26V25.16H196.612V26H193.316ZM193.316 21.24V20.4H196.612V21.24H193.316ZM199.894 26.096C199.518 26.096 199.195 26.0173 198.926 25.86C198.659 25.7 198.44 25.484 198.27 25.212C198.099 24.94 197.974 24.6307 197.894 24.284C197.814 23.9373 197.774 23.576 197.774 23.2C197.774 22.824 197.814 22.4627 197.894 22.116C197.974 21.7693 198.099 21.46 198.27 21.188C198.44 20.916 198.659 20.7013 198.926 20.544C199.195 20.384 199.518 20.304 199.894 20.304C200.27 20.304 200.592 20.384 200.862 20.544C201.131 20.7013 201.351 20.916 201.522 21.188C201.692 21.46 201.818 21.7693 201.898 22.116C201.98 22.4627 202.022 22.824 202.022 23.2C202.022 23.576 201.98 23.9373 201.898 24.284C201.818 24.6307 201.692 24.94 201.522 25.212C201.351 25.484 201.131 25.7 200.862 25.86C200.592 26.0173 200.27 26.096 199.894 26.096ZM199.894 25.192C200.091 25.192 200.262 25.136 200.406 25.024C200.55 24.912 200.667 24.7613 200.758 24.572C200.851 24.3827 200.919 24.1693 200.962 23.932C201.007 23.6947 201.03 23.4507 201.03 23.2C201.03 22.9333 201.007 22.6813 200.962 22.444C200.919 22.204 200.852 21.992 200.762 21.808C200.671 21.6213 200.554 21.4747 200.41 21.368C200.266 21.2613 200.094 21.208 199.894 21.208C199.694 21.208 199.522 21.264 199.378 21.376C199.234 21.4853 199.116 21.6347 199.026 21.824C198.935 22.0133 198.867 22.2267 198.822 22.464C198.779 22.7013 198.758 22.9467 198.758 23.2C198.758 23.464 198.779 23.716 198.822 23.956C198.867 24.1933 198.935 24.4053 199.026 24.592C199.116 24.7787 199.234 24.9253 199.378 25.032C199.522 25.1387 199.694 25.192 199.894 25.192ZM202.967 26V20.4H203.871L205.615 23.856C205.639 23.8987 205.673 23.96 205.715 24.04C205.758 24.12 205.791 24.1867 205.815 24.24C205.813 24.1707 205.809 24.1013 205.803 24.032C205.801 23.9627 205.799 23.904 205.799 23.856V20.4H206.679V26H205.815L204.039 22.528C204.015 22.4827 203.982 22.42 203.939 22.34C203.897 22.26 203.861 22.1947 203.831 22.144C203.845 22.2027 203.851 22.268 203.851 22.34C203.854 22.412 203.855 22.4747 203.855 22.528V26H202.967ZM209.817 26.096C209.513 26.096 209.228 26.0373 208.961 25.92C208.697 25.8 208.466 25.632 208.269 25.416C208.072 25.2 207.924 24.9467 207.825 24.656L208.689 24.336C208.809 24.592 208.977 24.8 209.193 24.96C209.412 25.12 209.646 25.2 209.897 25.2C210.137 25.2 210.333 25.1387 210.485 25.016C210.637 24.8933 210.713 24.7147 210.713 24.48C210.713 24.328 210.66 24.1933 210.553 24.076C210.446 23.956 210.305 23.8467 210.129 23.748C209.956 23.6493 209.766 23.5547 209.561 23.464C209.382 23.3867 209.202 23.3 209.021 23.204C208.842 23.108 208.677 22.9947 208.525 22.864C208.376 22.7333 208.254 22.58 208.161 22.404C208.07 22.228 208.025 22.0213 208.025 21.784C208.025 21.5147 208.096 21.268 208.237 21.044C208.378 20.82 208.578 20.6413 208.837 20.508C209.096 20.372 209.401 20.304 209.753 20.304C210.174 20.304 210.536 20.4173 210.837 20.644C211.141 20.8707 211.342 21.1547 211.441 21.496L210.585 21.784C210.505 21.6187 210.39 21.48 210.241 21.368C210.092 21.256 209.91 21.2 209.697 21.2C209.497 21.2 209.328 21.2507 209.189 21.352C209.053 21.4533 208.985 21.592 208.985 21.768C208.985 21.8907 209.024 21.9973 209.101 22.088C209.181 22.1787 209.297 22.2667 209.449 22.352C209.604 22.4373 209.793 22.5333 210.017 22.64C210.198 22.7253 210.385 22.8213 210.577 22.928C210.769 23.032 210.948 23.1533 211.113 23.292C211.281 23.4307 211.416 23.5933 211.517 23.78C211.621 23.9667 211.673 24.184 211.673 24.432C211.673 24.7867 211.586 25.088 211.413 25.336C211.242 25.584 211.016 25.7733 210.733 25.904C210.453 26.032 210.148 26.096 209.817 26.096ZM212.827 26V20.4H213.779V22.664H215.587V20.4H216.539V26H215.587V23.56H213.779V26H212.827ZM219.132 26V20.4H220.084V26H219.132ZM217.964 26V25.16H221.26V26H217.964ZM217.964 21.24V20.4H221.26V21.24H217.964ZM222.686 26V20.4H224.662C225.126 20.4 225.494 20.4853 225.766 20.656C226.041 20.8267 226.237 21.0453 226.354 21.312C226.474 21.576 226.534 21.8507 226.534 22.136C226.534 22.336 226.499 22.5387 226.43 22.744C226.361 22.9467 226.251 23.1333 226.102 23.304C225.953 23.4747 225.759 23.612 225.522 23.716C225.285 23.82 224.998 23.872 224.662 23.872H223.638V26H222.686ZM223.638 22.976H224.71C224.918 22.976 225.085 22.9347 225.21 22.852C225.335 22.7667 225.426 22.66 225.482 22.532C225.538 22.4013 225.566 22.2693 225.566 22.136C225.566 22.016 225.541 21.892 225.49 21.764C225.439 21.6333 225.351 21.5227 225.226 21.432C225.103 21.3413 224.931 21.296 224.71 21.296H223.638V22.976ZM229.536 26.096C229.232 26.096 228.946 26.0373 228.68 25.92C228.416 25.8 228.185 25.632 227.988 25.416C227.79 25.2 227.642 24.9467 227.544 24.656L228.408 24.336C228.528 24.592 228.696 24.8 228.912 24.96C229.13 25.12 229.365 25.2 229.616 25.2C229.856 25.2 230.052 25.1387 230.204 25.016C230.356 24.8933 230.432 24.7147 230.432 24.48C230.432 24.328 230.378 24.1933 230.272 24.076C230.165 23.956 230.024 23.8467 229.848 23.748C229.674 23.6493 229.485 23.5547 229.28 23.464C229.101 23.3867 228.921 23.3 228.74 23.204C228.561 23.108 228.396 22.9947 228.244 22.864C228.094 22.7333 227.973 22.58 227.88 22.404C227.789 22.228 227.744 22.0213 227.744 21.784C227.744 21.5147 227.814 21.268 227.956 21.044C228.097 20.82 228.297 20.6413 228.556 20.508C228.814 20.372 229.12 20.304 229.472 20.304C229.893 20.304 230.254 20.4173 230.556 20.644C230.86 20.8707 231.061 21.1547 231.16 21.496L230.304 21.784C230.224 21.6187 230.109 21.48 229.96 21.368C229.81 21.256 229.629 21.2 229.416 21.2C229.216 21.2 229.046 21.2507 228.908 21.352C228.772 21.4533 228.704 21.592 228.704 21.768C228.704 21.8907 228.742 21.9973 228.82 22.088C228.9 22.1787 229.016 22.2667 229.168 22.352C229.322 22.4373 229.512 22.5333 229.736 22.64C229.917 22.7253 230.104 22.8213 230.296 22.928C230.488 23.032 230.666 23.1533 230.832 23.292C231 23.4307 231.134 23.5933 231.236 23.78C231.34 23.9667 231.392 24.184 231.392 24.432C231.392 24.7867 231.305 25.088 231.132 25.336C230.961 25.584 230.734 25.7733 230.452 25.904C230.172 26.032 229.866 26.096 229.536 26.096Z" fill="#00BBB7"/>
<path d="M175 43.5V40.5H176.5V39H178V37.5H181V36H182.5V34.5H178V36H175V34.5H176.5V33H184V34.5H185.5V37.5H184V39H182.5V40.5H179.5V42H185.5V43.5H175ZM188.5 43.5V42H187V39H188.5V37.5H187V34.5H188.5V33H194.5V34.5H196V37.5H194.5V39H197.5V42H196V43.5H188.5ZM191.5 37.5H194.5V34.5H190V36H191.5V37.5ZM188.5 42H194.5V40.5H191.5V39H188.5V42ZM202 34.5H200.5V33H203.5V36H202V34.5ZM209.5 33V34.5H208V33H209.5ZM202 37.5H199V34.5H200.5V36H202V37.5ZM206.5 34.5H208V36H206.5V34.5ZM205 36H206.5V37.5H205V36ZM203.5 37.5H205V39H203.5V37.5ZM202 39H203.5V40.5H202V39ZM206.5 39H209.5V42H208V40.5H206.5V39ZM200.5 40.5H202V42H200.5V40.5ZM206.5 42H208V43.5H205V40.5H206.5V42ZM199 42H200.5V43.5H199V42Z" fill="#00BBB7"/>
<path d="M37.4869 370V364.4H38.4389V366.664H40.2469V364.4H41.1989V370H40.2469V367.56H38.4389V370H37.4869ZM41.9926 370L43.8246 364.4H44.7206L46.5526 370H45.5286L44.4086 366.24C44.3953 366.197 44.3793 366.14 44.3606 366.068C44.3446 365.996 44.3286 365.92 44.3126 365.84C44.2966 365.76 44.2833 365.685 44.2726 365.616C44.2593 365.685 44.2446 365.76 44.2286 365.84C44.2126 365.92 44.1966 365.996 44.1806 366.068C44.1646 366.14 44.1499 366.197 44.1366 366.24L43.0166 370H41.9926ZM43.1766 368.768L43.4326 367.904H45.1126L45.3686 368.768H43.1766ZM49.2663 370.096C48.9623 370.096 48.6769 370.037 48.4103 369.92C48.1463 369.8 47.9156 369.632 47.7183 369.416C47.5209 369.2 47.3729 368.947 47.2743 368.656L48.1383 368.336C48.2583 368.592 48.4263 368.8 48.6423 368.96C48.8609 369.12 49.0956 369.2 49.3463 369.2C49.5863 369.2 49.7823 369.139 49.9343 369.016C50.0863 368.893 50.1623 368.715 50.1623 368.48C50.1623 368.328 50.1089 368.193 50.0023 368.076C49.8956 367.956 49.7543 367.847 49.5783 367.748C49.4049 367.649 49.2156 367.555 49.0103 367.464C48.8316 367.387 48.6516 367.3 48.4703 367.204C48.2916 367.108 48.1263 366.995 47.9743 366.864C47.8249 366.733 47.7036 366.58 47.6103 366.404C47.5196 366.228 47.4743 366.021 47.4743 365.784C47.4743 365.515 47.5449 365.268 47.6863 365.044C47.8276 364.82 48.0276 364.641 48.2863 364.508C48.5449 364.372 48.8503 364.304 49.2023 364.304C49.6236 364.304 49.9849 364.417 50.2863 364.644C50.5903 364.871 50.7916 365.155 50.8903 365.496L50.0343 365.784C49.9543 365.619 49.8396 365.48 49.6903 365.368C49.5409 365.256 49.3596 365.2 49.1463 365.2C48.9463 365.2 48.7769 365.251 48.6383 365.352C48.5023 365.453 48.4343 365.592 48.4343 365.768C48.4343 365.891 48.4729 365.997 48.5503 366.088C48.6303 366.179 48.7463 366.267 48.8983 366.352C49.0529 366.437 49.2423 366.533 49.4663 366.64C49.6476 366.725 49.8343 366.821 50.0263 366.928C50.2183 367.032 50.3969 367.153 50.5623 367.292C50.7303 367.431 50.8649 367.593 50.9663 367.78C51.0703 367.967 51.1223 368.184 51.1223 368.432C51.1223 368.787 51.0356 369.088 50.8623 369.336C50.6916 369.584 50.4649 369.773 50.1823 369.904C49.9023 370.032 49.5969 370.096 49.2663 370.096ZM59.1577 370.088C58.7523 370.088 58.4083 370.005 58.1257 369.84C57.843 369.672 57.615 369.449 57.4417 369.172C57.2683 368.892 57.1417 368.581 57.0617 368.24C56.9817 367.896 56.9417 367.549 56.9417 367.2C56.9417 366.864 56.9817 366.527 57.0617 366.188C57.1443 365.847 57.2737 365.535 57.4497 365.252C57.6257 364.969 57.8537 364.743 58.1337 364.572C58.4163 364.399 58.7577 364.312 59.1577 364.312C59.4723 364.312 59.7443 364.369 59.9737 364.484C60.2057 364.596 60.3977 364.741 60.5497 364.92C60.7017 365.099 60.8163 365.285 60.8937 365.48L60.0457 365.888C59.939 365.68 59.8177 365.516 59.6817 365.396C59.5483 365.276 59.3737 365.216 59.1577 365.216C58.931 365.216 58.739 365.276 58.5817 365.396C58.4243 365.516 58.2963 365.675 58.1977 365.872C58.1017 366.069 58.0323 366.284 57.9897 366.516C57.947 366.748 57.9257 366.976 57.9257 367.2C57.9257 367.437 57.9497 367.673 57.9977 367.908C58.0483 368.143 58.123 368.356 58.2217 368.548C58.323 368.74 58.451 368.895 58.6057 369.012C58.763 369.127 58.947 369.184 59.1577 369.184C59.3737 369.184 59.5523 369.117 59.6937 368.984C59.835 368.848 59.955 368.675 60.0537 368.464L60.9177 368.792C60.8163 369.04 60.6857 369.263 60.5257 369.46C60.3683 369.655 60.1763 369.808 59.9497 369.92C59.723 370.032 59.459 370.088 59.1577 370.088ZM63.9913 370.096C63.6153 370.096 63.2927 370.017 63.0233 369.86C62.7567 369.7 62.538 369.484 62.3673 369.212C62.1967 368.94 62.0713 368.631 61.9913 368.284C61.9113 367.937 61.8713 367.576 61.8713 367.2C61.8713 366.824 61.9113 366.463 61.9913 366.116C62.0713 365.769 62.1967 365.46 62.3673 365.188C62.538 364.916 62.7567 364.701 63.0233 364.544C63.2927 364.384 63.6153 364.304 63.9913 364.304C64.3673 364.304 64.69 364.384 64.9593 364.544C65.2287 364.701 65.4487 364.916 65.6193 365.188C65.79 365.46 65.9153 365.769 65.9953 366.116C66.078 366.463 66.1193 366.824 66.1193 367.2C66.1193 367.576 66.078 367.937 65.9953 368.284C65.9153 368.631 65.79 368.94 65.6193 369.212C65.4487 369.484 65.2287 369.7 64.9593 369.86C64.69 370.017 64.3673 370.096 63.9913 370.096ZM63.9913 369.192C64.1887 369.192 64.3593 369.136 64.5033 369.024C64.6473 368.912 64.7647 368.761 64.8553 368.572C64.9487 368.383 65.0167 368.169 65.0593 367.932C65.1047 367.695 65.1273 367.451 65.1273 367.2C65.1273 366.933 65.1047 366.681 65.0593 366.444C65.0167 366.204 64.95 365.992 64.8593 365.808C64.7687 365.621 64.6513 365.475 64.5073 365.368C64.3633 365.261 64.1913 365.208 63.9913 365.208C63.7913 365.208 63.6193 365.264 63.4753 365.376C63.3313 365.485 63.214 365.635 63.1233 365.824C63.0327 366.013 62.9647 366.227 62.9193 366.464C62.8767 366.701 62.8553 366.947 62.8553 367.2C62.8553 367.464 62.8767 367.716 62.9193 367.956C62.9647 368.193 63.0327 368.405 63.1233 368.592C63.214 368.779 63.3313 368.925 63.4753 369.032C63.6193 369.139 63.7913 369.192 63.9913 369.192ZM67.065 370V364.4H67.969L69.713 367.856C69.737 367.899 69.7704 367.96 69.813 368.04C69.8557 368.12 69.889 368.187 69.913 368.24C69.9104 368.171 69.9064 368.101 69.901 368.032C69.8984 367.963 69.897 367.904 69.897 367.856V364.4H70.777V370H69.913L68.137 366.528C68.113 366.483 68.0797 366.42 68.037 366.34C67.9944 366.26 67.9584 366.195 67.929 366.144C67.9424 366.203 67.949 366.268 67.949 366.34C67.9517 366.412 67.953 366.475 67.953 366.528V370H67.065ZM73.9147 370.096C73.6107 370.096 73.3254 370.037 73.0587 369.92C72.7947 369.8 72.5641 369.632 72.3667 369.416C72.1694 369.2 72.0214 368.947 71.9227 368.656L72.7867 368.336C72.9067 368.592 73.0747 368.8 73.2907 368.96C73.5094 369.12 73.7441 369.2 73.9947 369.2C74.2347 369.2 74.4307 369.139 74.5827 369.016C74.7347 368.893 74.8107 368.715 74.8107 368.48C74.8107 368.328 74.7574 368.193 74.6507 368.076C74.5441 367.956 74.4027 367.847 74.2267 367.748C74.0534 367.649 73.8641 367.555 73.6587 367.464C73.4801 367.387 73.3001 367.3 73.1187 367.204C72.9401 367.108 72.7747 366.995 72.6227 366.864C72.4734 366.733 72.3521 366.58 72.2587 366.404C72.1681 366.228 72.1227 366.021 72.1227 365.784C72.1227 365.515 72.1934 365.268 72.3347 365.044C72.4761 364.82 72.6761 364.641 72.9347 364.508C73.1934 364.372 73.4987 364.304 73.8507 364.304C74.2721 364.304 74.6334 364.417 74.9347 364.644C75.2387 364.871 75.4401 365.155 75.5387 365.496L74.6827 365.784C74.6027 365.619 74.4881 365.48 74.3387 365.368C74.1894 365.256 74.0081 365.2 73.7947 365.2C73.5947 365.2 73.4254 365.251 73.2867 365.352C73.1507 365.453 73.0827 365.592 73.0827 365.768C73.0827 365.891 73.1214 365.997 73.1987 366.088C73.2787 366.179 73.3947 366.267 73.5467 366.352C73.7014 366.437 73.8907 366.533 74.1147 366.64C74.2961 366.725 74.4827 366.821 74.6747 366.928C74.8667 367.032 75.0454 367.153 75.2107 367.292C75.3787 367.431 75.5134 367.593 75.6147 367.78C75.7187 367.967 75.7707 368.184 75.7707 368.432C75.7707 368.787 75.6841 369.088 75.5107 369.336C75.3401 369.584 75.1134 369.773 74.8307 369.904C74.5507 370.032 74.2454 370.096 73.9147 370.096ZM78.3004 370V364.4H79.2524V370H78.3004ZM77.1324 370V369.16H80.4284V370H77.1324ZM77.1324 365.24V364.4H80.4284V365.24H77.1324ZM81.8541 370V364.4H83.2621C83.7314 364.4 84.1288 364.48 84.4541 364.64C84.7821 364.797 85.0474 365.011 85.2501 365.28C85.4554 365.547 85.6048 365.847 85.6981 366.18C85.7914 366.511 85.8381 366.851 85.8381 367.2C85.8381 367.52 85.7941 367.844 85.7061 368.172C85.6181 368.5 85.4728 368.803 85.2701 369.08C85.0701 369.357 84.8034 369.58 84.4701 369.748C84.1368 369.916 83.7234 370 83.2301 370H81.8541ZM82.8061 369.104H83.3261C83.6114 369.104 83.8514 369.048 84.0461 368.936C84.2408 368.821 84.3968 368.671 84.5141 368.484C84.6314 368.297 84.7154 368.092 84.7661 367.868C84.8194 367.644 84.8461 367.421 84.8461 367.2C84.8461 366.963 84.8181 366.732 84.7621 366.508C84.7088 366.281 84.6248 366.077 84.5101 365.896C84.3954 365.712 84.2474 365.567 84.0661 365.46C83.8848 365.351 83.6674 365.296 83.4141 365.296H82.8061V369.104ZM86.7838 370V364.4H90.3758V365.304H87.7358V366.656H89.4558V367.56H87.7358V369.096H90.5438V370H86.7838ZM91.7135 370V364.4H93.6495C94.1108 364.4 94.4748 364.48 94.7415 364.64C95.0081 364.8 95.1975 365.009 95.3095 365.268C95.4241 365.527 95.4815 365.803 95.4815 366.096C95.4815 366.304 95.4468 366.507 95.3775 366.704C95.3081 366.899 95.2041 367.076 95.0655 367.236C94.9268 367.393 94.7521 367.523 94.5415 367.624C94.3335 367.725 94.0895 367.787 93.8095 367.808H92.6655V370H91.7135ZM94.4175 370L93.2735 367.696L94.2895 367.592L95.4735 370H94.4175ZM92.6655 366.912H93.6655C93.8788 366.912 94.0468 366.873 94.1695 366.796C94.2921 366.719 94.3788 366.619 94.4295 366.496C94.4801 366.373 94.5055 366.243 94.5055 366.104C94.5055 365.979 94.4815 365.855 94.4335 365.732C94.3855 365.607 94.3001 365.503 94.1775 365.42C94.0575 365.337 93.8868 365.296 93.6655 365.296H92.6655V366.912ZM96.6432 370V364.4H100.235V365.304H97.5952V366.656H99.3152V367.56H97.5952V369.096H100.403V370H96.6432ZM101.573 370V364.4H102.981C103.45 364.4 103.848 364.48 104.173 364.64C104.501 364.797 104.766 365.011 104.969 365.28C105.174 365.547 105.324 365.847 105.417 366.18C105.51 366.511 105.557 366.851 105.557 367.2C105.557 367.52 105.513 367.844 105.425 368.172C105.337 368.5 105.192 368.803 104.989 369.08C104.789 369.357 104.522 369.58 104.189 369.748C103.856 369.916 103.442 370 102.949 370H101.573ZM102.525 369.104H103.045C103.33 369.104 103.57 369.048 103.765 368.936C103.96 368.821 104.116 368.671 104.233 368.484C104.35 368.297 104.434 368.092 104.485 367.868C104.538 367.644 104.565 367.421 104.565 367.2C104.565 366.963 104.537 366.732 104.481 366.508C104.428 366.281 104.344 366.077 104.229 365.896C104.114 365.712 103.966 365.567 103.785 365.46C103.604 365.351 103.386 365.296 103.133 365.296H102.525V369.104ZM108.103 371.488L107.695 371.224C107.791 371.123 107.895 370.972 108.007 370.772C108.121 370.572 108.191 370.344 108.215 370.088C108.076 370.056 107.963 369.991 107.875 369.892C107.787 369.793 107.743 369.664 107.743 369.504C107.743 369.307 107.805 369.151 107.931 369.036C108.059 368.921 108.204 368.864 108.367 368.864C108.548 368.864 108.703 368.928 108.831 369.056C108.959 369.184 109.023 369.379 109.023 369.64C109.023 369.925 108.973 370.191 108.875 370.436C108.779 370.681 108.66 370.895 108.519 371.076C108.377 371.257 108.239 371.395 108.103 371.488ZM118.314 370.088C117.909 370.088 117.565 370.005 117.282 369.84C116.999 369.672 116.771 369.449 116.598 369.172C116.425 368.892 116.298 368.581 116.218 368.24C116.138 367.896 116.098 367.549 116.098 367.2C116.098 366.864 116.138 366.527 116.218 366.188C116.301 365.847 116.43 365.535 116.606 365.252C116.782 364.969 117.01 364.743 117.29 364.572C117.573 364.399 117.914 364.312 118.314 364.312C118.629 364.312 118.901 364.369 119.13 364.484C119.362 364.596 119.554 364.741 119.706 364.92C119.858 365.099 119.973 365.285 120.05 365.48L119.202 365.888C119.095 365.68 118.974 365.516 118.838 365.396C118.705 365.276 118.53 365.216 118.314 365.216C118.087 365.216 117.895 365.276 117.738 365.396C117.581 365.516 117.453 365.675 117.354 365.872C117.258 366.069 117.189 366.284 117.146 366.516C117.103 366.748 117.082 366.976 117.082 367.2C117.082 367.437 117.106 367.673 117.154 367.908C117.205 368.143 117.279 368.356 117.378 368.548C117.479 368.74 117.607 368.895 117.762 369.012C117.919 369.127 118.103 369.184 118.314 369.184C118.53 369.184 118.709 369.117 118.85 368.984C118.991 368.848 119.111 368.675 119.21 368.464L120.074 368.792C119.973 369.04 119.842 369.263 119.682 369.46C119.525 369.655 119.333 369.808 119.106 369.92C118.879 370.032 118.615 370.088 118.314 370.088ZM123.148 370.096C122.772 370.096 122.449 370.017 122.18 369.86C121.913 369.7 121.694 369.484 121.524 369.212C121.353 368.94 121.228 368.631 121.148 368.284C121.068 367.937 121.028 367.576 121.028 367.2C121.028 366.824 121.068 366.463 121.148 366.116C121.228 365.769 121.353 365.46 121.524 365.188C121.694 364.916 121.913 364.701 122.18 364.544C122.449 364.384 122.772 364.304 123.148 364.304C123.524 364.304 123.846 364.384 124.116 364.544C124.385 364.701 124.605 364.916 124.776 365.188C124.946 365.46 125.072 365.769 125.152 366.116C125.234 366.463 125.276 366.824 125.276 367.2C125.276 367.576 125.234 367.937 125.152 368.284C125.072 368.631 124.946 368.94 124.776 369.212C124.605 369.484 124.385 369.7 124.116 369.86C123.846 370.017 123.524 370.096 123.148 370.096ZM123.148 369.192C123.345 369.192 123.516 369.136 123.66 369.024C123.804 368.912 123.921 368.761 124.012 368.572C124.105 368.383 124.173 368.169 124.216 367.932C124.261 367.695 124.284 367.451 124.284 367.2C124.284 366.933 124.261 366.681 124.216 366.444C124.173 366.204 124.106 365.992 124.016 365.808C123.925 365.621 123.808 365.475 123.664 365.368C123.52 365.261 123.348 365.208 123.148 365.208C122.948 365.208 122.776 365.264 122.632 365.376C122.488 365.485 122.37 365.635 122.28 365.824C122.189 366.013 122.121 366.227 122.076 366.464C122.033 366.701 122.012 366.947 122.012 367.2C122.012 367.464 122.033 367.716 122.076 367.956C122.121 368.193 122.189 368.405 122.28 368.592C122.37 368.779 122.488 368.925 122.632 369.032C122.776 369.139 122.948 369.192 123.148 369.192ZM126.221 370V364.4H127.125L128.869 367.856C128.893 367.899 128.927 367.96 128.969 368.04C129.012 368.12 129.045 368.187 129.069 368.24C129.067 368.171 129.063 368.101 129.057 368.032C129.055 367.963 129.053 367.904 129.053 367.856V364.4H129.933V370H129.069L127.293 366.528C127.269 366.483 127.236 366.42 127.193 366.34C127.151 366.26 127.115 366.195 127.085 366.144C127.099 366.203 127.105 366.268 127.105 366.34C127.108 366.412 127.109 366.475 127.109 366.528V370H126.221ZM133.071 370.096C132.767 370.096 132.482 370.037 132.215 369.92C131.951 369.8 131.72 369.632 131.523 369.416C131.326 369.2 131.178 368.947 131.079 368.656L131.943 368.336C132.063 368.592 132.231 368.8 132.447 368.96C132.666 369.12 132.9 369.2 133.151 369.2C133.391 369.2 133.587 369.139 133.739 369.016C133.891 368.893 133.967 368.715 133.967 368.48C133.967 368.328 133.914 368.193 133.807 368.076C133.7 367.956 133.559 367.847 133.383 367.748C133.21 367.649 133.02 367.555 132.815 367.464C132.636 367.387 132.456 367.3 132.275 367.204C132.096 367.108 131.931 366.995 131.779 366.864C131.63 366.733 131.508 366.58 131.415 366.404C131.324 366.228 131.279 366.021 131.279 365.784C131.279 365.515 131.35 365.268 131.491 365.044C131.632 364.82 131.832 364.641 132.091 364.508C132.35 364.372 132.655 364.304 133.007 364.304C133.428 364.304 133.79 364.417 134.091 364.644C134.395 364.871 134.596 365.155 134.695 365.496L133.839 365.784C133.759 365.619 133.644 365.48 133.495 365.368C133.346 365.256 133.164 365.2 132.951 365.2C132.751 365.2 132.582 365.251 132.443 365.352C132.307 365.453 132.239 365.592 132.239 365.768C132.239 365.891 132.278 365.997 132.355 366.088C132.435 366.179 132.551 366.267 132.703 366.352C132.858 366.437 133.047 366.533 133.271 366.64C133.452 366.725 133.639 366.821 133.831 366.928C134.023 367.032 134.202 367.153 134.367 367.292C134.535 367.431 134.67 367.593 134.771 367.78C134.875 367.967 134.927 368.184 134.927 368.432C134.927 368.787 134.84 369.088 134.667 369.336C134.496 369.584 134.27 369.773 133.987 369.904C133.707 370.032 133.402 370.096 133.071 370.096ZM137.457 370V364.4H138.409V370H137.457ZM136.289 370V369.16H139.585V370H136.289ZM136.289 365.24V364.4H139.585V365.24H136.289ZM141.01 370V364.4H142.418C142.888 364.4 143.285 364.48 143.61 364.64C143.938 364.797 144.204 365.011 144.406 365.28C144.612 365.547 144.761 365.847 144.854 366.18C144.948 366.511 144.994 366.851 144.994 367.2C144.994 367.52 144.95 367.844 144.862 368.172C144.774 368.5 144.629 368.803 144.426 369.08C144.226 369.357 143.96 369.58 143.626 369.748C143.293 369.916 142.88 370 142.386 370H141.01ZM141.962 369.104H142.482C142.768 369.104 143.008 369.048 143.202 368.936C143.397 368.821 143.553 368.671 143.67 368.484C143.788 368.297 143.872 368.092 143.922 367.868C143.976 367.644 144.002 367.421 144.002 367.2C144.002 366.963 143.974 366.732 143.918 366.508C143.865 366.281 143.781 366.077 143.666 365.896C143.552 365.712 143.404 365.567 143.222 365.46C143.041 365.351 142.824 365.296 142.57 365.296H141.962V369.104ZM145.94 370V364.4H149.532V365.304H146.892V366.656H148.612V367.56H146.892V369.096H149.7V370H145.94ZM150.87 370V364.4H152.806C153.267 364.4 153.631 364.48 153.898 364.64C154.164 364.8 154.354 365.009 154.466 365.268C154.58 365.527 154.638 365.803 154.638 366.096C154.638 366.304 154.603 366.507 154.534 366.704C154.464 366.899 154.36 367.076 154.222 367.236C154.083 367.393 153.908 367.523 153.698 367.624C153.49 367.725 153.246 367.787 152.966 367.808H151.822V370H150.87ZM153.574 370L152.43 367.696L153.446 367.592L154.63 370H153.574ZM151.822 366.912H152.822C153.035 366.912 153.203 366.873 153.326 366.796C153.448 366.719 153.535 366.619 153.586 366.496C153.636 366.373 153.662 366.243 153.662 366.104C153.662 365.979 153.638 365.855 153.59 365.732C153.542 365.607 153.456 365.503 153.334 365.42C153.214 365.337 153.043 365.296 152.822 365.296H151.822V366.912ZM157.719 370.096C157.415 370.096 157.13 370.037 156.863 369.92C156.599 369.8 156.369 369.632 156.171 369.416C155.974 369.2 155.826 368.947 155.727 368.656L156.591 368.336C156.711 368.592 156.879 368.8 157.095 368.96C157.314 369.12 157.549 369.2 157.799 369.2C158.039 369.2 158.235 369.139 158.387 369.016C158.539 368.893 158.615 368.715 158.615 368.48C158.615 368.328 158.562 368.193 158.455 368.076C158.349 367.956 158.207 367.847 158.031 367.748C157.858 367.649 157.669 367.555 157.463 367.464C157.285 367.387 157.105 367.3 156.923 367.204C156.745 367.108 156.579 366.995 156.427 366.864C156.278 366.733 156.157 366.58 156.063 366.404C155.973 366.228 155.927 366.021 155.927 365.784C155.927 365.515 155.998 365.268 156.139 365.044C156.281 364.82 156.481 364.641 156.739 364.508C156.998 364.372 157.303 364.304 157.655 364.304C158.077 364.304 158.438 364.417 158.739 364.644C159.043 364.871 159.245 365.155 159.343 365.496L158.487 365.784C158.407 365.619 158.293 365.48 158.143 365.368C157.994 365.256 157.813 365.2 157.599 365.2C157.399 365.2 157.23 365.251 157.091 365.352C156.955 365.453 156.887 365.592 156.887 365.768C156.887 365.891 156.926 365.997 157.003 366.088C157.083 366.179 157.199 366.267 157.351 366.352C157.506 366.437 157.695 366.533 157.919 366.64C158.101 366.725 158.287 366.821 158.479 366.928C158.671 367.032 158.85 367.153 159.015 367.292C159.183 367.431 159.318 367.593 159.419 367.78C159.523 367.967 159.575 368.184 159.575 368.432C159.575 368.787 159.489 369.088 159.315 369.336C159.145 369.584 158.918 369.773 158.635 369.904C158.355 370.032 158.05 370.096 157.719 370.096ZM39.9518 380V374.4H41.8398C42.2931 374.4 42.6504 374.473 42.9118 374.62C43.1731 374.764 43.3584 374.951 43.4678 375.18C43.5771 375.407 43.6318 375.645 43.6318 375.896C43.6318 376.144 43.5718 376.371 43.4518 376.576C43.3344 376.779 43.1518 376.936 42.9038 377.048C43.2158 377.152 43.4464 377.327 43.5958 377.572C43.7478 377.817 43.8238 378.08 43.8238 378.36C43.8238 378.555 43.7918 378.749 43.7278 378.944C43.6638 379.139 43.5584 379.316 43.4118 379.476C43.2678 379.633 43.0771 379.76 42.8398 379.856C42.6024 379.952 42.3091 380 41.9598 380H39.9518ZM40.9038 379.12H42.0238C42.2451 379.12 42.4171 379.083 42.5398 379.008C42.6624 378.931 42.7478 378.835 42.7958 378.72C42.8464 378.603 42.8718 378.485 42.8718 378.368C42.8718 378.229 42.8424 378.097 42.7838 377.972C42.7278 377.844 42.6211 377.74 42.4638 377.66C42.3091 377.577 42.0851 377.536 41.7918 377.536H40.9038V379.12ZM40.9038 376.664H41.7118C42.0398 376.664 42.2824 376.6 42.4398 376.472C42.5998 376.341 42.6798 376.171 42.6798 375.96C42.6798 375.851 42.6584 375.744 42.6158 375.64C42.5758 375.536 42.4971 375.451 42.3798 375.384C42.2624 375.315 42.0904 375.28 41.8638 375.28H40.9038V376.664ZM44.8814 380V374.4H48.4734V375.304H45.8334V376.656H47.5534V377.56H45.8334V379.096H48.6414V380H44.8814ZM51.7631 380.088C51.3578 380.088 51.0138 380.005 50.7311 379.84C50.4485 379.672 50.2205 379.449 50.0471 379.172C49.8738 378.892 49.7471 378.581 49.6671 378.24C49.5871 377.896 49.5471 377.549 49.5471 377.2C49.5471 376.864 49.5871 376.527 49.6671 376.188C49.7498 375.847 49.8791 375.535 50.0551 375.252C50.2311 374.969 50.4591 374.743 50.7391 374.572C51.0218 374.399 51.3631 374.312 51.7631 374.312C52.0778 374.312 52.3498 374.369 52.5791 374.484C52.8111 374.596 53.0031 374.741 53.1551 374.92C53.3071 375.099 53.4218 375.285 53.4991 375.48L52.6511 375.888C52.5445 375.68 52.4231 375.516 52.2871 375.396C52.1538 375.276 51.9791 375.216 51.7631 375.216C51.5365 375.216 51.3445 375.276 51.1871 375.396C51.0298 375.516 50.9018 375.675 50.8031 375.872C50.7071 376.069 50.6378 376.284 50.5951 376.516C50.5525 376.748 50.5311 376.976 50.5311 377.2C50.5311 377.437 50.5551 377.673 50.6031 377.908C50.6538 378.143 50.7285 378.356 50.8271 378.548C50.9285 378.74 51.0565 378.895 51.2111 379.012C51.3685 379.127 51.5525 379.184 51.7631 379.184C51.9791 379.184 52.1578 379.117 52.2991 378.984C52.4405 378.848 52.5605 378.675 52.6591 378.464L53.5231 378.792C53.4218 379.04 53.2911 379.263 53.1311 379.46C52.9738 379.655 52.7818 379.808 52.5551 379.92C52.3285 380.032 52.0645 380.088 51.7631 380.088ZM56.5968 380.096C56.2208 380.096 55.8981 380.017 55.6288 379.86C55.3621 379.7 55.1435 379.484 54.9728 379.212C54.8021 378.94 54.6768 378.631 54.5968 378.284C54.5168 377.937 54.4768 377.576 54.4768 377.2C54.4768 376.824 54.5168 376.463 54.5968 376.116C54.6768 375.769 54.8021 375.46 54.9728 375.188C55.1435 374.916 55.3621 374.701 55.6288 374.544C55.8981 374.384 56.2208 374.304 56.5968 374.304C56.9728 374.304 57.2955 374.384 57.5648 374.544C57.8341 374.701 58.0541 374.916 58.2248 375.188C58.3955 375.46 58.5208 375.769 58.6008 376.116C58.6835 376.463 58.7248 376.824 58.7248 377.2C58.7248 377.576 58.6835 377.937 58.6008 378.284C58.5208 378.631 58.3955 378.94 58.2248 379.212C58.0541 379.484 57.8341 379.7 57.5648 379.86C57.2955 380.017 56.9728 380.096 56.5968 380.096ZM56.5968 379.192C56.7941 379.192 56.9648 379.136 57.1088 379.024C57.2528 378.912 57.3701 378.761 57.4608 378.572C57.5541 378.383 57.6221 378.169 57.6648 377.932C57.7101 377.695 57.7328 377.451 57.7328 377.2C57.7328 376.933 57.7101 376.681 57.6648 376.444C57.6221 376.204 57.5555 375.992 57.4648 375.808C57.3741 375.621 57.2568 375.475 57.1128 375.368C56.9688 375.261 56.7968 375.208 56.5968 375.208C56.3968 375.208 56.2248 375.264 56.0808 375.376C55.9368 375.485 55.8195 375.635 55.7288 375.824C55.6381 376.013 55.5701 376.227 55.5248 376.464C55.4821 376.701 55.4608 376.947 55.4608 377.2C55.4608 377.464 55.4821 377.716 55.5248 377.956C55.5701 378.193 55.6381 378.405 55.7288 378.592C55.8195 378.779 55.9368 378.925 56.0808 379.032C56.2248 379.139 56.3968 379.192 56.5968 379.192ZM59.6705 380V374.4H60.5985L61.4065 377.472C61.4278 377.552 61.4532 377.647 61.4825 377.756C61.5118 377.863 61.5318 377.952 61.5425 378.024C61.5558 377.952 61.5758 377.863 61.6025 377.756C61.6318 377.647 61.6572 377.552 61.6785 377.472L62.5105 374.4H63.3825V380H62.5585V376.96C62.5585 376.899 62.5585 376.82 62.5585 376.724C62.5612 376.628 62.5665 376.552 62.5745 376.496C62.5505 376.563 62.5238 376.637 62.4945 376.72C62.4678 376.803 62.4438 376.883 62.4225 376.96L61.5665 380H61.4865L60.6305 376.96C60.6092 376.883 60.5838 376.803 60.5545 376.72C60.5278 376.635 60.5025 376.56 60.4785 376.496C60.4838 376.552 60.4878 376.628 60.4905 376.724C60.4932 376.82 60.4945 376.899 60.4945 376.96V380H59.6705ZM65.9762 380V374.4H66.9282V380H65.9762ZM64.8082 380V379.16H68.1042V380H64.8082ZM64.8082 375.24V374.4H68.1042V375.24H64.8082ZM69.5299 380V374.4H70.4339L72.1779 377.856C72.2019 377.899 72.2352 377.96 72.2779 378.04C72.3205 378.12 72.3539 378.187 72.3779 378.24C72.3752 378.171 72.3712 378.101 72.3659 378.032C72.3632 377.963 72.3619 377.904 72.3619 377.856V374.4H73.2419V380H72.3779L70.6019 376.528C70.5779 376.483 70.5445 376.42 70.5019 376.34C70.4592 376.26 70.4232 376.195 70.3939 376.144C70.4072 376.203 70.4139 376.268 70.4139 376.34C70.4165 376.412 70.4179 376.475 70.4179 376.528V380H69.5299ZM76.4036 380.096C76.0249 380.096 75.6956 380.016 75.4156 379.856C75.1382 379.693 74.9089 379.475 74.7276 379.2C74.5489 378.923 74.4156 378.612 74.3276 378.268C74.2396 377.921 74.1956 377.565 74.1956 377.2C74.1956 376.851 74.2409 376.505 74.3316 376.164C74.4222 375.82 74.5596 375.508 74.7436 375.228C74.9276 374.948 75.1569 374.724 75.4316 374.556C75.7089 374.388 76.0329 374.304 76.4036 374.304C76.7209 374.304 76.9876 374.359 77.2036 374.468C77.4222 374.575 77.6049 374.715 77.7516 374.888C77.8982 375.059 78.0249 375.24 78.1316 375.432L77.2916 375.912C77.1929 375.723 77.0729 375.559 76.9316 375.42C76.7929 375.279 76.6169 375.208 76.4036 375.208C76.1796 375.208 75.9902 375.269 75.8356 375.392C75.6809 375.512 75.5556 375.672 75.4596 375.872C75.3636 376.069 75.2942 376.285 75.2516 376.52C75.2089 376.752 75.1876 376.979 75.1876 377.2C75.1876 377.453 75.2116 377.699 75.2596 377.936C75.3102 378.173 75.3849 378.387 75.4836 378.576C75.5822 378.765 75.7076 378.916 75.8596 379.028C76.0142 379.137 76.1956 379.192 76.4036 379.192C76.6996 379.192 76.9209 379.093 77.0676 378.896C77.2169 378.696 77.2916 378.448 77.2916 378.152V378.032H76.3156V377.136H78.2676V377.912C78.2676 378.384 78.1849 378.783 78.0196 379.108C77.8569 379.433 77.6342 379.68 77.3516 379.848C77.0716 380.013 76.7556 380.096 76.4036 380.096ZM86.1749 380.096C85.7989 380.096 85.4763 380.017 85.2069 379.86C84.9403 379.7 84.7216 379.484 84.5509 379.212C84.3803 378.94 84.2549 378.631 84.1749 378.284C84.0949 377.937 84.0549 377.576 84.0549 377.2C84.0549 376.824 84.0949 376.463 84.1749 376.116C84.2549 375.769 84.3803 375.46 84.5509 375.188C84.7216 374.916 84.9403 374.701 85.2069 374.544C85.4763 374.384 85.7989 374.304 86.1749 374.304C86.5509 374.304 86.8736 374.384 87.1429 374.544C87.4123 374.701 87.6323 374.916 87.8029 375.188C87.9736 375.46 88.0989 375.769 88.1789 376.116C88.2616 376.463 88.3029 376.824 88.3029 377.2C88.3029 377.576 88.2616 377.937 88.1789 378.284C88.0989 378.631 87.9736 378.94 87.8029 379.212C87.6323 379.484 87.4123 379.7 87.1429 379.86C86.8736 380.017 86.5509 380.096 86.1749 380.096ZM86.1749 379.192C86.3723 379.192 86.5429 379.136 86.6869 379.024C86.8309 378.912 86.9483 378.761 87.0389 378.572C87.1323 378.383 87.2003 378.169 87.2429 377.932C87.2883 377.695 87.3109 377.451 87.3109 377.2C87.3109 376.933 87.2883 376.681 87.2429 376.444C87.2003 376.204 87.1336 375.992 87.0429 375.808C86.9523 375.621 86.8349 375.475 86.6909 375.368C86.5469 375.261 86.3749 375.208 86.1749 375.208C85.9749 375.208 85.8029 375.264 85.6589 375.376C85.5149 375.485 85.3976 375.635 85.3069 375.824C85.2163 376.013 85.1483 376.227 85.1029 376.464C85.0603 376.701 85.0389 376.947 85.0389 377.2C85.0389 377.464 85.0603 377.716 85.1029 377.956C85.1483 378.193 85.2163 378.405 85.3069 378.592C85.3976 378.779 85.5149 378.925 85.6589 379.032C85.8029 379.139 85.9749 379.192 86.1749 379.192ZM89.2486 380V374.4H91.1846C91.646 374.4 92.01 374.48 92.2766 374.64C92.5433 374.8 92.7326 375.009 92.8446 375.268C92.9593 375.527 93.0166 375.803 93.0166 376.096C93.0166 376.304 92.982 376.507 92.9126 376.704C92.8433 376.899 92.7393 377.076 92.6006 377.236C92.462 377.393 92.2873 377.523 92.0766 377.624C91.8686 377.725 91.6246 377.787 91.3446 377.808H90.2006V380H89.2486ZM91.9526 380L90.8086 377.696L91.8246 377.592L93.0086 380H91.9526ZM90.2006 376.912H91.2006C91.414 376.912 91.582 376.873 91.7046 376.796C91.8273 376.719 91.914 376.619 91.9646 376.496C92.0153 376.373 92.0406 376.243 92.0406 376.104C92.0406 375.979 92.0166 375.855 91.9686 375.732C91.9206 375.607 91.8353 375.503 91.7126 375.42C91.5926 375.337 91.422 375.296 91.2006 375.296H90.2006V376.912ZM100.484 380V374.4H101.436V380H100.484ZM99.316 380V379.16H102.612V380H99.316ZM99.316 375.24V374.4H102.612V375.24H99.316ZM105.958 380.096C105.654 380.096 105.368 380.037 105.102 379.92C104.838 379.8 104.607 379.632 104.41 379.416C104.212 379.2 104.064 378.947 103.966 378.656L104.83 378.336C104.95 378.592 105.118 378.8 105.334 378.96C105.552 379.12 105.787 379.2 106.038 379.2C106.278 379.2 106.474 379.139 106.626 379.016C106.778 378.893 106.854 378.715 106.854 378.48C106.854 378.328 106.8 378.193 106.694 378.076C106.587 377.956 106.446 377.847 106.27 377.748C106.096 377.649 105.907 377.555 105.702 377.464C105.523 377.387 105.343 377.3 105.162 377.204C104.983 377.108 104.818 376.995 104.666 376.864C104.516 376.733 104.395 376.58 104.302 376.404C104.211 376.228 104.166 376.021 104.166 375.784C104.166 375.515 104.236 375.268 104.378 375.044C104.519 374.82 104.719 374.641 104.978 374.508C105.236 374.372 105.542 374.304 105.894 374.304C106.315 374.304 106.676 374.417 106.978 374.644C107.282 374.871 107.483 375.155 107.582 375.496L106.726 375.784C106.646 375.619 106.531 375.48 106.382 375.368C106.232 375.256 106.051 375.2 105.838 375.2C105.638 375.2 105.468 375.251 105.33 375.352C105.194 375.453 105.126 375.592 105.126 375.768C105.126 375.891 105.164 375.997 105.242 376.088C105.322 376.179 105.438 376.267 105.59 376.352C105.744 376.437 105.934 376.533 106.158 376.64C106.339 376.725 106.526 376.821 106.718 376.928C106.91 377.032 107.088 377.153 107.254 377.292C107.422 377.431 107.556 377.593 107.658 377.78C107.762 377.967 107.814 378.184 107.814 378.432C107.814 378.787 107.727 379.088 107.554 379.336C107.383 379.584 107.156 379.773 106.874 379.904C106.594 380.032 106.288 380.096 105.958 380.096ZM113.473 380L115.305 374.4H116.201L118.033 380H117.009L115.889 376.24C115.876 376.197 115.86 376.14 115.841 376.068C115.825 375.996 115.809 375.92 115.793 375.84C115.777 375.76 115.764 375.685 115.753 375.616C115.74 375.685 115.725 375.76 115.709 375.84C115.693 375.92 115.677 375.996 115.661 376.068C115.645 376.14 115.63 376.197 115.617 376.24L114.497 380H113.473ZM114.657 378.768L114.913 377.904H116.593L116.849 378.768H114.657ZM118.827 380V374.4H119.779V379.088H122.363V380H118.827ZM123.756 380V374.4H125.692C126.154 374.4 126.518 374.48 126.784 374.64C127.051 374.8 127.24 375.009 127.352 375.268C127.467 375.527 127.524 375.803 127.524 376.096C127.524 376.304 127.49 376.507 127.42 376.704C127.351 376.899 127.247 377.076 127.108 377.236C126.97 377.393 126.795 377.523 126.584 377.624C126.376 377.725 126.132 377.787 125.852 377.808H124.708V380H123.756ZM126.46 380L125.316 377.696L126.332 377.592L127.516 380H126.46ZM124.708 376.912H125.708C125.922 376.912 126.09 376.873 126.212 376.796C126.335 376.719 126.422 376.619 126.472 376.496C126.523 376.373 126.548 376.243 126.548 376.104C126.548 375.979 126.524 375.855 126.476 375.732C126.428 375.607 126.343 375.503 126.22 375.42C126.1 375.337 125.93 375.296 125.708 375.296H124.708V376.912ZM128.686 380V374.4H132.278V375.304H129.638V376.656H131.358V377.56H129.638V379.096H132.446V380H128.686ZM133.192 380L135.024 374.4H135.92L137.752 380H136.728L135.608 376.24C135.594 376.197 135.578 376.14 135.56 376.068C135.544 375.996 135.528 375.92 135.512 375.84C135.496 375.76 135.482 375.685 135.472 375.616C135.458 375.685 135.444 375.76 135.428 375.84C135.412 375.92 135.396 375.996 135.38 376.068C135.364 376.14 135.349 376.197 135.336 376.24L134.216 380H133.192ZM134.376 378.768L134.632 377.904H136.312L136.568 378.768H134.376ZM138.546 380V374.4H139.954C140.423 374.4 140.82 374.48 141.146 374.64C141.474 374.797 141.739 375.011 141.942 375.28C142.147 375.547 142.296 375.847 142.39 376.18C142.483 376.511 142.53 376.851 142.53 377.2C142.53 377.52 142.486 377.844 142.398 378.172C142.31 378.5 142.164 378.803 141.962 379.08C141.762 379.357 141.495 379.58 141.162 379.748C140.828 379.916 140.415 380 139.922 380H138.546ZM139.498 379.104H140.018C140.303 379.104 140.543 379.048 140.738 378.936C140.932 378.821 141.088 378.671 141.206 378.484C141.323 378.297 141.407 378.092 141.458 377.868C141.511 377.644 141.538 377.421 141.538 377.2C141.538 376.963 141.51 376.732 141.454 376.508C141.4 376.281 141.316 376.077 141.202 375.896C141.087 375.712 140.939 375.567 140.758 375.46C140.576 375.351 140.359 375.296 140.106 375.296H139.498V379.104ZM144.859 380V377.808L143.211 374.4H144.267L145.523 377.216H145.139L146.403 374.4H147.451L145.803 377.808V380H144.859ZM152.911 380L154.743 374.4H155.639L157.471 380H156.447L155.327 376.24C155.313 376.197 155.297 376.14 155.279 376.068C155.263 375.996 155.247 375.92 155.231 375.84C155.215 375.76 155.201 375.685 155.191 375.616C155.177 375.685 155.163 375.76 155.147 375.84C155.131 375.92 155.115 375.996 155.099 376.068C155.083 376.14 155.068 376.197 155.055 376.24L153.935 380H152.911ZM154.095 378.768L154.351 377.904H156.031L156.287 378.768H154.095ZM54.7408 390V384.4H56.7168C57.1808 384.4 57.5488 384.485 57.8208 384.656C58.0955 384.827 58.2915 385.045 58.4088 385.312C58.5288 385.576 58.5888 385.851 58.5888 386.136C58.5888 386.336 58.5541 386.539 58.4848 386.744C58.4155 386.947 58.3061 387.133 58.1568 387.304C58.0075 387.475 57.8141 387.612 57.5768 387.716C57.3395 387.82 57.0528 387.872 56.7168 387.872H55.6928V390H54.7408ZM55.6928 386.976H56.7648C56.9728 386.976 57.1395 386.935 57.2648 386.852C57.3901 386.767 57.4808 386.66 57.5368 386.532C57.5928 386.401 57.6208 386.269 57.6208 386.136C57.6208 386.016 57.5955 385.892 57.5448 385.764C57.4941 385.633 57.4061 385.523 57.2808 385.432C57.1581 385.341 56.9861 385.296 56.7648 385.296H55.6928V386.976ZM59.6705 390V384.4H61.6065C62.0678 384.4 62.4318 384.48 62.6985 384.64C62.9652 384.8 63.1545 385.009 63.2665 385.268C63.3812 385.527 63.4385 385.803 63.4385 386.096C63.4385 386.304 63.4038 386.507 63.3345 386.704C63.2652 386.899 63.1612 387.076 63.0225 387.236C62.8838 387.393 62.7092 387.523 62.4985 387.624C62.2905 387.725 62.0465 387.787 61.7665 387.808H60.6225V390H59.6705ZM62.3745 390L61.2305 387.696L62.2465 387.592L63.4305 390H62.3745ZM60.6225 386.912H61.6225C61.8358 386.912 62.0038 386.873 62.1265 386.796C62.2492 386.719 62.3358 386.619 62.3865 386.496C62.4372 386.373 62.4625 386.243 62.4625 386.104C62.4625 385.979 62.4385 385.855 62.3905 385.732C62.3425 385.607 62.2572 385.503 62.1345 385.42C62.0145 385.337 61.8438 385.296 61.6225 385.296H60.6225V386.912ZM66.4562 390.096C66.0802 390.096 65.7575 390.017 65.4882 389.86C65.2215 389.7 65.0029 389.484 64.8322 389.212C64.6615 388.94 64.5362 388.631 64.4562 388.284C64.3762 387.937 64.3362 387.576 64.3362 387.2C64.3362 386.824 64.3762 386.463 64.4562 386.116C64.5362 385.769 64.6615 385.46 64.8322 385.188C65.0029 384.916 65.2215 384.701 65.4882 384.544C65.7575 384.384 66.0802 384.304 66.4562 384.304C66.8322 384.304 67.1549 384.384 67.4242 384.544C67.6935 384.701 67.9135 384.916 68.0842 385.188C68.2549 385.46 68.3802 385.769 68.4602 386.116C68.5429 386.463 68.5842 386.824 68.5842 387.2C68.5842 387.576 68.5429 387.937 68.4602 388.284C68.3802 388.631 68.2549 388.94 68.0842 389.212C67.9135 389.484 67.6935 389.7 67.4242 389.86C67.1549 390.017 66.8322 390.096 66.4562 390.096ZM66.4562 389.192C66.6535 389.192 66.8242 389.136 66.9682 389.024C67.1122 388.912 67.2295 388.761 67.3202 388.572C67.4135 388.383 67.4815 388.169 67.5242 387.932C67.5695 387.695 67.5922 387.451 67.5922 387.2C67.5922 386.933 67.5695 386.681 67.5242 386.444C67.4815 386.204 67.4149 385.992 67.3242 385.808C67.2335 385.621 67.1162 385.475 66.9722 385.368C66.8282 385.261 66.6562 385.208 66.4562 385.208C66.2562 385.208 66.0842 385.264 65.9402 385.376C65.7962 385.485 65.6789 385.635 65.5882 385.824C65.4975 386.013 65.4295 386.227 65.3842 386.464C65.3415 386.701 65.3202 386.947 65.3202 387.2C65.3202 387.464 65.3415 387.716 65.3842 387.956C65.4295 388.193 65.4975 388.405 65.5882 388.592C65.6789 388.779 65.7962 388.925 65.9402 389.032C66.0842 389.139 66.2562 389.192 66.4562 389.192ZM69.5299 390V384.4H73.3059V385.304H70.4819V386.656H72.5379V387.56H70.4819V390H69.5299ZM74.4596 390V384.4H78.0516V385.304H75.4116V386.656H77.1316V387.56H75.4116V389.096H78.2196V390H74.4596ZM81.3093 390.096C81.0053 390.096 80.7199 390.037 80.4533 389.92C80.1893 389.8 79.9586 389.632 79.7613 389.416C79.5639 389.2 79.4159 388.947 79.3173 388.656L80.1813 388.336C80.3013 388.592 80.4693 388.8 80.6853 388.96C80.9039 389.12 81.1386 389.2 81.3893 389.2C81.6293 389.2 81.8253 389.139 81.9773 389.016C82.1293 388.893 82.2053 388.715 82.2053 388.48C82.2053 388.328 82.1519 388.193 82.0453 388.076C81.9386 387.956 81.7973 387.847 81.6213 387.748C81.4479 387.649 81.2586 387.555 81.0533 387.464C80.8746 387.387 80.6946 387.3 80.5133 387.204C80.3346 387.108 80.1693 386.995 80.0173 386.864C79.8679 386.733 79.7466 386.58 79.6533 386.404C79.5626 386.228 79.5173 386.021 79.5173 385.784C79.5173 385.515 79.5879 385.268 79.7293 385.044C79.8706 384.82 80.0706 384.641 80.3293 384.508C80.5879 384.372 80.8933 384.304 81.2453 384.304C81.6666 384.304 82.0279 384.417 82.3293 384.644C82.6333 384.871 82.8346 385.155 82.9333 385.496L82.0773 385.784C81.9973 385.619 81.8826 385.48 81.7333 385.368C81.5839 385.256 81.4026 385.2 81.1893 385.2C80.9893 385.2 80.8199 385.251 80.6813 385.352C80.5453 385.453 80.4773 385.592 80.4773 385.768C80.4773 385.891 80.5159 385.997 80.5933 386.088C80.6733 386.179 80.7893 386.267 80.9413 386.352C81.0959 386.437 81.2853 386.533 81.5093 386.64C81.6906 386.725 81.8773 386.821 82.0693 386.928C82.2613 387.032 82.4399 387.153 82.6053 387.292C82.7733 387.431 82.9079 387.593 83.0093 387.78C83.1133 387.967 83.1653 388.184 83.1653 388.432C83.1653 388.787 83.0786 389.088 82.9053 389.336C82.7346 389.584 82.5079 389.773 82.2253 389.904C81.9453 390.032 81.6399 390.096 81.3093 390.096ZM86.2389 390.096C85.9349 390.096 85.6496 390.037 85.3829 389.92C85.1189 389.8 84.8883 389.632 84.6909 389.416C84.4936 389.2 84.3456 388.947 84.2469 388.656L85.1109 388.336C85.2309 388.592 85.3989 388.8 85.6149 388.96C85.8336 389.12 86.0683 389.2 86.3189 389.2C86.5589 389.2 86.7549 389.139 86.9069 389.016C87.0589 388.893 87.1349 388.715 87.1349 388.48C87.1349 388.328 87.0816 388.193 86.9749 388.076C86.8683 387.956 86.7269 387.847 86.5509 387.748C86.3776 387.649 86.1883 387.555 85.9829 387.464C85.8043 387.387 85.6243 387.3 85.4429 387.204C85.2643 387.108 85.0989 386.995 84.9469 386.864C84.7976 386.733 84.6763 386.58 84.5829 386.404C84.4923 386.228 84.4469 386.021 84.4469 385.784C84.4469 385.515 84.5176 385.268 84.6589 385.044C84.8003 384.82 85.0003 384.641 85.2589 384.508C85.5176 384.372 85.8229 384.304 86.1749 384.304C86.5963 384.304 86.9576 384.417 87.2589 384.644C87.5629 384.871 87.7643 385.155 87.8629 385.496L87.0069 385.784C86.9269 385.619 86.8123 385.48 86.6629 385.368C86.5136 385.256 86.3323 385.2 86.1189 385.2C85.9189 385.2 85.7496 385.251 85.6109 385.352C85.4749 385.453 85.4069 385.592 85.4069 385.768C85.4069 385.891 85.4456 385.997 85.5229 386.088C85.6029 386.179 85.7189 386.267 85.8709 386.352C86.0256 386.437 86.2149 386.533 86.4389 386.64C86.6203 386.725 86.8069 386.821 86.9989 386.928C87.1909 387.032 87.3696 387.153 87.5349 387.292C87.7029 387.431 87.8376 387.593 87.9389 387.78C88.0429 387.967 88.0949 388.184 88.0949 388.432C88.0949 388.787 88.0083 389.088 87.8349 389.336C87.6643 389.584 87.4376 389.773 87.1549 389.904C86.8749 390.032 86.5696 390.096 86.2389 390.096ZM90.6246 390V384.4H91.5766V390H90.6246ZM89.4566 390V389.16H92.7526V390H89.4566ZM89.4566 385.24V384.4H92.7526V385.24H89.4566ZM96.0343 390.096C95.6583 390.096 95.3356 390.017 95.0663 389.86C94.7996 389.7 94.581 389.484 94.4103 389.212C94.2396 388.94 94.1143 388.631 94.0343 388.284C93.9543 387.937 93.9143 387.576 93.9143 387.2C93.9143 386.824 93.9543 386.463 94.0343 386.116C94.1143 385.769 94.2396 385.46 94.4103 385.188C94.581 384.916 94.7996 384.701 95.0663 384.544C95.3356 384.384 95.6583 384.304 96.0343 384.304C96.4103 384.304 96.733 384.384 97.0023 384.544C97.2716 384.701 97.4916 384.916 97.6623 385.188C97.833 385.46 97.9583 385.769 98.0383 386.116C98.121 386.463 98.1623 386.824 98.1623 387.2C98.1623 387.576 98.121 387.937 98.0383 388.284C97.9583 388.631 97.833 388.94 97.6623 389.212C97.4916 389.484 97.2716 389.7 97.0023 389.86C96.733 390.017 96.4103 390.096 96.0343 390.096ZM96.0343 389.192C96.2316 389.192 96.4023 389.136 96.5463 389.024C96.6903 388.912 96.8076 388.761 96.8983 388.572C96.9916 388.383 97.0596 388.169 97.1023 387.932C97.1476 387.695 97.1703 387.451 97.1703 387.2C97.1703 386.933 97.1476 386.681 97.1023 386.444C97.0596 386.204 96.993 385.992 96.9023 385.808C96.8116 385.621 96.6943 385.475 96.5503 385.368C96.4063 385.261 96.2343 385.208 96.0343 385.208C95.8343 385.208 95.6623 385.264 95.5183 385.376C95.3743 385.485 95.257 385.635 95.1663 385.824C95.0756 386.013 95.0076 386.227 94.9623 386.464C94.9196 386.701 94.8983 386.947 94.8983 387.2C94.8983 387.464 94.9196 387.716 94.9623 387.956C95.0076 388.193 95.0756 388.405 95.1663 388.592C95.257 388.779 95.3743 388.925 95.5183 389.032C95.6623 389.139 95.8343 389.192 96.0343 389.192ZM99.108 390V384.4H100.012L101.756 387.856C101.78 387.899 101.813 387.96 101.856 388.04C101.899 388.12 101.932 388.187 101.956 388.24C101.953 388.171 101.949 388.101 101.944 388.032C101.941 387.963 101.94 387.904 101.94 387.856V384.4H102.82V390H101.956L100.18 386.528C100.156 386.483 100.123 386.42 100.08 386.34C100.037 386.26 100.001 386.195 99.972 386.144C99.9853 386.203 99.992 386.268 99.992 386.34C99.9947 386.412 99.996 386.475 99.996 386.528V390H99.108ZM103.614 390L105.446 384.4H106.342L108.174 390H107.15L106.03 386.24C106.016 386.197 106 386.14 105.982 386.068C105.966 385.996 105.95 385.92 105.934 385.84C105.918 385.76 105.904 385.685 105.894 385.616C105.88 385.685 105.866 385.76 105.85 385.84C105.834 385.92 105.818 385.996 105.802 386.068C105.786 386.14 105.771 386.197 105.758 386.24L104.638 390H103.614ZM104.798 388.768L105.054 387.904H106.734L106.99 388.768H104.798ZM108.967 390V384.4H109.919V389.088H112.503V390H108.967ZM120.771 390.096C120.392 390.096 120.063 390.016 119.783 389.856C119.505 389.693 119.276 389.475 119.095 389.2C118.916 388.923 118.783 388.612 118.695 388.268C118.607 387.921 118.563 387.565 118.563 387.2C118.563 386.851 118.608 386.505 118.699 386.164C118.789 385.82 118.927 385.508 119.111 385.228C119.295 384.948 119.524 384.724 119.799 384.556C120.076 384.388 120.4 384.304 120.771 384.304C121.088 384.304 121.355 384.359 121.571 384.468C121.789 384.575 121.972 384.715 122.119 384.888C122.265 385.059 122.392 385.24 122.499 385.432L121.659 385.912C121.56 385.723 121.44 385.559 121.299 385.42C121.16 385.279 120.984 385.208 120.771 385.208C120.547 385.208 120.357 385.269 120.203 385.392C120.048 385.512 119.923 385.672 119.827 385.872C119.731 386.069 119.661 386.285 119.619 386.52C119.576 386.752 119.555 386.979 119.555 387.2C119.555 387.453 119.579 387.699 119.627 387.936C119.677 388.173 119.752 388.387 119.851 388.576C119.949 388.765 120.075 388.916 120.227 389.028C120.381 389.137 120.563 389.192 120.771 389.192C121.067 389.192 121.288 389.093 121.435 388.896C121.584 388.696 121.659 388.448 121.659 388.152V388.032H120.683V387.136H122.635V387.912C122.635 388.384 122.552 388.783 122.387 389.108C122.224 389.433 122.001 389.68 121.719 389.848C121.439 390.013 121.123 390.096 120.771 390.096ZM123.332 390L125.164 384.4H126.06L127.892 390H126.868L125.748 386.24C125.735 386.197 125.719 386.14 125.7 386.068C125.684 385.996 125.668 385.92 125.652 385.84C125.636 385.76 125.623 385.685 125.612 385.616C125.599 385.685 125.584 385.76 125.568 385.84C125.552 385.92 125.536 385.996 125.52 386.068C125.504 386.14 125.49 386.197 125.476 386.24L124.356 390H123.332ZM124.516 388.768L124.772 387.904H126.452L126.708 388.768H124.516ZM128.686 390V384.4H129.614L130.422 387.472C130.443 387.552 130.469 387.647 130.498 387.756C130.527 387.863 130.547 387.952 130.558 388.024C130.571 387.952 130.591 387.863 130.618 387.756C130.647 387.647 130.673 387.552 130.694 387.472L131.526 384.4H132.398V390H131.574V386.96C131.574 386.899 131.574 386.82 131.574 386.724C131.577 386.628 131.582 386.552 131.59 386.496C131.566 386.563 131.539 386.637 131.51 386.72C131.483 386.803 131.459 386.883 131.438 386.96L130.582 390H130.502L129.646 386.96C129.625 386.883 129.599 386.803 129.57 386.72C129.543 386.635 129.518 386.56 129.494 386.496C129.499 386.552 129.503 386.628 129.506 386.724C129.509 386.82 129.51 386.899 129.51 386.96V390H128.686ZM133.616 390V384.4H137.208V385.304H134.568V386.656H136.288V387.56H134.568V389.096H137.376V390H133.616ZM138.546 390V384.4H140.482C140.943 384.4 141.307 384.48 141.574 384.64C141.84 384.8 142.03 385.009 142.141 385.268C142.256 385.527 142.314 385.803 142.314 386.096C142.314 386.304 142.279 386.507 142.21 386.704C142.14 386.899 142.036 387.076 141.898 387.236C141.759 387.393 141.584 387.523 141.374 387.624C141.166 387.725 140.922 387.787 140.642 387.808H139.498V390H138.546ZM141.25 390L140.106 387.696L141.122 387.592L142.306 390H141.25ZM139.498 386.912H140.498C140.711 386.912 140.879 386.873 141.002 386.796C141.124 386.719 141.211 386.619 141.262 386.496C141.312 386.373 141.338 386.243 141.338 386.104C141.338 385.979 141.314 385.855 141.266 385.732C141.218 385.607 141.132 385.503 141.01 385.42C140.89 385.337 140.719 385.296 140.498 385.296H139.498V386.912Z" fill="#919900"/>
<path d="M82.5 409.5V408H81V406.5H84V408H88.5V405H84V403.5H85.5V402H87V400.5H82.5V399H91.5V400.5H90V402H88.5V403.5H90V405H91.5V408H90V409.5H82.5ZM93 409.5V406.5H94.5V405H96V403.5H99V402H100.5V400.5H96V402H93V400.5H94.5V399H102V400.5H103.5V403.5H102V405H100.5V406.5H97.5V408H103.5V409.5H93ZM108 400.5H106.5V399H109.5V402H108V400.5ZM115.5 399V400.5H114V399H115.5ZM108 403.5H105V400.5H106.5V402H108V403.5ZM112.5 400.5H114V402H112.5V400.5ZM111 402H112.5V403.5H111V402ZM109.5 403.5H111V405H109.5V403.5ZM108 405H109.5V406.5H108V405ZM112.5 405H115.5V408H114V406.5H112.5V405ZM106.5 406.5H108V408H106.5V406.5ZM112.5 408H114V409.5H111V406.5H112.5V408ZM105 408H106.5V409.5H105V408Z" fill="#919900"/>
<path d="M200.276 370V364.4H203.868V365.304H201.228V366.656H202.948V367.56H201.228V369.096H204.036V370H200.276ZM204.782 370L206.614 364.4H207.51L209.342 370H208.318L207.198 366.24C207.184 366.197 207.168 366.14 207.15 366.068C207.134 365.996 207.118 365.92 207.102 365.84C207.086 365.76 207.072 365.685 207.062 365.616C207.048 365.685 207.034 365.76 207.018 365.84C207.002 365.92 206.986 365.996 206.97 366.068C206.954 366.14 206.939 366.197 206.926 366.24L205.806 370H204.782ZM205.966 368.768L206.222 367.904H207.902L208.158 368.768H205.966ZM210.135 370V364.4H212.071C212.533 364.4 212.897 364.48 213.163 364.64C213.43 364.8 213.619 365.009 213.731 365.268C213.846 365.527 213.903 365.803 213.903 366.096C213.903 366.304 213.869 366.507 213.799 366.704C213.73 366.899 213.626 367.076 213.487 367.236C213.349 367.393 213.174 367.523 212.963 367.624C212.755 367.725 212.511 367.787 212.231 367.808H211.087V370H210.135ZM212.839 370L211.695 367.696L212.711 367.592L213.895 370H212.839ZM211.087 366.912H212.087C212.301 366.912 212.469 366.873 212.591 366.796C212.714 366.719 212.801 366.619 212.851 366.496C212.902 366.373 212.927 366.243 212.927 366.104C212.927 365.979 212.903 365.855 212.855 365.732C212.807 365.607 212.722 365.503 212.599 365.42C212.479 365.337 212.309 365.296 212.087 365.296H211.087V366.912ZM215.065 370V364.4H215.969L217.713 367.856C217.737 367.899 217.77 367.96 217.813 368.04C217.856 368.12 217.889 368.187 217.913 368.24C217.91 368.171 217.906 368.101 217.901 368.032C217.898 367.963 217.897 367.904 217.897 367.856V364.4H218.777V370H217.913L216.137 366.528C216.113 366.483 216.08 366.42 216.037 366.34C215.994 366.26 215.958 366.195 215.929 366.144C215.942 366.203 215.949 366.268 215.949 366.34C215.952 366.412 215.953 366.475 215.953 366.528V370H215.065ZM221.915 370.096C221.611 370.096 221.325 370.037 221.059 369.92C220.795 369.8 220.564 369.632 220.367 369.416C220.169 369.2 220.021 368.947 219.923 368.656L220.787 368.336C220.907 368.592 221.075 368.8 221.291 368.96C221.509 369.12 221.744 369.2 221.995 369.2C222.235 369.2 222.431 369.139 222.583 369.016C222.735 368.893 222.811 368.715 222.811 368.48C222.811 368.328 222.757 368.193 222.651 368.076C222.544 367.956 222.403 367.847 222.227 367.748C222.053 367.649 221.864 367.555 221.659 367.464C221.48 367.387 221.3 367.3 221.119 367.204C220.94 367.108 220.775 366.995 220.623 366.864C220.473 366.733 220.352 366.58 220.259 366.404C220.168 366.228 220.123 366.021 220.123 365.784C220.123 365.515 220.193 365.268 220.335 365.044C220.476 364.82 220.676 364.641 220.935 364.508C221.193 364.372 221.499 364.304 221.851 364.304C222.272 364.304 222.633 364.417 222.935 364.644C223.239 364.871 223.44 365.155 223.539 365.496L222.683 365.784C222.603 365.619 222.488 365.48 222.339 365.368C222.189 365.256 222.008 365.2 221.795 365.2C221.595 365.2 221.425 365.251 221.287 365.352C221.151 365.453 221.083 365.592 221.083 365.768C221.083 365.891 221.121 365.997 221.199 366.088C221.279 366.179 221.395 366.267 221.547 366.352C221.701 366.437 221.891 366.533 222.115 366.64C222.296 366.725 222.483 366.821 222.675 366.928C222.867 367.032 223.045 367.153 223.211 367.292C223.379 367.431 223.513 367.593 223.615 367.78C223.719 367.967 223.771 368.184 223.771 368.432C223.771 368.787 223.684 369.088 223.511 369.336C223.34 369.584 223.113 369.773 222.831 369.904C222.551 370.032 222.245 370.096 221.915 370.096ZM231.71 370.096C231.334 370.096 231.011 370.017 230.742 369.86C230.475 369.7 230.257 369.484 230.086 369.212C229.915 368.94 229.79 368.631 229.71 368.284C229.63 367.937 229.59 367.576 229.59 367.2C229.59 366.824 229.63 366.463 229.71 366.116C229.79 365.769 229.915 365.46 230.086 365.188C230.257 364.916 230.475 364.701 230.742 364.544C231.011 364.384 231.334 364.304 231.71 364.304C232.086 364.304 232.409 364.384 232.678 364.544C232.947 364.701 233.167 364.916 233.338 365.188C233.509 365.46 233.634 365.769 233.714 366.116C233.797 366.463 233.838 366.824 233.838 367.2C233.838 367.576 233.797 367.937 233.714 368.284C233.634 368.631 233.509 368.94 233.338 369.212C233.167 369.484 232.947 369.7 232.678 369.86C232.409 370.017 232.086 370.096 231.71 370.096ZM231.71 369.192C231.907 369.192 232.078 369.136 232.222 369.024C232.366 368.912 232.483 368.761 232.574 368.572C232.667 368.383 232.735 368.169 232.778 367.932C232.823 367.695 232.846 367.451 232.846 367.2C232.846 366.933 232.823 366.681 232.778 366.444C232.735 366.204 232.669 365.992 232.578 365.808C232.487 365.621 232.37 365.475 232.226 365.368C232.082 365.261 231.91 365.208 231.71 365.208C231.51 365.208 231.338 365.264 231.194 365.376C231.05 365.485 230.933 365.635 230.842 365.824C230.751 366.013 230.683 366.227 230.638 366.464C230.595 366.701 230.574 366.947 230.574 367.2C230.574 367.464 230.595 367.716 230.638 367.956C230.683 368.193 230.751 368.405 230.842 368.592C230.933 368.779 231.05 368.925 231.194 369.032C231.338 369.139 231.51 369.192 231.71 369.192ZM234.784 370V364.4H236.72C237.181 364.4 237.545 364.48 237.812 364.64C238.078 364.8 238.268 365.009 238.38 365.268C238.494 365.527 238.552 365.803 238.552 366.096C238.552 366.304 238.517 366.507 238.448 366.704C238.378 366.899 238.274 367.076 238.136 367.236C237.997 367.393 237.822 367.523 237.612 367.624C237.404 367.725 237.16 367.787 236.88 367.808H235.736V370H234.784ZM237.488 370L236.344 367.696L237.36 367.592L238.544 370H237.488ZM235.736 366.912H236.736C236.949 366.912 237.117 366.873 237.24 366.796C237.362 366.719 237.449 366.619 237.5 366.496C237.55 366.373 237.576 366.243 237.576 366.104C237.576 365.979 237.552 365.855 237.504 365.732C237.456 365.607 237.37 365.503 237.248 365.42C237.128 365.337 236.957 365.296 236.736 365.296H235.736V366.912ZM244.643 370V364.4H245.595V366.664H247.403V364.4H248.355V370H247.403V367.56H245.595V370H244.643ZM249.149 370L250.981 364.4H251.877L253.709 370H252.685L251.565 366.24C251.552 366.197 251.536 366.14 251.517 366.068C251.501 365.996 251.485 365.92 251.469 365.84C251.453 365.76 251.44 365.685 251.429 365.616C251.416 365.685 251.401 365.76 251.385 365.84C251.369 365.92 251.353 365.996 251.337 366.068C251.321 366.14 251.306 366.197 251.293 366.24L250.173 370H249.149ZM250.333 368.768L250.589 367.904H252.269L252.525 368.768H250.333ZM256.423 370.096C256.119 370.096 255.833 370.037 255.567 369.92C255.303 369.8 255.072 369.632 254.875 369.416C254.677 369.2 254.529 368.947 254.431 368.656L255.295 368.336C255.415 368.592 255.583 368.8 255.799 368.96C256.017 369.12 256.252 369.2 256.503 369.2C256.743 369.2 256.939 369.139 257.091 369.016C257.243 368.893 257.319 368.715 257.319 368.48C257.319 368.328 257.265 368.193 257.159 368.076C257.052 367.956 256.911 367.847 256.735 367.748C256.561 367.649 256.372 367.555 256.167 367.464C255.988 367.387 255.808 367.3 255.627 367.204C255.448 367.108 255.283 366.995 255.131 366.864C254.981 366.733 254.86 366.58 254.767 366.404C254.676 366.228 254.631 366.021 254.631 365.784C254.631 365.515 254.701 365.268 254.843 365.044C254.984 364.82 255.184 364.641 255.443 364.508C255.701 364.372 256.007 364.304 256.359 364.304C256.78 364.304 257.141 364.417 257.443 364.644C257.747 364.871 257.948 365.155 258.047 365.496L257.191 365.784C257.111 365.619 256.996 365.48 256.847 365.368C256.697 365.256 256.516 365.2 256.303 365.2C256.103 365.2 255.933 365.251 255.795 365.352C255.659 365.453 255.591 365.592 255.591 365.768C255.591 365.891 255.629 365.997 255.707 366.088C255.787 366.179 255.903 366.267 256.055 366.352C256.209 366.437 256.399 366.533 256.623 366.64C256.804 366.725 256.991 366.821 257.183 366.928C257.375 367.032 257.553 367.153 257.719 367.292C257.887 367.431 258.021 367.593 258.123 367.78C258.227 367.967 258.279 368.184 258.279 368.432C258.279 368.787 258.192 369.088 258.019 369.336C257.848 369.584 257.621 369.773 257.339 369.904C257.059 370.032 256.753 370.096 256.423 370.096ZM264.362 370V364.4H267.954V365.304H265.314V366.656H267.034V367.56H265.314V369.096H268.122V370H264.362ZM268.868 370L270.7 364.4H271.596L273.428 370H272.404L271.284 366.24C271.27 366.197 271.254 366.14 271.236 366.068C271.22 365.996 271.204 365.92 271.188 365.84C271.172 365.76 271.158 365.685 271.148 365.616C271.134 365.685 271.12 365.76 271.104 365.84C271.088 365.92 271.072 365.996 271.056 366.068C271.04 366.14 271.025 366.197 271.012 366.24L269.892 370H268.868ZM270.052 368.768L270.308 367.904H271.988L272.244 368.768H270.052ZM274.221 370V364.4H276.157C276.619 364.4 276.983 364.48 277.249 364.64C277.516 364.8 277.705 365.009 277.817 365.268C277.932 365.527 277.989 365.803 277.989 366.096C277.989 366.304 277.955 366.507 277.885 366.704C277.816 366.899 277.712 367.076 277.573 367.236C277.435 367.393 277.26 367.523 277.049 367.624C276.841 367.725 276.597 367.787 276.317 367.808H275.173V370H274.221ZM276.925 370L275.781 367.696L276.797 367.592L277.981 370H276.925ZM275.173 366.912H276.173C276.387 366.912 276.555 366.873 276.677 366.796C276.8 366.719 276.887 366.619 276.937 366.496C276.988 366.373 277.013 366.243 277.013 366.104C277.013 365.979 276.989 365.855 276.941 365.732C276.893 365.607 276.808 365.503 276.685 365.42C276.565 365.337 276.395 365.296 276.173 365.296H275.173V366.912ZM279.151 370V364.4H280.055L281.799 367.856C281.823 367.899 281.856 367.96 281.899 368.04C281.942 368.12 281.975 368.187 281.999 368.24C281.996 368.171 281.992 368.101 281.987 368.032C281.984 367.963 281.983 367.904 281.983 367.856V364.4H282.863V370H281.999L280.223 366.528C280.199 366.483 280.166 366.42 280.123 366.34C280.08 366.26 280.044 366.195 280.015 366.144C280.028 366.203 280.035 366.268 280.035 366.34C280.038 366.412 280.039 366.475 280.039 366.528V370H279.151ZM284.081 370V364.4H287.673V365.304H285.033V366.656H286.753V367.56H285.033V369.096H287.841V370H284.081ZM289.01 370V364.4H290.418C290.888 364.4 291.285 364.48 291.61 364.64C291.938 364.797 292.204 365.011 292.406 365.28C292.612 365.547 292.761 365.847 292.854 366.18C292.948 366.511 292.994 366.851 292.994 367.2C292.994 367.52 292.95 367.844 292.862 368.172C292.774 368.5 292.629 368.803 292.426 369.08C292.226 369.357 291.96 369.58 291.626 369.748C291.293 369.916 290.88 370 290.386 370H289.01ZM289.962 369.104H290.482C290.768 369.104 291.008 369.048 291.202 368.936C291.397 368.821 291.553 368.671 291.67 368.484C291.788 368.297 291.872 368.092 291.922 367.868C291.976 367.644 292.002 367.421 292.002 367.2C292.002 366.963 291.974 366.732 291.918 366.508C291.865 366.281 291.781 366.077 291.666 365.896C291.552 365.712 291.404 365.567 291.222 365.46C291.041 365.351 290.824 365.296 290.57 365.296H289.962V369.104ZM207.671 380V374.4H208.599L209.407 377.472C209.428 377.552 209.453 377.647 209.483 377.756C209.512 377.863 209.532 377.952 209.543 378.024C209.556 377.952 209.576 377.863 209.603 377.756C209.632 377.647 209.657 377.552 209.679 377.472L210.511 374.4H211.383V380H210.559V376.96C210.559 376.899 210.559 376.82 210.559 376.724C210.561 376.628 210.567 376.552 210.575 376.496C210.551 376.563 210.524 376.637 210.495 376.72C210.468 376.803 210.444 376.883 210.423 376.96L209.567 380H209.487L208.631 376.96C208.609 376.883 208.584 376.803 208.555 376.72C208.528 376.635 208.503 376.56 208.479 376.496C208.484 376.552 208.488 376.628 208.491 376.724C208.493 376.82 208.495 376.899 208.495 376.96V380H207.671ZM214.456 380.096C214.08 380.096 213.758 380.017 213.488 379.86C213.222 379.7 213.003 379.484 212.832 379.212C212.662 378.94 212.536 378.631 212.456 378.284C212.376 377.937 212.336 377.576 212.336 377.2C212.336 376.824 212.376 376.463 212.456 376.116C212.536 375.769 212.662 375.46 212.832 375.188C213.003 374.916 213.222 374.701 213.488 374.544C213.758 374.384 214.08 374.304 214.456 374.304C214.832 374.304 215.155 374.384 215.424 374.544C215.694 374.701 215.914 374.916 216.084 375.188C216.255 375.46 216.38 375.769 216.46 376.116C216.543 376.463 216.584 376.824 216.584 377.2C216.584 377.576 216.543 377.937 216.46 378.284C216.38 378.631 216.255 378.94 216.084 379.212C215.914 379.484 215.694 379.7 215.424 379.86C215.155 380.017 214.832 380.096 214.456 380.096ZM214.456 379.192C214.654 379.192 214.824 379.136 214.968 379.024C215.112 378.912 215.23 378.761 215.32 378.572C215.414 378.383 215.482 378.169 215.524 377.932C215.57 377.695 215.592 377.451 215.592 377.2C215.592 376.933 215.57 376.681 215.524 376.444C215.482 376.204 215.415 375.992 215.324 375.808C215.234 375.621 215.116 375.475 214.972 375.368C214.828 375.261 214.656 375.208 214.456 375.208C214.256 375.208 214.084 375.264 213.94 375.376C213.796 375.485 213.679 375.635 213.588 375.824C213.498 376.013 213.43 376.227 213.384 376.464C213.342 376.701 213.32 376.947 213.32 377.2C213.32 377.464 213.342 377.716 213.384 377.956C213.43 378.193 213.498 378.405 213.588 378.592C213.679 378.779 213.796 378.925 213.94 379.032C214.084 379.139 214.256 379.192 214.456 379.192ZM217.53 380V374.4H218.434L220.178 377.856C220.202 377.899 220.235 377.96 220.278 378.04C220.321 378.12 220.354 378.187 220.378 378.24C220.375 378.171 220.371 378.101 220.366 378.032C220.363 377.963 220.362 377.904 220.362 377.856V374.4H221.242V380H220.378L218.602 376.528C218.578 376.483 218.545 376.42 218.502 376.34C218.459 376.26 218.423 376.195 218.394 376.144C218.407 376.203 218.414 376.268 218.414 376.34C218.417 376.412 218.418 376.475 218.418 376.528V380H217.53ZM222.46 380V374.4H226.052V375.304H223.412V376.656H225.132V377.56H223.412V379.096H226.22V380H222.46ZM228.773 380V377.808L227.125 374.4H228.181L229.437 377.216H229.053L230.317 374.4H231.365L229.717 377.808V380H228.773ZM237.249 380V374.4H241.025V375.304H238.201V376.656H240.257V377.56H238.201V380H237.249ZM242.178 380V374.4H244.114C244.576 374.4 244.94 374.48 245.206 374.64C245.473 374.8 245.662 375.009 245.774 375.268C245.889 375.527 245.946 375.803 245.946 376.096C245.946 376.304 245.912 376.507 245.842 376.704C245.773 376.899 245.669 377.076 245.53 377.236C245.392 377.393 245.217 377.523 245.006 377.624C244.798 377.725 244.554 377.787 244.274 377.808H243.13V380H242.178ZM244.882 380L243.738 377.696L244.754 377.592L245.938 380H244.882ZM243.13 376.912H244.13C244.344 376.912 244.512 376.873 244.634 376.796C244.757 376.719 244.844 376.619 244.894 376.496C244.945 376.373 244.97 376.243 244.97 376.104C244.97 375.979 244.946 375.855 244.898 375.732C244.85 375.607 244.765 375.503 244.642 375.42C244.522 375.337 244.352 375.296 244.13 375.296H243.13V376.912ZM248.964 380.096C248.588 380.096 248.265 380.017 247.996 379.86C247.729 379.7 247.511 379.484 247.34 379.212C247.169 378.94 247.044 378.631 246.964 378.284C246.884 377.937 246.844 377.576 246.844 377.2C246.844 376.824 246.884 376.463 246.964 376.116C247.044 375.769 247.169 375.46 247.34 375.188C247.511 374.916 247.729 374.701 247.996 374.544C248.265 374.384 248.588 374.304 248.964 374.304C249.34 374.304 249.663 374.384 249.932 374.544C250.201 374.701 250.421 374.916 250.592 375.188C250.763 375.46 250.888 375.769 250.968 376.116C251.051 376.463 251.092 376.824 251.092 377.2C251.092 377.576 251.051 377.937 250.968 378.284C250.888 378.631 250.763 378.94 250.592 379.212C250.421 379.484 250.201 379.7 249.932 379.86C249.663 380.017 249.34 380.096 248.964 380.096ZM248.964 379.192C249.161 379.192 249.332 379.136 249.476 379.024C249.62 378.912 249.737 378.761 249.828 378.572C249.921 378.383 249.989 378.169 250.032 377.932C250.077 377.695 250.1 377.451 250.1 377.2C250.1 376.933 250.077 376.681 250.032 376.444C249.989 376.204 249.923 375.992 249.832 375.808C249.741 375.621 249.624 375.475 249.48 375.368C249.336 375.261 249.164 375.208 248.964 375.208C248.764 375.208 248.592 375.264 248.448 375.376C248.304 375.485 248.187 375.635 248.096 375.824C248.005 376.013 247.937 376.227 247.892 376.464C247.849 376.701 247.828 376.947 247.828 377.2C247.828 377.464 247.849 377.716 247.892 377.956C247.937 378.193 248.005 378.405 248.096 378.592C248.187 378.779 248.304 378.925 248.448 379.032C248.592 379.139 248.764 379.192 248.964 379.192ZM252.038 380V374.4H252.966L253.774 377.472C253.795 377.552 253.82 377.647 253.85 377.756C253.879 377.863 253.899 377.952 253.91 378.024C253.923 377.952 253.943 377.863 253.97 377.756C253.999 377.647 254.024 377.552 254.046 377.472L254.878 374.4H255.75V380H254.926V376.96C254.926 376.899 254.926 376.82 254.926 376.724C254.928 376.628 254.934 376.552 254.942 376.496C254.918 376.563 254.891 376.637 254.862 376.72C254.835 376.803 254.811 376.883 254.79 376.96L253.934 380H253.854L252.998 376.96C252.976 376.883 252.951 376.803 252.922 376.72C252.895 376.635 252.87 376.56 252.846 376.496C252.851 376.552 252.855 376.628 252.858 376.724C252.86 376.82 252.862 376.899 252.862 376.96V380H252.038ZM263.841 380.096C263.462 380.096 263.133 380.016 262.853 379.856C262.576 379.693 262.346 379.475 262.165 379.2C261.986 378.923 261.853 378.612 261.765 378.268C261.677 377.921 261.633 377.565 261.633 377.2C261.633 376.851 261.678 376.505 261.769 376.164C261.86 375.82 261.997 375.508 262.181 375.228C262.365 374.948 262.594 374.724 262.869 374.556C263.146 374.388 263.47 374.304 263.841 374.304C264.158 374.304 264.425 374.359 264.641 374.468C264.86 374.575 265.042 374.715 265.189 374.888C265.336 375.059 265.462 375.24 265.569 375.432L264.729 375.912C264.63 375.723 264.51 375.559 264.369 375.42C264.23 375.279 264.054 375.208 263.841 375.208C263.617 375.208 263.428 375.269 263.273 375.392C263.118 375.512 262.993 375.672 262.897 375.872C262.801 376.069 262.732 376.285 262.689 376.52C262.646 376.752 262.625 376.979 262.625 377.2C262.625 377.453 262.649 377.699 262.697 377.936C262.748 378.173 262.822 378.387 262.921 378.576C263.02 378.765 263.145 378.916 263.297 379.028C263.452 379.137 263.633 379.192 263.841 379.192C264.137 379.192 264.358 379.093 264.505 378.896C264.654 378.696 264.729 378.448 264.729 378.152V378.032H263.753V377.136H265.705V377.912C265.705 378.384 265.622 378.783 265.457 379.108C265.294 379.433 265.072 379.68 264.789 379.848C264.509 380.013 264.193 380.096 263.841 380.096ZM266.403 380L268.235 374.4H269.131L270.963 380H269.939L268.819 376.24C268.805 376.197 268.789 376.14 268.771 376.068C268.755 375.996 268.739 375.92 268.723 375.84C268.707 375.76 268.693 375.685 268.683 375.616C268.669 375.685 268.655 375.76 268.639 375.84C268.623 375.92 268.607 375.996 268.591 376.068C268.575 376.14 268.56 376.197 268.547 376.24L267.427 380H266.403ZM267.587 378.768L267.843 377.904H269.523L269.779 378.768H267.587ZM271.756 380V374.4H272.684L273.492 377.472C273.514 377.552 273.539 377.647 273.568 377.756C273.598 377.863 273.618 377.952 273.628 378.024C273.642 377.952 273.662 377.863 273.688 377.756C273.718 377.647 273.743 377.552 273.764 377.472L274.596 374.4H275.468V380H274.644V376.96C274.644 376.899 274.644 376.82 274.644 376.724C274.647 376.628 274.652 376.552 274.66 376.496C274.636 376.563 274.61 376.637 274.58 376.72C274.554 376.803 274.53 376.883 274.508 376.96L273.652 380H273.572L272.716 376.96C272.695 376.883 272.67 376.803 272.64 376.72C272.614 376.635 272.588 376.56 272.564 376.496C272.57 376.552 272.574 376.628 272.576 376.724C272.579 376.82 272.58 376.899 272.58 376.96V380H271.756ZM276.686 380V374.4H280.278V375.304H277.638V376.656H279.358V377.56H277.638V379.096H280.446V380H276.686ZM283.536 380.096C283.232 380.096 282.946 380.037 282.68 379.92C282.416 379.8 282.185 379.632 281.988 379.416C281.79 379.2 281.642 378.947 281.544 378.656L282.408 378.336C282.528 378.592 282.696 378.8 282.912 378.96C283.13 379.12 283.365 379.2 283.616 379.2C283.856 379.2 284.052 379.139 284.204 379.016C284.356 378.893 284.432 378.715 284.432 378.48C284.432 378.328 284.378 378.193 284.272 378.076C284.165 377.956 284.024 377.847 283.848 377.748C283.674 377.649 283.485 377.555 283.28 377.464C283.101 377.387 282.921 377.3 282.74 377.204C282.561 377.108 282.396 376.995 282.244 376.864C282.094 376.733 281.973 376.58 281.88 376.404C281.789 376.228 281.744 376.021 281.744 375.784C281.744 375.515 281.814 375.268 281.956 375.044C282.097 374.82 282.297 374.641 282.556 374.508C282.814 374.372 283.12 374.304 283.472 374.304C283.893 374.304 284.254 374.417 284.556 374.644C284.86 374.871 285.061 375.155 285.16 375.496L284.304 375.784C284.224 375.619 284.109 375.48 283.96 375.368C283.81 375.256 283.629 375.2 283.416 375.2C283.216 375.2 283.046 375.251 282.908 375.352C282.772 375.453 282.704 375.592 282.704 375.768C282.704 375.891 282.742 375.997 282.82 376.088C282.9 376.179 283.016 376.267 283.168 376.352C283.322 376.437 283.512 376.533 283.736 376.64C283.917 376.725 284.104 376.821 284.296 376.928C284.488 377.032 284.666 377.153 284.832 377.292C285 377.431 285.134 377.593 285.236 377.78C285.34 377.967 285.392 378.184 285.392 378.432C285.392 378.787 285.305 379.088 285.132 379.336C284.961 379.584 284.734 379.773 284.452 379.904C284.172 380.032 283.866 380.096 283.536 380.096Z" fill="#FE016A"/>
<path d="M231.5 397.5V396H230V394.5H233V396H237.5V393H233V391.5H234.5V390H236V388.5H231.5V387H240.5V388.5H239V390H237.5V391.5H239V393H240.5V396H239V397.5H231.5ZM242 397.5V394.5H243.5V393H245V391.5H248V390H249.5V388.5H245V390H242V388.5H243.5V387H251V388.5H252.5V391.5H251V393H249.5V394.5H246.5V396H252.5V397.5H242ZM257 388.5H255.5V387H258.5V390H257V388.5ZM264.5 387V388.5H263V387H264.5ZM257 391.5H254V388.5H255.5V390H257V391.5ZM261.5 388.5H263V390H261.5V388.5ZM260 390H261.5V391.5H260V390ZM258.5 391.5H260V393H258.5V391.5ZM257 393H258.5V394.5H257V393ZM261.5 393H264.5V396H263V394.5H261.5V393ZM255.5 394.5H257V396H255.5V394.5ZM261.5 396H263V397.5H260V394.5H261.5V396ZM254 396H255.5V397.5H254V396Z" fill="#FE016A"/>
<line x1="188.5" y1="70" x2="188.5" y2="51" stroke="#3FE2EE"/>
<line x1="99.5" y1="357" x2="99.5" y2="338" stroke="#F2FF00"/>
<line x1="243.5" y1="357" x2="243.5" y2="338" stroke="#FE016A"/>
<defs>
<radialGradient id="paint0_radial_883_23300" cx="0" cy="0" r="1" gradientUnits="userSpaceOnUse" gradientTransform="translate(126.445 233.938) rotate(90) scale(117.445 117.445)">
<stop offset="0.625" stop-color="#F2FF00" stop-opacity="0"/>
<stop offset="1" stop-color="#F2FF00"/>
</radialGradient>
<radialGradient id="paint1_radial_883_23300" cx="0" cy="0" r="1" gradientUnits="userSpaceOnUse" gradientTransform="translate(193.351 172.98) rotate(90) scale(109.98)">
<stop offset="0.625" stop-color="#11F1FF" stop-opacity="0"/>
<stop offset="1" stop-color="#11F1FF"/>
</radialGradient>
<radialGradient id="paint2_radial_883_23300" cx="0" cy="0" r="1" gradientUnits="userSpaceOnUse" gradientTransform="translate(211.736 233.938) rotate(90) scale(117.264 117.264)">
<stop offset="0.625" stop-color="#FF378B" stop-opacity="0"/>
<stop offset="1" stop-color="#FF378B"/>
</radialGradient>
</defs>
</svg>
