<svg width="337" height="455" viewBox="0 0 337 455" fill="none" xmlns="http://www.w3.org/2000/svg">
<path d="M89.2055 306.765C136.996 306.765 175.738 268.023 175.738 220.232C175.738 172.441 136.996 133.699 89.2055 133.699C41.4148 133.699 2.67285 172.441 2.67285 220.232C2.67285 268.023 41.4148 306.765 89.2055 306.765Z" fill="url(#paint0_radial_917_19590)"/>
<path d="M72.5 210.5V209H71V207.5H74V209H78.5V206H74V204.5H75.5V203H77V201.5H72.5V200H81.5V201.5H80V203H78.5V204.5H80V206H81.5V209H80V210.5H72.5ZM83 210.5V207.5H84.5V206H86V204.5H89V203H90.5V201.5H86V203H83V201.5H84.5V200H92V201.5H93.5V204.5H92V206H90.5V207.5H87.5V209H93.5V210.5H83ZM98 201.5H96.5V200H99.5V203H98V201.5ZM105.5 200V201.5H104V200H105.5ZM98 204.5H95V201.5H96.5V203H98V204.5ZM102.5 201.5H104V203H102.5V201.5ZM101 203H102.5V204.5H101V203ZM99.5 204.5H101V206H99.5V204.5ZM98 206H99.5V207.5H98V206ZM102.5 206H105.5V209H104V207.5H102.5V206ZM96.5 207.5H98V209H96.5V207.5ZM102.5 209H104V210.5H101V207.5H102.5V209ZM95 209H96.5V210.5H95V209Z" fill="#404040"/>
<path d="M64.9596 224V218.4H66.9356C67.3996 218.4 67.7676 218.485 68.0396 218.656C68.3142 218.827 68.5102 219.045 68.6276 219.312C68.7476 219.576 68.8076 219.851 68.8076 220.136C68.8076 220.336 68.7729 220.539 68.7036 220.744C68.6342 220.947 68.5249 221.133 68.3756 221.304C68.2262 221.475 68.0329 221.612 67.7956 221.716C67.5582 221.82 67.2716 221.872 66.9356 221.872H65.9116V224H64.9596ZM65.9116 220.976H66.9836C67.1916 220.976 67.3582 220.935 67.4836 220.852C67.6089 220.767 67.6996 220.66 67.7556 220.532C67.8116 220.401 67.8396 220.269 67.8396 220.136C67.8396 220.016 67.8142 219.892 67.7636 219.764C67.7129 219.633 67.6249 219.523 67.4996 219.432C67.3769 219.341 67.2049 219.296 66.9836 219.296H65.9116V220.976ZM69.8893 224V218.4H71.8253C72.2866 218.4 72.6506 218.48 72.9173 218.64C73.1839 218.8 73.3733 219.009 73.4852 219.268C73.5999 219.527 73.6573 219.803 73.6573 220.096C73.6573 220.304 73.6226 220.507 73.5533 220.704C73.4839 220.899 73.3799 221.076 73.2413 221.236C73.1026 221.393 72.9279 221.523 72.7173 221.624C72.5093 221.725 72.2653 221.787 71.9853 221.808H70.8413V224H69.8893ZM72.5933 224L71.4493 221.696L72.4653 221.592L73.6493 224H72.5933ZM70.8413 220.912H71.8413C72.0546 220.912 72.2226 220.873 72.3453 220.796C72.4679 220.719 72.5546 220.619 72.6053 220.496C72.6559 220.373 72.6813 220.243 72.6813 220.104C72.6813 219.979 72.6573 219.855 72.6093 219.732C72.5613 219.607 72.4759 219.503 72.3533 219.42C72.2333 219.337 72.0626 219.296 71.8413 219.296H70.8413V220.912ZM76.6749 224.096C76.2989 224.096 75.9763 224.017 75.7069 223.86C75.4403 223.7 75.2216 223.484 75.0509 223.212C74.8803 222.94 74.7549 222.631 74.6749 222.284C74.5949 221.937 74.5549 221.576 74.5549 221.2C74.5549 220.824 74.5949 220.463 74.6749 220.116C74.7549 219.769 74.8803 219.46 75.0509 219.188C75.2216 218.916 75.4403 218.701 75.7069 218.544C75.9763 218.384 76.2989 218.304 76.6749 218.304C77.0509 218.304 77.3736 218.384 77.6429 218.544C77.9123 218.701 78.1323 218.916 78.3029 219.188C78.4736 219.46 78.5989 219.769 78.6789 220.116C78.7616 220.463 78.8029 220.824 78.8029 221.2C78.8029 221.576 78.7616 221.937 78.6789 222.284C78.5989 222.631 78.4736 222.94 78.3029 223.212C78.1323 223.484 77.9123 223.7 77.6429 223.86C77.3736 224.017 77.0509 224.096 76.6749 224.096ZM76.6749 223.192C76.8723 223.192 77.0429 223.136 77.1869 223.024C77.3309 222.912 77.4483 222.761 77.5389 222.572C77.6323 222.383 77.7003 222.169 77.7429 221.932C77.7883 221.695 77.8109 221.451 77.8109 221.2C77.8109 220.933 77.7883 220.681 77.7429 220.444C77.7003 220.204 77.6336 219.992 77.5429 219.808C77.4523 219.621 77.3349 219.475 77.1909 219.368C77.0469 219.261 76.8749 219.208 76.6749 219.208C76.4749 219.208 76.3029 219.264 76.1589 219.376C76.0149 219.485 75.8976 219.635 75.8069 219.824C75.7163 220.013 75.6483 220.227 75.6029 220.464C75.5603 220.701 75.5389 220.947 75.5389 221.2C75.5389 221.464 75.5603 221.716 75.6029 221.956C75.6483 222.193 75.7163 222.405 75.8069 222.592C75.8976 222.779 76.0149 222.925 76.1589 223.032C76.3029 223.139 76.4749 223.192 76.6749 223.192ZM79.7486 224V218.4H81.1566C81.626 218.4 82.0233 218.48 82.3486 218.64C82.6766 218.797 82.942 219.011 83.1446 219.28C83.35 219.547 83.4993 219.847 83.5926 220.18C83.686 220.511 83.7326 220.851 83.7326 221.2C83.7326 221.52 83.6886 221.844 83.6006 222.172C83.5126 222.5 83.3673 222.803 83.1646 223.08C82.9646 223.357 82.698 223.58 82.3646 223.748C82.0313 223.916 81.618 224 81.1246 224H79.7486ZM80.7006 223.104H81.2206C81.506 223.104 81.746 223.048 81.9406 222.936C82.1353 222.821 82.2913 222.671 82.4086 222.484C82.526 222.297 82.61 222.092 82.6606 221.868C82.714 221.644 82.7406 221.421 82.7406 221.2C82.7406 220.963 82.7126 220.732 82.6566 220.508C82.6033 220.281 82.5193 220.077 82.4046 219.896C82.29 219.712 82.142 219.567 81.9606 219.46C81.7793 219.351 81.562 219.296 81.3086 219.296H80.7006V223.104ZM86.5343 224.096C86.1983 224.096 85.8863 224.025 85.5983 223.884C85.313 223.743 85.0823 223.509 84.9063 223.184C84.733 222.859 84.6463 222.419 84.6463 221.864V218.4H85.5903V221.864C85.5903 222.208 85.6303 222.476 85.7103 222.668C85.793 222.86 85.905 222.996 86.0463 223.076C86.1903 223.153 86.353 223.192 86.5343 223.192C86.713 223.192 86.873 223.153 87.0143 223.076C87.1583 222.996 87.2716 222.86 87.3543 222.668C87.437 222.476 87.4783 222.208 87.4783 221.864V218.4H88.4303V221.864C88.4303 222.411 88.3436 222.848 88.1703 223.176C87.997 223.501 87.7663 223.736 87.4783 223.88C87.1903 224.024 86.8756 224.096 86.5343 224.096ZM89.576 224V223.28L92.36 218.904L92.576 219.296H89.752V218.4H93.36V219.12L90.552 223.488L90.344 223.096H93.352V224H89.576ZM95.9137 224V218.4H96.8657V224H95.9137ZM94.7457 224V223.16H98.0417V224H94.7457ZM94.7457 219.24V218.4H98.0417V219.24H94.7457ZM99.4674 224V218.4H100.371L102.115 221.856C102.139 221.899 102.173 221.96 102.215 222.04C102.258 222.12 102.291 222.187 102.315 222.24C102.313 222.171 102.309 222.101 102.303 222.032C102.301 221.963 102.299 221.904 102.299 221.856V218.4H103.179V224H102.315L100.539 220.528C100.515 220.483 100.482 220.42 100.439 220.34C100.397 220.26 100.361 220.195 100.331 220.144C100.345 220.203 100.351 220.268 100.351 220.34C100.354 220.412 100.355 220.475 100.355 220.528V224H99.4674ZM104.397 224V218.4H105.805C106.274 218.4 106.672 218.48 106.997 218.64C107.325 218.797 107.59 219.011 107.793 219.28C107.998 219.547 108.148 219.847 108.241 220.18C108.334 220.511 108.381 220.851 108.381 221.2C108.381 221.52 108.337 221.844 108.249 222.172C108.161 222.5 108.016 222.803 107.813 223.08C107.613 223.357 107.346 223.58 107.013 223.748C106.68 223.916 106.266 224 105.773 224H104.397ZM105.349 223.104H105.869C106.154 223.104 106.394 223.048 106.589 222.936C106.784 222.821 106.94 222.671 107.057 222.484C107.174 222.297 107.258 222.092 107.309 221.868C107.362 221.644 107.389 221.421 107.389 221.2C107.389 220.963 107.361 220.732 107.305 220.508C107.252 220.281 107.168 220.077 107.053 219.896C106.938 219.712 106.79 219.567 106.609 219.46C106.428 219.351 106.21 219.296 105.957 219.296H105.349V223.104ZM111.183 224.096C110.807 224.096 110.484 224.017 110.215 223.86C109.948 223.7 109.729 223.484 109.559 223.212C109.388 222.94 109.263 222.631 109.183 222.284C109.103 221.937 109.063 221.576 109.063 221.2C109.063 220.824 109.103 220.463 109.183 220.116C109.263 219.769 109.388 219.46 109.559 219.188C109.729 218.916 109.948 218.701 110.215 218.544C110.484 218.384 110.807 218.304 111.183 218.304C111.559 218.304 111.881 218.384 112.151 218.544C112.42 218.701 112.64 218.916 112.811 219.188C112.981 219.46 113.107 219.769 113.187 220.116C113.269 220.463 113.311 220.824 113.311 221.2C113.311 221.576 113.269 221.937 113.187 222.284C113.107 222.631 112.981 222.94 112.811 223.212C112.64 223.484 112.42 223.7 112.151 223.86C111.881 224.017 111.559 224.096 111.183 224.096ZM111.183 223.192C111.38 223.192 111.551 223.136 111.695 223.024C111.839 222.912 111.956 222.761 112.047 222.572C112.14 222.383 112.208 222.169 112.251 221.932C112.296 221.695 112.319 221.451 112.319 221.2C112.319 220.933 112.296 220.681 112.251 220.444C112.208 220.204 112.141 219.992 112.051 219.808C111.96 219.621 111.843 219.475 111.699 219.368C111.555 219.261 111.383 219.208 111.183 219.208C110.983 219.208 110.811 219.264 110.667 219.376C110.523 219.485 110.405 219.635 110.315 219.824C110.224 220.013 110.156 220.227 110.111 220.464C110.068 220.701 110.047 220.947 110.047 221.2C110.047 221.464 110.068 221.716 110.111 221.956C110.156 222.193 110.224 222.405 110.315 222.592C110.405 222.779 110.523 222.925 110.667 223.032C110.811 223.139 110.983 223.192 111.183 223.192ZM69.3764 234.088C68.9711 234.088 68.6271 234.005 68.3444 233.84C68.0617 233.672 67.8337 233.449 67.6604 233.172C67.4871 232.892 67.3604 232.581 67.2804 232.24C67.2004 231.896 67.1604 231.549 67.1604 231.2C67.1604 230.864 67.2004 230.527 67.2804 230.188C67.3631 229.847 67.4924 229.535 67.6684 229.252C67.8444 228.969 68.0724 228.743 68.3524 228.572C68.6351 228.399 68.9764 228.312 69.3764 228.312C69.6911 228.312 69.9631 228.369 70.1924 228.484C70.4244 228.596 70.6164 228.741 70.7684 228.92C70.9204 229.099 71.0351 229.285 71.1124 229.48L70.2644 229.888C70.1577 229.68 70.0364 229.516 69.9004 229.396C69.7671 229.276 69.5924 229.216 69.3764 229.216C69.1497 229.216 68.9577 229.276 68.8004 229.396C68.6431 229.516 68.5151 229.675 68.4164 229.872C68.3204 230.069 68.2511 230.284 68.2084 230.516C68.1657 230.748 68.1444 230.976 68.1444 231.2C68.1444 231.437 68.1684 231.673 68.2164 231.908C68.2671 232.143 68.3417 232.356 68.4404 232.548C68.5417 232.74 68.6697 232.895 68.8244 233.012C68.9817 233.127 69.1657 233.184 69.3764 233.184C69.5924 233.184 69.7711 233.117 69.9124 232.984C70.0537 232.848 70.1737 232.675 70.2724 232.464L71.1364 232.792C71.0351 233.04 70.9044 233.263 70.7444 233.46C70.5871 233.655 70.3951 233.808 70.1684 233.92C69.9417 234.032 69.6777 234.088 69.3764 234.088ZM74.2101 234.096C73.8341 234.096 73.5114 234.017 73.2421 233.86C72.9754 233.7 72.7568 233.484 72.5861 233.212C72.4154 232.94 72.2901 232.631 72.2101 232.284C72.1301 231.937 72.0901 231.576 72.0901 231.2C72.0901 230.824 72.1301 230.463 72.2101 230.116C72.2901 229.769 72.4154 229.46 72.5861 229.188C72.7568 228.916 72.9754 228.701 73.2421 228.544C73.5114 228.384 73.8341 228.304 74.2101 228.304C74.5861 228.304 74.9088 228.384 75.1781 228.544C75.4474 228.701 75.6674 228.916 75.8381 229.188C76.0088 229.46 76.1341 229.769 76.2141 230.116C76.2968 230.463 76.3381 230.824 76.3381 231.2C76.3381 231.576 76.2968 231.937 76.2141 232.284C76.1341 232.631 76.0088 232.94 75.8381 233.212C75.6674 233.484 75.4474 233.7 75.1781 233.86C74.9088 234.017 74.5861 234.096 74.2101 234.096ZM74.2101 233.192C74.4074 233.192 74.5781 233.136 74.7221 233.024C74.8661 232.912 74.9834 232.761 75.0741 232.572C75.1674 232.383 75.2354 232.169 75.2781 231.932C75.3234 231.695 75.3461 231.451 75.3461 231.2C75.3461 230.933 75.3234 230.681 75.2781 230.444C75.2354 230.204 75.1688 229.992 75.0781 229.808C74.9874 229.621 74.8701 229.475 74.7261 229.368C74.5821 229.261 74.4101 229.208 74.2101 229.208C74.0101 229.208 73.8381 229.264 73.6941 229.376C73.5501 229.485 73.4328 229.635 73.3421 229.824C73.2514 230.013 73.1834 230.227 73.1381 230.464C73.0954 230.701 73.0741 230.947 73.0741 231.2C73.0741 231.464 73.0954 231.716 73.1381 231.956C73.1834 232.193 73.2514 232.405 73.3421 232.592C73.4328 232.779 73.5501 232.925 73.6941 233.032C73.8381 233.139 74.0101 233.192 74.2101 233.192ZM77.2838 234V228.4H78.1878L79.9318 231.856C79.9558 231.899 79.9891 231.96 80.0318 232.04C80.0744 232.12 80.1078 232.187 80.1318 232.24C80.1291 232.171 80.1251 232.101 80.1198 232.032C80.1171 231.963 80.1158 231.904 80.1158 231.856V228.4H80.9958V234H80.1318L78.3558 230.528C78.3318 230.483 78.2984 230.42 78.2558 230.34C78.2131 230.26 78.1771 230.195 78.1478 230.144C78.1611 230.203 78.1678 230.268 78.1678 230.34C78.1704 230.412 78.1718 230.475 78.1718 230.528V234H77.2838ZM83.5895 234V229.312H81.9655V228.4H86.1735V229.312H84.5415V234H83.5895ZM87.1432 234V228.4H90.7352V229.304H88.0952V230.656H89.8152V231.56H88.0952V233.096H90.9032V234H87.1432ZM93.9288 234.096C93.5928 234.096 93.2808 234.025 92.9928 233.884C92.7075 233.743 92.4768 233.509 92.3008 233.184C92.1275 232.859 92.0408 232.419 92.0408 231.864V228.4H92.9848V231.864C92.9848 232.208 93.0248 232.476 93.1048 232.668C93.1875 232.86 93.2995 232.996 93.4408 233.076C93.5848 233.153 93.7475 233.192 93.9288 233.192C94.1075 233.192 94.2675 233.153 94.4088 233.076C94.5528 232.996 94.6662 232.86 94.7488 232.668C94.8315 232.476 94.8728 232.208 94.8728 231.864V228.4H95.8248V231.864C95.8248 232.411 95.7382 232.848 95.5648 233.176C95.3915 233.501 95.1608 233.736 94.8728 233.88C94.5848 234.024 94.2702 234.096 93.9288 234.096ZM93.4008 227.88L94.5368 226.632H95.7288L94.3048 227.88H93.4008ZM97.0025 234V228.4H98.4105C98.8799 228.4 99.2772 228.48 99.6025 228.64C99.9305 228.797 100.196 229.011 100.399 229.28C100.604 229.547 100.753 229.847 100.847 230.18C100.94 230.511 100.987 230.851 100.987 231.2C100.987 231.52 100.943 231.844 100.855 232.172C100.767 232.5 100.621 232.803 100.419 233.08C100.219 233.357 99.9519 233.58 99.6185 233.748C99.2852 233.916 98.8719 234 98.3785 234H97.0025ZM97.9545 233.104H98.4745C98.7599 233.104 98.9999 233.048 99.1945 232.936C99.3892 232.821 99.5452 232.671 99.6625 232.484C99.7799 232.297 99.8639 232.092 99.9145 231.868C99.9679 231.644 99.9945 231.421 99.9945 231.2C99.9945 230.963 99.9665 230.732 99.9105 230.508C99.8572 230.281 99.7732 230.077 99.6585 229.896C99.5439 229.712 99.3959 229.567 99.2145 229.46C99.0332 229.351 98.8159 229.296 98.5625 229.296H97.9545V233.104ZM103.788 234.096C103.412 234.096 103.09 234.017 102.82 233.86C102.554 233.7 102.335 233.484 102.164 233.212C101.994 232.94 101.868 232.631 101.788 232.284C101.708 231.937 101.668 231.576 101.668 231.2C101.668 230.824 101.708 230.463 101.788 230.116C101.868 229.769 101.994 229.46 102.164 229.188C102.335 228.916 102.554 228.701 102.82 228.544C103.09 228.384 103.412 228.304 103.788 228.304C104.164 228.304 104.487 228.384 104.756 228.544C105.026 228.701 105.246 228.916 105.416 229.188C105.587 229.46 105.712 229.769 105.792 230.116C105.875 230.463 105.916 230.824 105.916 231.2C105.916 231.576 105.875 231.937 105.792 232.284C105.712 232.631 105.587 232.94 105.416 233.212C105.246 233.484 105.026 233.7 104.756 233.86C104.487 234.017 104.164 234.096 103.788 234.096ZM103.788 233.192C103.986 233.192 104.156 233.136 104.3 233.024C104.444 232.912 104.562 232.761 104.652 232.572C104.746 232.383 104.814 232.169 104.856 231.932C104.902 231.695 104.924 231.451 104.924 231.2C104.924 230.933 104.902 230.681 104.856 230.444C104.814 230.204 104.747 229.992 104.656 229.808C104.566 229.621 104.448 229.475 104.304 229.368C104.16 229.261 103.988 229.208 103.788 229.208C103.588 229.208 103.416 229.264 103.272 229.376C103.128 229.485 103.011 229.635 102.92 229.824C102.83 230.013 102.762 230.227 102.716 230.464C102.674 230.701 102.652 230.947 102.652 231.2C102.652 231.464 102.674 231.716 102.716 231.956C102.762 232.193 102.83 232.405 102.92 232.592C103.011 232.779 103.128 232.925 103.272 233.032C103.416 233.139 103.588 233.192 103.788 233.192ZM106.67 235.04L109.814 228.304H110.758L107.614 235.04H106.67ZM62.4947 244V238.4H63.4227L64.2307 241.472C64.2521 241.552 64.2774 241.647 64.3067 241.756C64.3361 241.863 64.3561 241.952 64.3667 242.024C64.3801 241.952 64.4001 241.863 64.4267 241.756C64.4561 241.647 64.4814 241.552 64.5027 241.472L65.3347 238.4H66.2067V244H65.3827V240.96C65.3827 240.899 65.3827 240.82 65.3827 240.724C65.3854 240.628 65.3907 240.552 65.3987 240.496C65.3747 240.563 65.3481 240.637 65.3187 240.72C65.2921 240.803 65.2681 240.883 65.2467 240.96L64.3907 244H64.3107L63.4547 240.96C63.4334 240.883 63.4081 240.803 63.3787 240.72C63.3521 240.635 63.3267 240.56 63.3027 240.496C63.3081 240.552 63.3121 240.628 63.3147 240.724C63.3174 240.82 63.3187 240.899 63.3187 240.96V244H62.4947ZM69.2804 244.096C68.9044 244.096 68.5817 244.017 68.3124 243.86C68.0457 243.7 67.8271 243.484 67.6564 243.212C67.4857 242.94 67.3604 242.631 67.2804 242.284C67.2004 241.937 67.1604 241.576 67.1604 241.2C67.1604 240.824 67.2004 240.463 67.2804 240.116C67.3604 239.769 67.4857 239.46 67.6564 239.188C67.8271 238.916 68.0457 238.701 68.3124 238.544C68.5817 238.384 68.9044 238.304 69.2804 238.304C69.6564 238.304 69.9791 238.384 70.2484 238.544C70.5177 238.701 70.7377 238.916 70.9084 239.188C71.0791 239.46 71.2044 239.769 71.2844 240.116C71.3671 240.463 71.4084 240.824 71.4084 241.2C71.4084 241.576 71.3671 241.937 71.2844 242.284C71.2044 242.631 71.0791 242.94 70.9084 243.212C70.7377 243.484 70.5177 243.7 70.2484 243.86C69.9791 244.017 69.6564 244.096 69.2804 244.096ZM69.2804 243.192C69.4777 243.192 69.6484 243.136 69.7924 243.024C69.9364 242.912 70.0537 242.761 70.1444 242.572C70.2377 242.383 70.3057 242.169 70.3484 241.932C70.3937 241.695 70.4164 241.451 70.4164 241.2C70.4164 240.933 70.3937 240.681 70.3484 240.444C70.3057 240.204 70.2391 239.992 70.1484 239.808C70.0577 239.621 69.9404 239.475 69.7964 239.368C69.6524 239.261 69.4804 239.208 69.2804 239.208C69.0804 239.208 68.9084 239.264 68.7644 239.376C68.6204 239.485 68.5031 239.635 68.4124 239.824C68.3217 240.013 68.2537 240.227 68.2084 240.464C68.1657 240.701 68.1444 240.947 68.1444 241.2C68.1444 241.464 68.1657 241.716 68.2084 241.956C68.2537 242.193 68.3217 242.405 68.4124 242.592C68.5031 242.779 68.6204 242.925 68.7644 243.032C68.9084 243.139 69.0804 243.192 69.2804 243.192ZM72.3541 244V238.4H73.2581L75.0021 241.856C75.0261 241.899 75.0594 241.96 75.1021 242.04C75.1448 242.12 75.1781 242.187 75.2021 242.24C75.1994 242.171 75.1954 242.101 75.1901 242.032C75.1874 241.963 75.1861 241.904 75.1861 241.856V238.4H76.0661V244H75.2021L73.4261 240.528C73.4021 240.483 73.3688 240.42 73.3261 240.34C73.2834 240.26 73.2474 240.195 73.2181 240.144C73.2314 240.203 73.2381 240.268 73.2381 240.34C73.2408 240.412 73.2421 240.475 73.2421 240.528V244H72.3541ZM77.2838 244V238.4H80.8758V239.304H78.2358V240.656H79.9558V241.56H78.2358V243.096H81.0438V244H77.2838ZM83.5895 244V239.312H81.9655V238.4H86.1735V239.312H84.5415V244H83.5895ZM88.5192 244V238.4H89.4712V244H88.5192ZM87.3512 244V243.16H90.6472V244H87.3512ZM87.3512 239.24V238.4H90.6472V239.24H87.3512ZM92.0408 244V243.28L94.8248 238.904L95.0408 239.296H92.2168V238.4H95.8248V239.12L93.0168 243.488L92.8088 243.096H95.8168V244H92.0408ZM96.5785 244L98.4105 238.4H99.3065L101.139 244H100.115L98.9945 240.24C98.9812 240.197 98.9652 240.14 98.9465 240.068C98.9305 239.996 98.9145 239.92 98.8985 239.84C98.8825 239.76 98.8692 239.685 98.8585 239.616C98.8452 239.685 98.8305 239.76 98.8145 239.84C98.7985 239.92 98.7825 239.996 98.7665 240.068C98.7505 240.14 98.7359 240.197 98.7225 240.24L97.6025 244H96.5785ZM97.7625 242.768L98.0185 241.904H99.6985L99.9545 242.768H97.7625ZM103.884 244.088C103.479 244.088 103.135 244.005 102.852 243.84C102.57 243.672 102.342 243.449 102.168 243.172C101.995 242.892 101.868 242.581 101.788 242.24C101.708 241.896 101.668 241.549 101.668 241.2C101.668 240.864 101.708 240.527 101.788 240.188C101.871 239.847 102 239.535 102.176 239.252C102.352 238.969 102.58 238.743 102.86 238.572C103.143 238.399 103.484 238.312 103.884 238.312C104.199 238.312 104.471 238.369 104.7 238.484C104.932 238.596 105.124 238.741 105.276 238.92C105.428 239.099 105.543 239.285 105.62 239.48L104.772 239.888C104.666 239.68 104.544 239.516 104.408 239.396C104.275 239.276 104.1 239.216 103.884 239.216C103.658 239.216 103.466 239.276 103.308 239.396C103.151 239.516 103.023 239.675 102.924 239.872C102.828 240.069 102.759 240.284 102.716 240.516C102.674 240.748 102.652 240.976 102.652 241.2C102.652 241.437 102.676 241.673 102.724 241.908C102.775 242.143 102.85 242.356 102.948 242.548C103.05 242.74 103.178 242.895 103.332 243.012C103.49 243.127 103.674 243.184 103.884 243.184C104.1 243.184 104.279 243.117 104.42 242.984C104.562 242.848 104.682 242.675 104.78 242.464L105.644 242.792C105.543 243.04 105.412 243.263 105.252 243.46C105.095 243.655 104.903 243.808 104.676 243.92C104.45 244.032 104.186 244.088 103.884 244.088ZM103.812 245.936C103.61 245.936 103.44 245.903 103.304 245.836C103.168 245.772 103.06 245.691 102.98 245.592L103.404 245.28C103.436 245.323 103.479 245.356 103.532 245.38C103.586 245.404 103.65 245.416 103.724 245.416C103.844 245.416 103.939 245.384 104.008 245.32C104.08 245.259 104.116 245.179 104.116 245.08C104.116 244.984 104.078 244.905 104 244.844C103.926 244.783 103.826 244.752 103.7 244.752C103.578 244.752 103.468 244.784 103.372 244.848L103.188 244.616L103.756 243.92H104.252L103.964 244.384C104.276 244.384 104.502 244.453 104.64 244.592C104.782 244.731 104.852 244.896 104.852 245.088C104.852 245.336 104.76 245.539 104.576 245.696C104.392 245.856 104.138 245.936 103.812 245.936ZM106.438 244L108.27 238.4H109.166L110.998 244H109.974L108.854 240.24C108.841 240.197 108.825 240.14 108.806 240.068C108.79 239.996 108.774 239.92 108.758 239.84C108.742 239.76 108.729 239.685 108.718 239.616C108.705 239.685 108.69 239.76 108.674 239.84C108.658 239.92 108.642 239.996 108.626 240.068C108.61 240.14 108.595 240.197 108.582 240.24L107.462 244H106.438ZM107.622 242.768L107.878 241.904H109.558L109.814 242.768H107.622ZM109.35 237.784C109.198 237.784 109.059 237.763 108.934 237.72C108.811 237.675 108.694 237.627 108.582 237.576C108.486 237.531 108.393 237.492 108.302 237.46C108.214 237.425 108.123 237.408 108.03 237.408C107.931 237.408 107.845 237.435 107.77 237.488C107.698 237.539 107.659 237.627 107.654 237.752H107.214C107.214 237.443 107.279 237.191 107.41 236.996C107.541 236.801 107.766 236.704 108.086 236.704C108.238 236.704 108.377 236.725 108.502 236.768C108.627 236.811 108.745 236.859 108.854 236.912C108.945 236.955 109.035 236.993 109.126 237.028C109.217 237.063 109.31 237.08 109.406 237.08C109.507 237.08 109.594 237.053 109.666 237C109.741 236.947 109.779 236.859 109.782 236.736H110.222C110.222 237.043 110.157 237.295 110.026 237.492C109.895 237.687 109.67 237.784 109.35 237.784ZM113.648 244.096C113.272 244.096 112.949 244.017 112.68 243.86C112.413 243.7 112.194 243.484 112.024 243.212C111.853 242.94 111.728 242.631 111.648 242.284C111.568 241.937 111.528 241.576 111.528 241.2C111.528 240.824 111.568 240.463 111.648 240.116C111.728 239.769 111.853 239.46 112.024 239.188C112.194 238.916 112.413 238.701 112.68 238.544C112.949 238.384 113.272 238.304 113.648 238.304C114.024 238.304 114.346 238.384 114.616 238.544C114.885 238.701 115.105 238.916 115.276 239.188C115.446 239.46 115.572 239.769 115.652 240.116C115.734 240.463 115.776 240.824 115.776 241.2C115.776 241.576 115.734 241.937 115.652 242.284C115.572 242.631 115.446 242.94 115.276 243.212C115.105 243.484 114.885 243.7 114.616 243.86C114.346 244.017 114.024 244.096 113.648 244.096ZM113.648 243.192C113.845 243.192 114.016 243.136 114.16 243.024C114.304 242.912 114.421 242.761 114.512 242.572C114.605 242.383 114.673 242.169 114.716 241.932C114.761 241.695 114.784 241.451 114.784 241.2C114.784 240.933 114.761 240.681 114.716 240.444C114.673 240.204 114.606 239.992 114.516 239.808C114.425 239.621 114.308 239.475 114.164 239.368C114.02 239.261 113.848 239.208 113.648 239.208C113.448 239.208 113.276 239.264 113.132 239.376C112.988 239.485 112.87 239.635 112.78 239.824C112.689 240.013 112.621 240.227 112.576 240.464C112.533 240.701 112.512 240.947 112.512 241.2C112.512 241.464 112.533 241.716 112.576 241.956C112.621 242.193 112.689 242.405 112.78 242.592C112.87 242.779 112.988 242.925 113.132 243.032C113.276 243.139 113.448 243.192 113.648 243.192Z" fill="#404040"/>
<path d="M257.515 299.717C301.413 299.717 337 264.13 337 220.231C337 176.333 301.413 140.746 257.515 140.746C213.616 140.746 178.029 176.333 178.029 220.231C178.029 264.13 213.616 299.717 257.515 299.717Z" fill="url(#paint1_radial_917_19590)"/>
<path d="M239.809 218.318V215.318H241.309V213.818H242.809V212.318H245.809V210.818H247.309V209.318H242.809V210.818H239.809V209.318H241.309V207.818H248.809V209.318H250.309V212.318H248.809V213.818H247.309V215.318H244.309V216.818H250.309V218.318H239.809ZM254.809 218.318V213.818H256.309V212.318H257.809V210.818H259.309V209.318H254.809V210.818H251.809V207.818H262.309V210.818H260.809V212.318H259.309V213.818H257.809V218.318H254.809ZM266.809 209.318H265.309V207.818H268.309V210.818H266.809V209.318ZM274.309 207.818V209.318H272.809V207.818H274.309ZM266.809 212.318H263.809V209.318H265.309V210.818H266.809V212.318ZM271.309 209.318H272.809V210.818H271.309V209.318ZM269.809 210.818H271.309V212.318H269.809V210.818ZM268.309 212.318H269.809V213.818H268.309V212.318ZM266.809 213.818H268.309V215.318H266.809V213.818ZM271.309 213.818H274.309V216.818H272.809V215.318H271.309V213.818ZM265.309 215.318H266.809V216.818H265.309V215.318ZM271.309 216.818H272.809V218.318H269.809V215.318H271.309V216.818ZM263.809 216.818H265.309V218.318H263.809V216.818Z" fill="#404040"/>
<path d="M233.345 231.818L235.177 226.218H236.073L237.905 231.818H236.881L235.761 228.058C235.747 228.016 235.731 227.958 235.713 227.886C235.697 227.814 235.681 227.738 235.665 227.658C235.649 227.578 235.635 227.504 235.625 227.434C235.611 227.504 235.597 227.578 235.581 227.658C235.565 227.738 235.549 227.814 235.533 227.886C235.517 227.958 235.502 228.016 235.489 228.058L234.369 231.818H233.345ZM234.529 230.586L234.785 229.722H236.465L236.721 230.586H234.529ZM240.618 231.914C240.314 231.914 240.029 231.856 239.762 231.738C239.498 231.618 239.268 231.45 239.07 231.234C238.873 231.018 238.725 230.765 238.626 230.474L239.49 230.154C239.61 230.41 239.778 230.618 239.994 230.778C240.213 230.938 240.448 231.018 240.698 231.018C240.938 231.018 241.134 230.957 241.286 230.834C241.438 230.712 241.514 230.533 241.514 230.298C241.514 230.146 241.461 230.012 241.354 229.894C241.248 229.774 241.106 229.665 240.93 229.566C240.757 229.468 240.568 229.373 240.362 229.282C240.184 229.205 240.004 229.118 239.822 229.022C239.644 228.926 239.478 228.813 239.326 228.682C239.177 228.552 239.056 228.398 238.962 228.222C238.872 228.046 238.826 227.84 238.826 227.602C238.826 227.333 238.897 227.086 239.038 226.862C239.18 226.638 239.38 226.46 239.638 226.326C239.897 226.19 240.202 226.122 240.554 226.122C240.976 226.122 241.337 226.236 241.638 226.462C241.942 226.689 242.144 226.973 242.242 227.314L241.386 227.602C241.306 227.437 241.192 227.298 241.042 227.186C240.893 227.074 240.712 227.018 240.498 227.018C240.298 227.018 240.129 227.069 239.99 227.17C239.854 227.272 239.786 227.41 239.786 227.586C239.786 227.709 239.825 227.816 239.902 227.906C239.982 227.997 240.098 228.085 240.25 228.17C240.405 228.256 240.594 228.352 240.818 228.458C241 228.544 241.186 228.64 241.378 228.746C241.57 228.85 241.749 228.972 241.914 229.11C242.082 229.249 242.217 229.412 242.318 229.598C242.422 229.785 242.474 230.002 242.474 230.25C242.474 230.605 242.388 230.906 242.214 231.154C242.044 231.402 241.817 231.592 241.534 231.722C241.254 231.85 240.949 231.914 240.618 231.914ZM245.548 231.914C245.244 231.914 244.959 231.856 244.692 231.738C244.428 231.618 244.197 231.45 244 231.234C243.803 231.018 243.655 230.765 243.556 230.474L244.42 230.154C244.54 230.41 244.708 230.618 244.924 230.778C245.143 230.938 245.377 231.018 245.628 231.018C245.868 231.018 246.064 230.957 246.216 230.834C246.368 230.712 246.444 230.533 246.444 230.298C246.444 230.146 246.391 230.012 246.284 229.894C246.177 229.774 246.036 229.665 245.86 229.566C245.687 229.468 245.497 229.373 245.292 229.282C245.113 229.205 244.933 229.118 244.752 229.022C244.573 228.926 244.408 228.813 244.256 228.682C244.107 228.552 243.985 228.398 243.892 228.222C243.801 228.046 243.756 227.84 243.756 227.602C243.756 227.333 243.827 227.086 243.968 226.862C244.109 226.638 244.309 226.46 244.568 226.326C244.827 226.19 245.132 226.122 245.484 226.122C245.905 226.122 246.267 226.236 246.568 226.462C246.872 226.689 247.073 226.973 247.172 227.314L246.316 227.602C246.236 227.437 246.121 227.298 245.972 227.186C245.823 227.074 245.641 227.018 245.428 227.018C245.228 227.018 245.059 227.069 244.92 227.17C244.784 227.272 244.716 227.41 244.716 227.586C244.716 227.709 244.755 227.816 244.832 227.906C244.912 227.997 245.028 228.085 245.18 228.17C245.335 228.256 245.524 228.352 245.748 228.458C245.929 228.544 246.116 228.64 246.308 228.746C246.5 228.85 246.679 228.972 246.844 229.11C247.012 229.249 247.147 229.412 247.248 229.598C247.352 229.785 247.404 230.002 247.404 230.25C247.404 230.605 247.317 230.906 247.144 231.154C246.973 231.402 246.747 231.592 246.464 231.722C246.184 231.85 245.879 231.914 245.548 231.914ZM249.934 231.818V226.218H250.886V231.818H249.934ZM248.766 231.818V230.978H252.062V231.818H248.766ZM248.766 227.058V226.218H252.062V227.058H248.766ZM253.487 231.818V226.218H254.391L256.135 229.674C256.159 229.717 256.193 229.778 256.235 229.858C256.278 229.938 256.311 230.005 256.335 230.058C256.333 229.989 256.329 229.92 256.323 229.85C256.321 229.781 256.319 229.722 256.319 229.674V226.218H257.199V231.818H256.335L254.559 228.346C254.535 228.301 254.502 228.238 254.459 228.158C254.417 228.078 254.381 228.013 254.351 227.962C254.365 228.021 254.371 228.086 254.371 228.158C254.374 228.23 254.375 228.293 254.375 228.346V231.818H253.487ZM257.993 231.818L259.825 226.218H260.721L262.553 231.818H261.529L260.409 228.058C260.396 228.016 260.38 227.958 260.361 227.886C260.345 227.814 260.329 227.738 260.313 227.658C260.297 227.578 260.284 227.504 260.273 227.434C260.26 227.504 260.245 227.578 260.229 227.658C260.213 227.738 260.197 227.814 260.181 227.886C260.165 227.958 260.15 228.016 260.137 228.058L259.017 231.818H257.993ZM259.177 230.586L259.433 229.722H261.113L261.369 230.586H259.177ZM264.723 231.818V227.13H263.099V226.218H267.307V227.13H265.675V231.818H264.723ZM270.132 231.914C269.796 231.914 269.484 231.844 269.196 231.702C268.911 231.561 268.68 231.328 268.504 231.002C268.331 230.677 268.244 230.237 268.244 229.682V226.218H269.188V229.682C269.188 230.026 269.228 230.294 269.308 230.486C269.391 230.678 269.503 230.814 269.644 230.894C269.788 230.972 269.951 231.01 270.132 231.01C270.311 231.01 270.471 230.972 270.612 230.894C270.756 230.814 270.87 230.678 270.952 230.486C271.035 230.294 271.076 230.026 271.076 229.682V226.218H272.028V229.682C272.028 230.229 271.942 230.666 271.768 230.994C271.595 231.32 271.364 231.554 271.076 231.698C270.788 231.842 270.474 231.914 270.132 231.914ZM273.206 231.818V226.218H275.142C275.603 226.218 275.967 226.298 276.234 226.458C276.501 226.618 276.69 226.828 276.802 227.086C276.917 227.345 276.974 227.621 276.974 227.914C276.974 228.122 276.939 228.325 276.87 228.522C276.801 228.717 276.697 228.894 276.558 229.054C276.419 229.212 276.245 229.341 276.034 229.442C275.826 229.544 275.582 229.605 275.302 229.626H274.158V231.818H273.206ZM275.91 231.818L274.766 229.514L275.782 229.41L276.966 231.818H275.91ZM274.158 228.73H275.158C275.371 228.73 275.539 228.692 275.662 228.614C275.785 228.537 275.871 228.437 275.922 228.314C275.973 228.192 275.998 228.061 275.998 227.922C275.998 227.797 275.974 227.673 275.926 227.55C275.878 227.425 275.793 227.321 275.67 227.238C275.55 227.156 275.379 227.114 275.158 227.114H274.158V228.73ZM277.712 231.818L279.544 226.218H280.44L282.272 231.818H281.248L280.128 228.058C280.114 228.016 280.098 227.958 280.08 227.886C280.064 227.814 280.048 227.738 280.032 227.658C280.016 227.578 280.002 227.504 279.992 227.434C279.978 227.504 279.964 227.578 279.948 227.658C279.932 227.738 279.916 227.814 279.9 227.886C279.884 227.958 279.869 228.016 279.856 228.058L278.736 231.818H277.712ZM278.896 230.586L279.152 229.722H280.832L281.088 230.586H278.896Z" fill="#404040"/>
<path d="M180.198 438.054C223.276 438.054 258.197 403.132 258.197 360.054C258.197 316.976 223.276 282.055 180.198 282.055C137.12 282.055 102.198 316.976 102.198 360.054C102.198 403.132 137.12 438.054 180.198 438.054Z" fill="url(#paint2_radial_917_19590)"/>
<path d="M161.5 355.5V352.5H163V351H164.5V349.5H167.5V348H169V346.5H164.5V348H161.5V346.5H163V345H170.5V346.5H172V349.5H170.5V351H169V352.5H166V354H172V355.5H161.5ZM175 355.5V354H173.5V348H175V346.5H176.5V345H182.5V346.5H178V348H176.5V349.5H182.5V351H184V354H182.5V355.5H175ZM176.5 354H181V351H176.5V354ZM188.5 346.5H187V345H190V348H188.5V346.5ZM196 345V346.5H194.5V345H196ZM188.5 349.5H185.5V346.5H187V348H188.5V349.5ZM193 346.5H194.5V348H193V346.5ZM191.5 348H193V349.5H191.5V348ZM190 349.5H191.5V351H190V349.5ZM188.5 351H190V352.5H188.5V351ZM193 351H196V354H194.5V352.5H193V351ZM187 352.5H188.5V354H187V352.5ZM193 354H194.5V355.5H191.5V352.5H193V354ZM185.5 354H187V355.5H185.5V354Z" fill="#404040"/>
<path d="M164.686 365.096C164.283 365.096 163.926 364.995 163.614 364.792C163.305 364.589 163.067 364.304 162.902 363.936L163.718 363.544C163.79 363.683 163.87 363.8 163.958 363.896C164.049 363.992 164.153 364.065 164.27 364.116C164.39 364.167 164.531 364.192 164.694 364.192C164.846 364.192 164.991 364.161 165.13 364.1C165.271 364.036 165.386 363.921 165.474 363.756C165.562 363.591 165.606 363.355 165.606 363.048V359.4H166.55V363.096C166.55 363.491 166.493 363.819 166.378 364.08C166.263 364.339 166.114 364.543 165.93 364.692C165.746 364.839 165.545 364.943 165.326 365.004C165.107 365.065 164.894 365.096 164.686 365.096ZM169.64 365.096C169.264 365.096 168.941 365.017 168.672 364.86C168.405 364.7 168.186 364.484 168.016 364.212C167.845 363.94 167.72 363.631 167.64 363.284C167.56 362.937 167.52 362.576 167.52 362.2C167.52 361.824 167.56 361.463 167.64 361.116C167.72 360.769 167.845 360.46 168.016 360.188C168.186 359.916 168.405 359.701 168.672 359.544C168.941 359.384 169.264 359.304 169.64 359.304C170.016 359.304 170.338 359.384 170.608 359.544C170.877 359.701 171.097 359.916 171.268 360.188C171.438 360.46 171.564 360.769 171.644 361.116C171.726 361.463 171.768 361.824 171.768 362.2C171.768 362.576 171.726 362.937 171.644 363.284C171.564 363.631 171.438 363.94 171.268 364.212C171.097 364.484 170.877 364.7 170.608 364.86C170.338 365.017 170.016 365.096 169.64 365.096ZM169.64 364.192C169.837 364.192 170.008 364.136 170.152 364.024C170.296 363.912 170.413 363.761 170.504 363.572C170.597 363.383 170.665 363.169 170.708 362.932C170.753 362.695 170.776 362.451 170.776 362.2C170.776 361.933 170.753 361.681 170.708 361.444C170.665 361.204 170.598 360.992 170.508 360.808C170.417 360.621 170.3 360.475 170.156 360.368C170.012 360.261 169.84 360.208 169.64 360.208C169.44 360.208 169.268 360.264 169.124 360.376C168.98 360.485 168.862 360.635 168.772 360.824C168.681 361.013 168.613 361.227 168.568 361.464C168.525 361.701 168.504 361.947 168.504 362.2C168.504 362.464 168.525 362.716 168.568 362.956C168.613 363.193 168.681 363.405 168.772 363.592C168.862 363.779 168.98 363.925 169.124 364.032C169.268 364.139 169.44 364.192 169.64 364.192ZM174.657 365.096C174.279 365.096 173.949 365.016 173.669 364.856C173.392 364.693 173.163 364.475 172.981 364.2C172.803 363.923 172.669 363.612 172.581 363.268C172.493 362.921 172.449 362.565 172.449 362.2C172.449 361.851 172.495 361.505 172.585 361.164C172.676 360.82 172.813 360.508 172.997 360.228C173.181 359.948 173.411 359.724 173.685 359.556C173.963 359.388 174.287 359.304 174.657 359.304C174.975 359.304 175.241 359.359 175.457 359.468C175.676 359.575 175.859 359.715 176.005 359.888C176.152 360.059 176.279 360.24 176.385 360.432L175.545 360.912C175.447 360.723 175.327 360.559 175.185 360.42C175.047 360.279 174.871 360.208 174.657 360.208C174.433 360.208 174.244 360.269 174.089 360.392C173.935 360.512 173.809 360.672 173.713 360.872C173.617 361.069 173.548 361.285 173.505 361.52C173.463 361.752 173.441 361.979 173.441 362.2C173.441 362.453 173.465 362.699 173.513 362.936C173.564 363.173 173.639 363.387 173.737 363.576C173.836 363.765 173.961 363.916 174.113 364.028C174.268 364.137 174.449 364.192 174.657 364.192C174.953 364.192 175.175 364.093 175.321 363.896C175.471 363.696 175.545 363.448 175.545 363.152V363.032H174.569V362.136H176.521V362.912C176.521 363.384 176.439 363.783 176.273 364.108C176.111 364.433 175.888 364.68 175.605 364.848C175.325 365.013 175.009 365.096 174.657 365.096ZM177.219 365L179.051 359.4H179.947L181.779 365H180.755L179.635 361.24C179.622 361.197 179.606 361.14 179.587 361.068C179.571 360.996 179.555 360.92 179.539 360.84C179.523 360.76 179.51 360.685 179.499 360.616C179.486 360.685 179.471 360.76 179.455 360.84C179.439 360.92 179.423 360.996 179.407 361.068C179.391 361.14 179.376 361.197 179.363 361.24L178.243 365H177.219ZM178.403 363.768L178.659 362.904H180.339L180.595 363.768H178.403ZM182.573 365V359.4H183.477L185.221 362.856C185.245 362.899 185.278 362.96 185.321 363.04C185.364 363.12 185.397 363.187 185.421 363.24C185.418 363.171 185.414 363.101 185.409 363.032C185.406 362.963 185.405 362.904 185.405 362.856V359.4H186.285V365H185.421L183.645 361.528C183.621 361.483 183.588 361.42 183.545 361.34C183.502 361.26 183.466 361.195 183.437 361.144C183.45 361.203 183.457 361.268 183.457 361.34C183.46 361.412 183.461 361.475 183.461 361.528V365H182.573ZM187.503 365V359.4H188.911C189.38 359.4 189.777 359.48 190.103 359.64C190.431 359.797 190.696 360.011 190.899 360.28C191.104 360.547 191.253 360.847 191.347 361.18C191.44 361.511 191.487 361.851 191.487 362.2C191.487 362.52 191.443 362.844 191.355 363.172C191.267 363.5 191.121 363.803 190.919 364.08C190.719 364.357 190.452 364.58 190.119 364.748C189.785 364.916 189.372 365 188.879 365H187.503ZM188.455 364.104H188.975C189.26 364.104 189.5 364.048 189.695 363.936C189.889 363.821 190.045 363.671 190.163 363.484C190.28 363.297 190.364 363.092 190.415 362.868C190.468 362.644 190.495 362.421 190.495 362.2C190.495 361.963 190.467 361.732 190.411 361.508C190.357 361.281 190.273 361.077 190.159 360.896C190.044 360.712 189.896 360.567 189.715 360.46C189.533 360.351 189.316 360.296 189.063 360.296H188.455V364.104ZM194.288 365.096C193.912 365.096 193.59 365.017 193.32 364.86C193.054 364.7 192.835 364.484 192.664 364.212C192.494 363.94 192.368 363.631 192.288 363.284C192.208 362.937 192.168 362.576 192.168 362.2C192.168 361.824 192.208 361.463 192.288 361.116C192.368 360.769 192.494 360.46 192.664 360.188C192.835 359.916 193.054 359.701 193.32 359.544C193.59 359.384 193.912 359.304 194.288 359.304C194.664 359.304 194.987 359.384 195.256 359.544C195.526 359.701 195.746 359.916 195.916 360.188C196.087 360.46 196.212 360.769 196.292 361.116C196.375 361.463 196.416 361.824 196.416 362.2C196.416 362.576 196.375 362.937 196.292 363.284C196.212 363.631 196.087 363.94 195.916 364.212C195.746 364.484 195.526 364.7 195.256 364.86C194.987 365.017 194.664 365.096 194.288 365.096ZM194.288 364.192C194.486 364.192 194.656 364.136 194.8 364.024C194.944 363.912 195.062 363.761 195.152 363.572C195.246 363.383 195.314 363.169 195.356 362.932C195.402 362.695 195.424 362.451 195.424 362.2C195.424 361.933 195.402 361.681 195.356 361.444C195.314 361.204 195.247 360.992 195.156 360.808C195.066 360.621 194.948 360.475 194.804 360.368C194.66 360.261 194.488 360.208 194.288 360.208C194.088 360.208 193.916 360.264 193.772 360.376C193.628 360.485 193.511 360.635 193.42 360.824C193.33 361.013 193.262 361.227 193.216 361.464C193.174 361.701 193.152 361.947 193.152 362.2C193.152 362.464 193.174 362.716 193.216 362.956C193.262 363.193 193.33 363.405 193.42 363.592C193.511 363.779 193.628 363.925 193.772 364.032C193.916 364.139 194.088 364.192 194.288 364.192ZM138.206 375V369.4H140.182C140.646 369.4 141.014 369.485 141.286 369.656C141.56 369.827 141.756 370.045 141.874 370.312C141.994 370.576 142.054 370.851 142.054 371.136C142.054 371.336 142.019 371.539 141.95 371.744C141.88 371.947 141.771 372.133 141.622 372.304C141.472 372.475 141.279 372.612 141.042 372.716C140.804 372.82 140.518 372.872 140.182 372.872H139.158V375H138.206ZM139.158 371.976H140.23C140.438 371.976 140.604 371.935 140.73 371.852C140.855 371.767 140.946 371.66 141.002 371.532C141.058 371.401 141.086 371.269 141.086 371.136C141.086 371.016 141.06 370.892 141.01 370.764C140.959 370.633 140.871 370.523 140.746 370.432C140.623 370.341 140.451 370.296 140.23 370.296H139.158V371.976ZM143.135 375V369.4H145.071C145.533 369.4 145.897 369.48 146.163 369.64C146.43 369.8 146.619 370.009 146.731 370.268C146.846 370.527 146.903 370.803 146.903 371.096C146.903 371.304 146.869 371.507 146.799 371.704C146.73 371.899 146.626 372.076 146.487 372.236C146.349 372.393 146.174 372.523 145.963 372.624C145.755 372.725 145.511 372.787 145.231 372.808H144.087V375H143.135ZM145.839 375L144.695 372.696L145.711 372.592L146.895 375H145.839ZM144.087 371.912H145.087C145.301 371.912 145.469 371.873 145.591 371.796C145.714 371.719 145.801 371.619 145.851 371.496C145.902 371.373 145.927 371.243 145.927 371.104C145.927 370.979 145.903 370.855 145.855 370.732C145.807 370.607 145.722 370.503 145.599 370.42C145.479 370.337 145.309 370.296 145.087 370.296H144.087V371.912ZM149.921 375.096C149.545 375.096 149.222 375.017 148.953 374.86C148.686 374.7 148.468 374.484 148.297 374.212C148.126 373.94 148.001 373.631 147.921 373.284C147.841 372.937 147.801 372.576 147.801 372.2C147.801 371.824 147.841 371.463 147.921 371.116C148.001 370.769 148.126 370.46 148.297 370.188C148.468 369.916 148.686 369.701 148.953 369.544C149.222 369.384 149.545 369.304 149.921 369.304C150.297 369.304 150.62 369.384 150.889 369.544C151.158 369.701 151.378 369.916 151.549 370.188C151.72 370.46 151.845 370.769 151.925 371.116C152.008 371.463 152.049 371.824 152.049 372.2C152.049 372.576 152.008 372.937 151.925 373.284C151.845 373.631 151.72 373.94 151.549 374.212C151.378 374.484 151.158 374.7 150.889 374.86C150.62 375.017 150.297 375.096 149.921 375.096ZM149.921 374.192C150.118 374.192 150.289 374.136 150.433 374.024C150.577 373.912 150.694 373.761 150.785 373.572C150.878 373.383 150.946 373.169 150.989 372.932C151.034 372.695 151.057 372.451 151.057 372.2C151.057 371.933 151.034 371.681 150.989 371.444C150.946 371.204 150.88 370.992 150.789 370.808C150.698 370.621 150.581 370.475 150.437 370.368C150.293 370.261 150.121 370.208 149.921 370.208C149.721 370.208 149.549 370.264 149.405 370.376C149.261 370.485 149.144 370.635 149.053 370.824C148.962 371.013 148.894 371.227 148.849 371.464C148.806 371.701 148.785 371.947 148.785 372.2C148.785 372.464 148.806 372.716 148.849 372.956C148.894 373.193 148.962 373.405 149.053 373.592C149.144 373.779 149.261 373.925 149.405 374.032C149.549 374.139 149.721 374.192 149.921 374.192ZM152.995 375V369.4H156.771V370.304H153.947V371.656H156.003V372.56H153.947V375H152.995ZM159.3 375V369.4H160.252V375H159.3ZM158.132 375V374.16H161.428V375H158.132ZM158.132 370.24V369.4H161.428V370.24H158.132ZM164.774 375.096C164.47 375.096 164.185 375.037 163.918 374.92C163.654 374.8 163.423 374.632 163.226 374.416C163.029 374.2 162.881 373.947 162.782 373.656L163.646 373.336C163.766 373.592 163.934 373.8 164.15 373.96C164.369 374.12 164.603 374.2 164.854 374.2C165.094 374.2 165.29 374.139 165.442 374.016C165.594 373.893 165.67 373.715 165.67 373.48C165.67 373.328 165.617 373.193 165.51 373.076C165.403 372.956 165.262 372.847 165.086 372.748C164.913 372.649 164.723 372.555 164.518 372.464C164.339 372.387 164.159 372.3 163.978 372.204C163.799 372.108 163.634 371.995 163.482 371.864C163.333 371.733 163.211 371.58 163.118 371.404C163.027 371.228 162.982 371.021 162.982 370.784C162.982 370.515 163.053 370.268 163.194 370.044C163.335 369.82 163.535 369.641 163.794 369.508C164.053 369.372 164.358 369.304 164.71 369.304C165.131 369.304 165.493 369.417 165.794 369.644C166.098 369.871 166.299 370.155 166.398 370.496L165.542 370.784C165.462 370.619 165.347 370.48 165.198 370.368C165.049 370.256 164.867 370.2 164.654 370.2C164.454 370.2 164.285 370.251 164.146 370.352C164.01 370.453 163.942 370.592 163.942 370.768C163.942 370.891 163.981 370.997 164.058 371.088C164.138 371.179 164.254 371.267 164.406 371.352C164.561 371.437 164.75 371.533 164.974 371.64C165.155 371.725 165.342 371.821 165.534 371.928C165.726 372.032 165.905 372.153 166.07 372.292C166.238 372.431 166.373 372.593 166.474 372.78C166.578 372.967 166.63 373.184 166.63 373.432C166.63 373.787 166.543 374.088 166.37 374.336C166.199 374.584 165.973 374.773 165.69 374.904C165.41 375.032 165.105 375.096 164.774 375.096ZM169.704 375.096C169.4 375.096 169.114 375.037 168.848 374.92C168.584 374.8 168.353 374.632 168.156 374.416C167.958 374.2 167.81 373.947 167.712 373.656L168.576 373.336C168.696 373.592 168.864 373.8 169.08 373.96C169.298 374.12 169.533 374.2 169.784 374.2C170.024 374.2 170.22 374.139 170.372 374.016C170.524 373.893 170.6 373.715 170.6 373.48C170.6 373.328 170.546 373.193 170.44 373.076C170.333 372.956 170.192 372.847 170.016 372.748C169.842 372.649 169.653 372.555 169.448 372.464C169.269 372.387 169.089 372.3 168.908 372.204C168.729 372.108 168.564 371.995 168.412 371.864C168.262 371.733 168.141 371.58 168.048 371.404C167.957 371.228 167.912 371.021 167.912 370.784C167.912 370.515 167.982 370.268 168.124 370.044C168.265 369.82 168.465 369.641 168.724 369.508C168.982 369.372 169.288 369.304 169.64 369.304C170.061 369.304 170.422 369.417 170.724 369.644C171.028 369.871 171.229 370.155 171.328 370.496L170.472 370.784C170.392 370.619 170.277 370.48 170.128 370.368C169.978 370.256 169.797 370.2 169.584 370.2C169.384 370.2 169.214 370.251 169.076 370.352C168.94 370.453 168.872 370.592 168.872 370.768C168.872 370.891 168.91 370.997 168.988 371.088C169.068 371.179 169.184 371.267 169.336 371.352C169.49 371.437 169.68 371.533 169.904 371.64C170.085 371.725 170.272 371.821 170.464 371.928C170.656 372.032 170.834 372.153 171 372.292C171.168 372.431 171.302 372.593 171.404 372.78C171.508 372.967 171.56 373.184 171.56 373.432C171.56 373.787 171.473 374.088 171.3 374.336C171.129 374.584 170.902 374.773 170.62 374.904C170.34 375.032 170.034 375.096 169.704 375.096ZM174.089 375V369.4H175.041V375H174.089ZM172.921 375V374.16H176.217V375H172.921ZM172.921 370.24V369.4H176.217V370.24H172.921ZM179.499 375.096C179.123 375.096 178.8 375.017 178.531 374.86C178.264 374.7 178.046 374.484 177.875 374.212C177.704 373.94 177.579 373.631 177.499 373.284C177.419 372.937 177.379 372.576 177.379 372.2C177.379 371.824 177.419 371.463 177.499 371.116C177.579 370.769 177.704 370.46 177.875 370.188C178.046 369.916 178.264 369.701 178.531 369.544C178.8 369.384 179.123 369.304 179.499 369.304C179.875 369.304 180.198 369.384 180.467 369.544C180.736 369.701 180.956 369.916 181.127 370.188C181.298 370.46 181.423 370.769 181.503 371.116C181.586 371.463 181.627 371.824 181.627 372.2C181.627 372.576 181.586 372.937 181.503 373.284C181.423 373.631 181.298 373.94 181.127 374.212C180.956 374.484 180.736 374.7 180.467 374.86C180.198 375.017 179.875 375.096 179.499 375.096ZM179.499 374.192C179.696 374.192 179.867 374.136 180.011 374.024C180.155 373.912 180.272 373.761 180.363 373.572C180.456 373.383 180.524 373.169 180.567 372.932C180.612 372.695 180.635 372.451 180.635 372.2C180.635 371.933 180.612 371.681 180.567 371.444C180.524 371.204 180.458 370.992 180.367 370.808C180.276 370.621 180.159 370.475 180.015 370.368C179.871 370.261 179.699 370.208 179.499 370.208C179.299 370.208 179.127 370.264 178.983 370.376C178.839 370.485 178.722 370.635 178.631 370.824C178.54 371.013 178.472 371.227 178.427 371.464C178.384 371.701 178.363 371.947 178.363 372.2C178.363 372.464 178.384 372.716 178.427 372.956C178.472 373.193 178.54 373.405 178.631 373.592C178.722 373.779 178.839 373.925 178.983 374.032C179.127 374.139 179.299 374.192 179.499 374.192ZM182.573 375V369.4H183.477L185.221 372.856C185.245 372.899 185.278 372.96 185.321 373.04C185.364 373.12 185.397 373.187 185.421 373.24C185.418 373.171 185.414 373.101 185.409 373.032C185.406 372.963 185.405 372.904 185.405 372.856V369.4H186.285V375H185.421L183.645 371.528C183.621 371.483 183.588 371.42 183.545 371.34C183.502 371.26 183.466 371.195 183.437 371.144C183.45 371.203 183.457 371.268 183.457 371.34C183.46 371.412 183.461 371.475 183.461 371.528V375H182.573ZM187.079 375L188.911 369.4H189.807L191.639 375H190.615L189.495 371.24C189.481 371.197 189.465 371.14 189.447 371.068C189.431 370.996 189.415 370.92 189.399 370.84C189.383 370.76 189.369 370.685 189.359 370.616C189.345 370.685 189.331 370.76 189.315 370.84C189.299 370.92 189.283 370.996 189.267 371.068C189.251 371.14 189.236 371.197 189.223 371.24L188.103 375H187.079ZM188.263 373.768L188.519 372.904H190.199L190.455 373.768H188.263ZM192.432 375V369.4H193.384V374.088H195.968V375H192.432ZM197.362 375V369.4H198.29L199.098 372.472C199.119 372.552 199.145 372.647 199.174 372.756C199.203 372.863 199.223 372.952 199.234 373.024C199.247 372.952 199.267 372.863 199.294 372.756C199.323 372.647 199.349 372.552 199.37 372.472L200.202 369.4H201.074V375H200.25V371.96C200.25 371.899 200.25 371.82 200.25 371.724C200.253 371.628 200.258 371.552 200.266 371.496C200.242 371.563 200.215 371.637 200.186 371.72C200.159 371.803 200.135 371.883 200.114 371.96L199.258 375H199.178L198.322 371.96C198.301 371.883 198.275 371.803 198.246 371.72C198.219 371.635 198.194 371.56 198.17 371.496C198.175 371.552 198.179 371.628 198.182 371.724C198.185 371.82 198.186 371.899 198.186 371.96V375H197.362ZM202.292 375V369.4H205.884V370.304H203.244V371.656H204.964V372.56H203.244V374.096H206.052V375H202.292ZM207.221 375V369.4H208.125L209.869 372.856C209.893 372.899 209.927 372.96 209.969 373.04C210.012 373.12 210.045 373.187 210.069 373.24C210.067 373.171 210.063 373.101 210.057 373.032C210.055 372.963 210.053 372.904 210.053 372.856V369.4H210.933V375H210.069L208.293 371.528C208.269 371.483 208.236 371.42 208.193 371.34C208.151 371.26 208.115 371.195 208.085 371.144C208.099 371.203 208.105 371.268 208.105 371.34C208.108 371.412 208.109 371.475 208.109 371.528V375H207.221ZM213.527 375V370.312H211.903V369.4H216.111V370.312H214.479V375H213.527ZM217.081 375V369.4H220.673V370.304H218.033V371.656H219.753V372.56H218.033V374.096H220.841V375H217.081Z" fill="#404040"/>
<path d="M179.936 159.498C219.562 159.498 251.685 127.375 251.685 87.7491C251.685 48.1232 219.562 16 179.936 16C140.31 16 108.187 48.1232 108.187 87.7491C108.187 127.375 140.31 159.498 179.936 159.498Z" fill="url(#paint3_radial_917_19590)"/>
<path d="M162.203 85.8359V82.8359H163.703V81.3359H165.203V79.8359H168.203V78.3359H169.703V76.8359H165.203V78.3359H162.203V76.8359H163.703V75.3359H171.203V76.8359H172.703V79.8359H171.203V81.3359H169.703V82.8359H166.703V84.3359H172.703V85.8359H162.203ZM174.203 85.8359V82.8359H175.703V81.3359H177.203V79.8359H180.203V78.3359H181.703V76.8359H177.203V78.3359H174.203V76.8359H175.703V75.3359H183.203V76.8359H184.703V79.8359H183.203V81.3359H181.703V82.8359H178.703V84.3359H184.703V85.8359H174.203ZM189.203 76.8359H187.703V75.3359H190.703V78.3359H189.203V76.8359ZM196.703 75.3359V76.8359H195.203V75.3359H196.703ZM189.203 79.8359H186.203V76.8359H187.703V78.3359H189.203V79.8359ZM193.703 76.8359H195.203V78.3359H193.703V76.8359ZM192.203 78.3359H193.703V79.8359H192.203V78.3359ZM190.703 79.8359H192.203V81.3359H190.703V79.8359ZM189.203 81.3359H190.703V82.8359H189.203V81.3359ZM193.703 81.3359H196.703V84.3359H195.203V82.8359H193.703V81.3359ZM187.703 82.8359H189.203V84.3359H187.703V82.8359ZM193.703 84.3359H195.203V85.8359H192.203V82.8359H193.703V84.3359ZM186.203 84.3359H187.703V85.8359H186.203V84.3359Z" fill="#404040"/>
<path d="M150.624 99.4319C150.248 99.4319 149.925 99.3533 149.656 99.1959C149.389 99.0359 149.17 98.8199 149 98.5479C148.829 98.2759 148.704 97.9666 148.624 97.6199C148.544 97.2733 148.504 96.9119 148.504 96.5359C148.504 96.1599 148.544 95.7986 148.624 95.4519C148.704 95.1053 148.829 94.7959 149 94.5239C149.17 94.2519 149.389 94.0373 149.656 93.8799C149.925 93.7199 150.248 93.6399 150.624 93.6399C151 93.6399 151.322 93.7199 151.592 93.8799C151.861 94.0373 152.081 94.2519 152.252 94.5239C152.422 94.7959 152.548 95.1053 152.628 95.4519C152.71 95.7986 152.752 96.1599 152.752 96.5359C152.752 96.9119 152.71 97.2733 152.628 97.6199C152.548 97.9666 152.422 98.2759 152.252 98.5479C152.081 98.8199 151.861 99.0359 151.592 99.1959C151.322 99.3533 151 99.4319 150.624 99.4319ZM150.624 98.5279C150.821 98.5279 150.992 98.4719 151.136 98.3599C151.28 98.2479 151.397 98.0973 151.488 97.9079C151.581 97.7186 151.649 97.5053 151.692 97.2679C151.737 97.0306 151.76 96.7866 151.76 96.5359C151.76 96.2693 151.737 96.0173 151.692 95.7799C151.649 95.5399 151.582 95.3279 151.492 95.1439C151.401 94.9573 151.284 94.8106 151.14 94.7039C150.996 94.5973 150.824 94.5439 150.624 94.5439C150.424 94.5439 150.252 94.5999 150.108 94.7119C149.964 94.8213 149.846 94.9706 149.756 95.1599C149.665 95.3493 149.597 95.5626 149.552 95.7999C149.509 96.0373 149.488 96.2826 149.488 96.5359C149.488 96.7999 149.509 97.0519 149.552 97.2919C149.597 97.5293 149.665 97.7413 149.756 97.9279C149.846 98.1146 149.964 98.2613 150.108 98.3679C150.252 98.4746 150.424 98.5279 150.624 98.5279ZM155.553 99.4319C155.217 99.4319 154.905 99.3613 154.617 99.2199C154.332 99.0786 154.101 98.8453 153.925 98.5199C153.752 98.1946 153.665 97.7546 153.665 97.1999V93.7359H154.609V97.1999C154.609 97.5439 154.649 97.8119 154.729 98.0039C154.812 98.1959 154.924 98.3319 155.065 98.4119C155.209 98.4893 155.372 98.5279 155.553 98.5279C155.732 98.5279 155.892 98.4893 156.033 98.4119C156.177 98.3319 156.291 98.1959 156.373 98.0039C156.456 97.8119 156.497 97.5439 156.497 97.1999V93.7359H157.449V97.1999C157.449 97.7466 157.363 98.1839 157.189 98.5119C157.016 98.8373 156.785 99.0719 156.497 99.2159C156.209 99.3599 155.895 99.4319 155.553 99.4319ZM160.003 99.3359V94.6479H158.379V93.7359H162.587V94.6479H160.955V99.3359H160.003ZM163.557 99.3359V93.7359H165.493C165.954 93.7359 166.318 93.8159 166.585 93.9759C166.851 94.1359 167.041 94.3453 167.153 94.6039C167.267 94.8626 167.325 95.1386 167.325 95.4319C167.325 95.6399 167.29 95.8426 167.221 96.0399C167.151 96.2346 167.047 96.4119 166.909 96.5719C166.77 96.7293 166.595 96.8586 166.385 96.9599C166.177 97.0613 165.933 97.1226 165.653 97.1439H164.509V99.3359H163.557ZM166.261 99.3359L165.117 97.0319L166.133 96.9279L167.317 99.3359H166.261ZM164.509 96.2479H165.509C165.722 96.2479 165.89 96.2093 166.013 96.1319C166.135 96.0546 166.222 95.9546 166.273 95.8319C166.323 95.7093 166.349 95.5786 166.349 95.4399C166.349 95.3146 166.325 95.1906 166.277 95.0679C166.229 94.9426 166.143 94.8386 166.021 94.7559C165.901 94.6733 165.73 94.6319 165.509 94.6319H164.509V96.2479ZM168.062 99.3359L169.894 93.7359H170.79L172.622 99.3359H171.598L170.478 95.5759C170.465 95.5333 170.449 95.4759 170.43 95.4039C170.414 95.3319 170.398 95.2559 170.382 95.1759C170.366 95.0959 170.353 95.0213 170.342 94.9519C170.329 95.0213 170.314 95.0959 170.298 95.1759C170.282 95.2559 170.266 95.3319 170.25 95.4039C170.234 95.4759 170.22 95.5333 170.206 95.5759L169.086 99.3359H168.062ZM169.246 98.1039L169.502 97.2399H171.182L171.438 98.1039H169.246ZM175.336 99.4319C175.032 99.4319 174.747 99.3733 174.48 99.2559C174.216 99.1359 173.985 98.9679 173.788 98.7519C173.591 98.5359 173.443 98.2826 173.344 97.9919L174.208 97.6719C174.328 97.9279 174.496 98.1359 174.712 98.2959C174.931 98.4559 175.165 98.5359 175.416 98.5359C175.656 98.5359 175.852 98.4746 176.004 98.3519C176.156 98.2293 176.232 98.0506 176.232 97.8159C176.232 97.6639 176.179 97.5293 176.072 97.4119C175.965 97.2919 175.824 97.1826 175.648 97.0839C175.475 96.9853 175.285 96.8906 175.08 96.7999C174.901 96.7226 174.721 96.6359 174.54 96.5399C174.361 96.4439 174.196 96.3306 174.044 96.1999C173.895 96.0693 173.773 95.9159 173.68 95.7399C173.589 95.5639 173.544 95.3573 173.544 95.1199C173.544 94.8506 173.615 94.6039 173.756 94.3799C173.897 94.1559 174.097 93.9773 174.356 93.8439C174.615 93.7079 174.92 93.6399 175.272 93.6399C175.693 93.6399 176.055 93.7533 176.356 93.9799C176.66 94.2066 176.861 94.4906 176.96 94.8319L176.104 95.1199C176.024 94.9546 175.909 94.8159 175.76 94.7039C175.611 94.5919 175.429 94.5359 175.216 94.5359C175.016 94.5359 174.847 94.5866 174.708 94.6879C174.572 94.7893 174.504 94.9279 174.504 95.1039C174.504 95.2266 174.543 95.3333 174.62 95.4239C174.7 95.5146 174.816 95.6026 174.968 95.6879C175.123 95.7733 175.312 95.8693 175.536 95.9759C175.717 96.0613 175.904 96.1573 176.096 96.2639C176.288 96.3679 176.467 96.4893 176.632 96.6279C176.8 96.7666 176.935 96.9293 177.036 97.1159C177.14 97.3026 177.192 97.5199 177.192 97.7679C177.192 98.1226 177.105 98.4239 176.932 98.6719C176.761 98.9199 176.535 99.1093 176.252 99.2399C175.972 99.3679 175.667 99.4319 175.336 99.4319ZM183.275 99.3359V93.7359H187.051V94.6399H184.227V95.9919H186.283V96.8959H184.227V99.3359H183.275ZM190.061 99.4319C189.685 99.4319 189.363 99.3533 189.093 99.1959C188.827 99.0359 188.608 98.8199 188.437 98.5479C188.267 98.2759 188.141 97.9666 188.061 97.6199C187.981 97.2733 187.941 96.9119 187.941 96.5359C187.941 96.1599 187.981 95.7986 188.061 95.4519C188.141 95.1053 188.267 94.7959 188.437 94.5239C188.608 94.2519 188.827 94.0373 189.093 93.8799C189.363 93.7199 189.685 93.6399 190.061 93.6399C190.437 93.6399 190.76 93.7199 191.029 93.8799C191.299 94.0373 191.519 94.2519 191.689 94.5239C191.86 94.7959 191.985 95.1053 192.065 95.4519C192.148 95.7986 192.189 96.1599 192.189 96.5359C192.189 96.9119 192.148 97.2733 192.065 97.6199C191.985 97.9666 191.86 98.2759 191.689 98.5479C191.519 98.8199 191.299 99.0359 191.029 99.1959C190.76 99.3533 190.437 99.4319 190.061 99.4319ZM190.061 98.5279C190.259 98.5279 190.429 98.4719 190.573 98.3599C190.717 98.2479 190.835 98.0973 190.925 97.9079C191.019 97.7186 191.087 97.5053 191.129 97.2679C191.175 97.0306 191.197 96.7866 191.197 96.5359C191.197 96.2693 191.175 96.0173 191.129 95.7799C191.087 95.5399 191.02 95.3279 190.929 95.1439C190.839 94.9573 190.721 94.8106 190.577 94.7039C190.433 94.5973 190.261 94.5439 190.061 94.5439C189.861 94.5439 189.689 94.5999 189.545 94.7119C189.401 94.8213 189.284 94.9706 189.193 95.1599C189.103 95.3493 189.035 95.5626 188.989 95.7999C188.947 96.0373 188.925 96.2826 188.925 96.5359C188.925 96.7999 188.947 97.0519 188.989 97.2919C189.035 97.5293 189.103 97.7413 189.193 97.9279C189.284 98.1146 189.401 98.2613 189.545 98.3679C189.689 98.4746 189.861 98.5279 190.061 98.5279ZM193.135 99.3359V93.7359H195.071C195.532 93.7359 195.896 93.8159 196.163 93.9759C196.43 94.1359 196.619 94.3453 196.731 94.6039C196.846 94.8626 196.903 95.1386 196.903 95.4319C196.903 95.6399 196.868 95.8426 196.799 96.0399C196.73 96.2346 196.626 96.4119 196.487 96.5719C196.348 96.7293 196.174 96.8586 195.963 96.9599C195.755 97.0613 195.511 97.1226 195.231 97.1439H194.087V99.3359H193.135ZM195.839 99.3359L194.695 97.0319L195.711 96.9279L196.895 99.3359H195.839ZM194.087 96.2479H195.087C195.3 96.2479 195.468 96.2093 195.591 96.1319C195.714 96.0546 195.8 95.9546 195.851 95.8319C195.902 95.7093 195.927 95.5786 195.927 95.4399C195.927 95.3146 195.903 95.1906 195.855 95.0679C195.807 94.9426 195.722 94.8386 195.599 94.7559C195.479 94.6733 195.308 94.6319 195.087 94.6319H194.087V96.2479ZM198.065 99.3359V93.7359H198.993L199.801 96.8079C199.822 96.8879 199.847 96.9826 199.877 97.0919C199.906 97.1986 199.926 97.2879 199.937 97.3599C199.95 97.2879 199.97 97.1986 199.997 97.0919C200.026 96.9826 200.051 96.8879 200.073 96.8079L200.905 93.7359H201.777V99.3359H200.953V96.2959C200.953 96.2346 200.953 96.1559 200.953 96.0599C200.955 95.9639 200.961 95.8879 200.969 95.8319C200.945 95.8986 200.918 95.9733 200.889 96.0559C200.862 96.1386 200.838 96.2186 200.817 96.2959L199.961 99.3359H199.881L199.025 96.2959C199.003 96.2186 198.978 96.1386 198.949 96.0559C198.922 95.9706 198.897 95.8959 198.873 95.8319C198.878 95.8879 198.882 95.9639 198.885 96.0599C198.887 96.1559 198.889 96.2346 198.889 96.2959V99.3359H198.065ZM202.57 99.3359L204.402 93.7359H205.298L207.13 99.3359H206.106L204.986 95.5759C204.973 95.5333 204.957 95.4759 204.938 95.4039C204.922 95.3319 204.906 95.2559 204.89 95.1759C204.874 95.0959 204.861 95.0213 204.85 94.9519C204.837 95.0213 204.822 95.0959 204.806 95.1759C204.79 95.2559 204.774 95.3319 204.758 95.4039C204.742 95.4759 204.728 95.5333 204.714 95.5759L203.594 99.3359H202.57ZM203.754 98.1039L204.01 97.2399H205.69L205.946 98.1039H203.754ZM209.844 99.4319C209.54 99.4319 209.255 99.3733 208.988 99.2559C208.724 99.1359 208.493 98.9679 208.296 98.7519C208.099 98.5359 207.951 98.2826 207.852 97.9919L208.716 97.6719C208.836 97.9279 209.004 98.1359 209.22 98.2959C209.439 98.4559 209.673 98.5359 209.924 98.5359C210.164 98.5359 210.36 98.4746 210.512 98.3519C210.664 98.2293 210.74 98.0506 210.74 97.8159C210.74 97.6639 210.687 97.5293 210.58 97.4119C210.473 97.2919 210.332 97.1826 210.156 97.0839C209.983 96.9853 209.793 96.8906 209.588 96.7999C209.409 96.7226 209.229 96.6359 209.048 96.5399C208.869 96.4439 208.704 96.3306 208.552 96.1999C208.403 96.0693 208.281 95.9159 208.188 95.7399C208.097 95.5639 208.052 95.3573 208.052 95.1199C208.052 94.8506 208.123 94.6039 208.264 94.3799C208.405 94.1559 208.605 93.9773 208.864 93.8439C209.123 93.7079 209.428 93.6399 209.78 93.6399C210.201 93.6399 210.563 93.7533 210.864 93.9799C211.168 94.2066 211.369 94.4906 211.468 94.8319L210.612 95.1199C210.532 94.9546 210.417 94.8159 210.268 94.7039C210.119 94.5919 209.937 94.5359 209.724 94.5359C209.524 94.5359 209.355 94.5866 209.216 94.6879C209.08 94.7893 209.012 94.9279 209.012 95.1039C209.012 95.2266 209.051 95.3333 209.128 95.4239C209.208 95.5146 209.324 95.6026 209.476 95.6879C209.631 95.7733 209.82 95.8693 210.044 95.9759C210.225 96.0613 210.412 96.1573 210.604 96.2639C210.796 96.3679 210.975 96.4893 211.14 96.6279C211.308 96.7666 211.443 96.9293 211.544 97.1159C211.648 97.3026 211.7 97.5199 211.7 97.7679C211.7 98.1226 211.613 98.4239 211.44 98.6719C211.269 98.9199 211.043 99.1093 210.76 99.2399C210.48 99.3679 210.175 99.4319 209.844 99.4319Z" fill="#404040"/>
<path d="M52.9902 136.11C82.2559 136.11 105.98 112.386 105.98 83.1201C105.98 53.8544 82.2559 30.1299 52.9902 30.1299C23.7245 30.1299 0 53.8544 0 83.1201C0 112.386 23.7245 136.11 52.9902 136.11Z" fill="url(#paint4_radial_917_19590)"/>
<path d="M36.2466 81.207V79.707H39.2466V73.707H37.7466V72.207H39.2466V70.707H42.2466V79.707H45.2466V81.207H36.2466ZM46.7466 81.207V78.207H48.2466V76.707H49.7466V75.207H52.7466V73.707H54.2466V72.207H49.7466V73.707H46.7466V72.207H48.2466V70.707H55.7466V72.207H57.2466V75.207H55.7466V76.707H54.2466V78.207H51.2466V79.707H57.2466V81.207H46.7466ZM61.7466 72.207H60.2466V70.707H63.2466V73.707H61.7466V72.207ZM69.2466 70.707V72.207H67.7466V70.707H69.2466ZM61.7466 75.207H58.7466V72.207H60.2466V73.707H61.7466V75.207ZM66.2466 72.207H67.7466V73.707H66.2466V72.207ZM64.7466 73.707H66.2466V75.207H64.7466V73.707ZM63.2466 75.207H64.7466V76.707H63.2466V75.207ZM61.7466 76.707H63.2466V78.207H61.7466V76.707ZM66.2466 76.707H69.2466V79.707H67.7466V78.207H66.2466V76.707ZM60.2466 78.207H61.7466V79.707H60.2466V78.207ZM66.2466 79.707H67.7466V81.207H64.7466V78.207H66.2466V79.707ZM58.7466 79.707H60.2466V81.207H58.7466V79.707Z" fill="#404040"/>
<path d="M28.7061 94.707V89.107H30.6821C31.1461 89.107 31.5141 89.1924 31.7861 89.363C32.0608 89.5337 32.2568 89.7524 32.3741 90.019C32.4941 90.283 32.5541 90.5577 32.5541 90.843C32.5541 91.043 32.5195 91.2457 32.4501 91.451C32.3808 91.6537 32.2715 91.8404 32.1221 92.011C31.9728 92.1817 31.7795 92.319 31.5421 92.423C31.3048 92.527 31.0181 92.579 30.6821 92.579H29.6581V94.707H28.7061ZM29.6581 91.683H30.7301C30.9381 91.683 31.1048 91.6417 31.2301 91.559C31.3555 91.4737 31.4461 91.367 31.5021 91.239C31.5581 91.1084 31.5861 90.9764 31.5861 90.843C31.5861 90.723 31.5608 90.599 31.5101 90.471C31.4595 90.3404 31.3715 90.2297 31.2461 90.139C31.1235 90.0484 30.9515 90.003 30.7301 90.003H29.6581V91.683ZM33.2118 94.707L35.0438 89.107H35.9398L37.7718 94.707H36.7478L35.6278 90.947C35.6145 90.9044 35.5985 90.847 35.5798 90.775C35.5638 90.703 35.5478 90.627 35.5318 90.547C35.5158 90.467 35.5025 90.3924 35.4918 90.323C35.4785 90.3924 35.4638 90.467 35.4478 90.547C35.4318 90.627 35.4158 90.703 35.3998 90.775C35.3838 90.847 35.3692 90.9044 35.3558 90.947L34.2358 94.707H33.2118ZM34.3958 93.475L34.6518 92.611H36.3318L36.5878 93.475H34.3958ZM39.9415 94.707V90.019H38.3175V89.107H42.5255V90.019H40.8935V94.707H39.9415ZM43.4952 94.707V89.107H45.4312C45.8925 89.107 46.2565 89.187 46.5232 89.347C46.7899 89.507 46.9792 89.7164 47.0912 89.975C47.2059 90.2337 47.2632 90.5097 47.2632 90.803C47.2632 91.011 47.2285 91.2137 47.1592 91.411C47.0899 91.6057 46.9859 91.783 46.8472 91.943C46.7085 92.1004 46.5339 92.2297 46.3232 92.331C46.1152 92.4324 45.8712 92.4937 45.5912 92.515H44.4472V94.707H43.4952ZM46.1992 94.707L45.0552 92.403L46.0712 92.299L47.2552 94.707H46.1992ZM44.4472 91.619H45.4472C45.6605 91.619 45.8285 91.5804 45.9512 91.503C46.0739 91.4257 46.1605 91.3257 46.2112 91.203C46.2619 91.0804 46.2872 90.9497 46.2872 90.811C46.2872 90.6857 46.2632 90.5617 46.2152 90.439C46.1672 90.3137 46.0819 90.2097 45.9592 90.127C45.8392 90.0444 45.6685 90.003 45.4472 90.003H44.4472V91.619ZM50.2809 94.803C49.9049 94.803 49.5822 94.7244 49.3129 94.567C49.0462 94.407 48.8276 94.191 48.6569 93.919C48.4862 93.647 48.3609 93.3377 48.2809 92.991C48.2009 92.6444 48.1609 92.283 48.1609 91.907C48.1609 91.531 48.2009 91.1697 48.2809 90.823C48.3609 90.4764 48.4862 90.167 48.6569 89.895C48.8276 89.623 49.0462 89.4084 49.3129 89.251C49.5822 89.091 49.9049 89.011 50.2809 89.011C50.6569 89.011 50.9796 89.091 51.2489 89.251C51.5182 89.4084 51.7382 89.623 51.9089 89.895C52.0796 90.167 52.2049 90.4764 52.2849 90.823C52.3676 91.1697 52.4089 91.531 52.4089 91.907C52.4089 92.283 52.3676 92.6444 52.2849 92.991C52.2049 93.3377 52.0796 93.647 51.9089 93.919C51.7382 94.191 51.5182 94.407 51.2489 94.567C50.9796 94.7244 50.6569 94.803 50.2809 94.803ZM50.2809 93.899C50.4782 93.899 50.6489 93.843 50.7929 93.731C50.9369 93.619 51.0542 93.4684 51.1449 93.279C51.2382 93.0897 51.3062 92.8764 51.3489 92.639C51.3942 92.4017 51.4169 92.1577 51.4169 91.907C51.4169 91.6404 51.3942 91.3884 51.3489 91.151C51.3062 90.911 51.2396 90.699 51.1489 90.515C51.0582 90.3284 50.9409 90.1817 50.7969 90.075C50.6529 89.9684 50.4809 89.915 50.2809 89.915C50.0809 89.915 49.9089 89.971 49.7649 90.083C49.6209 90.1924 49.5036 90.3417 49.4129 90.531C49.3222 90.7204 49.2542 90.9337 49.2089 91.171C49.1662 91.4084 49.1449 91.6537 49.1449 91.907C49.1449 92.171 49.1662 92.423 49.2089 92.663C49.2542 92.9004 49.3222 93.1124 49.4129 93.299C49.5036 93.4857 49.6209 93.6324 49.7649 93.739C49.9089 93.8457 50.0809 93.899 50.2809 93.899ZM55.3066 94.795C54.9012 94.795 54.5572 94.7124 54.2746 94.547C53.9919 94.379 53.7639 94.1564 53.5906 93.879C53.4172 93.599 53.2906 93.2884 53.2106 92.947C53.1306 92.603 53.0906 92.2564 53.0906 91.907C53.0906 91.571 53.1306 91.2337 53.2106 90.895C53.2932 90.5537 53.4226 90.2417 53.5986 89.959C53.7746 89.6764 54.0026 89.4497 54.2826 89.279C54.5652 89.1057 54.9066 89.019 55.3066 89.019C55.6212 89.019 55.8932 89.0764 56.1226 89.191C56.3546 89.303 56.5466 89.4484 56.6986 89.627C56.8506 89.8057 56.9652 89.9924 57.0426 90.187L56.1946 90.595C56.0879 90.387 55.9666 90.223 55.8306 90.103C55.6972 89.983 55.5226 89.923 55.3066 89.923C55.0799 89.923 54.8879 89.983 54.7306 90.103C54.5732 90.223 54.4452 90.3817 54.3466 90.579C54.2506 90.7764 54.1812 90.991 54.1386 91.223C54.0959 91.455 54.0746 91.683 54.0746 91.907C54.0746 92.1444 54.0986 92.3804 54.1466 92.615C54.1972 92.8497 54.2719 93.063 54.3706 93.255C54.4719 93.447 54.5999 93.6017 54.7546 93.719C54.9119 93.8337 55.0959 93.891 55.3066 93.891C55.5226 93.891 55.7012 93.8244 55.8426 93.691C55.9839 93.555 56.1039 93.3817 56.2026 93.171L57.0666 93.499C56.9652 93.747 56.8346 93.9697 56.6746 94.167C56.5172 94.3617 56.3252 94.515 56.0986 94.627C55.8719 94.739 55.6079 94.795 55.3066 94.795ZM59.6603 94.707V89.107H60.6123V94.707H59.6603ZM58.4923 94.707V93.867H61.7883V94.707H58.4923ZM58.4923 89.947V89.107H61.7883V89.947H58.4923ZM59.6123 88.587L60.7483 87.339H61.9403L60.5163 88.587H59.6123ZM63.214 94.707V89.107H64.118L65.862 92.563C65.886 92.6057 65.9193 92.667 65.962 92.747C66.0046 92.827 66.038 92.8937 66.062 92.947C66.0593 92.8777 66.0553 92.8084 66.05 92.739C66.0473 92.6697 66.046 92.611 66.046 92.563V89.107H66.926V94.707H66.062L64.286 91.235C64.262 91.1897 64.2286 91.127 64.186 91.047C64.1433 90.967 64.1073 90.9017 64.078 90.851C64.0913 90.9097 64.098 90.975 64.098 91.047C64.1006 91.119 64.102 91.1817 64.102 91.235V94.707H63.214ZM69.5196 94.707V89.107H70.4716V94.707H69.5196ZM68.3516 94.707V93.867H71.6476V94.707H68.3516ZM68.3516 89.947V89.107H71.6476V89.947H68.3516ZM74.9293 94.803C74.5533 94.803 74.2307 94.7244 73.9613 94.567C73.6947 94.407 73.476 94.191 73.3053 93.919C73.1347 93.647 73.0093 93.3377 72.9293 92.991C72.8493 92.6444 72.8093 92.283 72.8093 91.907C72.8093 91.531 72.8493 91.1697 72.9293 90.823C73.0093 90.4764 73.1347 90.167 73.3053 89.895C73.476 89.623 73.6947 89.4084 73.9613 89.251C74.2307 89.091 74.5533 89.011 74.9293 89.011C75.3053 89.011 75.628 89.091 75.8973 89.251C76.1667 89.4084 76.3867 89.623 76.5573 89.895C76.728 90.167 76.8533 90.4764 76.9333 90.823C77.016 91.1697 77.0573 91.531 77.0573 91.907C77.0573 92.283 77.016 92.6444 76.9333 92.991C76.8533 93.3377 76.728 93.647 76.5573 93.919C76.3867 94.191 76.1667 94.407 75.8973 94.567C75.628 94.7244 75.3053 94.803 74.9293 94.803ZM74.9293 93.899C75.1267 93.899 75.2973 93.843 75.4413 93.731C75.5853 93.619 75.7027 93.4684 75.7933 93.279C75.8867 93.0897 75.9547 92.8764 75.9973 92.639C76.0427 92.4017 76.0653 92.1577 76.0653 91.907C76.0653 91.6404 76.0427 91.3884 75.9973 91.151C75.9547 90.911 75.888 90.699 75.7973 90.515C75.7067 90.3284 75.5893 90.1817 75.4453 90.075C75.3013 89.9684 75.1293 89.915 74.9293 89.915C74.7293 89.915 74.5573 89.971 74.4133 90.083C74.2693 90.1924 74.152 90.3417 74.0613 90.531C73.9707 90.7204 73.9027 90.9337 73.8573 91.171C73.8147 91.4084 73.7933 91.6537 73.7933 91.907C73.7933 92.171 73.8147 92.423 73.8573 92.663C73.9027 92.9004 73.9707 93.1124 74.0613 93.299C74.152 93.4857 74.2693 93.6324 74.4133 93.739C74.5573 93.8457 74.7293 93.899 74.9293 93.899Z" fill="#404040"/>
<defs>
<radialGradient id="paint0_radial_917_19590" cx="0" cy="0" r="1" gradientUnits="userSpaceOnUse" gradientTransform="translate(89.2055 220.232) rotate(90) scale(86.5326 86.5327)">
<stop offset="0.625" stop-color="white" stop-opacity="0"/>
<stop offset="1" stop-color="white"/>
</radialGradient>
<radialGradient id="paint1_radial_917_19590" cx="0" cy="0" r="1" gradientUnits="userSpaceOnUse" gradientTransform="translate(257.515 220.231) rotate(90) scale(79.4853 79.4853)">
<stop offset="0.625" stop-color="white" stop-opacity="0"/>
<stop offset="1" stop-color="white"/>
</radialGradient>
<radialGradient id="paint2_radial_917_19590" cx="0" cy="0" r="1" gradientUnits="userSpaceOnUse" gradientTransform="translate(180.198 360.054) rotate(90) scale(77.9995 77.9995)">
<stop offset="0.625" stop-color="white" stop-opacity="0"/>
<stop offset="1" stop-color="white"/>
</radialGradient>
<radialGradient id="paint3_radial_917_19590" cx="0" cy="0" r="1" gradientUnits="userSpaceOnUse" gradientTransform="translate(179.936 87.7491) rotate(90) scale(71.7491 71.7491)">
<stop offset="0.625" stop-color="white" stop-opacity="0"/>
<stop offset="1" stop-color="white"/>
</radialGradient>
<radialGradient id="paint4_radial_917_19590" cx="0" cy="0" r="1" gradientUnits="userSpaceOnUse" gradientTransform="translate(52.9902 83.1201) rotate(90) scale(52.9902 52.9902)">
<stop offset="0.625" stop-color="white" stop-opacity="0"/>
<stop offset="1" stop-color="white"/>
</radialGradient>
</defs>
</svg>
