<svg width="311" height="485" viewBox="0 0 311 485" fill="none" xmlns="http://www.w3.org/2000/svg">
<rect width="112.044" height="228" fill="#590025"/>
<path d="M17.1925 107V101.4H20.7845V102.304H18.1445V103.656H19.8645V104.56H18.1445V106.096H20.9525V107H17.1925ZM23.5222 107L21.6982 101.4H22.7542L23.8662 105.216C23.8875 105.283 23.9088 105.367 23.9302 105.468C23.9515 105.569 23.9675 105.659 23.9782 105.736C23.9915 105.659 24.0075 105.571 24.0262 105.472C24.0448 105.373 24.0635 105.291 24.0822 105.224L25.2102 101.4H26.2582L24.4342 107H23.5222ZM27.0518 107V101.4H30.6438V102.304H28.0038V103.656H29.7238V104.56H28.0038V106.096H30.8118V107H27.0518ZM31.9815 107V101.4H33.9175C34.3789 101.4 34.7429 101.48 35.0095 101.64C35.2762 101.8 35.4655 102.009 35.5775 102.268C35.6922 102.527 35.7495 102.803 35.7495 103.096C35.7495 103.304 35.7149 103.507 35.6455 103.704C35.5762 103.899 35.4722 104.076 35.3335 104.236C35.1949 104.393 35.0202 104.523 34.8095 104.624C34.6015 104.725 34.3575 104.787 34.0775 104.808H32.9335V107H31.9815ZM34.6855 107L33.5415 104.696L34.5575 104.592L35.7415 107H34.6855ZM32.9335 103.912H33.9335C34.1469 103.912 34.3149 103.873 34.4375 103.796C34.5602 103.719 34.6469 103.619 34.6975 103.496C34.7482 103.373 34.7735 103.243 34.7735 103.104C34.7735 102.979 34.7495 102.855 34.7015 102.732C34.6535 102.607 34.5682 102.503 34.4455 102.42C34.3255 102.337 34.1549 102.296 33.9335 102.296H32.9335V103.912ZM38.2952 107V104.808L36.6472 101.4H37.7032L38.9592 104.216H38.5752L39.8392 101.4H40.8872L39.2392 104.808V107H38.2952ZM48.6906 107.096C48.3866 107.096 48.1013 107.037 47.8346 106.92C47.5706 106.8 47.3399 106.632 47.1426 106.416C46.9453 106.2 46.7973 105.947 46.6986 105.656L47.5626 105.336C47.6826 105.592 47.8506 105.8 48.0666 105.96C48.2853 106.12 48.5199 106.2 48.7706 106.2C49.0106 106.2 49.2066 106.139 49.3586 106.016C49.5106 105.893 49.5866 105.715 49.5866 105.48C49.5866 105.328 49.5333 105.193 49.4266 105.076C49.3199 104.956 49.1786 104.847 49.0026 104.748C48.8293 104.649 48.6399 104.555 48.4346 104.464C48.2559 104.387 48.0759 104.3 47.8946 104.204C47.7159 104.108 47.5506 103.995 47.3986 103.864C47.2493 103.733 47.1279 103.58 47.0346 103.404C46.9439 103.228 46.8986 103.021 46.8986 102.784C46.8986 102.515 46.9693 102.268 47.1106 102.044C47.2519 101.82 47.4519 101.641 47.7106 101.508C47.9693 101.372 48.2746 101.304 48.6266 101.304C49.0479 101.304 49.4093 101.417 49.7106 101.644C50.0146 101.871 50.2159 102.155 50.3146 102.496L49.4586 102.784C49.3786 102.619 49.2639 102.48 49.1146 102.368C48.9653 102.256 48.7839 102.2 48.5706 102.2C48.3706 102.2 48.2013 102.251 48.0626 102.352C47.9266 102.453 47.8586 102.592 47.8586 102.768C47.8586 102.891 47.8973 102.997 47.9746 103.088C48.0546 103.179 48.1706 103.267 48.3226 103.352C48.4773 103.437 48.6666 103.533 48.8906 103.64C49.0719 103.725 49.2586 103.821 49.4506 103.928C49.6426 104.032 49.8213 104.153 49.9866 104.292C50.1546 104.431 50.2893 104.593 50.3906 104.78C50.4946 104.967 50.5466 105.184 50.5466 105.432C50.5466 105.787 50.4599 106.088 50.2866 106.336C50.1159 106.584 49.8893 106.773 49.6066 106.904C49.3266 107.032 49.0213 107.096 48.6906 107.096ZM53.0763 107V101.4H54.0283V107H53.0763ZM51.9083 107V106.16H55.2043V107H51.9083ZM51.9083 102.24V101.4H55.2043V102.24H51.9083ZM56.63 107V101.4H57.534L59.278 104.856C59.302 104.899 59.3353 104.96 59.378 105.04C59.4206 105.12 59.454 105.187 59.478 105.24C59.4753 105.171 59.4713 105.101 59.466 105.032C59.4633 104.963 59.462 104.904 59.462 104.856V101.4H60.342V107H59.478L57.702 103.528C57.678 103.483 57.6446 103.42 57.602 103.34C57.5593 103.26 57.5233 103.195 57.494 103.144C57.5073 103.203 57.514 103.268 57.514 103.34C57.5166 103.412 57.518 103.475 57.518 103.528V107H56.63ZM63.5037 107.096C63.125 107.096 62.7957 107.016 62.5157 106.856C62.2383 106.693 62.009 106.475 61.8277 106.2C61.649 105.923 61.5157 105.612 61.4277 105.268C61.3397 104.921 61.2957 104.565 61.2957 104.2C61.2957 103.851 61.341 103.505 61.4317 103.164C61.5223 102.82 61.6597 102.508 61.8437 102.228C62.0277 101.948 62.257 101.724 62.5317 101.556C62.809 101.388 63.133 101.304 63.5037 101.304C63.821 101.304 64.0877 101.359 64.3037 101.468C64.5223 101.575 64.705 101.715 64.8517 101.888C64.9983 102.059 65.125 102.24 65.2317 102.432L64.3917 102.912C64.293 102.723 64.173 102.559 64.0317 102.42C63.893 102.279 63.717 102.208 63.5037 102.208C63.2797 102.208 63.0903 102.269 62.9357 102.392C62.781 102.512 62.6557 102.672 62.5597 102.872C62.4637 103.069 62.3943 103.285 62.3517 103.52C62.309 103.752 62.2877 103.979 62.2877 104.2C62.2877 104.453 62.3117 104.699 62.3597 104.936C62.4103 105.173 62.485 105.387 62.5837 105.576C62.6823 105.765 62.8077 105.916 62.9597 106.028C63.1143 106.137 63.2957 106.192 63.5037 106.192C63.7997 106.192 64.021 106.093 64.1677 105.896C64.317 105.696 64.3917 105.448 64.3917 105.152V105.032H63.4157V104.136H65.3677V104.912C65.3677 105.384 65.285 105.783 65.1197 106.108C64.957 106.433 64.7343 106.68 64.4517 106.848C64.1717 107.013 63.8557 107.096 63.5037 107.096ZM66.4893 107V101.4H67.4413V106.088H70.0253V107H66.4893ZM71.419 107V101.4H75.011V102.304H72.371V103.656H74.091V104.56H72.371V106.096H75.179V107H71.419ZM81.2784 107V101.4H82.6864C83.1557 101.4 83.5531 101.48 83.8784 101.64C84.2064 101.797 84.4717 102.011 84.6744 102.28C84.8797 102.547 85.0291 102.847 85.1224 103.18C85.2157 103.511 85.2624 103.851 85.2624 104.2C85.2624 104.52 85.2184 104.844 85.1304 105.172C85.0424 105.5 84.8971 105.803 84.6944 106.08C84.4944 106.357 84.2277 106.58 83.8944 106.748C83.5611 106.916 83.1477 107 82.6544 107H81.2784ZM82.2304 106.104H82.7504C83.0357 106.104 83.2757 106.048 83.4704 105.936C83.6651 105.821 83.8211 105.671 83.9384 105.484C84.0557 105.297 84.1397 105.092 84.1904 104.868C84.2437 104.644 84.2704 104.421 84.2704 104.2C84.2704 103.963 84.2424 103.732 84.1864 103.508C84.1331 103.281 84.0491 103.077 83.9344 102.896C83.8197 102.712 83.6717 102.567 83.4904 102.46C83.3091 102.351 83.0917 102.296 82.8384 102.296H82.2304V106.104ZM85.7841 107L87.6161 101.4H88.5121L90.3441 107H89.3201L88.2001 103.24C88.1868 103.197 88.1708 103.14 88.1521 103.068C88.1361 102.996 88.1201 102.92 88.1041 102.84C88.0881 102.76 88.0748 102.685 88.0641 102.616C88.0508 102.685 88.0361 102.76 88.0201 102.84C88.0041 102.92 87.9881 102.996 87.9721 103.068C87.9561 103.14 87.9414 103.197 87.9281 103.24L86.8081 107H85.7841ZM86.9681 105.768L87.2241 104.904H88.9041L89.1601 105.768H86.9681ZM92.5218 107V104.808L90.8738 101.4H91.9298L93.1858 104.216H92.8018L94.0658 101.4H95.1138L93.4658 104.808V107H92.5218Z" fill="white"/>
<path d="M27.522 125.5V124H30.522V118H29.022V116.5H30.522V115H33.522V124H36.522V125.5H27.522ZM39.522 125.5V124H38.022V118H39.522V116.5H41.022V115H47.022V116.5H42.522V118H41.022V119.5H47.022V121H48.522V124H47.022V125.5H39.522ZM41.022 124H45.522V121H41.022V124ZM51.522 127V125.5H53.022V122.5H56.022V125.5H54.522V127H51.522ZM63.522 125.5V124H68.022V122.5H69.522V121H63.522V119.5H62.022V116.5H63.522V115H71.022V116.5H72.522V122.5H71.022V124H69.522V125.5H63.522ZM65.022 119.5H69.522V116.5H65.022V119.5ZM77.022 116.5H75.522V115H78.522V118H77.022V116.5ZM84.522 115V116.5H83.022V115H84.522ZM77.022 119.5H74.022V116.5H75.522V118H77.022V119.5ZM81.522 116.5H83.022V118H81.522V116.5ZM80.022 118H81.522V119.5H80.022V118ZM78.522 119.5H80.022V121H78.522V119.5ZM77.022 121H78.522V122.5H77.022V121ZM81.522 121H84.522V124H83.022V122.5H81.522V121ZM75.522 122.5H77.022V124H75.522V122.5ZM81.522 124H83.022V125.5H80.022V122.5H81.522V124ZM74.022 124H75.522V125.5H74.022V124Z" fill="white"/>
<rect width="198.956" height="156" transform="translate(112.043)" fill="#980140"/>
<path d="M182.128 66L183.96 60.4H184.856L186.688 66H185.664L184.544 62.24C184.53 62.1973 184.514 62.14 184.496 62.068C184.48 61.996 184.464 61.92 184.448 61.84C184.432 61.76 184.418 61.6853 184.408 61.616C184.394 61.6853 184.38 61.76 184.364 61.84C184.348 61.92 184.332 61.996 184.316 62.068C184.3 62.14 184.285 62.1973 184.272 62.24L183.152 66H182.128ZM183.312 64.768L183.568 63.904H185.248L185.504 64.768H183.312ZM187.481 66V60.4H188.433V65.088H191.017V66H187.481ZM192.411 66V60.4H193.339L194.147 63.472C194.168 63.552 194.194 63.6467 194.223 63.756C194.252 63.8627 194.272 63.952 194.283 64.024C194.296 63.952 194.316 63.8627 194.343 63.756C194.372 63.6467 194.398 63.552 194.419 63.472L195.251 60.4H196.123V66H195.299V62.96C195.299 62.8987 195.299 62.82 195.299 62.724C195.302 62.628 195.307 62.552 195.315 62.496C195.291 62.5627 195.264 62.6373 195.235 62.72C195.208 62.8027 195.184 62.8827 195.163 62.96L194.307 66H194.227L193.371 62.96C193.35 62.8827 193.324 62.8027 193.295 62.72C193.268 62.6347 193.243 62.56 193.219 62.496C193.224 62.552 193.228 62.628 193.231 62.724C193.234 62.82 193.235 62.8987 193.235 62.96V66H192.411ZM199.197 66.096C198.821 66.096 198.498 66.0173 198.229 65.86C197.962 65.7 197.743 65.484 197.573 65.212C197.402 64.94 197.277 64.6307 197.197 64.284C197.117 63.9373 197.077 63.576 197.077 63.2C197.077 62.824 197.117 62.4627 197.197 62.116C197.277 61.7693 197.402 61.46 197.573 61.188C197.743 60.916 197.962 60.7013 198.229 60.544C198.498 60.384 198.821 60.304 199.197 60.304C199.573 60.304 199.895 60.384 200.165 60.544C200.434 60.7013 200.654 60.916 200.825 61.188C200.995 61.46 201.121 61.7693 201.201 62.116C201.283 62.4627 201.325 62.824 201.325 63.2C201.325 63.576 201.283 63.9373 201.201 64.284C201.121 64.6307 200.995 64.94 200.825 65.212C200.654 65.484 200.434 65.7 200.165 65.86C199.895 66.0173 199.573 66.096 199.197 66.096ZM199.197 65.192C199.394 65.192 199.565 65.136 199.709 65.024C199.853 64.912 199.97 64.7613 200.061 64.572C200.154 64.3827 200.222 64.1693 200.265 63.932C200.31 63.6947 200.333 63.4507 200.333 63.2C200.333 62.9333 200.31 62.6813 200.265 62.444C200.222 62.204 200.155 61.992 200.065 61.808C199.974 61.6213 199.857 61.4747 199.713 61.368C199.569 61.2613 199.397 61.208 199.197 61.208C198.997 61.208 198.825 61.264 198.681 61.376C198.537 61.4853 198.419 61.6347 198.329 61.824C198.238 62.0133 198.17 62.2267 198.125 62.464C198.082 62.7013 198.061 62.9467 198.061 63.2C198.061 63.464 198.082 63.716 198.125 63.956C198.17 64.1933 198.238 64.4053 198.329 64.592C198.419 64.7787 198.537 64.9253 198.681 65.032C198.825 65.1387 198.997 65.192 199.197 65.192ZM204.19 66.096C203.886 66.096 203.601 66.0373 203.334 65.92C203.07 65.8 202.84 65.632 202.642 65.416C202.445 65.2 202.297 64.9467 202.198 64.656L203.062 64.336C203.182 64.592 203.35 64.8 203.566 64.96C203.785 65.12 204.02 65.2 204.27 65.2C204.51 65.2 204.706 65.1387 204.858 65.016C205.01 64.8933 205.086 64.7147 205.086 64.48C205.086 64.328 205.033 64.1933 204.926 64.076C204.82 63.956 204.678 63.8467 204.502 63.748C204.329 63.6493 204.14 63.5547 203.934 63.464C203.756 63.3867 203.576 63.3 203.394 63.204C203.216 63.108 203.05 62.9947 202.898 62.864C202.749 62.7333 202.628 62.58 202.534 62.404C202.444 62.228 202.398 62.0213 202.398 61.784C202.398 61.5147 202.469 61.268 202.61 61.044C202.752 60.82 202.952 60.6413 203.21 60.508C203.469 60.372 203.774 60.304 204.126 60.304C204.548 60.304 204.909 60.4173 205.21 60.644C205.514 60.8707 205.716 61.1547 205.814 61.496L204.958 61.784C204.878 61.6187 204.764 61.48 204.614 61.368C204.465 61.256 204.284 61.2 204.07 61.2C203.87 61.2 203.701 61.2507 203.562 61.352C203.426 61.4533 203.358 61.592 203.358 61.768C203.358 61.8907 203.397 61.9973 203.474 62.088C203.554 62.1787 203.67 62.2667 203.822 62.352C203.977 62.4373 204.166 62.5333 204.39 62.64C204.572 62.7253 204.758 62.8213 204.95 62.928C205.142 63.032 205.321 63.1533 205.486 63.292C205.654 63.4307 205.789 63.5933 205.89 63.78C205.994 63.9667 206.046 64.184 206.046 64.432C206.046 64.7867 205.96 65.088 205.786 65.336C205.616 65.584 205.389 65.7733 205.106 65.904C204.826 66.032 204.521 66.096 204.19 66.096ZM208.576 66V61.312H206.952V60.4H211.16V61.312H209.528V66H208.576ZM217.059 66V60.4H220.651V61.304H218.011V62.656H219.731V63.56H218.011V65.096H220.819V66H217.059ZM223.389 66L221.565 60.4H222.621L223.733 64.216C223.754 64.2827 223.776 64.3667 223.797 64.468C223.818 64.5693 223.834 64.6587 223.845 64.736C223.858 64.6587 223.874 64.5707 223.893 64.472C223.912 64.3733 223.93 64.2907 223.949 64.224L225.077 60.4H226.125L224.301 66H223.389ZM226.919 66V60.4H230.511V61.304H227.871V62.656H229.591V63.56H227.871V65.096H230.679V66H226.919ZM231.848 66V60.4H233.784C234.246 60.4 234.61 60.48 234.876 60.64C235.143 60.8 235.332 61.0093 235.444 61.268C235.559 61.5267 235.616 61.8027 235.616 62.096C235.616 62.304 235.582 62.5067 235.512 62.704C235.443 62.8987 235.339 63.076 235.2 63.236C235.062 63.3933 234.887 63.5227 234.676 63.624C234.468 63.7253 234.224 63.7867 233.944 63.808H232.8V66H231.848ZM234.552 66L233.408 63.696L234.424 63.592L235.608 66H234.552ZM232.8 62.912H233.8C234.014 62.912 234.182 62.8733 234.304 62.796C234.427 62.7187 234.514 62.6187 234.564 62.496C234.615 62.3733 234.64 62.2427 234.64 62.104C234.64 61.9787 234.616 61.8547 234.568 61.732C234.52 61.6067 234.435 61.5027 234.312 61.42C234.192 61.3373 234.022 61.296 233.8 61.296H232.8V62.912ZM238.162 66V63.808L236.514 60.4H237.57L238.826 63.216H238.442L239.706 60.4H240.754L239.106 63.808V66H238.162ZM204.735 76V70.4H206.143C206.613 70.4 207.01 70.48 207.335 70.64C207.663 70.7973 207.929 71.0107 208.131 71.28C208.337 71.5467 208.486 71.8467 208.579 72.18C208.673 72.5107 208.719 72.8507 208.719 73.2C208.719 73.52 208.675 73.844 208.587 74.172C208.499 74.5 208.354 74.8027 208.151 75.08C207.951 75.3573 207.685 75.58 207.351 75.748C207.018 75.916 206.605 76 206.111 76H204.735ZM205.687 75.104H206.207C206.493 75.104 206.733 75.048 206.927 74.936C207.122 74.8213 207.278 74.6707 207.395 74.484C207.513 74.2973 207.597 74.092 207.647 73.868C207.701 73.644 207.727 73.4213 207.727 73.2C207.727 72.9627 207.699 72.732 207.643 72.508C207.59 72.2813 207.506 72.0773 207.391 71.896C207.277 71.712 207.129 71.5667 206.947 71.46C206.766 71.3507 206.549 71.296 206.295 71.296H205.687V75.104ZM209.241 76L211.073 70.4H211.969L213.801 76H212.777L211.657 72.24C211.644 72.1973 211.628 72.14 211.609 72.068C211.593 71.996 211.577 71.92 211.561 71.84C211.545 71.76 211.532 71.6853 211.521 71.616C211.508 71.6853 211.493 71.76 211.477 71.84C211.461 71.92 211.445 71.996 211.429 72.068C211.413 72.14 211.398 72.1973 211.385 72.24L210.265 76H209.241ZM210.425 74.768L210.681 73.904H212.361L212.617 74.768H210.425ZM215.979 76V73.808L214.331 70.4H215.387L216.643 73.216H216.259L217.523 70.4H218.571L216.923 73.808V76H215.979Z" fill="white"/>
<path d="M181.522 94.5V91.5H183.022V90H184.522V88.5H187.522V87H189.022V85.5H184.522V87H181.522V85.5H183.022V84H190.522V85.5H192.022V88.5H190.522V90H189.022V91.5H186.022V93H192.022V94.5H181.522ZM196.522 94.5V93H195.022V91.5H193.522V87H195.022V85.5H196.522V84H201.022V85.5H202.522V87H204.022V91.5H202.522V93H201.022V94.5H196.522ZM198.022 93H201.022V87H199.522V85.5H196.522V91.5H198.022V93ZM207.022 96V94.5H208.522V91.5H211.522V94.5H210.022V96H207.022ZM223.522 94.5V91.5H217.522V88.5H219.022V87H220.522V85.5H222.022V84H226.522V90H228.022V91.5H226.522V94.5H223.522ZM220.522 90H223.522V87H222.022V88.5H220.522V90ZM232.522 85.5H231.022V84H234.022V87H232.522V85.5ZM240.022 84V85.5H238.522V84H240.022ZM232.522 88.5H229.522V85.5H231.022V87H232.522V88.5ZM237.022 85.5H238.522V87H237.022V85.5ZM235.522 87H237.022V88.5H235.522V87ZM234.022 88.5H235.522V90H234.022V88.5ZM232.522 90H234.022V91.5H232.522V90ZM237.022 90H240.022V93H238.522V91.5H237.022V90ZM231.022 91.5H232.522V93H231.022V91.5ZM237.022 93H238.522V94.5H235.522V91.5H237.022V93ZM229.522 93H231.022V94.5H229.522V93Z" fill="white"/>
<rect width="198.956" height="72" transform="translate(112.043 156)" fill="#E5015F"/>
<path d="M181.463 180V175.312H179.839V174.4H184.047V175.312H182.415V180H181.463ZM185.016 180V174.4H185.968V176.664H187.776V174.4H188.728V180H187.776V177.56H185.968V180H185.016ZM189.946 180V174.4H191.882C192.343 174.4 192.707 174.48 192.974 174.64C193.241 174.8 193.43 175.009 193.542 175.268C193.657 175.527 193.714 175.803 193.714 176.096C193.714 176.304 193.679 176.507 193.61 176.704C193.541 176.899 193.437 177.076 193.298 177.236C193.159 177.393 192.985 177.523 192.774 177.624C192.566 177.725 192.322 177.787 192.042 177.808H190.898V180H189.946ZM192.65 180L191.506 177.696L192.522 177.592L193.706 180H192.65ZM190.898 176.912H191.898C192.111 176.912 192.279 176.873 192.402 176.796C192.525 176.719 192.611 176.619 192.662 176.496C192.713 176.373 192.738 176.243 192.738 176.104C192.738 175.979 192.714 175.855 192.666 175.732C192.618 175.607 192.533 175.503 192.41 175.42C192.29 175.337 192.119 175.296 191.898 175.296H190.898V176.912ZM194.876 180V174.4H198.468V175.304H195.828V176.656H197.548V177.56H195.828V179.096H198.636V180H194.876ZM199.806 180V174.4H203.398V175.304H200.758V176.656H202.478V177.56H200.758V179.096H203.566V180H199.806ZM211.041 180V175.312H209.417V174.4H213.625V175.312H211.993V180H211.041ZM216.451 180.096C216.075 180.096 215.752 180.017 215.483 179.86C215.216 179.7 214.997 179.484 214.827 179.212C214.656 178.94 214.531 178.631 214.451 178.284C214.371 177.937 214.331 177.576 214.331 177.2C214.331 176.824 214.371 176.463 214.451 176.116C214.531 175.769 214.656 175.46 214.827 175.188C214.997 174.916 215.216 174.701 215.483 174.544C215.752 174.384 216.075 174.304 216.451 174.304C216.827 174.304 217.149 174.384 217.419 174.544C217.688 174.701 217.908 174.916 218.079 175.188C218.249 175.46 218.375 175.769 218.455 176.116C218.537 176.463 218.579 176.824 218.579 177.2C218.579 177.576 218.537 177.937 218.455 178.284C218.375 178.631 218.249 178.94 218.079 179.212C217.908 179.484 217.688 179.7 217.419 179.86C217.149 180.017 216.827 180.096 216.451 180.096ZM216.451 179.192C216.648 179.192 216.819 179.136 216.963 179.024C217.107 178.912 217.224 178.761 217.315 178.572C217.408 178.383 217.476 178.169 217.519 177.932C217.564 177.695 217.587 177.451 217.587 177.2C217.587 176.933 217.564 176.681 217.519 176.444C217.476 176.204 217.409 175.992 217.319 175.808C217.228 175.621 217.111 175.475 216.967 175.368C216.823 175.261 216.651 175.208 216.451 175.208C216.251 175.208 216.079 175.264 215.935 175.376C215.791 175.485 215.673 175.635 215.583 175.824C215.492 176.013 215.424 176.227 215.379 176.464C215.336 176.701 215.315 176.947 215.315 177.2C215.315 177.464 215.336 177.716 215.379 177.956C215.424 178.193 215.492 178.405 215.583 178.592C215.673 178.779 215.791 178.925 215.935 179.032C216.079 179.139 216.251 179.192 216.451 179.192ZM224.454 180V174.4H228.23V175.304H225.406V176.656H227.462V177.56H225.406V180H224.454ZM231.24 180.096C230.864 180.096 230.541 180.017 230.272 179.86C230.005 179.7 229.786 179.484 229.616 179.212C229.445 178.94 229.32 178.631 229.24 178.284C229.16 177.937 229.12 177.576 229.12 177.2C229.12 176.824 229.16 176.463 229.24 176.116C229.32 175.769 229.445 175.46 229.616 175.188C229.786 174.916 230.005 174.701 230.272 174.544C230.541 174.384 230.864 174.304 231.24 174.304C231.616 174.304 231.938 174.384 232.208 174.544C232.477 174.701 232.697 174.916 232.868 175.188C233.038 175.46 233.164 175.769 233.244 176.116C233.326 176.463 233.368 176.824 233.368 177.2C233.368 177.576 233.326 177.937 233.244 178.284C233.164 178.631 233.038 178.94 232.868 179.212C232.697 179.484 232.477 179.7 232.208 179.86C231.938 180.017 231.616 180.096 231.24 180.096ZM231.24 179.192C231.437 179.192 231.608 179.136 231.752 179.024C231.896 178.912 232.013 178.761 232.104 178.572C232.197 178.383 232.265 178.169 232.308 177.932C232.353 177.695 232.376 177.451 232.376 177.2C232.376 176.933 232.353 176.681 232.308 176.444C232.265 176.204 232.198 175.992 232.108 175.808C232.017 175.621 231.9 175.475 231.756 175.368C231.612 175.261 231.44 175.208 231.24 175.208C231.04 175.208 230.868 175.264 230.724 175.376C230.58 175.485 230.462 175.635 230.372 175.824C230.281 176.013 230.213 176.227 230.168 176.464C230.125 176.701 230.104 176.947 230.104 177.2C230.104 177.464 230.125 177.716 230.168 177.956C230.213 178.193 230.281 178.405 230.372 178.592C230.462 178.779 230.58 178.925 230.724 179.032C230.868 179.139 231.04 179.192 231.24 179.192ZM236.169 180.096C235.833 180.096 235.521 180.025 235.233 179.884C234.948 179.743 234.717 179.509 234.541 179.184C234.368 178.859 234.281 178.419 234.281 177.864V174.4H235.225V177.864C235.225 178.208 235.265 178.476 235.345 178.668C235.428 178.86 235.54 178.996 235.681 179.076C235.825 179.153 235.988 179.192 236.169 179.192C236.348 179.192 236.508 179.153 236.649 179.076C236.793 178.996 236.907 178.86 236.989 178.668C237.072 178.476 237.113 178.208 237.113 177.864V174.4H238.065V177.864C238.065 178.411 237.979 178.848 237.805 179.176C237.632 179.501 237.401 179.736 237.113 179.88C236.825 180.024 236.511 180.096 236.169 180.096ZM239.243 180V174.4H241.179C241.64 174.4 242.004 174.48 242.271 174.64C242.538 174.8 242.727 175.009 242.839 175.268C242.954 175.527 243.011 175.803 243.011 176.096C243.011 176.304 242.976 176.507 242.907 176.704C242.838 176.899 242.734 177.076 242.595 177.236C242.456 177.393 242.282 177.523 242.071 177.624C241.863 177.725 241.619 177.787 241.339 177.808H240.195V180H239.243ZM241.947 180L240.803 177.696L241.819 177.592L243.003 180H241.947ZM240.195 176.912H241.195C241.408 176.912 241.576 176.873 241.699 176.796C241.822 176.719 241.908 176.619 241.959 176.496C242.01 176.373 242.035 176.243 242.035 176.104C242.035 175.979 242.011 175.855 241.963 175.732C241.915 175.607 241.83 175.503 241.707 175.42C241.587 175.337 241.416 175.296 241.195 175.296H240.195V176.912ZM183.928 190V185.312H182.304V184.4H186.512V185.312H184.88V190H183.928ZM188.857 190V184.4H189.809V190H188.857ZM187.689 190V189.16H190.985V190H187.689ZM187.689 185.24V184.4H190.985V185.24H187.689ZM192.411 190V184.4H193.339L194.147 187.472C194.168 187.552 194.194 187.647 194.223 187.756C194.252 187.863 194.272 187.952 194.283 188.024C194.296 187.952 194.316 187.863 194.343 187.756C194.372 187.647 194.398 187.552 194.419 187.472L195.251 184.4H196.123V190H195.299V186.96C195.299 186.899 195.299 186.82 195.299 186.724C195.302 186.628 195.307 186.552 195.315 186.496C195.291 186.563 195.264 186.637 195.235 186.72C195.208 186.803 195.184 186.883 195.163 186.96L194.307 190H194.227L193.371 186.96C193.35 186.883 193.324 186.803 193.295 186.72C193.268 186.635 193.243 186.56 193.219 186.496C193.224 186.552 193.228 186.628 193.231 186.724C193.234 186.82 193.235 186.899 193.235 186.96V190H192.411ZM197.341 190V184.4H200.933V185.304H198.293V186.656H200.013V187.56H198.293V189.096H201.101V190H197.341ZM204.19 190.096C203.886 190.096 203.601 190.037 203.334 189.92C203.07 189.8 202.84 189.632 202.642 189.416C202.445 189.2 202.297 188.947 202.198 188.656L203.062 188.336C203.182 188.592 203.35 188.8 203.566 188.96C203.785 189.12 204.02 189.2 204.27 189.2C204.51 189.2 204.706 189.139 204.858 189.016C205.01 188.893 205.086 188.715 205.086 188.48C205.086 188.328 205.033 188.193 204.926 188.076C204.82 187.956 204.678 187.847 204.502 187.748C204.329 187.649 204.14 187.555 203.934 187.464C203.756 187.387 203.576 187.3 203.394 187.204C203.216 187.108 203.05 186.995 202.898 186.864C202.749 186.733 202.628 186.58 202.534 186.404C202.444 186.228 202.398 186.021 202.398 185.784C202.398 185.515 202.469 185.268 202.61 185.044C202.752 184.82 202.952 184.641 203.21 184.508C203.469 184.372 203.774 184.304 204.126 184.304C204.548 184.304 204.909 184.417 205.21 184.644C205.514 184.871 205.716 185.155 205.814 185.496L204.958 185.784C204.878 185.619 204.764 185.48 204.614 185.368C204.465 185.256 204.284 185.2 204.07 185.2C203.87 185.2 203.701 185.251 203.562 185.352C203.426 185.453 203.358 185.592 203.358 185.768C203.358 185.891 203.397 185.997 203.474 186.088C203.554 186.179 203.67 186.267 203.822 186.352C203.977 186.437 204.166 186.533 204.39 186.64C204.572 186.725 204.758 186.821 204.95 186.928C205.142 187.032 205.321 187.153 205.486 187.292C205.654 187.431 205.789 187.593 205.89 187.78C205.994 187.967 206.046 188.184 206.046 188.432C206.046 188.787 205.96 189.088 205.786 189.336C205.616 189.584 205.389 189.773 205.106 189.904C204.826 190.032 204.521 190.096 204.19 190.096ZM211.706 190L213.538 184.4H214.434L216.266 190H215.242L214.122 186.24C214.108 186.197 214.092 186.14 214.074 186.068C214.058 185.996 214.042 185.92 214.026 185.84C214.01 185.76 213.996 185.685 213.986 185.616C213.972 185.685 213.958 185.76 213.942 185.84C213.926 185.92 213.91 185.996 213.894 186.068C213.878 186.14 213.863 186.197 213.85 186.24L212.73 190H211.706ZM212.89 188.768L213.146 187.904H214.826L215.082 188.768H212.89ZM222.309 190L221.485 184.4H222.341L222.781 187.736C222.786 187.776 222.796 187.84 222.809 187.928C222.822 188.013 222.832 188.08 222.837 188.128C222.845 188.08 222.857 188.016 222.873 187.936C222.892 187.853 222.906 187.784 222.917 187.728L223.589 184.4H224.101L224.781 187.712C224.797 187.787 224.812 187.856 224.825 187.92C224.838 187.981 224.85 188.043 224.861 188.104C224.874 188.027 224.885 187.96 224.893 187.904C224.901 187.845 224.909 187.784 224.917 187.72L225.285 184.4H226.205L225.373 190H224.621L223.909 186.576C223.893 186.499 223.878 186.428 223.865 186.364C223.854 186.297 223.845 186.232 223.837 186.168C223.829 186.232 223.818 186.296 223.805 186.36C223.794 186.421 223.781 186.491 223.765 186.568L223.061 190H222.309ZM226.919 190V184.4H230.511V185.304H227.871V186.656H229.591V187.56H227.871V189.096H230.679V190H226.919ZM231.848 190V184.4H235.44V185.304H232.8V186.656H234.52V187.56H232.8V189.096H235.608V190H231.848ZM237.65 187.944V186.616L239.394 184.4H240.506L237.65 187.944ZM236.778 190V184.4H237.73V190H236.778ZM239.754 190L238.194 187.08L238.834 186.28L240.866 190H239.754Z" fill="white"/>
<path d="M189.022 208.5V207H193.522V205.5H195.022V204H189.022V202.5H187.522V199.5H189.022V198H196.522V199.5H198.022V205.5H196.522V207H195.022V208.5H189.022ZM190.522 202.5H195.022V199.5H190.522V202.5ZM201.022 210V208.5H202.522V205.5H205.522V208.5H204.022V210H201.022ZM217.522 208.5V205.5H211.522V202.5H213.022V201H214.522V199.5H216.022V198H220.522V204H222.022V205.5H220.522V208.5H217.522ZM214.522 204H217.522V201H216.022V202.5H214.522V204ZM226.522 199.5H225.022V198H228.022V201H226.522V199.5ZM234.022 198V199.5H232.522V198H234.022ZM226.522 202.5H223.522V199.5H225.022V201H226.522V202.5ZM231.022 199.5H232.522V201H231.022V199.5ZM229.522 201H231.022V202.5H229.522V201ZM228.022 202.5H229.522V204H228.022V202.5ZM226.522 204H228.022V205.5H226.522V204ZM231.022 204H234.022V207H232.522V205.5H231.022V204ZM225.022 205.5H226.522V207H225.022V205.5ZM231.022 207H232.522V208.5H229.522V205.5H231.022V207ZM223.522 207H225.022V208.5H223.522V207Z" fill="white"/>
<rect width="167.542" height="124" transform="translate(0 228)" fill="#FE016A"/>
<path d="M49.2623 278.096C48.8863 278.096 48.5637 278.017 48.2943 277.86C48.0277 277.7 47.809 277.484 47.6383 277.212C47.4677 276.94 47.3423 276.631 47.2623 276.284C47.1823 275.937 47.1423 275.576 47.1423 275.2C47.1423 274.824 47.1823 274.463 47.2623 274.116C47.3423 273.769 47.4677 273.46 47.6383 273.188C47.809 272.916 48.0277 272.701 48.2943 272.544C48.5637 272.384 48.8863 272.304 49.2623 272.304C49.6383 272.304 49.961 272.384 50.2303 272.544C50.4997 272.701 50.7197 272.916 50.8903 273.188C51.061 273.46 51.1863 273.769 51.2663 274.116C51.349 274.463 51.3903 274.824 51.3903 275.2C51.3903 275.576 51.349 275.937 51.2663 276.284C51.1863 276.631 51.061 276.94 50.8903 277.212C50.7197 277.484 50.4997 277.7 50.2303 277.86C49.961 278.017 49.6383 278.096 49.2623 278.096ZM49.2623 277.192C49.4597 277.192 49.6303 277.136 49.7743 277.024C49.9183 276.912 50.0357 276.761 50.1263 276.572C50.2197 276.383 50.2877 276.169 50.3303 275.932C50.3757 275.695 50.3983 275.451 50.3983 275.2C50.3983 274.933 50.3757 274.681 50.3303 274.444C50.2877 274.204 50.221 273.992 50.1303 273.808C50.0397 273.621 49.9223 273.475 49.7783 273.368C49.6343 273.261 49.4623 273.208 49.2623 273.208C49.0623 273.208 48.8903 273.264 48.7463 273.376C48.6023 273.485 48.485 273.635 48.3943 273.824C48.3037 274.013 48.2357 274.227 48.1903 274.464C48.1477 274.701 48.1263 274.947 48.1263 275.2C48.1263 275.464 48.1477 275.716 48.1903 275.956C48.2357 276.193 48.3037 276.405 48.3943 276.592C48.485 276.779 48.6023 276.925 48.7463 277.032C48.8903 277.139 49.0623 277.192 49.2623 277.192ZM52.336 278V272.4H53.24L54.984 275.856C55.008 275.899 55.0414 275.96 55.084 276.04C55.1267 276.12 55.16 276.187 55.184 276.24C55.1814 276.171 55.1774 276.101 55.172 276.032C55.1694 275.963 55.168 275.904 55.168 275.856V272.4H56.048V278H55.184L53.408 274.528C53.384 274.483 53.3507 274.42 53.308 274.34C53.2654 274.26 53.2294 274.195 53.2 274.144C53.2134 274.203 53.22 274.268 53.22 274.34C53.2227 274.412 53.224 274.475 53.224 274.528V278H52.336ZM59.2177 278.088C58.8124 278.088 58.4684 278.005 58.1857 277.84C57.903 277.672 57.675 277.449 57.5017 277.172C57.3284 276.892 57.2017 276.581 57.1217 276.24C57.0417 275.896 57.0017 275.549 57.0017 275.2C57.0017 274.864 57.0417 274.527 57.1217 274.188C57.2044 273.847 57.3337 273.535 57.5097 273.252C57.6857 272.969 57.9137 272.743 58.1937 272.572C58.4764 272.399 58.8177 272.312 59.2177 272.312C59.5324 272.312 59.8044 272.369 60.0337 272.484C60.2657 272.596 60.4577 272.741 60.6097 272.92C60.7617 273.099 60.8764 273.285 60.9537 273.48L60.1057 273.888C59.999 273.68 59.8777 273.516 59.7417 273.396C59.6084 273.276 59.4337 273.216 59.2177 273.216C58.991 273.216 58.799 273.276 58.6417 273.396C58.4844 273.516 58.3564 273.675 58.2577 273.872C58.1617 274.069 58.0924 274.284 58.0497 274.516C58.007 274.748 57.9857 274.976 57.9857 275.2C57.9857 275.437 58.0097 275.673 58.0577 275.908C58.1084 276.143 58.183 276.356 58.2817 276.548C58.383 276.74 58.511 276.895 58.6657 277.012C58.823 277.127 59.007 277.184 59.2177 277.184C59.4337 277.184 59.6124 277.117 59.7537 276.984C59.895 276.848 60.015 276.675 60.1137 276.464L60.9777 276.792C60.8764 277.04 60.7457 277.263 60.5857 277.46C60.4284 277.655 60.2364 277.808 60.0097 277.92C59.783 278.032 59.519 278.088 59.2177 278.088ZM62.1954 278V272.4H65.7874V273.304H63.1474V274.656H64.8674V275.56H63.1474V277.096H65.9554V278H62.1954ZM73.9108 278.096C73.5348 278.096 73.2121 278.017 72.9428 277.86C72.6761 277.7 72.4574 277.484 72.2868 277.212C72.1161 276.94 71.9908 276.631 71.9108 276.284C71.8308 275.937 71.7908 275.576 71.7908 275.2C71.7908 274.824 71.8308 274.463 71.9108 274.116C71.9908 273.769 72.1161 273.46 72.2868 273.188C72.4574 272.916 72.6761 272.701 72.9428 272.544C73.2121 272.384 73.5348 272.304 73.9108 272.304C74.2868 272.304 74.6094 272.384 74.8788 272.544C75.1481 272.701 75.3681 272.916 75.5388 273.188C75.7094 273.46 75.8348 273.769 75.9148 274.116C75.9974 274.463 76.0388 274.824 76.0388 275.2C76.0388 275.576 75.9974 275.937 75.9148 276.284C75.8348 276.631 75.7094 276.94 75.5388 277.212C75.3681 277.484 75.1481 277.7 74.8788 277.86C74.6094 278.017 74.2868 278.096 73.9108 278.096ZM73.9108 277.192C74.1081 277.192 74.2788 277.136 74.4228 277.024C74.5668 276.912 74.6841 276.761 74.7748 276.572C74.8681 276.383 74.9361 276.169 74.9788 275.932C75.0241 275.695 75.0468 275.451 75.0468 275.2C75.0468 274.933 75.0241 274.681 74.9788 274.444C74.9361 274.204 74.8694 273.992 74.7788 273.808C74.6881 273.621 74.5708 273.475 74.4268 273.368C74.2828 273.261 74.1108 273.208 73.9108 273.208C73.7108 273.208 73.5388 273.264 73.3948 273.376C73.2508 273.485 73.1334 273.635 73.0428 273.824C72.9521 274.013 72.8841 274.227 72.8388 274.464C72.7961 274.701 72.7748 274.947 72.7748 275.2C72.7748 275.464 72.7961 275.716 72.8388 275.956C72.8841 276.193 72.9521 276.405 73.0428 276.592C73.1334 276.779 73.2508 276.925 73.3948 277.032C73.5388 277.139 73.7108 277.192 73.9108 277.192ZM76.9845 278V272.4H78.9205C79.3818 272.4 79.7458 272.48 80.0125 272.64C80.2791 272.8 80.4685 273.009 80.5805 273.268C80.6951 273.527 80.7525 273.803 80.7525 274.096C80.7525 274.304 80.7178 274.507 80.6485 274.704C80.5791 274.899 80.4751 275.076 80.3365 275.236C80.1978 275.393 80.0231 275.523 79.8125 275.624C79.6045 275.725 79.3605 275.787 79.0805 275.808H77.9365V278H76.9845ZM79.6885 278L78.5445 275.696L79.5605 275.592L80.7445 278H79.6885ZM77.9365 274.912H78.9365C79.1498 274.912 79.3178 274.873 79.4405 274.796C79.5631 274.719 79.6498 274.619 79.7005 274.496C79.7511 274.373 79.7765 274.243 79.7765 274.104C79.7765 273.979 79.7525 273.855 79.7045 273.732C79.6565 273.607 79.5711 273.503 79.4485 273.42C79.3285 273.337 79.1578 273.296 78.9365 273.296H77.9365V274.912ZM88.2198 278V273.312H86.5958V272.4H90.8038V273.312H89.1718V278H88.2198ZM92.0935 278L91.2695 272.4H92.1255L92.5655 275.736C92.5709 275.776 92.5802 275.84 92.5935 275.928C92.6069 276.013 92.6162 276.08 92.6215 276.128C92.6295 276.08 92.6415 276.016 92.6575 275.936C92.6762 275.853 92.6909 275.784 92.7015 275.728L93.3735 272.4H93.8855L94.5655 275.712C94.5815 275.787 94.5962 275.856 94.6095 275.92C94.6229 275.981 94.6349 276.043 94.6455 276.104C94.6589 276.027 94.6695 275.96 94.6775 275.904C94.6855 275.845 94.6935 275.784 94.7015 275.72L95.0695 272.4H95.9895L95.1575 278H94.4055L93.6935 274.576C93.6775 274.499 93.6629 274.428 93.6495 274.364C93.6389 274.297 93.6295 274.232 93.6215 274.168C93.6135 274.232 93.6029 274.296 93.5895 274.36C93.5789 274.421 93.5655 274.491 93.5495 274.568L92.8455 278H92.0935ZM98.0792 278V272.4H99.0312V278H98.0792ZM96.9112 278V277.16H100.207V278H96.9112ZM96.9112 273.24V272.4H100.207V273.24H96.9112ZM103.585 278.088C103.18 278.088 102.836 278.005 102.553 277.84C102.27 277.672 102.042 277.449 101.869 277.172C101.696 276.892 101.569 276.581 101.489 276.24C101.409 275.896 101.369 275.549 101.369 275.2C101.369 274.864 101.409 274.527 101.489 274.188C101.572 273.847 101.701 273.535 101.877 273.252C102.053 272.969 102.281 272.743 102.561 272.572C102.844 272.399 103.185 272.312 103.585 272.312C103.9 272.312 104.172 272.369 104.401 272.484C104.633 272.596 104.825 272.741 104.977 272.92C105.129 273.099 105.244 273.285 105.321 273.48L104.473 273.888C104.366 273.68 104.245 273.516 104.109 273.396C103.976 273.276 103.801 273.216 103.585 273.216C103.358 273.216 103.166 273.276 103.009 273.396C102.852 273.516 102.724 273.675 102.625 273.872C102.529 274.069 102.46 274.284 102.417 274.516C102.374 274.748 102.353 274.976 102.353 275.2C102.353 275.437 102.377 275.673 102.425 275.908C102.476 276.143 102.55 276.356 102.649 276.548C102.75 276.74 102.878 276.895 103.033 277.012C103.19 277.127 103.374 277.184 103.585 277.184C103.801 277.184 103.98 277.117 104.121 276.984C104.262 276.848 104.382 276.675 104.481 276.464L105.345 276.792C105.244 277.04 105.113 277.263 104.953 277.46C104.796 277.655 104.604 277.808 104.377 277.92C104.15 278.032 103.886 278.088 103.585 278.088ZM106.563 278V272.4H110.155V273.304H107.515V274.656H109.235V275.56H107.515V277.096H110.323V278H106.563ZM115.998 278L117.83 272.4H118.726L120.558 278H119.534L118.414 274.24C118.401 274.197 118.385 274.14 118.366 274.068C118.35 273.996 118.334 273.92 118.318 273.84C118.302 273.76 118.289 273.685 118.278 273.616C118.265 273.685 118.25 273.76 118.234 273.84C118.218 273.92 118.202 273.996 118.186 274.068C118.17 274.14 118.155 274.197 118.142 274.24L117.022 278H115.998ZM117.182 276.768L117.438 275.904H119.118L119.374 276.768H117.182ZM74.8396 288L74.0156 282.4H74.8716L75.3116 285.736C75.317 285.776 75.3263 285.84 75.3396 285.928C75.353 286.013 75.3623 286.08 75.3676 286.128C75.3756 286.08 75.3876 286.016 75.4036 285.936C75.4223 285.853 75.437 285.784 75.4476 285.728L76.1196 282.4H76.6316L77.3116 285.712C77.3276 285.787 77.3423 285.856 77.3556 285.92C77.369 285.981 77.381 286.043 77.3916 286.104C77.405 286.027 77.4156 285.96 77.4236 285.904C77.4316 285.845 77.4396 285.784 77.4476 285.72L77.8156 282.4H78.7356L77.9036 288H77.1516L76.4396 284.576C76.4236 284.499 76.409 284.428 76.3956 284.364C76.385 284.297 76.3756 284.232 76.3676 284.168C76.3596 284.232 76.349 284.296 76.3356 284.36C76.325 284.421 76.3116 284.491 76.2956 284.568L75.5916 288H74.8396ZM79.4493 288V282.4H83.0413V283.304H80.4013V284.656H82.1213V285.56H80.4013V287.096H83.2093V288H79.4493ZM84.379 288V282.4H87.971V283.304H85.331V284.656H87.051V285.56H85.331V287.096H88.139V288H84.379ZM90.1807 285.944V284.616L91.9247 282.4H93.0367L90.1807 285.944ZM89.3087 288V282.4H90.2607V288H89.3087ZM92.2847 288L90.7247 285.08L91.3647 284.28L93.3967 288H92.2847Z" fill="white"/>
<path d="M55.271 306.5V305H58.271V299H56.771V297.5H58.271V296H61.271V305H64.271V306.5H55.271ZM67.271 306.5V305H65.771V303.5H68.771V305H73.271V302H68.771V300.5H70.271V299H71.771V297.5H67.271V296H76.271V297.5H74.771V299H73.271V300.5H74.771V302H76.271V305H74.771V306.5H67.271ZM79.271 308V306.5H80.771V303.5H83.771V306.5H82.271V308H79.271ZM91.271 306.5V305H89.771V302H91.271V300.5H89.771V297.5H91.271V296H97.271V297.5H98.771V300.5H97.271V302H100.271V305H98.771V306.5H91.271ZM94.271 300.5H97.271V297.5H92.771V299H94.271V300.5ZM91.271 305H97.271V303.5H94.271V302H91.271V305ZM104.771 297.5H103.271V296H106.271V299H104.771V297.5ZM112.271 296V297.5H110.771V296H112.271ZM104.771 300.5H101.771V297.5H103.271V299H104.771V300.5ZM109.271 297.5H110.771V299H109.271V297.5ZM107.771 299H109.271V300.5H107.771V299ZM106.271 300.5H107.771V302H106.271V300.5ZM104.771 302H106.271V303.5H104.771V302ZM109.271 302H112.271V305H110.771V303.5H109.271V302ZM103.271 303.5H104.771V305H103.271V303.5ZM109.271 305H110.771V306.5H107.771V303.5H109.271V305ZM101.771 305H103.271V306.5H101.771V305Z" fill="white"/>
<rect width="98.431" height="133" transform="translate(0 352)" fill="#FFB0D1"/>
<path d="M27.6397 406.5V400.9H28.5917V405.588H31.1757V406.5H27.6397ZM32.5694 406.5V400.9H36.1614V401.804H33.5214V403.156H35.2414V404.06H33.5214V405.596H36.3294V406.5H32.5694ZM39.4191 406.596C39.1151 406.596 38.8298 406.537 38.5631 406.42C38.2991 406.3 38.0684 406.132 37.8711 405.916C37.6738 405.7 37.5258 405.447 37.4271 405.156L38.2911 404.836C38.4111 405.092 38.5791 405.3 38.7951 405.46C39.0138 405.62 39.2484 405.7 39.4991 405.7C39.7391 405.7 39.9351 405.639 40.0871 405.516C40.2391 405.393 40.3151 405.215 40.3151 404.98C40.3151 404.828 40.2618 404.693 40.1551 404.576C40.0484 404.456 39.9071 404.347 39.7311 404.248C39.5578 404.149 39.3684 404.055 39.1631 403.964C38.9844 403.887 38.8044 403.8 38.6231 403.704C38.4444 403.608 38.2791 403.495 38.1271 403.364C37.9778 403.233 37.8564 403.08 37.7631 402.904C37.6724 402.728 37.6271 402.521 37.6271 402.284C37.6271 402.015 37.6978 401.768 37.8391 401.544C37.9804 401.32 38.1804 401.141 38.4391 401.008C38.6978 400.872 39.0031 400.804 39.3551 400.804C39.7764 400.804 40.1378 400.917 40.4391 401.144C40.7431 401.371 40.9444 401.655 41.0431 401.996L40.1871 402.284C40.1071 402.119 39.9924 401.98 39.8431 401.868C39.6938 401.756 39.5124 401.7 39.2991 401.7C39.0991 401.7 38.9298 401.751 38.7911 401.852C38.6551 401.953 38.5871 402.092 38.5871 402.268C38.5871 402.391 38.6258 402.497 38.7031 402.588C38.7831 402.679 38.8991 402.767 39.0511 402.852C39.2058 402.937 39.3951 403.033 39.6191 403.14C39.8004 403.225 39.9871 403.321 40.1791 403.428C40.3711 403.532 40.5498 403.653 40.7151 403.792C40.8831 403.931 41.0178 404.093 41.1191 404.28C41.2231 404.467 41.2751 404.684 41.2751 404.932C41.2751 405.287 41.1884 405.588 41.0151 405.836C40.8444 406.084 40.6178 406.273 40.3351 406.404C40.0551 406.532 39.7498 406.596 39.4191 406.596ZM44.3488 406.596C44.0448 406.596 43.7595 406.537 43.4928 406.42C43.2288 406.3 42.9981 406.132 42.8008 405.916C42.6035 405.7 42.4555 405.447 42.3568 405.156L43.2208 404.836C43.3408 405.092 43.5088 405.3 43.7248 405.46C43.9435 405.62 44.1781 405.7 44.4288 405.7C44.6688 405.7 44.8648 405.639 45.0168 405.516C45.1688 405.393 45.2448 405.215 45.2448 404.98C45.2448 404.828 45.1915 404.693 45.0848 404.576C44.9781 404.456 44.8368 404.347 44.6608 404.248C44.4875 404.149 44.2981 404.055 44.0928 403.964C43.9141 403.887 43.7341 403.8 43.5528 403.704C43.3741 403.608 43.2088 403.495 43.0568 403.364C42.9075 403.233 42.7861 403.08 42.6928 402.904C42.6021 402.728 42.5568 402.521 42.5568 402.284C42.5568 402.015 42.6275 401.768 42.7688 401.544C42.9101 401.32 43.1101 401.141 43.3688 401.008C43.6275 400.872 43.9328 400.804 44.2848 400.804C44.7061 400.804 45.0675 400.917 45.3688 401.144C45.6728 401.371 45.8741 401.655 45.9728 401.996L45.1168 402.284C45.0368 402.119 44.9221 401.98 44.7728 401.868C44.6235 401.756 44.4421 401.7 44.2288 401.7C44.0288 401.7 43.8595 401.751 43.7208 401.852C43.5848 401.953 43.5168 402.092 43.5168 402.268C43.5168 402.391 43.5555 402.497 43.6328 402.588C43.7128 402.679 43.8288 402.767 43.9808 402.852C44.1355 402.937 44.3248 403.033 44.5488 403.14C44.7301 403.225 44.9168 403.321 45.1088 403.428C45.3008 403.532 45.4795 403.653 45.6448 403.792C45.8128 403.931 45.9475 404.093 46.0488 404.28C46.1528 404.467 46.2048 404.684 46.2048 404.932C46.2048 405.287 46.1181 405.588 45.9448 405.836C45.7741 406.084 45.5475 406.273 45.2648 406.404C44.9848 406.532 44.6795 406.596 44.3488 406.596ZM53.6642 406.5V401.812H52.0402V400.9H56.2482V401.812H54.6162V406.5H53.6642ZM57.2179 406.5V400.9H58.1699V403.164H59.9779V400.9H60.9299V406.5H59.9779V404.06H58.1699V406.5H57.2179ZM61.7236 406.5L63.5556 400.9H64.4516L66.2836 406.5H65.2596L64.1396 402.74C64.1262 402.697 64.1102 402.64 64.0916 402.568C64.0756 402.496 64.0596 402.42 64.0436 402.34C64.0276 402.26 64.0142 402.185 64.0036 402.116C63.9902 402.185 63.9756 402.26 63.9596 402.34C63.9436 402.42 63.9276 402.496 63.9116 402.568C63.8956 402.64 63.8809 402.697 63.8676 402.74L62.7476 406.5H61.7236ZM62.9076 405.268L63.1636 404.404H64.8436L65.0996 405.268H62.9076ZM67.0772 406.5V400.9H67.9812L69.7252 404.356C69.7492 404.399 69.7826 404.46 69.8252 404.54C69.8679 404.62 69.9012 404.687 69.9252 404.74C69.9226 404.671 69.9186 404.601 69.9132 404.532C69.9106 404.463 69.9092 404.404 69.9092 404.356V400.9H70.7892V406.5H69.9252L68.1492 403.028C68.1252 402.983 68.0919 402.92 68.0492 402.84C68.0066 402.76 67.9706 402.695 67.9412 402.644C67.9546 402.703 67.9612 402.768 67.9612 402.84C67.9639 402.912 67.9652 402.975 67.9652 403.028V406.5H67.0772ZM24.5661 416.596C24.1901 416.596 23.8674 416.517 23.5981 416.36C23.3314 416.2 23.1127 415.984 22.9421 415.712C22.7714 415.44 22.6461 415.131 22.5661 414.784C22.4861 414.437 22.4461 414.076 22.4461 413.7C22.4461 413.324 22.4861 412.963 22.5661 412.616C22.6461 412.269 22.7714 411.96 22.9421 411.688C23.1127 411.416 23.3314 411.201 23.5981 411.044C23.8674 410.884 24.1901 410.804 24.5661 410.804C24.9421 410.804 25.2647 410.884 25.5341 411.044C25.8034 411.201 26.0234 411.416 26.1941 411.688C26.3647 411.96 26.4901 412.269 26.5701 412.616C26.6527 412.963 26.6941 413.324 26.6941 413.7C26.6941 414.076 26.6527 414.437 26.5701 414.784C26.4901 415.131 26.3647 415.44 26.1941 415.712C26.0234 415.984 25.8034 416.2 25.5341 416.36C25.2647 416.517 24.9421 416.596 24.5661 416.596ZM24.5661 415.692C24.7634 415.692 24.9341 415.636 25.0781 415.524C25.2221 415.412 25.3394 415.261 25.4301 415.072C25.5234 414.883 25.5914 414.669 25.6341 414.432C25.6794 414.195 25.7021 413.951 25.7021 413.7C25.7021 413.433 25.6794 413.181 25.6341 412.944C25.5914 412.704 25.5247 412.492 25.4341 412.308C25.3434 412.121 25.2261 411.975 25.0821 411.868C24.9381 411.761 24.7661 411.708 24.5661 411.708C24.3661 411.708 24.1941 411.764 24.0501 411.876C23.9061 411.985 23.7887 412.135 23.6981 412.324C23.6074 412.513 23.5394 412.727 23.4941 412.964C23.4514 413.201 23.4301 413.447 23.4301 413.7C23.4301 413.964 23.4514 414.216 23.4941 414.456C23.5394 414.693 23.6074 414.905 23.6981 415.092C23.7887 415.279 23.9061 415.425 24.0501 415.532C24.1941 415.639 24.3661 415.692 24.5661 415.692ZM27.6397 416.5V410.9H28.5437L30.2877 414.356C30.3117 414.399 30.3451 414.46 30.3877 414.54C30.4304 414.62 30.4637 414.687 30.4877 414.74C30.4851 414.671 30.4811 414.601 30.4757 414.532C30.4731 414.463 30.4717 414.404 30.4717 414.356V410.9H31.3517V416.5H30.4877L28.7117 413.028C28.6877 412.983 28.6544 412.92 28.6117 412.84C28.5691 412.76 28.5331 412.695 28.5037 412.644C28.5171 412.703 28.5237 412.768 28.5237 412.84C28.5264 412.912 28.5277 412.975 28.5277 413.028V416.5H27.6397ZM34.5214 416.588C34.1161 416.588 33.7721 416.505 33.4894 416.34C33.2068 416.172 32.9788 415.949 32.8054 415.672C32.6321 415.392 32.5054 415.081 32.4254 414.74C32.3454 414.396 32.3054 414.049 32.3054 413.7C32.3054 413.364 32.3454 413.027 32.4254 412.688C32.5081 412.347 32.6374 412.035 32.8134 411.752C32.9894 411.469 33.2174 411.243 33.4974 411.072C33.7801 410.899 34.1214 410.812 34.5214 410.812C34.8361 410.812 35.1081 410.869 35.3374 410.984C35.5694 411.096 35.7614 411.241 35.9134 411.42C36.0654 411.599 36.1801 411.785 36.2574 411.98L35.4094 412.388C35.3028 412.18 35.1814 412.016 35.0454 411.896C34.9121 411.776 34.7374 411.716 34.5214 411.716C34.2948 411.716 34.1028 411.776 33.9454 411.896C33.7881 412.016 33.6601 412.175 33.5614 412.372C33.4654 412.569 33.3961 412.784 33.3534 413.016C33.3108 413.248 33.2894 413.476 33.2894 413.7C33.2894 413.937 33.3134 414.173 33.3614 414.408C33.4121 414.643 33.4868 414.856 33.5854 415.048C33.6868 415.24 33.8148 415.395 33.9694 415.512C34.1268 415.627 34.3108 415.684 34.5214 415.684C34.7374 415.684 34.9161 415.617 35.0574 415.484C35.1988 415.348 35.3188 415.175 35.4174 414.964L36.2814 415.292C36.1801 415.54 36.0494 415.763 35.8894 415.96C35.7321 416.155 35.5401 416.308 35.3134 416.42C35.0868 416.532 34.8228 416.588 34.5214 416.588ZM37.4991 416.5V410.9H41.0911V411.804H38.4511V413.156H40.1711V414.06H38.4511V415.596H41.2591V416.5H37.4991ZM46.9345 416.5L48.7665 410.9H49.6625L51.4945 416.5H50.4705L49.3505 412.74C49.3372 412.697 49.3212 412.64 49.3025 412.568C49.2865 412.496 49.2705 412.42 49.2545 412.34C49.2385 412.26 49.2252 412.185 49.2145 412.116C49.2012 412.185 49.1865 412.26 49.1705 412.34C49.1545 412.42 49.1385 412.496 49.1225 412.568C49.1065 412.64 49.0918 412.697 49.0785 412.74L47.9585 416.5H46.9345ZM48.1185 415.268L48.3745 414.404H50.0545L50.3105 415.268H48.1185ZM57.5379 416.5L56.7139 410.9H57.5699L58.0099 414.236C58.0152 414.276 58.0245 414.34 58.0379 414.428C58.0512 414.513 58.0605 414.58 58.0659 414.628C58.0739 414.58 58.0859 414.516 58.1019 414.436C58.1205 414.353 58.1352 414.284 58.1459 414.228L58.8179 410.9H59.3299L60.0099 414.212C60.0259 414.287 60.0405 414.356 60.0539 414.42C60.0672 414.481 60.0792 414.543 60.0899 414.604C60.1032 414.527 60.1139 414.46 60.1219 414.404C60.1299 414.345 60.1379 414.284 60.1459 414.22L60.5139 410.9H61.4339L60.6019 416.5H59.8499L59.1379 413.076C59.1219 412.999 59.1072 412.928 59.0939 412.864C59.0832 412.797 59.0739 412.732 59.0659 412.668C59.0579 412.732 59.0472 412.796 59.0339 412.86C59.0232 412.921 59.0099 412.991 58.9939 413.068L58.2899 416.5H57.5379ZM62.1476 416.5V410.9H65.7396V411.804H63.0996V413.156H64.8196V414.06H63.0996V415.596H65.9076V416.5H62.1476ZM67.0772 416.5V410.9H70.6692V411.804H68.0292V413.156H69.7492V414.06H68.0292V415.596H70.8372V416.5H67.0772ZM72.8789 414.444V413.116L74.6229 410.9H75.7349L72.8789 414.444ZM72.0069 416.5V410.9H72.9589V416.5H72.0069ZM74.9829 416.5L73.4229 413.58L74.0629 412.78L76.0949 416.5H74.9829Z" fill="#CB0155"/>
<path d="M26.7153 435V433.5H25.2153V430.5H26.7153V429H25.2153V426H26.7153V424.5H32.7153V426H34.2153V429H32.7153V430.5H35.7153V433.5H34.2153V435H26.7153ZM29.7153 429H32.7153V426H28.2153V427.5H29.7153V429ZM26.7153 433.5H32.7153V432H29.7153V430.5H26.7153V433.5ZM38.7153 436.5V435H40.2153V432H43.2153V435H41.7153V436.5H38.7153ZM50.7153 435V433.5H49.2153V427.5H50.7153V426H52.2153V424.5H58.2153V426H53.7153V427.5H52.2153V429H58.2153V430.5H59.7153V433.5H58.2153V435H50.7153ZM52.2153 433.5H56.7153V430.5H52.2153V433.5ZM64.2153 426H62.7153V424.5H65.7153V427.5H64.2153V426ZM71.7153 424.5V426H70.2153V424.5H71.7153ZM64.2153 429H61.2153V426H62.7153V427.5H64.2153V429ZM68.7153 426H70.2153V427.5H68.7153V426ZM67.2153 427.5H68.7153V429H67.2153V427.5ZM65.7153 429H67.2153V430.5H65.7153V429ZM64.2153 430.5H65.7153V432H64.2153V430.5ZM68.7153 430.5H71.7153V433.5H70.2153V432H68.7153V430.5ZM62.7153 432H64.2153V433.5H62.7153V432ZM68.7153 433.5H70.2153V435H67.2153V432H68.7153V433.5ZM61.2153 433.5H62.7153V435H61.2153V433.5Z" fill="#CB0155"/>
<rect width="69.1111" height="133" transform="translate(98.4312 352)" fill="#FFD9E9"/>
<path d="M110.802 406.596C110.466 406.596 110.154 406.525 109.866 406.384C109.581 406.243 109.35 406.009 109.174 405.684C109.001 405.359 108.914 404.919 108.914 404.364V400.9H109.858V404.364C109.858 404.708 109.898 404.976 109.978 405.168C110.061 405.36 110.173 405.496 110.314 405.576C110.458 405.653 110.621 405.692 110.802 405.692C110.981 405.692 111.141 405.653 111.282 405.576C111.426 405.496 111.539 405.36 111.622 405.168C111.705 404.976 111.746 404.708 111.746 404.364V400.9H112.698V404.364C112.698 404.911 112.611 405.348 112.438 405.676C112.265 406.001 112.034 406.236 111.746 406.38C111.458 406.524 111.143 406.596 110.802 406.596ZM113.876 406.5V400.9H115.852C116.316 400.9 116.684 400.985 116.956 401.156C117.23 401.327 117.426 401.545 117.544 401.812C117.664 402.076 117.724 402.351 117.724 402.636C117.724 402.836 117.689 403.039 117.62 403.244C117.55 403.447 117.441 403.633 117.292 403.804C117.142 403.975 116.949 404.112 116.712 404.216C116.474 404.32 116.188 404.372 115.852 404.372H114.828V406.5H113.876ZM114.828 403.476H115.9C116.108 403.476 116.274 403.435 116.4 403.352C116.525 403.267 116.616 403.16 116.672 403.032C116.728 402.901 116.756 402.769 116.756 402.636C116.756 402.516 116.73 402.392 116.68 402.264C116.629 402.133 116.541 402.023 116.416 401.932C116.293 401.841 116.121 401.796 115.9 401.796H114.828V403.476ZM125.111 406.5V401.812H123.487V400.9H127.695V401.812H126.063V406.5H125.111ZM130.521 406.596C130.145 406.596 129.822 406.517 129.553 406.36C129.286 406.2 129.068 405.984 128.897 405.712C128.726 405.44 128.601 405.131 128.521 404.784C128.441 404.437 128.401 404.076 128.401 403.7C128.401 403.324 128.441 402.963 128.521 402.616C128.601 402.269 128.726 401.96 128.897 401.688C129.068 401.416 129.286 401.201 129.553 401.044C129.822 400.884 130.145 400.804 130.521 400.804C130.897 400.804 131.22 400.884 131.489 401.044C131.758 401.201 131.978 401.416 132.149 401.688C132.32 401.96 132.445 402.269 132.525 402.616C132.608 402.963 132.649 403.324 132.649 403.7C132.649 404.076 132.608 404.437 132.525 404.784C132.445 405.131 132.32 405.44 132.149 405.712C131.978 405.984 131.758 406.2 131.489 406.36C131.22 406.517 130.897 406.596 130.521 406.596ZM130.521 405.692C130.718 405.692 130.889 405.636 131.033 405.524C131.177 405.412 131.294 405.261 131.385 405.072C131.478 404.883 131.546 404.669 131.589 404.432C131.634 404.195 131.657 403.951 131.657 403.7C131.657 403.433 131.634 403.181 131.589 402.944C131.546 402.704 131.48 402.492 131.389 402.308C131.298 402.121 131.181 401.975 131.037 401.868C130.893 401.761 130.721 401.708 130.521 401.708C130.321 401.708 130.149 401.764 130.005 401.876C129.861 401.985 129.744 402.135 129.653 402.324C129.562 402.513 129.494 402.727 129.449 402.964C129.406 403.201 129.385 403.447 129.385 403.7C129.385 403.964 129.406 404.216 129.449 404.456C129.494 404.693 129.562 404.905 129.653 405.092C129.744 405.279 129.861 405.425 130.005 405.532C130.149 405.639 130.321 405.692 130.521 405.692ZM140.38 406.596C140.004 406.596 139.682 406.517 139.412 406.36C139.146 406.2 138.927 405.984 138.756 405.712C138.586 405.44 138.46 405.131 138.38 404.784C138.3 404.437 138.26 404.076 138.26 403.7C138.26 403.324 138.3 402.963 138.38 402.616C138.46 402.269 138.586 401.96 138.756 401.688C138.927 401.416 139.146 401.201 139.412 401.044C139.682 400.884 140.004 400.804 140.38 400.804C140.756 400.804 141.079 400.884 141.348 401.044C141.618 401.201 141.838 401.416 142.008 401.688C142.179 401.96 142.304 402.269 142.384 402.616C142.467 402.963 142.508 403.324 142.508 403.7C142.508 404.076 142.467 404.437 142.384 404.784C142.304 405.131 142.179 405.44 142.008 405.712C141.838 405.984 141.618 406.2 141.348 406.36C141.079 406.517 140.756 406.596 140.38 406.596ZM140.38 405.692C140.578 405.692 140.748 405.636 140.892 405.524C141.036 405.412 141.154 405.261 141.244 405.072C141.338 404.883 141.406 404.669 141.448 404.432C141.494 404.195 141.516 403.951 141.516 403.7C141.516 403.433 141.494 403.181 141.448 402.944C141.406 402.704 141.339 402.492 141.248 402.308C141.158 402.121 141.04 401.975 140.896 401.868C140.752 401.761 140.58 401.708 140.38 401.708C140.18 401.708 140.008 401.764 139.864 401.876C139.72 401.985 139.603 402.135 139.512 402.324C139.422 402.513 139.354 402.727 139.308 402.964C139.266 403.201 139.244 403.447 139.244 403.7C139.244 403.964 139.266 404.216 139.308 404.456C139.354 404.693 139.422 404.905 139.512 405.092C139.603 405.279 139.72 405.425 139.864 405.532C140.008 405.639 140.18 405.692 140.38 405.692ZM143.454 406.5V400.9H144.358L146.102 404.356C146.126 404.399 146.159 404.46 146.202 404.54C146.245 404.62 146.278 404.687 146.302 404.74C146.299 404.671 146.295 404.601 146.29 404.532C146.287 404.463 146.286 404.404 146.286 404.356V400.9H147.166V406.5H146.302L144.526 403.028C144.502 402.983 144.469 402.92 144.426 402.84C144.383 402.76 144.347 402.695 144.318 402.644C144.331 402.703 144.338 402.768 144.338 402.84C144.341 402.912 144.342 402.975 144.342 403.028V406.5H143.454ZM150.336 406.588C149.93 406.588 149.586 406.505 149.304 406.34C149.021 406.172 148.793 405.949 148.62 405.672C148.446 405.392 148.32 405.081 148.24 404.74C148.16 404.396 148.12 404.049 148.12 403.7C148.12 403.364 148.16 403.027 148.24 402.688C148.322 402.347 148.452 402.035 148.628 401.752C148.804 401.469 149.032 401.243 149.312 401.072C149.594 400.899 149.936 400.812 150.336 400.812C150.65 400.812 150.922 400.869 151.152 400.984C151.384 401.096 151.576 401.241 151.728 401.42C151.88 401.599 151.994 401.785 152.072 401.98L151.224 402.388C151.117 402.18 150.996 402.016 150.86 401.896C150.726 401.776 150.552 401.716 150.336 401.716C150.109 401.716 149.917 401.776 149.76 401.896C149.602 402.016 149.474 402.175 149.376 402.372C149.28 402.569 149.21 402.784 149.168 403.016C149.125 403.248 149.104 403.476 149.104 403.7C149.104 403.937 149.128 404.173 149.176 404.408C149.226 404.643 149.301 404.856 149.4 405.048C149.501 405.24 149.629 405.395 149.784 405.512C149.941 405.627 150.125 405.684 150.336 405.684C150.552 405.684 150.73 405.617 150.872 405.484C151.013 405.348 151.133 405.175 151.232 404.964L152.096 405.292C151.994 405.54 151.864 405.763 151.704 405.96C151.546 406.155 151.354 406.308 151.128 406.42C150.901 406.532 150.637 406.588 150.336 406.588ZM153.313 406.5V400.9H156.905V401.804H154.265V403.156H155.985V404.06H154.265V405.596H157.073V406.5H153.313ZM115.917 416.5L117.749 410.9H118.645L120.477 416.5H119.453L118.333 412.74C118.319 412.697 118.303 412.64 118.285 412.568C118.269 412.496 118.253 412.42 118.237 412.34C118.221 412.26 118.207 412.185 118.197 412.116C118.183 412.185 118.169 412.26 118.153 412.34C118.137 412.42 118.121 412.496 118.105 412.568C118.089 412.64 118.074 412.697 118.061 412.74L116.941 416.5H115.917ZM117.101 415.268L117.357 414.404H119.037L119.293 415.268H117.101ZM126.2 416.5V410.9H127.128L127.936 413.972C127.957 414.052 127.983 414.147 128.012 414.256C128.041 414.363 128.061 414.452 128.072 414.524C128.085 414.452 128.105 414.363 128.132 414.256C128.161 414.147 128.187 414.052 128.208 413.972L129.04 410.9H129.912V416.5H129.088V413.46C129.088 413.399 129.088 413.32 129.088 413.224C129.091 413.128 129.096 413.052 129.104 412.996C129.08 413.063 129.053 413.137 129.024 413.22C128.997 413.303 128.973 413.383 128.952 413.46L128.096 416.5H128.016L127.16 413.46C127.139 413.383 127.113 413.303 127.084 413.22C127.057 413.135 127.032 413.06 127.008 412.996C127.013 413.052 127.017 413.128 127.02 413.224C127.023 413.32 127.024 413.399 127.024 413.46V416.5H126.2ZM132.986 416.596C132.61 416.596 132.287 416.517 132.018 416.36C131.751 416.2 131.532 415.984 131.362 415.712C131.191 415.44 131.066 415.131 130.986 414.784C130.906 414.437 130.866 414.076 130.866 413.7C130.866 413.324 130.906 412.963 130.986 412.616C131.066 412.269 131.191 411.96 131.362 411.688C131.532 411.416 131.751 411.201 132.018 411.044C132.287 410.884 132.61 410.804 132.986 410.804C133.362 410.804 133.684 410.884 133.954 411.044C134.223 411.201 134.443 411.416 134.614 411.688C134.784 411.96 134.91 412.269 134.99 412.616C135.072 412.963 135.114 413.324 135.114 413.7C135.114 414.076 135.072 414.437 134.99 414.784C134.91 415.131 134.784 415.44 134.614 415.712C134.443 415.984 134.223 416.2 133.954 416.36C133.684 416.517 133.362 416.596 132.986 416.596ZM132.986 415.692C133.183 415.692 133.354 415.636 133.498 415.524C133.642 415.412 133.759 415.261 133.85 415.072C133.943 414.883 134.011 414.669 134.054 414.432C134.099 414.195 134.122 413.951 134.122 413.7C134.122 413.433 134.099 413.181 134.054 412.944C134.011 412.704 133.944 412.492 133.854 412.308C133.763 412.121 133.646 411.975 133.502 411.868C133.358 411.761 133.186 411.708 132.986 411.708C132.786 411.708 132.614 411.764 132.47 411.876C132.326 411.985 132.208 412.135 132.118 412.324C132.027 412.513 131.959 412.727 131.914 412.964C131.871 413.201 131.85 413.447 131.85 413.7C131.85 413.964 131.871 414.216 131.914 414.456C131.959 414.693 132.027 414.905 132.118 415.092C132.208 415.279 132.326 415.425 132.47 415.532C132.614 415.639 132.786 415.692 132.986 415.692ZM136.059 416.5V410.9H136.963L138.707 414.356C138.731 414.399 138.765 414.46 138.807 414.54C138.85 414.62 138.883 414.687 138.907 414.74C138.905 414.671 138.901 414.601 138.895 414.532C138.893 414.463 138.891 414.404 138.891 414.356V410.9H139.771V416.5H138.907L137.131 413.028C137.107 412.983 137.074 412.92 137.031 412.84C136.989 412.76 136.953 412.695 136.923 412.644C136.937 412.703 136.943 412.768 136.943 412.84C136.946 412.912 136.947 412.975 136.947 413.028V416.5H136.059ZM142.365 416.5V411.812H140.741V410.9H144.949V411.812H143.317V416.5H142.365ZM145.919 416.5V410.9H146.871V413.164H148.679V410.9H149.631V416.5H148.679V414.06H146.871V416.5H145.919Z" fill="#CB0155"/>
<path d="M110.487 435V433.5H108.987V427.5H110.487V426H111.987V424.5H117.987V426H113.487V427.5H111.987V429H117.987V430.5H119.487V433.5H117.987V435H110.487ZM111.987 433.5H116.487V430.5H111.987V433.5ZM122.487 436.5V435H123.987V432H126.987V435H125.487V436.5H122.487ZM134.487 435V433.5H137.487V427.5H135.987V426H137.487V424.5H140.487V433.5H143.487V435H134.487ZM147.987 426H146.487V424.5H149.487V427.5H147.987V426ZM155.487 424.5V426H153.987V424.5H155.487ZM147.987 429H144.987V426H146.487V427.5H147.987V429ZM152.487 426H153.987V427.5H152.487V426ZM150.987 427.5H152.487V429H150.987V427.5ZM149.487 429H150.987V430.5H149.487V429ZM147.987 430.5H149.487V432H147.987V430.5ZM152.487 430.5H155.487V433.5H153.987V432H152.487V430.5ZM146.487 432H147.987V433.5H146.487V432ZM152.487 433.5H153.987V435H150.987V432H152.487V433.5ZM144.987 433.5H146.487V435H144.987V433.5Z" fill="#CB0155"/>
<rect width="143.458" height="90" transform="translate(167.542 228)" fill="#FFE6F0"/>
<path d="M205.371 261V255.4H206.323V260.088H208.907V261H205.371ZM210.301 261V255.4H213.893V256.304H211.253V257.656H212.973V258.56H211.253V260.096H214.061V261H210.301ZM217.151 261.096C216.847 261.096 216.561 261.037 216.295 260.92C216.031 260.8 215.8 260.632 215.603 260.416C215.405 260.2 215.257 259.947 215.159 259.656L216.023 259.336C216.143 259.592 216.311 259.8 216.527 259.96C216.745 260.12 216.98 260.2 217.231 260.2C217.471 260.2 217.667 260.139 217.819 260.016C217.971 259.893 218.047 259.715 218.047 259.48C218.047 259.328 217.993 259.193 217.887 259.076C217.78 258.956 217.639 258.847 217.463 258.748C217.289 258.649 217.1 258.555 216.895 258.464C216.716 258.387 216.536 258.3 216.355 258.204C216.176 258.108 216.011 257.995 215.859 257.864C215.709 257.733 215.588 257.58 215.495 257.404C215.404 257.228 215.359 257.021 215.359 256.784C215.359 256.515 215.429 256.268 215.571 256.044C215.712 255.82 215.912 255.641 216.171 255.508C216.429 255.372 216.735 255.304 217.087 255.304C217.508 255.304 217.869 255.417 218.171 255.644C218.475 255.871 218.676 256.155 218.775 256.496L217.919 256.784C217.839 256.619 217.724 256.48 217.575 256.368C217.425 256.256 217.244 256.2 217.031 256.2C216.831 256.2 216.661 256.251 216.523 256.352C216.387 256.453 216.319 256.592 216.319 256.768C216.319 256.891 216.357 256.997 216.435 257.088C216.515 257.179 216.631 257.267 216.783 257.352C216.937 257.437 217.127 257.533 217.351 257.64C217.532 257.725 217.719 257.821 217.911 257.928C218.103 258.032 218.281 258.153 218.447 258.292C218.615 258.431 218.749 258.593 218.851 258.78C218.955 258.967 219.007 259.184 219.007 259.432C219.007 259.787 218.92 260.088 218.747 260.336C218.576 260.584 218.349 260.773 218.067 260.904C217.787 261.032 217.481 261.096 217.151 261.096ZM222.08 261.096C221.776 261.096 221.491 261.037 221.224 260.92C220.96 260.8 220.73 260.632 220.532 260.416C220.335 260.2 220.187 259.947 220.088 259.656L220.952 259.336C221.072 259.592 221.24 259.8 221.456 259.96C221.675 260.12 221.91 260.2 222.16 260.2C222.4 260.2 222.596 260.139 222.748 260.016C222.9 259.893 222.976 259.715 222.976 259.48C222.976 259.328 222.923 259.193 222.816 259.076C222.71 258.956 222.568 258.847 222.392 258.748C222.219 258.649 222.03 258.555 221.824 258.464C221.646 258.387 221.466 258.3 221.284 258.204C221.106 258.108 220.94 257.995 220.788 257.864C220.639 257.733 220.518 257.58 220.424 257.404C220.334 257.228 220.288 257.021 220.288 256.784C220.288 256.515 220.359 256.268 220.5 256.044C220.642 255.82 220.842 255.641 221.1 255.508C221.359 255.372 221.664 255.304 222.016 255.304C222.438 255.304 222.799 255.417 223.1 255.644C223.404 255.871 223.606 256.155 223.704 256.496L222.848 256.784C222.768 256.619 222.654 256.48 222.504 256.368C222.355 256.256 222.174 256.2 221.96 256.2C221.76 256.2 221.591 256.251 221.452 256.352C221.316 256.453 221.248 256.592 221.248 256.768C221.248 256.891 221.287 256.997 221.364 257.088C221.444 257.179 221.56 257.267 221.712 257.352C221.867 257.437 222.056 257.533 222.28 257.64C222.462 257.725 222.648 257.821 222.84 257.928C223.032 258.032 223.211 258.153 223.376 258.292C223.544 258.431 223.679 258.593 223.78 258.78C223.884 258.967 223.936 259.184 223.936 259.432C223.936 259.787 223.85 260.088 223.676 260.336C223.506 260.584 223.279 260.773 222.996 260.904C222.716 261.032 222.411 261.096 222.08 261.096ZM231.396 261V256.312H229.772V255.4H233.98V256.312H232.348V261H231.396ZM234.949 261V255.4H235.901V257.664H237.709V255.4H238.661V261H237.709V258.56H235.901V261H234.949ZM239.455 261L241.287 255.4H242.183L244.015 261H242.991L241.871 257.24C241.858 257.197 241.842 257.14 241.823 257.068C241.807 256.996 241.791 256.92 241.775 256.84C241.759 256.76 241.746 256.685 241.735 256.616C241.722 256.685 241.707 256.76 241.691 256.84C241.675 256.92 241.659 256.996 241.643 257.068C241.627 257.14 241.612 257.197 241.599 257.24L240.479 261H239.455ZM240.639 259.768L240.895 258.904H242.575L242.831 259.768H240.639ZM244.809 261V255.4H245.713L247.457 258.856C247.481 258.899 247.514 258.96 247.557 259.04C247.599 259.12 247.633 259.187 247.657 259.24C247.654 259.171 247.65 259.101 247.645 259.032C247.642 258.963 247.641 258.904 247.641 258.856V255.4H248.521V261H247.657L245.881 257.528C245.857 257.483 245.823 257.42 245.781 257.34C245.738 257.26 245.702 257.195 245.673 257.144C245.686 257.203 245.693 257.268 245.693 257.34C245.695 257.412 245.697 257.475 245.697 257.528V261H244.809ZM256.524 261.096C256.148 261.096 255.825 261.017 255.556 260.86C255.289 260.7 255.071 260.484 254.9 260.212C254.729 259.94 254.604 259.631 254.524 259.284C254.444 258.937 254.404 258.576 254.404 258.2C254.404 257.824 254.444 257.463 254.524 257.116C254.604 256.769 254.729 256.46 254.9 256.188C255.071 255.916 255.289 255.701 255.556 255.544C255.825 255.384 256.148 255.304 256.524 255.304C256.9 255.304 257.223 255.384 257.492 255.544C257.761 255.701 257.981 255.916 258.152 256.188C258.323 256.46 258.448 256.769 258.528 257.116C258.611 257.463 258.652 257.824 258.652 258.2C258.652 258.576 258.611 258.937 258.528 259.284C258.448 259.631 258.323 259.94 258.152 260.212C257.981 260.484 257.761 260.7 257.492 260.86C257.223 261.017 256.9 261.096 256.524 261.096ZM256.524 260.192C256.721 260.192 256.892 260.136 257.036 260.024C257.18 259.912 257.297 259.761 257.388 259.572C257.481 259.383 257.549 259.169 257.592 258.932C257.637 258.695 257.66 258.451 257.66 258.2C257.66 257.933 257.637 257.681 257.592 257.444C257.549 257.204 257.483 256.992 257.392 256.808C257.301 256.621 257.184 256.475 257.04 256.368C256.896 256.261 256.724 256.208 256.524 256.208C256.324 256.208 256.152 256.264 256.008 256.376C255.864 256.485 255.747 256.635 255.656 256.824C255.565 257.013 255.497 257.227 255.452 257.464C255.409 257.701 255.388 257.947 255.388 258.2C255.388 258.464 255.409 258.716 255.452 258.956C255.497 259.193 255.565 259.405 255.656 259.592C255.747 259.779 255.864 259.925 256.008 260.032C256.152 260.139 256.324 260.192 256.524 260.192ZM259.598 261V255.4H260.502L262.246 258.856C262.27 258.899 262.303 258.96 262.346 259.04C262.388 259.12 262.422 259.187 262.446 259.24C262.443 259.171 262.439 259.101 262.434 259.032C262.431 258.963 262.43 258.904 262.43 258.856V255.4H263.31V261H262.446L260.67 257.528C260.646 257.483 260.612 257.42 260.57 257.34C260.527 257.26 260.491 257.195 260.462 257.144C260.475 257.203 260.482 257.268 260.482 257.34C260.484 257.412 260.486 257.475 260.486 257.528V261H259.598ZM266.479 261.088C266.074 261.088 265.73 261.005 265.447 260.84C265.165 260.672 264.937 260.449 264.763 260.172C264.59 259.892 264.463 259.581 264.383 259.24C264.303 258.896 264.263 258.549 264.263 258.2C264.263 257.864 264.303 257.527 264.383 257.188C264.466 256.847 264.595 256.535 264.771 256.252C264.947 255.969 265.175 255.743 265.455 255.572C265.738 255.399 266.079 255.312 266.479 255.312C266.794 255.312 267.066 255.369 267.295 255.484C267.527 255.596 267.719 255.741 267.871 255.92C268.023 256.099 268.138 256.285 268.215 256.48L267.367 256.888C267.261 256.68 267.139 256.516 267.003 256.396C266.87 256.276 266.695 256.216 266.479 256.216C266.253 256.216 266.061 256.276 265.903 256.396C265.746 256.516 265.618 256.675 265.519 256.872C265.423 257.069 265.354 257.284 265.311 257.516C265.269 257.748 265.247 257.976 265.247 258.2C265.247 258.437 265.271 258.673 265.319 258.908C265.37 259.143 265.445 259.356 265.543 259.548C265.645 259.74 265.773 259.895 265.927 260.012C266.085 260.127 266.269 260.184 266.479 260.184C266.695 260.184 266.874 260.117 267.015 259.984C267.157 259.848 267.277 259.675 267.375 259.464L268.239 259.792C268.138 260.04 268.007 260.263 267.847 260.46C267.69 260.655 267.498 260.808 267.271 260.92C267.045 261.032 266.781 261.088 266.479 261.088ZM269.457 261V255.4H273.049V256.304H270.409V257.656H272.129V258.56H270.409V260.096H273.217V261H269.457ZM222.201 271L224.033 265.4H224.929L226.761 271H225.737L224.617 267.24C224.604 267.197 224.588 267.14 224.569 267.068C224.553 266.996 224.537 266.92 224.521 266.84C224.505 266.76 224.492 266.685 224.481 266.616C224.468 266.685 224.453 266.76 224.437 266.84C224.421 266.92 224.405 266.996 224.389 267.068C224.373 267.14 224.358 267.197 224.345 267.24L223.225 271H222.201ZM223.385 269.768L223.641 268.904H225.321L225.577 269.768H223.385ZM232.484 271V265.4H233.412L234.22 268.472C234.242 268.552 234.267 268.647 234.296 268.756C234.326 268.863 234.346 268.952 234.356 269.024C234.37 268.952 234.39 268.863 234.416 268.756C234.446 268.647 234.471 268.552 234.492 268.472L235.324 265.4H236.196V271H235.372V267.96C235.372 267.899 235.372 267.82 235.372 267.724C235.375 267.628 235.38 267.552 235.388 267.496C235.364 267.563 235.338 267.637 235.308 267.72C235.282 267.803 235.258 267.883 235.236 267.96L234.38 271H234.3L233.444 267.96C233.423 267.883 233.398 267.803 233.368 267.72C233.342 267.635 233.316 267.56 233.292 267.496C233.298 267.552 233.302 267.628 233.304 267.724C233.307 267.82 233.308 267.899 233.308 267.96V271H232.484ZM239.27 271.096C238.894 271.096 238.571 271.017 238.302 270.86C238.035 270.7 237.817 270.484 237.646 270.212C237.475 269.94 237.35 269.631 237.27 269.284C237.19 268.937 237.15 268.576 237.15 268.2C237.15 267.824 237.19 267.463 237.27 267.116C237.35 266.769 237.475 266.46 237.646 266.188C237.817 265.916 238.035 265.701 238.302 265.544C238.571 265.384 238.894 265.304 239.27 265.304C239.646 265.304 239.969 265.384 240.238 265.544C240.507 265.701 240.727 265.916 240.898 266.188C241.069 266.46 241.194 266.769 241.274 267.116C241.357 267.463 241.398 267.824 241.398 268.2C241.398 268.576 241.357 268.937 241.274 269.284C241.194 269.631 241.069 269.94 240.898 270.212C240.727 270.484 240.507 270.7 240.238 270.86C239.969 271.017 239.646 271.096 239.27 271.096ZM239.27 270.192C239.467 270.192 239.638 270.136 239.782 270.024C239.926 269.912 240.043 269.761 240.134 269.572C240.227 269.383 240.295 269.169 240.338 268.932C240.383 268.695 240.406 268.451 240.406 268.2C240.406 267.933 240.383 267.681 240.338 267.444C240.295 267.204 240.229 266.992 240.138 266.808C240.047 266.621 239.93 266.475 239.786 266.368C239.642 266.261 239.47 266.208 239.27 266.208C239.07 266.208 238.898 266.264 238.754 266.376C238.61 266.485 238.493 266.635 238.402 266.824C238.311 267.013 238.243 267.227 238.198 267.464C238.155 267.701 238.134 267.947 238.134 268.2C238.134 268.464 238.155 268.716 238.198 268.956C238.243 269.193 238.311 269.405 238.402 269.592C238.493 269.779 238.61 269.925 238.754 270.032C238.898 270.139 239.07 270.192 239.27 270.192ZM242.344 271V265.4H243.248L244.992 268.856C245.016 268.899 245.049 268.96 245.092 269.04C245.135 269.12 245.168 269.187 245.192 269.24C245.189 269.171 245.185 269.101 245.18 269.032C245.177 268.963 245.176 268.904 245.176 268.856V265.4H246.056V271H245.192L243.416 267.528C243.392 267.483 243.359 267.42 243.316 267.34C243.273 267.26 243.237 267.195 243.208 267.144C243.221 267.203 243.228 267.268 243.228 267.34C243.231 267.412 243.232 267.475 243.232 267.528V271H242.344ZM248.65 271V266.312H247.026V265.4H251.234V266.312H249.602V271H248.65ZM252.203 271V265.4H253.155V267.664H254.963V265.4H255.915V271H254.963V268.56H253.155V271H252.203Z" fill="#CB0155"/>
<path d="M216.771 289.5V288H215.271V285H216.771V283.5H215.271V280.5H216.771V279H222.771V280.5H224.271V283.5H222.771V285H225.771V288H224.271V289.5H216.771ZM219.771 283.5H222.771V280.5H218.271V282H219.771V283.5ZM216.771 288H222.771V286.5H219.771V285H216.771V288ZM228.771 291V289.5H230.271V286.5H233.271V289.5H231.771V291H228.771ZM240.771 289.5V288H239.271V286.5H242.271V288H246.771V283.5H239.271V279H248.271V280.5H242.271V282H248.271V283.5H249.771V288H248.271V289.5H240.771ZM254.271 280.5H252.771V279H255.771V282H254.271V280.5ZM261.771 279V280.5H260.271V279H261.771ZM254.271 283.5H251.271V280.5H252.771V282H254.271V283.5ZM258.771 280.5H260.271V282H258.771V280.5ZM257.271 282H258.771V283.5H257.271V282ZM255.771 283.5H257.271V285H255.771V283.5ZM254.271 285H255.771V286.5H254.271V285ZM258.771 285H261.771V288H260.271V286.5H258.771V285ZM252.771 286.5H254.271V288H252.771V286.5ZM258.771 288H260.271V289.5H257.271V286.5H258.771V288ZM251.271 288H252.771V289.5H251.271V288Z" fill="#CB0155"/>
<rect width="143.458" height="167" transform="translate(167.542 318)" fill="white"/>
<path d="M206.747 379.5V373.9H207.699V379.5H206.747ZM205.579 379.5V378.66H208.875V379.5H205.579ZM205.579 374.74V373.9H208.875V374.74H205.579ZM215.231 379.5V373.9H216.639C217.108 373.9 217.505 373.98 217.831 374.14C218.159 374.297 218.424 374.511 218.627 374.78C218.832 375.047 218.981 375.347 219.075 375.68C219.168 376.011 219.215 376.351 219.215 376.7C219.215 377.02 219.171 377.344 219.083 377.672C218.995 378 218.849 378.303 218.647 378.58C218.447 378.857 218.18 379.08 217.847 379.248C217.513 379.416 217.1 379.5 216.607 379.5H215.231ZM216.183 378.604H216.703C216.988 378.604 217.228 378.548 217.423 378.436C217.617 378.321 217.773 378.171 217.891 377.984C218.008 377.797 218.092 377.592 218.143 377.368C218.196 377.144 218.223 376.921 218.223 376.7C218.223 376.463 218.195 376.232 218.139 376.008C218.085 375.781 218.001 375.577 217.887 375.396C217.772 375.212 217.624 375.067 217.443 374.96C217.261 374.851 217.044 374.796 216.791 374.796H216.183V378.604ZM222.016 379.596C221.64 379.596 221.318 379.517 221.048 379.36C220.782 379.2 220.563 378.984 220.392 378.712C220.222 378.44 220.096 378.131 220.016 377.784C219.936 377.437 219.896 377.076 219.896 376.7C219.896 376.324 219.936 375.963 220.016 375.616C220.096 375.269 220.222 374.96 220.392 374.688C220.563 374.416 220.782 374.201 221.048 374.044C221.318 373.884 221.64 373.804 222.016 373.804C222.392 373.804 222.715 373.884 222.984 374.044C223.254 374.201 223.474 374.416 223.644 374.688C223.815 374.96 223.94 375.269 224.02 375.616C224.103 375.963 224.144 376.324 224.144 376.7C224.144 377.076 224.103 377.437 224.02 377.784C223.94 378.131 223.815 378.44 223.644 378.712C223.474 378.984 223.254 379.2 222.984 379.36C222.715 379.517 222.392 379.596 222.016 379.596ZM222.016 378.692C222.214 378.692 222.384 378.636 222.528 378.524C222.672 378.412 222.79 378.261 222.88 378.072C222.974 377.883 223.042 377.669 223.084 377.432C223.13 377.195 223.152 376.951 223.152 376.7C223.152 376.433 223.13 376.181 223.084 375.944C223.042 375.704 222.975 375.492 222.884 375.308C222.794 375.121 222.676 374.975 222.532 374.868C222.388 374.761 222.216 374.708 222.016 374.708C221.816 374.708 221.644 374.764 221.5 374.876C221.356 374.985 221.239 375.135 221.148 375.324C221.058 375.513 220.99 375.727 220.944 375.964C220.902 376.201 220.88 376.447 220.88 376.7C220.88 376.964 220.902 377.216 220.944 377.456C220.99 377.693 221.058 377.905 221.148 378.092C221.239 378.279 221.356 378.425 221.5 378.532C221.644 378.639 221.816 378.692 222.016 378.692ZM225.09 379.5V373.9H225.994L227.738 377.356C227.762 377.399 227.795 377.46 227.838 377.54C227.881 377.62 227.914 377.687 227.938 377.74C227.935 377.671 227.931 377.601 227.926 377.532C227.923 377.463 227.922 377.404 227.922 377.356V373.9H228.802V379.5H227.938L226.162 376.028C226.138 375.983 226.105 375.92 226.062 375.84C226.019 375.76 225.983 375.695 225.954 375.644C225.967 375.703 225.974 375.768 225.974 375.84C225.977 375.912 225.978 375.975 225.978 376.028V379.5H225.09ZM231.5 376.18L231.324 373.9H232.428L232.252 376.18H231.5ZM236.325 379.5V374.812H234.701V373.9H238.909V374.812H237.277V379.5H236.325ZM244.385 379.5L246.217 373.9H247.113L248.945 379.5H247.921L246.801 375.74C246.787 375.697 246.771 375.64 246.753 375.568C246.737 375.496 246.721 375.42 246.705 375.34C246.689 375.26 246.675 375.185 246.665 375.116C246.651 375.185 246.637 375.26 246.621 375.34C246.605 375.42 246.589 375.496 246.573 375.568C246.557 375.64 246.542 375.697 246.529 375.74L245.409 379.5H244.385ZM245.569 378.268L245.825 377.404H247.505L247.761 378.268H245.569ZM251.69 379.588C251.285 379.588 250.941 379.505 250.658 379.34C250.376 379.172 250.148 378.949 249.974 378.672C249.801 378.392 249.674 378.081 249.594 377.74C249.514 377.396 249.474 377.049 249.474 376.7C249.474 376.364 249.514 376.027 249.594 375.688C249.677 375.347 249.806 375.035 249.982 374.752C250.158 374.469 250.386 374.243 250.666 374.072C250.949 373.899 251.29 373.812 251.69 373.812C252.005 373.812 252.277 373.869 252.506 373.984C252.738 374.096 252.93 374.241 253.082 374.42C253.234 374.599 253.349 374.785 253.426 374.98L252.578 375.388C252.472 375.18 252.35 375.016 252.214 374.896C252.081 374.776 251.906 374.716 251.69 374.716C251.464 374.716 251.272 374.776 251.114 374.896C250.957 375.016 250.829 375.175 250.73 375.372C250.634 375.569 250.565 375.784 250.522 376.016C250.48 376.248 250.458 376.476 250.458 376.7C250.458 376.937 250.482 377.173 250.53 377.408C250.581 377.643 250.656 377.856 250.754 378.048C250.856 378.24 250.984 378.395 251.138 378.512C251.296 378.627 251.48 378.684 251.69 378.684C251.906 378.684 252.085 378.617 252.226 378.484C252.368 378.348 252.488 378.175 252.586 377.964L253.45 378.292C253.349 378.54 253.218 378.763 253.058 378.96C252.901 379.155 252.709 379.308 252.482 379.42C252.256 379.532 251.992 379.588 251.69 379.588ZM256.62 379.588C256.215 379.588 255.871 379.505 255.588 379.34C255.305 379.172 255.077 378.949 254.904 378.672C254.731 378.392 254.604 378.081 254.524 377.74C254.444 377.396 254.404 377.049 254.404 376.7C254.404 376.364 254.444 376.027 254.524 375.688C254.607 375.347 254.736 375.035 254.912 374.752C255.088 374.469 255.316 374.243 255.596 374.072C255.879 373.899 256.22 373.812 256.62 373.812C256.935 373.812 257.207 373.869 257.436 373.984C257.668 374.096 257.86 374.241 258.012 374.42C258.164 374.599 258.279 374.785 258.356 374.98L257.508 375.388C257.401 375.18 257.28 375.016 257.144 374.896C257.011 374.776 256.836 374.716 256.62 374.716C256.393 374.716 256.201 374.776 256.044 374.896C255.887 375.016 255.759 375.175 255.66 375.372C255.564 375.569 255.495 375.784 255.452 376.016C255.409 376.248 255.388 376.476 255.388 376.7C255.388 376.937 255.412 377.173 255.46 377.408C255.511 377.643 255.585 377.856 255.684 378.048C255.785 378.24 255.913 378.395 256.068 378.512C256.225 378.627 256.409 378.684 256.62 378.684C256.836 378.684 257.015 378.617 257.156 378.484C257.297 378.348 257.417 378.175 257.516 377.964L258.38 378.292C258.279 378.54 258.148 378.763 257.988 378.96C257.831 379.155 257.639 379.308 257.412 379.42C257.185 379.532 256.921 379.588 256.62 379.588ZM259.598 379.5V373.9H263.19V374.804H260.55V376.156H262.27V377.06H260.55V378.596H263.358V379.5H259.598ZM266.447 379.596C266.143 379.596 265.858 379.537 265.591 379.42C265.327 379.3 265.097 379.132 264.899 378.916C264.702 378.7 264.554 378.447 264.455 378.156L265.319 377.836C265.439 378.092 265.607 378.3 265.823 378.46C266.042 378.62 266.277 378.7 266.527 378.7C266.767 378.7 266.963 378.639 267.115 378.516C267.267 378.393 267.343 378.215 267.343 377.98C267.343 377.828 267.29 377.693 267.183 377.576C267.077 377.456 266.935 377.347 266.759 377.248C266.586 377.149 266.397 377.055 266.191 376.964C266.013 376.887 265.833 376.8 265.651 376.704C265.473 376.608 265.307 376.495 265.155 376.364C265.006 376.233 264.885 376.08 264.791 375.904C264.701 375.728 264.655 375.521 264.655 375.284C264.655 375.015 264.726 374.768 264.867 374.544C265.009 374.32 265.209 374.141 265.467 374.008C265.726 373.872 266.031 373.804 266.383 373.804C266.805 373.804 267.166 373.917 267.467 374.144C267.771 374.371 267.973 374.655 268.071 374.996L267.215 375.284C267.135 375.119 267.021 374.98 266.871 374.868C266.722 374.756 266.541 374.7 266.327 374.7C266.127 374.7 265.958 374.751 265.819 374.852C265.683 374.953 265.615 375.092 265.615 375.268C265.615 375.391 265.654 375.497 265.731 375.588C265.811 375.679 265.927 375.767 266.079 375.852C266.234 375.937 266.423 376.033 266.647 376.14C266.829 376.225 267.015 376.321 267.207 376.428C267.399 376.532 267.578 376.653 267.743 376.792C267.911 376.931 268.046 377.093 268.147 377.28C268.251 377.467 268.303 377.684 268.303 377.932C268.303 378.287 268.217 378.588 268.043 378.836C267.873 379.084 267.646 379.273 267.363 379.404C267.083 379.532 266.778 379.596 266.447 379.596ZM271.377 379.596C271.073 379.596 270.788 379.537 270.521 379.42C270.257 379.3 270.026 379.132 269.829 378.916C269.632 378.7 269.484 378.447 269.385 378.156L270.249 377.836C270.369 378.092 270.537 378.3 270.753 378.46C270.972 378.62 271.206 378.7 271.457 378.7C271.697 378.7 271.893 378.639 272.045 378.516C272.197 378.393 272.273 378.215 272.273 377.98C272.273 377.828 272.22 377.693 272.113 377.576C272.006 377.456 271.865 377.347 271.689 377.248C271.516 377.149 271.326 377.055 271.121 376.964C270.942 376.887 270.762 376.8 270.581 376.704C270.402 376.608 270.237 376.495 270.085 376.364C269.936 376.233 269.814 376.08 269.721 375.904C269.63 375.728 269.585 375.521 269.585 375.284C269.585 375.015 269.656 374.768 269.797 374.544C269.938 374.32 270.138 374.141 270.397 374.008C270.656 373.872 270.961 373.804 271.313 373.804C271.734 373.804 272.096 373.917 272.397 374.144C272.701 374.371 272.902 374.655 273.001 374.996L272.145 375.284C272.065 375.119 271.95 374.98 271.801 374.868C271.652 374.756 271.47 374.7 271.257 374.7C271.057 374.7 270.888 374.751 270.749 374.852C270.613 374.953 270.545 375.092 270.545 375.268C270.545 375.391 270.584 375.497 270.661 375.588C270.741 375.679 270.857 375.767 271.009 375.852C271.164 375.937 271.353 376.033 271.577 376.14C271.758 376.225 271.945 376.321 272.137 376.428C272.329 376.532 272.508 376.653 272.673 376.792C272.841 376.931 272.976 377.093 273.077 377.28C273.181 377.467 273.233 377.684 273.233 377.932C273.233 378.287 273.146 378.588 272.973 378.836C272.802 379.084 272.576 379.273 272.293 379.404C272.013 379.532 271.708 379.596 271.377 379.596ZM212.342 389.5L214.174 383.9H215.07L216.902 389.5H215.878L214.758 385.74C214.744 385.697 214.728 385.64 214.71 385.568C214.694 385.496 214.678 385.42 214.662 385.34C214.646 385.26 214.632 385.185 214.622 385.116C214.608 385.185 214.594 385.26 214.578 385.34C214.562 385.42 214.546 385.496 214.53 385.568C214.514 385.64 214.499 385.697 214.486 385.74L213.366 389.5H212.342ZM213.526 388.268L213.782 387.404H215.462L215.718 388.268H213.526ZM217.695 389.5V383.9H218.599L220.343 387.356C220.367 387.399 220.401 387.46 220.443 387.54C220.486 387.62 220.519 387.687 220.543 387.74C220.541 387.671 220.537 387.601 220.531 387.532C220.529 387.463 220.527 387.404 220.527 387.356V383.9H221.407V389.5H220.543L218.767 386.028C218.743 385.983 218.71 385.92 218.667 385.84C218.625 385.76 218.589 385.695 218.559 385.644C218.573 385.703 218.579 385.768 218.579 385.84C218.582 385.912 218.583 385.975 218.583 386.028V389.5H217.695ZM224.009 389.5V387.308L222.361 383.9H223.417L224.673 386.716H224.289L225.553 383.9H226.601L224.953 387.308V389.5H224.009ZM234.436 389.588C234.031 389.588 233.687 389.505 233.404 389.34C233.122 389.172 232.894 388.949 232.72 388.672C232.547 388.392 232.42 388.081 232.34 387.74C232.26 387.396 232.22 387.049 232.22 386.7C232.22 386.364 232.26 386.027 232.34 385.688C232.423 385.347 232.552 385.035 232.728 384.752C232.904 384.469 233.132 384.243 233.412 384.072C233.695 383.899 234.036 383.812 234.436 383.812C234.751 383.812 235.023 383.869 235.252 383.984C235.484 384.096 235.676 384.241 235.828 384.42C235.98 384.599 236.095 384.785 236.172 384.98L235.324 385.388C235.218 385.18 235.096 385.016 234.96 384.896C234.827 384.776 234.652 384.716 234.436 384.716C234.21 384.716 234.018 384.776 233.86 384.896C233.703 385.016 233.575 385.175 233.476 385.372C233.38 385.569 233.311 385.784 233.268 386.016C233.226 386.248 233.204 386.476 233.204 386.7C233.204 386.937 233.228 387.173 233.276 387.408C233.327 387.643 233.402 387.856 233.5 388.048C233.602 388.24 233.73 388.395 233.884 388.512C234.042 388.627 234.226 388.684 234.436 388.684C234.652 388.684 234.831 388.617 234.972 388.484C235.114 388.348 235.234 388.175 235.332 387.964L236.196 388.292C236.095 388.54 235.964 388.763 235.804 388.96C235.647 389.155 235.455 389.308 235.228 389.42C235.002 389.532 234.738 389.588 234.436 389.588ZM239.27 389.596C238.894 389.596 238.571 389.517 238.302 389.36C238.035 389.2 237.817 388.984 237.646 388.712C237.475 388.44 237.35 388.131 237.27 387.784C237.19 387.437 237.15 387.076 237.15 386.7C237.15 386.324 237.19 385.963 237.27 385.616C237.35 385.269 237.475 384.96 237.646 384.688C237.817 384.416 238.035 384.201 238.302 384.044C238.571 383.884 238.894 383.804 239.27 383.804C239.646 383.804 239.969 383.884 240.238 384.044C240.507 384.201 240.727 384.416 240.898 384.688C241.069 384.96 241.194 385.269 241.274 385.616C241.357 385.963 241.398 386.324 241.398 386.7C241.398 387.076 241.357 387.437 241.274 387.784C241.194 388.131 241.069 388.44 240.898 388.712C240.727 388.984 240.507 389.2 240.238 389.36C239.969 389.517 239.646 389.596 239.27 389.596ZM239.27 388.692C239.467 388.692 239.638 388.636 239.782 388.524C239.926 388.412 240.043 388.261 240.134 388.072C240.227 387.883 240.295 387.669 240.338 387.432C240.383 387.195 240.406 386.951 240.406 386.7C240.406 386.433 240.383 386.181 240.338 385.944C240.295 385.704 240.229 385.492 240.138 385.308C240.047 385.121 239.93 384.975 239.786 384.868C239.642 384.761 239.47 384.708 239.27 384.708C239.07 384.708 238.898 384.764 238.754 384.876C238.61 384.985 238.493 385.135 238.402 385.324C238.311 385.513 238.243 385.727 238.198 385.964C238.155 386.201 238.134 386.447 238.134 386.7C238.134 386.964 238.155 387.216 238.198 387.456C238.243 387.693 238.311 387.905 238.402 388.092C238.493 388.279 238.61 388.425 238.754 388.532C238.898 388.639 239.07 388.692 239.27 388.692ZM242.344 389.5V383.9H243.248L244.992 387.356C245.016 387.399 245.049 387.46 245.092 387.54C245.135 387.62 245.168 387.687 245.192 387.74C245.189 387.671 245.185 387.601 245.18 387.532C245.177 387.463 245.176 387.404 245.176 387.356V383.9H246.056V389.5H245.192L243.416 386.028C243.392 385.983 243.359 385.92 243.316 385.84C243.273 385.76 243.237 385.695 243.208 385.644C243.221 385.703 243.228 385.768 243.228 385.84C243.231 385.912 243.232 385.975 243.232 386.028V389.5H242.344ZM248.65 389.5V384.812H247.026V383.9H251.234V384.812H249.602V389.5H248.65ZM252.203 389.5V383.9H255.795V384.804H253.155V386.156H254.875V387.06H253.155V388.596H255.963V389.5H252.203ZM257.133 389.5V383.9H258.037L259.781 387.356C259.805 387.399 259.838 387.46 259.881 387.54C259.924 387.62 259.957 387.687 259.981 387.74C259.978 387.671 259.974 387.601 259.969 387.532C259.966 387.463 259.965 387.404 259.965 387.356V383.9H260.845V389.5H259.981L258.205 386.028C258.181 385.983 258.148 385.92 258.105 385.84C258.062 385.76 258.026 385.695 257.997 385.644C258.01 385.703 258.017 385.768 258.017 385.84C258.02 385.912 258.021 385.975 258.021 386.028V389.5H257.133ZM263.439 389.5V384.812H261.815V383.9H266.023V384.812H264.391V389.5H263.439ZM215.231 399.5V393.9H217.167C217.628 393.9 217.992 393.98 218.259 394.14C218.525 394.3 218.715 394.509 218.827 394.768C218.941 395.027 218.999 395.303 218.999 395.596C218.999 395.804 218.964 396.007 218.895 396.204C218.825 396.399 218.721 396.576 218.583 396.736C218.444 396.893 218.269 397.023 218.059 397.124C217.851 397.225 217.607 397.287 217.327 397.308H216.183V399.5H215.231ZM217.935 399.5L216.791 397.196L217.807 397.092L218.991 399.5H217.935ZM216.183 396.412H217.183C217.396 396.412 217.564 396.373 217.687 396.296C217.809 396.219 217.896 396.119 217.947 395.996C217.997 395.873 218.023 395.743 218.023 395.604C218.023 395.479 217.999 395.355 217.951 395.232C217.903 395.107 217.817 395.003 217.695 394.92C217.575 394.837 217.404 394.796 217.183 394.796H216.183V396.412ZM220.16 399.5V393.9H223.752V394.804H221.112V396.156H222.832V397.06H221.112V398.596H223.92V399.5H220.16ZM225.09 399.5V393.9H226.042V398.588H228.626V399.5H225.09ZM229.596 399.5L231.428 393.9H232.324L234.156 399.5H233.132L232.012 395.74C231.998 395.697 231.982 395.64 231.964 395.568C231.948 395.496 231.932 395.42 231.916 395.34C231.9 395.26 231.886 395.185 231.876 395.116C231.862 395.185 231.848 395.26 231.832 395.34C231.816 395.42 231.8 395.496 231.784 395.568C231.768 395.64 231.753 395.697 231.74 395.74L230.62 399.5H229.596ZM230.78 398.268L231.036 397.404H232.716L232.972 398.268H230.78ZM236.325 399.5V394.812H234.701V393.9H238.909V394.812H237.277V399.5H236.325ZM239.879 399.5V393.9H243.471V394.804H240.831V396.156H242.551V397.06H240.831V398.596H243.639V399.5H239.879ZM244.809 399.5V393.9H246.217C246.686 393.9 247.083 393.98 247.409 394.14C247.737 394.297 248.002 394.511 248.205 394.78C248.41 395.047 248.559 395.347 248.653 395.68C248.746 396.011 248.793 396.351 248.793 396.7C248.793 397.02 248.749 397.344 248.661 397.672C248.573 398 248.427 398.303 248.225 398.58C248.025 398.857 247.758 399.08 247.425 399.248C247.091 399.416 246.678 399.5 246.185 399.5H244.809ZM245.761 398.604H246.281C246.566 398.604 246.806 398.548 247.001 398.436C247.195 398.321 247.351 398.171 247.469 397.984C247.586 397.797 247.67 397.592 247.721 397.368C247.774 397.144 247.801 396.921 247.801 396.7C247.801 396.463 247.773 396.232 247.717 396.008C247.663 395.781 247.579 395.577 247.465 395.396C247.35 395.212 247.202 395.067 247.021 394.96C246.839 394.851 246.622 394.796 246.369 394.796H245.761V398.604ZM256.044 399.5V394.812H254.42V393.9H258.628V394.812H256.996V399.5H256.044ZM261.454 399.596C261.078 399.596 260.755 399.517 260.486 399.36C260.219 399.2 260 398.984 259.83 398.712C259.659 398.44 259.534 398.131 259.454 397.784C259.374 397.437 259.334 397.076 259.334 396.7C259.334 396.324 259.374 395.963 259.454 395.616C259.534 395.269 259.659 394.96 259.83 394.688C260 394.416 260.219 394.201 260.486 394.044C260.755 393.884 261.078 393.804 261.454 393.804C261.83 393.804 262.152 393.884 262.422 394.044C262.691 394.201 262.911 394.416 263.082 394.688C263.252 394.96 263.378 395.269 263.458 395.616C263.54 395.963 263.582 396.324 263.582 396.7C263.582 397.076 263.54 397.437 263.458 397.784C263.378 398.131 263.252 398.44 263.082 398.712C262.911 398.984 262.691 399.2 262.422 399.36C262.152 399.517 261.83 399.596 261.454 399.596ZM261.454 398.692C261.651 398.692 261.822 398.636 261.966 398.524C262.11 398.412 262.227 398.261 262.318 398.072C262.411 397.883 262.479 397.669 262.522 397.432C262.567 397.195 262.59 396.951 262.59 396.7C262.59 396.433 262.567 396.181 262.522 395.944C262.479 395.704 262.412 395.492 262.322 395.308C262.231 395.121 262.114 394.975 261.97 394.868C261.826 394.761 261.654 394.708 261.454 394.708C261.254 394.708 261.082 394.764 260.938 394.876C260.794 394.985 260.676 395.135 260.586 395.324C260.495 395.513 260.427 395.727 260.382 395.964C260.339 396.201 260.318 396.447 260.318 396.7C260.318 396.964 260.339 397.216 260.382 397.456C260.427 397.693 260.495 397.905 260.586 398.092C260.676 398.279 260.794 398.425 260.938 398.532C261.082 398.639 261.254 398.692 261.454 398.692ZM229.499 409.596C229.12 409.596 228.791 409.516 228.511 409.356C228.233 409.193 228.004 408.975 227.823 408.7C227.644 408.423 227.511 408.112 227.423 407.768C227.335 407.421 227.291 407.065 227.291 406.7C227.291 406.351 227.336 406.005 227.427 405.664C227.517 405.32 227.655 405.008 227.839 404.728C228.023 404.448 228.252 404.224 228.527 404.056C228.804 403.888 229.128 403.804 229.499 403.804C229.816 403.804 230.083 403.859 230.299 403.968C230.517 404.075 230.7 404.215 230.847 404.388C230.993 404.559 231.12 404.74 231.227 404.932L230.387 405.412C230.288 405.223 230.168 405.059 230.027 404.92C229.888 404.779 229.712 404.708 229.499 404.708C229.275 404.708 229.085 404.769 228.931 404.892C228.776 405.012 228.651 405.172 228.555 405.372C228.459 405.569 228.389 405.785 228.347 406.02C228.304 406.252 228.283 406.479 228.283 406.7C228.283 406.953 228.307 407.199 228.355 407.436C228.405 407.673 228.48 407.887 228.579 408.076C228.677 408.265 228.803 408.416 228.955 408.528C229.109 408.637 229.291 408.692 229.499 408.692C229.795 408.692 230.016 408.593 230.163 408.396C230.312 408.196 230.387 407.948 230.387 407.652V407.532H229.411V406.636H231.363V407.412C231.363 407.884 231.28 408.283 231.115 408.608C230.952 408.933 230.729 409.18 230.447 409.348C230.167 409.513 229.851 409.596 229.499 409.596ZM232.06 409.5L233.892 403.9H234.788L236.62 409.5H235.596L234.476 405.74C234.463 405.697 234.447 405.64 234.428 405.568C234.412 405.496 234.396 405.42 234.38 405.34C234.364 405.26 234.351 405.185 234.34 405.116C234.327 405.185 234.312 405.26 234.296 405.34C234.28 405.42 234.264 405.496 234.248 405.568C234.232 405.64 234.218 405.697 234.204 405.74L233.084 409.5H232.06ZM233.244 408.268L233.5 407.404H235.18L235.436 408.268H233.244ZM237.414 409.5V403.9H238.342L239.15 406.972C239.171 407.052 239.197 407.147 239.226 407.256C239.255 407.363 239.275 407.452 239.286 407.524C239.299 407.452 239.319 407.363 239.346 407.256C239.375 407.147 239.401 407.052 239.422 406.972L240.254 403.9H241.126V409.5H240.302V406.46C240.302 406.399 240.302 406.32 240.302 406.224C240.305 406.128 240.31 406.052 240.318 405.996C240.294 406.063 240.267 406.137 240.238 406.22C240.211 406.303 240.187 406.383 240.166 406.46L239.31 409.5H239.23L238.374 406.46C238.353 406.383 238.327 406.303 238.298 406.22C238.271 406.135 238.246 406.06 238.222 405.996C238.227 406.052 238.231 406.128 238.234 406.224C238.237 406.32 238.238 406.399 238.238 406.46V409.5H237.414ZM242.344 409.5V403.9H245.936V404.804H243.296V406.156H245.016V407.06H243.296V408.596H246.104V409.5H242.344ZM249.194 409.596C248.89 409.596 248.604 409.537 248.338 409.42C248.074 409.3 247.843 409.132 247.646 408.916C247.448 408.7 247.3 408.447 247.202 408.156L248.066 407.836C248.186 408.092 248.354 408.3 248.57 408.46C248.788 408.62 249.023 408.7 249.274 408.7C249.514 408.7 249.71 408.639 249.862 408.516C250.014 408.393 250.09 408.215 250.09 407.98C250.09 407.828 250.036 407.693 249.93 407.576C249.823 407.456 249.682 407.347 249.506 407.248C249.332 407.149 249.143 407.055 248.938 406.964C248.759 406.887 248.579 406.8 248.398 406.704C248.219 406.608 248.054 406.495 247.902 406.364C247.752 406.233 247.631 406.08 247.538 405.904C247.447 405.728 247.402 405.521 247.402 405.284C247.402 405.015 247.472 404.768 247.614 404.544C247.755 404.32 247.955 404.141 248.214 404.008C248.472 403.872 248.778 403.804 249.13 403.804C249.551 403.804 249.912 403.917 250.214 404.144C250.518 404.371 250.719 404.655 250.818 404.996L249.962 405.284C249.882 405.119 249.767 404.98 249.618 404.868C249.468 404.756 249.287 404.7 249.074 404.7C248.874 404.7 248.704 404.751 248.566 404.852C248.43 404.953 248.362 405.092 248.362 405.268C248.362 405.391 248.4 405.497 248.478 405.588C248.558 405.679 248.674 405.767 248.826 405.852C248.98 405.937 249.17 406.033 249.394 406.14C249.575 406.225 249.762 406.321 249.954 406.428C250.146 406.532 250.324 406.653 250.49 406.792C250.658 406.931 250.792 407.093 250.894 407.28C250.998 407.467 251.05 407.684 251.05 407.932C251.05 408.287 250.963 408.588 250.79 408.836C250.619 409.084 250.392 409.273 250.11 409.404C249.83 409.532 249.524 409.596 249.194 409.596Z" fill="#CB0155"/>
<path d="M210.771 428V426.5H213.771V420.5H212.271V419H213.771V417.5H216.771V426.5H219.771V428H210.771ZM222.771 428V426.5H221.271V425H224.271V426.5H228.771V422H221.271V417.5H230.271V419H224.271V420.5H230.271V422H231.771V426.5H230.271V428H222.771ZM234.771 429.5V428H236.271V425H239.271V428H237.771V429.5H234.771ZM246.771 428V426.5H245.271V423.5H246.771V422H245.271V419H246.771V417.5H252.771V419H254.271V422H252.771V423.5H255.771V426.5H254.271V428H246.771ZM249.771 422H252.771V419H248.271V420.5H249.771V422ZM246.771 426.5H252.771V425H249.771V423.5H246.771V426.5ZM260.271 419H258.771V417.5H261.771V420.5H260.271V419ZM267.771 417.5V419H266.271V417.5H267.771ZM260.271 422H257.271V419H258.771V420.5H260.271V422ZM264.771 419H266.271V420.5H264.771V419ZM263.271 420.5H264.771V422H263.271V420.5ZM261.771 422H263.271V423.5H261.771V422ZM260.271 423.5H261.771V425H260.271V423.5ZM264.771 423.5H267.771V426.5H266.271V425H264.771V423.5ZM258.771 425H260.271V426.5H258.771V425ZM264.771 426.5H266.271V428H263.271V425H264.771V426.5ZM257.271 426.5H258.771V428H257.271V426.5Z" fill="#CB0155"/>
</svg>
