<svg width="360" height="204" viewBox="0 0 360 204" fill="none" xmlns="http://www.w3.org/2000/svg">
<rect x="25.6" y="3.6" width="302.8" height="192.8" stroke="#FE016A" stroke-width="7.2" stroke-dasharray="7.2 7.2"/>
<rect x="32.6" y="6.6" width="302.8" height="193.8" stroke="#00EAE5" stroke-width="7.2" stroke-dasharray="7.2 7.2"/>
<path d="M73.2268 58.248H67.4028V53.448L75.0828 37.704H64.2028V32.2H81.5468V37.256L73.5468 53.448H75.1468C79.4988 53.448 82.3788 56.392 82.3788 60.872V101.512C82.3788 105.992 79.4988 109 75.1468 109H70.7948L63.6908 99.08V64.2C63.6908 63.56 64.0108 63.24 64.6508 63.24H69.9628V101.256L71.9468 104.2H73.2268C75.1468 104.2 76.1068 103.24 76.1068 101.256V61.128C76.1068 59.208 75.1468 58.248 73.2268 58.248ZM85.6283 108.04V104.008C85.6283 93.96 87.6763 85.64 90.6203 80.072L95.9323 69.896C96.9563 67.976 98.6203 65.096 98.6203 61.768V39.88C98.6203 37.96 97.6603 37 95.7403 37H94.4603L92.4763 39.944V62.984H87.1643C86.5883 62.984 86.2043 62.6 86.2043 62.024V42.12L93.3083 32.2H97.6603C102.012 32.2 104.892 35.144 104.892 39.624V62.088C104.892 67.144 102.78 70.344 100.54 74.44L96.0603 82.952C93.3723 87.944 92.2203 95.624 92.2203 103.368H104.188V109H86.5883C86.0123 109 85.6283 108.616 85.6283 108.04ZM122.6 84.168L117.16 91.848H113.832C110.504 91.848 108.264 89.544 108.264 86.088V39.88L113.64 32.2H117.032C120.36 32.2 122.6 34.504 122.6 37.96V84.168ZM119.656 109H115.688L139.688 32.2H143.656L119.656 109ZM112.616 38.472V55.816L118.248 41.544V38.216C118.248 36.424 117.352 35.528 115.56 35.528H114.6L112.616 38.472ZM115.304 88.52H116.264L118.248 85.576V45.448L112.616 59.656V85.832C112.616 87.624 113.512 88.52 115.304 88.52ZM150.888 101.32L145.512 109H142.12C138.792 109 136.552 106.696 136.552 103.24V58.376L141.992 50.696H145.32C148.648 50.696 150.888 53 150.888 56.392V101.32ZM140.904 56.968V74.312L146.536 60.04V56.712C146.536 54.856 145.64 54.024 143.848 54.024H142.888L140.904 56.968ZM143.592 105.672H144.552L146.536 102.728V63.944L140.904 78.152V102.984C140.904 104.776 141.8 105.672 143.592 105.672Z" fill="black"/>
<path d="M79.2478 132.144C78.4878 132.144 77.8858 131.856 77.4418 131.28C77.0018 130.7 76.7818 129.916 76.7818 128.928C76.7818 128.264 76.8818 127.694 77.0818 127.218C77.2818 126.738 77.5678 126.37 77.9398 126.114C78.3158 125.854 78.7618 125.724 79.2778 125.724C79.9138 125.724 80.4518 125.968 80.8918 126.456V123.738L81.7318 123.336V132H80.8918V131.388C80.4638 131.892 79.9158 132.144 79.2478 132.144ZM79.3738 131.352C79.6738 131.352 79.9598 131.266 80.2318 131.094C80.5038 130.918 80.7238 130.68 80.8918 130.38V127.44C80.7118 127.152 80.4858 126.926 80.2138 126.762C79.9458 126.594 79.6658 126.51 79.3738 126.51C78.8218 126.51 78.3938 126.72 78.0898 127.14C77.7898 127.556 77.6398 128.152 77.6398 128.928C77.6398 129.404 77.7138 129.824 77.8618 130.188C78.0098 130.552 78.2138 130.838 78.4738 131.046C78.7338 131.25 79.0338 131.352 79.3738 131.352ZM85.4706 132.144C84.8226 132.144 84.3146 131.964 83.9466 131.604C83.5786 131.24 83.3946 130.74 83.3946 130.104C83.3946 129.696 83.4846 129.342 83.6646 129.042C83.8486 128.742 84.1066 128.512 84.4386 128.352C84.7746 128.188 85.1706 128.106 85.6266 128.106C85.9266 128.106 86.2126 128.144 86.4846 128.22C86.7606 128.296 87.0266 128.41 87.2826 128.562V127.974C87.2826 127.454 87.1686 127.072 86.9406 126.828C86.7166 126.584 86.3666 126.462 85.8906 126.462C85.6066 126.462 85.3046 126.516 84.9846 126.624C84.6686 126.728 84.3686 126.876 84.0846 127.068L83.8386 126.36C84.1626 126.156 84.5126 126 84.8886 125.892C85.2646 125.78 85.6326 125.724 85.9926 125.724C86.6806 125.724 87.2006 125.904 87.5526 126.264C87.9046 126.624 88.0806 127.154 88.0806 127.854V132H87.2826V131.304C87.0386 131.572 86.7586 131.78 86.4426 131.928C86.1306 132.072 85.8066 132.144 85.4706 132.144ZM85.5786 131.406C85.8866 131.406 86.1866 131.326 86.4786 131.166C86.7706 131.002 87.0386 130.768 87.2826 130.464V129.318C87.0466 129.166 86.7906 129.05 86.5146 128.97C86.2426 128.886 85.9786 128.844 85.7226 128.844C85.2626 128.844 84.8946 128.96 84.6186 129.192C84.3466 129.42 84.2106 129.726 84.2106 130.11C84.2106 130.506 84.3326 130.822 84.5766 131.058C84.8206 131.29 85.1546 131.406 85.5786 131.406ZM91.6559 132.144C91.2479 132.144 90.8559 132.056 90.4799 131.88C90.1039 131.704 89.7879 131.46 89.5319 131.148L90.1439 130.626C90.3639 130.866 90.6079 131.052 90.8759 131.184C91.1439 131.316 91.4079 131.382 91.6679 131.382C92.0599 131.382 92.3619 131.302 92.5739 131.142C92.7899 130.982 92.8979 130.758 92.8979 130.47C92.8979 130.29 92.8479 130.126 92.7479 129.978C92.6519 129.83 92.4939 129.692 92.2739 129.564C92.0539 129.432 91.7639 129.298 91.4039 129.162C90.7559 128.922 90.2899 128.66 90.0059 128.376C89.7219 128.088 89.5799 127.732 89.5799 127.308C89.5799 126.836 89.7619 126.454 90.1259 126.162C90.4939 125.87 90.9719 125.724 91.5599 125.724C91.9479 125.724 92.3119 125.8 92.6519 125.952C92.9919 126.1 93.2819 126.314 93.5219 126.594L92.9339 127.086C92.5419 126.686 92.0799 126.486 91.5479 126.486C91.1999 126.486 90.9239 126.56 90.7199 126.708C90.5199 126.852 90.4199 127.052 90.4199 127.308C90.4199 127.544 90.5239 127.748 90.7319 127.92C90.9399 128.088 91.3199 128.274 91.8719 128.478C92.3199 128.646 92.6799 128.824 92.9519 129.012C93.2239 129.196 93.4199 129.406 93.5399 129.642C93.6639 129.878 93.7259 130.15 93.7259 130.458C93.7259 130.982 93.5419 131.394 93.1739 131.694C92.8059 131.994 92.2999 132.144 91.6559 132.144ZM98.0196 134.436V125.868H98.8596V126.51C99.2956 125.986 99.8556 125.724 100.54 125.724C101.044 125.724 101.48 125.854 101.848 126.114C102.216 126.374 102.5 126.744 102.7 127.224C102.9 127.704 103 128.272 103 128.928C103 129.588 102.898 130.16 102.694 130.644C102.494 131.124 102.206 131.494 101.83 131.754C101.458 132.014 101.016 132.144 100.504 132.144C100.16 132.144 99.8496 132.072 99.5736 131.928C99.2976 131.78 99.0596 131.564 98.8596 131.28V134.034L98.0196 134.436ZM100.42 131.352C100.972 131.352 101.396 131.142 101.692 130.722C101.988 130.302 102.136 129.704 102.136 128.928C102.136 128.184 101.98 127.596 101.668 127.164C101.36 126.728 100.944 126.51 100.42 126.51C100.092 126.51 99.7916 126.592 99.5196 126.756C99.2476 126.92 99.0276 127.152 98.8596 127.452V130.362C99.0716 130.686 99.3096 130.932 99.5736 131.1C99.8376 131.268 100.12 131.352 100.42 131.352ZM107.011 132.144C106.467 132.144 105.997 132.01 105.601 131.742C105.209 131.47 104.907 131.092 104.695 130.608C104.483 130.124 104.377 129.564 104.377 128.928C104.377 128.252 104.487 127.676 104.707 127.2C104.931 126.72 105.241 126.354 105.637 126.102C106.033 125.85 106.491 125.724 107.011 125.724C107.463 125.724 107.873 125.83 108.241 126.042C108.609 126.254 108.901 126.582 109.117 127.026C109.333 127.47 109.441 128.04 109.441 128.736C109.441 128.808 109.439 128.89 109.435 128.982C109.431 129.07 109.425 129.162 109.417 129.258H105.247C105.279 129.682 105.365 130.054 105.505 130.374C105.649 130.69 105.847 130.94 106.099 131.124C106.355 131.304 106.669 131.394 107.041 131.394C107.293 131.394 107.535 131.35 107.767 131.262C107.999 131.17 108.215 131.03 108.415 130.842L108.907 131.406C108.683 131.618 108.407 131.794 108.079 131.934C107.755 132.074 107.399 132.144 107.011 132.144ZM105.235 128.52H108.583C108.583 128.14 108.525 127.794 108.409 127.482C108.297 127.17 108.123 126.922 107.887 126.738C107.655 126.554 107.363 126.462 107.011 126.462C106.535 126.462 106.129 126.626 105.793 126.954C105.461 127.282 105.275 127.804 105.235 128.52ZM112.645 132.144C112.237 132.144 111.845 132.056 111.469 131.88C111.093 131.704 110.777 131.46 110.521 131.148L111.133 130.626C111.353 130.866 111.597 131.052 111.865 131.184C112.133 131.316 112.397 131.382 112.657 131.382C113.049 131.382 113.351 131.302 113.563 131.142C113.779 130.982 113.887 130.758 113.887 130.47C113.887 130.29 113.837 130.126 113.737 129.978C113.641 129.83 113.483 129.692 113.263 129.564C113.043 129.432 112.753 129.298 112.393 129.162C111.745 128.922 111.279 128.66 110.995 128.376C110.711 128.088 110.569 127.732 110.569 127.308C110.569 126.836 110.751 126.454 111.115 126.162C111.483 125.87 111.961 125.724 112.549 125.724C112.937 125.724 113.301 125.8 113.641 125.952C113.981 126.1 114.271 126.314 114.511 126.594L113.923 127.086C113.531 126.686 113.069 126.486 112.537 126.486C112.189 126.486 111.913 126.56 111.709 126.708C111.509 126.852 111.409 127.052 111.409 127.308C111.409 127.544 111.513 127.748 111.721 127.92C111.929 128.088 112.309 128.274 112.861 128.478C113.309 128.646 113.669 128.824 113.941 129.012C114.213 129.196 114.409 129.406 114.529 129.642C114.653 129.878 114.715 130.15 114.715 130.458C114.715 130.982 114.531 131.394 114.163 131.694C113.795 131.994 113.289 132.144 112.645 132.144ZM118.103 132.144C117.695 132.144 117.303 132.056 116.927 131.88C116.551 131.704 116.235 131.46 115.979 131.148L116.591 130.626C116.811 130.866 117.055 131.052 117.323 131.184C117.591 131.316 117.855 131.382 118.115 131.382C118.507 131.382 118.809 131.302 119.021 131.142C119.237 130.982 119.345 130.758 119.345 130.47C119.345 130.29 119.295 130.126 119.195 129.978C119.099 129.83 118.941 129.692 118.721 129.564C118.501 129.432 118.211 129.298 117.851 129.162C117.203 128.922 116.737 128.66 116.453 128.376C116.169 128.088 116.027 127.732 116.027 127.308C116.027 126.836 116.209 126.454 116.573 126.162C116.941 125.87 117.419 125.724 118.007 125.724C118.395 125.724 118.759 125.8 119.099 125.952C119.439 126.1 119.729 126.314 119.969 126.594L119.381 127.086C118.989 126.686 118.527 126.486 117.995 126.486C117.647 126.486 117.371 126.56 117.167 126.708C116.967 126.852 116.867 127.052 116.867 127.308C116.867 127.544 116.971 127.748 117.179 127.92C117.387 128.088 117.767 128.274 118.319 128.478C118.767 128.646 119.127 128.824 119.399 129.012C119.671 129.196 119.867 129.406 119.987 129.642C120.111 129.878 120.173 130.15 120.173 130.458C120.173 130.982 119.989 131.394 119.621 131.694C119.253 131.994 118.747 132.144 118.103 132.144ZM123.942 132.144C123.134 132.144 122.496 131.858 122.028 131.286C121.56 130.71 121.326 129.928 121.326 128.94C121.326 128.28 121.432 127.71 121.644 127.23C121.856 126.75 122.158 126.38 122.55 126.12C122.942 125.856 123.406 125.724 123.942 125.724C124.482 125.724 124.948 125.854 125.34 126.114C125.732 126.37 126.032 126.738 126.24 127.218C126.452 127.698 126.558 128.268 126.558 128.928C126.558 129.588 126.452 130.16 126.24 130.644C126.028 131.124 125.726 131.494 125.334 131.754C124.942 132.014 124.478 132.144 123.942 132.144ZM123.942 131.352C124.494 131.352 124.924 131.138 125.232 130.71C125.544 130.282 125.7 129.688 125.7 128.928C125.7 128.164 125.544 127.57 125.232 127.146C124.924 126.722 124.494 126.51 123.942 126.51C123.382 126.51 122.948 126.722 122.64 127.146C122.336 127.566 122.184 128.164 122.184 128.94C122.184 129.704 122.338 130.298 122.646 130.722C122.954 131.142 123.386 131.352 123.942 131.352ZM130.085 132.144C129.437 132.144 128.929 131.964 128.561 131.604C128.193 131.24 128.009 130.74 128.009 130.104C128.009 129.696 128.099 129.342 128.279 129.042C128.463 128.742 128.721 128.512 129.053 128.352C129.389 128.188 129.785 128.106 130.241 128.106C130.541 128.106 130.827 128.144 131.099 128.22C131.375 128.296 131.641 128.41 131.897 128.562V127.974C131.897 127.454 131.783 127.072 131.555 126.828C131.331 126.584 130.981 126.462 130.505 126.462C130.221 126.462 129.919 126.516 129.599 126.624C129.283 126.728 128.983 126.876 128.699 127.068L128.453 126.36C128.777 126.156 129.127 126 129.503 125.892C129.879 125.78 130.247 125.724 130.607 125.724C131.295 125.724 131.815 125.904 132.167 126.264C132.519 126.624 132.695 127.154 132.695 127.854V132H131.897V131.304C131.653 131.572 131.373 131.78 131.057 131.928C130.745 132.072 130.421 132.144 130.085 132.144ZM130.193 131.406C130.501 131.406 130.801 131.326 131.093 131.166C131.385 131.002 131.653 130.768 131.897 130.464V129.318C131.661 129.166 131.405 129.05 131.129 128.97C130.857 128.886 130.593 128.844 130.337 128.844C129.877 128.844 129.509 128.96 129.233 129.192C128.961 129.42 128.825 129.726 128.825 130.11C128.825 130.506 128.947 130.822 129.191 131.058C129.435 131.29 129.769 131.406 130.193 131.406ZM136.27 132.144C135.862 132.144 135.47 132.056 135.094 131.88C134.718 131.704 134.402 131.46 134.146 131.148L134.758 130.626C134.978 130.866 135.222 131.052 135.49 131.184C135.758 131.316 136.022 131.382 136.282 131.382C136.674 131.382 136.976 131.302 137.188 131.142C137.404 130.982 137.512 130.758 137.512 130.47C137.512 130.29 137.462 130.126 137.362 129.978C137.266 129.83 137.108 129.692 136.888 129.564C136.668 129.432 136.378 129.298 136.018 129.162C135.37 128.922 134.904 128.66 134.62 128.376C134.336 128.088 134.194 127.732 134.194 127.308C134.194 126.836 134.376 126.454 134.74 126.162C135.108 125.87 135.586 125.724 136.174 125.724C136.562 125.724 136.926 125.8 137.266 125.952C137.606 126.1 137.896 126.314 138.136 126.594L137.548 127.086C137.156 126.686 136.694 126.486 136.162 126.486C135.814 126.486 135.538 126.56 135.334 126.708C135.134 126.852 135.034 127.052 135.034 127.308C135.034 127.544 135.138 127.748 135.346 127.92C135.554 128.088 135.934 128.274 136.486 128.478C136.934 128.646 137.294 128.824 137.566 129.012C137.838 129.196 138.034 129.406 138.154 129.642C138.278 129.878 138.34 130.15 138.34 130.458C138.34 130.982 138.156 131.394 137.788 131.694C137.42 131.994 136.914 132.144 136.27 132.144ZM75.3685 148.556L74.9545 147.884C75.5105 147.852 75.9645 147.772 76.3165 147.644C76.6685 147.52 76.9285 147.342 77.0965 147.11C77.2645 146.878 77.3485 146.584 77.3485 146.228V145.262C76.9805 145.85 76.4245 146.144 75.6805 146.144C75.1885 146.144 74.7585 146.01 74.3905 145.742C74.0225 145.474 73.7365 145.1 73.5325 144.62C73.3285 144.136 73.2265 143.572 73.2265 142.928C73.2265 142.276 73.3285 141.71 73.5325 141.23C73.7405 140.75 74.0305 140.38 74.4025 140.12C74.7745 139.856 75.2145 139.724 75.7225 139.724C76.0545 139.724 76.3645 139.794 76.6525 139.934C76.9445 140.07 77.1765 140.258 77.3485 140.498V139.868H78.1885V145.982C78.1885 146.39 78.1305 146.748 78.0145 147.056C77.9025 147.368 77.7285 147.63 77.4925 147.842C77.2605 148.054 76.9665 148.218 76.6105 148.334C76.2585 148.454 75.8445 148.528 75.3685 148.556ZM75.8305 145.352C76.1305 145.352 76.4185 145.26 76.6945 145.076C76.9705 144.888 77.1885 144.642 77.3485 144.338V141.446C77.1925 141.166 76.9745 140.94 76.6945 140.768C76.4185 140.596 76.1345 140.51 75.8425 140.51C75.2745 140.51 74.8385 140.718 74.5345 141.134C74.2345 141.546 74.0845 142.144 74.0845 142.928C74.0845 143.416 74.1565 143.842 74.3005 144.206C74.4485 144.566 74.6525 144.848 74.9125 145.052C75.1765 145.252 75.4825 145.352 75.8305 145.352ZM81.974 146.144C81.326 146.144 80.818 145.964 80.45 145.604C80.082 145.24 79.898 144.74 79.898 144.104C79.898 143.696 79.988 143.342 80.168 143.042C80.352 142.742 80.61 142.512 80.942 142.352C81.278 142.188 81.674 142.106 82.13 142.106C82.43 142.106 82.716 142.144 82.988 142.22C83.264 142.296 83.53 142.41 83.786 142.562V141.974C83.786 141.454 83.672 141.072 83.444 140.828C83.22 140.584 82.87 140.462 82.394 140.462C82.11 140.462 81.808 140.516 81.488 140.624C81.172 140.728 80.872 140.876 80.588 141.068L80.342 140.36C80.666 140.156 81.016 140 81.392 139.892C81.768 139.78 82.136 139.724 82.496 139.724C83.184 139.724 83.704 139.904 84.056 140.264C84.408 140.624 84.584 141.154 84.584 141.854V146H83.786V145.304C83.542 145.572 83.262 145.78 82.946 145.928C82.634 146.072 82.31 146.144 81.974 146.144ZM82.082 145.406C82.39 145.406 82.69 145.326 82.982 145.166C83.274 145.002 83.542 144.768 83.786 144.464V143.318C83.55 143.166 83.294 143.05 83.018 142.97C82.746 142.886 82.482 142.844 82.226 142.844C81.766 142.844 81.398 142.96 81.122 143.192C80.85 143.42 80.714 143.726 80.714 144.11C80.714 144.506 80.836 144.822 81.08 145.058C81.324 145.29 81.658 145.406 82.082 145.406ZM86.5599 146V139.868H87.3999V140.654C87.5719 140.354 87.7999 140.124 88.0839 139.964C88.3719 139.804 88.6979 139.724 89.0619 139.724C89.7779 139.724 90.3099 139.946 90.6579 140.39C91.0059 140.83 91.1799 141.5 91.1799 142.4V146H90.3399V142.25C90.3399 141.678 90.2199 141.244 89.9799 140.948C89.7399 140.648 89.3919 140.498 88.9359 140.498C88.4319 140.498 88.0499 140.652 87.7899 140.96C87.5299 141.268 87.3999 141.722 87.3999 142.322V146H86.5599ZM93.1547 146V137.726L93.9947 137.336V140.66C94.1667 140.36 94.3967 140.13 94.6847 139.97C94.9727 139.806 95.2967 139.724 95.6567 139.724C96.1727 139.724 96.5847 139.834 96.8927 140.054C97.2047 140.27 97.4287 140.578 97.5647 140.978C97.7047 141.378 97.7747 141.852 97.7747 142.4V146H96.9347V142.25C96.9347 141.722 96.8227 141.298 96.5987 140.978C96.3787 140.658 96.0227 140.498 95.5307 140.498C95.0267 140.498 94.6447 140.652 94.3847 140.96C94.1247 141.268 93.9947 141.722 93.9947 142.322V146H93.1547ZM101.512 146.144C100.864 146.144 100.356 145.964 99.9884 145.604C99.6204 145.24 99.4364 144.74 99.4364 144.104C99.4364 143.696 99.5264 143.342 99.7064 143.042C99.8904 142.742 100.148 142.512 100.48 142.352C100.816 142.188 101.212 142.106 101.668 142.106C101.968 142.106 102.254 142.144 102.526 142.22C102.802 142.296 103.068 142.41 103.324 142.562V141.974C103.324 141.454 103.21 141.072 102.982 140.828C102.758 140.584 102.408 140.462 101.932 140.462C101.648 140.462 101.346 140.516 101.026 140.624C100.71 140.728 100.41 140.876 100.126 141.068L99.8804 140.36C100.204 140.156 100.554 140 100.93 139.892C101.306 139.78 101.674 139.724 102.034 139.724C102.722 139.724 103.242 139.904 103.594 140.264C103.946 140.624 104.122 141.154 104.122 141.854V146H103.324V145.304C103.08 145.572 102.8 145.78 102.484 145.928C102.172 146.072 101.848 146.144 101.512 146.144ZM101.62 145.406C101.928 145.406 102.228 145.326 102.52 145.166C102.812 145.002 103.08 144.768 103.324 144.464V143.318C103.088 143.166 102.832 143.05 102.556 142.97C102.284 142.886 102.02 142.844 101.764 142.844C101.304 142.844 100.936 142.96 100.66 143.192C100.388 143.42 100.252 143.726 100.252 144.11C100.252 144.506 100.374 144.822 100.618 145.058C100.862 145.29 101.196 145.406 101.62 145.406ZM106.098 146V139.868H106.938V140.588C107.114 140.308 107.344 140.094 107.628 139.946C107.912 139.798 108.23 139.724 108.582 139.724C108.97 139.724 109.308 139.82 109.596 140.012C109.888 140.204 110.104 140.474 110.244 140.822C110.416 140.478 110.66 140.21 110.976 140.018C111.296 139.822 111.652 139.724 112.044 139.724C112.68 139.724 113.186 139.922 113.562 140.318C113.938 140.71 114.126 141.242 114.126 141.914V146H113.286V142.238C113.286 141.67 113.172 141.238 112.944 140.942C112.716 140.646 112.386 140.498 111.954 140.498C111.67 140.498 111.42 140.572 111.204 140.72C110.992 140.868 110.826 141.076 110.706 141.344C110.586 141.608 110.526 141.914 110.526 142.262V146H109.686V142.238C109.686 141.666 109.576 141.234 109.356 140.942C109.136 140.646 108.808 140.498 108.372 140.498C107.928 140.498 107.578 140.656 107.322 140.972C107.066 141.284 106.938 141.712 106.938 142.256V146H106.098ZM120.975 146.144C120.167 146.144 119.529 145.858 119.061 145.286C118.593 144.71 118.359 143.928 118.359 142.94C118.359 142.28 118.465 141.71 118.677 141.23C118.889 140.75 119.191 140.38 119.583 140.12C119.975 139.856 120.439 139.724 120.975 139.724C121.515 139.724 121.981 139.854 122.373 140.114C122.765 140.37 123.065 140.738 123.273 141.218C123.485 141.698 123.591 142.268 123.591 142.928C123.591 143.588 123.485 144.16 123.273 144.644C123.061 145.124 122.759 145.494 122.367 145.754C121.975 146.014 121.511 146.144 120.975 146.144ZM120.975 145.352C121.527 145.352 121.957 145.138 122.265 144.71C122.577 144.282 122.733 143.688 122.733 142.928C122.733 142.164 122.577 141.57 122.265 141.146C121.957 140.722 121.527 140.51 120.975 140.51C120.415 140.51 119.981 140.722 119.673 141.146C119.369 141.566 119.217 142.164 119.217 142.94C119.217 143.704 119.371 144.298 119.679 144.722C119.987 145.142 120.419 145.352 120.975 145.352ZM127.326 146.144C126.602 146.144 126.062 145.924 125.706 145.484C125.354 145.044 125.178 144.374 125.178 143.474V139.868H126.018V143.612C126.018 144.188 126.138 144.624 126.378 144.92C126.618 145.216 126.966 145.364 127.422 145.364C127.93 145.364 128.312 145.21 128.568 144.902C128.828 144.59 128.958 144.134 128.958 143.534V139.868H129.798V146H128.958V145.262C128.774 145.558 128.546 145.78 128.274 145.928C128.006 146.072 127.69 146.144 127.326 146.144ZM133.357 148.562L132.955 147.914C133.515 147.838 133.913 147.69 134.149 147.47C134.385 147.254 134.503 146.928 134.503 146.492V139.868H135.343V146.228C135.343 146.928 135.183 147.47 134.863 147.854C134.543 148.238 134.041 148.474 133.357 148.562ZM134.923 138.638C134.771 138.638 134.641 138.584 134.533 138.476C134.425 138.368 134.371 138.238 134.371 138.086C134.371 137.926 134.425 137.792 134.533 137.684C134.641 137.572 134.771 137.516 134.923 137.516C135.075 137.516 135.205 137.57 135.313 137.678C135.421 137.786 135.475 137.922 135.475 138.086C135.475 138.238 135.423 138.368 135.319 138.476C135.215 138.584 135.083 138.638 134.923 138.638ZM139.098 146.144C138.45 146.144 137.942 145.964 137.574 145.604C137.206 145.24 137.022 144.74 137.022 144.104C137.022 143.696 137.112 143.342 137.292 143.042C137.476 142.742 137.734 142.512 138.066 142.352C138.402 142.188 138.798 142.106 139.254 142.106C139.554 142.106 139.84 142.144 140.112 142.22C140.388 142.296 140.654 142.41 140.91 142.562V141.974C140.91 141.454 140.796 141.072 140.568 140.828C140.344 140.584 139.994 140.462 139.518 140.462C139.234 140.462 138.932 140.516 138.612 140.624C138.296 140.728 137.996 140.876 137.712 141.068L137.466 140.36C137.79 140.156 138.14 140 138.516 139.892C138.892 139.78 139.26 139.724 139.62 139.724C140.308 139.724 140.828 139.904 141.18 140.264C141.532 140.624 141.708 141.154 141.708 141.854V146H140.91V145.304C140.666 145.572 140.386 145.78 140.07 145.928C139.758 146.072 139.434 146.144 139.098 146.144ZM139.206 145.406C139.514 145.406 139.814 145.326 140.106 145.166C140.398 145.002 140.666 144.768 140.91 144.464V143.318C140.674 143.166 140.418 143.05 140.142 142.97C139.87 142.886 139.606 142.844 139.35 142.844C138.89 142.844 138.522 142.96 138.246 143.192C137.974 143.42 137.838 143.726 137.838 144.11C137.838 144.506 137.96 144.822 138.204 145.058C138.448 145.29 138.782 145.406 139.206 145.406ZM138.996 139.088L140.736 137.216H141.948L139.848 139.088H138.996ZM61.1021 162.556L60.6881 161.884C61.2441 161.852 61.6981 161.772 62.0501 161.644C62.4021 161.52 62.6621 161.342 62.8301 161.11C62.9981 160.878 63.0821 160.584 63.0821 160.228V159.262C62.7141 159.85 62.1581 160.144 61.4141 160.144C60.9221 160.144 60.4921 160.01 60.1241 159.742C59.7561 159.474 59.4701 159.1 59.2661 158.62C59.0621 158.136 58.9601 157.572 58.9601 156.928C58.9601 156.276 59.0621 155.71 59.2661 155.23C59.4741 154.75 59.7641 154.38 60.1361 154.12C60.5081 153.856 60.9481 153.724 61.4561 153.724C61.7881 153.724 62.0981 153.794 62.3861 153.934C62.6781 154.07 62.9101 154.258 63.0821 154.498V153.868H63.9221V159.982C63.9221 160.39 63.8641 160.748 63.7481 161.056C63.6361 161.368 63.4621 161.63 63.2261 161.842C62.9941 162.054 62.7001 162.218 62.3441 162.334C61.9921 162.454 61.5781 162.528 61.1021 162.556ZM61.5641 159.352C61.8641 159.352 62.1521 159.26 62.4281 159.076C62.7041 158.888 62.9221 158.642 63.0821 158.338V155.446C62.9261 155.166 62.7081 154.94 62.4281 154.768C62.1521 154.596 61.8681 154.51 61.5761 154.51C61.0081 154.51 60.5721 154.718 60.2681 155.134C59.9681 155.546 59.8181 156.144 59.8181 156.928C59.8181 157.416 59.8901 157.842 60.0341 158.206C60.1821 158.566 60.3861 158.848 60.6461 159.052C60.9101 159.252 61.2161 159.352 61.5641 159.352ZM67.7076 160.144C67.0596 160.144 66.5516 159.964 66.1836 159.604C65.8156 159.24 65.6316 158.74 65.6316 158.104C65.6316 157.696 65.7216 157.342 65.9016 157.042C66.0856 156.742 66.3436 156.512 66.6756 156.352C67.0116 156.188 67.4076 156.106 67.8636 156.106C68.1636 156.106 68.4496 156.144 68.7216 156.22C68.9976 156.296 69.2636 156.41 69.5196 156.562V155.974C69.5196 155.454 69.4056 155.072 69.1776 154.828C68.9536 154.584 68.6036 154.462 68.1276 154.462C67.8436 154.462 67.5416 154.516 67.2216 154.624C66.9056 154.728 66.6056 154.876 66.3216 155.068L66.0756 154.36C66.3996 154.156 66.7496 154 67.1256 153.892C67.5016 153.78 67.8696 153.724 68.2296 153.724C68.9176 153.724 69.4376 153.904 69.7896 154.264C70.1416 154.624 70.3176 155.154 70.3176 155.854V160H69.5196V159.304C69.2756 159.572 68.9956 159.78 68.6796 159.928C68.3676 160.072 68.0436 160.144 67.7076 160.144ZM67.8156 159.406C68.1236 159.406 68.4236 159.326 68.7156 159.166C69.0076 159.002 69.2756 158.768 69.5196 158.464V157.318C69.2836 157.166 69.0276 157.05 68.7516 156.97C68.4796 156.886 68.2156 156.844 67.9596 156.844C67.4996 156.844 67.1316 156.96 66.8556 157.192C66.5836 157.42 66.4476 157.726 66.4476 158.11C66.4476 158.506 66.5696 158.822 66.8136 159.058C67.0576 159.29 67.3916 159.406 67.8156 159.406ZM72.2935 160V153.868H73.1335V154.654C73.3055 154.354 73.5335 154.124 73.8175 153.964C74.1055 153.804 74.4315 153.724 74.7955 153.724C75.5115 153.724 76.0435 153.946 76.3915 154.39C76.7395 154.83 76.9135 155.5 76.9135 156.4V160H76.0735V156.25C76.0735 155.678 75.9535 155.244 75.7135 154.948C75.4735 154.648 75.1255 154.498 74.6695 154.498C74.1655 154.498 73.7835 154.652 73.5235 154.96C73.2635 155.268 73.1335 155.722 73.1335 156.322V160H72.2935ZM78.8883 160V151.726L79.7283 151.336V154.66C79.9003 154.36 80.1303 154.13 80.4183 153.97C80.7063 153.806 81.0303 153.724 81.3903 153.724C81.9063 153.724 82.3183 153.834 82.6263 154.054C82.9383 154.27 83.1623 154.578 83.2983 154.978C83.4383 155.378 83.5083 155.852 83.5083 156.4V160H82.6683V156.25C82.6683 155.722 82.5563 155.298 82.3323 154.978C82.1123 154.658 81.7563 154.498 81.2643 154.498C80.7603 154.498 80.3783 154.652 80.1183 154.96C79.8583 155.268 79.7283 155.722 79.7283 156.322V160H78.8883ZM87.246 160.144C86.598 160.144 86.09 159.964 85.722 159.604C85.354 159.24 85.17 158.74 85.17 158.104C85.17 157.696 85.26 157.342 85.44 157.042C85.624 156.742 85.882 156.512 86.214 156.352C86.55 156.188 86.946 156.106 87.402 156.106C87.702 156.106 87.988 156.144 88.26 156.22C88.536 156.296 88.802 156.41 89.058 156.562V155.974C89.058 155.454 88.944 155.072 88.716 154.828C88.492 154.584 88.142 154.462 87.666 154.462C87.382 154.462 87.08 154.516 86.76 154.624C86.444 154.728 86.144 154.876 85.86 155.068L85.614 154.36C85.938 154.156 86.288 154 86.664 153.892C87.04 153.78 87.408 153.724 87.768 153.724C88.456 153.724 88.976 153.904 89.328 154.264C89.68 154.624 89.856 155.154 89.856 155.854V160H89.058V159.304C88.814 159.572 88.534 159.78 88.218 159.928C87.906 160.072 87.582 160.144 87.246 160.144ZM87.354 159.406C87.662 159.406 87.962 159.326 88.254 159.166C88.546 159.002 88.814 158.768 89.058 158.464V157.318C88.822 157.166 88.566 157.05 88.29 156.97C88.018 156.886 87.754 156.844 87.498 156.844C87.038 156.844 86.67 156.96 86.394 157.192C86.122 157.42 85.986 157.726 85.986 158.11C85.986 158.506 86.108 158.822 86.352 159.058C86.596 159.29 86.93 159.406 87.354 159.406ZM91.8319 160V153.868H92.6719V154.84C92.8239 154.48 93.0339 154.204 93.3019 154.012C93.5739 153.82 93.8879 153.724 94.2439 153.724C94.6119 153.724 94.9119 153.822 95.1439 154.018L95.0179 154.816C94.8979 154.732 94.7659 154.67 94.6219 154.63C94.4819 154.59 94.3299 154.57 94.1659 154.57C93.8699 154.57 93.6099 154.654 93.3859 154.822C93.1619 154.99 92.9859 155.224 92.8579 155.524C92.7339 155.82 92.6719 156.166 92.6719 156.562V160H91.8319ZM97.8341 160.144C97.1861 160.144 96.6781 159.964 96.3101 159.604C95.9421 159.24 95.7581 158.74 95.7581 158.104C95.7581 157.696 95.8481 157.342 96.0281 157.042C96.2121 156.742 96.4701 156.512 96.8021 156.352C97.1381 156.188 97.5341 156.106 97.9901 156.106C98.2901 156.106 98.5761 156.144 98.8481 156.22C99.1241 156.296 99.3901 156.41 99.6461 156.562V155.974C99.6461 155.454 99.5321 155.072 99.3041 154.828C99.0801 154.584 98.7301 154.462 98.2541 154.462C97.9701 154.462 97.6681 154.516 97.3481 154.624C97.0321 154.728 96.7321 154.876 96.4481 155.068L96.2021 154.36C96.5261 154.156 96.8761 154 97.2521 153.892C97.6281 153.78 97.9961 153.724 98.3561 153.724C99.0441 153.724 99.5641 153.904 99.9161 154.264C100.268 154.624 100.444 155.154 100.444 155.854V160H99.6461V159.304C99.4021 159.572 99.1221 159.78 98.8061 159.928C98.4941 160.072 98.1701 160.144 97.8341 160.144ZM97.9421 159.406C98.2501 159.406 98.5501 159.326 98.8421 159.166C99.1341 159.002 99.4021 158.768 99.6461 158.464V157.318C99.4101 157.166 99.1541 157.05 98.8781 156.97C98.6061 156.886 98.3421 156.844 98.0861 156.844C97.6261 156.844 97.2581 156.96 96.9821 157.192C96.7101 157.42 96.5741 157.726 96.5741 158.11C96.5741 158.506 96.6961 158.822 96.9401 159.058C97.1841 159.29 97.5181 159.406 97.9421 159.406ZM102.42 160V153.868H103.26V154.588C103.436 154.308 103.666 154.094 103.95 153.946C104.234 153.798 104.552 153.724 104.904 153.724C105.292 153.724 105.63 153.82 105.918 154.012C106.21 154.204 106.426 154.474 106.566 154.822C106.738 154.478 106.982 154.21 107.298 154.018C107.618 153.822 107.974 153.724 108.366 153.724C109.002 153.724 109.508 153.922 109.884 154.318C110.26 154.71 110.448 155.242 110.448 155.914V160H109.608V156.238C109.608 155.67 109.494 155.238 109.266 154.942C109.038 154.646 108.708 154.498 108.276 154.498C107.992 154.498 107.742 154.572 107.526 154.72C107.314 154.868 107.148 155.076 107.028 155.344C106.908 155.608 106.848 155.914 106.848 156.262V160H106.008V156.238C106.008 155.666 105.898 155.234 105.678 154.942C105.458 154.646 105.13 154.498 104.694 154.498C104.25 154.498 103.9 154.656 103.644 154.972C103.388 155.284 103.26 155.712 103.26 156.256V160H102.42ZM117.147 160.144C116.387 160.144 115.785 159.856 115.341 159.28C114.901 158.7 114.681 157.916 114.681 156.928C114.681 156.264 114.781 155.694 114.981 155.218C115.181 154.738 115.467 154.37 115.839 154.114C116.215 153.854 116.661 153.724 117.177 153.724C117.813 153.724 118.351 153.968 118.791 154.456V151.738L119.631 151.336V160H118.791V159.388C118.363 159.892 117.815 160.144 117.147 160.144ZM117.273 159.352C117.573 159.352 117.859 159.266 118.131 159.094C118.403 158.918 118.623 158.68 118.791 158.38V155.44C118.611 155.152 118.385 154.926 118.113 154.762C117.845 154.594 117.565 154.51 117.273 154.51C116.721 154.51 116.293 154.72 115.989 155.14C115.689 155.556 115.539 156.152 115.539 156.928C115.539 157.404 115.613 157.824 115.761 158.188C115.909 158.552 116.113 158.838 116.373 159.046C116.633 159.25 116.933 159.352 117.273 159.352ZM121.678 160V153.868H122.518V160H121.678ZM122.092 152.638C121.94 152.638 121.81 152.584 121.702 152.476C121.598 152.368 121.546 152.238 121.546 152.086C121.546 151.926 121.598 151.792 121.702 151.684C121.81 151.572 121.94 151.516 122.092 151.516C122.252 151.516 122.384 151.572 122.488 151.684C122.596 151.792 122.65 151.926 122.65 152.086C122.65 152.238 122.596 152.368 122.488 152.476C122.384 152.584 122.252 152.638 122.092 152.638ZM124.557 160V153.868H125.397V154.654C125.569 154.354 125.797 154.124 126.081 153.964C126.369 153.804 126.695 153.724 127.059 153.724C127.775 153.724 128.307 153.946 128.655 154.39C129.003 154.83 129.177 155.5 129.177 156.4V160H128.337V156.25C128.337 155.678 128.217 155.244 127.977 154.948C127.737 154.648 127.389 154.498 126.933 154.498C126.429 154.498 126.047 154.652 125.787 154.96C125.527 155.268 125.397 155.722 125.397 156.322V160H124.557ZM131.152 160V151.726L131.992 151.336V154.66C132.164 154.36 132.394 154.13 132.682 153.97C132.97 153.806 133.294 153.724 133.654 153.724C134.17 153.724 134.582 153.834 134.89 154.054C135.202 154.27 135.426 154.578 135.562 154.978C135.702 155.378 135.772 155.852 135.772 156.4V160H134.932V156.25C134.932 155.722 134.82 155.298 134.596 154.978C134.376 154.658 134.02 154.498 133.528 154.498C133.024 154.498 132.642 154.652 132.382 154.96C132.122 155.268 131.992 155.722 131.992 156.322V160H131.152ZM140.179 160.144C139.635 160.144 139.165 160.01 138.769 159.742C138.377 159.47 138.075 159.092 137.863 158.608C137.651 158.124 137.545 157.564 137.545 156.928C137.545 156.252 137.655 155.676 137.875 155.2C138.099 154.72 138.409 154.354 138.805 154.102C139.201 153.85 139.659 153.724 140.179 153.724C140.631 153.724 141.041 153.83 141.409 154.042C141.777 154.254 142.069 154.582 142.285 155.026C142.501 155.47 142.609 156.04 142.609 156.736C142.609 156.808 142.607 156.89 142.603 156.982C142.599 157.07 142.593 157.162 142.585 157.258H138.415C138.447 157.682 138.533 158.054 138.673 158.374C138.817 158.69 139.015 158.94 139.267 159.124C139.523 159.304 139.837 159.394 140.209 159.394C140.461 159.394 140.703 159.35 140.935 159.262C141.167 159.17 141.383 159.03 141.583 158.842L142.075 159.406C141.851 159.618 141.575 159.794 141.247 159.934C140.923 160.074 140.567 160.144 140.179 160.144ZM138.403 156.52H141.751C141.751 156.14 141.693 155.794 141.577 155.482C141.465 155.17 141.291 154.922 141.055 154.738C140.823 154.554 140.531 154.462 140.179 154.462C139.703 154.462 139.297 154.626 138.961 154.954C138.629 155.282 138.443 155.804 138.403 156.52ZM144.213 160V153.868H145.053V160H144.213ZM144.627 152.638C144.475 152.638 144.345 152.584 144.237 152.476C144.133 152.368 144.081 152.238 144.081 152.086C144.081 151.926 144.133 151.792 144.237 151.684C144.345 151.572 144.475 151.516 144.627 151.516C144.787 151.516 144.919 151.572 145.023 151.684C145.131 151.792 145.185 151.926 145.185 152.086C145.185 152.238 145.131 152.368 145.023 152.476C144.919 152.584 144.787 152.638 144.627 152.638ZM147.093 160V153.868H147.933V154.84C148.085 154.48 148.295 154.204 148.563 154.012C148.835 153.82 149.149 153.724 149.505 153.724C149.873 153.724 150.173 153.822 150.405 154.018L150.279 154.816C150.159 154.732 150.027 154.67 149.883 154.63C149.743 154.59 149.591 154.57 149.427 154.57C149.131 154.57 148.871 154.654 148.647 154.822C148.423 154.99 148.247 155.224 148.119 155.524C147.995 155.82 147.933 156.166 147.933 156.562V160H147.093ZM153.547 160.144C152.739 160.144 152.101 159.858 151.633 159.286C151.165 158.71 150.931 157.928 150.931 156.94C150.931 156.28 151.037 155.71 151.249 155.23C151.461 154.75 151.763 154.38 152.155 154.12C152.547 153.856 153.011 153.724 153.547 153.724C154.087 153.724 154.553 153.854 154.945 154.114C155.337 154.37 155.637 154.738 155.845 155.218C156.057 155.698 156.163 156.268 156.163 156.928C156.163 157.588 156.057 158.16 155.845 158.644C155.633 159.124 155.331 159.494 154.939 159.754C154.547 160.014 154.083 160.144 153.547 160.144ZM153.547 159.352C154.099 159.352 154.529 159.138 154.837 158.71C155.149 158.282 155.305 157.688 155.305 156.928C155.305 156.164 155.149 155.57 154.837 155.146C154.529 154.722 154.099 154.51 153.547 154.51C152.987 154.51 152.553 154.722 152.245 155.146C151.941 155.566 151.789 156.164 151.789 156.94C151.789 157.704 151.943 158.298 152.251 158.722C152.559 159.142 152.991 159.352 153.547 159.352ZM82.8418 174.144C82.3378 174.144 81.9038 174.016 81.5398 173.76C81.1758 173.5 80.8958 173.132 80.6998 172.656C80.5078 172.176 80.4118 171.604 80.4118 170.94C80.4118 170.272 80.5118 169.698 80.7118 169.218C80.9118 168.738 81.1978 168.37 81.5698 168.114C81.9418 167.854 82.3858 167.724 82.9018 167.724C83.3938 167.724 83.8138 167.844 84.1618 168.084C84.5138 168.32 84.7698 168.66 84.9298 169.104L84.1318 169.398C84.0278 169.114 83.8698 168.896 83.6578 168.744C83.4458 168.592 83.1978 168.516 82.9138 168.516C82.3818 168.516 81.9758 168.722 81.6958 169.134C81.4198 169.546 81.2818 170.148 81.2818 170.94C81.2818 171.7 81.4198 172.292 81.6958 172.716C81.9718 173.136 82.3598 173.346 82.8598 173.346C83.1878 173.346 83.4698 173.258 83.7058 173.082C83.9418 172.906 84.1058 172.666 84.1978 172.362L84.9898 172.626C84.8498 173.106 84.5898 173.48 84.2098 173.748C83.8338 174.012 83.3778 174.144 82.8418 174.144ZM88.8258 174.144C88.0178 174.144 87.3798 173.858 86.9118 173.286C86.4438 172.71 86.2098 171.928 86.2098 170.94C86.2098 170.28 86.3158 169.71 86.5278 169.23C86.7398 168.75 87.0418 168.38 87.4338 168.12C87.8258 167.856 88.2898 167.724 88.8258 167.724C89.3658 167.724 89.8318 167.854 90.2238 168.114C90.6158 168.37 90.9158 168.738 91.1238 169.218C91.3358 169.698 91.4418 170.268 91.4418 170.928C91.4418 171.588 91.3358 172.16 91.1238 172.644C90.9118 173.124 90.6098 173.494 90.2178 173.754C89.8258 174.014 89.3618 174.144 88.8258 174.144ZM88.8258 173.352C89.3778 173.352 89.8078 173.138 90.1158 172.71C90.4278 172.282 90.5838 171.688 90.5838 170.928C90.5838 170.164 90.4278 169.57 90.1158 169.146C89.8078 168.722 89.3778 168.51 88.8258 168.51C88.2658 168.51 87.8318 168.722 87.5238 169.146C87.2198 169.566 87.0678 170.164 87.0678 170.94C87.0678 171.704 87.2218 172.298 87.5298 172.722C87.8378 173.142 88.2698 173.352 88.8258 173.352ZM93.042 174V167.868H93.882V168.588C94.058 168.308 94.288 168.094 94.572 167.946C94.856 167.798 95.174 167.724 95.526 167.724C95.914 167.724 96.252 167.82 96.54 168.012C96.832 168.204 97.048 168.474 97.188 168.822C97.36 168.478 97.604 168.21 97.92 168.018C98.24 167.822 98.596 167.724 98.988 167.724C99.624 167.724 100.13 167.922 100.506 168.318C100.882 168.71 101.07 169.242 101.07 169.914V174H100.23V170.238C100.23 169.67 100.116 169.238 99.888 168.942C99.66 168.646 99.33 168.498 98.898 168.498C98.614 168.498 98.364 168.572 98.148 168.72C97.936 168.868 97.77 169.076 97.65 169.344C97.53 169.608 97.47 169.914 97.47 170.262V174H96.63V170.238C96.63 169.666 96.52 169.234 96.3 168.942C96.08 168.646 95.752 168.498 95.316 168.498C94.872 168.498 94.522 168.656 94.266 168.972C94.01 169.284 93.882 169.712 93.882 170.256V174H93.042ZM104.559 176.562L104.157 175.914C104.717 175.838 105.115 175.69 105.351 175.47C105.587 175.254 105.705 174.928 105.705 174.492V167.868H106.545V174.228C106.545 174.928 106.385 175.47 106.065 175.854C105.745 176.238 105.243 176.474 104.559 176.562ZM106.125 166.638C105.973 166.638 105.843 166.584 105.735 166.476C105.627 166.368 105.573 166.238 105.573 166.086C105.573 165.926 105.627 165.792 105.735 165.684C105.843 165.572 105.973 165.516 106.125 165.516C106.277 165.516 106.407 165.57 106.515 165.678C106.623 165.786 106.677 165.922 106.677 166.086C106.677 166.238 106.625 166.368 106.521 166.476C106.417 166.584 106.285 166.638 106.125 166.638ZM110.822 174.144C110.014 174.144 109.376 173.858 108.908 173.286C108.44 172.71 108.206 171.928 108.206 170.94C108.206 170.28 108.312 169.71 108.524 169.23C108.736 168.75 109.038 168.38 109.43 168.12C109.822 167.856 110.286 167.724 110.822 167.724C111.362 167.724 111.828 167.854 112.22 168.114C112.612 168.37 112.912 168.738 113.12 169.218C113.332 169.698 113.438 170.268 113.438 170.928C113.438 171.588 113.332 172.16 113.12 172.644C112.908 173.124 112.606 173.494 112.214 173.754C111.822 174.014 111.358 174.144 110.822 174.144ZM110.822 173.352C111.374 173.352 111.804 173.138 112.112 172.71C112.424 172.282 112.58 171.688 112.58 170.928C112.58 170.164 112.424 169.57 112.112 169.146C111.804 168.722 111.374 168.51 110.822 168.51C110.262 168.51 109.828 168.722 109.52 169.146C109.216 169.566 109.064 170.164 109.064 170.94C109.064 171.704 109.218 172.298 109.526 172.722C109.834 173.142 110.266 173.352 110.822 173.352ZM116.955 176.556L116.541 175.884C117.097 175.852 117.551 175.772 117.903 175.644C118.255 175.52 118.515 175.342 118.683 175.11C118.851 174.878 118.935 174.584 118.935 174.228V173.262C118.567 173.85 118.011 174.144 117.267 174.144C116.775 174.144 116.345 174.01 115.977 173.742C115.609 173.474 115.323 173.1 115.119 172.62C114.915 172.136 114.813 171.572 114.813 170.928C114.813 170.276 114.915 169.71 115.119 169.23C115.327 168.75 115.617 168.38 115.989 168.12C116.361 167.856 116.801 167.724 117.309 167.724C117.641 167.724 117.951 167.794 118.239 167.934C118.531 168.07 118.763 168.258 118.935 168.498V167.868H119.775V173.982C119.775 174.39 119.717 174.748 119.601 175.056C119.489 175.368 119.315 175.63 119.079 175.842C118.847 176.054 118.553 176.218 118.197 176.334C117.845 176.454 117.431 176.528 116.955 176.556ZM117.417 173.352C117.717 173.352 118.005 173.26 118.281 173.076C118.557 172.888 118.775 172.642 118.935 172.338V169.446C118.779 169.166 118.561 168.94 118.281 168.768C118.005 168.596 117.721 168.51 117.429 168.51C116.861 168.51 116.425 168.718 116.121 169.134C115.821 169.546 115.671 170.144 115.671 170.928C115.671 171.416 115.743 171.842 115.887 172.206C116.035 172.566 116.239 172.848 116.499 173.052C116.763 173.252 117.069 173.352 117.417 173.352ZM123.989 174.144C123.181 174.144 122.543 173.858 122.075 173.286C121.607 172.71 121.373 171.928 121.373 170.94C121.373 170.28 121.479 169.71 121.691 169.23C121.903 168.75 122.205 168.38 122.597 168.12C122.989 167.856 123.453 167.724 123.989 167.724C124.529 167.724 124.995 167.854 125.387 168.114C125.779 168.37 126.079 168.738 126.287 169.218C126.499 169.698 126.605 170.268 126.605 170.928C126.605 171.588 126.499 172.16 126.287 172.644C126.075 173.124 125.773 173.494 125.381 173.754C124.989 174.014 124.525 174.144 123.989 174.144ZM123.989 173.352C124.541 173.352 124.971 173.138 125.279 172.71C125.591 172.282 125.747 171.688 125.747 170.928C125.747 170.164 125.591 169.57 125.279 169.146C124.971 168.722 124.541 168.51 123.989 168.51C123.429 168.51 122.995 168.722 122.687 169.146C122.383 169.566 122.231 170.164 122.231 170.94C122.231 171.704 122.385 172.298 122.693 172.722C123.001 173.142 123.433 173.352 123.989 173.352ZM129.874 174.144C129.466 174.144 129.074 174.056 128.698 173.88C128.322 173.704 128.006 173.46 127.75 173.148L128.362 172.626C128.582 172.866 128.826 173.052 129.094 173.184C129.362 173.316 129.626 173.382 129.886 173.382C130.278 173.382 130.58 173.302 130.792 173.142C131.008 172.982 131.116 172.758 131.116 172.47C131.116 172.29 131.066 172.126 130.966 171.978C130.87 171.83 130.712 171.692 130.492 171.564C130.272 171.432 129.982 171.298 129.622 171.162C128.974 170.922 128.508 170.66 128.224 170.376C127.94 170.088 127.798 169.732 127.798 169.308C127.798 168.836 127.98 168.454 128.344 168.162C128.712 167.87 129.19 167.724 129.778 167.724C130.166 167.724 130.53 167.8 130.87 167.952C131.21 168.1 131.5 168.314 131.74 168.594L131.152 169.086C130.76 168.686 130.298 168.486 129.766 168.486C129.418 168.486 129.142 168.56 128.938 168.708C128.738 168.852 128.638 169.052 128.638 169.308C128.638 169.544 128.742 169.748 128.95 169.92C129.158 170.088 129.538 170.274 130.09 170.478C130.538 170.646 130.898 170.824 131.17 171.012C131.442 171.196 131.638 171.406 131.758 171.642C131.882 171.878 131.944 172.15 131.944 172.458C131.944 172.982 131.76 173.394 131.392 173.694C131.024 173.994 130.518 174.144 129.874 174.144Z" fill="black"/>
<path d="M218.633 58.248H212.809V53.448L220.489 37.704H209.609V32.2H226.953V37.256L218.953 53.448H220.553C224.905 53.448 227.785 56.392 227.785 60.872V101.512C227.785 105.992 224.905 109 220.553 109H216.201L209.097 99.08V64.2C209.097 63.56 209.417 63.24 210.057 63.24H215.369V101.256L217.353 104.2H218.633C220.553 104.2 221.513 103.24 221.513 101.256V61.128C221.513 59.208 220.553 58.248 218.633 58.248ZM231.682 66.76H236.994V101.32C236.994 103.304 237.954 104.2 239.874 104.2H241.154L243.138 101.256V62.728H237.954C233.666 62.728 230.786 59.72 230.786 55.24V42.12L237.826 32.2H242.242C246.53 32.2 249.41 35.144 249.41 39.624V99.08L242.37 109H237.954C233.282 109 230.722 106.44 230.722 101.832V67.72C230.722 67.08 231.042 66.76 231.682 66.76ZM240.258 37H239.042L237.058 39.944V54.984C237.058 56.904 238.018 57.928 239.938 57.928H243.138V39.88C243.138 37.96 242.178 37 240.258 37ZM267.194 84.168L261.754 91.848H258.426C255.098 91.848 252.858 89.544 252.858 86.088V39.88L258.234 32.2H261.626C264.954 32.2 267.194 34.504 267.194 37.96V84.168ZM264.25 109H260.282L284.282 32.2H288.25L264.25 109ZM257.21 38.472V55.816L262.842 41.544V38.216C262.842 36.424 261.946 35.528 260.154 35.528H259.194L257.21 38.472ZM259.898 88.52H260.858L262.842 85.576V45.448L257.21 59.656V85.832C257.21 87.624 258.106 88.52 259.898 88.52ZM295.482 101.32L290.106 109H286.714C283.386 109 281.146 106.696 281.146 103.24V58.376L286.586 50.696H289.914C293.242 50.696 295.482 53 295.482 56.392V101.32ZM285.498 56.968V74.312L291.13 60.04V56.712C291.13 54.856 290.234 54.024 288.442 54.024H287.482L285.498 56.968ZM288.186 105.672H289.146L291.13 102.728V63.944L285.498 78.152V102.984C285.498 104.776 286.394 105.672 288.186 105.672Z" fill="black"/>
<path d="M204.535 132.144C203.775 132.144 203.173 131.856 202.729 131.28C202.289 130.7 202.069 129.916 202.069 128.928C202.069 128.264 202.169 127.694 202.369 127.218C202.569 126.738 202.855 126.37 203.227 126.114C203.603 125.854 204.049 125.724 204.565 125.724C205.201 125.724 205.739 125.968 206.179 126.456V123.738L207.019 123.336V132H206.179V131.388C205.751 131.892 205.203 132.144 204.535 132.144ZM204.661 131.352C204.961 131.352 205.247 131.266 205.519 131.094C205.791 130.918 206.011 130.68 206.179 130.38V127.44C205.999 127.152 205.773 126.926 205.501 126.762C205.233 126.594 204.953 126.51 204.661 126.51C204.109 126.51 203.681 126.72 203.377 127.14C203.077 127.556 202.927 128.152 202.927 128.928C202.927 129.404 203.001 129.824 203.149 130.188C203.297 130.552 203.501 130.838 203.761 131.046C204.021 131.25 204.321 131.352 204.661 131.352ZM210.758 132.144C210.11 132.144 209.602 131.964 209.234 131.604C208.866 131.24 208.682 130.74 208.682 130.104C208.682 129.696 208.772 129.342 208.952 129.042C209.136 128.742 209.394 128.512 209.726 128.352C210.062 128.188 210.458 128.106 210.914 128.106C211.214 128.106 211.5 128.144 211.772 128.22C212.048 128.296 212.314 128.41 212.57 128.562V127.974C212.57 127.454 212.456 127.072 212.228 126.828C212.004 126.584 211.654 126.462 211.178 126.462C210.894 126.462 210.592 126.516 210.272 126.624C209.956 126.728 209.656 126.876 209.372 127.068L209.126 126.36C209.45 126.156 209.8 126 210.176 125.892C210.552 125.78 210.92 125.724 211.28 125.724C211.968 125.724 212.488 125.904 212.84 126.264C213.192 126.624 213.368 127.154 213.368 127.854V132H212.57V131.304C212.326 131.572 212.046 131.78 211.73 131.928C211.418 132.072 211.094 132.144 210.758 132.144ZM210.866 131.406C211.174 131.406 211.474 131.326 211.766 131.166C212.058 131.002 212.326 130.768 212.57 130.464V129.318C212.334 129.166 212.078 129.05 211.802 128.97C211.53 128.886 211.266 128.844 211.01 128.844C210.55 128.844 210.182 128.96 209.906 129.192C209.634 129.42 209.498 129.726 209.498 130.11C209.498 130.506 209.62 130.822 209.864 131.058C210.108 131.29 210.442 131.406 210.866 131.406ZM216.943 132.144C216.535 132.144 216.143 132.056 215.767 131.88C215.391 131.704 215.075 131.46 214.819 131.148L215.431 130.626C215.651 130.866 215.895 131.052 216.163 131.184C216.431 131.316 216.695 131.382 216.955 131.382C217.347 131.382 217.649 131.302 217.861 131.142C218.077 130.982 218.185 130.758 218.185 130.47C218.185 130.29 218.135 130.126 218.035 129.978C217.939 129.83 217.781 129.692 217.561 129.564C217.341 129.432 217.051 129.298 216.691 129.162C216.043 128.922 215.577 128.66 215.293 128.376C215.009 128.088 214.867 127.732 214.867 127.308C214.867 126.836 215.049 126.454 215.413 126.162C215.781 125.87 216.259 125.724 216.847 125.724C217.235 125.724 217.599 125.8 217.939 125.952C218.279 126.1 218.569 126.314 218.809 126.594L218.221 127.086C217.829 126.686 217.367 126.486 216.835 126.486C216.487 126.486 216.211 126.56 216.007 126.708C215.807 126.852 215.707 127.052 215.707 127.308C215.707 127.544 215.811 127.748 216.019 127.92C216.227 128.088 216.607 128.274 217.159 128.478C217.607 128.646 217.967 128.824 218.239 129.012C218.511 129.196 218.707 129.406 218.827 129.642C218.951 129.878 219.013 130.15 219.013 130.458C219.013 130.982 218.829 131.394 218.461 131.694C218.093 131.994 217.587 132.144 216.943 132.144ZM223.169 134.436V125.868H224.669V126.318C225.005 125.922 225.455 125.724 226.019 125.724C226.543 125.724 226.995 125.854 227.375 126.114C227.755 126.37 228.047 126.738 228.251 127.218C228.455 127.698 228.557 128.27 228.557 128.934C228.557 129.578 228.451 130.142 228.239 130.626C228.027 131.106 227.729 131.48 227.345 131.748C226.961 132.012 226.513 132.144 226.001 132.144C225.721 132.144 225.469 132.094 225.245 131.994C225.021 131.89 224.829 131.738 224.669 131.538V133.758L223.169 134.436ZM225.779 130.71C226.187 130.71 226.501 130.556 226.721 130.248C226.941 129.936 227.051 129.498 227.051 128.934C227.051 128.37 226.939 127.932 226.715 127.62C226.491 127.308 226.179 127.152 225.779 127.152C225.535 127.152 225.321 127.196 225.137 127.284C224.957 127.372 224.801 127.506 224.669 127.686V130.164C224.777 130.336 224.929 130.47 225.125 130.566C225.325 130.662 225.543 130.71 225.779 130.71ZM232.583 132.144C231.995 132.144 231.487 132.012 231.059 131.748C230.635 131.484 230.307 131.112 230.075 130.632C229.847 130.148 229.733 129.58 229.733 128.928C229.733 128.268 229.849 127.698 230.081 127.218C230.317 126.738 230.647 126.37 231.071 126.114C231.499 125.854 232.003 125.724 232.583 125.724C233.079 125.724 233.529 125.828 233.933 126.036C234.337 126.244 234.659 126.564 234.899 126.996C235.139 127.424 235.259 127.97 235.259 128.634C235.259 128.738 235.255 128.866 235.247 129.018C235.243 129.166 235.233 129.316 235.217 129.468H231.215C231.231 129.748 231.295 129.994 231.407 130.206C231.523 130.414 231.681 130.576 231.881 130.692C232.081 130.808 232.317 130.866 232.589 130.866C232.881 130.866 233.135 130.818 233.351 130.722C233.567 130.622 233.771 130.464 233.963 130.248L234.827 131.142C234.563 131.442 234.245 131.684 233.873 131.868C233.501 132.052 233.071 132.144 232.583 132.144ZM231.221 128.298H233.807C233.787 128.03 233.727 127.8 233.627 127.608C233.527 127.412 233.387 127.262 233.207 127.158C233.027 127.054 232.809 127.002 232.553 127.002C232.201 127.002 231.901 127.11 231.653 127.326C231.405 127.542 231.261 127.866 231.221 128.298ZM238.515 132.144C238.035 132.144 237.575 132.042 237.135 131.838C236.699 131.634 236.353 131.36 236.097 131.016L237.081 130.188C237.285 130.404 237.521 130.576 237.789 130.704C238.057 130.828 238.313 130.89 238.557 130.89C238.861 130.89 239.095 130.84 239.259 130.74C239.423 130.636 239.505 130.492 239.505 130.308C239.505 130.188 239.465 130.082 239.385 129.99C239.309 129.894 239.173 129.798 238.977 129.702C238.781 129.602 238.505 129.488 238.149 129.36C237.461 129.108 236.973 128.836 236.685 128.544C236.397 128.248 236.253 127.874 236.253 127.422C236.253 126.918 236.457 126.51 236.865 126.198C237.273 125.882 237.805 125.724 238.461 125.724C238.909 125.724 239.321 125.808 239.697 125.976C240.077 126.144 240.403 126.39 240.675 126.714L239.697 127.524C239.337 127.16 238.917 126.978 238.437 126.978C238.193 126.978 237.997 127.024 237.849 127.116C237.701 127.204 237.627 127.324 237.627 127.476C237.627 127.624 237.713 127.756 237.885 127.872C238.061 127.988 238.387 128.124 238.863 128.28C239.335 128.428 239.717 128.596 240.009 128.784C240.305 128.972 240.521 129.19 240.657 129.438C240.797 129.686 240.867 129.972 240.867 130.296C240.867 130.872 240.657 131.324 240.237 131.652C239.821 131.98 239.247 132.144 238.515 132.144ZM244.301 132.144C243.821 132.144 243.361 132.042 242.921 131.838C242.485 131.634 242.139 131.36 241.883 131.016L242.867 130.188C243.071 130.404 243.307 130.576 243.575 130.704C243.843 130.828 244.099 130.89 244.343 130.89C244.647 130.89 244.881 130.84 245.045 130.74C245.209 130.636 245.291 130.492 245.291 130.308C245.291 130.188 245.251 130.082 245.171 129.99C245.095 129.894 244.959 129.798 244.763 129.702C244.567 129.602 244.291 129.488 243.935 129.36C243.247 129.108 242.759 128.836 242.471 128.544C242.183 128.248 242.039 127.874 242.039 127.422C242.039 126.918 242.243 126.51 242.651 126.198C243.059 125.882 243.591 125.724 244.247 125.724C244.695 125.724 245.107 125.808 245.483 125.976C245.863 126.144 246.189 126.39 246.461 126.714L245.483 127.524C245.123 127.16 244.703 126.978 244.223 126.978C243.979 126.978 243.783 127.024 243.635 127.116C243.487 127.204 243.413 127.324 243.413 127.476C243.413 127.624 243.499 127.756 243.671 127.872C243.847 127.988 244.173 128.124 244.649 128.28C245.121 128.428 245.503 128.596 245.795 128.784C246.091 128.972 246.307 129.19 246.443 129.438C246.583 129.686 246.653 129.972 246.653 130.296C246.653 130.872 246.443 131.324 246.023 131.652C245.607 131.98 245.033 132.144 244.301 132.144ZM250.45 132.144C249.586 132.144 248.904 131.858 248.404 131.286C247.904 130.714 247.654 129.932 247.654 128.94C247.654 128.284 247.768 127.716 247.996 127.236C248.224 126.752 248.546 126.38 248.962 126.12C249.382 125.856 249.878 125.724 250.45 125.724C251.018 125.724 251.51 125.854 251.926 126.114C252.342 126.374 252.662 126.744 252.886 127.224C253.11 127.704 253.222 128.274 253.222 128.934C253.222 129.598 253.11 130.17 252.886 130.65C252.666 131.13 252.348 131.5 251.932 131.76C251.516 132.016 251.022 132.144 250.45 132.144ZM250.45 130.71C250.854 130.71 251.168 130.554 251.392 130.242C251.616 129.93 251.728 129.494 251.728 128.934C251.728 128.374 251.614 127.938 251.386 127.626C251.162 127.31 250.85 127.152 250.45 127.152C250.046 127.152 249.73 127.31 249.502 127.626C249.274 127.942 249.16 128.38 249.16 128.94C249.16 129.492 249.274 129.926 249.502 130.242C249.73 130.554 250.046 130.71 250.45 130.71ZM256.514 132.144C255.846 132.144 255.316 131.964 254.924 131.604C254.536 131.24 254.342 130.748 254.342 130.128C254.342 129.728 254.442 129.378 254.642 129.078C254.846 128.774 255.128 128.54 255.488 128.376C255.852 128.208 256.276 128.124 256.76 128.124C257.028 128.124 257.286 128.15 257.534 128.202C257.786 128.25 258.006 128.32 258.194 128.412V128.028C258.194 127.684 258.096 127.426 257.9 127.254C257.708 127.078 257.424 126.99 257.048 126.99C256.748 126.99 256.44 127.044 256.124 127.152C255.808 127.26 255.488 127.42 255.164 127.632L254.714 126.45C255.066 126.218 255.458 126.04 255.89 125.916C256.322 125.788 256.758 125.724 257.198 125.724C258.022 125.724 258.638 125.92 259.046 126.312C259.454 126.7 259.658 127.28 259.658 128.052V132H258.194V131.508C257.986 131.716 257.738 131.874 257.45 131.982C257.166 132.09 256.854 132.144 256.514 132.144ZM256.862 130.878C257.11 130.878 257.348 130.83 257.576 130.734C257.808 130.634 258.014 130.494 258.194 130.314V129.588C258.022 129.504 257.83 129.44 257.618 129.396C257.41 129.348 257.202 129.324 256.994 129.324C256.622 129.324 256.328 129.396 256.112 129.54C255.9 129.68 255.794 129.876 255.794 130.128C255.794 130.364 255.888 130.548 256.076 130.68C256.264 130.812 256.526 130.878 256.862 130.878ZM263.265 132.144C262.785 132.144 262.325 132.042 261.885 131.838C261.449 131.634 261.103 131.36 260.847 131.016L261.831 130.188C262.035 130.404 262.271 130.576 262.539 130.704C262.807 130.828 263.063 130.89 263.307 130.89C263.611 130.89 263.845 130.84 264.009 130.74C264.173 130.636 264.255 130.492 264.255 130.308C264.255 130.188 264.215 130.082 264.135 129.99C264.059 129.894 263.923 129.798 263.727 129.702C263.531 129.602 263.255 129.488 262.899 129.36C262.211 129.108 261.723 128.836 261.435 128.544C261.147 128.248 261.003 127.874 261.003 127.422C261.003 126.918 261.207 126.51 261.615 126.198C262.023 125.882 262.555 125.724 263.211 125.724C263.659 125.724 264.071 125.808 264.447 125.976C264.827 126.144 265.153 126.39 265.425 126.714L264.447 127.524C264.087 127.16 263.667 126.978 263.187 126.978C262.943 126.978 262.747 127.024 262.599 127.116C262.451 127.204 262.377 127.324 262.377 127.476C262.377 127.624 262.463 127.756 262.635 127.872C262.811 127.988 263.137 128.124 263.613 128.28C264.085 128.428 264.467 128.596 264.759 128.784C265.055 128.972 265.271 129.19 265.407 129.438C265.547 129.686 265.617 129.972 265.617 130.296C265.617 130.872 265.407 131.324 264.987 131.652C264.571 131.98 263.997 132.144 263.265 132.144ZM269.928 134.436V125.868H271.428V126.318C271.764 125.922 272.214 125.724 272.778 125.724C273.302 125.724 273.754 125.854 274.134 126.114C274.514 126.37 274.806 126.738 275.01 127.218C275.214 127.698 275.316 128.27 275.316 128.934C275.316 129.578 275.21 130.142 274.998 130.626C274.786 131.106 274.488 131.48 274.104 131.748C273.72 132.012 273.272 132.144 272.76 132.144C272.48 132.144 272.228 132.094 272.004 131.994C271.78 131.89 271.588 131.738 271.428 131.538V133.758L269.928 134.436ZM272.538 130.71C272.946 130.71 273.26 130.556 273.48 130.248C273.7 129.936 273.81 129.498 273.81 128.934C273.81 128.37 273.698 127.932 273.474 127.62C273.25 127.308 272.938 127.152 272.538 127.152C272.294 127.152 272.08 127.196 271.896 127.284C271.716 127.372 271.56 127.506 271.428 127.686V130.164C271.536 130.336 271.688 130.47 271.884 130.566C272.084 130.662 272.302 130.71 272.538 130.71ZM276.628 132V125.868H278.128V126.528C278.24 126.292 278.416 126.1 278.656 125.952C278.896 125.8 279.148 125.724 279.412 125.724C279.848 125.724 280.216 125.874 280.516 126.174L280.306 127.548C280.142 127.412 279.982 127.316 279.826 127.26C279.67 127.204 279.498 127.176 279.31 127.176C279.062 127.176 278.85 127.234 278.674 127.35C278.498 127.466 278.362 127.634 278.266 127.854C278.174 128.074 278.128 128.338 278.128 128.646V132H276.628ZM283.71 132.144C283.122 132.144 282.614 132.012 282.186 131.748C281.762 131.484 281.434 131.112 281.202 130.632C280.974 130.148 280.86 129.58 280.86 128.928C280.86 128.268 280.976 127.698 281.208 127.218C281.444 126.738 281.774 126.37 282.198 126.114C282.626 125.854 283.13 125.724 283.71 125.724C284.206 125.724 284.656 125.828 285.06 126.036C285.464 126.244 285.786 126.564 286.026 126.996C286.266 127.424 286.386 127.97 286.386 128.634C286.386 128.738 286.382 128.866 286.374 129.018C286.37 129.166 286.36 129.316 286.344 129.468H282.342C282.358 129.748 282.422 129.994 282.534 130.206C282.65 130.414 282.808 130.576 283.008 130.692C283.208 130.808 283.444 130.866 283.716 130.866C284.008 130.866 284.262 130.818 284.478 130.722C284.694 130.622 284.898 130.464 285.09 130.248L285.954 131.142C285.69 131.442 285.372 131.684 285 131.868C284.628 132.052 284.198 132.144 283.71 132.144ZM282.348 128.298H284.934C284.914 128.03 284.854 127.8 284.754 127.608C284.654 127.412 284.514 127.262 284.334 127.158C284.154 127.054 283.936 127.002 283.68 127.002C283.328 127.002 283.028 127.11 282.78 127.326C282.532 127.542 282.388 127.866 282.348 128.298ZM289.473 132.144C288.985 132.144 288.619 132.01 288.375 131.742C288.131 131.474 288.009 131.074 288.009 130.542V127.182H287.115V125.868H288.009V124.05L289.497 123.336V125.868H290.889V127.182H289.497V130.272C289.497 130.464 289.535 130.606 289.611 130.698C289.691 130.79 289.815 130.836 289.983 130.836C290.279 130.836 290.603 130.744 290.955 130.56L290.781 131.868C290.597 131.96 290.397 132.028 290.181 132.072C289.965 132.12 289.729 132.144 289.473 132.144ZM294.029 132.144C293.361 132.144 292.831 131.964 292.439 131.604C292.051 131.24 291.857 130.748 291.857 130.128C291.857 129.728 291.957 129.378 292.157 129.078C292.361 128.774 292.643 128.54 293.003 128.376C293.367 128.208 293.791 128.124 294.275 128.124C294.543 128.124 294.801 128.15 295.049 128.202C295.301 128.25 295.521 128.32 295.709 128.412V128.028C295.709 127.684 295.611 127.426 295.415 127.254C295.223 127.078 294.939 126.99 294.563 126.99C294.263 126.99 293.955 127.044 293.639 127.152C293.323 127.26 293.003 127.42 292.679 127.632L292.229 126.45C292.581 126.218 292.973 126.04 293.405 125.916C293.837 125.788 294.273 125.724 294.713 125.724C295.537 125.724 296.153 125.92 296.561 126.312C296.969 126.7 297.173 127.28 297.173 128.052V132H295.709V131.508C295.501 131.716 295.253 131.874 294.965 131.982C294.681 132.09 294.369 132.144 294.029 132.144ZM294.377 130.878C294.625 130.878 294.863 130.83 295.091 130.734C295.323 130.634 295.529 130.494 295.709 130.314V129.588C295.537 129.504 295.345 129.44 295.133 129.396C294.925 129.348 294.717 129.324 294.509 129.324C294.137 129.324 293.843 129.396 293.627 129.54C293.415 129.68 293.309 129.876 293.309 130.128C293.309 130.364 293.403 130.548 293.591 130.68C293.779 130.812 294.041 130.878 294.377 130.878ZM300.781 132.144C300.301 132.144 299.841 132.042 299.401 131.838C298.965 131.634 298.619 131.36 298.363 131.016L299.347 130.188C299.551 130.404 299.787 130.576 300.055 130.704C300.323 130.828 300.579 130.89 300.823 130.89C301.127 130.89 301.361 130.84 301.525 130.74C301.689 130.636 301.771 130.492 301.771 130.308C301.771 130.188 301.731 130.082 301.651 129.99C301.575 129.894 301.439 129.798 301.243 129.702C301.047 129.602 300.771 129.488 300.415 129.36C299.727 129.108 299.239 128.836 298.951 128.544C298.663 128.248 298.519 127.874 298.519 127.422C298.519 126.918 298.723 126.51 299.131 126.198C299.539 125.882 300.071 125.724 300.727 125.724C301.175 125.724 301.587 125.808 301.963 125.976C302.343 126.144 302.669 126.39 302.941 126.714L301.963 127.524C301.603 127.16 301.183 126.978 300.703 126.978C300.459 126.978 300.263 127.024 300.115 127.116C299.967 127.204 299.893 127.324 299.893 127.476C299.893 127.624 299.979 127.756 300.151 127.872C300.327 127.988 300.653 128.124 301.129 128.28C301.601 128.428 301.983 128.596 302.275 128.784C302.571 128.972 302.787 129.19 302.923 129.438C303.063 129.686 303.133 129.972 303.133 130.296C303.133 130.872 302.923 131.324 302.503 131.652C302.087 131.98 301.513 132.144 300.781 132.144ZM220.369 148.556L219.955 147.884C220.511 147.852 220.965 147.772 221.317 147.644C221.669 147.52 221.929 147.342 222.097 147.11C222.265 146.878 222.349 146.584 222.349 146.228V145.262C221.981 145.85 221.425 146.144 220.681 146.144C220.189 146.144 219.759 146.01 219.391 145.742C219.023 145.474 218.737 145.1 218.533 144.62C218.329 144.136 218.227 143.572 218.227 142.928C218.227 142.276 218.329 141.71 218.533 141.23C218.741 140.75 219.031 140.38 219.403 140.12C219.775 139.856 220.215 139.724 220.723 139.724C221.055 139.724 221.365 139.794 221.653 139.934C221.945 140.07 222.177 140.258 222.349 140.498V139.868H223.189V145.982C223.189 146.39 223.131 146.748 223.015 147.056C222.903 147.368 222.729 147.63 222.493 147.842C222.261 148.054 221.967 148.218 221.611 148.334C221.259 148.454 220.845 148.528 220.369 148.556ZM220.831 145.352C221.131 145.352 221.419 145.26 221.695 145.076C221.971 144.888 222.189 144.642 222.349 144.338V141.446C222.193 141.166 221.975 140.94 221.695 140.768C221.419 140.596 221.135 140.51 220.843 140.51C220.275 140.51 219.839 140.718 219.535 141.134C219.235 141.546 219.085 142.144 219.085 142.928C219.085 143.416 219.157 143.842 219.301 144.206C219.449 144.566 219.653 144.848 219.913 145.052C220.177 145.252 220.483 145.352 220.831 145.352ZM226.974 146.144C226.326 146.144 225.818 145.964 225.45 145.604C225.082 145.24 224.898 144.74 224.898 144.104C224.898 143.696 224.988 143.342 225.168 143.042C225.352 142.742 225.61 142.512 225.942 142.352C226.278 142.188 226.674 142.106 227.13 142.106C227.43 142.106 227.716 142.144 227.988 142.22C228.264 142.296 228.53 142.41 228.786 142.562V141.974C228.786 141.454 228.672 141.072 228.444 140.828C228.22 140.584 227.87 140.462 227.394 140.462C227.11 140.462 226.808 140.516 226.488 140.624C226.172 140.728 225.872 140.876 225.588 141.068L225.342 140.36C225.666 140.156 226.016 140 226.392 139.892C226.768 139.78 227.136 139.724 227.496 139.724C228.184 139.724 228.704 139.904 229.056 140.264C229.408 140.624 229.584 141.154 229.584 141.854V146H228.786V145.304C228.542 145.572 228.262 145.78 227.946 145.928C227.634 146.072 227.31 146.144 226.974 146.144ZM227.082 145.406C227.39 145.406 227.69 145.326 227.982 145.166C228.274 145.002 228.542 144.768 228.786 144.464V143.318C228.55 143.166 228.294 143.05 228.018 142.97C227.746 142.886 227.482 142.844 227.226 142.844C226.766 142.844 226.398 142.96 226.122 143.192C225.85 143.42 225.714 143.726 225.714 144.11C225.714 144.506 225.836 144.822 226.08 145.058C226.324 145.29 226.658 145.406 227.082 145.406ZM231.56 146V139.868H232.4V140.654C232.572 140.354 232.8 140.124 233.084 139.964C233.372 139.804 233.698 139.724 234.062 139.724C234.778 139.724 235.31 139.946 235.658 140.39C236.006 140.83 236.18 141.5 236.18 142.4V146H235.34V142.25C235.34 141.678 235.22 141.244 234.98 140.948C234.74 140.648 234.392 140.498 233.936 140.498C233.432 140.498 233.05 140.652 232.79 140.96C232.53 141.268 232.4 141.722 232.4 142.322V146H231.56ZM238.155 146V137.726L238.995 137.336V140.66C239.167 140.36 239.397 140.13 239.685 139.97C239.973 139.806 240.297 139.724 240.657 139.724C241.173 139.724 241.585 139.834 241.893 140.054C242.205 140.27 242.429 140.578 242.565 140.978C242.705 141.378 242.775 141.852 242.775 142.4V146H241.935V142.25C241.935 141.722 241.823 141.298 241.599 140.978C241.379 140.658 241.023 140.498 240.531 140.498C240.027 140.498 239.645 140.652 239.385 140.96C239.125 141.268 238.995 141.722 238.995 142.322V146H238.155ZM246.512 146.144C245.864 146.144 245.356 145.964 244.988 145.604C244.62 145.24 244.436 144.74 244.436 144.104C244.436 143.696 244.526 143.342 244.706 143.042C244.89 142.742 245.148 142.512 245.48 142.352C245.816 142.188 246.212 142.106 246.668 142.106C246.968 142.106 247.254 142.144 247.526 142.22C247.802 142.296 248.068 142.41 248.324 142.562V141.974C248.324 141.454 248.21 141.072 247.982 140.828C247.758 140.584 247.408 140.462 246.932 140.462C246.648 140.462 246.346 140.516 246.026 140.624C245.71 140.728 245.41 140.876 245.126 141.068L244.88 140.36C245.204 140.156 245.554 140 245.93 139.892C246.306 139.78 246.674 139.724 247.034 139.724C247.722 139.724 248.242 139.904 248.594 140.264C248.946 140.624 249.122 141.154 249.122 141.854V146H248.324V145.304C248.08 145.572 247.8 145.78 247.484 145.928C247.172 146.072 246.848 146.144 246.512 146.144ZM246.62 145.406C246.928 145.406 247.228 145.326 247.52 145.166C247.812 145.002 248.08 144.768 248.324 144.464V143.318C248.088 143.166 247.832 143.05 247.556 142.97C247.284 142.886 247.02 142.844 246.764 142.844C246.304 142.844 245.936 142.96 245.66 143.192C245.388 143.42 245.252 143.726 245.252 144.11C245.252 144.506 245.374 144.822 245.618 145.058C245.862 145.29 246.196 145.406 246.62 145.406ZM251.098 146V139.868H251.938V140.588C252.114 140.308 252.344 140.094 252.628 139.946C252.912 139.798 253.23 139.724 253.582 139.724C253.97 139.724 254.308 139.82 254.596 140.012C254.888 140.204 255.104 140.474 255.244 140.822C255.416 140.478 255.66 140.21 255.976 140.018C256.296 139.822 256.652 139.724 257.044 139.724C257.68 139.724 258.186 139.922 258.562 140.318C258.938 140.71 259.126 141.242 259.126 141.914V146H258.286V142.238C258.286 141.67 258.172 141.238 257.944 140.942C257.716 140.646 257.386 140.498 256.954 140.498C256.67 140.498 256.42 140.572 256.204 140.72C255.992 140.868 255.826 141.076 255.706 141.344C255.586 141.608 255.526 141.914 255.526 142.262V146H254.686V142.238C254.686 141.666 254.576 141.234 254.356 140.942C254.136 140.646 253.808 140.498 253.372 140.498C252.928 140.498 252.578 140.656 252.322 140.972C252.066 141.284 251.938 141.712 251.938 142.256V146H251.098ZM265.975 146.144C265.167 146.144 264.529 145.858 264.061 145.286C263.593 144.71 263.359 143.928 263.359 142.94C263.359 142.28 263.465 141.71 263.677 141.23C263.889 140.75 264.191 140.38 264.583 140.12C264.975 139.856 265.439 139.724 265.975 139.724C266.515 139.724 266.981 139.854 267.373 140.114C267.765 140.37 268.065 140.738 268.273 141.218C268.485 141.698 268.591 142.268 268.591 142.928C268.591 143.588 268.485 144.16 268.273 144.644C268.061 145.124 267.759 145.494 267.367 145.754C266.975 146.014 266.511 146.144 265.975 146.144ZM265.975 145.352C266.527 145.352 266.957 145.138 267.265 144.71C267.577 144.282 267.733 143.688 267.733 142.928C267.733 142.164 267.577 141.57 267.265 141.146C266.957 140.722 266.527 140.51 265.975 140.51C265.415 140.51 264.981 140.722 264.673 141.146C264.369 141.566 264.217 142.164 264.217 142.94C264.217 143.704 264.371 144.298 264.679 144.722C264.987 145.142 265.419 145.352 265.975 145.352ZM272.326 146.144C271.602 146.144 271.062 145.924 270.706 145.484C270.354 145.044 270.178 144.374 270.178 143.474V139.868H271.018V143.612C271.018 144.188 271.138 144.624 271.378 144.92C271.618 145.216 271.966 145.364 272.422 145.364C272.93 145.364 273.312 145.21 273.568 144.902C273.828 144.59 273.958 144.134 273.958 143.534V139.868H274.798V146H273.958V145.262C273.774 145.558 273.546 145.78 273.274 145.928C273.006 146.072 272.69 146.144 272.326 146.144ZM278.357 148.562L277.955 147.914C278.515 147.838 278.913 147.69 279.149 147.47C279.385 147.254 279.503 146.928 279.503 146.492V139.868H280.343V146.228C280.343 146.928 280.183 147.47 279.863 147.854C279.543 148.238 279.041 148.474 278.357 148.562ZM279.923 138.638C279.771 138.638 279.641 138.584 279.533 138.476C279.425 138.368 279.371 138.238 279.371 138.086C279.371 137.926 279.425 137.792 279.533 137.684C279.641 137.572 279.771 137.516 279.923 137.516C280.075 137.516 280.205 137.57 280.313 137.678C280.421 137.786 280.475 137.922 280.475 138.086C280.475 138.238 280.423 138.368 280.319 138.476C280.215 138.584 280.083 138.638 279.923 138.638ZM284.098 146.144C283.45 146.144 282.942 145.964 282.574 145.604C282.206 145.24 282.022 144.74 282.022 144.104C282.022 143.696 282.112 143.342 282.292 143.042C282.476 142.742 282.734 142.512 283.066 142.352C283.402 142.188 283.798 142.106 284.254 142.106C284.554 142.106 284.84 142.144 285.112 142.22C285.388 142.296 285.654 142.41 285.91 142.562V141.974C285.91 141.454 285.796 141.072 285.568 140.828C285.344 140.584 284.994 140.462 284.518 140.462C284.234 140.462 283.932 140.516 283.612 140.624C283.296 140.728 282.996 140.876 282.712 141.068L282.466 140.36C282.79 140.156 283.14 140 283.516 139.892C283.892 139.78 284.26 139.724 284.62 139.724C285.308 139.724 285.828 139.904 286.18 140.264C286.532 140.624 286.708 141.154 286.708 141.854V146H285.91V145.304C285.666 145.572 285.386 145.78 285.07 145.928C284.758 146.072 284.434 146.144 284.098 146.144ZM284.206 145.406C284.514 145.406 284.814 145.326 285.106 145.166C285.398 145.002 285.666 144.768 285.91 144.464V143.318C285.674 143.166 285.418 143.05 285.142 142.97C284.87 142.886 284.606 142.844 284.35 142.844C283.89 142.844 283.522 142.96 283.246 143.192C282.974 143.42 282.838 143.726 282.838 144.11C282.838 144.506 282.96 144.822 283.204 145.058C283.448 145.29 283.782 145.406 284.206 145.406ZM283.996 139.088L285.736 137.216H286.948L284.848 139.088H283.996ZM206.102 162.556L205.688 161.884C206.244 161.852 206.698 161.772 207.05 161.644C207.402 161.52 207.662 161.342 207.83 161.11C207.998 160.878 208.082 160.584 208.082 160.228V159.262C207.714 159.85 207.158 160.144 206.414 160.144C205.922 160.144 205.492 160.01 205.124 159.742C204.756 159.474 204.47 159.1 204.266 158.62C204.062 158.136 203.96 157.572 203.96 156.928C203.96 156.276 204.062 155.71 204.266 155.23C204.474 154.75 204.764 154.38 205.136 154.12C205.508 153.856 205.948 153.724 206.456 153.724C206.788 153.724 207.098 153.794 207.386 153.934C207.678 154.07 207.91 154.258 208.082 154.498V153.868H208.922V159.982C208.922 160.39 208.864 160.748 208.748 161.056C208.636 161.368 208.462 161.63 208.226 161.842C207.994 162.054 207.7 162.218 207.344 162.334C206.992 162.454 206.578 162.528 206.102 162.556ZM206.564 159.352C206.864 159.352 207.152 159.26 207.428 159.076C207.704 158.888 207.922 158.642 208.082 158.338V155.446C207.926 155.166 207.708 154.94 207.428 154.768C207.152 154.596 206.868 154.51 206.576 154.51C206.008 154.51 205.572 154.718 205.268 155.134C204.968 155.546 204.818 156.144 204.818 156.928C204.818 157.416 204.89 157.842 205.034 158.206C205.182 158.566 205.386 158.848 205.646 159.052C205.91 159.252 206.216 159.352 206.564 159.352ZM212.708 160.144C212.06 160.144 211.552 159.964 211.184 159.604C210.816 159.24 210.632 158.74 210.632 158.104C210.632 157.696 210.722 157.342 210.902 157.042C211.086 156.742 211.344 156.512 211.676 156.352C212.012 156.188 212.408 156.106 212.864 156.106C213.164 156.106 213.45 156.144 213.722 156.22C213.998 156.296 214.264 156.41 214.52 156.562V155.974C214.52 155.454 214.406 155.072 214.178 154.828C213.954 154.584 213.604 154.462 213.128 154.462C212.844 154.462 212.542 154.516 212.222 154.624C211.906 154.728 211.606 154.876 211.322 155.068L211.076 154.36C211.4 154.156 211.75 154 212.126 153.892C212.502 153.78 212.87 153.724 213.23 153.724C213.918 153.724 214.438 153.904 214.79 154.264C215.142 154.624 215.318 155.154 215.318 155.854V160H214.52V159.304C214.276 159.572 213.996 159.78 213.68 159.928C213.368 160.072 213.044 160.144 212.708 160.144ZM212.816 159.406C213.124 159.406 213.424 159.326 213.716 159.166C214.008 159.002 214.276 158.768 214.52 158.464V157.318C214.284 157.166 214.028 157.05 213.752 156.97C213.48 156.886 213.216 156.844 212.96 156.844C212.5 156.844 212.132 156.96 211.856 157.192C211.584 157.42 211.448 157.726 211.448 158.11C211.448 158.506 211.57 158.822 211.814 159.058C212.058 159.29 212.392 159.406 212.816 159.406ZM217.293 160V153.868H218.133V154.654C218.305 154.354 218.533 154.124 218.817 153.964C219.105 153.804 219.431 153.724 219.795 153.724C220.511 153.724 221.043 153.946 221.391 154.39C221.739 154.83 221.913 155.5 221.913 156.4V160H221.073V156.25C221.073 155.678 220.953 155.244 220.713 154.948C220.473 154.648 220.125 154.498 219.669 154.498C219.165 154.498 218.783 154.652 218.523 154.96C218.263 155.268 218.133 155.722 218.133 156.322V160H217.293ZM223.888 160V151.726L224.728 151.336V154.66C224.9 154.36 225.13 154.13 225.418 153.97C225.706 153.806 226.03 153.724 226.39 153.724C226.906 153.724 227.318 153.834 227.626 154.054C227.938 154.27 228.162 154.578 228.298 154.978C228.438 155.378 228.508 155.852 228.508 156.4V160H227.668V156.25C227.668 155.722 227.556 155.298 227.332 154.978C227.112 154.658 226.756 154.498 226.264 154.498C225.76 154.498 225.378 154.652 225.118 154.96C224.858 155.268 224.728 155.722 224.728 156.322V160H223.888ZM232.246 160.144C231.598 160.144 231.09 159.964 230.722 159.604C230.354 159.24 230.17 158.74 230.17 158.104C230.17 157.696 230.26 157.342 230.44 157.042C230.624 156.742 230.882 156.512 231.214 156.352C231.55 156.188 231.946 156.106 232.402 156.106C232.702 156.106 232.988 156.144 233.26 156.22C233.536 156.296 233.802 156.41 234.058 156.562V155.974C234.058 155.454 233.944 155.072 233.716 154.828C233.492 154.584 233.142 154.462 232.666 154.462C232.382 154.462 232.08 154.516 231.76 154.624C231.444 154.728 231.144 154.876 230.86 155.068L230.614 154.36C230.938 154.156 231.288 154 231.664 153.892C232.04 153.78 232.408 153.724 232.768 153.724C233.456 153.724 233.976 153.904 234.328 154.264C234.68 154.624 234.856 155.154 234.856 155.854V160H234.058V159.304C233.814 159.572 233.534 159.78 233.218 159.928C232.906 160.072 232.582 160.144 232.246 160.144ZM232.354 159.406C232.662 159.406 232.962 159.326 233.254 159.166C233.546 159.002 233.814 158.768 234.058 158.464V157.318C233.822 157.166 233.566 157.05 233.29 156.97C233.018 156.886 232.754 156.844 232.498 156.844C232.038 156.844 231.67 156.96 231.394 157.192C231.122 157.42 230.986 157.726 230.986 158.11C230.986 158.506 231.108 158.822 231.352 159.058C231.596 159.29 231.93 159.406 232.354 159.406ZM236.832 160V153.868H237.672V154.84C237.824 154.48 238.034 154.204 238.302 154.012C238.574 153.82 238.888 153.724 239.244 153.724C239.612 153.724 239.912 153.822 240.144 154.018L240.018 154.816C239.898 154.732 239.766 154.67 239.622 154.63C239.482 154.59 239.33 154.57 239.166 154.57C238.87 154.57 238.61 154.654 238.386 154.822C238.162 154.99 237.986 155.224 237.858 155.524C237.734 155.82 237.672 156.166 237.672 156.562V160H236.832ZM242.834 160.144C242.186 160.144 241.678 159.964 241.31 159.604C240.942 159.24 240.758 158.74 240.758 158.104C240.758 157.696 240.848 157.342 241.028 157.042C241.212 156.742 241.47 156.512 241.802 156.352C242.138 156.188 242.534 156.106 242.99 156.106C243.29 156.106 243.576 156.144 243.848 156.22C244.124 156.296 244.39 156.41 244.646 156.562V155.974C244.646 155.454 244.532 155.072 244.304 154.828C244.08 154.584 243.73 154.462 243.254 154.462C242.97 154.462 242.668 154.516 242.348 154.624C242.032 154.728 241.732 154.876 241.448 155.068L241.202 154.36C241.526 154.156 241.876 154 242.252 153.892C242.628 153.78 242.996 153.724 243.356 153.724C244.044 153.724 244.564 153.904 244.916 154.264C245.268 154.624 245.444 155.154 245.444 155.854V160H244.646V159.304C244.402 159.572 244.122 159.78 243.806 159.928C243.494 160.072 243.17 160.144 242.834 160.144ZM242.942 159.406C243.25 159.406 243.55 159.326 243.842 159.166C244.134 159.002 244.402 158.768 244.646 158.464V157.318C244.41 157.166 244.154 157.05 243.878 156.97C243.606 156.886 243.342 156.844 243.086 156.844C242.626 156.844 242.258 156.96 241.982 157.192C241.71 157.42 241.574 157.726 241.574 158.11C241.574 158.506 241.696 158.822 241.94 159.058C242.184 159.29 242.518 159.406 242.942 159.406ZM247.42 160V153.868H248.26V154.588C248.436 154.308 248.666 154.094 248.95 153.946C249.234 153.798 249.552 153.724 249.904 153.724C250.292 153.724 250.63 153.82 250.918 154.012C251.21 154.204 251.426 154.474 251.566 154.822C251.738 154.478 251.982 154.21 252.298 154.018C252.618 153.822 252.974 153.724 253.366 153.724C254.002 153.724 254.508 153.922 254.884 154.318C255.26 154.71 255.448 155.242 255.448 155.914V160H254.608V156.238C254.608 155.67 254.494 155.238 254.266 154.942C254.038 154.646 253.708 154.498 253.276 154.498C252.992 154.498 252.742 154.572 252.526 154.72C252.314 154.868 252.148 155.076 252.028 155.344C251.908 155.608 251.848 155.914 251.848 156.262V160H251.008V156.238C251.008 155.666 250.898 155.234 250.678 154.942C250.458 154.646 250.13 154.498 249.694 154.498C249.25 154.498 248.9 154.656 248.644 154.972C248.388 155.284 248.26 155.712 248.26 156.256V160H247.42ZM262.147 160.144C261.387 160.144 260.785 159.856 260.341 159.28C259.901 158.7 259.681 157.916 259.681 156.928C259.681 156.264 259.781 155.694 259.981 155.218C260.181 154.738 260.467 154.37 260.839 154.114C261.215 153.854 261.661 153.724 262.177 153.724C262.813 153.724 263.351 153.968 263.791 154.456V151.738L264.631 151.336V160H263.791V159.388C263.363 159.892 262.815 160.144 262.147 160.144ZM262.273 159.352C262.573 159.352 262.859 159.266 263.131 159.094C263.403 158.918 263.623 158.68 263.791 158.38V155.44C263.611 155.152 263.385 154.926 263.113 154.762C262.845 154.594 262.565 154.51 262.273 154.51C261.721 154.51 261.293 154.72 260.989 155.14C260.689 155.556 260.539 156.152 260.539 156.928C260.539 157.404 260.613 157.824 260.761 158.188C260.909 158.552 261.113 158.838 261.373 159.046C261.633 159.25 261.933 159.352 262.273 159.352ZM266.678 160V153.868H267.518V160H266.678ZM267.092 152.638C266.94 152.638 266.81 152.584 266.702 152.476C266.598 152.368 266.546 152.238 266.546 152.086C266.546 151.926 266.598 151.792 266.702 151.684C266.81 151.572 266.94 151.516 267.092 151.516C267.252 151.516 267.384 151.572 267.488 151.684C267.596 151.792 267.65 151.926 267.65 152.086C267.65 152.238 267.596 152.368 267.488 152.476C267.384 152.584 267.252 152.638 267.092 152.638ZM269.557 160V153.868H270.397V154.654C270.569 154.354 270.797 154.124 271.081 153.964C271.369 153.804 271.695 153.724 272.059 153.724C272.775 153.724 273.307 153.946 273.655 154.39C274.003 154.83 274.177 155.5 274.177 156.4V160H273.337V156.25C273.337 155.678 273.217 155.244 272.977 154.948C272.737 154.648 272.389 154.498 271.933 154.498C271.429 154.498 271.047 154.652 270.787 154.96C270.527 155.268 270.397 155.722 270.397 156.322V160H269.557ZM276.152 160V151.726L276.992 151.336V154.66C277.164 154.36 277.394 154.13 277.682 153.97C277.97 153.806 278.294 153.724 278.654 153.724C279.17 153.724 279.582 153.834 279.89 154.054C280.202 154.27 280.426 154.578 280.562 154.978C280.702 155.378 280.772 155.852 280.772 156.4V160H279.932V156.25C279.932 155.722 279.82 155.298 279.596 154.978C279.376 154.658 279.02 154.498 278.528 154.498C278.024 154.498 277.642 154.652 277.382 154.96C277.122 155.268 276.992 155.722 276.992 156.322V160H276.152ZM285.179 160.144C284.635 160.144 284.165 160.01 283.769 159.742C283.377 159.47 283.075 159.092 282.863 158.608C282.651 158.124 282.545 157.564 282.545 156.928C282.545 156.252 282.655 155.676 282.875 155.2C283.099 154.72 283.409 154.354 283.805 154.102C284.201 153.85 284.659 153.724 285.179 153.724C285.631 153.724 286.041 153.83 286.409 154.042C286.777 154.254 287.069 154.582 287.285 155.026C287.501 155.47 287.609 156.04 287.609 156.736C287.609 156.808 287.607 156.89 287.603 156.982C287.599 157.07 287.593 157.162 287.585 157.258H283.415C283.447 157.682 283.533 158.054 283.673 158.374C283.817 158.69 284.015 158.94 284.267 159.124C284.523 159.304 284.837 159.394 285.209 159.394C285.461 159.394 285.703 159.35 285.935 159.262C286.167 159.17 286.383 159.03 286.583 158.842L287.075 159.406C286.851 159.618 286.575 159.794 286.247 159.934C285.923 160.074 285.567 160.144 285.179 160.144ZM283.403 156.52H286.751C286.751 156.14 286.693 155.794 286.577 155.482C286.465 155.17 286.291 154.922 286.055 154.738C285.823 154.554 285.531 154.462 285.179 154.462C284.703 154.462 284.297 154.626 283.961 154.954C283.629 155.282 283.443 155.804 283.403 156.52ZM289.213 160V153.868H290.053V160H289.213ZM289.627 152.638C289.475 152.638 289.345 152.584 289.237 152.476C289.133 152.368 289.081 152.238 289.081 152.086C289.081 151.926 289.133 151.792 289.237 151.684C289.345 151.572 289.475 151.516 289.627 151.516C289.787 151.516 289.919 151.572 290.023 151.684C290.131 151.792 290.185 151.926 290.185 152.086C290.185 152.238 290.131 152.368 290.023 152.476C289.919 152.584 289.787 152.638 289.627 152.638ZM292.093 160V153.868H292.933V154.84C293.085 154.48 293.295 154.204 293.563 154.012C293.835 153.82 294.149 153.724 294.505 153.724C294.873 153.724 295.173 153.822 295.405 154.018L295.279 154.816C295.159 154.732 295.027 154.67 294.883 154.63C294.743 154.59 294.591 154.57 294.427 154.57C294.131 154.57 293.871 154.654 293.647 154.822C293.423 154.99 293.247 155.224 293.119 155.524C292.995 155.82 292.933 156.166 292.933 156.562V160H292.093ZM298.547 160.144C297.739 160.144 297.101 159.858 296.633 159.286C296.165 158.71 295.931 157.928 295.931 156.94C295.931 156.28 296.037 155.71 296.249 155.23C296.461 154.75 296.763 154.38 297.155 154.12C297.547 153.856 298.011 153.724 298.547 153.724C299.087 153.724 299.553 153.854 299.945 154.114C300.337 154.37 300.637 154.738 300.845 155.218C301.057 155.698 301.163 156.268 301.163 156.928C301.163 157.588 301.057 158.16 300.845 158.644C300.633 159.124 300.331 159.494 299.939 159.754C299.547 160.014 299.083 160.144 298.547 160.144ZM298.547 159.352C299.099 159.352 299.529 159.138 299.837 158.71C300.149 158.282 300.305 157.688 300.305 156.928C300.305 156.164 300.149 155.57 299.837 155.146C299.529 154.722 299.099 154.51 298.547 154.51C297.987 154.51 297.553 154.722 297.245 155.146C296.941 155.566 296.789 156.164 296.789 156.94C296.789 157.704 296.943 158.298 297.251 158.722C297.559 159.142 297.991 159.352 298.547 159.352ZM227.842 174.144C227.338 174.144 226.904 174.016 226.54 173.76C226.176 173.5 225.896 173.132 225.7 172.656C225.508 172.176 225.412 171.604 225.412 170.94C225.412 170.272 225.512 169.698 225.712 169.218C225.912 168.738 226.198 168.37 226.57 168.114C226.942 167.854 227.386 167.724 227.902 167.724C228.394 167.724 228.814 167.844 229.162 168.084C229.514 168.32 229.77 168.66 229.93 169.104L229.132 169.398C229.028 169.114 228.87 168.896 228.658 168.744C228.446 168.592 228.198 168.516 227.914 168.516C227.382 168.516 226.976 168.722 226.696 169.134C226.42 169.546 226.282 170.148 226.282 170.94C226.282 171.7 226.42 172.292 226.696 172.716C226.972 173.136 227.36 173.346 227.86 173.346C228.188 173.346 228.47 173.258 228.706 173.082C228.942 172.906 229.106 172.666 229.198 172.362L229.99 172.626C229.85 173.106 229.59 173.48 229.21 173.748C228.834 174.012 228.378 174.144 227.842 174.144ZM233.826 174.144C233.018 174.144 232.38 173.858 231.912 173.286C231.444 172.71 231.21 171.928 231.21 170.94C231.21 170.28 231.316 169.71 231.528 169.23C231.74 168.75 232.042 168.38 232.434 168.12C232.826 167.856 233.29 167.724 233.826 167.724C234.366 167.724 234.832 167.854 235.224 168.114C235.616 168.37 235.916 168.738 236.124 169.218C236.336 169.698 236.442 170.268 236.442 170.928C236.442 171.588 236.336 172.16 236.124 172.644C235.912 173.124 235.61 173.494 235.218 173.754C234.826 174.014 234.362 174.144 233.826 174.144ZM233.826 173.352C234.378 173.352 234.808 173.138 235.116 172.71C235.428 172.282 235.584 171.688 235.584 170.928C235.584 170.164 235.428 169.57 235.116 169.146C234.808 168.722 234.378 168.51 233.826 168.51C233.266 168.51 232.832 168.722 232.524 169.146C232.22 169.566 232.068 170.164 232.068 170.94C232.068 171.704 232.222 172.298 232.53 172.722C232.838 173.142 233.27 173.352 233.826 173.352ZM238.042 174V167.868H238.882V168.588C239.058 168.308 239.288 168.094 239.572 167.946C239.856 167.798 240.174 167.724 240.526 167.724C240.914 167.724 241.252 167.82 241.54 168.012C241.832 168.204 242.048 168.474 242.188 168.822C242.36 168.478 242.604 168.21 242.92 168.018C243.24 167.822 243.596 167.724 243.988 167.724C244.624 167.724 245.13 167.922 245.506 168.318C245.882 168.71 246.07 169.242 246.07 169.914V174H245.23V170.238C245.23 169.67 245.116 169.238 244.888 168.942C244.66 168.646 244.33 168.498 243.898 168.498C243.614 168.498 243.364 168.572 243.148 168.72C242.936 168.868 242.77 169.076 242.65 169.344C242.53 169.608 242.47 169.914 242.47 170.262V174H241.63V170.238C241.63 169.666 241.52 169.234 241.3 168.942C241.08 168.646 240.752 168.498 240.316 168.498C239.872 168.498 239.522 168.656 239.266 168.972C239.01 169.284 238.882 169.712 238.882 170.256V174H238.042ZM249.559 176.562L249.157 175.914C249.717 175.838 250.115 175.69 250.351 175.47C250.587 175.254 250.705 174.928 250.705 174.492V167.868H251.545V174.228C251.545 174.928 251.385 175.47 251.065 175.854C250.745 176.238 250.243 176.474 249.559 176.562ZM251.125 166.638C250.973 166.638 250.843 166.584 250.735 166.476C250.627 166.368 250.573 166.238 250.573 166.086C250.573 165.926 250.627 165.792 250.735 165.684C250.843 165.572 250.973 165.516 251.125 165.516C251.277 165.516 251.407 165.57 251.515 165.678C251.623 165.786 251.677 165.922 251.677 166.086C251.677 166.238 251.625 166.368 251.521 166.476C251.417 166.584 251.285 166.638 251.125 166.638ZM255.822 174.144C255.014 174.144 254.376 173.858 253.908 173.286C253.44 172.71 253.206 171.928 253.206 170.94C253.206 170.28 253.312 169.71 253.524 169.23C253.736 168.75 254.038 168.38 254.43 168.12C254.822 167.856 255.286 167.724 255.822 167.724C256.362 167.724 256.828 167.854 257.22 168.114C257.612 168.37 257.912 168.738 258.12 169.218C258.332 169.698 258.438 170.268 258.438 170.928C258.438 171.588 258.332 172.16 258.12 172.644C257.908 173.124 257.606 173.494 257.214 173.754C256.822 174.014 256.358 174.144 255.822 174.144ZM255.822 173.352C256.374 173.352 256.804 173.138 257.112 172.71C257.424 172.282 257.58 171.688 257.58 170.928C257.58 170.164 257.424 169.57 257.112 169.146C256.804 168.722 256.374 168.51 255.822 168.51C255.262 168.51 254.828 168.722 254.52 169.146C254.216 169.566 254.064 170.164 254.064 170.94C254.064 171.704 254.218 172.298 254.526 172.722C254.834 173.142 255.266 173.352 255.822 173.352ZM261.955 176.556L261.541 175.884C262.097 175.852 262.551 175.772 262.903 175.644C263.255 175.52 263.515 175.342 263.683 175.11C263.851 174.878 263.935 174.584 263.935 174.228V173.262C263.567 173.85 263.011 174.144 262.267 174.144C261.775 174.144 261.345 174.01 260.977 173.742C260.609 173.474 260.323 173.1 260.119 172.62C259.915 172.136 259.813 171.572 259.813 170.928C259.813 170.276 259.915 169.71 260.119 169.23C260.327 168.75 260.617 168.38 260.989 168.12C261.361 167.856 261.801 167.724 262.309 167.724C262.641 167.724 262.951 167.794 263.239 167.934C263.531 168.07 263.763 168.258 263.935 168.498V167.868H264.775V173.982C264.775 174.39 264.717 174.748 264.601 175.056C264.489 175.368 264.315 175.63 264.079 175.842C263.847 176.054 263.553 176.218 263.197 176.334C262.845 176.454 262.431 176.528 261.955 176.556ZM262.417 173.352C262.717 173.352 263.005 173.26 263.281 173.076C263.557 172.888 263.775 172.642 263.935 172.338V169.446C263.779 169.166 263.561 168.94 263.281 168.768C263.005 168.596 262.721 168.51 262.429 168.51C261.861 168.51 261.425 168.718 261.121 169.134C260.821 169.546 260.671 170.144 260.671 170.928C260.671 171.416 260.743 171.842 260.887 172.206C261.035 172.566 261.239 172.848 261.499 173.052C261.763 173.252 262.069 173.352 262.417 173.352ZM268.989 174.144C268.181 174.144 267.543 173.858 267.075 173.286C266.607 172.71 266.373 171.928 266.373 170.94C266.373 170.28 266.479 169.71 266.691 169.23C266.903 168.75 267.205 168.38 267.597 168.12C267.989 167.856 268.453 167.724 268.989 167.724C269.529 167.724 269.995 167.854 270.387 168.114C270.779 168.37 271.079 168.738 271.287 169.218C271.499 169.698 271.605 170.268 271.605 170.928C271.605 171.588 271.499 172.16 271.287 172.644C271.075 173.124 270.773 173.494 270.381 173.754C269.989 174.014 269.525 174.144 268.989 174.144ZM268.989 173.352C269.541 173.352 269.971 173.138 270.279 172.71C270.591 172.282 270.747 171.688 270.747 170.928C270.747 170.164 270.591 169.57 270.279 169.146C269.971 168.722 269.541 168.51 268.989 168.51C268.429 168.51 267.995 168.722 267.687 169.146C267.383 169.566 267.231 170.164 267.231 170.94C267.231 171.704 267.385 172.298 267.693 172.722C268.001 173.142 268.433 173.352 268.989 173.352ZM274.874 174.144C274.466 174.144 274.074 174.056 273.698 173.88C273.322 173.704 273.006 173.46 272.75 173.148L273.362 172.626C273.582 172.866 273.826 173.052 274.094 173.184C274.362 173.316 274.626 173.382 274.886 173.382C275.278 173.382 275.58 173.302 275.792 173.142C276.008 172.982 276.116 172.758 276.116 172.47C276.116 172.29 276.066 172.126 275.966 171.978C275.87 171.83 275.712 171.692 275.492 171.564C275.272 171.432 274.982 171.298 274.622 171.162C273.974 170.922 273.508 170.66 273.224 170.376C272.94 170.088 272.798 169.732 272.798 169.308C272.798 168.836 272.98 168.454 273.344 168.162C273.712 167.87 274.19 167.724 274.778 167.724C275.166 167.724 275.53 167.8 275.87 167.952C276.21 168.1 276.5 168.314 276.74 168.594L276.152 169.086C275.76 168.686 275.298 168.486 274.766 168.486C274.418 168.486 274.142 168.56 273.938 168.708C273.738 168.852 273.638 169.052 273.638 169.308C273.638 169.544 273.742 169.748 273.95 169.92C274.158 170.088 274.538 170.274 275.09 170.478C275.538 170.646 275.898 170.824 276.17 171.012C276.442 171.196 276.638 171.406 276.758 171.642C276.882 171.878 276.944 172.15 276.944 172.458C276.944 172.982 276.76 173.394 276.392 173.694C276.024 173.994 275.518 174.144 274.874 174.144Z" fill="black"/>
</svg>
