<svg width="80" height="80" viewBox="0 0 80 80" fill="none" xmlns="http://www.w3.org/2000/svg">
<g clip-path="url(#clip0_1506_16559)">
<path d="M30.5201 26.3041L44.6721 50.6241L54.3521 33.9201L40.2001 9.6001L30.5201 26.3041Z" fill="#FFB0D1"/>
<path d="M54.568 50.6239H44.672L54.352 33.9199H64.248L54.568 50.6239Z" fill="#BF0150"/>
<path d="M40.2001 9.6001L54.3521 33.9201H64.2481L50.0961 9.6001H40.2001Z" fill="#FE016A"/>
<path d="M31.472 58.7759L45.416 34.3359H26.104L12.16 58.7759H31.472Z" fill="#BF0150"/>
<path d="M40.4561 25.7764L45.4161 34.3364H26.1041L21.1441 25.7764H40.4561Z" fill="#FE016A"/>
<path d="M12.1601 58.7764L26.1041 34.3364L21.1441 25.7764L7.20007 50.2164L12.1601 58.7764Z" fill="#FFB0D1"/>
<path d="M58.8321 43.2236L54.5681 50.6236H44.6721L40.5921 43.2236H30.688L40.256 59.9916H68.4001L58.8321 43.2236Z" fill="#FE016A"/>
<path d="M25.7121 51.7756L30.6881 43.2236L40.2561 59.9916L35.2801 68.5436L25.7121 51.7756Z" fill="#FFB0D1"/>
<path d="M68.4 59.9922H40.256L35.28 68.5442H63.416L68.4 59.9922Z" fill="#BF0150"/>
</g>
<defs>
<clipPath id="clip0_1506_16559">
<rect width="61.2" height="58.944" fill="white" transform="translate(7.20001 9.6001)"/>
</clipPath>
</defs>
</svg>
