<svg width="230" height="222" viewBox="0 0 230 222" fill="none" xmlns="http://www.w3.org/2000/svg">
<g id="_&#195;&#178;__1" clip-path="url(#clip0_2042_21065)">
<path id="Vector" d="M87.4501 62.64L140.52 153.84L176.82 91.2L123.75 0L87.4501 62.64Z" fill="white"/>
<path id="Vector_2" d="M177.63 153.84H140.52L176.82 91.1997H213.93L177.63 153.84Z" fill="#FE016A"/>
<path id="Vector_3" d="M123.75 0L176.82 91.2H213.93L160.86 0H123.75Z" fill="#00EAE5"/>
<path id="Vector_4" d="M91.02 184.41L143.31 92.7598H70.89L18.6 184.41H91.02Z" fill="#FE016A"/>
<path id="Vector_5" d="M124.71 60.6599L143.31 92.7599H70.89L52.29 60.6599H124.71Z" fill="#00EAE5"/>
<path id="Vector_6" d="M18.6 184.41L70.89 92.7599L52.29 60.6599L0 152.31L18.6 184.41Z" fill="white"/>
<path id="Vector_7" d="M193.62 126.09L177.63 153.84H140.52L125.22 126.09H88.08L123.96 188.97H229.5L193.62 126.09Z" fill="#00EAE5"/>
<path id="Vector_8" d="M69.42 158.16L88.08 126.09L123.96 188.97L105.3 221.04L69.42 158.16Z" fill="white"/>
<path id="Vector_9" d="M229.5 188.97H123.96L105.3 221.04H210.81L229.5 188.97Z" fill="#FE016A"/>
</g>
<defs>
<clipPath id="clip0_2042_21065">
<rect width="229.5" height="221.04" fill="white"/>
</clipPath>
</defs>
</svg>
