<svg width="213" height="246" viewBox="0 0 213 246" fill="none" xmlns="http://www.w3.org/2000/svg">
<g id="_&#195;&#178;__1" clip-path="url(#clip0_2042_9506)">
<path id="Vector" d="M4.05992e-06 61.59L35.43 41.07L70.92 61.47L70.98 102.42L4.05992e-06 61.59Z" fill="white"/>
<path id="Vector_2" d="M141.93 102.3L177.33 81.75L212.79 61.26L212.85 102.18L177.42 122.7L141.93 102.3Z" fill="#00EAE5"/>
<path id="Vector_3" d="M106.44 81.9L141.84 61.35L177.27 40.83L212.79 61.26L177.33 81.75L141.93 102.3L106.44 81.9Z" fill="white"/>
<path id="Vector_4" d="M106.35 40.95L141.78 20.43L141.84 61.35L106.44 81.9L106.35 40.95Z" fill="#00EAE5"/>
<path id="Vector_5" d="M70.86 20.52L106.26 1.07347e-05L141.78 20.43L106.35 40.95L70.86 20.52Z" fill="white"/>
<path id="Vector_6" d="M70.86 20.5201L106.35 40.95L106.44 81.9L106.5 122.85L70.98 102.42L70.92 61.47L70.86 20.5201Z" fill="#FE016A"/>
<path id="Vector_7" d="M71.13 184.35L106.56 163.8L142.08 184.2L142.14 225.18L106.71 245.7L71.19 225.27L71.13 184.35Z" fill="#00EAE5"/>
<path id="Vector_8" d="M8.10935e-06 61.59L106.5 122.85L71.07 143.37L0.090008 102.57L8.10935e-06 61.59Z" fill="#FE016A"/>
<path id="Vector_9" d="M35.61 163.92L71.07 143.37L106.5 122.85L141.99 143.25L106.56 163.8L71.13 184.35L35.73 204.87L35.61 163.92Z" fill="#00EAE5"/>
<path id="Vector_10" d="M0.150015 143.52L35.58 122.97L71.07 143.37L35.61 163.92L0.150015 143.52Z" fill="white"/>
<path id="Vector_11" d="M0.150015 143.52L35.61 163.92L35.73 204.87L0.210009 184.44L0.150015 143.52Z" fill="#FE016A"/>
<path id="Vector_12" d="M177.48 163.68L212.91 143.13L213 184.11L177.57 204.6L177.48 163.68Z" fill="#00EAE5"/>
<path id="Vector_13" d="M106.44 81.9L212.91 143.13L177.48 163.68L106.5 122.85L106.44 81.9Z" fill="white"/>
<path id="Vector_14" d="M106.56 163.8L141.99 143.25L177.48 163.68L177.57 204.6L106.56 163.8Z" fill="#FE016A"/>
<path id="Vector_15" d="M106.56 163.8L106.71 245.7L71.19 225.27L71.13 184.35L106.56 163.8Z" fill="#FE016A"/>
</g>
<defs>
<clipPath id="clip0_2042_9506">
<rect width="213" height="245.7" fill="white" transform="translate(213 245.7) rotate(180)"/>
</clipPath>
</defs>
</svg>
