<svg width="57" height="66" viewBox="0 0 57 66" fill="none" xmlns="http://www.w3.org/2000/svg">
<g clip-path="url(#clip0_1506_13088)">
<path d="M0.200082 16.7042L9.64808 11.2322L19.1121 16.6722L19.1281 27.5922L0.200082 16.7042Z" fill="#FFB0D1"/>
<path d="M38.048 27.56L47.488 22.08L56.944 16.616L56.96 27.528L47.512 33L38.048 27.56Z" fill="#FE016A"/>
<path d="M28.5841 22.1202L38.0241 16.6402L47.4721 11.1682L56.9441 16.6162L47.4881 22.0802L38.0481 27.5602L28.5841 22.1202Z" fill="#FFB0D1"/>
<path d="M28.5601 11.1999L38.0081 5.72787L38.0241 16.6399L28.5841 22.1199L28.5601 11.1999Z" fill="#FE016A"/>
<path d="M19.0961 5.75195L28.5361 0.279951L38.0081 5.72795L28.5601 11.2L19.0961 5.75195Z" fill="#FFB0D1"/>
<path d="M19.0961 5.7518L28.5601 11.1998L28.5841 22.1198L28.6001 33.0398L19.1281 27.5918L19.1121 16.6718L19.0961 5.7518Z" fill="#BF0150"/>
<path d="M19.1681 49.44L28.6161 43.96L38.0881 49.4L38.1041 60.328L28.6561 65.8L19.1841 60.3521L19.1681 49.44Z" fill="#FE016A"/>
<path d="M0.200066 16.7041L28.6001 33.0401L19.1521 38.5121L0.224065 27.6321L0.200066 16.7041Z" fill="#BF0150"/>
<path d="M9.69602 43.9921L19.152 38.5121L28.6 33.0401L38.064 38.4801L28.616 43.9601L19.168 49.4401L9.72803 54.9121L9.69602 43.9921Z" fill="#FE016A"/>
<path d="M0.240011 38.5522L9.68801 33.0722L19.152 38.5122L9.69601 43.9922L0.240011 38.5522Z" fill="#FFB0D1"/>
<path d="M0.240089 38.5521L9.69609 43.9921L9.72809 54.9121L0.256087 49.4641L0.240089 38.5521Z" fill="#BF0150"/>
<path d="M47.5281 43.9278L56.9761 38.4478L57.0001 49.3758L47.5521 54.8398L47.5281 43.9278Z" fill="#FE016A"/>
<path d="M28.584 22.1201L56.976 38.4481L47.528 43.9281L28.6 33.0401L28.584 22.1201Z" fill="#FFB0D1"/>
<path d="M28.616 43.9598L38.064 38.4798L47.528 43.9278L47.552 54.8398L28.616 43.9598Z" fill="#BF0150"/>
<path d="M28.616 43.96L28.656 65.8L19.184 60.352L19.168 49.44L28.616 43.96Z" fill="#BF0150"/>
</g>
<defs>
<clipPath id="clip0_1506_13088">
<rect width="56.8" height="65.52" fill="white" transform="translate(57.0001 65.7998) rotate(180)"/>
</clipPath>
</defs>
</svg>
