<svg width="312" height="254" viewBox="0 0 312 254" fill="none" xmlns="http://www.w3.org/2000/svg">
<path d="M2.87031 122V26H10.7103V122H2.87031ZM53.6034 46.8L42.8834 43.52C40.8034 43.12 39.3634 44.32 39.3634 46.48V50.24L54.4034 62.8C54.4034 64.56 54.4034 111.12 54.4034 111.92C54.4034 120 51.1234 122.88 47.5234 122.88C42.7234 122.88 40.9634 118.24 39.8434 113.52H39.3634C39.3634 113.68 39.3634 121.76 39.3634 122H31.1234V63.52C31.1234 62.8 31.6034 62.32 32.3234 62.32H39.3634C39.3634 63.44 39.3634 103.36 39.3634 104.32C39.6034 109.2 40.2434 115.12 43.5234 115.12C45.3634 115.12 46.9634 113.12 46.9634 107.44V65.36L34.1634 54.08C32.0034 52.8 31.1234 50.88 31.1234 48V45.76C31.1234 41.28 34.7234 38 40.0834 38H54.7234V45.92C54.7234 46.64 54.2434 47.04 53.6034 46.8ZM73.4384 96.64V48.32C73.4384 44.96 72.2384 43.36 69.5984 43.36C67.0384 43.36 65.8384 44.96 65.8384 48.32V100.96L69.1184 100.64L73.4384 96.64ZM81.4384 114.48V122H66.9584C61.5984 122 57.9984 118.88 57.9984 113.44V46.96C57.9984 41.6 61.7584 38 67.1984 38H73.9184C77.7584 38 80.8784 40.4 80.8784 45.68V97.04L70.1584 105.52L65.8384 106.24V113.92C65.8384 116.08 67.2784 117.28 69.3584 116.96L80.2384 113.6C80.9584 113.44 81.4384 113.76 81.4384 114.48ZM100.079 96.64V48.32C100.079 44.96 98.8791 43.36 96.2391 43.36C93.6791 43.36 92.4791 44.96 92.4791 48.32V100.96L95.7591 100.64L100.079 96.64ZM108.079 114.48V122H93.5991C88.2391 122 84.6391 118.88 84.6391 113.44V46.96C84.6391 41.6 88.3991 38 93.8391 38H100.559C104.399 38 107.519 40.4 107.519 45.68V97.04L96.7991 105.52L92.4791 106.24V113.92C92.4791 116.08 93.9191 117.28 95.9991 116.96L106.879 113.6C107.599 113.44 108.079 113.76 108.079 114.48ZM135.375 55.76V116.24H140.575L143.055 113.2V51.2C143.055 46.56 141.375 44.96 139.695 44.96C136.575 44.96 135.695 50.8 135.375 55.76ZM127.535 122V26H135.375V46.56H135.935C137.135 41.84 139.535 37.2 144.335 37.2C147.935 37.2 150.895 39.68 150.895 46.56V110.64L142.015 122H127.535ZM154.332 38H162.172V46.56H162.652C163.852 41.84 166.332 37.2 171.132 37.2C174.652 37.2 177.612 40 177.612 47.28V54.4L170.412 63.28C170.012 63.68 169.772 63.52 169.772 62.96V51.2C169.772 46.56 168.092 44.96 166.412 44.96C163.052 44.96 162.412 51.28 162.172 55.76V122H154.332V38ZM195.628 55.36L188.028 62.96V108.88C188.028 113.44 189.548 115.12 191.388 115.12C194.668 115.12 195.388 109.2 195.628 104.32V55.36ZM180.108 45.92V38H194.508C199.868 38 203.468 41.6 203.468 46.96V122H195.628V113.52H195.068C193.948 118.24 192.268 122.88 187.388 122.88C183.868 122.88 180.588 120.4 180.588 113.52V64.16L192.908 51.36L195.628 50.48V46.48C195.628 44.32 194.188 43.12 192.108 43.44L181.228 46.8C180.508 47.04 180.108 46.64 180.108 45.92ZM206.988 122V38H214.828V46.56H215.308C216.508 41.84 218.828 37.2 223.868 37.2C227.628 37.2 230.268 39.68 230.268 46.56V122H222.428V51.2C222.428 46.48 220.988 44.96 219.148 44.96C215.708 44.96 215.068 50.8 214.828 55.76V122H206.988ZM249.22 104.4V43.76H244.1L241.62 46.72V108.8C241.62 113.44 243.3 115.04 244.9 115.04C248.02 115.04 248.9 109.2 249.22 104.4ZM257.06 26V122H249.22V113.44H248.74C247.46 118.16 245.06 122.8 240.26 122.8C236.66 122.8 233.78 120.32 233.78 113.44V49.36L242.58 38H249.22V26H257.06ZM283.135 46.8L272.415 43.52C270.335 43.12 268.895 44.32 268.895 46.48V50.24L283.935 62.8C283.935 64.56 283.935 111.12 283.935 111.92C283.935 120 280.655 122.88 277.055 122.88C272.255 122.88 270.495 118.24 269.375 113.52H268.895C268.895 113.68 268.895 121.76 268.895 122H260.655V63.52C260.655 62.8 261.135 62.32 261.855 62.32H268.895C268.895 63.44 268.895 103.36 268.895 104.32C269.135 109.2 269.775 115.12 273.055 115.12C274.895 115.12 276.495 113.12 276.495 107.44V65.36L263.695 54.08C261.535 52.8 260.655 50.88 260.655 48V45.76C260.655 41.28 264.255 38 269.615 38H284.255V45.92C284.255 46.64 283.775 47.04 283.135 46.8Z" fill="#FE016A"/>
<path d="M44.1525 234V150H51.9925V234H44.1525ZM44.1525 145.6V139.12C44.1525 138.4 44.4725 138 45.1925 138H50.9525C51.6725 138 51.9925 138.4 51.9925 139.12V145.6C51.9925 146.32 51.6725 146.72 50.9525 146.72H45.1925C44.4725 146.72 44.1525 146.32 44.1525 145.6ZM55.6369 234V150H63.4769V158.56H63.9569C65.1569 153.84 67.4769 149.2 72.5169 149.2C76.2769 149.2 78.9169 151.68 78.9169 158.56V234H71.0769V163.2C71.0769 158.48 69.6369 156.96 67.7969 156.96C64.3569 156.96 63.7169 162.8 63.4769 167.76V234H55.6369ZM102.044 138H110.284C110.764 138 111.004 138.32 110.844 138.8L107.564 149.2C107.404 149.68 107.564 150 108.044 150H116.604V155.84H109.884V225.6C109.884 227.52 110.924 228.4 112.204 228.4C112.604 228.4 112.924 228.32 113.244 228.24L117.884 225.36C118.524 225.04 118.924 225.36 118.924 226.08V234H111.004C105.644 234 102.044 230.4 102.044 225.04V155.84H97.4838V150H102.044V138ZM121.418 234V138H129.258V158.56H129.738C130.938 153.84 133.418 149.2 138.218 149.2C141.738 149.2 144.698 151.68 144.698 158.56V234H136.858V163.2C136.858 158.56 135.178 156.96 133.498 156.96C130.298 156.96 129.498 162.88 129.258 167.84V234H121.418ZM163.649 208.64V160.32C163.649 156.96 162.449 155.36 159.809 155.36C157.249 155.36 156.049 156.96 156.049 160.32V212.96L159.329 212.64L163.649 208.64ZM171.649 226.48V234H157.169C151.809 234 148.209 230.88 148.209 225.44V158.96C148.209 153.6 151.969 150 157.409 150H164.129C167.969 150 171.089 152.4 171.089 157.68V209.04L160.369 217.52L156.049 218.24V225.92C156.049 228.08 157.489 229.28 159.569 228.96L170.449 225.6C171.169 225.44 171.649 225.76 171.649 226.48ZM206.386 224L206.306 167.76C206.066 162.8 205.346 156.96 202.066 156.96C200.226 156.96 198.706 158.56 198.706 163.2V219.12L202.466 224H206.386ZM205.106 240.08L202.866 248.48H205.826C209.266 248.48 211.026 247.04 211.026 244.08C211.026 240.88 209.106 240.16 205.586 240.08H205.106ZM206.386 150H214.226V229.76H199.906L196.626 225.6L197.506 234.08H207.186C213.906 234.08 217.586 237.84 217.586 244.08C217.586 250.4 213.746 254 207.506 254H200.786C197.106 254 194.546 251.92 195.266 249.52L197.586 240.16H193.506C192.306 240.16 191.666 239.28 191.666 238.08L191.746 225.44L194.866 223.28L190.866 218.16V158.56C190.866 151.68 194.226 149.2 197.826 149.2C202.786 149.2 204.626 153.84 205.826 158.56H206.386V150ZM232.948 167.36L225.348 174.96V220.88C225.348 225.44 226.868 227.12 228.708 227.12C231.988 227.12 232.708 221.2 232.948 216.32V167.36ZM217.428 157.92V150H231.828C237.188 150 240.788 153.6 240.788 158.96V234H232.948V225.52H232.388C231.268 230.24 229.588 234.88 224.708 234.88C221.188 234.88 217.908 232.4 217.908 225.52V176.16L230.228 163.36L232.948 162.48V158.48C232.948 156.32 231.508 155.12 229.428 155.44L218.548 158.8C217.828 159.04 217.428 158.64 217.428 157.92ZM244.309 234V150H252.149V158.56H252.709C253.829 153.84 256.309 149.2 261.109 149.2C264.629 149.2 267.669 151.68 267.669 158.56H268.149C269.349 153.84 271.829 149.2 276.549 149.2C280.149 149.2 283.109 151.68 283.109 158.56V234H275.269V163.2C275.269 158.56 273.589 156.96 271.909 156.96C268.789 156.96 267.909 162.88 267.669 167.76V234H259.749V163.2C259.749 158.56 258.069 156.96 256.469 156.96C253.269 156.96 252.389 162.88 252.149 167.76V234H244.309ZM302.087 208.64V160.32C302.087 156.96 300.887 155.36 298.247 155.36C295.687 155.36 294.487 156.96 294.487 160.32V212.96L297.767 212.64L302.087 208.64ZM310.087 226.48V234H295.607C290.247 234 286.647 230.88 286.647 225.44V158.96C286.647 153.6 290.407 150 295.847 150H302.567C306.407 150 309.527 152.4 309.527 157.68V209.04L298.807 217.52L294.487 218.24V225.92C294.487 228.08 295.927 229.28 298.007 228.96L308.887 225.6C309.607 225.44 310.087 225.76 310.087 226.48Z" fill="#FE016A"/>
<path d="M3.93533 188C3.93533 187.472 4.00533 187.012 4.14533 186.62C4.28933 186.228 4.48333 185.882 4.72733 185.582C4.97533 185.282 5.25733 185.014 5.57333 184.778C5.89333 184.542 6.22333 184.322 6.56333 184.118C6.89533 183.914 7.20533 183.704 7.49333 183.488C7.78533 183.272 8.01933 183.03 8.19533 182.762C8.37533 182.49 8.46533 182.174 8.46533 181.814C8.46533 181.366 8.30933 180.994 7.99733 180.698C7.68533 180.398 7.25933 180.248 6.71933 180.248C6.19133 180.248 5.77533 180.372 5.47133 180.62C5.17133 180.864 4.95933 181.188 4.83533 181.592L4.07933 181.25C4.23533 180.734 4.54733 180.306 5.01533 179.966C5.48333 179.626 6.05933 179.456 6.74333 179.456C7.28333 179.456 7.74733 179.556 8.13533 179.756C8.52333 179.956 8.81933 180.234 9.02333 180.59C9.23133 180.946 9.33533 181.358 9.33533 181.826C9.33533 182.334 9.22333 182.766 8.99933 183.122C8.77533 183.474 8.48133 183.786 8.11733 184.058C7.75333 184.326 7.36533 184.582 6.95333 184.826C6.58133 185.05 6.24933 185.276 5.95733 185.504C5.66933 185.732 5.43333 185.98 5.24933 186.248C5.06933 186.516 4.95533 186.826 4.90733 187.178H9.40733V188H3.93533ZM13.9847 188.144C13.4407 188.144 12.9847 188.018 12.6167 187.766C12.2527 187.514 11.9607 187.178 11.7407 186.758C11.5247 186.334 11.3687 185.866 11.2727 185.354C11.1807 184.838 11.1347 184.32 11.1347 183.8C11.1347 183.436 11.1607 183.054 11.2127 182.654C11.2647 182.254 11.3527 181.866 11.4767 181.49C11.6007 181.11 11.7707 180.768 11.9867 180.464C12.2027 180.156 12.4747 179.912 12.8027 179.732C13.1307 179.548 13.5247 179.456 13.9847 179.456C14.5327 179.456 14.9887 179.584 15.3527 179.84C15.7207 180.092 16.0127 180.43 16.2287 180.854C16.4487 181.278 16.6047 181.746 16.6967 182.258C16.7927 182.77 16.8407 183.284 16.8407 183.8C16.8407 184.164 16.8127 184.546 16.7567 184.946C16.7047 185.346 16.6147 185.736 16.4867 186.116C16.3627 186.492 16.1907 186.834 15.9707 187.142C15.7547 187.446 15.4827 187.69 15.1547 187.874C14.8307 188.054 14.4407 188.144 13.9847 188.144ZM13.9847 187.346C14.3887 187.346 14.7187 187.236 14.9747 187.016C15.2307 186.792 15.4287 186.502 15.5687 186.146C15.7087 185.79 15.8067 185.406 15.8627 184.994C15.9187 184.582 15.9467 184.184 15.9467 183.8C15.9467 183.368 15.9147 182.944 15.8507 182.528C15.7907 182.108 15.6867 181.726 15.5387 181.382C15.3947 181.034 15.1967 180.758 14.9447 180.554C14.6927 180.35 14.3727 180.248 13.9847 180.248C13.5807 180.248 13.2487 180.36 12.9887 180.584C12.7327 180.804 12.5327 181.094 12.3887 181.454C12.2487 181.81 12.1507 182.196 12.0947 182.612C12.0387 183.024 12.0107 183.42 12.0107 183.8C12.0107 184.232 12.0407 184.66 12.1007 185.084C12.1647 185.504 12.2707 185.884 12.4187 186.224C12.5667 186.564 12.7687 186.836 13.0247 187.04C13.2807 187.244 13.6007 187.346 13.9847 187.346ZM19.6107 188V181.208H18.2007V180.638C18.5047 180.638 18.7647 180.61 18.9807 180.554C19.1967 180.494 19.3747 180.39 19.5147 180.242C19.6587 180.09 19.7707 179.876 19.8507 179.6H20.4507V188H19.6107ZM23.9123 188C23.9203 187.088 24.0043 186.208 24.1643 185.36C24.3283 184.512 24.5983 183.68 24.9743 182.864C25.3503 182.044 25.8603 181.22 26.5043 180.392H22.2803V179.6H27.4283V180.356C26.8763 180.992 26.4263 181.652 26.0783 182.336C25.7343 183.02 25.4683 183.7 25.2803 184.376C25.0923 185.052 24.9623 185.698 24.8903 186.314C24.8223 186.93 24.7863 187.492 24.7823 188H23.9123Z" fill="white"/>
<path d="M4.82856 166.16L4.59656 165.92C4.69256 165.893 4.7939 165.872 4.90056 165.856C5.01256 165.84 5.1299 165.827 5.25256 165.816C5.38056 165.805 5.51123 165.8 5.64456 165.8C6.4179 165.8 7.0899 165.917 7.66056 166.152C8.23656 166.387 8.6819 166.723 8.99656 167.16C9.31123 167.597 9.46856 168.123 9.46856 168.736C9.46856 169.451 9.28723 170.075 8.92456 170.608C8.56723 171.141 8.0579 171.555 7.39656 171.848C6.74056 172.136 5.95923 172.28 5.05256 172.28C4.1779 172.28 3.44723 172.171 2.86056 171.952C2.2739 171.728 1.8339 171.424 1.54056 171.04C1.24723 170.651 1.10056 170.213 1.10056 169.728C1.10056 169.269 1.2419 168.899 1.52456 168.616C1.81256 168.328 2.16723 168.184 2.58856 168.184C3.03656 168.184 3.37256 168.307 3.59656 168.552C3.8259 168.792 3.94056 169.112 3.94056 169.512V170.328C3.94056 170.68 4.03656 170.973 4.22856 171.208C4.42056 171.443 4.69523 171.557 5.05256 171.552C5.35656 171.552 5.6179 171.469 5.83656 171.304C6.06056 171.139 6.2339 170.883 6.35656 170.536C6.48456 170.184 6.54856 169.731 6.54856 169.176C6.54856 168.328 6.39656 167.715 6.09256 167.336C5.78856 166.957 5.34856 166.768 4.77256 166.768H4.22056C4.0339 166.768 3.89523 166.728 3.80456 166.648C3.7139 166.568 3.66856 166.451 3.66856 166.296C3.66856 166.184 3.69523 166.083 3.74856 165.992C3.8019 165.896 3.90056 165.784 4.04456 165.656L7.62856 162.288L7.70856 163.104H3.37256C3.1699 163.104 3.01256 163.141 2.90056 163.216C2.78856 163.285 2.71123 163.403 2.66856 163.568L2.48456 164.312C2.45256 164.44 2.39123 164.544 2.30056 164.624C2.21523 164.699 2.0899 164.736 1.92456 164.736C1.76456 164.736 1.6339 164.693 1.53256 164.608C1.43656 164.517 1.39656 164.381 1.41256 164.2L1.69256 161.448C1.70856 161.245 1.78856 161.088 1.93256 160.976C2.07656 160.859 2.27123 160.8 2.51656 160.8H8.84456C9.1059 160.8 9.29256 160.835 9.40456 160.904C9.5219 160.968 9.58056 161.072 9.58056 161.216C9.58056 161.317 9.54323 161.432 9.46856 161.56C9.3939 161.683 9.23656 161.859 8.99656 162.088L4.82856 166.16ZM14.8577 172.28C13.8817 172.28 13.0844 172.16 12.4657 171.92C11.8524 171.68 11.399 171.352 11.1057 170.936C10.8177 170.52 10.6737 170.045 10.6737 169.512C10.6737 169.091 10.8017 168.707 11.0577 168.36C11.3137 168.008 11.711 167.715 12.2497 167.48C12.7937 167.24 13.4924 167.085 14.3457 167.016L14.3777 167.2C14.111 167.413 13.9217 167.72 13.8097 168.12C13.703 168.515 13.6497 168.904 13.6497 169.288C13.6497 170.019 13.783 170.589 14.0497 171C14.3164 171.405 14.7084 171.608 15.2257 171.608C15.695 171.608 16.0497 171.459 16.2897 171.16C16.5297 170.856 16.6497 170.443 16.6497 169.92C16.6497 169.557 16.5777 169.224 16.4337 168.92C16.2897 168.611 16.039 168.336 15.6817 168.096C15.3244 167.851 14.8284 167.64 14.1937 167.464C12.9564 167.117 12.0657 166.656 11.5217 166.08C10.9777 165.499 10.7057 164.843 10.7057 164.112C10.7057 163.477 10.879 162.888 11.2257 162.344C11.5777 161.8 12.111 161.36 12.8257 161.024C13.5404 160.688 14.4364 160.52 15.5137 160.52C16.3937 160.52 17.1457 160.653 17.7697 160.92C18.399 161.181 18.8817 161.544 19.2177 162.008C19.559 162.472 19.7297 163 19.7297 163.592C19.7297 164.067 19.5964 164.512 19.3297 164.928C19.0684 165.339 18.655 165.683 18.0897 165.96C17.5297 166.237 16.7964 166.405 15.8897 166.464L15.6577 166.264C15.887 166.083 16.0897 165.859 16.2657 165.592C16.4417 165.325 16.5777 165.027 16.6737 164.696C16.775 164.36 16.8257 164 16.8257 163.616C16.8257 163.099 16.759 162.664 16.6257 162.312C16.4977 161.955 16.3084 161.683 16.0577 161.496C15.807 161.309 15.4977 161.216 15.1297 161.216C14.815 161.216 14.5457 161.293 14.3217 161.448C14.0977 161.603 13.927 161.813 13.8097 162.08C13.6924 162.341 13.6337 162.645 13.6337 162.992C13.6337 163.472 13.7164 163.896 13.8817 164.264C14.0524 164.627 14.3377 164.947 14.7377 165.224C15.1377 165.501 15.6844 165.747 16.3777 165.96C17.5404 166.307 18.3937 166.744 18.9377 167.272C19.4817 167.8 19.7537 168.4 19.7537 169.072C19.7537 169.696 19.5617 170.248 19.1777 170.728C18.799 171.208 18.2444 171.587 17.5137 171.864C16.783 172.141 15.8977 172.28 14.8577 172.28ZM23.8632 160.552C24.7379 160.552 25.4419 160.816 25.9752 161.344C26.5139 161.872 26.7832 162.595 26.7832 163.512C26.7832 164.189 26.6552 164.765 26.3992 165.24C26.1432 165.715 25.7885 166.075 25.3352 166.32C24.8872 166.565 24.3752 166.688 23.7992 166.688C22.8499 166.688 22.1112 166.421 21.5832 165.888C21.0605 165.355 20.7992 164.597 20.7992 163.616C20.7992 162.688 21.0739 161.947 21.6232 161.392C22.1725 160.832 22.9192 160.552 23.8632 160.552ZM24.6872 163.648C24.6872 162.741 24.6099 162.101 24.4552 161.728C24.3005 161.349 24.0819 161.16 23.7992 161.16C23.5005 161.16 23.2765 161.349 23.1272 161.728C22.9779 162.107 22.9032 162.701 22.9032 163.512C22.9032 164.461 22.9805 165.125 23.1352 165.504C23.2952 165.883 23.5245 166.072 23.8232 166.072C23.9939 166.072 24.1432 166.003 24.2712 165.864C24.3992 165.72 24.5005 165.472 24.5752 165.12C24.6499 164.768 24.6872 164.277 24.6872 163.648ZM27.7592 165.776C27.6632 165.893 27.5752 165.968 27.4952 166C27.4205 166.027 27.3272 166.011 27.2152 165.952C27.1192 165.904 27.0659 165.84 27.0552 165.76C27.0499 165.675 27.0765 165.565 27.1352 165.432C27.2152 165.272 27.3139 165.069 27.4312 164.824C27.5539 164.579 27.6845 164.312 27.8232 164.024C27.9672 163.731 28.1139 163.432 28.2632 163.128C28.4125 162.824 28.5592 162.533 28.7032 162.256C28.8472 161.979 28.9752 161.731 29.0872 161.512C29.2045 161.288 29.3005 161.117 29.3752 161C29.5085 160.787 29.6712 160.651 29.8632 160.592C30.0605 160.528 30.2739 160.56 30.5032 160.688C30.7272 160.811 30.8552 160.965 30.8872 161.152C30.9245 161.339 30.8765 161.539 30.7432 161.752C30.6739 161.864 30.5672 162.019 30.4232 162.216C30.2792 162.413 30.1139 162.64 29.9272 162.896C29.7459 163.152 29.5539 163.419 29.3512 163.696C29.1485 163.968 28.9459 164.237 28.7432 164.504C28.5459 164.765 28.3619 165.005 28.1912 165.224C28.0205 165.443 27.8765 165.627 27.7592 165.776ZM26.1512 167C26.2525 166.883 26.3432 166.808 26.4232 166.776C26.5032 166.739 26.5992 166.749 26.7112 166.808C26.8072 166.861 26.8579 166.931 26.8632 167.016C26.8739 167.101 26.8445 167.208 26.7752 167.336C26.7005 167.496 26.6019 167.701 26.4792 167.952C26.3619 168.197 26.2312 168.467 26.0872 168.76C25.9432 169.053 25.7965 169.352 25.6472 169.656C25.5032 169.96 25.3592 170.253 25.2152 170.536C25.0712 170.813 24.9405 171.061 24.8232 171.28C24.7112 171.499 24.6179 171.667 24.5432 171.784C24.4045 171.992 24.2365 172.125 24.0392 172.184C23.8472 172.243 23.6392 172.211 23.4152 172.088C23.1965 171.971 23.0685 171.821 23.0312 171.64C22.9939 171.453 23.0445 171.251 23.1832 171.032C23.2525 170.92 23.3565 170.765 23.4952 170.568C23.6392 170.365 23.8019 170.136 23.9832 169.88C24.1699 169.624 24.3645 169.36 24.5672 169.088C24.7752 168.811 24.9779 168.541 25.1752 168.28C25.3779 168.013 25.5619 167.768 25.7272 167.544C25.8979 167.32 26.0392 167.139 26.1512 167ZM30.1672 166.128C31.0419 166.128 31.7459 166.392 32.2792 166.92C32.8179 167.448 33.0872 168.171 33.0872 169.088C33.0872 169.765 32.9592 170.341 32.7032 170.816C32.4472 171.291 32.0925 171.651 31.6392 171.896C31.1912 172.141 30.6792 172.264 30.1032 172.264C29.1539 172.264 28.4152 171.997 27.8872 171.464C27.3645 170.931 27.1032 170.173 27.1032 169.192C27.1032 168.264 27.3779 167.523 27.9272 166.968C28.4765 166.408 29.2232 166.128 30.1672 166.128ZM30.9912 169.224C30.9912 168.317 30.9139 167.677 30.7592 167.304C30.6045 166.925 30.3859 166.736 30.1032 166.736C29.8045 166.736 29.5805 166.925 29.4312 167.304C29.2819 167.683 29.2072 168.277 29.2072 169.088C29.2072 170.037 29.2845 170.701 29.4392 171.08C29.5992 171.459 29.8285 171.648 30.1272 171.648C30.2979 171.648 30.4472 171.579 30.5752 171.44C30.7032 171.296 30.8045 171.048 30.8792 170.696C30.9539 170.344 30.9912 169.853 30.9912 169.224Z" fill="white"/>
<path d="M272.926 28C272.926 27.472 272.996 27.012 273.136 26.62C273.28 26.228 273.474 25.882 273.718 25.582C273.966 25.282 274.248 25.014 274.564 24.778C274.884 24.542 275.214 24.322 275.554 24.118C275.886 23.914 276.196 23.704 276.484 23.488C276.776 23.272 277.01 23.03 277.186 22.762C277.366 22.49 277.456 22.174 277.456 21.814C277.456 21.366 277.3 20.994 276.988 20.698C276.676 20.398 276.25 20.248 275.71 20.248C275.182 20.248 274.766 20.372 274.462 20.62C274.162 20.864 273.95 21.188 273.826 21.592L273.07 21.25C273.226 20.734 273.538 20.306 274.006 19.966C274.474 19.626 275.05 19.456 275.734 19.456C276.274 19.456 276.738 19.556 277.126 19.756C277.514 19.956 277.81 20.234 278.014 20.59C278.222 20.946 278.326 21.358 278.326 21.826C278.326 22.334 278.214 22.766 277.99 23.122C277.766 23.474 277.472 23.786 277.108 24.058C276.744 24.326 276.356 24.582 275.944 24.826C275.572 25.05 275.24 25.276 274.948 25.504C274.66 25.732 274.424 25.98 274.24 26.248C274.06 26.516 273.946 26.826 273.898 27.178H278.398V28H272.926ZM282.975 28.144C282.431 28.144 281.975 28.018 281.607 27.766C281.243 27.514 280.951 27.178 280.731 26.758C280.515 26.334 280.359 25.866 280.263 25.354C280.171 24.838 280.125 24.32 280.125 23.8C280.125 23.436 280.151 23.054 280.203 22.654C280.255 22.254 280.343 21.866 280.467 21.49C280.591 21.11 280.761 20.768 280.977 20.464C281.193 20.156 281.465 19.912 281.793 19.732C282.121 19.548 282.515 19.456 282.975 19.456C283.523 19.456 283.979 19.584 284.343 19.84C284.711 20.092 285.003 20.43 285.219 20.854C285.439 21.278 285.595 21.746 285.687 22.258C285.783 22.77 285.831 23.284 285.831 23.8C285.831 24.164 285.803 24.546 285.747 24.946C285.695 25.346 285.605 25.736 285.477 26.116C285.353 26.492 285.181 26.834 284.961 27.142C284.745 27.446 284.473 27.69 284.145 27.874C283.821 28.054 283.431 28.144 282.975 28.144ZM282.975 27.346C283.379 27.346 283.709 27.236 283.965 27.016C284.221 26.792 284.419 26.502 284.559 26.146C284.699 25.79 284.797 25.406 284.853 24.994C284.909 24.582 284.937 24.184 284.937 23.8C284.937 23.368 284.905 22.944 284.841 22.528C284.781 22.108 284.677 21.726 284.529 21.382C284.385 21.034 284.187 20.758 283.935 20.554C283.683 20.35 283.363 20.248 282.975 20.248C282.571 20.248 282.239 20.36 281.979 20.584C281.723 20.804 281.523 21.094 281.379 21.454C281.239 21.81 281.141 22.196 281.085 22.612C281.029 23.024 281.001 23.42 281.001 23.8C281.001 24.232 281.031 24.66 281.091 25.084C281.155 25.504 281.261 25.884 281.409 26.224C281.557 26.564 281.759 26.836 282.015 27.04C282.271 27.244 282.591 27.346 282.975 27.346ZM287.545 28C287.545 27.472 287.615 27.012 287.755 26.62C287.899 26.228 288.093 25.882 288.337 25.582C288.585 25.282 288.867 25.014 289.183 24.778C289.503 24.542 289.833 24.322 290.173 24.118C290.505 23.914 290.815 23.704 291.103 23.488C291.395 23.272 291.629 23.03 291.805 22.762C291.985 22.49 292.075 22.174 292.075 21.814C292.075 21.366 291.919 20.994 291.607 20.698C291.295 20.398 290.869 20.248 290.329 20.248C289.801 20.248 289.385 20.372 289.081 20.62C288.781 20.864 288.569 21.188 288.445 21.592L287.689 21.25C287.845 20.734 288.157 20.306 288.625 19.966C289.093 19.626 289.669 19.456 290.353 19.456C290.893 19.456 291.357 19.556 291.745 19.756C292.133 19.956 292.429 20.234 292.633 20.59C292.841 20.946 292.945 21.358 292.945 21.826C292.945 22.334 292.833 22.766 292.609 23.122C292.385 23.474 292.091 23.786 291.727 24.058C291.363 24.326 290.975 24.582 290.563 24.826C290.191 25.05 289.859 25.276 289.567 25.504C289.279 25.732 289.043 25.98 288.859 26.248C288.679 26.516 288.565 26.826 288.517 27.178H293.017V28H287.545ZM297.27 28.144C296.598 28.144 296.022 27.982 295.542 27.658C295.062 27.33 294.7 26.856 294.456 26.236L295.242 25.918C295.642 26.862 296.318 27.334 297.27 27.334C297.862 27.334 298.33 27.188 298.674 26.896C299.022 26.6 299.196 26.202 299.196 25.702C299.196 25.178 299.032 24.77 298.704 24.478C298.38 24.182 297.928 24.034 297.348 24.034H296.796V23.236H297.246C297.734 23.236 298.126 23.098 298.422 22.822C298.718 22.542 298.866 22.178 298.866 21.73C298.866 21.286 298.722 20.93 298.434 20.662C298.146 20.39 297.77 20.254 297.306 20.254C296.922 20.254 296.574 20.356 296.262 20.56C295.954 20.764 295.708 21.058 295.524 21.442L294.738 21.142C294.954 20.618 295.29 20.206 295.746 19.906C296.206 19.606 296.726 19.456 297.306 19.456C297.778 19.456 298.198 19.552 298.566 19.744C298.934 19.932 299.222 20.192 299.43 20.524C299.642 20.852 299.748 21.226 299.748 21.646C299.748 22.062 299.644 22.44 299.436 22.78C299.228 23.116 298.94 23.37 298.572 23.542C299.044 23.694 299.412 23.958 299.676 24.334C299.944 24.71 300.078 25.158 300.078 25.678C300.078 26.162 299.958 26.59 299.718 26.962C299.482 27.33 299.152 27.62 298.728 27.832C298.308 28.04 297.822 28.144 297.27 28.144Z" fill="white"/>
<path d="M276.677 6.792C276.677 6.65867 276.698 6.544 276.741 6.448C276.784 6.352 276.848 6.264 276.933 6.184L278.773 4.52C278.89 4.408 278.989 4.336 279.069 4.304C279.149 4.272 279.226 4.256 279.301 4.256C279.402 4.256 279.482 4.28533 279.541 4.344C279.6 4.40267 279.629 4.49867 279.629 4.632L279.645 10.368C279.645 10.528 279.682 10.6507 279.757 10.736C279.832 10.816 279.936 10.8747 280.069 10.912L280.661 11.08C280.81 11.128 280.922 11.1893 280.997 11.264C281.077 11.3387 281.117 11.432 281.117 11.544C281.117 11.688 281.069 11.8 280.973 11.88C280.882 11.96 280.738 12 280.541 12H275.669C275.285 12 275.093 11.8507 275.093 11.552C275.093 11.3173 275.242 11.16 275.541 11.08L276.269 10.912C276.402 10.8747 276.504 10.8187 276.573 10.744C276.642 10.664 276.677 10.544 276.677 10.384V6.792ZM275.005 5.04C275.25 4.81067 275.432 4.60267 275.549 4.416C275.666 4.224 275.725 4.02667 275.725 3.824C275.725 3.65333 275.696 3.496 275.637 3.352C275.578 3.20267 275.506 3.05333 275.421 2.904C275.341 2.75467 275.272 2.59467 275.213 2.424C275.154 2.248 275.125 2.05067 275.125 1.832C275.125 1.53867 275.197 1.27733 275.341 1.048C275.485 0.813333 275.698 0.631999 275.981 0.504C276.269 0.370667 276.629 0.304 277.061 0.304C277.584 0.304 278.002 0.434666 278.317 0.695999C278.637 0.957333 278.797 1.328 278.797 1.808C278.797 2.01067 278.76 2.224 278.685 2.448C278.616 2.672 278.474 2.928 278.261 3.216C278.048 3.49867 277.728 3.83733 277.301 4.232L272.693 8.712L272.533 8.296H280.805C280.97 8.296 281.104 8.328 281.205 8.392C281.306 8.456 281.357 8.56 281.357 8.704C281.357 9.01867 281.168 9.176 280.789 9.176H272.309C272.117 9.176 271.968 9.128 271.861 9.032C271.76 8.93067 271.709 8.80267 271.709 8.648C271.709 8.55733 271.738 8.46133 271.797 8.36C271.861 8.25333 271.97 8.128 272.125 7.984L275.005 5.04ZM286.519 12.28C285.74 12.28 285.079 12.168 284.535 11.944C283.996 11.7147 283.586 11.416 283.303 11.048C283.026 10.68 282.887 10.2827 282.887 9.856C282.887 9.38133 283.023 9.016 283.295 8.76C283.572 8.49867 283.94 8.368 284.399 8.368C284.868 8.368 285.228 8.49067 285.479 8.736C285.735 8.976 285.863 9.32 285.863 9.768V10.48C285.863 10.8 285.946 11.048 286.111 11.224C286.276 11.3947 286.524 11.48 286.855 11.48C287.218 11.48 287.546 11.304 287.839 10.952C288.132 10.5947 288.364 10.0053 288.535 9.184C288.711 8.36267 288.799 7.256 288.799 5.864C288.799 4.68 288.722 3.76 288.567 3.104C288.418 2.44267 288.212 1.97867 287.951 1.712C287.695 1.44 287.407 1.304 287.087 1.304C286.612 1.304 286.234 1.51733 285.951 1.944C285.668 2.36533 285.527 3.02133 285.527 3.912C285.527 4.71733 285.687 5.33067 286.007 5.752C286.332 6.168 286.754 6.376 287.271 6.376C287.57 6.376 287.847 6.312 288.103 6.184C288.364 6.056 288.583 5.87733 288.759 5.648C288.935 5.41867 289.042 5.15733 289.079 4.864L289.583 5C289.556 5.44267 289.388 5.85333 289.079 6.232C288.77 6.60533 288.356 6.90667 287.839 7.136C287.327 7.36533 286.754 7.48 286.119 7.48C285.394 7.48 284.767 7.35467 284.239 7.104C283.711 6.85333 283.303 6.488 283.015 6.008C282.727 5.528 282.583 4.944 282.583 4.256C282.583 3.52 282.767 2.872 283.135 2.312C283.503 1.74667 284.02 1.30667 284.687 0.992C285.359 0.677333 286.151 0.52 287.063 0.52C288.082 0.52 288.946 0.743999 289.655 1.192C290.37 1.63467 290.914 2.26667 291.287 3.088C291.666 3.90933 291.855 4.88267 291.855 6.008C291.855 7.34133 291.639 8.47733 291.207 9.416C290.775 10.3493 290.159 11.0613 289.359 11.552C288.564 12.0373 287.618 12.28 286.519 12.28ZM295.887 0.551999C296.761 0.551999 297.465 0.815999 297.999 1.344C298.537 1.872 298.807 2.59467 298.807 3.512C298.807 4.18933 298.679 4.76533 298.423 5.24C298.167 5.71467 297.812 6.07467 297.359 6.32C296.911 6.56533 296.399 6.688 295.823 6.688C294.873 6.688 294.135 6.42133 293.607 5.888C293.084 5.35467 292.823 4.59733 292.823 3.616C292.823 2.688 293.097 1.94667 293.647 1.392C294.196 0.831999 294.943 0.551999 295.887 0.551999ZM296.711 3.648C296.711 2.74133 296.633 2.10133 296.479 1.728C296.324 1.34933 296.105 1.16 295.823 1.16C295.524 1.16 295.3 1.34933 295.151 1.728C295.001 2.10667 294.927 2.70133 294.927 3.512C294.927 4.46133 295.004 5.12533 295.159 5.504C295.319 5.88267 295.548 6.072 295.847 6.072C296.017 6.072 296.167 6.00267 296.295 5.864C296.423 5.72 296.524 5.472 296.599 5.12C296.673 4.768 296.711 4.27733 296.711 3.648ZM299.783 5.776C299.687 5.89333 299.599 5.968 299.519 6C299.444 6.02667 299.351 6.01067 299.239 5.952C299.143 5.904 299.089 5.84 299.079 5.76C299.073 5.67467 299.1 5.56533 299.159 5.432C299.239 5.272 299.337 5.06933 299.455 4.824C299.577 4.57867 299.708 4.312 299.847 4.024C299.991 3.73067 300.137 3.432 300.287 3.128C300.436 2.824 300.583 2.53333 300.727 2.256C300.871 1.97867 300.999 1.73067 301.111 1.512C301.228 1.288 301.324 1.11733 301.399 0.999999C301.532 0.786666 301.695 0.650666 301.887 0.591999C302.084 0.527999 302.297 0.559999 302.527 0.688C302.751 0.810666 302.879 0.965333 302.911 1.152C302.948 1.33867 302.9 1.53867 302.767 1.752C302.697 1.864 302.591 2.01867 302.447 2.216C302.303 2.41333 302.137 2.64 301.951 2.896C301.769 3.152 301.577 3.41867 301.375 3.696C301.172 3.968 300.969 4.23733 300.767 4.504C300.569 4.76533 300.385 5.00533 300.215 5.224C300.044 5.44267 299.9 5.62667 299.783 5.776ZM298.175 7C298.276 6.88267 298.367 6.808 298.447 6.776C298.527 6.73867 298.623 6.74933 298.735 6.808C298.831 6.86133 298.881 6.93067 298.887 7.016C298.897 7.10133 298.868 7.208 298.799 7.336C298.724 7.496 298.625 7.70133 298.503 7.952C298.385 8.19733 298.255 8.46667 298.111 8.76C297.967 9.05333 297.82 9.352 297.671 9.656C297.527 9.96 297.383 10.2533 297.239 10.536C297.095 10.8133 296.964 11.0613 296.847 11.28C296.735 11.4987 296.641 11.6667 296.567 11.784C296.428 11.992 296.26 12.1253 296.063 12.184C295.871 12.2427 295.663 12.2107 295.439 12.088C295.22 11.9707 295.092 11.8213 295.055 11.64C295.017 11.4533 295.068 11.2507 295.207 11.032C295.276 10.92 295.38 10.7653 295.519 10.568C295.663 10.3653 295.825 10.136 296.007 9.88C296.193 9.624 296.388 9.36 296.591 9.088C296.799 8.81067 297.001 8.54133 297.199 8.28C297.401 8.01333 297.585 7.768 297.751 7.544C297.921 7.32 298.063 7.13867 298.175 7ZM302.191 6.128C303.065 6.128 303.769 6.392 304.303 6.92C304.841 7.448 305.111 8.17067 305.111 9.088C305.111 9.76533 304.983 10.3413 304.727 10.816C304.471 11.2907 304.116 11.6507 303.663 11.896C303.215 12.1413 302.703 12.264 302.127 12.264C301.177 12.264 300.439 11.9973 299.911 11.464C299.388 10.9307 299.127 10.1733 299.127 9.192C299.127 8.264 299.401 7.52267 299.951 6.968C300.5 6.408 301.247 6.128 302.191 6.128ZM303.015 9.224C303.015 8.31733 302.937 7.67733 302.783 7.304C302.628 6.92533 302.409 6.736 302.127 6.736C301.828 6.736 301.604 6.92533 301.455 7.304C301.305 7.68267 301.231 8.27733 301.231 9.088C301.231 10.0373 301.308 10.7013 301.463 11.08C301.623 11.4587 301.852 11.648 302.151 11.648C302.321 11.648 302.471 11.5787 302.599 11.44C302.727 11.296 302.828 11.048 302.903 10.696C302.977 10.344 303.015 9.85333 303.015 9.224Z" fill="white"/>
<path d="M36.8255 177.544C37.6779 178.744 39.3426 179.027 40.5435 178.175C41.7445 177.322 42.027 175.657 41.1745 174.456C40.3221 173.256 38.6574 172.973 37.4565 173.825C36.2555 174.678 35.973 176.343 36.8255 177.544ZM260.825 18.5435C261.678 19.7445 263.343 20.027 264.544 19.1745C265.745 18.3221 266.027 16.6574 265.175 15.4565C264.322 14.2555 262.657 13.973 261.456 14.8255C260.256 15.6779 259.973 17.3426 260.825 18.5435ZM39.2894 176.408L263.289 17.4077L262.711 16.5923L38.7106 175.592L39.2894 176.408Z" fill="white"/>
</svg>
