<svg width="303" height="219" viewBox="0 0 303 219" fill="none" xmlns="http://www.w3.org/2000/svg">
<rect x="39.7597" y="20.1749" width="114" height="27" transform="rotate(-9.89819 39.7597 20.1749)" fill="white"/>
<path d="M56.6152 34.7444L56.4004 33.513L55.169 33.7278L54.9541 32.4964L53.7227 32.7113L53.0781 29.0171L54.3095 28.8023L54.0946 27.5709L55.326 27.356L55.1111 26.1246L61.2681 25.0502L61.483 26.2816L56.5574 27.1411L56.7723 28.3725L55.5409 28.5874L56.1855 32.2816L57.4169 32.0667L57.6318 33.2981L60.0945 32.8683L59.6648 30.4056L58.4334 30.6204L58.2185 29.389L61.9127 28.7444L62.7722 33.67L56.6152 34.7444ZM65.3335 33.2231L65.1186 31.9917L63.8872 32.2065L62.8129 26.0496L64.0443 25.8347L63.8294 24.6033L69.9864 23.5289L70.2012 24.7603L71.4326 24.5455L72.507 30.7024L71.2756 30.9173L71.4905 32.1487L65.3335 33.2231ZM66.35 31.7768L70.0442 31.1322L68.9698 24.9752L65.2757 25.6198L66.35 31.7768ZM75.2832 31.4869L75.0683 30.2555L73.8369 30.4704L72.7625 24.3134L73.9939 24.0985L73.779 22.8671L79.936 21.7928L80.1509 23.0242L81.3823 22.8093L82.4566 28.9663L81.2253 29.1811L81.4401 30.4125L75.2832 31.4869ZM76.2997 30.0406L79.9939 29.396L78.9195 23.239L75.2253 23.8837L76.2997 30.0406ZM84.0014 29.9656L82.4973 21.3458L88.6543 20.2715L88.8692 21.5029L90.1005 21.288L90.3154 22.5194L91.5468 22.3045L92.1914 25.9987L90.96 26.2136L91.1749 27.445L89.9435 27.6598L90.1584 28.8912L84.0014 29.9656ZM86.2493 28.3045L88.7121 27.8747L88.4973 26.6433L89.7286 26.4284L89.084 22.7343L87.8526 22.9491L87.6378 21.7177L85.175 22.1475L86.2493 28.3045ZM106.364 26.0635L106.149 24.8321L104.917 25.047L104.702 23.8156L103.471 24.0305L102.826 20.3363L104.058 20.1214L103.843 18.89L105.074 18.6751L104.859 17.4438L111.016 16.3694L111.231 17.6008L106.306 18.4603L106.521 19.6917L105.289 19.9065L105.934 23.6007L107.165 23.3859L107.38 24.6172L109.843 24.1875L109.413 21.7247L108.182 21.9396L107.967 20.7082L111.661 20.0636L112.52 24.9891L106.364 26.0635ZM113.85 24.7571L112.776 18.6001L114.007 18.3852L113.793 17.1539L115.024 16.939L114.809 15.7076L118.503 15.063L118.718 16.2944L119.95 16.0795L120.164 17.3109L121.396 17.096L122.47 23.253L120.007 23.6827L119.578 21.2199L115.883 21.8646L116.313 24.3273L113.85 24.7571ZM115.669 20.6332L119.363 19.9885L118.933 17.5258L117.702 17.7406L117.487 16.5092L116.255 16.7241L116.47 17.9555L115.239 18.1704L115.669 20.6332ZM123.8 23.0209L122.296 14.4012L124.759 13.9714L124.974 15.2028L126.205 14.9879L126.42 16.2193L127.651 16.0045L127.436 14.7731L128.668 14.5582L128.453 13.3268L130.916 12.8971L132.42 21.5168L129.957 21.9466L129.098 17.021L127.866 17.2359L128.296 19.6986L127.064 19.9135L126.635 17.4507L125.403 17.6656L126.263 22.5912L123.8 23.0209ZM133.75 21.2847L132.246 12.665L140.865 11.1609L141.08 12.3923L134.923 13.4666L135.353 15.9294L140.279 15.0699L140.493 16.3013L135.568 17.1608L135.998 19.6236L142.155 18.5492L142.369 19.7806L133.75 21.2847Z" fill="#FE016A"/>
<path d="M54.5392 37.3906L143.988 21.7823L144.074 22.2748L54.6252 37.8832L54.5392 37.3906Z" fill="#FE016A"/>
<rect x="39.7597" y="20.1749" width="114" height="27" transform="rotate(-9.89819 39.7597 20.1749)" stroke="#FE016A"/>
<rect x="196" y="0.5" width="64" height="27" fill="white"/>
<path d="M207.85 17.75V9H210.35V10.25H211.6V11.5H212.85V12.75H214.1V9H216.6V17.75H214.1V15.25H212.85V14H211.6V12.75H210.35V17.75H207.85ZM219.2 17.75V16.5H217.95V10.25H219.2V9H225.45V10.25H226.7V16.5H225.45V17.75H219.2ZM220.45 16.5H224.2V10.25H220.45V16.5ZM229.3 17.75V16.5H228.05V10.25H229.3V9H235.55V10.25H236.8V16.5H235.55V17.75H229.3ZM230.55 16.5H234.3V10.25H230.55V16.5ZM238.15 17.75V9H245.65V10.25H246.9V12.75H245.65V14H246.9V16.5H245.65V17.75H238.15ZM240.65 12.75H244.4V10.25H240.65V12.75ZM240.65 16.5H244.4V14H240.65V16.5Z" fill="#FE016A"/>
<path d="M207.85 20H248.15V20.5H207.85V20Z" fill="#FE016A"/>
<rect x="196" y="0.5" width="64" height="27" stroke="#FE016A"/>
<rect x="0.600586" y="57.5" width="84" height="27" fill="white"/>
<path d="M12.3506 74.75V66H14.8506V67.25H16.1006V68.5H17.3506V69.75H18.6006V66H21.1006V74.75H18.6006V72.25H17.3506V71H16.1006V69.75H14.8506V74.75H12.3506ZM22.4506 74.75V66H31.2006V67.25H24.9506V69.75H29.9506V71H24.9506V73.5H31.2006V74.75H22.4506ZM32.5506 74.75V66H40.0506V67.25H41.3006V71H38.8006V72.25H40.0506V73.5H41.3006V74.75H37.5506V73.5H36.3006V72.25H35.0506V74.75H32.5506ZM35.0506 71H37.5506V69.75H38.8006V67.25H35.0506V71ZM42.6506 74.75V66H51.4006V67.25H45.1506V69.75H50.1506V71H45.1506V74.75H42.6506ZM52.7506 74.75V68.5H54.0006V67.25H55.2506V66H59.0006V67.25H60.2506V68.5H61.5006V74.75H59.0006V72.25H55.2506V74.75H52.7506ZM55.2506 71H59.0006V68.5H57.7506V67.25H56.5006V68.5H55.2506V71ZM62.8506 74.75V66H70.3506V67.25H71.6006V71H69.1006V72.25H70.3506V73.5H71.6006V74.75H67.8506V73.5H66.6006V72.25H65.3506V74.75H62.8506ZM65.3506 71H67.8506V69.75H69.1006V67.25H65.3506V71Z" fill="#FE016A"/>
<path d="M12.3506 77H72.8506V77.5H12.3506V77Z" fill="#FE016A"/>
<rect x="0.600586" y="57.5" width="84" height="27" stroke="#FE016A"/>
<rect x="110.432" y="33.5586" width="84" height="27" transform="rotate(7.17718 110.432 33.5586)" fill="white"/>
<path d="M122.415 52.4537L122.571 51.2135L121.331 51.0573L121.487 49.8171L120.247 49.661L120.715 45.9403L121.955 46.0965L122.111 44.8563L123.352 45.0125L123.508 43.7723L128.469 44.397L128.312 45.6372L129.553 45.7933L129.396 47.0335L126.916 46.7212L127.072 45.481L124.592 45.1686L124.436 46.4089L123.195 46.2527L122.727 49.9733L123.967 50.1295L123.811 51.3697L126.291 51.682L126.448 50.4418L128.928 50.7542L128.772 51.9944L127.532 51.8382L127.375 53.0784L122.415 52.4537ZM129.955 53.4032L130.736 47.2022L131.976 47.3584L132.132 46.1182L133.373 46.2743L133.529 45.0341L137.249 45.5027L137.093 46.7429L138.333 46.899L138.177 48.1392L139.417 48.2954L138.636 54.4964L136.156 54.1841L136.468 51.7037L132.748 51.2352L132.435 53.7156L129.955 53.4032ZM132.904 49.995L136.625 50.4635L136.937 47.9831L135.697 47.8269L135.853 46.5867L134.613 46.4305L134.457 47.6707L133.216 47.5146L132.904 49.995ZM139.976 54.6651L141.069 45.9837L143.55 46.296L143.393 47.5362L144.634 47.6924L144.477 48.9326L145.718 49.0888L145.874 47.8486L147.114 48.0047L147.27 46.7645L149.751 47.0769L148.657 55.7583L146.177 55.446L146.802 50.4852L145.561 50.329L145.249 52.8094L144.009 52.6532L144.321 50.1728L143.081 50.0166L142.456 54.9775L139.976 54.6651ZM149.997 55.927L151.09 47.2455L158.531 48.1826L158.375 49.4228L159.615 49.579L159.147 53.2996L157.907 53.1434L157.75 54.3836L152.79 53.7589L152.477 56.2393L149.997 55.927ZM152.946 52.5187L156.666 52.9872L157.135 49.2666L153.414 48.7981L152.946 52.5187ZM160.018 57.1889L161.111 48.5074L169.792 49.6006L169.636 50.8408L163.435 50.06L163.123 52.5404L168.084 53.1651L167.927 54.4053L162.967 53.7806L162.654 56.261L168.855 57.0419L168.699 58.2821L160.018 57.1889ZM170.039 58.4507L171.132 49.7693L178.573 50.7063L178.417 51.9465L179.657 52.1027L179.188 55.8233L176.708 55.511L176.552 56.7512L177.792 56.9074L177.636 58.1476L178.876 58.3037L178.72 59.5439L174.999 59.0754L175.155 57.8352L173.915 57.679L174.071 56.4388L172.831 56.2827L172.519 58.7631L170.039 58.4507ZM172.987 55.0425L175.468 55.3548L175.624 54.1146L176.864 54.2708L177.177 51.7904L173.456 51.3218L172.987 55.0425Z" fill="#FE016A"/>
<path d="M119.653 54.3737L179.679 61.9325L179.617 62.4286L119.591 54.8698L119.653 54.3737Z" fill="#FE016A"/>
<rect x="110.432" y="33.5586" width="84" height="27" transform="rotate(7.17718 110.432 33.5586)" stroke="#FE016A"/>
<rect x="199.309" y="87.5636" width="104" height="27" transform="rotate(7.84489 199.309 87.5636)" fill="white"/>
<path d="M209.734 106.413L209.905 105.175L208.667 105.004L208.837 103.766L211.314 104.107L211.143 105.345L214.858 105.857L215.199 103.38L210.246 102.698L210.417 101.46L209.178 101.289L209.52 98.8124L210.758 98.983L210.929 97.7447L217.12 98.5978L216.95 99.8361L218.188 100.007L218.017 101.245L215.541 100.904L215.711 99.6655L211.996 99.1536L211.655 101.63L216.608 102.313L216.438 103.551L217.676 103.722L217.335 106.198L216.096 106.028L215.926 107.266L209.734 106.413ZM218.502 107.621L219.696 98.9527L227.126 99.9764L226.955 101.215L228.193 101.385L227.681 105.1L226.443 104.93L226.273 106.168L221.319 105.485L220.978 107.962L218.502 107.621ZM221.49 104.247L225.205 104.759L225.717 101.044L222.002 100.532L221.49 104.247ZM228.507 108.999L229.701 100.331L238.369 101.526L238.199 102.764L232.007 101.911L231.666 104.387L236.619 105.07L236.449 106.308L231.495 105.626L231.154 108.102L237.346 108.955L237.175 110.194L228.507 108.999ZM238.512 110.378L239.707 101.71L248.375 102.904L248.204 104.142L242.013 103.289L241.672 105.766L246.625 106.448L246.454 107.687L241.501 107.004L241.16 109.481L247.351 110.334L247.181 111.572L238.512 110.378ZM248.518 111.756L249.712 103.088L255.904 103.941L255.733 105.18L256.971 105.35L256.801 106.589L258.039 106.759L257.527 110.474L256.289 110.304L256.118 111.542L254.88 111.371L254.709 112.61L248.518 111.756ZM251.165 110.859L253.642 111.201L253.812 109.962L255.051 110.133L255.563 106.418L254.324 106.247L254.495 105.009L252.018 104.668L251.165 110.859ZM258.523 113.135L259.718 104.467L267.148 105.491L266.977 106.729L268.215 106.9L267.703 110.614L265.227 110.273L265.056 111.512L266.294 111.682L266.124 112.92L267.362 113.091L267.192 114.329L263.477 113.818L263.647 112.579L262.409 112.409L262.58 111.17L261.341 111L261 113.476L258.523 113.135ZM261.512 109.761L263.988 110.103L264.159 108.864L265.397 109.035L265.739 106.558L262.024 106.046L261.512 109.761ZM269.767 114.684L269.938 113.446L268.699 113.275L269.723 105.846L272.2 106.187L271.176 113.617L274.891 114.128L275.915 106.699L278.391 107.04L277.368 114.47L276.129 114.299L275.959 115.537L269.767 114.684ZM278.534 115.892L279.729 107.224L282.205 107.565L282.035 108.804L283.273 108.974L283.102 110.213L284.341 110.383L284.17 111.621L285.408 111.792L285.92 108.077L288.397 108.418L287.202 117.086L284.726 116.745L285.067 114.269L283.829 114.098L283.999 112.86L282.761 112.689L282.932 111.451L281.693 111.28L281.011 116.233L278.534 115.892Z" fill="#FE016A"/>
<path d="M208.189 108.471L288.134 119.486L288.065 119.981L208.121 108.966L208.189 108.471Z" fill="#FE016A"/>
<rect x="199.309" y="87.5636" width="104" height="27" transform="rotate(7.84489 199.309 87.5636)" stroke="#FE016A"/>
<rect x="186.07" y="55.2644" width="84" height="27" transform="rotate(-8.69221 186.07 55.2644)" fill="white"/>
<path d="M200.292 70.5405L198.97 61.891L206.383 60.7576L206.572 61.9932L207.808 61.8043L208.186 64.2756L206.95 64.4645L207.139 65.7002L208.375 65.5113L208.752 67.9825L207.517 68.1715L207.706 69.4071L200.292 70.5405ZM202.008 65.2202L205.714 64.6534L205.337 62.1821L201.63 62.7489L202.008 65.2202ZM202.574 68.9271L206.281 68.3604L205.903 65.8891L202.196 66.4558L202.574 68.9271ZM211.512 68.8253L211.323 67.5896L210.087 67.7785L208.954 60.3647L211.425 59.9868L212.558 67.4007L216.265 66.834L215.132 59.4201L217.603 59.0423L218.736 66.4562L217.501 66.6451L217.69 67.8807L211.512 68.8253ZM220.26 67.4878L218.938 58.8383L227.587 57.5159L227.776 58.7516L221.598 59.6961L221.976 62.1674L226.918 61.4118L227.107 62.6474L222.164 63.403L222.731 67.11L220.26 67.4878ZM230.244 65.9614L228.922 57.3119L237.571 55.9896L237.76 57.2252L231.582 58.1697L231.96 60.641L236.902 59.8854L237.091 61.121L232.148 61.8767L232.715 65.5836L230.244 65.9614ZM240.228 64.435L239.283 58.2568L240.519 58.0679L240.33 56.8323L241.566 56.6434L241.377 55.4077L245.084 54.841L245.273 56.0766L246.508 55.8877L246.697 57.1234L247.933 56.9345L248.877 63.1127L246.406 63.4905L246.028 61.0192L242.321 61.5859L242.699 64.0572L240.228 64.435ZM242.132 60.3503L245.839 59.7836L245.462 57.3123L244.226 57.5012L244.037 56.2655L242.801 56.4545L242.99 57.6901L241.755 57.879L242.132 60.3503ZM250.212 62.9087L248.89 54.2592L256.303 53.1257L256.492 54.3614L257.728 54.1724L258.295 57.8794L255.823 58.2572L256.012 59.4928L257.248 59.3039L257.437 60.5396L258.672 60.3507L258.861 61.5863L255.154 62.153L254.966 60.9174L253.73 61.1063L253.541 59.8706L252.305 60.0596L252.683 62.5308L250.212 62.9087ZM252.116 58.8239L254.588 58.4461L254.399 57.2105L255.634 57.0215L255.257 54.5503L251.55 55.117L252.116 58.8239Z" fill="#FE016A"/>
<path d="M200.632 72.7647L260.437 63.6216L260.513 64.1158L200.707 73.259L200.632 72.7647Z" fill="#FE016A"/>
<rect x="186.07" y="55.2644" width="84" height="27" transform="rotate(-8.69221 186.07 55.2644)" stroke="#FE016A"/>
<rect x="54.4495" y="80.5478" width="84" height="27" transform="rotate(5.7825 54.4495 80.5478)" fill="white"/>
<path d="M64.4016 98.8939L65.2832 90.1884L73.9887 91.07L73.8628 92.3137L67.6446 91.684L67.3927 94.1712L72.3672 94.675L72.2413 95.9186L67.2667 95.4149L66.8889 99.1458L64.4016 98.8939ZM74.4503 99.9115L75.08 93.6933L76.3236 93.8193L76.4495 92.5756L77.6932 92.7016L77.8191 91.4579L81.55 91.8357L81.4241 93.0794L82.6677 93.2053L82.5418 94.449L83.7854 94.5749L83.1557 100.793L80.6684 100.541L80.9203 98.0539L77.1894 97.6761L76.9375 100.163L74.4503 99.9115ZM77.3154 96.4325L81.0463 96.8103L81.2982 94.323L80.0545 94.1971L80.1805 92.9534L78.9368 92.8275L78.8109 94.0711L77.5672 93.9452L77.3154 96.4325ZM84.4989 100.929L85.3804 92.2236L92.8423 92.9793L92.7163 94.2229L93.96 94.3489L93.5822 98.0798L91.0949 97.8279L90.9689 99.0715L92.2126 99.1975L92.0866 100.441L93.3303 100.567L93.2043 101.811L89.4734 101.433L89.5994 100.189L88.3557 100.063L88.4817 98.8197L87.238 98.6937L86.9861 101.181L84.4989 100.929ZM87.364 97.4501L89.8512 97.702L89.9772 96.4583L91.2208 96.5843L91.4727 94.097L87.7418 93.7192L87.364 97.4501ZM94.5475 101.947L95.429 93.2412L97.9163 93.4931L97.7904 94.7368L99.034 94.8627L98.9081 96.1063L100.152 96.2323L100.278 94.9886L101.521 95.1146L101.647 93.8709L104.135 94.1228L103.253 102.828L100.766 102.576L101.269 97.6019L100.026 97.4759L99.7739 99.9632L98.5303 99.8373L98.7821 97.35L97.5385 97.224L97.0347 102.199L94.5475 101.947ZM104.596 102.964L105.226 96.7461L106.469 96.8721L106.595 95.6284L107.839 95.7544L107.965 94.5107L111.696 94.8885L111.57 96.1322L112.814 96.2581L112.688 97.5018L113.931 97.6277L113.302 103.846L110.814 103.594L111.066 101.107L107.335 100.729L107.083 103.216L104.596 102.964ZM107.461 99.4853L111.192 99.8631L111.444 97.3758L110.2 97.2499L110.326 96.0062L109.083 95.8803L108.957 97.1239L107.713 96.998L107.461 99.4853ZM114.645 103.982L115.526 95.2764L122.988 96.0321L122.862 97.2757L124.106 97.4017L123.728 101.133L121.241 100.881L121.115 102.124L122.358 102.25L122.232 103.494L123.476 103.62L123.35 104.863L119.619 104.486L119.745 103.242L118.502 103.116L118.627 101.872L117.384 101.747L117.132 104.234L114.645 103.982ZM117.51 100.503L119.997 100.755L120.123 99.5111L121.367 99.6371L121.619 97.1498L117.888 96.772L117.51 100.503Z" fill="#FE016A"/>
<path d="M64.175 101.132L124.367 107.228L124.317 107.725L64.1246 101.63L64.175 101.132Z" fill="#FE016A"/>
<rect x="54.4495" y="80.5478" width="84" height="27" transform="rotate(5.7825 54.4495 80.5478)" stroke="#FE016A"/>
<rect x="154" y="110.5" width="54" height="27" fill="white"/>
<path d="M165.9 127.75V119H174.65V120.25H168.4V122.75H173.4V124H168.4V127.75H165.9ZM176 127.75V119H183.5V120.25H184.75V124H183.5V125.25H178.5V127.75H176ZM178.5 124H182.25V120.25H178.5V124ZM187.35 127.75V126.5H186.1V125.25H188.6V126.5H192.35V124H187.35V122.75H186.1V120.25H187.35V119H193.6V120.25H194.85V121.5H192.35V120.25H188.6V122.75H193.6V124H194.85V126.5H193.6V127.75H187.35Z" fill="#FE016A"/>
<path d="M165.9 130H196.1V130.5H165.9V130Z" fill="#FE016A"/>
<rect x="154" y="110.5" width="54" height="27" stroke="#FE016A"/>
<rect x="129.823" y="139.565" width="64" height="27" transform="rotate(8.00151 129.823 139.565)" fill="white"/>
<path d="M140.394 158.47L141.612 149.806L144.088 150.154L143.044 157.58L147.995 158.276L147.821 159.514L140.394 158.47ZM150.396 159.876L150.57 158.638L149.332 158.464L150.202 152.275L151.44 152.449L151.614 151.211L157.803 152.081L157.629 153.319L158.867 153.493L157.997 159.682L156.759 159.508L156.585 160.746L150.396 159.876ZM151.808 158.812L155.521 159.334L156.391 153.145L152.678 152.623L151.808 158.812ZM160.398 161.282L160.572 160.044L159.334 159.87L160.204 153.681L161.442 153.855L161.616 152.617L167.805 153.487L167.631 154.725L168.869 154.899L167.999 161.088L166.761 160.914L166.587 162.152L160.398 161.282ZM161.809 160.218L165.523 160.74L166.393 154.551L162.679 154.029L161.809 160.218ZM172.875 163.036L173.919 155.609L171.443 155.261L171.617 154.023L179.044 155.067L178.87 156.305L176.395 155.957L175.351 163.384L172.875 163.036Z" fill="#FE016A"/>
<path d="M138.843 160.524L178.751 166.134L178.681 166.629L138.774 161.02L138.843 160.524Z" fill="#FE016A"/>
<rect x="129.823" y="139.565" width="64" height="27" transform="rotate(8.00151 129.823 139.565)" stroke="#FE016A"/>
<rect x="197.079" y="134.944" width="54" height="27" transform="rotate(-9.98657 197.079 134.944)" fill="white"/>
<path d="M211.79 149.868L210.273 141.251L217.659 139.95L217.876 141.181L219.107 140.965L219.757 144.658L218.526 144.875L218.743 146.106L213.819 146.973L214.252 149.435L211.79 149.868ZM213.602 145.742L217.295 145.091L216.645 141.398L212.952 142.049L213.602 145.742ZM225.43 147.467L225.214 146.236L223.983 146.452L223.766 145.221L222.535 145.438L222.318 144.207L221.087 144.424L220.22 139.5L222.682 139.066L223.332 142.759L224.563 142.542L224.78 143.773L226.011 143.557L225.794 142.326L227.026 142.109L226.375 138.416L228.837 137.982L229.704 142.906L228.473 143.123L228.69 144.354L227.459 144.571L227.676 145.802L226.445 146.019L226.662 147.25L225.43 147.467ZM231.684 146.365L230.167 137.748L237.553 136.447L237.77 137.678L239.001 137.462L239.651 141.155L238.42 141.372L238.637 142.603L233.713 143.47L234.146 145.932L231.684 146.365ZM233.496 142.239L237.189 141.588L236.539 137.895L232.846 138.546L233.496 142.239Z" fill="#FE016A"/>
<path d="M212.181 152.084L241.923 146.847L242.01 147.34L212.267 152.577L212.181 152.084Z" fill="#FE016A"/>
<rect x="197.079" y="134.944" width="54" height="27" transform="rotate(-9.98657 197.079 134.944)" stroke="#FE016A"/>
<rect x="183.899" y="169.533" width="54" height="27" transform="rotate(3.96293 183.899 169.533)" fill="white"/>
<path d="M195.826 187.651L196.43 178.922L198.924 179.095L198.406 186.577L203.394 186.922L203.308 188.169L195.826 187.651ZM204.655 188.263L205.087 182.027L206.334 182.114L206.42 180.867L207.667 180.953L207.753 179.706L211.494 179.965L211.408 181.212L212.655 181.299L212.569 182.546L213.816 182.632L213.384 188.867L210.89 188.694L211.062 186.2L207.321 185.941L207.149 188.435L204.655 188.263ZM207.408 184.694L211.149 184.953L211.322 182.459L210.075 182.373L210.161 181.126L208.914 181.04L208.828 182.287L207.581 182.2L207.408 184.694ZM217.224 189.133L217.311 187.886L216.064 187.8L216.15 186.553L214.903 186.467L215.162 182.725L216.409 182.812L216.496 181.565L217.743 181.651L217.829 180.404L224.064 180.836L223.978 182.083L218.99 181.738L218.903 182.985L217.656 182.898L217.397 186.639L218.644 186.726L218.558 187.973L221.052 188.145L221.225 185.651L219.978 185.565L220.064 184.318L223.805 184.577L223.46 189.565L217.224 189.133Z" fill="#FE016A"/>
<path d="M194.423 189.809L224.551 191.896L224.516 192.395L194.389 190.308L194.423 189.809Z" fill="#FE016A"/>
<rect x="183.899" y="169.533" width="54" height="27" transform="rotate(3.96293 183.899 169.533)" stroke="#FE016A"/>
<rect x="25.1094" y="134.178" width="94" height="27" transform="rotate(-14.5205 25.1094 134.178)" fill="white"/>
<path d="M41.9708 147.63L41.6574 146.42L40.4473 146.733L40.1339 145.523L42.5541 144.896L42.8675 146.106L46.4977 145.166L45.8709 142.746L41.0306 144L40.7172 142.79L39.5071 143.103L38.8803 140.683L40.0904 140.369L39.777 139.159L45.8273 137.592L46.1407 138.802L47.3508 138.489L47.6642 139.699L45.2441 140.326L44.9307 139.116L41.3005 140.056L41.9273 142.476L46.7676 141.222L47.081 142.433L48.291 142.119L48.9179 144.539L47.7078 144.853L48.0212 146.063L41.9708 147.63ZM50.5381 145.411L48.3443 136.94L55.6047 135.06L55.9181 136.27L57.1282 135.957L58.0684 139.587L56.8584 139.9L57.1718 141.11L52.3315 142.364L52.9583 144.784L50.5381 145.411ZM52.0181 141.154L55.6483 140.214L54.7081 136.583L51.0778 137.524L52.0181 141.154ZM60.3155 142.879L58.7485 136.828L59.9586 136.515L59.6451 135.305L60.8552 134.991L60.5418 133.781L64.172 132.841L64.4854 134.051L65.6955 133.738L66.0089 134.948L67.219 134.634L68.786 140.685L66.3659 141.312L65.7391 138.891L62.1089 139.832L62.7357 142.252L60.3155 142.879ZM61.7954 138.622L65.4257 137.681L64.7988 135.261L63.5888 135.575L63.2754 134.364L62.0653 134.678L62.3787 135.888L61.1686 136.201L61.7954 138.622ZM70.0929 140.346L67.8991 131.876L70.3192 131.249L70.6326 132.459L71.8427 132.146L72.1561 133.356L73.3662 133.042L73.0527 131.832L74.2628 131.519L73.9494 130.309L76.3696 129.682L78.5634 138.152L76.1433 138.779L74.8896 133.939L73.6796 134.252L74.3064 136.672L73.0963 136.986L72.4695 134.566L71.2594 134.879L72.5131 139.719L70.0929 140.346ZM79.8703 137.814L77.6764 129.343L80.0966 128.717L80.41 129.927L81.6201 129.613L81.9335 130.823L83.1435 130.51L82.8301 129.3L84.0402 128.986L83.7268 127.776L86.1469 127.15L88.3408 135.62L85.9207 136.247L84.667 131.407L83.457 131.72L84.0838 134.14L82.8737 134.454L82.2469 132.033L81.0368 132.347L82.2904 137.187L79.8703 137.814ZM89.6477 135.282L87.4538 126.811L95.9243 124.617L96.2377 125.827L90.1874 127.394L90.8142 129.814L95.6545 128.561L95.9679 129.771L91.1276 131.025L91.7544 133.445L97.8048 131.878L98.1182 133.088L89.6477 135.282ZM99.4251 132.749L97.2312 124.279L104.492 122.398L104.805 123.608L106.015 123.295L106.955 126.925L104.535 127.552L104.849 128.762L106.059 128.449L106.372 129.659L107.582 129.345L107.896 130.555L104.265 131.496L103.952 130.286L102.742 130.599L102.428 129.389L101.218 129.702L101.845 132.122L99.4251 132.749ZM100.905 128.492L103.325 127.865L103.012 126.655L104.222 126.342L103.595 123.922L99.9648 124.862L100.905 128.492Z" fill="#FE016A"/>
<path d="M41.3249 150.121L109.67 132.42L109.795 132.904L41.4503 150.605L41.3249 150.121Z" fill="#FE016A"/>
<rect x="25.1094" y="134.178" width="94" height="27" transform="rotate(-14.5205 25.1094 134.178)" stroke="#FE016A"/>
<rect x="131.506" y="71.6177" width="54" height="27" transform="rotate(15.8814 131.506 71.6177)" fill="white"/>
<path d="M138.231 91.4657L140.626 83.0497L147.839 85.102L147.497 86.3043L148.7 86.6464L147.674 90.2532L145.269 89.5691L144.927 90.7714L146.129 91.1135L145.787 92.3158L146.989 92.6578L146.647 93.8601L143.04 92.8339L143.383 91.6316L142.18 91.2896L142.522 90.0873L141.32 89.7452L140.636 92.1498L138.231 91.4657ZM141.662 88.543L144.067 89.2271L144.409 88.0248L145.611 88.3668L146.295 85.9623L142.688 84.9361L141.662 88.543ZM147.946 94.2295L150.34 85.8135L157.554 87.8659L157.212 89.0682L158.414 89.4102L157.388 93.0171L156.186 92.675L155.844 93.8773L151.034 92.5091L150.35 94.9137L147.946 94.2295ZM151.377 91.3068L154.983 92.333L156.01 88.7261L152.403 87.6999L151.377 91.3068ZM160.065 97.6775L160.407 96.4752L159.205 96.1331L159.547 94.9309L158.344 94.5888L159.371 90.9819L160.573 91.324L160.915 90.1217L162.117 90.4638L162.459 89.2615L168.471 90.9718L168.129 92.1741L163.32 90.8058L162.977 92.0081L161.775 91.666L160.749 95.2729L161.951 95.615L161.609 96.8173L164.014 97.5014L164.698 95.0968L163.496 94.7547L163.838 93.5525L167.445 94.5786L166.076 99.3878L160.065 97.6775Z" fill="#FE016A"/>
<path d="M137.616 93.6298L166.663 101.894L166.526 102.375L137.479 94.1107L137.616 93.6298Z" fill="#FE016A"/>
<rect x="131.506" y="71.6177" width="54" height="27" transform="rotate(15.8814 131.506 71.6177)" stroke="#FE016A"/>
<rect x="21.472" y="152.543" width="94" height="27" transform="rotate(5.1616 21.472 152.543)" fill="white"/>
<path d="M31.5725 170.776L32.3597 162.061L39.8293 162.736L39.7168 163.981L40.9618 164.093L40.6244 167.828L38.1345 167.603L38.0221 168.848L39.267 168.96L39.1546 170.205L40.3995 170.318L40.287 171.563L36.5522 171.225L36.6647 169.98L35.4198 169.868L35.5322 168.623L34.2873 168.511L34.0624 171L31.5725 170.776ZM34.3998 167.266L36.8896 167.491L37.0021 166.246L38.247 166.358L38.4719 163.868L34.7371 163.531L34.3998 167.266ZM41.6316 171.684L42.4188 162.97L51.1333 163.757L51.0208 165.002L44.7962 164.44L44.5713 166.929L49.551 167.379L49.4385 168.624L44.4588 168.174L44.2339 170.664L50.4585 171.226L50.3461 172.471L41.6316 171.684ZM52.9355 172.705L53.048 171.46L51.8031 171.348L51.9155 170.103L54.4054 170.328L54.2929 171.573L58.0277 171.91L58.2526 169.42L53.2729 168.971L53.3854 167.726L52.1404 167.613L52.3653 165.123L53.6103 165.236L53.7227 163.991L59.9474 164.553L59.8349 165.798L61.0799 165.91L60.9674 167.155L58.4775 166.93L58.59 165.686L54.8552 165.348L54.6303 167.838L59.61 168.288L59.4976 169.533L60.7425 169.645L60.5176 172.135L59.2727 172.023L59.1602 173.268L52.9355 172.705ZM61.7496 173.502L62.5368 164.787L70.0064 165.462L69.894 166.707L71.1389 166.819L70.8015 170.554L69.5566 170.441L69.4441 171.686L64.4644 171.237L64.2395 173.726L61.7496 173.502ZM64.5769 169.992L68.3117 170.329L68.649 166.594L64.9142 166.257L64.5769 169.992ZM71.8087 174.41L72.371 168.186L73.6159 168.298L73.7284 167.053L74.9733 167.165L75.0858 165.921L78.8205 166.258L78.7081 167.503L79.953 167.615L79.8406 168.86L81.0855 168.973L80.5232 175.197L78.0334 174.972L78.2583 172.483L74.5235 172.145L74.2986 174.635L71.8087 174.41ZM74.6359 170.9L78.3707 171.238L78.5956 168.748L77.3507 168.635L77.4632 167.39L76.2182 167.278L76.1058 168.523L74.8608 168.41L74.6359 170.9ZM83.1127 175.431L83.2251 174.186L81.9802 174.074L82.6549 166.604L85.1448 166.829L84.695 171.809L85.9399 171.921L86.3897 166.942L87.6347 167.054L87.1848 172.034L88.4298 172.146L88.8796 167.167L91.3694 167.391L90.6947 174.861L89.4498 174.749L89.3373 175.994L88.0924 175.881L88.2048 174.636L86.9599 174.524L87.0724 173.279L85.8274 173.166L85.715 174.411L84.4701 174.299L84.3576 175.544L83.1127 175.431ZM91.9268 176.227L92.714 167.513L95.2038 167.738L95.0914 168.983L96.3363 169.095L96.2239 170.34L97.4688 170.453L97.3563 171.698L98.6013 171.81L98.9386 168.075L101.428 168.3L100.641 177.015L98.1514 176.79L98.3763 174.3L97.1314 174.187L97.2439 172.942L95.9989 172.83L96.1114 171.585L94.8665 171.473L94.4166 176.452L91.9268 176.227Z" fill="#FE016A"/>
<path d="M31.3701 173.016L101.684 179.368L101.639 179.866L31.3251 173.514L31.3701 173.016Z" fill="#FE016A"/>
<rect x="21.472" y="152.543" width="94" height="27" transform="rotate(5.1616 21.472 152.543)" stroke="#FE016A"/>
<rect x="68.0673" y="191.32" width="74" height="27" transform="rotate(-8.35522 68.0673 191.32)" fill="white"/>
<path d="M89.816 197.981L90.5426 202.928L89.3059 203.109L89.4875 204.346L88.2508 204.528L88.4324 205.764L83.4855 206.491L83.3038 205.254L82.0671 205.436L81.1589 199.252L82.3957 199.07L82.214 197.834L88.3977 196.926L88.5793 198.162L89.816 197.981ZM87.3426 198.344L83.6324 198.889L84.5406 205.072L87.014 204.709L86.8324 203.472L85.5957 203.654L85.414 202.417L87.8875 202.054L87.3426 198.344ZM89.6691 205.583L89.4875 204.346L90.7242 204.164L90.9059 205.401L89.6691 205.583ZM93.4783 205.023L93.2966 203.787L92.0599 203.968L90.9701 196.548L93.4435 196.184L94.5334 203.605L98.2436 203.06L97.1537 195.64L99.6272 195.276L100.717 202.697L99.4803 202.878L99.6619 204.115L93.4783 205.023ZM102.234 203.737L100.963 195.08L109.62 193.809L109.802 195.045L103.618 195.954L103.981 198.427L108.928 197.7L109.11 198.937L104.163 199.664L104.526 202.137L110.71 201.229L110.891 202.466L102.234 203.737ZM113.464 202.088L113.282 200.851L112.046 201.033L111.864 199.796L114.337 199.433L114.519 200.67L118.229 200.125L117.866 197.651L112.919 198.378L112.737 197.141L111.501 197.323L111.137 194.849L112.374 194.668L112.192 193.431L118.376 192.523L118.558 193.759L119.794 193.578L119.976 194.814L117.503 195.178L117.321 193.941L113.611 194.486L113.974 196.959L118.921 196.233L119.103 197.47L120.339 197.288L120.703 199.761L119.466 199.943L119.648 201.18L113.464 202.088ZM125.93 200.257L124.84 192.837L122.367 193.2L122.185 191.963L129.606 190.873L129.787 192.11L127.314 192.473L128.404 199.894L125.93 200.257Z" fill="#FE016A"/>
<path d="M82.5757 208.899L132.441 201.575L132.513 202.07L82.6483 209.393L82.5757 208.899Z" fill="#FE016A"/>
<rect x="68.0673" y="191.32" width="74" height="27" transform="rotate(-8.35522 68.0673 191.32)" stroke="#FE016A"/>
<rect x="235.027" y="187.977" width="44" height="27" transform="rotate(-3.1922 235.027 187.977)" fill="white"/>
<path d="M247.919 204.535L247.432 195.799L249.928 195.659L250.137 199.404L253.881 199.195L253.672 195.451L256.168 195.311L256.655 204.048L254.159 204.187L253.95 200.443L250.206 200.652L250.415 204.396L247.919 204.535ZM258.003 203.973L257.516 195.236L265.004 194.819L265.074 196.067L266.322 195.997L266.531 199.741L265.283 199.811L265.352 201.059L260.36 201.337L260.499 203.833L258.003 203.973ZM260.291 200.089L264.035 199.88L263.826 196.136L260.082 196.345L260.291 200.089Z" fill="#FE016A"/>
<path d="M248.044 206.782L268.113 205.662L268.141 206.161L248.072 207.281L248.044 206.782Z" fill="#FE016A"/>
<rect x="235.027" y="187.977" width="44" height="27" transform="rotate(-3.1922 235.027 187.977)" stroke="#FE016A"/>
</svg>
