<svg width="15" height="15" viewBox="0 0 15 15" fill="none" xmlns="http://www.w3.org/2000/svg">
<rect x="6.99268" width="1.01538" height="1.01538" fill="#494852"/>
<rect x="4.96191" y="1.01538" width="1.01538" height="1.01538" fill="#19181C"/>
<rect x="6.99268" y="1.01538" width="1.01538" height="1.01538" fill="#C9C391"/>
<rect x="4.96191" y="2.03076" width="1.01538" height="1.01538" fill="#5E4814"/>
<rect x="6.99268" y="2.03076" width="1.01538" height="1.01538" fill="#F1C793"/>
<rect x="9.02344" y="2.03076" width="1.01538" height="1.01538" fill="#19181C"/>
<rect x="2.93115" y="3.04626" width="1.01538" height="1.01538" fill="#19181C"/>
<rect x="4.96191" y="3.04626" width="1.01538" height="1.01538" fill="#C5A93C"/>
<rect x="6.99268" y="3.04626" width="1.01538" height="1.01538" fill="#F6D74D"/>
<rect x="9.02344" y="3.04626" width="1.01538" height="1.01538" fill="#714C13"/>
<rect x="0.900391" y="4.06165" width="1.01538" height="1.01538" fill="#4C4616"/>
<rect x="2.93115" y="4.06165" width="1.01538" height="1.01538" fill="#AEA26A"/>
<rect x="4.96191" y="4.06165" width="1.01538" height="1.01538" fill="#F4D873"/>
<rect x="6.99268" y="4.06165" width="1.01538" height="1.01538" fill="#F6D74D"/>
<rect x="9.02344" y="4.06165" width="1.01538" height="1.01538" fill="#B18C10"/>
<rect x="11.0544" y="4.06165" width="1.01538" height="1.01538" fill="#957B26"/>
<rect x="13.085" y="4.06165" width="1.01538" height="1.01538" fill="#361913"/>
<rect x="0.900391" y="5.07703" width="1.01538" height="1.01538" fill="#7A712E"/>
<rect x="2.93115" y="5.07703" width="1.01538" height="1.01538" fill="#F7E893"/>
<rect x="4.96191" y="5.07703" width="1.01538" height="1.01538" fill="#FAF3A0"/>
<rect x="6.99268" y="5.07703" width="1.01538" height="1.01538" fill="#FAE839"/>
<rect x="9.02344" y="5.07703" width="1.01538" height="1.01538" fill="#DFC636"/>
<rect x="11.0544" y="5.07703" width="1.01538" height="1.01538" fill="#C8A721"/>
<rect x="13.085" y="5.07703" width="1.01538" height="1.01538" fill="#361913"/>
<rect x="0.900391" y="6.09241" width="1.01538" height="1.01538" fill="#19181C"/>
<rect x="2.93115" y="6.09241" width="1.01538" height="1.01538" fill="#B29515"/>
<rect x="4.96191" y="6.09241" width="1.01538" height="1.01538" fill="#F7E962"/>
<rect x="6.99268" y="6.09241" width="1.01538" height="1.01538" fill="#F7E962"/>
<rect x="9.02344" y="6.09241" width="1.01538" height="1.01538" fill="#F4C816"/>
<rect x="11.0544" y="6.09241" width="1.01538" height="1.01538" fill="#723C16"/>
<rect x="13.085" y="6.09241" width="1.01538" height="1.01538" fill="#070407"/>
<rect x="2.93115" y="7.10754" width="1.01538" height="1.01538" fill="#996D1E"/>
<rect x="4.96191" y="7.10754" width="1.01538" height="1.01538" fill="#F7E962"/>
<rect x="6.99268" y="7.10754" width="1.01538" height="1.01538" fill="#F6D74D"/>
<rect x="9.02344" y="7.10754" width="1.01538" height="1.01538" fill="#EFB812"/>
<rect x="11.0544" y="7.10754" width="1.01538" height="1.01538" fill="#4A2019"/>
<rect x="2.93115" y="8.12292" width="1.01538" height="1.01538" fill="#765613"/>
<rect x="4.96191" y="8.12292" width="1.01538" height="1.01538" fill="#F7E893"/>
<rect x="6.99268" y="8.12292" width="1.01538" height="1.01538" fill="#F5A734"/>
<rect x="9.02344" y="8.12292" width="1.01538" height="1.01538" fill="#CD7922"/>
<rect x="11.0544" y="8.12292" width="1.01538" height="1.01538" fill="#2D0907"/>
<rect x="2.93115" y="9.13843" width="1.01538" height="1.01538" fill="#957B26"/>
<rect x="4.96191" y="9.13843" width="1.01538" height="1.01538" fill="#F1C851"/>
<rect x="6.99268" y="9.13843" width="1.01538" height="1.01538" fill="#E98D19"/>
<rect x="9.02344" y="9.13843" width="1.01538" height="1.01538" fill="#AC7B24"/>
<rect x="11.0544" y="9.13843" width="1.01538" height="1.01538" fill="#361913"/>
<rect x="2.93115" y="10.1538" width="1.01538" height="1.01538" fill="#C5A93C"/>
<rect x="4.96191" y="10.1538" width="1.01538" height="1.01538" fill="#D6AA36"/>
<rect x="6.99268" y="10.1538" width="1.01538" height="1.01538" fill="#A76C27"/>
<rect x="9.02344" y="10.1538" width="1.01538" height="1.01538" fill="#CD7922"/>
<rect x="11.0544" y="10.1538" width="1.01538" height="1.01538" fill="#572F22"/>
<rect x="0.900391" y="11.1692" width="1.01538" height="1.01538" fill="#4C4616"/>
<rect x="2.93115" y="11.1692" width="1.01538" height="1.01538" fill="#C8B439"/>
<rect x="4.96191" y="11.1692" width="1.01538" height="1.01538" fill="#995C26"/>
<rect x="6.99268" y="11.1692" width="1.01538" height="1.01538" fill="#6C2C0C"/>
<rect x="9.02344" y="11.1692" width="1.01538" height="1.01538" fill="#A76C27"/>
<rect x="11.0544" y="11.1692" width="1.01538" height="1.01538" fill="#8A4E25"/>
<rect x="13.085" y="11.1692" width="1.01538" height="1.01538" fill="#D9D9D9" fill-opacity="0.01"/>
<rect x="0.900391" y="12.1846" width="1.01538" height="1.01538" fill="#6C6732"/>
<rect x="2.93115" y="12.1846" width="1.01538" height="1.01538" fill="#9D9738"/>
<rect x="4.96191" y="12.1846" width="1.01538" height="1.01538" fill="#572F22"/>
<rect x="6.99268" y="12.1846" width="1.01538" height="1.01538" fill="#2D0907"/>
<rect x="9.02344" y="12.1846" width="1.01538" height="1.01538" fill="#714C13"/>
<rect x="11.0544" y="12.1846" width="1.01538" height="1.01538" fill="#8C6E4F"/>
<rect x="13.085" y="12.1846" width="1.01538" height="1.01538" fill="#D9D9D9" fill-opacity="0.01"/>
<rect x="0.900391" y="13.2" width="1.01538" height="1.01538" fill="#262825"/>
<rect x="2.93115" y="13.2" width="1.01538" height="1.01538" fill="#3C361D"/>
<rect x="4.96191" y="13.2" width="1.01538" height="1.01538" fill="#2D0907"/>
<rect x="9.02344" y="13.2" width="1.01538" height="1.01538" fill="#2D0907"/>
<rect x="11.0544" y="13.2" width="1.01538" height="1.01538" fill="#361913"/>
<rect x="13.085" y="13.2" width="1.01538" height="1.01538" fill="#070407"/>
<rect x="5.97729" width="1.01538" height="1.01538" fill="#2B353E"/>
<rect x="5.97729" y="1.01538" width="1.01538" height="1.01538" fill="#8F8750"/>
<rect x="8.00806" y="1.01538" width="1.01538" height="1.01538" fill="#35281F"/>
<rect x="3.94653" y="2.03076" width="1.01538" height="1.01538" fill="#2D0907"/>
<rect x="5.97729" y="2.03076" width="1.01538" height="1.01538" fill="#C5AA63"/>
<rect x="8.00806" y="2.03076" width="1.01538" height="1.01538" fill="#5F5729"/>
<rect x="1.91577" y="3.04626" width="1.01538" height="1.01538" fill="#19181C"/>
<rect x="3.94653" y="3.04626" width="1.01538" height="1.01538" fill="#5E4814"/>
<rect x="5.97729" y="3.04626" width="1.01538" height="1.01538" fill="#F7D733"/>
<rect x="8.00806" y="3.04626" width="1.01538" height="1.01538" fill="#B18C10"/>
<rect x="10.0388" y="3.04626" width="1.01538" height="1.01538" fill="#361913"/>
<rect x="1.91577" y="4.06165" width="1.01538" height="1.01538" fill="#949470"/>
<rect x="3.94653" y="4.06165" width="1.01538" height="1.01538" fill="#C5AA63"/>
<rect x="5.97729" y="4.06165" width="1.01538" height="1.01538" fill="#FAE839"/>
<rect x="8.00806" y="4.06165" width="1.01538" height="1.01538" fill="#C8A721"/>
<rect x="10.0388" y="4.06165" width="1.01538" height="1.01538" fill="#AD8930"/>
<rect x="12.0696" y="4.06165" width="1.01538" height="1.01538" fill="#624631"/>
<rect x="1.91577" y="5.07703" width="1.01538" height="1.01538" fill="#DBC872"/>
<rect x="3.94653" y="5.07703" width="1.01538" height="1.01538" fill="#F6E8B3"/>
<rect x="5.97729" y="5.07703" width="1.01538" height="1.01538" fill="#F7E962"/>
<rect x="8.00806" y="5.07703" width="1.01538" height="1.01538" fill="#EFB812"/>
<rect x="10.0388" y="5.07703" width="1.01538" height="1.01538" fill="#F7D733"/>
<rect x="12.0696" y="5.07703" width="1.01538" height="1.01538" fill="#775736"/>
<rect x="1.91577" y="6.09241" width="1.01538" height="1.01538" fill="#4C4616"/>
<rect x="3.94653" y="6.09241" width="1.01538" height="1.01538" fill="#E0D553"/>
<rect x="5.97729" y="6.09241" width="1.01538" height="1.01538" fill="#FBF575"/>
<rect x="8.00806" y="6.09241" width="1.01538" height="1.01538" fill="#FAE839"/>
<rect x="10.0388" y="6.09241" width="1.01538" height="1.01538" fill="#D6AA36"/>
<rect x="12.0696" y="6.09241" width="1.01538" height="1.01538" fill="#2D0907"/>
<rect x="1.91577" y="7.10754" width="1.01538" height="1.01538" fill="#19181C"/>
<rect x="3.94653" y="7.10754" width="1.01538" height="1.01538" fill="#DFC636"/>
<rect x="5.97729" y="7.10754" width="1.01538" height="1.01538" fill="#F7E893"/>
<rect x="8.00806" y="7.10754" width="1.01538" height="1.01538" fill="#F6D74D"/>
<rect x="10.0388" y="7.10754" width="1.01538" height="1.01538" fill="#A76C27"/>
<rect x="1.91577" y="8.12292" width="1.01538" height="1.01538" fill="#2D0907"/>
<rect x="3.94653" y="8.12292" width="1.01538" height="1.01538" fill="#C5AA63"/>
<rect x="5.97729" y="8.12292" width="1.01538" height="1.01538" fill="#F4D873"/>
<rect x="8.00806" y="8.12292" width="1.01538" height="1.01538" fill="#EE9B19"/>
<rect x="10.0388" y="8.12292" width="1.01538" height="1.01538" fill="#723C16"/>
<rect x="1.91577" y="9.13843" width="1.01538" height="1.01538" fill="#19181C"/>
<rect x="3.94653" y="9.13843" width="1.01538" height="1.01538" fill="#DFC636"/>
<rect x="5.97729" y="9.13843" width="1.01538" height="1.01538" fill="#EBA950"/>
<rect x="8.00806" y="9.13843" width="1.01538" height="1.01538" fill="#E98D19"/>
<rect x="10.0388" y="9.13843" width="1.01538" height="1.01538" fill="#8A4E25"/>
<rect x="1.91577" y="10.1538" width="1.01538" height="1.01538" fill="#3C361D"/>
<rect x="3.94653" y="10.1538" width="1.01538" height="1.01538" fill="#F1C851"/>
<rect x="5.97729" y="10.1538" width="1.01538" height="1.01538" fill="#CD7922"/>
<rect x="8.00806" y="10.1538" width="1.01538" height="1.01538" fill="#C87124"/>
<rect x="10.0388" y="10.1538" width="1.01538" height="1.01538" fill="#C5883C"/>
<rect x="1.91577" y="11.1692" width="1.01538" height="1.01538" fill="#98862C"/>
<rect x="3.94653" y="11.1692" width="1.01538" height="1.01538" fill="#D78A2C"/>
<rect x="5.97729" y="11.1692" width="1.01538" height="1.01538" fill="#894113"/>
<rect x="8.00806" y="11.1692" width="1.01538" height="1.01538" fill="#8A4E25"/>
<rect x="10.0388" y="11.1692" width="1.01538" height="1.01538" fill="#AC7B24"/>
<rect x="12.0696" y="11.1692" width="1.01538" height="1.01538" fill="#4A2019"/>
<rect x="1.91577" y="12.1846" width="1.01538" height="1.01538" fill="#DBC872"/>
<rect x="3.94653" y="12.1846" width="1.01538" height="1.01538" fill="#8A5C1D"/>
<rect x="5.97729" y="12.1846" width="1.01538" height="1.01538" fill="#572F22"/>
<rect x="8.00806" y="12.1846" width="1.01538" height="1.01538" fill="#361913"/>
<rect x="10.0388" y="12.1846" width="1.01538" height="1.01538" fill="#A76C27"/>
<rect x="12.0696" y="12.1846" width="1.01538" height="1.01538" fill="#624631"/>
<rect x="1.91577" y="13.2" width="1.01538" height="1.01538" fill="#4C4616"/>
<rect x="3.94653" y="13.2" width="1.01538" height="1.01538" fill="#361913"/>
<rect x="8.00806" y="13.2" width="1.01538" height="1.01538" fill="#2D0907"/>
<rect x="10.0388" y="13.2" width="1.01538" height="1.01538" fill="#361913"/>
<rect x="12.0696" y="13.2" width="1.01538" height="1.01538" fill="#19181C"/>
</svg>
