<svg width="312" height="641" viewBox="0 0 312 641" fill="none" xmlns="http://www.w3.org/2000/svg">
<mask id="mask0_1620_20403" style="mask-type:alpha" maskUnits="userSpaceOnUse" x="0" y="0" width="312" height="641">
<rect width="312" height="641" rx="156" fill="#00B0AC"/>
</mask>
<g mask="url(#mask0_1620_20403)">
<rect width="312" height="641" rx="156" fill="#00B0AC"/>
</g>
<path d="M52.4621 208.952V208.776L52.2621 208.76V203.776C52.2621 203.488 52.1848 203.261 52.0301 203.096C51.8808 202.931 51.6755 202.848 51.4141 202.848C51.1848 202.848 51.0008 202.899 50.8621 203C50.7288 203.101 50.6621 203.229 50.6621 203.384V204.176C50.6621 204.56 50.5315 204.856 50.2701 205.064C50.0088 205.272 49.6408 205.376 49.1661 205.376C48.7608 205.376 48.4568 205.288 48.2541 205.112C48.0515 204.931 47.9501 204.68 47.9501 204.36C47.9501 204.019 48.0968 203.68 48.3901 203.344C48.6888 203.003 49.1315 202.723 49.7181 202.504C50.3101 202.28 51.0435 202.168 51.9181 202.168C52.9741 202.168 53.7581 202.371 54.2701 202.776C54.7821 203.181 55.0381 203.731 55.0381 204.424V208.424C55.0381 208.547 55.0648 208.645 55.1181 208.72C55.1768 208.789 55.2621 208.824 55.3741 208.824C55.4755 208.824 55.5528 208.797 55.6061 208.744C55.6648 208.691 55.7181 208.637 55.7661 208.584C55.7981 208.547 55.8301 208.517 55.8621 208.496C55.8995 208.469 55.9421 208.456 55.9901 208.456C56.0701 208.456 56.1261 208.485 56.1581 208.544C56.1955 208.597 56.2141 208.667 56.2141 208.752C56.2141 208.96 56.1395 209.176 55.9901 209.4C55.8461 209.624 55.6275 209.816 55.3341 209.976C55.0408 210.131 54.6755 210.208 54.2381 210.208C53.7048 210.208 53.2755 210.093 52.9501 209.864C52.6248 209.629 52.4621 209.325 52.4621 208.952ZM47.6381 208.312C47.6381 207.619 47.9501 207.064 48.5741 206.648C49.1981 206.232 50.0755 206.024 51.2061 206.024C51.5368 206.024 51.8301 206.051 52.0861 206.104C52.3421 206.152 52.5581 206.221 52.7341 206.312L52.5101 206.904C52.3608 206.829 52.2141 206.773 52.0701 206.736C51.9315 206.693 51.7768 206.672 51.6061 206.672C51.2541 206.672 50.9768 206.773 50.7741 206.976C50.5768 207.179 50.4781 207.464 50.4781 207.832C50.4781 208.205 50.5688 208.491 50.7501 208.688C50.9315 208.885 51.1661 208.984 51.4541 208.984C51.6728 208.984 51.8808 208.933 52.0781 208.832C52.2808 208.725 52.4461 208.592 52.5741 208.432L52.7501 208.968C52.4781 209.363 52.0968 209.669 51.6061 209.888C51.1208 210.101 50.6008 210.208 50.0461 210.208C49.3261 210.208 48.7448 210.032 48.3021 209.68C47.8595 209.323 47.6381 208.867 47.6381 208.312ZM64.4241 204.488C64.4241 204.84 64.2935 205.139 64.0321 205.384C63.7761 205.629 63.4348 205.752 63.0081 205.752C62.5868 205.752 62.2695 205.64 62.0561 205.416C61.8428 205.187 61.7361 204.891 61.7361 204.528V204.264C61.7361 203.907 61.6455 203.624 61.4641 203.416C61.2828 203.208 61.0375 203.104 60.7281 203.104C60.4721 203.104 60.2348 203.189 60.0161 203.36C59.8028 203.531 59.6321 203.784 59.5041 204.12C59.3815 204.451 59.3201 204.859 59.3201 205.344C59.3201 205.989 59.4295 206.533 59.6481 206.976C59.8668 207.413 60.1655 207.744 60.5441 207.968C60.9281 208.192 61.3628 208.304 61.8481 208.304C62.2481 208.304 62.6028 208.237 62.9121 208.104C63.2215 207.965 63.4908 207.749 63.7201 207.456C63.8428 207.339 63.9361 207.259 64.0001 207.216C64.0695 207.173 64.1361 207.152 64.2001 207.152C64.2961 207.152 64.3655 207.197 64.4081 207.288C64.4508 207.373 64.4721 207.48 64.4721 207.608C64.4561 208.077 64.2961 208.509 63.9921 208.904C63.6881 209.299 63.2721 209.616 62.7441 209.856C62.2161 210.091 61.6055 210.208 60.9121 210.208C60.1281 210.208 59.4268 210.051 58.8081 209.736C58.1895 209.416 57.7015 208.971 57.3441 208.4C56.9868 207.824 56.8081 207.149 56.8081 206.376C56.8081 205.571 56.9815 204.851 57.3281 204.216C57.6801 203.581 58.1761 203.08 58.8161 202.712C59.4561 202.344 60.2108 202.16 61.0801 202.16C61.7681 202.16 62.3628 202.264 62.8641 202.472C63.3655 202.68 63.7495 202.963 64.0161 203.32C64.2881 203.672 64.4241 204.061 64.4241 204.488ZM68.8015 205.696C68.8015 204.907 68.9082 204.251 69.1215 203.728C69.3402 203.2 69.6282 202.808 69.9855 202.552C70.3428 202.291 70.7268 202.16 71.1375 202.16C71.6708 202.16 72.0815 202.317 72.3695 202.632C72.6575 202.941 72.8015 203.4 72.8015 204.008C72.8015 204.595 72.6815 205.029 72.4415 205.312C72.2068 205.595 71.8975 205.736 71.5135 205.736C71.1295 205.736 70.8388 205.635 70.6415 205.432C70.4495 205.229 70.3535 204.949 70.3535 204.592V204.28C70.3482 204.131 70.3135 204.019 70.2495 203.944C70.1855 203.864 70.0815 203.824 69.9375 203.824C69.7882 203.824 69.6495 203.885 69.5215 204.008C69.3935 204.131 69.2895 204.325 69.2095 204.592C69.1348 204.853 69.0975 205.195 69.0975 205.616L68.8015 205.696ZM68.9295 202.784L69.0975 204.544V208.544C69.0975 208.709 69.1242 208.829 69.1775 208.904C69.2362 208.979 69.3535 209.032 69.5295 209.064L70.1775 209.176C70.3162 209.203 70.4175 209.251 70.4815 209.32C70.5508 209.384 70.5855 209.477 70.5855 209.6C70.5855 209.723 70.5402 209.821 70.4495 209.896C70.3642 209.965 70.2362 210 70.0655 210H65.9855C65.8095 210 65.6815 209.965 65.6015 209.896C65.5215 209.821 65.4815 209.723 65.4815 209.6C65.4815 209.509 65.5055 209.432 65.5535 209.368C65.6015 209.299 65.6815 209.243 65.7935 209.2L66.0415 209.12C66.1268 209.088 66.1882 209.032 66.2255 208.952C66.2682 208.867 66.2895 208.731 66.2895 208.544V204.352C66.2895 204.203 66.2682 204.096 66.2255 204.032C66.1828 203.968 66.1162 203.925 66.0255 203.904L65.7215 203.856C65.6202 203.829 65.5455 203.789 65.4975 203.736C65.4548 203.677 65.4335 203.603 65.4335 203.512C65.4335 203.405 65.4628 203.32 65.5215 203.256C65.5855 203.192 65.6975 203.131 65.8575 203.072L67.4735 202.472C67.7882 202.349 68.0148 202.269 68.1535 202.232C68.2922 202.195 68.4015 202.176 68.4815 202.176C68.6148 202.176 68.7135 202.224 68.7775 202.32C68.8468 202.411 68.8975 202.565 68.9295 202.784ZM81.2556 205.224C81.2556 205.544 81.165 205.792 80.9836 205.968C80.8076 206.144 80.5516 206.232 80.2156 206.232H75.3436V205.52H78.0476C78.325 205.52 78.4636 205.392 78.4636 205.136C78.4636 204.437 78.3596 203.925 78.1516 203.6C77.949 203.269 77.677 203.104 77.3356 203.104C77.0743 203.104 76.8423 203.189 76.6396 203.36C76.4423 203.531 76.285 203.784 76.1676 204.12C76.0503 204.451 75.9916 204.859 75.9916 205.344C75.9916 206.352 76.221 207.099 76.6796 207.584C77.1436 208.064 77.765 208.304 78.5436 208.304C78.9596 208.304 79.3303 208.235 79.6556 208.096C79.981 207.957 80.2583 207.739 80.4876 207.44C80.6103 207.323 80.7036 207.243 80.7676 207.2C80.837 207.157 80.9036 207.136 80.9676 207.136C81.0583 207.136 81.125 207.181 81.1676 207.272C81.2156 207.357 81.2396 207.464 81.2396 207.592C81.2236 208.061 81.061 208.496 80.7516 208.896C80.4423 209.291 80.0183 209.608 79.4796 209.848C78.941 210.088 78.317 210.208 77.6076 210.208C76.8183 210.208 76.1116 210.048 75.4876 209.728C74.869 209.408 74.381 208.963 74.0236 208.392C73.6663 207.816 73.4876 207.144 73.4876 206.376C73.4876 205.539 73.653 204.805 73.9836 204.176C74.3196 203.541 74.8023 203.048 75.4316 202.696C76.0663 202.339 76.8263 202.16 77.7116 202.16C78.4743 202.16 79.1196 202.291 79.6476 202.552C80.1756 202.813 80.5756 203.176 80.8476 203.64C81.1196 204.099 81.2556 204.627 81.2556 205.224ZM87.9984 208.64L87.9104 208.616V200.168C87.9104 200.019 87.889 199.912 87.8464 199.848C87.8037 199.779 87.737 199.736 87.6464 199.72L87.3424 199.672C87.241 199.645 87.1664 199.603 87.1184 199.544C87.0704 199.485 87.0464 199.413 87.0464 199.328C87.0464 199.221 87.0757 199.136 87.1344 199.072C87.1984 199.008 87.3104 198.947 87.4704 198.888L89.1344 198.264C89.3637 198.179 89.5504 198.117 89.6944 198.08C89.8384 198.037 89.977 198.016 90.1104 198.016C90.3077 198.016 90.457 198.072 90.5584 198.184C90.665 198.296 90.7184 198.44 90.7184 198.616V208.544C90.7184 208.731 90.737 208.867 90.7744 208.952C90.8117 209.032 90.8757 209.088 90.9664 209.12L91.2064 209.2C91.3184 209.243 91.3984 209.299 91.4464 209.368C91.4997 209.432 91.5264 209.509 91.5264 209.6C91.5264 209.723 91.4837 209.821 91.3984 209.896C91.3184 209.965 91.1904 210 91.0144 210H89.1424C88.8277 210 88.5584 209.893 88.3344 209.68C88.1104 209.467 87.9984 209.2 87.9984 208.88V208.64ZM82.2064 206.416C82.2064 205.557 82.3797 204.811 82.7264 204.176C83.0784 203.536 83.553 203.04 84.1504 202.688C84.7477 202.336 85.4197 202.16 86.1664 202.16C86.8064 202.16 87.3664 202.301 87.8464 202.584C88.3264 202.867 88.7317 203.288 89.0624 203.848L88.3664 204.36C88.1157 203.971 87.8544 203.685 87.5824 203.504C87.3104 203.323 87.017 203.232 86.7024 203.232C86.393 203.232 86.1184 203.333 85.8784 203.536C85.6437 203.733 85.457 204.045 85.3184 204.472C85.185 204.893 85.1184 205.445 85.1184 206.128C85.1184 206.752 85.185 207.264 85.3184 207.664C85.457 208.064 85.6437 208.36 85.8784 208.552C86.113 208.739 86.377 208.832 86.6704 208.832C87.0117 208.832 87.3264 208.725 87.6144 208.512C87.9077 208.293 88.177 207.955 88.4224 207.496L88.8784 207.984C88.4464 208.677 87.9504 209.221 87.3904 209.616C86.8357 210.011 86.209 210.208 85.5104 210.208C84.881 210.208 84.3157 210.048 83.8144 209.728C83.3184 209.403 82.9264 208.957 82.6384 208.392C82.3504 207.821 82.2064 207.163 82.2064 206.416ZM96.1131 202.776V208.544C96.1131 208.731 96.1318 208.867 96.1691 208.952C96.2118 209.032 96.2758 209.088 96.3611 209.12L96.6011 209.2C96.7131 209.243 96.7931 209.299 96.8411 209.368C96.8945 209.432 96.9211 209.509 96.9211 209.6C96.9211 209.723 96.8785 209.821 96.7931 209.896C96.7131 209.965 96.5851 210 96.4091 210H93.0011C92.8251 210 92.6971 209.965 92.6171 209.896C92.5371 209.821 92.4971 209.723 92.4971 209.6C92.4971 209.509 92.5211 209.432 92.5691 209.368C92.6171 209.299 92.6971 209.243 92.8091 209.2L93.0571 209.12C93.1425 209.088 93.2038 209.032 93.2411 208.952C93.2838 208.867 93.3051 208.731 93.3051 208.544V204.328C93.3051 204.179 93.2838 204.072 93.2411 204.008C93.1985 203.944 93.1318 203.901 93.0411 203.88L92.7371 203.84C92.6358 203.808 92.5611 203.765 92.5131 203.712C92.4705 203.653 92.4491 203.579 92.4491 203.488C92.4491 203.381 92.4785 203.299 92.5371 203.24C92.5958 203.176 92.7078 203.112 92.8731 203.048L94.5291 202.432C94.7745 202.336 94.9665 202.269 95.1051 202.232C95.2491 202.195 95.3745 202.176 95.4811 202.176C95.6945 202.176 95.8518 202.232 95.9531 202.344C96.0598 202.456 96.1131 202.6 96.1131 202.776ZM94.5371 201.216C94.0251 201.216 93.6171 201.093 93.3131 200.848C93.0145 200.597 92.8651 200.261 92.8651 199.84C92.8651 199.424 93.0145 199.096 93.3131 198.856C93.6171 198.611 94.0251 198.488 94.5371 198.488C95.0491 198.488 95.4545 198.611 95.7531 198.856C96.0571 199.101 96.2091 199.429 96.2091 199.84C96.2091 200.261 96.0571 200.597 95.7531 200.848C95.4545 201.093 95.0491 201.216 94.5371 201.216ZM98.1536 203.264L97.8256 203.152C97.7083 203.109 97.6203 203.056 97.5616 202.992C97.5083 202.928 97.4816 202.851 97.4816 202.76C97.4816 202.637 97.5243 202.541 97.6096 202.472C97.7003 202.403 97.815 202.368 97.9536 202.368H98.4256C98.5376 202.368 98.6363 202.344 98.7216 202.296C98.807 202.248 98.9056 202.16 99.0176 202.032L100.13 200.752C100.268 200.597 100.399 200.483 100.522 200.408C100.65 200.333 100.772 200.296 100.89 200.296C101.018 200.296 101.119 200.339 101.194 200.424C101.268 200.509 101.306 200.632 101.306 200.792V207.416C101.306 207.8 101.375 208.093 101.514 208.296C101.658 208.493 101.858 208.592 102.114 208.592C102.311 208.592 102.463 208.549 102.57 208.464C102.682 208.373 102.77 208.272 102.834 208.16C102.898 208.043 102.964 207.939 103.034 207.848C103.103 207.757 103.194 207.709 103.306 207.704C103.396 207.704 103.468 207.736 103.522 207.8C103.575 207.859 103.602 207.963 103.602 208.112C103.596 208.496 103.479 208.845 103.25 209.16C103.026 209.475 102.714 209.725 102.314 209.912C101.919 210.099 101.466 210.192 100.954 210.192C100.18 210.192 99.5776 210.003 99.1456 209.624C98.7136 209.245 98.4976 208.672 98.4976 207.904V203.752C98.4976 203.608 98.471 203.504 98.4176 203.44C98.3643 203.371 98.2763 203.312 98.1536 203.264ZM100.282 203.312L100.29 202.368H103.066C103.21 202.368 103.322 202.4 103.402 202.464C103.487 202.523 103.53 202.608 103.53 202.72C103.53 202.885 103.447 203.027 103.282 203.144C103.116 203.256 102.847 203.312 102.474 203.312H100.282ZM109.259 208.952V208.776L109.059 208.76V203.776C109.059 203.488 108.982 203.261 108.827 203.096C108.678 202.931 108.472 202.848 108.211 202.848C107.982 202.848 107.798 202.899 107.659 203C107.526 203.101 107.459 203.229 107.459 203.384V204.176C107.459 204.56 107.328 204.856 107.067 205.064C106.806 205.272 106.438 205.376 105.963 205.376C105.558 205.376 105.254 205.288 105.051 205.112C104.848 204.931 104.747 204.68 104.747 204.36C104.747 204.019 104.894 203.68 105.187 203.344C105.486 203.003 105.928 202.723 106.515 202.504C107.107 202.28 107.84 202.168 108.715 202.168C109.771 202.168 110.555 202.371 111.067 202.776C111.579 203.181 111.835 203.731 111.835 204.424V208.424C111.835 208.547 111.862 208.645 111.915 208.72C111.974 208.789 112.059 208.824 112.171 208.824C112.272 208.824 112.35 208.797 112.403 208.744C112.462 208.691 112.515 208.637 112.563 208.584C112.595 208.547 112.627 208.517 112.659 208.496C112.696 208.469 112.739 208.456 112.787 208.456C112.867 208.456 112.923 208.485 112.955 208.544C112.992 208.597 113.011 208.667 113.011 208.752C113.011 208.96 112.936 209.176 112.787 209.4C112.643 209.624 112.424 209.816 112.131 209.976C111.838 210.131 111.472 210.208 111.035 210.208C110.502 210.208 110.072 210.093 109.747 209.864C109.422 209.629 109.259 209.325 109.259 208.952ZM104.435 208.312C104.435 207.619 104.747 207.064 105.371 206.648C105.995 206.232 106.872 206.024 108.003 206.024C108.334 206.024 108.627 206.051 108.883 206.104C109.139 206.152 109.355 206.221 109.531 206.312L109.307 206.904C109.158 206.829 109.011 206.773 108.867 206.736C108.728 206.693 108.574 206.672 108.403 206.672C108.051 206.672 107.774 206.773 107.571 206.976C107.374 207.179 107.275 207.464 107.275 207.832C107.275 208.205 107.366 208.491 107.547 208.688C107.728 208.885 107.963 208.984 108.251 208.984C108.47 208.984 108.678 208.933 108.875 208.832C109.078 208.725 109.243 208.592 109.371 208.432L109.547 208.968C109.275 209.363 108.894 209.669 108.403 209.888C107.918 210.101 107.398 210.208 106.843 210.208C106.123 210.208 105.542 210.032 105.099 209.68C104.656 209.323 104.435 208.867 104.435 208.312ZM122.308 213.728C122.127 213.728 121.996 213.693 121.916 213.624C121.836 213.555 121.796 213.456 121.796 213.328C121.796 213.237 121.82 213.157 121.868 213.088C121.916 213.024 121.996 212.971 122.108 212.928L122.412 212.848C122.503 212.816 122.567 212.757 122.604 212.672C122.647 212.592 122.668 212.459 122.668 212.272V203.088L123.82 202.472C124.14 202.355 124.38 202.275 124.54 202.232C124.7 202.189 124.834 202.168 124.94 202.168C125.106 202.168 125.236 202.211 125.332 202.296C125.428 202.381 125.476 202.504 125.476 202.664V212.272C125.476 212.459 125.495 212.592 125.532 212.672C125.57 212.757 125.634 212.816 125.724 212.848L125.972 212.928C126.084 212.971 126.164 213.024 126.212 213.088C126.26 213.157 126.284 213.237 126.284 213.328C126.284 213.456 126.244 213.555 126.164 213.624C126.084 213.693 125.954 213.728 125.772 213.728H122.308ZM123.636 207.984C123.204 208.677 122.708 209.221 122.148 209.616C121.594 210.011 120.967 210.208 120.268 210.208C119.639 210.208 119.074 210.048 118.572 209.728C118.076 209.403 117.684 208.957 117.396 208.392C117.108 207.821 116.964 207.163 116.964 206.416C116.964 205.557 117.138 204.811 117.484 204.176C117.836 203.536 118.311 203.04 118.908 202.688C119.506 202.336 120.178 202.16 120.924 202.16C121.564 202.16 122.124 202.301 122.604 202.584C123.084 202.867 123.49 203.285 123.82 203.84L123.124 204.36C122.874 203.965 122.612 203.68 122.34 203.504C122.068 203.323 121.775 203.232 121.46 203.232C121.151 203.232 120.876 203.333 120.636 203.536C120.402 203.733 120.215 204.045 120.076 204.472C119.943 204.893 119.876 205.443 119.876 206.12C119.876 206.749 119.943 207.264 120.076 207.664C120.215 208.064 120.402 208.36 120.636 208.552C120.871 208.739 121.138 208.832 121.436 208.832C121.778 208.832 122.092 208.725 122.38 208.512C122.668 208.293 122.935 207.955 123.18 207.496L123.636 207.984ZM132.907 208.64V208.368L132.811 208.352V204.336C132.811 204.181 132.79 204.072 132.747 204.008C132.704 203.944 132.638 203.901 132.547 203.88L132.243 203.84C132.142 203.813 132.067 203.771 132.019 203.712C131.976 203.653 131.955 203.579 131.955 203.488C131.955 203.387 131.984 203.304 132.043 203.24C132.102 203.176 132.214 203.112 132.379 203.048L134.043 202.432C134.272 202.341 134.459 202.277 134.603 202.24C134.747 202.197 134.883 202.176 135.011 202.176C135.214 202.176 135.366 202.232 135.467 202.344C135.568 202.456 135.619 202.603 135.619 202.784V208.544C135.619 208.731 135.638 208.867 135.675 208.952C135.718 209.032 135.782 209.088 135.867 209.12L136.115 209.2C136.227 209.243 136.307 209.299 136.355 209.368C136.403 209.432 136.427 209.509 136.427 209.6C136.427 209.723 136.387 209.821 136.307 209.896C136.227 209.965 136.096 210 135.915 210H134.107C133.782 210 133.499 209.869 133.259 209.608C133.024 209.341 132.907 209.019 132.907 208.64ZM127.715 207.736V204.336C127.715 204.181 127.694 204.072 127.651 204.008C127.608 203.944 127.542 203.901 127.451 203.88L127.155 203.84C127.048 203.813 126.971 203.771 126.923 203.712C126.88 203.653 126.859 203.579 126.859 203.488C126.859 203.387 126.888 203.304 126.947 203.24C127.011 203.176 127.123 203.112 127.283 203.048L128.947 202.432C129.187 202.341 129.376 202.277 129.515 202.24C129.659 202.197 129.784 202.176 129.891 202.176C130.104 202.176 130.264 202.232 130.371 202.344C130.478 202.456 130.531 202.603 130.531 202.784V207.336C130.531 207.736 130.624 208.037 130.811 208.24C131.003 208.443 131.264 208.544 131.595 208.544C131.803 208.544 132.019 208.499 132.243 208.408C132.472 208.317 132.696 208.179 132.915 207.992L133.211 207.728L133.627 208.16L133.347 208.416C132.643 209.077 132.027 209.541 131.499 209.808C130.971 210.075 130.48 210.208 130.027 210.208C129.339 210.208 128.782 209.981 128.355 209.528C127.928 209.075 127.715 208.477 127.715 207.736ZM145.178 205.224C145.178 205.544 145.087 205.792 144.906 205.968C144.73 206.144 144.474 206.232 144.138 206.232H139.266V205.52H141.97C142.247 205.52 142.386 205.392 142.386 205.136C142.386 204.437 142.282 203.925 142.074 203.6C141.871 203.269 141.599 203.104 141.258 203.104C140.996 203.104 140.764 203.189 140.562 203.36C140.364 203.531 140.207 203.784 140.09 204.12C139.972 204.451 139.914 204.859 139.914 205.344C139.914 206.352 140.143 207.099 140.602 207.584C141.066 208.064 141.687 208.304 142.466 208.304C142.882 208.304 143.252 208.235 143.578 208.096C143.903 207.957 144.18 207.739 144.41 207.44C144.532 207.323 144.626 207.243 144.69 207.2C144.759 207.157 144.826 207.136 144.89 207.136C144.98 207.136 145.047 207.181 145.09 207.272C145.138 207.357 145.161 207.464 145.161 207.592C145.146 208.061 144.983 208.496 144.674 208.896C144.364 209.291 143.94 209.608 143.402 209.848C142.863 210.088 142.239 210.208 141.53 210.208C140.74 210.208 140.034 210.048 139.41 209.728C138.791 209.408 138.303 208.963 137.946 208.392C137.588 207.816 137.41 207.144 137.41 206.376C137.41 205.539 137.575 204.805 137.906 204.176C138.242 203.541 138.724 203.048 139.354 202.696C139.988 202.339 140.748 202.16 141.634 202.16C142.396 202.16 143.042 202.291 143.57 202.552C144.098 202.813 144.498 203.176 144.77 203.64C145.042 204.099 145.178 204.627 145.178 205.224ZM153.176 208.168C153.176 208.472 153.221 208.76 153.312 209.032C153.402 209.304 153.506 209.573 153.624 209.84C153.741 210.107 153.842 210.371 153.928 210.632C154.018 210.899 154.064 211.173 154.064 211.456C154.064 212.144 153.81 212.693 153.304 213.104C152.797 213.52 152.106 213.728 151.232 213.728C150.602 213.728 150.074 213.637 149.648 213.456C149.226 213.275 148.909 213.037 148.696 212.744C148.482 212.451 148.376 212.131 148.376 211.784C148.376 211.352 148.49 211.029 148.72 210.816C148.949 210.603 149.256 210.496 149.64 210.496C150.013 210.496 150.309 210.619 150.528 210.864C150.746 211.109 150.856 211.429 150.856 211.824V212.36C150.856 212.579 150.914 212.744 151.032 212.856C151.149 212.968 151.314 213.024 151.528 213.024C151.768 213.024 151.949 212.957 152.072 212.824C152.2 212.691 152.264 212.493 152.264 212.232C152.264 211.981 152.2 211.739 152.072 211.504C151.944 211.275 151.784 211.045 151.592 210.816C151.405 210.587 151.218 210.357 151.032 210.128C150.845 209.899 150.688 209.664 150.56 209.424C150.432 209.184 150.368 208.939 150.368 208.688V204.328C150.368 204.179 150.346 204.072 150.304 204.008C150.261 203.944 150.194 203.901 150.104 203.88L149.8 203.84C149.698 203.808 149.624 203.765 149.576 203.712C149.533 203.653 149.512 203.579 149.512 203.488C149.512 203.381 149.541 203.299 149.6 203.24C149.658 203.176 149.77 203.112 149.936 203.048L151.592 202.432C151.842 202.336 152.037 202.269 152.176 202.232C152.32 202.195 152.445 202.176 152.552 202.176C152.76 202.176 152.914 202.232 153.016 202.344C153.122 202.456 153.176 202.6 153.176 202.776V208.168ZM151.576 201.216C151.069 201.216 150.664 201.093 150.36 200.848C150.061 200.597 149.912 200.261 149.912 199.84C149.912 199.424 150.061 199.096 150.36 198.856C150.664 198.611 151.069 198.488 151.576 198.488C152.088 198.488 152.496 198.611 152.8 198.856C153.104 199.101 153.256 199.429 153.256 199.84C153.256 200.261 153.104 200.597 152.8 200.848C152.496 201.093 152.088 201.216 151.576 201.216ZM159.232 202.16C160.096 202.16 160.851 202.331 161.496 202.672C162.147 203.008 162.653 203.48 163.016 204.088C163.379 204.696 163.56 205.403 163.56 206.208C163.56 206.96 163.371 207.64 162.992 208.248C162.619 208.851 162.099 209.328 161.432 209.68C160.771 210.032 160.003 210.208 159.128 210.208C158.269 210.208 157.515 210.037 156.864 209.696C156.219 209.349 155.715 208.872 155.352 208.264C154.989 207.656 154.808 206.955 154.808 206.16C154.808 205.392 154.995 204.707 155.368 204.104C155.747 203.501 156.267 203.027 156.928 202.68C157.595 202.333 158.363 202.16 159.232 202.16ZM159.808 209.232C160.091 209.179 160.312 209.024 160.472 208.768C160.637 208.512 160.731 208.149 160.752 207.68C160.779 207.205 160.725 206.624 160.592 205.936C160.459 205.259 160.291 204.704 160.088 204.272C159.885 203.835 159.653 203.523 159.392 203.336C159.136 203.144 158.859 203.077 158.56 203.136C158.277 203.189 158.053 203.344 157.888 203.6C157.723 203.856 157.629 204.219 157.608 204.688C157.587 205.157 157.643 205.739 157.776 206.432C157.909 207.104 158.077 207.659 158.28 208.096C158.483 208.533 158.712 208.845 158.968 209.032C159.229 209.219 159.509 209.285 159.808 209.232ZM169.991 209.048C170.828 209.144 171.498 209.283 171.999 209.464C172.5 209.645 172.863 209.883 173.087 210.176C173.311 210.469 173.423 210.835 173.423 211.272C173.423 212.045 172.999 212.68 172.151 213.176C171.303 213.672 170.071 213.92 168.455 213.92C167.436 213.92 166.634 213.848 166.047 213.704C165.466 213.56 165.052 213.357 164.807 213.096C164.562 212.84 164.439 212.541 164.439 212.2C164.439 211.805 164.634 211.459 165.023 211.16C165.412 210.861 166.122 210.651 167.151 210.528L167.247 210.768C167.023 210.827 166.85 210.931 166.727 211.08C166.61 211.229 166.551 211.392 166.551 211.568C166.551 212.016 166.727 212.371 167.079 212.632C167.431 212.899 168.05 213.032 168.935 213.032C169.442 213.032 169.842 212.995 170.135 212.92C170.428 212.851 170.639 212.744 170.767 212.6C170.895 212.461 170.959 212.293 170.959 212.096C170.959 211.92 170.884 211.771 170.735 211.648C170.586 211.531 170.324 211.427 169.951 211.336C169.583 211.245 169.071 211.155 168.415 211.064C167.61 210.957 166.994 210.835 166.567 210.696C166.14 210.557 165.847 210.389 165.687 210.192C165.532 210 165.455 209.765 165.455 209.488C165.455 209.227 165.53 208.987 165.679 208.768C165.828 208.544 166.079 208.357 166.431 208.208C166.788 208.059 167.282 207.965 167.911 207.928L168.031 208.072C167.908 208.12 167.818 208.173 167.759 208.232C167.706 208.291 167.679 208.355 167.679 208.424C167.679 208.488 167.719 208.552 167.799 208.616C167.879 208.675 168.082 208.739 168.407 208.808C168.732 208.877 169.26 208.957 169.991 209.048ZM169.999 202.984L170.271 202.36C170.548 201.725 170.892 201.253 171.303 200.944C171.714 200.629 172.154 200.472 172.623 200.472C173.002 200.472 173.308 200.579 173.543 200.792C173.778 201.005 173.895 201.307 173.895 201.696C173.895 202.043 173.807 202.323 173.631 202.536C173.46 202.744 173.231 202.848 172.943 202.848C172.746 202.848 172.591 202.805 172.479 202.72C172.372 202.635 172.279 202.536 172.199 202.424C172.124 202.312 172.039 202.216 171.943 202.136C171.847 202.051 171.711 202.008 171.535 202.008C171.354 202.008 171.199 202.08 171.071 202.224C170.948 202.363 170.796 202.635 170.615 203.04L169.999 202.984ZM172.743 205.056C172.743 205.68 172.572 206.229 172.231 206.704C171.895 207.173 171.415 207.541 170.791 207.808C170.172 208.069 169.434 208.2 168.575 208.2C167.759 208.2 167.06 208.075 166.479 207.824C165.898 207.573 165.452 207.232 165.143 206.8C164.839 206.363 164.687 205.877 164.687 205.344C164.687 204.715 164.855 204.165 165.191 203.696C165.532 203.221 166.015 202.853 166.639 202.592C167.268 202.325 168.01 202.192 168.863 202.192C169.684 202.192 170.383 202.317 170.959 202.568C171.54 202.819 171.983 203.16 172.287 203.592C172.591 204.024 172.743 204.512 172.743 205.056ZM168.367 202.984C168.138 203.011 167.954 203.115 167.815 203.296C167.682 203.472 167.599 203.725 167.567 204.056C167.535 204.381 167.556 204.784 167.631 205.264C167.706 205.749 167.81 206.155 167.943 206.48C168.076 206.8 168.236 207.035 168.423 207.184C168.61 207.328 168.82 207.387 169.055 207.36C169.407 207.317 169.644 207.109 169.767 206.736C169.895 206.357 169.903 205.805 169.791 205.08C169.684 204.349 169.508 203.808 169.263 203.456C169.023 203.099 168.724 202.941 168.367 202.984ZM178.962 208.952V208.776L178.762 208.76V203.776C178.762 203.488 178.685 203.261 178.53 203.096C178.381 202.931 178.175 202.848 177.914 202.848C177.685 202.848 177.501 202.899 177.362 203C177.229 203.101 177.162 203.229 177.162 203.384V204.176C177.162 204.56 177.031 204.856 176.77 205.064C176.509 205.272 176.141 205.376 175.666 205.376C175.261 205.376 174.957 205.288 174.754 205.112C174.551 204.931 174.45 204.68 174.45 204.36C174.45 204.019 174.597 203.68 174.89 203.344C175.189 203.003 175.631 202.723 176.218 202.504C176.81 202.28 177.543 202.168 178.418 202.168C179.474 202.168 180.258 202.371 180.77 202.776C181.282 203.181 181.538 203.731 181.538 204.424V208.424C181.538 208.547 181.565 208.645 181.618 208.72C181.677 208.789 181.762 208.824 181.874 208.824C181.975 208.824 182.053 208.797 182.106 208.744C182.165 208.691 182.218 208.637 182.266 208.584C182.298 208.547 182.33 208.517 182.362 208.496C182.399 208.469 182.442 208.456 182.49 208.456C182.57 208.456 182.626 208.485 182.658 208.544C182.695 208.597 182.714 208.667 182.714 208.752C182.714 208.96 182.639 209.176 182.49 209.4C182.346 209.624 182.127 209.816 181.834 209.976C181.541 210.131 181.175 210.208 180.738 210.208C180.205 210.208 179.775 210.093 179.45 209.864C179.125 209.629 178.962 209.325 178.962 208.952ZM174.138 208.312C174.138 207.619 174.45 207.064 175.074 206.648C175.698 206.232 176.575 206.024 177.706 206.024C178.037 206.024 178.33 206.051 178.586 206.104C178.842 206.152 179.058 206.221 179.234 206.312L179.01 206.904C178.861 206.829 178.714 206.773 178.57 206.736C178.431 206.693 178.277 206.672 178.106 206.672C177.754 206.672 177.477 206.773 177.274 206.976C177.077 207.179 176.978 207.464 176.978 207.832C176.978 208.205 177.069 208.491 177.25 208.688C177.431 208.885 177.666 208.984 177.954 208.984C178.173 208.984 178.381 208.933 178.578 208.832C178.781 208.725 178.946 208.592 179.074 208.432L179.25 208.968C178.978 209.363 178.597 209.669 178.106 209.888C177.621 210.101 177.101 210.208 176.546 210.208C175.826 210.208 175.245 210.032 174.802 209.68C174.359 209.323 174.138 208.867 174.138 208.312ZM186.692 205.696C186.692 204.907 186.799 204.251 187.012 203.728C187.231 203.2 187.519 202.808 187.876 202.552C188.233 202.291 188.617 202.16 189.028 202.16C189.561 202.16 189.972 202.317 190.26 202.632C190.548 202.941 190.692 203.4 190.692 204.008C190.692 204.595 190.572 205.029 190.332 205.312C190.097 205.595 189.788 205.736 189.404 205.736C189.02 205.736 188.729 205.635 188.532 205.432C188.34 205.229 188.244 204.949 188.244 204.592V204.28C188.239 204.131 188.204 204.019 188.14 203.944C188.076 203.864 187.972 203.824 187.828 203.824C187.679 203.824 187.54 203.885 187.412 204.008C187.284 204.131 187.18 204.325 187.1 204.592C187.025 204.853 186.988 205.195 186.988 205.616L186.692 205.696ZM186.82 202.784L186.988 204.544V208.544C186.988 208.709 187.015 208.829 187.068 208.904C187.127 208.979 187.244 209.032 187.42 209.064L188.068 209.176C188.207 209.203 188.308 209.251 188.372 209.32C188.441 209.384 188.476 209.477 188.476 209.6C188.476 209.723 188.431 209.821 188.34 209.896C188.255 209.965 188.127 210 187.956 210H183.876C183.7 210 183.572 209.965 183.492 209.896C183.412 209.821 183.372 209.723 183.372 209.6C183.372 209.509 183.396 209.432 183.444 209.368C183.492 209.299 183.572 209.243 183.684 209.2L183.932 209.12C184.017 209.088 184.079 209.032 184.116 208.952C184.159 208.867 184.18 208.731 184.18 208.544V204.352C184.18 204.203 184.159 204.096 184.116 204.032C184.073 203.968 184.007 203.925 183.916 203.904L183.612 203.856C183.511 203.829 183.436 203.789 183.388 203.736C183.345 203.677 183.324 203.603 183.324 203.512C183.324 203.405 183.353 203.32 183.412 203.256C183.476 203.192 183.588 203.131 183.748 203.072L185.364 202.472C185.679 202.349 185.905 202.269 186.044 202.232C186.183 202.195 186.292 202.176 186.372 202.176C186.505 202.176 186.604 202.224 186.668 202.32C186.737 202.411 186.788 202.565 186.82 202.784ZM202.362 204.488C202.362 204.84 202.231 205.139 201.97 205.384C201.714 205.629 201.372 205.752 200.946 205.752C200.524 205.752 200.207 205.64 199.994 205.416C199.78 205.187 199.674 204.891 199.674 204.528V204.264C199.674 203.907 199.583 203.624 199.402 203.416C199.22 203.208 198.975 203.104 198.666 203.104C198.41 203.104 198.172 203.189 197.954 203.36C197.74 203.531 197.57 203.784 197.442 204.12C197.319 204.451 197.258 204.859 197.258 205.344C197.258 205.989 197.367 206.533 197.586 206.976C197.804 207.413 198.103 207.744 198.482 207.968C198.866 208.192 199.3 208.304 199.786 208.304C200.186 208.304 200.54 208.237 200.85 208.104C201.159 207.965 201.428 207.749 201.658 207.456C201.78 207.339 201.874 207.259 201.938 207.216C202.007 207.173 202.074 207.152 202.138 207.152C202.234 207.152 202.303 207.197 202.346 207.288C202.388 207.373 202.41 207.48 202.41 207.608C202.394 208.077 202.234 208.509 201.93 208.904C201.626 209.299 201.21 209.616 200.682 209.856C200.154 210.091 199.543 210.208 198.85 210.208C198.066 210.208 197.364 210.051 196.746 209.736C196.127 209.416 195.639 208.971 195.282 208.4C194.924 207.824 194.746 207.149 194.746 206.376C194.746 205.571 194.919 204.851 195.266 204.216C195.618 203.581 196.114 203.08 196.754 202.712C197.394 202.344 198.148 202.16 199.018 202.16C199.706 202.16 200.3 202.264 200.802 202.472C201.303 202.68 201.687 202.963 201.954 203.32C202.226 203.672 202.362 204.061 202.362 204.488ZM207.779 202.16C208.643 202.16 209.398 202.331 210.043 202.672C210.694 203.008 211.2 203.48 211.563 204.088C211.926 204.696 212.107 205.403 212.107 206.208C212.107 206.96 211.918 207.64 211.539 208.248C211.166 208.851 210.646 209.328 209.979 209.68C209.318 210.032 208.55 210.208 207.675 210.208C206.816 210.208 206.062 210.037 205.411 209.696C204.766 209.349 204.262 208.872 203.899 208.264C203.536 207.656 203.355 206.955 203.355 206.16C203.355 205.392 203.542 204.707 203.915 204.104C204.294 203.501 204.814 203.027 205.475 202.68C206.142 202.333 206.91 202.16 207.779 202.16ZM208.355 209.232C208.638 209.179 208.859 209.024 209.019 208.768C209.184 208.512 209.278 208.149 209.299 207.68C209.326 207.205 209.272 206.624 209.139 205.936C209.006 205.259 208.838 204.704 208.635 204.272C208.432 203.835 208.2 203.523 207.939 203.336C207.683 203.144 207.406 203.077 207.107 203.136C206.824 203.189 206.6 203.344 206.435 203.6C206.27 203.856 206.176 204.219 206.155 204.688C206.134 205.157 206.19 205.739 206.323 206.432C206.456 207.104 206.624 207.659 206.827 208.096C207.03 208.533 207.259 208.845 207.515 209.032C207.776 209.219 208.056 209.285 208.355 209.232ZM216.754 202.776V208.544C216.754 208.731 216.772 208.864 216.81 208.944C216.852 209.024 216.916 209.083 217.002 209.12L217.234 209.208C217.404 209.288 217.49 209.411 217.49 209.576C217.49 209.859 217.316 210 216.97 210H213.642C213.466 210 213.338 209.965 213.258 209.896C213.178 209.821 213.138 209.723 213.138 209.6C213.138 209.509 213.162 209.432 213.21 209.368C213.258 209.299 213.338 209.243 213.45 209.2L213.698 209.12C213.783 209.088 213.844 209.032 213.882 208.952C213.924 208.867 213.946 208.731 213.946 208.544V204.328C213.946 204.179 213.924 204.072 213.882 204.008C213.839 203.944 213.772 203.901 213.682 203.88L213.378 203.84C213.276 203.808 213.202 203.765 213.154 203.712C213.111 203.653 213.09 203.579 213.09 203.488C213.09 203.381 213.119 203.299 213.178 203.24C213.236 203.176 213.348 203.112 213.514 203.048L215.17 202.432C215.404 202.341 215.591 202.277 215.73 202.24C215.874 202.197 216.012 202.176 216.146 202.176C216.343 202.176 216.492 202.232 216.594 202.344C216.7 202.456 216.754 202.6 216.754 202.776ZM216.49 204.64L216.074 204.208L216.354 203.952C217.063 203.285 217.682 202.821 218.21 202.56C218.738 202.293 219.228 202.16 219.682 202.16C220.375 202.16 220.935 202.387 221.362 202.84C221.788 203.288 222.002 203.885 222.002 204.632V208.536C222.002 208.723 222.02 208.859 222.058 208.944C222.1 209.029 222.167 209.088 222.258 209.12L222.49 209.2C222.602 209.243 222.682 209.299 222.73 209.368C222.778 209.432 222.802 209.509 222.802 209.6C222.802 209.723 222.762 209.821 222.682 209.896C222.602 209.965 222.474 210 222.298 210H218.97C218.623 210 218.45 209.859 218.45 209.576C218.45 209.411 218.532 209.288 218.698 209.208L218.938 209.12C219.028 209.083 219.092 209.024 219.13 208.944C219.172 208.859 219.194 208.723 219.194 208.536V205.032C219.194 204.627 219.095 204.325 218.898 204.128C218.706 203.925 218.444 203.824 218.114 203.824C217.906 203.824 217.687 203.869 217.458 203.96C217.228 204.051 217.007 204.189 216.794 204.376L216.49 204.64ZM224.06 203.264L223.732 203.152C223.615 203.109 223.527 203.056 223.468 202.992C223.415 202.928 223.388 202.851 223.388 202.76C223.388 202.637 223.431 202.541 223.516 202.472C223.607 202.403 223.721 202.368 223.86 202.368H224.332C224.444 202.368 224.543 202.344 224.628 202.296C224.713 202.248 224.812 202.16 224.924 202.032L226.036 200.752C226.175 200.597 226.305 200.483 226.428 200.408C226.556 200.333 226.679 200.296 226.796 200.296C226.924 200.296 227.025 200.339 227.1 200.424C227.175 200.509 227.212 200.632 227.212 200.792V207.416C227.212 207.8 227.281 208.093 227.42 208.296C227.564 208.493 227.764 208.592 228.02 208.592C228.217 208.592 228.369 208.549 228.476 208.464C228.588 208.373 228.676 208.272 228.74 208.16C228.804 208.043 228.871 207.939 228.94 207.848C229.009 207.757 229.1 207.709 229.212 207.704C229.303 207.704 229.375 207.736 229.428 207.8C229.481 207.859 229.508 207.963 229.508 208.112C229.503 208.496 229.385 208.845 229.156 209.16C228.932 209.475 228.62 209.725 228.22 209.912C227.825 210.099 227.372 210.192 226.86 210.192C226.087 210.192 225.484 210.003 225.052 209.624C224.62 209.245 224.404 208.672 224.404 207.904V203.752C224.404 203.608 224.377 203.504 224.324 203.44C224.271 203.371 224.183 203.312 224.06 203.264ZM226.188 203.312L226.196 202.368H228.972C229.116 202.368 229.228 202.4 229.308 202.464C229.393 202.523 229.436 202.608 229.436 202.72C229.436 202.885 229.353 203.027 229.188 203.144C229.023 203.256 228.753 203.312 228.38 203.312H226.188ZM233.645 205.696C233.645 204.907 233.752 204.251 233.965 203.728C234.184 203.2 234.472 202.808 234.829 202.552C235.187 202.291 235.571 202.16 235.981 202.16C236.515 202.16 236.925 202.317 237.213 202.632C237.501 202.941 237.645 203.4 237.645 204.008C237.645 204.595 237.525 205.029 237.285 205.312C237.051 205.595 236.741 205.736 236.357 205.736C235.973 205.736 235.683 205.635 235.485 205.432C235.293 205.229 235.197 204.949 235.197 204.592V204.28C235.192 204.131 235.157 204.019 235.093 203.944C235.029 203.864 234.925 203.824 234.781 203.824C234.632 203.824 234.493 203.885 234.365 204.008C234.237 204.131 234.133 204.325 234.053 204.592C233.979 204.853 233.941 205.195 233.941 205.616L233.645 205.696ZM233.773 202.784L233.941 204.544V208.544C233.941 208.709 233.968 208.829 234.021 208.904C234.08 208.979 234.197 209.032 234.373 209.064L235.021 209.176C235.16 209.203 235.261 209.251 235.325 209.32C235.395 209.384 235.429 209.477 235.429 209.6C235.429 209.723 235.384 209.821 235.293 209.896C235.208 209.965 235.08 210 234.909 210H230.829C230.653 210 230.525 209.965 230.445 209.896C230.365 209.821 230.325 209.723 230.325 209.6C230.325 209.509 230.349 209.432 230.397 209.368C230.445 209.299 230.525 209.243 230.637 209.2L230.885 209.12C230.971 209.088 231.032 209.032 231.069 208.952C231.112 208.867 231.133 208.731 231.133 208.544V204.352C231.133 204.203 231.112 204.096 231.069 204.032C231.027 203.968 230.96 203.925 230.869 203.904L230.565 203.856C230.464 203.829 230.389 203.789 230.341 203.736C230.299 203.677 230.277 203.603 230.277 203.512C230.277 203.405 230.307 203.32 230.365 203.256C230.429 203.192 230.541 203.131 230.701 203.072L232.317 202.472C232.632 202.349 232.859 202.269 232.997 202.232C233.136 202.195 233.245 202.176 233.325 202.176C233.459 202.176 233.557 202.224 233.621 202.32C233.691 202.411 233.741 202.565 233.773 202.784ZM242.019 202.776V208.544C242.019 208.731 242.038 208.867 242.075 208.952C242.118 209.032 242.182 209.088 242.267 209.12L242.507 209.2C242.619 209.243 242.699 209.299 242.747 209.368C242.801 209.432 242.827 209.509 242.827 209.6C242.827 209.723 242.785 209.821 242.699 209.896C242.619 209.965 242.491 210 242.315 210H238.907C238.731 210 238.603 209.965 238.523 209.896C238.443 209.821 238.403 209.723 238.403 209.6C238.403 209.509 238.427 209.432 238.475 209.368C238.523 209.299 238.603 209.243 238.715 209.2L238.963 209.12C239.049 209.088 239.11 209.032 239.147 208.952C239.19 208.867 239.211 208.731 239.211 208.544V204.328C239.211 204.179 239.19 204.072 239.147 204.008C239.105 203.944 239.038 203.901 238.947 203.88L238.643 203.84C238.542 203.808 238.467 203.765 238.419 203.712C238.377 203.653 238.355 203.579 238.355 203.488C238.355 203.381 238.385 203.299 238.443 203.24C238.502 203.176 238.614 203.112 238.779 203.048L240.435 202.432C240.681 202.336 240.873 202.269 241.011 202.232C241.155 202.195 241.281 202.176 241.387 202.176C241.601 202.176 241.758 202.232 241.859 202.344C241.966 202.456 242.019 202.6 242.019 202.776ZM240.443 201.216C239.931 201.216 239.523 201.093 239.219 200.848C238.921 200.597 238.771 200.261 238.771 199.84C238.771 199.424 238.921 199.096 239.219 198.856C239.523 198.611 239.931 198.488 240.443 198.488C240.955 198.488 241.361 198.611 241.659 198.856C241.963 199.101 242.115 199.429 242.115 199.84C242.115 200.261 241.963 200.597 241.659 200.848C241.361 201.093 240.955 201.216 240.443 201.216ZM247.044 198.616V209.28L245.892 209.896C245.54 210.019 245.292 210.099 245.148 210.136C245.004 210.173 244.868 210.192 244.74 210.192C244.591 210.192 244.468 210.149 244.372 210.064C244.281 209.984 244.236 209.861 244.236 209.696V200.168C244.236 200.019 244.215 199.912 244.172 199.848C244.129 199.779 244.063 199.736 243.972 199.72L243.676 199.672C243.569 199.645 243.492 199.603 243.444 199.544C243.401 199.485 243.38 199.413 243.38 199.328C243.38 199.221 243.409 199.136 243.468 199.072C243.527 199.008 243.639 198.947 243.804 198.888L245.468 198.264C245.708 198.173 245.897 198.109 246.036 198.072C246.18 198.035 246.305 198.016 246.412 198.016C246.625 198.016 246.783 198.072 246.884 198.184C246.991 198.296 247.044 198.44 247.044 198.616ZM246.532 204.872L246.076 204.376C246.513 203.683 247.009 203.141 247.564 202.752C248.119 202.357 248.745 202.16 249.444 202.16C250.073 202.16 250.636 202.323 251.132 202.648C251.633 202.968 252.028 203.413 252.316 203.984C252.604 204.549 252.748 205.205 252.748 205.952C252.748 206.811 252.572 207.56 252.22 208.2C251.873 208.835 251.401 209.328 250.804 209.68C250.207 210.032 249.535 210.208 248.788 210.208C248.153 210.208 247.593 210.067 247.108 209.784C246.628 209.501 246.223 209.08 245.892 208.52L246.588 208.008C246.839 208.397 247.1 208.683 247.372 208.864C247.644 209.045 247.937 209.136 248.252 209.136C248.561 209.136 248.833 209.037 249.068 208.84C249.308 208.637 249.495 208.323 249.628 207.896C249.767 207.469 249.836 206.917 249.836 206.24C249.836 205.611 249.767 205.099 249.628 204.704C249.495 204.304 249.311 204.011 249.076 203.824C248.847 203.632 248.583 203.536 248.284 203.536C247.948 203.536 247.633 203.643 247.34 203.856C247.047 204.069 246.777 204.408 246.532 204.872ZM259.579 208.64V208.368L259.483 208.352V204.336C259.483 204.181 259.461 204.072 259.419 204.008C259.376 203.944 259.309 203.901 259.219 203.88L258.915 203.84C258.813 203.813 258.739 203.771 258.691 203.712C258.648 203.653 258.627 203.579 258.627 203.488C258.627 203.387 258.656 203.304 258.715 203.24C258.773 203.176 258.885 203.112 259.051 203.048L260.715 202.432C260.944 202.341 261.131 202.277 261.275 202.24C261.419 202.197 261.555 202.176 261.683 202.176C261.885 202.176 262.037 202.232 262.139 202.344C262.24 202.456 262.291 202.603 262.291 202.784V208.544C262.291 208.731 262.309 208.867 262.347 208.952C262.389 209.032 262.453 209.088 262.539 209.12L262.787 209.2C262.899 209.243 262.979 209.299 263.027 209.368C263.075 209.432 263.099 209.509 263.099 209.6C263.099 209.723 263.059 209.821 262.979 209.896C262.899 209.965 262.768 210 262.587 210H260.779C260.453 210 260.171 209.869 259.931 209.608C259.696 209.341 259.579 209.019 259.579 208.64ZM254.387 207.736V204.336C254.387 204.181 254.365 204.072 254.323 204.008C254.28 203.944 254.213 203.901 254.123 203.88L253.827 203.84C253.72 203.813 253.643 203.771 253.595 203.712C253.552 203.653 253.531 203.579 253.531 203.488C253.531 203.387 253.56 203.304 253.619 203.24C253.683 203.176 253.795 203.112 253.955 203.048L255.619 202.432C255.859 202.341 256.048 202.277 256.187 202.24C256.331 202.197 256.456 202.176 256.563 202.176C256.776 202.176 256.936 202.232 257.043 202.344C257.149 202.456 257.203 202.603 257.203 202.784V207.336C257.203 207.736 257.296 208.037 257.483 208.24C257.675 208.443 257.936 208.544 258.267 208.544C258.475 208.544 258.691 208.499 258.915 208.408C259.144 208.317 259.368 208.179 259.587 207.992L259.883 207.728L260.299 208.16L260.019 208.416C259.315 209.077 258.699 209.541 258.171 209.808C257.643 210.075 257.152 210.208 256.699 210.208C256.011 210.208 255.453 209.981 255.027 209.528C254.6 209.075 254.387 208.477 254.387 207.736ZM267.769 202.776V208.544C267.769 208.731 267.788 208.867 267.825 208.952C267.868 209.032 267.932 209.088 268.017 209.12L268.257 209.2C268.369 209.243 268.449 209.299 268.497 209.368C268.551 209.432 268.577 209.509 268.577 209.6C268.577 209.723 268.535 209.821 268.449 209.896C268.369 209.965 268.241 210 268.065 210H264.657C264.481 210 264.353 209.965 264.273 209.896C264.193 209.821 264.153 209.723 264.153 209.6C264.153 209.509 264.177 209.432 264.225 209.368C264.273 209.299 264.353 209.243 264.465 209.2L264.713 209.12C264.799 209.088 264.86 209.032 264.897 208.952C264.94 208.867 264.961 208.731 264.961 208.544V204.328C264.961 204.179 264.94 204.072 264.897 204.008C264.855 203.944 264.788 203.901 264.697 203.88L264.393 203.84C264.292 203.808 264.217 203.765 264.169 203.712C264.127 203.653 264.105 203.579 264.105 203.488C264.105 203.381 264.135 203.299 264.193 203.24C264.252 203.176 264.364 203.112 264.529 203.048L266.185 202.432C266.431 202.336 266.623 202.269 266.761 202.232C266.905 202.195 267.031 202.176 267.137 202.176C267.351 202.176 267.508 202.232 267.609 202.344C267.716 202.456 267.769 202.6 267.769 202.776ZM266.193 201.216C265.681 201.216 265.273 201.093 264.969 200.848C264.671 200.597 264.521 200.261 264.521 199.84C264.521 199.424 264.671 199.096 264.969 198.856C265.273 198.611 265.681 198.488 266.193 198.488C266.705 198.488 267.111 198.611 267.409 198.856C267.713 199.101 267.865 199.429 267.865 199.84C267.865 200.261 267.713 200.597 267.409 200.848C267.111 201.093 266.705 201.216 266.193 201.216ZM82.4451 222.776V223.584L82.5651 223.832V232.272C82.5651 232.459 82.5838 232.592 82.6211 232.672C82.6638 232.757 82.7278 232.816 82.8131 232.848L83.1171 232.928C83.2291 232.971 83.3091 233.024 83.3571 233.088C83.4051 233.157 83.4291 233.237 83.4291 233.328C83.4291 233.456 83.3891 233.555 83.3091 233.624C83.2291 233.693 83.0985 233.728 82.9171 233.728H79.4531C79.2771 233.728 79.1491 233.693 79.0691 233.624C78.9891 233.555 78.9491 233.456 78.9491 233.328C78.9491 233.237 78.9731 233.157 79.0211 233.088C79.0691 233.024 79.1491 232.971 79.2611 232.928L79.5091 232.848C79.5945 232.816 79.6558 232.757 79.6931 232.672C79.7358 232.592 79.7571 232.459 79.7571 232.272V224.328C79.7571 224.179 79.7358 224.072 79.6931 224.008C79.6505 223.944 79.5838 223.901 79.4931 223.88L79.1891 223.84C79.0878 223.808 79.0131 223.765 78.9651 223.712C78.9225 223.653 78.9011 223.579 78.9011 223.488C78.9011 223.381 78.9305 223.301 78.9891 223.248C79.0478 223.189 79.1598 223.125 79.3251 223.056L80.8611 222.432C81.0851 222.336 81.2691 222.269 81.4131 222.232C81.5571 222.195 81.6878 222.176 81.8051 222.176C82.0185 222.176 82.1785 222.232 82.2851 222.344C82.3918 222.456 82.4451 222.6 82.4451 222.776ZM82.0451 224.872L81.5891 224.376C82.0318 223.683 82.5305 223.141 83.0851 222.752C83.6398 222.357 84.2638 222.16 84.9571 222.16C85.5918 222.16 86.1571 222.323 86.6531 222.648C87.1491 222.968 87.5411 223.413 87.8291 223.984C88.1171 224.549 88.2611 225.205 88.2611 225.952C88.2611 226.811 88.0878 227.56 87.7411 228.2C87.3945 228.835 86.9225 229.328 86.3251 229.68C85.7278 230.032 85.0558 230.208 84.3091 230.208C83.6745 230.208 83.1145 230.067 82.6291 229.784C82.1491 229.501 81.7438 229.08 81.4131 228.52L82.1091 228.008C82.3598 228.397 82.6185 228.683 82.8851 228.864C83.1571 229.045 83.4531 229.136 83.7731 229.136C84.0771 229.136 84.3491 229.037 84.5891 228.84C84.8291 228.637 85.0158 228.323 85.1491 227.896C85.2825 227.469 85.3491 226.917 85.3491 226.24C85.3491 225.611 85.2825 225.099 85.1491 224.704C85.0158 224.304 84.8318 224.011 84.5971 223.824C84.3678 223.632 84.1011 223.536 83.7971 223.536C83.4611 223.536 83.1465 223.643 82.8531 223.856C82.5651 224.069 82.2958 224.408 82.0451 224.872ZM94.1184 228.952V228.776L93.9184 228.76V223.776C93.9184 223.488 93.841 223.261 93.6864 223.096C93.537 222.931 93.3317 222.848 93.0704 222.848C92.841 222.848 92.657 222.899 92.5184 223C92.385 223.101 92.3184 223.229 92.3184 223.384V224.176C92.3184 224.56 92.1877 224.856 91.9264 225.064C91.665 225.272 91.297 225.376 90.8224 225.376C90.417 225.376 90.113 225.288 89.9104 225.112C89.7077 224.931 89.6064 224.68 89.6064 224.36C89.6064 224.019 89.753 223.68 90.0464 223.344C90.345 223.003 90.7877 222.723 91.3744 222.504C91.9664 222.28 92.6997 222.168 93.5744 222.168C94.6304 222.168 95.4144 222.371 95.9264 222.776C96.4384 223.181 96.6944 223.731 96.6944 224.424V228.424C96.6944 228.547 96.721 228.645 96.7744 228.72C96.833 228.789 96.9184 228.824 97.0304 228.824C97.1317 228.824 97.209 228.797 97.2624 228.744C97.321 228.691 97.3744 228.637 97.4224 228.584C97.4544 228.547 97.4864 228.517 97.5184 228.496C97.5557 228.469 97.5984 228.456 97.6464 228.456C97.7264 228.456 97.7824 228.485 97.8144 228.544C97.8517 228.597 97.8704 228.667 97.8704 228.752C97.8704 228.96 97.7957 229.176 97.6464 229.4C97.5024 229.624 97.2837 229.816 96.9904 229.976C96.697 230.131 96.3317 230.208 95.8944 230.208C95.361 230.208 94.9317 230.093 94.6064 229.864C94.281 229.629 94.1184 229.325 94.1184 228.952ZM89.2944 228.312C89.2944 227.619 89.6064 227.064 90.2304 226.648C90.8544 226.232 91.7317 226.024 92.8624 226.024C93.193 226.024 93.4864 226.051 93.7424 226.104C93.9984 226.152 94.2144 226.221 94.3904 226.312L94.1664 226.904C94.017 226.829 93.8704 226.773 93.7264 226.736C93.5877 226.693 93.433 226.672 93.2624 226.672C92.9104 226.672 92.633 226.773 92.4304 226.976C92.233 227.179 92.1344 227.464 92.1344 227.832C92.1344 228.205 92.225 228.491 92.4064 228.688C92.5877 228.885 92.8224 228.984 93.1104 228.984C93.329 228.984 93.537 228.933 93.7344 228.832C93.937 228.725 94.1024 228.592 94.2304 228.432L94.4064 228.968C94.1344 229.363 93.753 229.669 93.2624 229.888C92.777 230.101 92.257 230.208 91.7024 230.208C90.9824 230.208 90.401 230.032 89.9584 229.68C89.5157 229.323 89.2944 228.867 89.2944 228.312ZM101.848 225.696C101.848 224.907 101.955 224.251 102.168 223.728C102.387 223.2 102.675 222.808 103.032 222.552C103.39 222.291 103.774 222.16 104.184 222.16C104.718 222.16 105.128 222.317 105.416 222.632C105.704 222.941 105.848 223.4 105.848 224.008C105.848 224.595 105.728 225.029 105.488 225.312C105.254 225.595 104.944 225.736 104.56 225.736C104.176 225.736 103.886 225.635 103.688 225.432C103.496 225.229 103.4 224.949 103.4 224.592V224.28C103.395 224.131 103.36 224.019 103.296 223.944C103.232 223.864 103.128 223.824 102.984 223.824C102.835 223.824 102.696 223.885 102.568 224.008C102.44 224.131 102.336 224.325 102.256 224.592C102.182 224.853 102.144 225.195 102.144 225.616L101.848 225.696ZM101.976 222.784L102.144 224.544V228.544C102.144 228.709 102.171 228.829 102.224 228.904C102.283 228.979 102.4 229.032 102.576 229.064L103.224 229.176C103.363 229.203 103.464 229.251 103.528 229.32C103.598 229.384 103.632 229.477 103.632 229.6C103.632 229.723 103.587 229.821 103.496 229.896C103.411 229.965 103.283 230 103.112 230H99.0324C98.8564 230 98.7284 229.965 98.6484 229.896C98.5684 229.821 98.5284 229.723 98.5284 229.6C98.5284 229.509 98.5524 229.432 98.6004 229.368C98.6484 229.299 98.7284 229.243 98.8404 229.2L99.0884 229.12C99.1737 229.088 99.235 229.032 99.2724 228.952C99.315 228.867 99.3364 228.731 99.3364 228.544V224.352C99.3364 224.203 99.315 224.096 99.2724 224.032C99.2297 223.968 99.163 223.925 99.0724 223.904L98.7684 223.856C98.667 223.829 98.5924 223.789 98.5444 223.736C98.5017 223.677 98.4804 223.603 98.4804 223.512C98.4804 223.405 98.5097 223.32 98.5684 223.256C98.6324 223.192 98.7444 223.131 98.9044 223.072L100.52 222.472C100.835 222.349 101.062 222.269 101.2 222.232C101.339 222.195 101.448 222.176 101.528 222.176C101.662 222.176 101.76 222.224 101.824 222.32C101.894 222.411 101.944 222.565 101.976 222.784ZM111.447 228.952V228.776L111.247 228.76V223.776C111.247 223.488 111.169 223.261 111.015 223.096C110.865 222.931 110.66 222.848 110.399 222.848C110.169 222.848 109.985 222.899 109.847 223C109.713 223.101 109.647 223.229 109.647 223.384V224.176C109.647 224.56 109.516 224.856 109.255 225.064C108.993 225.272 108.625 225.376 108.151 225.376C107.745 225.376 107.441 225.288 107.238 225.112C107.036 224.931 106.935 224.68 106.935 224.36C106.935 224.019 107.081 223.68 107.375 223.344C107.673 223.003 108.116 222.723 108.703 222.504C109.295 222.28 110.028 222.168 110.903 222.168C111.959 222.168 112.743 222.371 113.255 222.776C113.767 223.181 114.023 223.731 114.023 224.424V228.424C114.023 228.547 114.049 228.645 114.102 228.72C114.161 228.789 114.247 228.824 114.359 228.824C114.46 228.824 114.537 228.797 114.591 228.744C114.649 228.691 114.703 228.637 114.751 228.584C114.783 228.547 114.815 228.517 114.847 228.496C114.884 228.469 114.927 228.456 114.975 228.456C115.055 228.456 115.111 228.485 115.143 228.544C115.18 228.597 115.199 228.667 115.199 228.752C115.199 228.96 115.124 229.176 114.975 229.4C114.831 229.624 114.612 229.816 114.319 229.976C114.025 230.131 113.66 230.208 113.223 230.208C112.689 230.208 112.26 230.093 111.935 229.864C111.609 229.629 111.447 229.325 111.447 228.952ZM106.623 228.312C106.623 227.619 106.935 227.064 107.559 226.648C108.183 226.232 109.06 226.024 110.191 226.024C110.521 226.024 110.815 226.051 111.071 226.104C111.327 226.152 111.543 226.221 111.719 226.312L111.495 226.904C111.345 226.829 111.199 226.773 111.055 226.736C110.916 226.693 110.761 226.672 110.591 226.672C110.239 226.672 109.961 226.773 109.759 226.976C109.561 227.179 109.463 227.464 109.463 227.832C109.463 228.205 109.553 228.491 109.735 228.688C109.916 228.885 110.151 228.984 110.439 228.984C110.657 228.984 110.865 228.933 111.062 228.832C111.265 228.725 111.431 228.592 111.559 228.432L111.735 228.968C111.463 229.363 111.081 229.669 110.591 229.888C110.105 230.101 109.585 230.208 109.031 230.208C108.311 230.208 107.729 230.032 107.287 229.68C106.844 229.323 106.623 228.867 106.623 228.312ZM124.056 228.952V228.776L123.856 228.76V223.776C123.856 223.488 123.779 223.261 123.624 223.096C123.475 222.931 123.269 222.848 123.008 222.848C122.779 222.848 122.595 222.899 122.456 223C122.323 223.101 122.256 223.229 122.256 223.384V224.176C122.256 224.56 122.125 224.856 121.864 225.064C121.603 225.272 121.235 225.376 120.76 225.376C120.355 225.376 120.051 225.288 119.848 225.112C119.645 224.931 119.544 224.68 119.544 224.36C119.544 224.019 119.691 223.68 119.984 223.344C120.283 223.003 120.725 222.723 121.312 222.504C121.904 222.28 122.637 222.168 123.512 222.168C124.568 222.168 125.352 222.371 125.864 222.776C126.376 223.181 126.632 223.731 126.632 224.424V228.424C126.632 228.547 126.659 228.645 126.712 228.72C126.771 228.789 126.856 228.824 126.968 228.824C127.069 228.824 127.147 228.797 127.2 228.744C127.259 228.691 127.312 228.637 127.36 228.584C127.392 228.547 127.424 228.517 127.456 228.496C127.493 228.469 127.536 228.456 127.584 228.456C127.664 228.456 127.72 228.485 127.752 228.544C127.789 228.597 127.808 228.667 127.808 228.752C127.808 228.96 127.733 229.176 127.584 229.4C127.44 229.624 127.221 229.816 126.928 229.976C126.635 230.131 126.269 230.208 125.832 230.208C125.299 230.208 124.869 230.093 124.544 229.864C124.219 229.629 124.056 229.325 124.056 228.952ZM119.232 228.312C119.232 227.619 119.544 227.064 120.168 226.648C120.792 226.232 121.669 226.024 122.8 226.024C123.131 226.024 123.424 226.051 123.68 226.104C123.936 226.152 124.152 226.221 124.328 226.312L124.104 226.904C123.955 226.829 123.808 226.773 123.664 226.736C123.525 226.693 123.371 226.672 123.2 226.672C122.848 226.672 122.571 226.773 122.368 226.976C122.171 227.179 122.072 227.464 122.072 227.832C122.072 228.205 122.163 228.491 122.344 228.688C122.525 228.885 122.76 228.984 123.048 228.984C123.267 228.984 123.475 228.933 123.672 228.832C123.875 228.725 124.04 228.592 124.168 228.432L124.344 228.968C124.072 229.363 123.691 229.669 123.2 229.888C122.715 230.101 122.195 230.208 121.64 230.208C120.92 230.208 120.339 230.032 119.896 229.68C119.453 229.323 119.232 228.867 119.232 228.312ZM135.273 223.008C134.932 223.008 134.671 223.088 134.489 223.248C134.308 223.408 134.217 223.605 134.217 223.84C134.217 223.984 134.247 224.117 134.305 224.24C134.369 224.363 134.495 224.475 134.681 224.576C134.873 224.672 135.159 224.76 135.537 224.84C136.439 225.011 137.129 225.229 137.609 225.496C138.089 225.757 138.42 226.067 138.601 226.424C138.783 226.776 138.873 227.173 138.873 227.616C138.873 228.416 138.591 229.048 138.025 229.512C137.465 229.976 136.644 230.208 135.561 230.208C135.183 230.208 134.876 230.176 134.641 230.112C134.412 230.053 134.225 229.995 134.081 229.936C133.937 229.872 133.809 229.84 133.697 229.84C133.575 229.84 133.473 229.872 133.393 229.936C133.313 229.995 133.233 230.053 133.153 230.112C133.079 230.176 132.983 230.208 132.865 230.208C132.759 230.208 132.676 230.176 132.617 230.112C132.559 230.048 132.505 229.933 132.457 229.768L131.985 228.232C131.916 228.003 131.895 227.819 131.921 227.68C131.953 227.541 132.039 227.445 132.177 227.392C132.321 227.339 132.447 227.339 132.553 227.392C132.66 227.44 132.761 227.539 132.857 227.688C133.103 228.077 133.359 228.397 133.625 228.648C133.897 228.893 134.18 229.075 134.473 229.192C134.772 229.304 135.079 229.36 135.393 229.36C135.799 229.36 136.103 229.28 136.305 229.12C136.508 228.955 136.609 228.739 136.609 228.472C136.609 228.307 136.567 228.163 136.481 228.04C136.396 227.912 136.233 227.795 135.993 227.688C135.753 227.581 135.396 227.48 134.921 227.384C134.196 227.24 133.617 227.045 133.185 226.8C132.753 226.549 132.444 226.245 132.257 225.888C132.076 225.531 131.985 225.115 131.985 224.64C131.985 224.139 132.116 223.704 132.377 223.336C132.639 222.963 133.001 222.675 133.465 222.472C133.929 222.264 134.46 222.16 135.057 222.16C135.447 222.16 135.756 222.192 135.985 222.256C136.22 222.32 136.409 222.387 136.553 222.456C136.703 222.52 136.841 222.552 136.969 222.552C137.103 222.552 137.212 222.52 137.297 222.456C137.388 222.387 137.476 222.32 137.561 222.256C137.647 222.192 137.745 222.16 137.857 222.16C137.959 222.16 138.041 222.195 138.105 222.264C138.175 222.333 138.223 222.453 138.249 222.624L138.569 224.088C138.612 224.317 138.617 224.493 138.585 224.616C138.559 224.739 138.479 224.827 138.345 224.88C138.207 224.939 138.084 224.936 137.977 224.872C137.871 224.808 137.761 224.693 137.649 224.528C137.297 223.968 136.913 223.576 136.497 223.352C136.087 223.123 135.679 223.008 135.273 223.008ZM144.79 228.952V228.776L144.59 228.76V223.776C144.59 223.488 144.513 223.261 144.358 223.096C144.209 222.931 144.004 222.848 143.742 222.848C143.513 222.848 143.329 222.899 143.19 223C143.057 223.101 142.99 223.229 142.99 223.384V224.176C142.99 224.56 142.86 224.856 142.598 225.064C142.337 225.272 141.969 225.376 141.494 225.376C141.089 225.376 140.785 225.288 140.582 225.112C140.38 224.931 140.278 224.68 140.278 224.36C140.278 224.019 140.425 223.68 140.718 223.344C141.017 223.003 141.46 222.723 142.046 222.504C142.638 222.28 143.372 222.168 144.246 222.168C145.302 222.168 146.086 222.371 146.598 222.776C147.11 223.181 147.366 223.731 147.366 224.424V228.424C147.366 228.547 147.393 228.645 147.446 228.72C147.505 228.789 147.59 228.824 147.702 228.824C147.804 228.824 147.881 228.797 147.934 228.744C147.993 228.691 148.046 228.637 148.094 228.584C148.126 228.547 148.158 228.517 148.19 228.496C148.228 228.469 148.27 228.456 148.318 228.456C148.398 228.456 148.454 228.485 148.486 228.544C148.524 228.597 148.542 228.667 148.542 228.752C148.542 228.96 148.468 229.176 148.318 229.4C148.174 229.624 147.956 229.816 147.662 229.976C147.369 230.131 147.004 230.208 146.566 230.208C146.033 230.208 145.604 230.093 145.278 229.864C144.953 229.629 144.79 229.325 144.79 228.952ZM139.966 228.312C139.966 227.619 140.278 227.064 140.902 226.648C141.526 226.232 142.404 226.024 143.534 226.024C143.865 226.024 144.158 226.051 144.414 226.104C144.67 226.152 144.886 226.221 145.062 226.312L144.838 226.904C144.689 226.829 144.542 226.773 144.398 226.736C144.26 226.693 144.105 226.672 143.934 226.672C143.582 226.672 143.305 226.773 143.102 226.976C142.905 227.179 142.806 227.464 142.806 227.832C142.806 228.205 142.897 228.491 143.078 228.688C143.26 228.885 143.494 228.984 143.782 228.984C144.001 228.984 144.209 228.933 144.406 228.832C144.609 228.725 144.774 228.592 144.902 228.432L145.078 228.968C144.806 229.363 144.425 229.669 143.934 229.888C143.449 230.101 142.929 230.208 142.374 230.208C141.654 230.208 141.073 230.032 140.63 229.68C140.188 229.323 139.966 228.867 139.966 228.312ZM155.016 228.64V228.368L154.92 228.352V224.336C154.92 224.181 154.899 224.072 154.856 224.008C154.814 223.944 154.747 223.901 154.656 223.88L154.352 223.84C154.251 223.813 154.176 223.771 154.128 223.712C154.086 223.653 154.064 223.579 154.064 223.488C154.064 223.387 154.094 223.304 154.152 223.24C154.211 223.176 154.323 223.112 154.488 223.048L156.152 222.432C156.382 222.341 156.568 222.277 156.712 222.24C156.856 222.197 156.992 222.176 157.12 222.176C157.323 222.176 157.475 222.232 157.576 222.344C157.678 222.456 157.728 222.603 157.728 222.784V228.544C157.728 228.731 157.747 228.867 157.784 228.952C157.827 229.032 157.891 229.088 157.976 229.12L158.224 229.2C158.336 229.243 158.416 229.299 158.464 229.368C158.512 229.432 158.536 229.509 158.536 229.6C158.536 229.723 158.496 229.821 158.416 229.896C158.336 229.965 158.206 230 158.024 230H156.216C155.891 230 155.608 229.869 155.368 229.608C155.134 229.341 155.016 229.019 155.016 228.64ZM149.824 227.736V224.336C149.824 224.181 149.803 224.072 149.76 224.008C149.718 223.944 149.651 223.901 149.56 223.88L149.264 223.84C149.158 223.813 149.08 223.771 149.032 223.712C148.99 223.653 148.968 223.579 148.968 223.488C148.968 223.387 148.998 223.304 149.056 223.24C149.12 223.176 149.232 223.112 149.392 223.048L151.056 222.432C151.296 222.341 151.486 222.277 151.624 222.24C151.768 222.197 151.894 222.176 152 222.176C152.214 222.176 152.374 222.232 152.48 222.344C152.587 222.456 152.64 222.603 152.64 222.784V227.336C152.64 227.736 152.734 228.037 152.92 228.24C153.112 228.443 153.374 228.544 153.704 228.544C153.912 228.544 154.128 228.499 154.352 228.408C154.582 228.317 154.806 228.179 155.024 227.992L155.32 227.728L155.736 228.16L155.456 228.416C154.752 229.077 154.136 229.541 153.608 229.808C153.08 230.075 152.59 230.208 152.136 230.208C151.448 230.208 150.891 229.981 150.464 229.528C150.038 229.075 149.824 228.477 149.824 227.736ZM153.936 219.48C154.112 219.08 154.315 218.768 154.544 218.544C154.774 218.32 155.07 218.232 155.432 218.28C155.752 218.312 155.992 218.443 156.152 218.672C156.312 218.901 156.376 219.141 156.344 219.392C156.307 219.669 156.198 219.907 156.016 220.104C155.835 220.301 155.576 220.491 155.24 220.672L153.816 221.584C153.72 221.627 153.622 221.648 153.52 221.648C153.419 221.643 153.336 221.611 153.272 221.552C153.198 221.483 153.168 221.408 153.184 221.328C153.2 221.243 153.232 221.155 153.28 221.064L153.936 219.48ZM165.311 228.64L165.223 228.616V220.168C165.223 220.019 165.202 219.912 165.159 219.848C165.116 219.779 165.05 219.736 164.959 219.72L164.655 219.672C164.554 219.645 164.479 219.603 164.431 219.544C164.383 219.485 164.359 219.413 164.359 219.328C164.359 219.221 164.388 219.136 164.447 219.072C164.511 219.008 164.623 218.947 164.783 218.888L166.447 218.264C166.676 218.179 166.863 218.117 167.007 218.08C167.151 218.037 167.29 218.016 167.423 218.016C167.62 218.016 167.77 218.072 167.871 218.184C167.978 218.296 168.031 218.44 168.031 218.616V228.544C168.031 228.731 168.05 228.867 168.087 228.952C168.124 229.032 168.188 229.088 168.279 229.12L168.519 229.2C168.631 229.243 168.711 229.299 168.759 229.368C168.812 229.432 168.839 229.509 168.839 229.6C168.839 229.723 168.796 229.821 168.711 229.896C168.631 229.965 168.503 230 168.327 230H166.455C166.14 230 165.871 229.893 165.647 229.68C165.423 229.467 165.311 229.2 165.311 228.88V228.64ZM159.519 226.416C159.519 225.557 159.692 224.811 160.039 224.176C160.391 223.536 160.866 223.04 161.463 222.688C162.06 222.336 162.732 222.16 163.479 222.16C164.119 222.16 164.679 222.301 165.159 222.584C165.639 222.867 166.044 223.288 166.375 223.848L165.679 224.36C165.428 223.971 165.167 223.685 164.895 223.504C164.623 223.323 164.33 223.232 164.015 223.232C163.706 223.232 163.431 223.333 163.191 223.536C162.956 223.733 162.77 224.045 162.631 224.472C162.498 224.893 162.431 225.445 162.431 226.128C162.431 226.752 162.498 227.264 162.631 227.664C162.77 228.064 162.956 228.36 163.191 228.552C163.426 228.739 163.69 228.832 163.983 228.832C164.324 228.832 164.639 228.725 164.927 228.512C165.22 228.293 165.49 227.955 165.735 227.496L166.191 227.984C165.759 228.677 165.263 229.221 164.703 229.616C164.148 230.011 163.522 230.208 162.823 230.208C162.194 230.208 161.628 230.048 161.127 229.728C160.631 229.403 160.239 228.957 159.951 228.392C159.663 227.821 159.519 227.163 159.519 226.416ZM177.506 225.224C177.506 225.544 177.415 225.792 177.234 225.968C177.058 226.144 176.802 226.232 176.466 226.232H171.594V225.52H174.298C174.575 225.52 174.714 225.392 174.714 225.136C174.714 224.437 174.61 223.925 174.402 223.6C174.199 223.269 173.927 223.104 173.586 223.104C173.324 223.104 173.092 223.189 172.89 223.36C172.692 223.531 172.535 223.784 172.418 224.12C172.3 224.451 172.242 224.859 172.242 225.344C172.242 226.352 172.471 227.099 172.93 227.584C173.394 228.064 174.015 228.304 174.794 228.304C175.21 228.304 175.58 228.235 175.906 228.096C176.231 227.957 176.508 227.739 176.738 227.44C176.86 227.323 176.954 227.243 177.018 227.2C177.087 227.157 177.154 227.136 177.218 227.136C177.308 227.136 177.375 227.181 177.418 227.272C177.466 227.357 177.49 227.464 177.49 227.592C177.474 228.061 177.311 228.496 177.002 228.896C176.692 229.291 176.268 229.608 175.73 229.848C175.191 230.088 174.567 230.208 173.858 230.208C173.068 230.208 172.362 230.048 171.738 229.728C171.119 229.408 170.631 228.963 170.274 228.392C169.916 227.816 169.738 227.144 169.738 226.376C169.738 225.539 169.903 224.805 170.234 224.176C170.57 223.541 171.052 223.048 171.682 222.696C172.316 222.339 173.076 222.16 173.962 222.16C174.724 222.16 175.37 222.291 175.898 222.552C176.426 222.813 176.826 223.176 177.098 223.64C177.37 224.099 177.506 224.627 177.506 225.224ZM185.504 222.776V228.544C185.504 228.731 185.522 228.864 185.56 228.944C185.602 229.024 185.666 229.083 185.752 229.12L185.984 229.208C186.154 229.288 186.24 229.411 186.24 229.576C186.24 229.859 186.066 230 185.72 230H182.392C182.216 230 182.088 229.965 182.008 229.896C181.928 229.821 181.888 229.723 181.888 229.6C181.888 229.509 181.912 229.432 181.96 229.368C182.008 229.299 182.088 229.243 182.2 229.2L182.448 229.12C182.533 229.088 182.594 229.032 182.632 228.952C182.674 228.867 182.696 228.731 182.696 228.544V224.328C182.696 224.179 182.674 224.072 182.632 224.008C182.589 223.944 182.522 223.901 182.432 223.88L182.128 223.84C182.026 223.808 181.952 223.765 181.904 223.712C181.861 223.653 181.84 223.579 181.84 223.488C181.84 223.381 181.869 223.299 181.928 223.24C181.986 223.176 182.098 223.112 182.264 223.048L183.92 222.432C184.154 222.341 184.341 222.277 184.48 222.24C184.624 222.197 184.762 222.176 184.896 222.176C185.093 222.176 185.242 222.232 185.344 222.344C185.45 222.456 185.504 222.6 185.504 222.776ZM185.24 224.64L184.824 224.208L185.104 223.952C185.813 223.285 186.426 222.821 186.944 222.56C187.461 222.293 187.946 222.16 188.4 222.16C189.093 222.16 189.648 222.387 190.064 222.84C190.48 223.288 190.688 223.885 190.688 224.632V228.536C190.688 228.723 190.706 228.859 190.744 228.944C190.786 229.024 190.853 229.083 190.944 229.12L191.168 229.208C191.333 229.293 191.416 229.416 191.416 229.576C191.416 229.859 191.245 230 190.904 230H187.656C187.309 230 187.136 229.859 187.136 229.576C187.136 229.411 187.221 229.288 187.392 229.208L187.624 229.12C187.714 229.083 187.778 229.024 187.816 228.944C187.858 228.859 187.88 228.723 187.88 228.536V225.032C187.88 224.627 187.786 224.325 187.6 224.128C187.418 223.925 187.162 223.824 186.832 223.824C186.624 223.824 186.41 223.869 186.192 223.96C185.973 224.051 185.754 224.189 185.536 224.376L185.24 224.64ZM190.416 224.64L190.008 224.208L190.28 223.952C190.994 223.285 191.61 222.821 192.128 222.56C192.645 222.293 193.128 222.16 193.576 222.16C194.274 222.16 194.832 222.387 195.248 222.84C195.664 223.288 195.872 223.885 195.872 224.632V228.536C195.872 228.723 195.89 228.859 195.928 228.944C195.97 229.029 196.037 229.088 196.128 229.12L196.36 229.2C196.472 229.243 196.552 229.299 196.6 229.368C196.648 229.432 196.672 229.509 196.672 229.6C196.672 229.723 196.632 229.821 196.552 229.896C196.472 229.965 196.344 230 196.168 230H192.84C192.493 230 192.32 229.859 192.32 229.576C192.32 229.411 192.402 229.288 192.568 229.208L192.808 229.12C192.898 229.083 192.962 229.024 193 228.944C193.037 228.859 193.056 228.723 193.056 228.536V225.032C193.056 224.627 192.965 224.325 192.784 224.128C192.602 223.925 192.346 223.824 192.016 223.824C191.808 223.824 191.594 223.869 191.376 223.96C191.157 224.051 190.938 224.189 190.72 224.376L190.416 224.64ZM205.287 225.224C205.287 225.544 205.196 225.792 205.015 225.968C204.839 226.144 204.583 226.232 204.247 226.232H199.375V225.52H202.079C202.356 225.52 202.495 225.392 202.495 225.136C202.495 224.437 202.391 223.925 202.183 223.6C201.98 223.269 201.708 223.104 201.367 223.104C201.106 223.104 200.874 223.189 200.671 223.36C200.474 223.531 200.316 223.784 200.199 224.12C200.082 224.451 200.023 224.859 200.023 225.344C200.023 226.352 200.252 227.099 200.711 227.584C201.175 228.064 201.796 228.304 202.575 228.304C202.991 228.304 203.362 228.235 203.687 228.096C204.012 227.957 204.29 227.739 204.519 227.44C204.642 227.323 204.735 227.243 204.799 227.2C204.868 227.157 204.935 227.136 204.999 227.136C205.09 227.136 205.156 227.181 205.199 227.272C205.247 227.357 205.271 227.464 205.271 227.592C205.255 228.061 205.092 228.496 204.783 228.896C204.474 229.291 204.05 229.608 203.511 229.848C202.972 230.088 202.348 230.208 201.639 230.208C200.85 230.208 200.143 230.048 199.519 229.728C198.9 229.408 198.412 228.963 198.055 228.392C197.698 227.816 197.519 227.144 197.519 226.376C197.519 225.539 197.684 224.805 198.015 224.176C198.351 223.541 198.834 223.048 199.463 222.696C200.098 222.339 200.858 222.16 201.743 222.16C202.506 222.16 203.151 222.291 203.679 222.552C204.207 222.813 204.607 223.176 204.879 223.64C205.151 224.099 205.287 224.627 205.287 225.224ZM209.926 222.776V228.544C209.926 228.731 209.944 228.864 209.982 228.944C210.024 229.024 210.088 229.083 210.174 229.12L210.406 229.208C210.576 229.288 210.662 229.411 210.662 229.576C210.662 229.859 210.488 230 210.142 230H206.814C206.638 230 206.51 229.965 206.43 229.896C206.35 229.821 206.31 229.723 206.31 229.6C206.31 229.509 206.334 229.432 206.382 229.368C206.43 229.299 206.51 229.243 206.622 229.2L206.87 229.12C206.955 229.088 207.016 229.032 207.054 228.952C207.096 228.867 207.118 228.731 207.118 228.544V224.328C207.118 224.179 207.096 224.072 207.054 224.008C207.011 223.944 206.944 223.901 206.854 223.88L206.55 223.84C206.448 223.808 206.374 223.765 206.326 223.712C206.283 223.653 206.262 223.579 206.262 223.488C206.262 223.381 206.291 223.299 206.35 223.24C206.408 223.176 206.52 223.112 206.686 223.048L208.342 222.432C208.576 222.341 208.763 222.277 208.902 222.24C209.046 222.197 209.184 222.176 209.318 222.176C209.515 222.176 209.664 222.232 209.766 222.344C209.872 222.456 209.926 222.6 209.926 222.776ZM209.662 224.64L209.246 224.208L209.526 223.952C210.235 223.285 210.854 222.821 211.382 222.56C211.91 222.293 212.4 222.16 212.854 222.16C213.547 222.16 214.107 222.387 214.534 222.84C214.96 223.288 215.174 223.885 215.174 224.632V228.536C215.174 228.723 215.192 228.859 215.23 228.944C215.272 229.029 215.339 229.088 215.43 229.12L215.662 229.2C215.774 229.243 215.854 229.299 215.902 229.368C215.95 229.432 215.974 229.509 215.974 229.6C215.974 229.723 215.934 229.821 215.854 229.896C215.774 229.965 215.646 230 215.47 230H212.142C211.795 230 211.622 229.859 211.622 229.576C211.622 229.411 211.704 229.288 211.87 229.208L212.11 229.12C212.2 229.083 212.264 229.024 212.302 228.944C212.344 228.859 212.366 228.723 212.366 228.536V225.032C212.366 224.627 212.267 224.325 212.07 224.128C211.878 223.925 211.616 223.824 211.286 223.824C211.078 223.824 210.859 223.869 210.63 223.96C210.4 224.051 210.179 224.189 209.966 224.376L209.662 224.64ZM217.232 223.264L216.904 223.152C216.786 223.109 216.698 223.056 216.64 222.992C216.586 222.928 216.56 222.851 216.56 222.76C216.56 222.637 216.602 222.541 216.688 222.472C216.778 222.403 216.893 222.368 217.032 222.368H217.504C217.616 222.368 217.714 222.344 217.8 222.296C217.885 222.248 217.984 222.16 218.096 222.032L219.208 220.752C219.346 220.597 219.477 220.483 219.6 220.408C219.728 220.333 219.85 220.296 219.968 220.296C220.096 220.296 220.197 220.339 220.272 220.424C220.346 220.509 220.384 220.632 220.384 220.792V227.416C220.384 227.8 220.453 228.093 220.592 228.296C220.736 228.493 220.936 228.592 221.192 228.592C221.389 228.592 221.541 228.549 221.648 228.464C221.76 228.373 221.848 228.272 221.912 228.16C221.976 228.043 222.042 227.939 222.112 227.848C222.181 227.757 222.272 227.709 222.384 227.704C222.474 227.704 222.546 227.736 222.6 227.8C222.653 227.859 222.68 227.963 222.68 228.112C222.674 228.496 222.557 228.845 222.328 229.16C222.104 229.475 221.792 229.725 221.392 229.912C220.997 230.099 220.544 230.192 220.032 230.192C219.258 230.192 218.656 230.003 218.224 229.624C217.792 229.245 217.576 228.672 217.576 227.904V223.752C217.576 223.608 217.549 223.504 217.496 223.44C217.442 223.371 217.354 223.312 217.232 223.264ZM219.36 223.312L219.368 222.368H222.144C222.288 222.368 222.4 222.4 222.48 222.464C222.565 222.523 222.608 222.608 222.608 222.72C222.608 222.885 222.525 223.027 222.36 223.144C222.194 223.256 221.925 223.312 221.552 223.312H219.36ZM228.337 228.952V228.776L228.137 228.76V223.776C228.137 223.488 228.06 223.261 227.905 223.096C227.756 222.931 227.55 222.848 227.289 222.848C227.06 222.848 226.876 222.899 226.737 223C226.604 223.101 226.537 223.229 226.537 223.384V224.176C226.537 224.56 226.406 224.856 226.145 225.064C225.884 225.272 225.516 225.376 225.041 225.376C224.636 225.376 224.332 225.288 224.129 225.112C223.926 224.931 223.825 224.68 223.825 224.36C223.825 224.019 223.972 223.68 224.265 223.344C224.564 223.003 225.006 222.723 225.593 222.504C226.185 222.28 226.918 222.168 227.793 222.168C228.849 222.168 229.633 222.371 230.145 222.776C230.657 223.181 230.913 223.731 230.913 224.424V228.424C230.913 228.547 230.94 228.645 230.993 228.72C231.052 228.789 231.137 228.824 231.249 228.824C231.35 228.824 231.428 228.797 231.481 228.744C231.54 228.691 231.593 228.637 231.641 228.584C231.673 228.547 231.705 228.517 231.737 228.496C231.774 228.469 231.817 228.456 231.865 228.456C231.945 228.456 232.001 228.485 232.033 228.544C232.07 228.597 232.089 228.667 232.089 228.752C232.089 228.96 232.014 229.176 231.865 229.4C231.721 229.624 231.502 229.816 231.209 229.976C230.916 230.131 230.55 230.208 230.113 230.208C229.58 230.208 229.15 230.093 228.825 229.864C228.5 229.629 228.337 229.325 228.337 228.952ZM223.513 228.312C223.513 227.619 223.825 227.064 224.449 226.648C225.073 226.232 225.95 226.024 227.081 226.024C227.412 226.024 227.705 226.051 227.961 226.104C228.217 226.152 228.433 226.221 228.609 226.312L228.385 226.904C228.236 226.829 228.089 226.773 227.945 226.736C227.806 226.693 227.652 226.672 227.481 226.672C227.129 226.672 226.852 226.773 226.649 226.976C226.452 227.179 226.353 227.464 226.353 227.832C226.353 228.205 226.444 228.491 226.625 228.688C226.806 228.885 227.041 228.984 227.329 228.984C227.548 228.984 227.756 228.933 227.953 228.832C228.156 228.725 228.321 228.592 228.449 228.432L228.625 228.968C228.353 229.363 227.972 229.669 227.481 229.888C226.996 230.101 226.476 230.208 225.921 230.208C225.201 230.208 224.62 230.032 224.177 229.68C223.734 229.323 223.513 228.867 223.513 228.312ZM236.363 218.616V228.544C236.363 228.731 236.382 228.867 236.419 228.952C236.462 229.032 236.528 229.088 236.619 229.12L236.859 229.2C236.971 229.243 237.051 229.299 237.099 229.368C237.147 229.432 237.171 229.509 237.171 229.6C237.171 229.723 237.131 229.821 237.051 229.896C236.971 229.965 236.84 230 236.659 230H233.259C233.078 230 232.947 229.965 232.867 229.896C232.787 229.821 232.747 229.723 232.747 229.6C232.747 229.509 232.771 229.432 232.819 229.368C232.867 229.299 232.947 229.243 233.059 229.2L233.307 229.12C233.398 229.088 233.462 229.032 233.499 228.952C233.536 228.867 233.555 228.731 233.555 228.544V220.168C233.555 220.019 233.534 219.912 233.491 219.848C233.448 219.779 233.382 219.736 233.291 219.72L232.995 219.672C232.888 219.645 232.811 219.603 232.763 219.544C232.72 219.485 232.699 219.413 232.699 219.328C232.699 219.221 232.728 219.136 232.787 219.072C232.846 219.008 232.958 218.947 233.123 218.888L234.787 218.264C235.027 218.173 235.216 218.109 235.355 218.072C235.499 218.035 235.624 218.016 235.731 218.016C235.944 218.016 236.102 218.072 236.203 218.184C236.31 218.296 236.363 218.44 236.363 218.616Z" fill="white"/>
<path d="M127.6 100.496V96.336L133.872 93.136H138.864C139.504 93.136 139.824 93.456 139.824 94.096V170H133.488V99.472C133.488 98.832 133.232 98.64 132.656 98.96L128.496 101.008C127.92 101.328 127.6 101.136 127.6 100.496ZM143.358 186L156.67 93.136H162.942L149.566 186H143.358ZM175.883 119.248H170.059V114.448L177.739 98.704H166.859V93.2H184.203V98.256L176.203 114.448H177.803C182.155 114.448 185.035 117.392 185.035 121.872V162.512C185.035 166.992 182.155 170 177.803 170H173.451L166.347 160.08V125.2C166.347 124.56 166.667 124.24 167.307 124.24H172.619V162.256L174.603 165.2H175.883C177.803 165.2 178.763 164.24 178.763 162.256V122.128C178.763 120.208 177.803 119.248 175.883 119.248Z" fill="white"/>
<path d="M129.881 82V54.7H132.429V57.482H132.611C132.975 55.948 133.781 54.44 135.341 54.44C136.485 54.44 137.473 55.246 137.473 57.482H137.629C138.019 55.948 138.825 54.44 140.359 54.44C141.529 54.44 142.491 55.246 142.491 57.482V82H139.943V58.99C139.943 57.482 139.397 56.962 138.851 56.962C137.837 56.962 137.551 58.886 137.473 60.472V82H134.899V58.99C134.899 57.482 134.353 56.962 133.833 56.962C132.793 56.962 132.507 58.886 132.429 60.472V82H129.881ZM143.514 57.274V54.7H148.194C149.936 54.7 151.106 55.87 151.106 57.612V82H148.558V79.244H148.376C148.012 80.778 147.466 82.286 145.88 82.286C144.736 82.286 143.67 81.48 143.67 79.244V63.202L147.674 59.042L148.558 58.756V57.456C148.558 56.754 148.09 56.364 147.414 56.468L143.878 57.56C143.644 57.638 143.514 57.508 143.514 57.274ZM148.558 60.342L146.088 62.812V77.736C146.088 79.218 146.582 79.764 147.18 79.764C148.246 79.764 148.48 77.84 148.558 76.254V60.342ZM152.25 53.27V51.164C152.25 50.93 152.354 50.8 152.588 50.8H154.46C154.694 50.8 154.798 50.93 154.798 51.164V53.27C154.798 53.504 154.694 53.634 154.46 53.634H152.588C152.354 53.634 152.25 53.504 152.25 53.27ZM152.25 82V54.7H154.798V82H152.25ZM163.211 57.56L159.727 56.494C159.051 56.364 158.583 56.754 158.583 57.456V58.678L163.471 62.76C163.471 63.332 163.471 78.464 163.471 78.724C163.471 81.35 162.405 82.286 161.235 82.286C159.675 82.286 159.103 80.778 158.739 79.244H158.583C158.583 79.296 158.583 81.922 158.583 82H155.905V62.994C155.905 62.76 156.061 62.604 156.295 62.604H158.583C158.583 62.968 158.583 75.942 158.583 76.254C158.661 77.84 158.869 79.764 159.935 79.764C160.533 79.764 161.053 79.114 161.053 77.268V63.592L156.893 59.926C156.191 59.51 155.905 58.886 155.905 57.95V57.222C155.905 55.766 157.075 54.7 158.817 54.7H163.575V57.274C163.575 57.508 163.419 57.638 163.211 57.56ZM177.41 50.8V82H174.862V79.218H174.706C174.29 80.752 173.51 82.26 171.95 82.26C170.78 82.26 169.844 81.454 169.844 79.218V58.392L172.704 54.7H174.862V50.8H177.41ZM174.862 76.28V56.572H173.198L172.392 57.534V77.71C172.392 79.218 172.938 79.738 173.458 79.738C174.472 79.738 174.758 77.84 174.862 76.28ZM186.197 79.556V82H181.491C179.749 82 178.579 80.986 178.579 79.218V57.612C178.579 55.87 179.801 54.7 181.569 54.7H183.753C185.001 54.7 186.015 55.48 186.015 57.196V73.888L182.531 76.644L181.127 76.878V79.374C181.127 80.076 181.595 80.466 182.271 80.362L185.807 79.27C186.041 79.218 186.197 79.322 186.197 79.556ZM183.597 73.758V58.054C183.597 56.962 183.207 56.442 182.349 56.442C181.517 56.442 181.127 56.962 181.127 58.054V75.162L182.193 75.058L183.597 73.758Z" fill="white"/>
</svg>
