<svg width="1280" height="20" viewBox="0 0 1280 20" fill="none" xmlns="http://www.w3.org/2000/svg">
<rect x="975" width="5.95133" height="20.0002" rx="2.97566" fill="#1D1D1D"/>
<rect x="960" width="5.95133" height="20.0002" rx="2.97566" fill="#1D1D1D"/>
<rect x="945" width="5.95133" height="20.0002" rx="2.97566" fill="#1D1D1D"/>
<rect x="930" width="5.95133" height="20.0002" rx="2.97566" fill="#1D1D1D"/>
<rect x="915" width="5.95133" height="20.0002" rx="2.97566" fill="#1D1D1D"/>
<rect x="900" width="5.95133" height="20.0002" rx="2.97566" fill="#1D1D1D"/>
<rect x="885" width="5.95133" height="20.0002" rx="2.97566" fill="#1D1D1D"/>
<rect x="870" width="5.95133" height="20.0002" rx="2.97566" fill="#1D1D1D"/>
<rect x="855" width="5.95133" height="20.0002" rx="2.97566" fill="#1D1D1D"/>
<rect x="840" width="5.95133" height="20.0002" rx="2.97566" fill="#1D1D1D"/>
<rect x="825" width="5.95133" height="20.0002" rx="2.97566" fill="#1D1D1D"/>
<rect x="810" width="5.95133" height="20.0002" rx="2.97566" fill="#1D1D1D"/>
<rect x="795" width="5.95133" height="20.0002" rx="2.97566" fill="#1D1D1D"/>
<rect x="780" width="5.95133" height="20.0002" rx="2.97566" fill="#1D1D1D"/>
<rect x="765.422" width="5.95133" height="20.0002" rx="2.97566" fill="#1D1D1D"/>
<rect x="1200" width="5.95133" height="20.0002" rx="2.97566" fill="#1D1D1D"/>
<rect x="1185" width="5.95133" height="20.0002" rx="2.97566" fill="#1D1D1D"/>
<rect x="1170" width="5.95133" height="20.0002" rx="2.97566" fill="#1D1D1D"/>
<rect x="1155" width="5.95133" height="20.0002" rx="2.97566" fill="#1D1D1D"/>
<rect x="1140" width="5.95133" height="20.0002" rx="2.97566" fill="#1D1D1D"/>
<rect x="1125" width="5.95133" height="20.0002" rx="2.97566" fill="#1D1D1D"/>
<rect x="1110" width="5.95133" height="20.0002" rx="2.97566" fill="#1D1D1D"/>
<rect x="1095" width="5.95133" height="20.0002" rx="2.97566" fill="#1D1D1D"/>
<rect x="1080" width="5.95133" height="20.0002" rx="2.97566" fill="#1D1D1D"/>
<rect x="1065" width="5.95133" height="20.0002" rx="2.97566" fill="#1D1D1D"/>
<rect x="1050" width="5.95133" height="20.0002" rx="2.97566" fill="#1D1D1D"/>
<rect x="1035" width="5.95133" height="20.0002" rx="2.97566" fill="#1D1D1D"/>
<rect x="1020" width="5.95133" height="20.0002" rx="2.97566" fill="#1D1D1D"/>
<rect x="1005" width="5.95133" height="20.0002" rx="2.97566" fill="#1D1D1D"/>
<rect x="990" width="5.95133" height="20.0002" rx="2.97566" fill="#1D1D1D"/>
<rect x="1275" width="5.95133" height="20.0002" rx="2.97566" fill="#1D1D1D"/>
<rect x="1260" width="5.95133" height="20.0002" rx="2.97566" fill="#1D1D1D"/>
<rect x="1245" width="5.95133" height="20.0002" rx="2.97566" fill="#1D1D1D"/>
<rect x="1230" width="5.95133" height="20.0002" rx="2.97566" fill="#1D1D1D"/>
<rect x="1215" width="5.95133" height="20.0002" rx="2.97566" fill="#1D1D1D"/>
<rect x="58.5776" width="5.95133" height="20.0002" rx="2.97566" fill="#1D1D1D"/>
<rect x="43.5776" width="5.95133" height="20.0002" rx="2.97566" fill="#1D1D1D"/>
<rect x="28.5776" width="5.95133" height="20.0002" rx="2.97566" fill="#1D1D1D"/>
<rect x="13.5776" width="5.95133" height="20.0002" rx="2.97566" fill="#1D1D1D"/>
<rect x="-1.42236" width="5.95133" height="20.0002" rx="2.97566" fill="#1D1D1D"/>
<rect x="283.578" width="5.95133" height="20.0002" rx="2.97566" fill="#1D1D1D"/>
<rect x="268.578" width="5.95133" height="20.0002" rx="2.97566" fill="#1D1D1D"/>
<rect x="253.578" width="5.95133" height="20.0002" rx="2.97566" fill="#1D1D1D"/>
<rect x="238.578" width="5.95133" height="20.0002" rx="2.97566" fill="#1D1D1D"/>
<rect x="223.578" width="5.95133" height="20.0002" rx="2.97566" fill="#1D1D1D"/>
<rect x="208.578" width="5.95133" height="20.0002" rx="2.97566" fill="#1D1D1D"/>
<rect x="193.578" width="5.95133" height="20.0002" rx="2.97566" fill="#1D1D1D"/>
<rect x="178.578" width="5.95133" height="20.0002" rx="2.97566" fill="#1D1D1D"/>
<rect x="163.578" width="5.95133" height="20.0002" rx="2.97566" fill="#1D1D1D"/>
<rect x="148.578" width="5.95133" height="20.0002" rx="2.97566" fill="#1D1D1D"/>
<rect x="133.578" width="5.95133" height="20.0002" rx="2.97566" fill="#1D1D1D"/>
<rect x="118.578" width="5.95133" height="20.0002" rx="2.97566" fill="#1D1D1D"/>
<rect x="103.578" width="5.95133" height="20.0002" rx="2.97566" fill="#1D1D1D"/>
<rect x="88.5776" width="5.95133" height="20.0002" rx="2.97566" fill="#1D1D1D"/>
<rect x="73.5776" width="5.95133" height="20.0002" rx="2.97566" fill="#1D1D1D"/>
<rect x="508.578" width="5.95133" height="20.0002" rx="2.97566" fill="#1D1D1D"/>
<rect x="493.578" width="5.95133" height="20.0002" rx="2.97566" fill="#1D1D1D"/>
<rect x="478.578" width="5.95133" height="20.0002" rx="2.97566" fill="#1D1D1D"/>
<rect x="463.578" width="5.95133" height="20.0002" rx="2.97566" fill="#1D1D1D"/>
<rect x="448.578" width="5.95133" height="20.0002" rx="2.97566" fill="#1D1D1D"/>
<rect x="433.578" width="5.95133" height="20.0002" rx="2.97566" fill="#1D1D1D"/>
<rect x="418.578" width="5.95133" height="20.0002" rx="2.97566" fill="#1D1D1D"/>
<rect x="403.578" width="5.95133" height="20.0002" rx="2.97566" fill="#1D1D1D"/>
<rect x="388.578" width="5.95133" height="20.0002" rx="2.97566" fill="#1D1D1D"/>
<rect x="373.578" width="5.95133" height="20.0002" rx="2.97566" fill="#1D1D1D"/>
<rect x="358.578" width="5.95133" height="20.0002" rx="2.97566" fill="#1D1D1D"/>
<rect x="343.578" width="5.95133" height="20.0002" rx="2.97566" fill="#1D1D1D"/>
<rect x="328.578" width="5.95133" height="20.0002" rx="2.97566" fill="#1D1D1D"/>
<rect x="313.578" width="5.95133" height="20.0002" rx="2.97566" fill="#1D1D1D"/>
<rect x="298.578" width="5.95133" height="20.0002" rx="2.97566" fill="#1D1D1D"/>
</svg>
